<?xml version="1.0" encoding="utf-8" ?>
<svg xmlns="http://www.w3.org/2000/svg" xmlns:xlink="http://www.w3.org/1999/xlink" width="1024" height="1024">
	<path fill="#FEFEFE" d="M0 0L1024 0L1024 1024L0 1024L0 0Z"/>
	<path fill="#969595" d="M698.521 448.112C699.871 410.422 711.732 382.034 732.686 351.511C737.146 345.016 741.582 338.044 747.043 332.329C761.681 404.613 757.323 475.275 732.015 544.652C722.032 525.487 713.963 500.064 707.423 479.349C704.175 469.063 700.57 458.714 698.521 448.112Z"/>
	<path fill="#969595" d="M278.186 335.417C296.987 359.194 317.568 390.021 323.307 420.311C325.249 430.557 325.025 440.461 325.795 450.734C320.034 469.447 312.13 487.56 304.821 505.71C299.788 518.206 295.202 531.376 289.192 543.431C286.774 535.612 284.069 527.92 281.928 520.011C265.517 459.393 260.886 396.326 278.186 335.417Z"/>
	<path fill="#CAC9C9" d="M680.124 238.117Q687.631 238.993 695.086 240.241Q702.54 241.489 709.923 243.106Q717.307 244.722 724.6 246.703Q731.894 248.684 739.081 251.025Q746.267 253.366 753.329 256.061Q760.39 258.755 767.309 261.797Q774.228 264.839 780.988 268.221Q787.747 271.603 794.33 275.316C777.561 293.048 760.531 311.93 747.043 332.329C741.582 338.044 737.146 345.016 732.686 351.511C711.732 382.034 699.871 410.422 698.521 448.112C695.146 439.386 692.905 430.034 690.346 421.036C674.536 365.434 672.286 315.276 678.028 257.987C678.831 251.381 679.673 244.759 680.124 238.117Z"/>
	<path fill="#CAC9C9" d="M229.655 277.737C257.281 256.17 310.446 241.792 344.94 237.836C345.962 244.349 346.619 250.949 347.517 257.485Q348.194 262.049 348.759 266.628Q349.323 271.207 349.775 275.798Q350.227 280.39 350.565 284.991Q350.903 289.592 351.129 294.2Q351.354 298.809 351.465 303.421Q351.577 308.033 351.575 312.647Q351.573 317.261 351.458 321.873Q351.342 326.485 351.113 331.093Q350.884 335.701 350.542 340.302Q350.199 344.903 349.744 349.494Q349.288 354.085 348.72 358.664Q348.151 363.242 347.47 367.806Q346.789 372.369 345.996 376.914Q345.203 381.459 344.299 385.983Q343.394 390.507 342.378 395.007Q341.362 399.508 340.236 403.982C337.301 415.192 333.542 426.234 330.042 437.278C328.659 441.643 326.717 446.277 325.795 450.734C325.025 440.461 325.249 430.557 323.307 420.311C317.568 390.021 296.987 359.194 278.186 335.417C276.102 331.146 271.104 326.333 268.015 322.598Q256.413 308.51 244.468 294.712C239.55 289.063 234.272 283.627 229.655 277.737Z"/>
	<path fill="#969595" d="M428.57 174.135C428.319 173.216 428.253 172.804 428.553 171.892C429.062 171.595 429.189 171.474 429.85 171.353C431.801 170.995 434.943 171.504 437.019 171.504L462.851 171.48L563.402 171.461C567.915 171.452 593.047 170.566 595.597 172.118L595.38 173.382C597.169 185.362 608.221 233.376 617.564 240.243C618.549 240.967 619.614 241.618 620.667 242.239C628.041 247.637 635.374 252.993 643.211 257.709C654.706 257.62 666.581 256.927 678.028 257.987C672.286 315.276 674.536 365.434 690.346 421.036C692.905 430.034 695.146 439.386 698.521 448.112C700.57 458.714 704.175 469.063 707.423 479.349C713.963 500.064 722.032 525.487 732.015 544.652C715.773 588.473 699.69 632.076 695.036 678.913C693.612 699.155 691.388 719.377 692.412 739.707C679.859 748.048 666.772 755.679 653.937 763.585L583.641 806.933L543.723 832.121C538.204 835.551 532.567 839.594 526.738 842.418C521.993 845.319 517.282 848.44 512.28 850.878C507.761 848.259 503.201 845.692 498.765 842.935C478.659 832.021 459.871 819.2 440.409 807.277L333.584 742.659C334.249 721.152 332.791 699.993 330.83 678.603C326.508 645.461 319.184 616.544 306.686 585.447Q301.05 571.723 295.136 558.117C293.086 553.331 290.605 548.447 289.192 543.431C295.202 531.376 299.788 518.206 304.821 505.71C312.13 487.56 320.034 469.447 325.795 450.734C326.717 446.277 328.659 441.643 330.042 437.278C333.542 426.234 337.301 415.192 340.236 403.982Q341.362 399.508 342.378 395.007Q343.394 390.507 344.299 385.983Q345.203 381.459 345.996 376.914Q346.789 372.369 347.47 367.806Q348.151 363.242 348.72 358.664Q349.288 354.085 349.744 349.494Q350.199 344.903 350.542 340.302Q350.884 335.701 351.113 331.093Q351.342 326.485 351.458 321.873Q351.573 317.261 351.575 312.647Q351.577 308.033 351.465 303.421Q351.354 298.809 351.129 294.2Q350.903 289.592 350.565 284.991Q350.226 280.39 349.775 275.798Q349.323 271.207 348.759 266.628Q348.194 262.049 347.517 257.485C355.076 257.454 375.188 256.484 381.478 257.747C388.8 254.164 396.531 247.189 402.637 241.787C415.661 227.584 424.247 193.029 428.57 174.135Z"/>
	<path fill="#CAC9C9" d="M595.38 173.382C597.169 185.362 608.221 233.376 617.564 240.243C618.549 240.967 619.614 241.618 620.667 242.239Q590.056 264.235 559.717 286.602C548.183 295.052 536.528 304.512 524.423 312.049C524.425 290.517 525.079 268.748 524.076 247.244C528.97 245.634 533.706 243.248 538.174 240.704C559.665 228.465 575.897 209.942 588.08 188.69C590.757 184.021 593.943 178.565 595.38 173.382Z"/>
	<path fill="#CAC9C9" d="M428.57 174.135C444.24 208.372 465.002 232.057 500.007 247.581C499.377 269.162 499.976 290.964 500.012 312.565C486.185 303.28 472.865 293.06 459.409 283.242L402.637 241.787C415.661 227.584 424.247 193.029 428.57 174.135Z"/>
	<path fill="#666463" d="M428.57 174.135C428.319 173.216 428.253 172.804 428.553 171.892C429.062 171.595 429.189 171.474 429.85 171.353C431.801 170.995 434.943 171.504 437.019 171.504L462.851 171.48L563.402 171.461C567.915 171.452 593.047 170.566 595.597 172.118L595.38 173.382C593.943 178.565 590.757 184.021 588.08 188.69C575.897 209.942 559.665 228.465 538.174 240.704C533.706 243.248 528.97 245.634 524.076 247.244C513.934 250.7 510.42 251.248 500.007 247.581C465.002 232.057 444.24 208.372 428.57 174.135Z"/>
	<path fill="#E2E2E1" d="M347.517 257.485C355.076 257.454 375.188 256.484 381.478 257.747C382.915 261.629 487.204 335.199 499.441 345.431L499.202 692.619C498.988 698.028 499.208 703.542 499.215 708.962C444.027 708.658 382.221 699.122 330.83 678.603C326.508 645.461 319.184 616.544 306.686 585.447Q301.05 571.723 295.136 558.117C293.086 553.331 290.605 548.447 289.192 543.431C295.202 531.376 299.788 518.206 304.821 505.71C312.13 487.56 320.034 469.447 325.795 450.734C326.717 446.277 328.659 441.643 330.042 437.278C333.542 426.234 337.301 415.192 340.236 403.982Q341.362 399.508 342.378 395.007Q343.394 390.507 344.299 385.983Q345.203 381.459 345.996 376.914Q346.789 372.369 347.47 367.806Q348.151 363.242 348.72 358.664Q349.288 354.085 349.744 349.494Q350.199 344.903 350.542 340.302Q350.884 335.701 351.113 331.093Q351.342 326.485 351.458 321.873Q351.573 317.261 351.575 312.647Q351.577 308.033 351.465 303.421Q351.354 298.809 351.129 294.2Q350.903 289.592 350.565 284.991Q350.226 280.39 349.775 275.798Q349.323 271.207 348.759 266.628Q348.194 262.049 347.517 257.485Z"/>
	<path fill="#969595" d="M354.442 430.885C361.125 432.591 399.09 457.806 407.451 463.055L460.918 496.08L460.947 516.237C449.817 508.214 439.395 499.01 428.737 490.365Q405.986 471.969 383.046 453.811C373.518 446.166 364.185 438.255 354.442 430.885Z"/>
	<path fill="#969595" d="M347.442 501.875C351.69 502.925 366.865 513.94 371.779 517.165L426.395 553.281C437.78 560.938 448.986 568.85 460.497 576.318L460.506 596.327C455.846 593.268 451.606 589.158 447.329 585.563L421.109 563.406C396.621 542.809 371.735 522.713 347.442 501.875Z"/>
	<path fill="#E2E2E1" d="M678.028 257.987C672.286 315.276 674.536 365.434 690.346 421.036C692.905 430.034 695.146 439.386 698.521 448.112C700.57 458.714 704.175 469.063 707.423 479.349C713.963 500.064 722.032 525.487 732.015 544.652C715.773 588.473 699.69 632.076 695.036 678.913C641.693 700.89 582.245 708.212 524.943 708.929C524.233 674.225 525.093 639.361 525.087 604.639L524.633 344.991C532.76 338.151 542.083 332.045 550.635 325.692L611.885 280.8C622.342 273.151 633.074 265.778 643.211 257.709C654.706 257.62 666.581 256.927 678.028 257.987Z"/>
	<path fill="#969595" d="M672.01 428.506L672.394 428.959L562.956 516.302C561.681 514.749 562.346 499.263 562.352 496.454Q595.694 476.524 628.45 455.644C642.93 446.614 657.916 438.116 672.01 428.506Z"/>
	<path fill="#969595" d="M679.92 497.503L680.13 497.675C679.833 499.029 576.226 585.053 563.872 595.618C563.752 595.532 563.598 595.479 563.512 595.359C562.231 593.57 563.173 579.203 563.238 576.257C582.577 564.539 601.002 550.902 619.812 538.327L655.615 514.21C663.742 508.758 672.2 503.511 679.92 497.503Z"/>
</svg>
