<?xml version="1.0" encoding="utf-8" ?>
<svg xmlns="http://www.w3.org/2000/svg" xmlns:xlink="http://www.w3.org/1999/xlink" width="1024" height="1024">
	<path fill="#FEFEFE" d="M0 0L1024 0L1024 1024L0 1024L0 0Z"/>
	<path fill="#D5D4D4" d="M363.616 339.242C366.89 334.9 372.238 330.93 376.229 327.18C387.01 317.054 397.536 306.268 405.329 293.605C410.784 284.739 416.104 275.434 420.39 265.933C435.455 232.533 444.386 196.526 471.132 169.803C481.869 159.075 496.403 149.824 512.096 149.843C530.389 150.718 545.991 161.534 557.927 174.752C577.777 196.735 585.26 220.335 596.46 246.769C606.544 270.568 618.868 294.463 636.252 313.772C644.493 322.926 653.775 331.224 662.896 339.483L664.269 340.43L664.285 341.237C656.245 342.552 648.074 343.031 640.007 344.417C619.672 347.911 597.682 356.79 581.513 369.635C556.239 386.634 535.09 408.78 512.812 429.342C505.647 424.569 499.485 417.254 493.253 411.292C477.923 396.623 459.153 379.379 440.396 369.357C415.068 352.957 388.043 344.366 357.94 342.851L363.616 339.242Z"/>
	<path fill="#4E4C4A" d="M511.441 293.193C527.383 293.822 542.51 295.718 558.069 299.323C566.677 301.318 575.503 304.219 584.175 305.692C597.329 310.6 610.734 314.334 623.564 320.172C629.385 322.821 660.474 339.554 662.896 339.483L664.269 340.43L664.285 341.237C656.245 342.552 648.074 343.031 640.007 344.417C619.672 347.911 597.682 356.79 581.513 369.635C556.239 386.634 535.09 408.78 512.812 429.342C505.647 424.569 499.485 417.254 493.253 411.292C477.923 396.623 459.153 379.379 440.396 369.357C415.068 352.957 388.043 344.366 357.94 342.851L363.616 339.242C370.152 337.419 376.715 332.23 382.901 329.243C401.597 320.216 420.697 311.22 440.712 305.495C464.087 298.837 487.08 293.802 511.441 293.193Z"/>
	<defs>
		<linearGradient id="gradient_0" gradientUnits="userSpaceOnUse" x1="406.67767" y1="272.17419" x2="615.05237" y2="409.97794">
			<stop offset="0" stop-color="#BBBAB9"/>
			<stop offset="1" stop-color="#EDECEC"/>
		</linearGradient>
	</defs>
	<path fill="url(#gradient_0)" d="M363.616 339.242C370.152 337.419 376.715 332.23 382.901 329.243C401.597 320.216 420.697 311.22 440.712 305.495C452.698 349.475 479.805 383.818 512.201 414.977C545.551 384.817 571.641 349.189 584.175 305.692C597.329 310.6 610.734 314.334 623.564 320.172C629.385 322.821 660.474 339.554 662.896 339.483L664.269 340.43L664.285 341.237C656.245 342.552 648.074 343.031 640.007 344.417C619.672 347.911 597.682 356.79 581.513 369.635C556.239 386.634 535.09 408.78 512.812 429.342C505.647 424.569 499.485 417.254 493.253 411.292C477.923 396.623 459.153 379.379 440.396 369.357C415.068 352.957 388.043 344.366 357.94 342.851L363.616 339.242Z"/>
	<path fill="#D5D4D4" d="M440.396 369.357C459.153 379.379 477.923 396.623 493.253 411.292C499.485 417.254 505.647 424.569 512.812 429.342C535.09 408.78 556.239 386.634 581.513 369.635C590.128 374.365 598.471 379.636 607.098 384.307C622.713 393.097 638.804 407.608 643.796 425.33C648.924 443.534 649.138 462.897 650.442 481.652Q652.357 509.2 654.908 536.696C663.388 629.617 678.15 732.54 708.711 820.933C714.611 837.998 720.693 856.004 730.232 871.419L617.494 871.814C599.496 871.849 581.438 871.5 563.448 871.84C557.822 873.025 541.836 872.113 535.007 872.109Q493.802 872.466 452.602 871.668C400.702 871.055 348.77 872.279 296.879 871.57C303.555 854.846 310.012 837.9 315.521 820.755C341.212 740.808 356.649 647.51 364.955 563.989Q368.654 526.631 371.7 489.215C373.001 472.446 373.003 454.915 376.624 438.474C382.34 412.517 392.467 398.68 414.896 384.365C423.069 378.977 431.828 374.088 440.396 369.357Z"/>
	<path fill="#B3B2B2" d="M618.18 443.359C619.071 448.594 617.436 460.674 617.423 466.922Q617.316 499.032 618.77 531.109C620.496 568.739 623.85 606.76 630.015 643.937Q635.422 674.668 642.466 705.065Q649.51 735.462 658.171 765.439C660.622 774.195 662.748 783.197 665.6 791.826C666.351 794.099 667.468 796.193 668.19 798.498C670.314 805.281 672.095 812.522 675.238 818.91L675.59 819.612L675.45 820.012C673.957 818.71 673.422 816.905 672.7 815.115C669.691 807.663 666.145 800.354 662.98 792.955C653.054 769.747 642.99 745.965 635.198 721.963C610.577 646.122 605.499 569.8 612.7 490.758Q614.091 475.07 616.039 459.441C616.679 454.109 617.107 448.621 618.18 443.359Z"/>
	<path fill="#B3B2B2" d="M440.396 369.357C459.153 379.379 477.923 396.623 493.253 411.292C499.485 417.254 505.647 424.569 512.812 429.342C535.09 408.78 556.239 386.634 581.513 369.635C590.128 374.365 598.471 379.636 607.098 384.307C601.874 389.261 593.828 392.987 587.698 396.894L546.184 423.88C537.767 429.351 528.894 434.618 520.794 440.534C519.835 441.234 519.093 441.705 518.735 442.87C518.173 441.594 517.394 440.551 516.335 439.641Q516.097 439.44 515.84 439.263Q515.583 439.087 515.31 438.937Q515.037 438.787 514.75 438.664Q514.464 438.542 514.166 438.449Q513.869 438.356 513.564 438.292Q513.258 438.229 512.948 438.197Q512.638 438.164 512.327 438.162Q512.015 438.161 511.705 438.19C509.287 438.407 507.535 439.738 505.955 441.469C493.029 432.711 479.531 424.65 466.306 416.341Q440.775 400.073 414.896 384.365C423.069 378.977 431.828 374.088 440.396 369.357Z"/>
	<path fill="#7C7C7C" d="M505.955 441.469C507.535 439.738 509.287 438.407 511.705 438.19Q512.015 438.161 512.327 438.162Q512.638 438.164 512.948 438.197Q513.258 438.229 513.564 438.292Q513.869 438.356 514.166 438.449Q514.464 438.542 514.75 438.664Q515.037 438.787 515.31 438.937Q515.583 439.087 515.84 439.263Q516.097 439.44 516.335 439.641C517.394 440.551 518.173 441.594 518.735 442.87C519.517 458.597 519.427 474.541 519.514 490.293C521.011 491.196 522.799 491.95 523.318 493.741C523.796 495.388 523.892 497.679 523.126 499.258C522.666 500.208 521.999 500.472 521.196 501.056C519.661 502.174 519.7 503.074 519.512 504.927C518.797 511.985 520.035 520.081 520.396 527.21C521.204 543.181 521.934 559.121 523.052 575.078Q527.22 634.658 533.423 694.061C536.853 727.704 540.446 761.259 546.156 794.605C548.945 810.888 552.259 827.35 556.17 843.405C557.986 850.859 562.692 864.927 563.173 871.557L460.204 871.537Q465.003 852.307 469.286 832.956Q473.57 813.605 477.336 794.147Q481.101 774.688 484.346 755.136Q487.591 735.584 490.313 715.953Q493.035 696.321 495.232 676.624Q497.429 656.927 499.099 637.178Q500.769 617.429 501.912 597.642Q503.055 577.856 503.669 558.046Q504.447 539.098 504.99 520.141C505.14 514.49 505.789 508.277 505.128 502.683Q504.519 502.222 503.921 501.746C502.318 500.463 500.764 499.013 500.747 496.789C500.721 493.574 502.468 493.037 504.393 491.096C506.253 489.221 506.01 447.37 505.955 441.469Z"/>
</svg>
