<?xml version="1.0" encoding="utf-8" ?>
<svg xmlns="http://www.w3.org/2000/svg" xmlns:xlink="http://www.w3.org/1999/xlink" width="1023" height="1023">
	<path fill="#04ADB2" d="M0 0L1024 0L1024 1024L995.973 1024L988.227 1024L933.147 1024L688.647 1024L678.86 1024L673.335 1024L664.097 1024L338.084 1024L333.635 1024L325.305 1024L77.3286 1024L32.6718 1024L25.7047 1024L0 1024L0 0Z"/>
	<path d="M587.571 160.494C595.343 129.428 608.943 104.498 633.375 83.3165C638.965 78.4703 644.725 73.7851 651.072 69.956C663.747 62.3095 678.481 56.9757 693.392 56.5095C702.609 56.2213 711.395 59.3724 720.509 59.8792C745.457 61.2666 767.487 53.0477 781.041 31.2847C785.259 24.511 788.164 17.0996 791.156 9.7348C789.953 37.4752 781.328 63.7765 760.448 82.9264C730.253 110.62 703.233 96.9167 677.727 139.017C670.896 150.293 666.568 162.884 665.987 176.103C665.826 179.772 665.916 183.426 666.541 187.052C667.307 191.499 675.357 220.167 677.004 222.9C680.098 228.036 684.67 232.58 688.339 237.341C697.856 249.689 705.819 263.868 710.396 278.828C713.814 289.997 713.626 298.454 715.794 308.94C718.418 321.629 722.943 327.286 722.629 341.957C722.443 350.64 718.074 359.599 718.679 366.462C718.836 368.237 718.913 370.415 718.602 372.154C717.372 379.028 714.762 385.932 713.067 392.738C710.799 401.85 710.853 407.816 707.399 417.459C711.457 417.023 715.525 417.066 718.915 419.745C722.387 422.488 723.376 426.763 723.724 430.959C725.214 448.942 717.699 467.399 713.775 484.694C711.947 492.746 711.082 501.046 708.633 508.941C706.451 515.978 694.508 545.203 690.417 550.101C687.28 553.858 682.459 556.055 677.626 556.374C674.205 556.6 671.417 555.838 668.21 554.83C666.634 562.044 665.185 569.299 663.479 576.482C662.241 581.698 660.037 587.67 659.822 593.018C659.382 603.962 665.069 617.301 670.887 626.319C676.287 634.689 683.691 641.523 690.377 648.831C703.759 663.458 707.901 679.552 703.915 698.847C700.399 715.866 692.008 730.276 683.037 744.9C700.011 750.897 713.853 760.828 721.765 777.372C728.61 791.688 724.944 807.575 720.523 822.069C722.435 801.404 722.785 788.411 708.927 771.7C703.044 764.606 696.27 759.824 688.263 755.378C699.961 772.29 711.546 788.512 707.425 810.306C706.308 816.214 703.772 821.448 701.182 826.814L710.798 832.645C729.62 828.364 747.096 827.601 763.995 838.296C769.416 841.726 773.85 846.598 779.334 849.837C797.204 860.394 830.783 871.418 851.137 877.73Q868.227 883.037 885.674 887.01C895.524 889.265 905.552 891.006 915.109 894.353C940.675 903.304 959.086 922.561 971.057 946.377C983.244 970.623 989.052 997.921 995.973 1024L988.227 1024L933.147 1024L688.647 1024L678.86 1024L673.335 1024L664.097 1024L338.084 1024L333.635 1024L325.305 1024L77.3286 1024L32.6718 1024L25.7047 1024C36.351 982.24 48.8963 926.791 88.8947 903.175C106.684 892.671 131.953 888.404 152.028 883.176Q169.838 878.358 187.325 872.474Q204.812 866.589 221.912 859.659C228.797 856.922 236.213 854.496 242.678 850.894Q250.313 846.709 257.099 841.254C269.986 830.946 277.108 824.448 294.603 828.993C300.032 830.403 305.056 832.75 310.048 835.268L317.992 830.605C308.652 802.574 315.68 787.349 327.327 762.197C315.179 771.049 303.039 779.047 300.494 795.028C299.201 803.147 300.422 809.478 303.613 817.004C297.317 808.58 292.397 797.978 293.808 787.194C295.976 770.638 311.184 763.584 320.82 751.832C325.499 746.125 328.535 739.671 330.714 732.655C321.856 711.287 312.128 688.103 321.634 665.146C325.628 655.501 333.327 648.707 340.054 641C347.489 632.483 354.657 622.894 359.273 612.556C360.862 608.995 362.776 604.463 362.66 600.521C362.471 594.104 360.238 586.967 358.952 580.62Q356.323 567.843 354.714 554.899C351.635 558.022 348.382 560.405 343.779 560.419C339.815 560.431 336.324 558.388 333.62 555.614C325.808 547.603 324.377 532.306 320.934 521.915C311.561 493.63 295.937 462.56 297.154 432.048C297.324 427.79 298.078 424.112 301.378 421.168C303.574 419.21 306.021 418.138 308.771 417.188L314.76 418.778C312.566 411.116 313.322 403.607 311.305 397.046C308.322 387.344 303.687 378.114 300.329 368.527C292.635 346.565 304.871 327.153 310.621 306.373C313.199 297.056 311.605 287.79 316.492 278.91Q321.068 270.772 326.971 263.54C330.607 259.013 335.122 254.397 337.701 249.206C340.709 243.152 339.815 228.419 341.384 220.722C343.21 211.759 347.101 204.821 351.029 196.737C357.15 184.14 355.767 169.324 352.026 156.23C347.13 139.094 335.868 118.483 319.695 109.666C309.557 104.139 298.62 102.464 287.951 98.5737C260.865 88.6981 240.939 65.4825 232.733 38.1525C230.063 29.2587 229.18 20.9574 229.507 11.7156C239.097 31.3127 252.555 50.9262 274.148 58.458C290.389 64.1227 308.323 58.9908 325.011 58.5636C367.079 57.487 404.481 89.2255 422.217 125.365C427.835 136.812 431.212 148.586 433.84 161C455.986 149.422 482.774 141.569 507.543 149.428C515.257 151.876 521.946 155.987 527.78 161.571C541.661 152.87 555.572 151.673 571.405 155.316C576.944 156.59 582.294 158.401 587.571 160.494Z"/>
	<path fill="#363738" d="M690.038 819.908C693.686 815.728 694.508 809.551 695.452 804.299C695.573 808.901 695.881 817.44 693.046 821.301C691.338 821.179 691.904 819.843 690.038 819.908Z"/>
	<path fill="#4D3A36" d="M679.381 746.388C683.675 747.533 688.821 748.535 692.493 751.18C693.814 753.39 695.698 755.125 697.068 757.35C690.986 754.107 685.145 750.163 679.381 746.388Z"/>
	<path fill="#363738" d="M442.136 288.19C445.931 286.254 449.576 283.906 453.247 281.74L464.594 287.593C461.628 287.225 456.931 286.288 454.096 287.282L456.211 287.975Q449.174 288.144 442.136 288.19Z"/>
	<path fill="#363738" d="M705.338 406.068Q705.201 406.767 704.995 407.45Q704.79 408.132 704.518 408.791Q704.247 409.45 703.911 410.079Q703.576 410.708 703.181 411.302Q702.786 411.895 702.334 412.446Q701.882 412.997 701.378 413.502Q700.875 414.006 700.324 414.458Q699.773 414.91 699.18 415.306C694.155 418.722 687.335 419.302 681.409 418.934L681.878 417.746C682.882 417.107 683.729 416.505 684.926 416.292C686.231 416.501 687.245 416.714 688.544 416.305C695.566 414.67 700.266 410.946 705.338 406.068Z"/>
	<path fill="#FE2623" d="M641.494 79.97C643.16 80.8035 644.725 81.8372 646.305 82.8217C642.896 84.8758 639.724 86.9585 636.652 89.4993C634.747 91.0754 632.707 93.3065 630.622 94.5811C630.256 94.8053 629.985 94.8118 629.597 94.8648C628.489 94.5686 627.365 94.3347 626.324 93.8496C631.109 88.9905 636.419 84.5308 641.494 79.97Z"/>
	<path fill="#FE2623" d="M780.02 37.5705C782.756 33.4551 784.923 28.9749 787.673 24.8426C786.776 28.2293 785.748 31.5919 784.782 34.9602C783.97 36.1589 783.305 37.2369 782.094 38.0806Q776.173 46.0401 769.538 53.4157C767.436 53.7653 765.595 54.3378 763.607 55.1009L763.443 53.6481C764.847 52.0771 767.249 50.6397 768.883 49.2245C773.109 45.5635 776.602 41.9843 780.02 37.5705Z"/>
	<path fill="#202324" d="M686.024 445.767L686.276 445.959C682.902 452.07 679.959 458.476 675.87 464.166C674.753 461.108 675.152 450.434 674.974 446.513C678.684 446.654 682.398 446.623 686.024 445.767Z"/>
	<path fill="#363738" d="M690.272 462.818C690.324 462.365 690.365 461.776 690.496 461.319C691.012 459.508 692.367 457.658 693.364 456.068C698.568 447.767 704.609 442.063 712.823 436.788C711.974 445.132 711.755 453.64 711.246 462.019C710.171 455.854 709.71 451.382 706.178 445.956C703.652 446.821 701.111 447.628 699.468 449.882C698.716 450.913 698.884 450.658 699.049 451.745C696.237 455.517 693.218 459.149 690.272 462.818Z"/>
	<path fill="#202324" d="M348.191 459.84L347.902 459.022L347.443 459.057C347.245 459.964 347.024 460.789 346.688 461.654C345.044 461.123 340.764 453.117 339.635 451.257C338.191 448.877 334.125 443.362 334.75 440.818C339.439 444.472 344.196 445.32 349.528 447.58C349.23 451.016 349.479 456.813 348.191 459.84Z"/>
	<path fill="#535353" d="M692.493 751.18C705.398 756.837 716.602 768.549 721.629 781.712C723.453 786.489 724.056 792.02 723.806 797.115L723.513 797.333C722.505 794.547 722.343 791.49 721.288 788.612C716.796 776.36 707.434 765.139 697.068 757.35C695.698 755.125 693.814 753.39 692.493 751.18Z"/>
	<path fill="#707172" d="M712.649 373.666L716.082 370.258C715.243 375.761 714.746 380.88 709.862 384.375C702.678 389.515 692.054 390.189 683.643 388.506C679.599 387.697 674.526 385.293 671.461 382.53L671.532 381.968C672.486 382.173 673.432 382.379 674.379 382.612C678.028 384.512 683.5 384.721 687.561 384.427C695.936 383.822 706.969 380.139 712.649 373.666Z"/>
	<path fill="#363738" d="M690.526 766.01C687.801 761.329 684.979 756.68 682.483 751.872C686.23 755.837 689.48 759.862 692.348 764.509C701.608 778.297 708.715 793.066 705.411 810.105C704.322 815.722 702.031 821.008 699.701 826.204L695.951 823.417C702.164 806.808 701.409 789.088 694.027 773.001Q692.368 769.459 690.526 766.01Z"/>
	<path fill="#202324" d="M323.63 777.441C324.078 780.043 322.939 784.176 322.903 786.969C322.726 801.004 325.087 809.55 331.315 821.985L324.239 826.335C322.953 827.215 321.962 828.161 320.377 828.305C320.046 827.537 319.754 826.812 319.509 826.011C314.83 810.737 315.967 791.547 323.63 777.441Z"/>
	<path fill="#363738" d="M688.553 463.434L690.141 465.904C691.435 467.879 692.4 469.775 693.327 471.945C697.166 480.925 702.584 491.14 698.443 500.896C696.256 506.046 692.398 509.73 687.268 511.846C687.031 511.84 686.837 511.647 686.632 511.529C688.178 508.778 689.872 506.321 690.782 503.249C694.02 492.32 686.419 482.434 681.606 473.239Q684.998 468.279 688.553 463.434Z"/>
	<path fill="#535353" d="M662.737 653.875C676.7 672.703 685.737 695.522 682.314 719.311C681.343 726.06 679.609 732.861 677.784 739.43C675.077 733.775 676.969 714.89 676.306 707.12C675.353 695.966 673.263 683.441 669.663 672.824C668.22 666.193 665.428 660.07 662.737 653.875Z"/>
	<path fill="#FC3E3D" d="M763.443 53.6481L763.607 55.1009C748.714 63.3627 734.077 65.1299 717.241 64.8424L716.872 64.5073L716.297 64.5094C710.502 64.4754 704.769 63.1929 698.985 63.171C681.047 63.1028 660.999 70.7057 647.179 82.0533C645.477 81.3547 643.836 80.3944 642.199 79.5502Q643.413 78.6644 644.645 77.804C659.74 67.2213 677.823 58.5838 696.714 59.1046C703.393 59.2887 710.048 60.6924 716.614 61.8405C733.275 63.9699 748.643 61.7409 763.443 53.6481Z"/>
	<path fill="#ADACAC" d="M679.921 475.287C680.597 475.695 680.432 475.5 680.877 476.135C685.147 482.222 691.014 493.1 689.798 500.728C688.781 507.113 683.814 511.655 678.831 515.241L672.221 519.561C673.006 513.666 673.788 507.765 674.168 501.827C674.582 495.361 673.925 488.689 675.787 482.411C676.538 479.878 678.451 477.465 679.921 475.287Z"/>
	<path fill="#740A08" d="M612.451 111.692C611.947 113.031 611.537 114.473 610.664 115.622L610.446 115.456L609.84 115.692C596.112 138.404 597.064 159.912 592.235 184.642C590.242 194.848 586.808 204.69 582.967 214.326C581.864 205.215 581.591 196.47 583.185 187.392C586.024 171.232 599.818 120.545 612.451 111.692Z"/>
	<path fill="#202324" d="M312.795 364.887C313.268 363.78 313.194 363.432 314.256 362.782C323.09 368.895 334.387 371.779 345.026 370.316C354.559 369.006 360.831 364.356 366.57 356.814C366.498 361.682 360.327 378.373 357.05 381.703C348.507 384.032 331.525 379.961 323.847 375.558C319.617 373.132 314.994 369.327 312.795 364.887Z"/>
	<path fill="#707172" d="M737.393 850.172C743.628 853.456 749.837 856.798 756.196 859.838C753.885 869.959 751.683 880.149 748.499 890.04Q735.34 892.146 722.294 894.865C728.119 882.411 733.035 870.428 737.512 857.423C738.148 855.371 737.541 852.33 737.393 850.172Z"/>
	<path fill="#202324" d="M650.212 335.929C658.026 344.074 667.245 349.927 678.59 351.598C685.943 352.68 694.237 352.126 700.388 347.585C700.134 349.334 699.948 349.882 698.469 350.977C698.334 351.076 698.192 351.164 698.054 351.258C691.738 352.936 685.822 356.058 679.484 357.584C672.883 357.656 667.425 356.752 661.276 354.342C663.563 358.895 667.126 363.183 669.116 367.711C669.904 370.239 672.483 371.871 674.748 373.092C682.46 377.249 692.5 377.586 700.74 375.008C703.807 374.048 706.833 372.769 709.563 371.064C711.329 369.961 714.754 366.175 716.411 365.939C716.769 367.076 716.481 367.693 715.897 368.699C715.105 370.065 712.828 372.191 712.649 373.666C706.969 380.139 695.936 383.822 687.561 384.427C683.5 384.721 678.028 384.512 674.379 382.612L674.59 382.402C673.159 381.642 671.734 380.776 670.445 379.792C667.97 377.9 665.811 374.726 663.877 372.242C654.416 360.095 652.463 350.766 650.212 335.929Z"/>
	<path fill="#535353" d="M347.814 670.963C347.853 674.989 346.538 679.248 345.896 683.24C344.419 692.421 343.368 704.242 345.042 713.501C345.047 716.938 344.948 720.351 344.605 723.774C343.269 737.079 336.255 751.035 326.36 760.054C322.343 763.716 317.568 766.607 313.377 770.09C303.315 778.452 298.458 786.648 297.292 799.655C291.023 770.112 318.307 766.535 328.688 744.28C335.687 729.274 334.379 718.066 336.945 702.534C338.777 691.445 342.941 681.03 347.814 670.963Z"/>
	<path fill="#707172" d="M714.382 312.679C719.54 326.968 723.252 345.916 716.472 360.36C713.463 366.771 707.725 371.077 701.128 373.313Q700.339 373.577 699.538 373.802Q698.738 374.026 697.927 374.212Q697.116 374.398 696.297 374.544Q695.478 374.69 694.653 374.796Q693.828 374.901 692.999 374.967Q692.17 375.033 691.338 375.058Q690.507 375.083 689.675 375.067Q688.844 375.052 688.014 374.996Q687.184 374.94 686.358 374.844Q685.532 374.748 684.711 374.611Q683.891 374.475 683.078 374.299Q682.265 374.122 681.461 373.907Q680.658 373.691 679.866 373.437Q679.074 373.182 678.296 372.889Q677.517 372.597 676.754 372.266Q675.99 371.936 675.244 371.569C673.096 370.487 671.081 369.089 669.116 367.711C667.126 363.183 663.563 358.895 661.276 354.342C667.425 356.752 672.883 357.656 679.484 357.584C685.822 356.058 691.738 352.936 698.054 351.258C698.192 351.164 698.334 351.076 698.469 350.977C699.948 349.882 700.134 349.334 700.388 347.585C701.618 346.322 706.937 339.499 708.167 339.463L708.913 339.852C709.257 338.361 709.364 338.093 708.626 336.678C708.272 335.998 707.716 335.339 707.258 334.722L707.335 333.914C708.192 333.477 708.938 333.244 709.861 333.013C710.881 332.757 711.337 332.585 712.025 331.736L712.242 330.722C711.36 330.298 710.662 330.239 709.692 330.172C709.942 327.961 711.362 326.111 712.037 324.001C713.181 320.43 713.948 316.39 714.382 312.679Z"/>
	<path fill="#363738" d="M679.484 357.584C685.822 356.058 691.738 352.936 698.054 351.258C693.341 356.12 687.595 357.231 681.104 357.494C680.564 357.516 680.024 357.554 679.484 357.584Z"/>
	<defs>
		<linearGradient id="gradient_0" gradientUnits="userSpaceOnUse" x1="327.44034" y1="941.69232" x2="269.29941" y2="944.59528">
			<stop offset="0" stop-color="#5A5F60"/>
			<stop offset="1" stop-color="#737272"/>
		</linearGradient>
	</defs>
	<path fill="url(#gradient_0)" d="M273.021 860.706C273.044 913.956 298.852 983.664 333.635 1024L325.305 1024C294.732 987.141 275.748 939.258 268.068 892.242C266.648 883.555 265.163 874.576 264.928 865.766C267.562 863.991 270.316 862.371 273.021 860.706Z"/>
	<path fill="#202324" d="M669.334 382.76C675.419 388.656 683.231 390.677 691.493 390.96C699.899 391.249 707.134 388.988 713.353 383.133C712.161 387.522 711.422 391.323 708.376 394.918C702.193 402.214 690.587 403.726 681.713 404.658C689.006 405.598 697.857 403.721 704.179 399.966C705.905 398.941 707.308 397.375 708.962 396.2L709.916 396.375L708.704 399.17C707.664 401.528 706.551 403.795 705.338 406.068C700.266 410.946 695.566 414.67 688.544 416.305C687.245 416.714 686.231 416.501 684.926 416.292C683.729 416.505 682.882 417.107 681.878 417.746L681.409 418.934C679.196 418.707 675.729 417.855 673.66 418.269C673.819 418.301 673.979 418.329 674.137 418.365C675.134 418.588 674.674 418.47 675.536 418.783C681.76 421.04 691.791 420.769 697.743 417.751C702.147 415.518 704.884 411.755 707.552 407.774C705.574 413.494 703.552 418.975 699.36 423.483C696.904 427.136 693.965 430.851 691.878 434.704C690.607 437.638 689.041 440.354 687.445 443.119C683.213 445.298 679.474 445.484 674.834 445.713C674.155 439.003 673.994 432.229 673.501 425.5C672.46 411.297 671.109 396.89 669.334 382.76Z"/>
	<path fill="#535353" d="M684.926 416.292C685.806 414.633 686.899 413.365 688.138 411.961C688.264 413.313 688.182 415.043 688.544 416.305C687.245 416.714 686.231 416.501 684.926 416.292Z"/>
	<path fill="#363738" d="M681.575 431.782C684.955 429.149 695.001 423.178 699.36 423.483C696.904 427.136 693.965 430.851 691.878 434.704C689.227 435.805 686.709 436.135 683.885 436.497Q682.698 434.155 681.575 431.782Z"/>
	<path fill="#535353" d="M688.138 411.961C693.643 408.939 703.72 401.015 708.704 399.17C707.664 401.528 706.551 403.795 705.338 406.068C700.266 410.946 695.566 414.67 688.544 416.305C688.182 415.043 688.264 413.313 688.138 411.961Z"/>
	<path fill="#363738" d="M331.673 730.368C326.295 717.894 321.996 703.464 321.558 689.878C320.767 665.372 331.725 657.093 346.191 639.86C354.412 630.067 361.256 618.103 364.136 605.577L365.019 613.31C364.767 621.754 364.561 630.348 362.763 638.633C361.881 642.699 359.807 646.906 359.308 650.974C356.315 658.774 349.083 664.466 345.015 671.821C338.435 683.72 334.795 696.945 333.607 710.447C333.048 716.794 332.944 723.238 331.828 729.518L331.673 730.368Z"/>
	<path fill="#202324" d="M305.946 372.871C312.918 382.649 322.192 390.581 334.367 392.644C340.584 393.698 350.103 393.83 355.507 390.071C354.831 394.301 351.54 409.275 353.303 412.153C351.851 423.166 350.86 434.169 349.712 445.209C349.49 445.243 349.27 445.285 349.047 445.312C347.112 445.546 344.846 444.818 343.046 444.189C333.689 440.919 331.459 432.946 325.709 426.043C323.979 423.967 321.683 422.357 319.659 420.58C314.081 415.684 314.812 408.139 314.304 401.303C318.006 404.16 327.723 411.469 331.781 412.279C332.055 412.334 332.333 412.371 332.608 412.417L333.036 412.86L333.777 412.038C328.273 410.071 323.946 407.333 319.766 403.262C312.9 396.577 306.018 382.207 305.946 372.871Z"/>
	<path fill="#535353" d="M650.556 622.524Q654.622 610.036 657.897 597.317C659.786 608.474 662.904 618.85 669.18 628.377C674.789 636.892 682.342 643.543 689.125 651.044C703.164 666.569 705.751 683.94 700.434 703.665C697.228 715.559 690.628 730.739 683.359 740.787C682.385 742.133 681.455 743.476 679.896 744.163L679.203 743.771C677.983 738.499 684.531 720.011 685.949 713.501C688.451 706.606 688.981 698.143 688.777 690.862C687.779 655.219 662.918 650.717 650.556 622.524Z"/>
	<path fill="#535353" d="M639.86 679.082C640.67 681.309 640.547 684.148 640.971 686.541Q641.324 689.905 642.017 693.216Q642.709 696.527 643.735 699.75Q644.76 702.973 646.108 706.076Q647.455 709.178 649.111 712.128C653.69 720.386 659.983 727.503 665.891 734.816C677.922 749.707 691.806 768.174 694.98 787.398C695.903 792.993 695.682 798.654 695.452 804.299C694.508 809.551 693.686 815.728 690.038 819.908Q686.678 817.492 683.206 815.242C681.63 800.843 677.912 786.508 671.535 773.477C660.214 750.345 642.181 730.104 638.969 703.57C637.989 695.477 639.131 687.164 639.86 679.082Z"/>
	<path fill="#FC3E3D" d="M330.721 61.4611C354.797 61.6362 379.422 75.8372 395.972 92.518C417.423 114.139 431.434 143.478 433.634 173.953C434.827 190.482 434.708 205.631 440.241 221.61Q441.953 226.436 444.027 231.117Q446.102 235.799 448.526 240.309Q450.95 244.819 453.71 249.132Q456.47 253.445 459.55 257.535C462.209 261.046 465.898 263.834 468.266 267.494C467.553 268.869 466.519 269.526 465.301 270.408C460.926 266.519 456.357 263.209 452.324 258.887Q450.933 257.406 449.603 255.87Q448.272 254.334 447.004 252.746Q445.736 251.158 444.533 249.52Q443.33 247.882 442.193 246.198Q441.056 244.514 439.988 242.785Q438.919 241.056 437.921 239.286Q436.923 237.516 435.996 235.708Q435.069 233.899 434.216 232.055Q433.362 230.211 432.584 228.334Q431.805 226.457 431.102 224.551Q430.398 222.644 429.772 220.711Q429.146 218.777 428.598 216.821Q428.049 214.864 427.58 212.887Q427.11 210.91 426.721 208.915Q426.331 206.921 426.021 204.913Q425.711 202.904 425.482 200.885C424.789 194.421 424.981 187.821 424.721 181.326C423.966 162.389 421.099 141.8 411.177 125.249C408.377 118.578 404.079 112.058 399.81 106.247C387.759 89.8418 369.439 74.2789 349.293 69.3201C342.891 67.7442 336.688 67.7034 330.276 66.7432C329.793 65.0158 330.371 63.1829 330.721 61.4611Z"/>
	<defs>
		<linearGradient id="gradient_1" gradientUnits="userSpaceOnUse" x1="511.62061" y1="271.80292" x2="564.67285" y2="177.84564">
			<stop offset="0" stop-color="#636362"/>
			<stop offset="1" stop-color="#828282"/>
		</linearGradient>
	</defs>
	<path fill="url(#gradient_1)" d="M581.556 185.681L580.613 190.538C559.013 194.903 534.978 204.705 520.081 221.611C525.863 218.167 531.164 213.925 536.891 210.375C550.094 202.19 565.426 196.35 580.522 192.866C580.078 196.455 579.905 199.943 580.199 203.549C561.152 216.307 511.046 237.616 506.239 261.297C505.485 265.012 505.718 269.63 504.378 273.112C503.964 273.405 503.527 273.516 503.051 273.681C500.545 271.273 501.407 265.726 500.818 262.432L500.215 262.61L499.443 264.825L498.486 262.346L498.424 261.962L498.577 258.902C497.691 256.453 497.372 255.106 497.989 252.54C498.32 250.125 498.55 247.758 498.7 245.326C500.025 241.65 501.602 238.312 503.541 234.923Q505.88 230.871 508.438 226.954L507.056 227.279L506.931 228.027C507.14 225.784 509.214 223.704 510.645 221.991C528.34 200.818 554.289 188.216 581.556 185.681Z"/>
	<path fill="#363738" d="M497.989 252.54C498.695 251.178 498.694 250.522 500.184 250.013L499.28 256.652C499.024 257.399 498.743 258.128 498.577 258.902C497.691 256.453 497.372 255.106 497.989 252.54Z"/>
	<path fill="#535353" d="M498.7 245.326C500.025 241.65 501.602 238.312 503.541 234.923C504.384 239.599 502.262 245.746 500.184 250.013C498.694 250.522 498.695 251.178 497.989 252.54C498.32 250.125 498.55 247.758 498.7 245.326Z"/>
	<path fill="#363738" d="M499.28 256.652L500.153 257.321C500.68 256.244 501.05 255.399 501.278 254.225C502.212 249.407 505.537 242.521 508.483 238.512L509.12 238.404C509.289 240.105 506.292 244.321 505.459 246.195C503.362 250.917 502.063 268.853 504.378 273.112C503.964 273.405 503.527 273.516 503.051 273.681C500.545 271.273 501.407 265.726 500.818 262.432L500.215 262.61L499.443 264.825L498.486 262.346L498.424 261.962L498.577 258.902C498.743 258.128 499.024 257.399 499.28 256.652Z"/>
	<path fill="#ADACAC" d="M674.838 482.105C674.872 477.66 674.541 472.527 675.961 468.261C678.094 461.855 699.725 426.043 704.106 421.896C706.18 419.933 710.003 419.071 712.784 419.187C714.692 419.266 716.376 420.024 717.637 421.467C721.841 426.278 721.502 435.273 720.862 441.251C719.365 455.237 714.33 468.138 711.163 481.713C709.083 490.63 708.434 499.73 705.586 508.487C703.02 516.375 699.037 523.771 695.53 531.271C693.628 535.337 692.043 539.769 689.645 543.565C688.379 545.57 686.9 547.397 685.049 548.892C682.687 550.8 679.604 552.031 676.53 551.674C673.887 551.367 669.231 550.092 667.679 547.774C666.455 545.946 671.678 523.656 672.336 519.952C681.497 517.162 693.518 512.805 698.356 504.076C701.861 497.752 701.971 491.2 699.881 484.43C698.307 479.334 696.222 473.878 693.964 469.044C693.066 467.121 690.503 464.782 690.272 462.818C693.218 459.149 696.237 455.517 699.049 451.745C700.555 450.328 701.878 448.94 703.84 448.165C705.077 448.476 705.466 448.927 706.088 450.057C709.034 455.417 710.598 474.061 711.806 475.422C712.885 473.118 715.808 438.229 714.938 435.336C714.885 435.158 714.799 434.99 714.73 434.817C712.496 434.363 710.659 435.595 708.819 436.79C695.401 445.506 682.814 468.108 674.838 482.105Z"/>
	<defs>
		<linearGradient id="gradient_2" gradientUnits="userSpaceOnUse" x1="471.9144" y1="167.9686" x2="571.10852" y2="207.08411">
			<stop offset="0" stop-color="#5F6060"/>
			<stop offset="1" stop-color="#828181"/>
		</linearGradient>
	</defs>
	<path fill="url(#gradient_2)" d="M474.07 149.607C483.006 148.983 495.063 147.562 503.461 151.244C509.927 152.447 520.969 157.094 524.99 162.559C524.941 163.226 524.906 163.86 524.766 164.515L525.298 165.247C529.519 163.956 533.196 160.67 537.451 159.145C554.079 153.183 570.886 157.27 587.065 162.546Q583.74 173.284 581.709 184.341C555.012 185.704 530.97 194.921 512.816 215.117C508.247 220.198 504.481 225.651 501.7 231.898C499.101 226.346 502.275 213.242 503.936 207.399L503.188 206.758C500.461 213.912 498.867 226.282 500.1 233.887C500.211 234.572 500.279 234.046 499.912 234.943L499.159 234.257L499.473 234.236L498.972 233.664C496.792 218.249 504.536 203.49 506.849 188.669C508.156 180.297 506.008 171.142 500.882 164.364C494.403 155.796 484.892 151.726 474.492 150.357L474.07 149.607Z"/>
	<path fill="#535353" d="M503.461 151.244C509.927 152.447 520.969 157.094 524.99 162.559C524.941 163.226 524.906 163.86 524.766 164.515C521.658 161.579 517.838 160.067 513.956 158.461C515.969 159.084 517.978 159.627 520.028 160.115L520.275 159.768C515.429 155.423 508.522 154.918 503.461 151.244Z"/>
	<path fill="#535353" d="M503.251 161.897C508.111 162.537 515.175 166.609 518.416 170.072C519.813 171.565 520.993 173.452 522.299 175.053C515.54 172.443 509.575 165.669 503.251 161.897Z"/>
	<path d="M503.188 206.758C510 190.653 521.125 178.838 537.543 172.229C550.07 167.187 563.332 165.217 576.772 165.514C552.541 169.327 525.927 174.055 510.561 195.378Q508.573 198.188 506.911 201.203Q505.25 204.217 503.936 207.399L503.188 206.758Z"/>
	<path fill="#740A08" d="M230.845 19.8594C234.048 26.0909 237.802 31.8185 241.676 37.6408Q243.101 39.3154 244.607 40.9179Q246.112 42.5205 247.695 44.0471Q249.277 45.5737 250.933 47.0208Q252.588 48.4679 254.313 49.8318Q256.038 51.1958 257.827 52.4734Q259.617 53.751 261.467 54.9391Q263.317 56.1273 265.224 57.2231Q267.13 58.3189 269.088 59.3197C291.48 67.4761 307.795 60.5008 330.044 61.298C329.702 62.7646 329.258 64.2678 329.139 65.7671C330.568 69.7186 326.707 78.6627 325.418 82.5244C333.278 85.9393 339.315 90.4325 345.339 96.4917C347.465 98.6298 349.638 101.318 352.062 103.08L353.3 101.531L353.55 101.967L352.018 103.65C349.007 104.659 343.572 113.786 341.948 116.978C341.646 117.57 341.731 117.426 341.468 118.202L342.12 117.205C341.704 118.044 340.336 121.564 339.759 121.958C339.645 122.035 338.113 122.493 338.033 122.56C337.937 122.641 338.079 123.408 338.167 123.649C339.798 128.135 345.344 131.061 345.855 136.353C335.051 121.657 332.3 113.865 314.931 104.908C299.98 98.2157 284.989 96.4439 270.92 86.8977C247.216 70.8147 236.075 47.1704 230.845 19.8594Z"/>
	<path fill="#FE2623" d="M241.676 37.6408Q243.101 39.3154 244.607 40.9179Q246.112 42.5205 247.695 44.0471Q249.277 45.5737 250.933 47.0208Q252.588 48.4679 254.313 49.8318Q256.038 51.1958 257.827 52.4734Q259.617 53.751 261.467 54.9391Q263.317 56.1273 265.224 57.2231Q267.13 58.3189 269.088 59.3197C269.913 61.2352 272.311 62.0884 273.981 63.3149C277.14 64.6572 280.138 65.6534 283.531 66.28L283.203 66.7941C282.903 67.6162 282.532 68.4214 282.192 69.2286C276.783 67.8955 266.199 62.5245 261.541 59.1844Q260.252 58.3654 259.052 57.4203C255.08 54.3283 242.269 42.0229 241.676 37.6408Z"/>
	<path fill="#CC0F0D" d="M283.531 66.28C292.565 67.7543 302.139 68.0821 311.278 67.392C310.28 70.363 309.498 73.4601 308.594 76.4661C302.74 74.4563 288.272 72.7115 284.118 69.9382C283.341 69.4196 283.358 67.7026 283.203 66.7941L283.531 66.28Z"/>
	<path fill="#CC0F0D" d="M312.248 67.4459C317.106 66.2586 323.659 66.5786 328.666 66.5688C327.451 71.838 325.92 76.9522 324.56 82.1771C319.695 80.0273 314.501 78.423 309.474 76.6829C310.522 73.6337 311.392 70.5534 312.248 67.4459Z"/>
	<path fill="#FC3E3D" d="M269.088 59.3197C291.48 67.4761 307.795 60.5008 330.044 61.298C329.702 62.7646 329.258 64.2678 329.139 65.7671L328.666 66.5688C323.659 66.5786 317.106 66.2586 312.248 67.4459L311.278 67.392C302.139 68.0821 292.565 67.7543 283.531 66.28C280.138 65.6534 277.14 64.6572 273.981 63.3149C272.311 62.0884 269.913 61.2352 269.088 59.3197Z"/>
	<path fill="#363738" d="M580.199 203.549C580.83 206.187 581.687 209.025 581.742 211.744C581.929 221.023 575.884 231.849 571.137 239.518C565.548 248.546 558.316 257.203 550.694 264.621C561.222 272.07 571.75 280.354 583.399 286.007C579.755 286.121 575.735 286.535 572.114 286.112C569.423 285.798 567.935 284.208 564.945 284.29L568.037 283.473C563.015 282.266 557.376 283.959 552.476 285.232C550.859 285.967 549.502 286.654 547.707 286.74C548.547 286.129 549.365 285.511 550.165 284.848C548.395 283.94 545.124 284.487 543.127 284.551C545.925 282.69 553.321 278.25 554.334 275.292L555.243 274.93L555.754 275.455C557.326 275.396 557.648 275.327 558.996 274.526L559.195 274.04C556.558 272.818 554.252 273.462 551.577 274.469C544.531 277.119 532.137 284.128 525.285 285.127C525.991 283.98 525.853 283.335 525.749 282.049C525.603 282.261 525.466 282.48 525.31 282.685C524.658 283.545 523.829 284.825 522.769 285.002C522.179 281.456 526.128 277.355 525.45 273.622C521.415 275.008 516.821 284.939 513.259 288.027C512.391 288.779 511.907 288.854 510.766 288.63C505.907 287.676 498.541 276.915 496.339 272.912C495.717 270.011 496.282 263.447 497.776 260.934L498.424 261.962L498.486 262.346L499.443 264.825L500.215 262.61L500.818 262.432C501.407 265.726 500.545 271.273 503.051 273.681C503.527 273.516 503.964 273.405 504.378 273.112C505.718 269.63 505.485 265.012 506.239 261.297C511.046 237.616 561.152 216.307 580.199 203.549Z"/>
	<path fill="#202324" d="M546.807 267.861C547.247 268.183 547.454 268.566 547.757 269.012C547.106 270.608 546.223 271.02 544.873 272.055L544.115 271.504C544.356 269.925 545.722 268.935 546.807 267.861Z"/>
	<path fill="#202324" d="M552.476 285.232L552.433 284.465C554.824 282.852 558.812 282.158 561.652 281.651C562.423 281.513 562.564 281.218 563.136 280.701C562.417 279.444 560.09 278.997 558.863 277.961C559.265 277.131 558.941 277.464 559.955 277.095C562.041 277.728 563.832 278.502 565.744 279.549L565.661 281.165C567.127 281.621 568.43 282.152 569.805 282.833L569.93 283.366L568.037 283.473C563.015 282.266 557.376 283.959 552.476 285.232Z"/>
	<path d="M496.339 272.912C495.717 270.011 496.282 263.447 497.776 260.934L498.424 261.962L498.486 262.346L499.443 264.825C500.087 268.451 501.23 272.342 501.505 275.987C504.092 279.195 506.511 282.05 509.685 284.701C512.157 279.961 514.262 273.489 518.282 269.925L519.086 270.079L520.942 271.108C521.402 267.708 523.867 264.386 525.671 261.518L523.625 271.563C525.513 272.068 526.969 272.44 528.519 273.662C528.783 274.541 529.015 274.571 528.554 275.421C527.402 277.545 525.366 279.466 525.749 282.049C525.603 282.261 525.466 282.48 525.31 282.685C524.658 283.545 523.829 284.825 522.769 285.002C522.179 281.456 526.128 277.355 525.45 273.622C521.415 275.008 516.821 284.939 513.259 288.027C512.391 288.779 511.907 288.854 510.766 288.63C505.907 287.676 498.541 276.915 496.339 272.912Z"/>
	<path fill="#202324" d="M498.486 262.346L499.443 264.825C500.087 268.451 501.23 272.342 501.505 275.987C500.231 274.246 499.228 272.202 498.149 270.329C498.035 267.676 498.316 264.994 498.486 262.346Z"/>
	<path fill="#363738" d="M519.086 270.079L520.942 271.108C519.635 274.093 513.422 287.037 511.451 288.127L510.638 287.774L510.726 286.781C513.984 282.954 516.695 277.641 518.22 272.872L518.812 270.991L519.086 270.079Z"/>
	<path fill="#740A08" d="M784.782 34.9602C781.302 55.5489 767.186 75.5064 750.315 87.517C741.58 93.7348 731.954 97.5063 721.897 100.967C713.91 103.893 706.309 106.969 699.023 111.399C697.727 102.633 698.553 93.2152 696.783 84.6501C695.819 93.6505 698.323 102.881 698.24 111.909C680.052 127.009 666.432 146.285 664.246 170.422C663.876 174.508 663.889 178.617 663.561 182.702C657.761 169.007 654.672 152.824 656.144 137.991C656.618 133.215 658.552 128.263 658.277 123.503C658.42 122.638 658.779 121.811 659.087 120.992C665.66 103.539 680.158 90.7757 696.849 83.205L697.092 82.8523C703.67 80.7288 710.446 78.9015 717.279 77.819C716.085 74.4897 715.991 69.06 716.206 65.5035L716.955 65.2869L717.241 64.8424C734.077 65.1299 748.714 63.3627 763.607 55.1009C765.595 54.3378 767.436 53.7653 769.538 53.4157Q776.173 46.0401 782.094 38.0806C783.305 37.2369 783.97 36.1589 784.782 34.9602Z"/>
	<path fill="#CC0F0D" d="M763.607 55.1009C765.595 54.3378 767.436 53.7653 769.538 53.4157C755.191 70.3976 738.215 72.633 717.917 77.5065C717.558 73.4445 717.095 69.3622 716.955 65.2869L717.241 64.8424C734.077 65.1299 748.714 63.3627 763.607 55.1009Z"/>
	<path fill="#707172" d="M676.414 226.787C683.017 232.936 692.406 245.425 695.149 253.819C699.26 266.4 697.348 287.704 693.732 300.453C691.83 307.159 689.016 313.376 685.956 319.61C687.442 317.891 688.862 316.185 690.07 314.256C699.733 298.819 702.104 275.08 698.096 257.525C706.559 272.965 712.633 290.327 712.319 308.124C711.805 316.098 709.829 323.449 707.4 331.01C706.059 332.195 704.582 333.225 703.147 334.293C704.014 335.054 705.636 336.331 705.803 337.506C706.05 339.242 705.281 340.946 704.243 342.304C701.056 346.475 694.458 349.5 689.326 350.049C677.043 351.363 664.129 346.621 654.882 338.599C652.263 336.327 649.008 332.634 649.676 328.83C650.358 324.953 657.141 315.111 659.106 310.724C668.38 290.016 676.24 266.085 677.161 243.262C677.383 237.742 676.88 232.28 676.414 226.787Z"/>
	<path fill="#363738" d="M338.959 250.566C338.652 259.731 338.674 268.805 340.075 277.891C342.159 291.405 352.263 322.03 361.312 332.11C364.564 333.178 367.577 333.743 371 333.913C370.555 342.296 369.826 348.991 366.57 356.814C360.831 364.356 354.559 369.006 345.026 370.316C334.387 371.779 323.09 368.895 314.256 362.782C313.194 363.432 313.268 363.78 312.795 364.887C311.797 362.82 310.666 361.409 309.064 359.773C313.691 369.706 319.481 376.178 329.967 380.022C335.219 381.947 340.981 382.96 346.564 383.187C349.699 383.315 353.766 382.451 356.695 383.466C356.796 385.594 356.236 388.068 355.507 390.071C350.103 393.83 340.584 393.698 334.367 392.644C322.192 390.581 312.918 382.649 305.946 372.871C303.712 368.195 301.823 363.466 301.26 358.273C299.727 344.147 308.795 321.204 313.222 307.478L314.098 305.35C314.141 305.146 314.186 304.943 314.226 304.738C315.322 299.099 314.705 293.225 315.918 287.64C319.043 273.242 331.423 262.647 338.959 250.566Z"/>
	<path fill="#202324" d="M313.222 307.478L314.098 305.35C315.316 318.407 319.899 328.839 330.267 337.36C336.855 342.774 345.676 346.093 354.252 345.328C357.403 345.047 360.365 344.148 363.248 342.872C360.761 347.825 358.614 352.334 353.654 355.258C355.247 355.294 356.614 355.119 358.176 354.812L358.767 355.068C355.979 357.542 351.324 357.363 347.813 357.167C337.521 356.593 325.89 353.225 318.889 345.208C312.087 337.417 312.888 324.769 313.16 315.07C313.229 312.633 313.592 309.872 313.222 307.478Z"/>
	<path fill="#740A08" d="M345.855 136.353C345.344 131.061 339.798 128.135 338.167 123.649C338.079 123.408 337.937 122.641 338.033 122.56C338.113 122.493 339.645 122.035 339.759 121.958C340.336 121.564 341.704 118.044 342.12 117.205L341.468 118.202C341.731 117.426 341.646 117.57 341.948 116.978C343.572 113.786 349.007 104.659 352.018 103.65C360.718 116.659 364.837 127.585 368.234 142.806C369.584 151.427 371.905 159.835 371.471 168.655C371.016 177.91 367.476 186.713 365.328 195.653C357.894 226.586 360.686 253.037 374.303 281.863C380.353 294.671 388.458 307.52 400.067 315.999Q400.834 316.559 401.614 317.103C395.796 322.423 386.643 327.349 379.331 330.293C374.343 332.302 368.334 333.779 363.221 331.355C357.747 328.761 351.46 310.88 349.198 304.813C340.359 281.103 339.257 263.967 341.378 239.108C342.101 230.64 342.844 222.305 345.393 214.142C347.372 207.807 350.818 202.286 353.496 196.274C359.956 181.769 356.407 161.565 350.988 147.264C349.651 143.735 347.455 140.597 346.135 137.11L345.855 136.353Z"/>
	<path fill="#202324" d="M626.641 662.541C637.448 648.342 643.501 639.271 650.556 622.524C662.918 650.717 687.779 655.219 688.777 690.862C688.981 698.143 688.451 706.606 685.949 713.501C684.1 710.071 684.677 703.053 684.313 699.047C682.247 676.295 667.842 654.496 650.501 640.207C656.147 647.438 660.821 655.088 664.878 663.309C666.051 665.687 667.617 671.362 669.663 672.824C673.263 683.441 675.353 695.966 676.306 707.12C676.969 714.89 675.077 733.775 677.784 739.43C677.493 741.004 677.335 742.598 677.15 744.187C675.4 743.483 669.144 735.078 667.534 733.163C655.996 719.446 645.663 706.683 642.813 688.323C642.377 685.514 642.457 675.595 641.311 673.746C640.624 677.755 641.027 682.444 640.971 686.541C640.547 684.148 640.67 681.309 639.86 679.082C639.131 687.164 637.989 695.477 638.969 703.57C642.181 730.104 660.214 750.345 671.535 773.477C677.912 786.508 681.63 800.843 683.206 815.242C671.194 809.349 648.347 792.593 640.2 782.288C634.32 774.849 630.089 766.573 627.804 757.361C622.709 736.823 625.112 708.109 625.854 686.821C626.135 678.754 625.722 670.563 626.641 662.541Z"/>
	<path fill="#363738" d="M434.517 162.827C445.959 156.854 461.091 150.495 474.07 149.607L474.492 150.357C484.892 151.726 494.403 155.796 500.882 164.364C506.008 171.142 508.156 180.297 506.849 188.669C504.536 203.49 496.792 218.249 498.972 233.664L499.473 234.236L499.159 234.257L499.912 234.943C500.279 234.046 500.211 234.572 500.1 233.887C498.867 226.282 500.461 213.912 503.188 206.758L503.936 207.399C502.275 213.242 499.101 226.346 501.7 231.898C500.132 235.732 498.093 240.715 498.44 244.904L498.7 245.326C498.55 247.758 498.32 250.125 497.989 252.54C497.372 255.106 497.691 256.453 498.577 258.902L498.424 261.962L497.776 260.934C496.282 263.447 495.717 270.011 496.339 272.912L495.914 273.735C494.733 271.602 493.667 269.373 491.418 268.211C492.099 269.435 493.244 270.925 493.216 272.305L491.554 272.565C490.809 276.12 494.563 279.649 493.729 283.392C487.355 281.53 482.104 278.506 476.405 275.2C478.946 278.136 480.647 281.206 482.263 284.71C480.076 283.854 477.91 282.819 475.547 282.647C473.228 282.432 470.89 281.473 468.493 281.259C465.113 280.957 460.159 281.684 457.111 280.272L456.968 279.52C459.022 276.752 468.862 269.666 472.027 267.349C452.484 249.295 440.463 223.538 437.559 197.168C436.29 185.645 436.619 174.321 434.517 162.827Z"/>
	<path fill="#363738" d="M32.6718 1024C38.1363 1002.59 44.287 981.186 52.6958 960.732C75.3451 905.636 100.103 903.495 151.676 889.792Q168.439 885.477 184.818 879.881Q201.197 874.284 217.095 867.439Q227.646 862.878 237.732 857.364Q247.818 851.85 257.353 845.43C263.212 841.544 269.43 834.991 275.874 832.477C285.091 828.881 295.014 832.624 303.513 836.252C298.663 836.471 294.164 834.739 289.412 834.248C286.062 833.903 281.839 835.529 279.319 837.678C273.379 842.745 273.63 853.486 273.021 860.706C270.316 862.371 267.562 863.991 264.928 865.766C242.633 877.697 218.756 887.055 195.028 895.755C184.632 899.567 174.149 903.336 163.624 906.768C148.997 911.537 122.004 918.084 110.445 927.822C95.3132 940.569 87.6541 960.216 82.0776 978.679C77.4355 994.05 74.5727 1007.96 77.3286 1024L32.6718 1024Z"/>
	<path fill="#202324" d="M365.019 613.31C367.167 621.941 369.932 628.958 374.638 636.567C377.817 641.706 381.403 646.604 383.575 652.286C386.103 658.901 387.517 666.101 389.026 673.013C390.597 680.21 392.34 687.476 393.427 694.762C396.711 716.791 400.629 760.828 388.839 779.718C381.587 791.339 367.136 798.964 355.897 806.196C351.93 808.749 347.923 811.738 343.775 813.947C339.848 816.165 336.069 818.986 332.288 821.468C330.081 816.126 328.162 810.959 326.983 805.291C324.045 794.986 323.765 781.941 327.939 771.925C330.026 756.78 342.623 747.346 345.715 732.849C346.716 728.153 347.663 717.504 345.042 713.501C343.368 704.242 344.419 692.421 345.896 683.24C346.538 679.248 347.853 674.989 347.814 670.963C350.43 663.988 359.912 658.67 359.308 650.974C359.807 646.906 361.881 642.699 362.763 638.633C364.561 630.348 364.767 621.754 365.019 613.31Z"/>
	<path fill="#363738" d="M381.511 688.762C379.363 703.4 378.92 717.886 374.139 732.065C369.061 747.125 360.769 760.678 354.345 775.129C348.747 787.723 345.86 800.417 343.775 813.947C339.848 816.165 336.069 818.986 332.288 821.468C330.081 816.126 328.162 810.959 326.983 805.291C325.948 789.575 326.788 778.553 333.332 764.051C337.572 758.423 341.679 749.792 346.148 743.306C358.584 725.256 372.655 709.031 381.511 688.762Z"/>
	<defs>
		<linearGradient id="gradient_3" gradientUnits="userSpaceOnUse" x1="670.29669" y1="988.28809" x2="954.37555" y2="905.97113">
			<stop offset="0" stop-color="#666565"/>
			<stop offset="1" stop-color="#848383"/>
		</linearGradient>
	</defs>
	<path fill="url(#gradient_3)" d="M742.055 835.439C750.917 838.086 759.931 841.314 766.968 847.561C769.488 849.798 771.787 852.815 774.673 854.554C784.668 860.574 796.062 864.99 806.911 869.198C824.68 876.089 842.788 882.613 861.159 887.701C882.573 893.631 907.105 896.137 926.55 907.319C942.632 916.567 954.35 930.601 963.073 946.783C974.487 967.957 984.185 1000.48 988.227 1024L933.147 1024C930.167 1004.89 928.689 986.241 922.918 967.636C916.449 946.782 904.569 922.845 885.976 910.244C869.399 899.009 828.098 889.027 807.898 882.955C795.859 879.336 783.363 875.321 772.213 869.452C755.953 912.417 741 947.547 715.679 986.32C707.245 999.233 697.781 1011.57 688.647 1024L678.86 1024C712.2 988.828 739.428 933.803 752.532 887.406C754.897 879.035 758.364 868.922 758.304 860.18C758.253 852.816 754.141 845.101 748.888 840.081C747.297 838.561 745.594 837.483 743.7 836.39L742.055 835.439Z"/>
	<path fill="#CC0F0D" d="M330.044 61.298L330.721 61.4611C330.371 63.1829 329.793 65.0158 330.276 66.7432C336.688 67.7034 342.891 67.7442 349.293 69.3201C369.439 74.2789 387.759 89.8418 399.81 106.247C404.079 112.058 408.377 118.578 411.177 125.249C421.099 141.8 423.966 162.389 424.721 181.326C424.981 187.821 424.789 194.421 425.482 200.885Q425.711 202.904 426.021 204.913Q426.331 206.921 426.721 208.915Q427.11 210.91 427.58 212.887Q428.049 214.864 428.598 216.821Q429.146 218.777 429.772 220.711Q430.398 222.644 431.102 224.551Q431.805 226.457 432.584 228.334Q433.362 230.211 434.216 232.055Q435.069 233.899 435.996 235.708Q436.923 237.516 437.921 239.286Q438.919 241.056 439.988 242.785Q441.056 244.514 442.193 246.198Q443.33 247.882 444.533 249.52Q445.736 251.158 447.004 252.746Q448.272 254.334 449.603 255.87Q450.933 257.406 452.324 258.887C456.357 263.209 460.926 266.519 465.301 270.408C457.31 277.163 448.391 282.429 440.044 288.678C427.419 298.131 415.282 309.142 401.614 317.103Q400.834 316.559 400.067 315.999C388.458 307.52 380.353 294.671 374.303 281.863C360.686 253.037 357.894 226.586 365.328 195.653C367.476 186.713 371.016 177.91 371.471 168.655C371.905 159.835 369.584 151.427 368.234 142.806C364.837 127.585 360.718 116.659 352.018 103.65L353.55 101.967L353.3 101.531L352.062 103.08C349.638 101.318 347.465 98.6298 345.339 96.4917C339.315 90.4325 333.278 85.9393 325.418 82.5244C326.707 78.6627 330.568 69.7186 329.139 65.7671C329.258 64.2678 329.702 62.7646 330.044 61.298Z"/>
	<path fill="#CC0F0D" d="M647.179 82.0533C660.999 70.7057 681.047 63.1028 698.985 63.171C704.769 63.1929 710.502 64.4754 716.297 64.5094L716.872 64.5073L717.241 64.8424L716.955 65.2869L716.206 65.5035C715.991 69.06 716.085 74.4897 717.279 77.819C710.446 78.9015 703.67 80.7288 697.092 82.8523L696.849 83.205C680.158 90.7757 665.66 103.539 659.087 120.992C658.779 121.811 658.42 122.638 658.277 123.503C651.426 145.564 653.804 160.788 660.951 182.326C673.088 215.584 678.841 234.359 670.489 270.261C665.656 290.777 657.908 310.186 648.018 328.792C638.644 324.71 628.969 320.738 620.407 315.094C609.098 307.639 604.708 298.926 602.098 285.884C599.198 288.536 596.596 288.845 592.86 289.42C581.983 284.703 563.662 272.029 553.494 264.942C559.887 258.665 565.812 252.095 570.856 244.674C584.177 256.998 598.243 265.754 614.636 273.454C609.238 269.268 602.909 265.948 597.106 262.334C588.065 256.704 579.589 250.689 571.512 243.738C578.286 232.123 582.902 220.586 587.341 207.965C592.121 210.581 596.492 214.044 601.124 216.934C609.593 222.218 618.645 226.251 628.037 229.541C631.783 230.853 635.161 232.369 639.182 232.754C633.302 230.074 627.08 228.058 621.159 225.424C609.462 220.221 598.649 213.91 587.855 207.056C593.15 193.943 595.051 179.888 596.376 165.918C604.224 170.338 611.991 174.255 620.623 176.924C624.05 177.984 639.008 182.082 641.606 180.709L642.001 179.867L642.604 180.545C635.491 180.972 616.429 174.147 609.903 171.419C605.354 169.518 601.012 167.162 596.507 165.152C599.367 147.655 603.327 131.882 610.664 115.622C611.537 114.473 611.947 113.031 612.451 111.692C613.47 106.515 622.511 97.5174 626.324 93.8496C627.365 94.3347 628.489 94.5686 629.597 94.8648C629.985 94.8118 630.256 94.8053 630.622 94.5811C632.707 93.3065 634.747 91.0754 636.652 89.4993C639.724 86.9585 642.896 84.8758 646.305 82.8217C653.092 87.3765 659.581 92.4036 666.252 97.1321Q661.998 92.754 657.209 88.9681Q652.421 85.1822 647.179 82.0533Z"/>
	<path fill="#FC3E3D" d="M670.489 270.261C669.78 270.769 669.273 271.081 668.82 271.851C667.495 274.105 666.82 277.739 665.919 280.256C663.702 286.447 657.15 305.033 652.68 308.861C651.61 308.845 650.64 308.67 649.899 307.777C649.161 306.888 648.894 306.246 648.955 305.121C649.374 297.331 652.535 289.037 654.525 281.52L664.921 242.222C668.213 229.538 667.696 218.068 663.787 205.522C662.309 200.779 656.874 190.862 657.701 186.433C658.09 184.355 659.336 183.489 660.951 182.326C673.088 215.584 678.841 234.359 670.489 270.261Z"/>
	<path fill="#707172" d="M393.337 683.889C400.931 694.992 409.051 705.487 417.554 715.903C431.276 732.713 459.606 767.683 476.812 777.864C482.977 781.513 489.646 783.274 496.722 783.99L496.319 784.572C483.23 803.8 485.365 853.164 489.763 875.505C491.075 882.172 491.856 890.652 495.208 896.501C495.083 896.744 494.932 896.975 494.835 897.23C494.759 897.427 494.612 898.212 494.566 898.447L495.484 897.766L495.132 898.355L494.721 898.425L494.756 897.403L494.603 898.128C480.852 859.221 459.4 808.009 429.265 779.031C430.221 815.274 446.61 867.072 461.607 900.219Q465.363 908.406 469.699 916.301C471.659 919.832 476.568 926.131 477.405 929.373C470.644 923.794 464.784 919 456.519 915.797C449.723 914.351 442.347 914.641 435.43 914.456Q422.061 914.082 408.718 913.162Q382.7 911.442 356.824 908.234Q330.947 905.026 305.297 900.34C297.355 899.163 289.361 897.906 281.511 896.219C280.264 882.681 279.691 869.029 281.351 855.501C302.333 843.846 322.5 830.811 342.786 818.007C355.093 810.239 369.359 802.079 380.737 793.202C384.519 790.251 388.438 786.513 390.991 782.42C405.25 759.558 399.207 709.567 393.337 683.889Z"/>
	<path fill="#ADACAC" d="M305.297 900.34C311.32 894.887 327.096 888.665 334.864 885.039C351.669 877.196 402.548 853.388 411.575 839.178C412.55 837.643 412.553 836.057 412.697 834.301C412.706 834.188 412.723 834.076 412.737 833.964C428.929 855.692 441.895 879.547 452.626 904.387C453.765 907.026 456.873 912.543 456.67 915.176C456.654 915.385 456.583 915.596 456.519 915.797C449.723 914.351 442.347 914.641 435.43 914.456Q422.061 914.082 408.718 913.162Q382.7 911.442 356.824 908.234Q330.947 905.026 305.297 900.34Z"/>
	<path fill="#535353" d="M772.213 869.452C783.363 875.321 795.859 879.336 807.898 882.955C828.098 889.027 869.399 899.009 885.976 910.244C904.569 922.845 916.449 946.782 922.918 967.636C928.689 986.241 930.167 1004.89 933.147 1024L688.647 1024C697.781 1011.57 707.245 999.233 715.679 986.32C741 947.547 755.953 912.417 772.213 869.452Z"/>
	<path fill="#535353" d="M77.3286 1024C74.5727 1007.96 77.4355 994.05 82.0776 978.679C87.6541 960.216 95.3132 940.569 110.445 927.822C122.004 918.084 148.997 911.537 163.624 906.768C174.149 903.336 184.632 899.567 195.028 895.755C218.756 887.055 242.633 877.697 264.928 865.766C265.163 874.576 266.648 883.555 268.068 892.242C275.748 939.258 294.732 987.141 325.305 1024L77.3286 1024Z"/>
	<path fill="#ADACAC" d="M623.004 664.736C622.376 692.07 617.119 740.263 625.878 765.334C628.961 774.16 634.247 781.955 640.667 788.697C649.431 797.901 660.936 804.889 671.62 811.657Q694.419 826.304 717.955 839.735C724.34 843.373 731.081 846.443 737.393 850.172C737.541 852.33 738.148 855.371 737.512 857.423C733.035 870.428 728.119 882.411 722.294 894.865C712.084 896.776 701.891 898.552 691.733 900.746C670 905.441 647.854 910.867 625.685 912.888Q613.502 913.885 601.279 913.725C589.743 913.671 576.527 912.421 565.48 916.376C555.276 920.03 547.49 930.452 539.631 937.564C539.803 937.473 539.977 937.384 540.148 937.291C549.993 931.921 557.818 922.054 568.583 918.513C575.873 916.115 584.119 915.871 591.732 915.815C605.423 915.714 618.858 915.756 632.469 913.966C662.465 910.02 691.601 901.201 721.496 896.783L748.026 891.589C733.721 936.207 705.511 989.784 673.335 1024L664.097 1024L338.084 1024C329.116 1012.02 320.45 1000.16 313.092 987.105Q310.148 981.943 307.44 976.653Q304.731 971.364 302.262 965.959Q299.793 960.553 297.569 955.042Q295.346 949.531 293.372 943.926Q291.398 938.321 289.677 932.633Q287.957 926.945 286.493 921.185Q285.03 915.426 283.826 909.606Q282.623 903.787 281.682 897.919C288.937 899.594 296.349 900.579 303.646 902.068Q353.141 910.606 403.172 915.036Q416.29 916.277 429.462 916.604C437.18 916.832 445.881 916.172 453.373 918.134C464.172 920.962 472.716 928.461 482.006 934.196L477.405 929.373C476.568 926.131 471.659 919.832 469.699 916.301Q465.363 908.406 461.607 900.219C446.61 867.072 430.221 815.274 429.265 779.031C459.4 808.009 480.852 859.221 494.603 898.128L494.756 897.403L494.721 898.425L495.132 898.355L495.484 897.766L494.566 898.447C494.612 898.212 494.759 897.427 494.835 897.23C494.932 896.975 495.083 896.744 495.208 896.501C491.856 890.652 491.075 882.172 489.763 875.505C485.365 853.164 483.23 803.8 496.319 784.572L496.722 783.99C526.098 779.733 541.334 766.101 560.194 744.909Q577.756 724.963 593.173 703.317C600.287 693.465 606.758 683.393 614.656 674.107Q618.803 669.398 623.004 664.736Z"/>
	<path d="M496.697 927.985C497.935 931.11 499.363 934.012 501.43 936.682C503.861 939.822 507.144 942.486 511.218 942.933C514.978 943.346 518.35 941.57 520.966 938.994C529.585 930.509 540.543 902.058 544.951 889.728C546.031 886.71 549.01 876.069 551.163 874.31C545.808 890.761 535.807 922.498 526.784 936.229C524.36 939.919 521.303 943.334 517.331 945.383C514.63 946.776 511.628 947.541 508.674 946.459C502.608 944.238 498.194 935.594 495.821 929.973C494.682 927.277 493.824 924.46 493.006 921.653C494.305 923.721 495.685 925.758 496.697 927.985Z"/>
	<path fill="#707172" d="M496.697 927.985C499.309 928.897 502.656 930.19 505.427 929.309C525.519 922.923 562.601 820.555 570.564 798.031L580.888 768.647C582.139 765.061 582.98 760.84 584.675 757.496C584.41 764.877 580.6 776.083 578.633 783.598Q569.762 818.808 558.556 853.346C556.293 860.163 554.331 867.89 551.163 874.31C549.01 876.069 546.031 886.71 544.951 889.728C540.543 902.058 529.585 930.509 520.966 938.994C518.35 941.57 514.978 943.346 511.218 942.933C507.144 942.486 503.861 939.822 501.43 936.682C499.363 934.012 497.935 931.11 496.697 927.985Z"/>
	<path fill="#C5C4C4" d="M623.004 664.736C622.376 692.07 617.119 740.263 625.878 765.334C628.961 774.16 634.247 781.955 640.667 788.697C649.431 797.901 660.936 804.889 671.62 811.657Q694.419 826.304 717.955 839.735C724.34 843.373 731.081 846.443 737.393 850.172C737.541 852.33 738.148 855.371 737.512 857.423C727.725 854.647 717.746 848.529 708.892 843.57C676.883 825.642 643.838 804.696 622.398 774.225C619.718 786.29 612.613 800.986 605.975 811.467C608.351 802.322 610.604 793.083 611.433 783.649C612.208 774.839 611.949 765.929 611.935 757.092Q611.699 736.205 612.283 715.324Q612.509 705.461 613.262 695.625C613.85 688.768 615.508 680.906 614.656 674.107Q618.803 669.398 623.004 664.736Z"/>
	<path fill="#707172" d="M721.496 896.783L748.026 891.589C733.721 936.207 705.511 989.784 673.335 1024L664.097 1024C685.742 999.215 697.816 967.542 708.021 936.687C697.585 938.412 687.185 941.901 676.924 944.508C665.219 947.481 652.664 949.777 641.347 953.971C624.478 960.223 606.274 973.691 591.574 984.286C598.387 976.966 604.549 969.08 610.701 961.205C614.89 955.843 619.024 949.748 624.148 945.254C626.498 943.193 630.23 942.195 633.223 941.406C643.677 938.649 654.722 937.366 665.38 935.58L710.659 927.64C715.108 918.329 718.752 906.72 721.496 896.783Z"/>
	<path fill="#707172" d="M281.682 897.919C288.937 899.594 296.349 900.579 303.646 902.068C301.676 903.193 299.703 904.158 297.622 905.06C300.17 908.802 302.594 912.456 305.97 915.518C318.843 927.194 341.726 933.64 358.76 936.864C367.358 938.491 376.157 939.328 384.681 941.269C390.835 942.671 397.158 944.967 402.222 948.835C407.148 952.597 410.979 958.175 414.843 962.978C420.578 970.107 426.186 977.39 432.152 984.327C423.547 977.882 415.091 971.029 405.804 965.575C385.9 953.885 360.427 948.725 337.52 947.01C337.567 949.267 337.741 951.73 337.287 953.948C335.412 963.112 327.621 972.259 321.362 978.808Q317.273 983.002 313.092 987.105Q310.148 981.943 307.44 976.653Q304.731 971.364 302.262 965.959Q299.793 960.553 297.569 955.042Q295.346 949.531 293.372 943.926Q291.398 938.321 289.677 932.633Q287.957 926.945 286.493 921.185Q285.03 915.426 283.826 909.606Q282.623 903.787 281.682 897.919Z"/>
	<path fill="#ADACAC" d="M493.729 283.392C494.563 279.649 490.809 276.12 491.554 272.565L493.216 272.305C493.244 270.925 492.099 269.435 491.418 268.211C493.667 269.373 494.733 271.602 495.914 273.735L496.339 272.912C498.541 276.915 505.907 287.676 510.766 288.63C511.907 288.854 512.391 288.779 513.259 288.027C516.821 284.939 521.415 275.008 525.45 273.622C526.128 277.355 522.179 281.456 522.769 285.002C523.829 284.825 524.658 283.545 525.31 282.685C525.466 282.48 525.603 282.261 525.749 282.049C525.853 283.335 525.991 283.98 525.285 285.127C532.137 284.128 544.531 277.119 551.577 274.469C554.252 273.462 556.558 272.818 559.195 274.04L558.996 274.526C557.648 275.327 557.326 275.396 555.754 275.455L555.243 274.93L554.334 275.292C553.321 278.25 545.925 282.69 543.127 284.551C545.124 284.487 548.395 283.94 550.165 284.848C549.365 285.511 548.547 286.129 547.707 286.74C549.502 286.654 550.859 285.967 552.476 285.232C557.376 283.959 563.015 282.266 568.037 283.473L564.945 284.29L558.439 287.189C562.061 286.965 565.883 286.473 569.496 286.673L569.216 285.993L568.921 286.899C568.773 286.927 568.624 286.953 568.476 286.982C565.494 287.57 562.383 288.246 559.506 289.235C570.69 288.667 581.444 285.718 592.242 290.009C588.855 289.829 585.376 289.483 582.028 290.188C588.94 291.805 594.584 292.014 601.281 289.09C603.177 300.147 608.416 308.439 617.613 314.863C626.928 321.369 637.667 325.514 648.101 329.845C650.454 351.33 650.555 362.017 667.33 378.11C669.641 394.718 670.624 411.792 671.616 428.535C673.49 460.146 674.98 491.586 670.506 523.07C667.314 545.536 661.252 567.731 655.35 589.622C649.16 612.582 644.548 632.47 629.939 651.801C612.336 675.095 592.472 697.115 571.838 717.758C566.168 723.431 560.438 729.834 554.074 734.695C549.68 739.601 542.22 742.949 535.865 744.238C528.646 745.702 521.134 745.65 513.799 745.644C501.045 745.634 486.147 746.159 475.061 738.781C461.846 729.987 440.017 705.829 428.784 693.929C414.445 678.739 399.075 663.562 386.509 646.853C380.955 639.467 375.379 630.372 372.044 621.794C368.675 613.13 367.354 603.33 365.475 594.24L354.3 537.533C353.825 540.942 354.199 544.468 354.377 547.896C353.338 549.931 352.322 552.056 350.751 553.744C348.882 555.753 346.295 557.298 343.496 557.364C340.296 557.439 337.546 555.646 335.372 553.447C328.697 546.694 326.158 528.33 323.024 518.652C319.438 507.579 314.753 496.789 310.867 485.809Q307.668 476.788 305.366 467.497Q303.065 458.206 301.683 448.734C300.953 443.662 300.161 438.399 300.156 433.277C300.152 429.209 301.158 424.984 304.208 422.099C306.095 420.313 308.558 419.131 311.193 419.323C324.463 420.29 333.377 443.694 338.604 453.301C341.228 458.123 344.218 462.432 347.753 466.625L348.191 459.84C349.479 456.813 349.23 451.016 349.528 447.58L349.712 445.209C350.86 434.169 351.851 423.166 353.303 412.153C354.906 403.337 355.12 393.075 357.946 384.636C359.205 380.878 361.632 377.328 363.23 373.668C369.282 359.808 372.094 348.71 372.569 333.58C390.161 329.177 402.418 316.897 417.331 307.603C421.543 303.596 436.544 291.721 441.476 288.95C446.514 288.923 452.565 289.767 457.442 288.696L456.211 287.975L454.096 287.282C456.931 286.288 461.628 287.225 464.594 287.593L453.247 281.74C458.519 281.045 464.548 284.583 470.18 284.488C468.163 283.835 466.177 283.16 464.21 282.368L464.308 282.022C469.35 282.599 474.113 283.494 478.786 285.547L479.014 285.304C477.916 284.222 476.859 283.452 475.547 282.647C477.91 282.819 480.076 283.854 482.263 284.71C480.647 281.206 478.946 278.136 476.405 275.2C482.104 278.506 487.355 281.53 493.729 283.392Z"/>
	<path d="M493.729 283.392C494.563 279.649 490.809 276.12 491.554 272.565L493.216 272.305C493.244 270.925 492.099 269.435 491.418 268.211C493.667 269.373 494.733 271.602 495.914 273.735C497.962 278.118 499.961 282.456 501.614 287.01C498.718 282.966 496.002 278.776 493.045 274.78C494.629 278.905 496.131 282.936 498.313 286.794C496.784 285.662 495.242 284.545 493.729 283.392Z"/>
	<path d="M525.285 285.127C532.137 284.128 544.531 277.119 551.577 274.469C554.252 273.462 556.558 272.818 559.195 274.04L558.996 274.526C557.648 275.327 557.326 275.396 555.754 275.455L555.243 274.93L554.334 275.292C551.594 276.426 533.993 285.7 532.975 285.414C534.6 283.851 536.254 282.812 538.219 281.72C533.719 283.267 529.527 284.704 525.501 287.333L525.126 287.011L525.285 285.127Z"/>
	<defs>
		<linearGradient id="gradient_4" gradientUnits="userSpaceOnUse" x1="510.67651" y1="685.72998" x2="506.96182" y2="663.56293">
			<stop offset="0" stop-color="#646869"/>
			<stop offset="1" stop-color="#778588"/>
		</linearGradient>
	</defs>
	<path fill="url(#gradient_4)" d="M476.65 666.706C490.75 677.506 502.772 681.047 520.651 678.641C528.308 677.611 535.274 674.674 542.17 671.33C541.526 673.191 540.098 674.915 538.799 676.374C533.111 682.763 523.036 685.269 514.783 685.626C502.609 686.152 490.539 684.417 481.397 675.604C478.812 673.112 476.726 670.397 476.65 666.706Z"/>
	<path fill="#C5C4C4" d="M520.192 470.907C520.338 471.052 520.412 471.117 520.537 471.347C523.38 476.58 522.938 540.446 523.053 550.133C523.091 553.378 522.916 556.911 523.304 560.121C523.78 564.057 527.515 569.761 525.656 573.527C525.054 574.746 524.223 575.166 523.003 575.578C522.934 575.521 522.866 575.464 522.796 575.409C521.876 574.688 520.972 574.059 520.42 572.993C518.607 569.484 518.928 562.45 518.572 558.511C516.428 534.777 515.26 511.198 517.752 487.443C518.33 481.932 518.836 476.288 520.192 470.907Z"/>
	<path d="M596.581 357.223C596.874 349.591 593.128 342.54 593.584 335.141C593.942 329.355 596.69 320.149 601.16 316.3L601.644 316.797C601.542 319.031 600.747 320.676 599.854 322.678C590.808 338.358 602.36 347.838 598.125 358.039C596.357 362.296 588.299 369.764 585.059 374.952C580.239 378.023 575.262 379.507 570.247 382.016C568.015 389.129 565.019 394.121 558.201 397.751Q557.338 398.209 556.458 398.633C559.175 399.273 562.177 399.633 564.57 401.089C564.907 401.682 565.308 401.959 565.057 402.664C564.565 404.048 559.154 409.5 557.64 412.135C553.451 417.08 546.593 430.789 540.244 431.622C538.753 431.817 537.361 431.252 535.985 430.751C535.064 431.678 535.13 432.72 535.106 433.985C534.978 440.823 536.461 447.975 535.491 454.759C533.967 465.42 529.431 474.631 530.055 485.72C531.738 515.602 585.627 552.13 602.877 578.421C598.668 588.445 594.591 599.565 595.158 610.621C595.355 614.448 596.659 618.425 596.393 622.23C595.886 629.447 592.765 636.743 590.368 643.503C598.361 632.147 604.902 619.856 611.679 607.759C614.934 601.948 618.885 596.067 621.323 589.864C623.207 585.069 623.456 580.087 623.83 575.009C625.07 558.165 628.29 550.582 640.421 538.724C644.201 535.029 648.736 529.677 653.335 527.182C647.045 537.362 635.408 543.254 629.888 554.01C624.531 564.449 626.233 575.071 623.637 585.987C621.769 593.844 616.909 601.215 613.026 608.239C604.653 623.386 596.593 638.453 585.278 651.666C589.935 642.452 595.236 630.59 594.874 620.008C594.725 615.652 593.27 611.398 593.609 607.008C594.383 596.989 597.889 587.796 601.355 578.475C595.191 571.074 588.688 563.784 581.966 556.885C565.767 540.259 535.338 513.572 529.562 491.804C527.258 483.119 528.71 475.492 530.949 466.988C531.921 463.293 533.082 459.561 533.651 455.78C535.383 444.276 534.119 430.681 530.334 419.795C532.867 422.708 535.794 428.589 540.008 428.846C541.647 428.945 542.741 428.264 543.832 427.13C546.549 424.308 548.547 420.331 550.707 417.051Q553.471 412.828 556.743 408.985Q560.016 405.143 563.745 401.742C560.052 401.138 556.397 400.334 552.667 401.053C552.496 401.086 552.326 401.124 552.156 401.159L551.635 400.654C552.348 396.525 563.157 393.406 565.42 387.46C567.48 382.051 563.228 371.576 561.14 366.499C557.839 365.418 553.016 364.219 550.958 361.215C550.033 359.866 549.994 358.741 550.44 357.189C550.753 356.098 551.092 355.105 552.091 354.566L552.544 355.499C552.433 356.639 552.387 357.762 552.355 358.906C554.677 362.291 558.209 362.446 561.659 364.067C562.849 364.626 563.69 365.416 564.364 366.561C565.248 368.064 567.156 377.922 568.313 381.026C572.537 378.113 577.417 377.072 581.726 374.415C582.542 373.911 594.844 359.36 596.581 357.223Z"/>
	<path d="M512.718 635.445C517.595 632.342 521.885 628.827 528.026 630.109C541.238 632.868 551.677 646.433 567.587 646.534L568.045 646.94C566.18 649.851 562.883 651.285 560.411 653.669C554.289 659.573 549.497 666.708 542.17 671.33C535.274 674.674 528.308 677.611 520.651 678.641C502.772 681.047 490.75 677.506 476.65 666.706C471.753 662.373 468.148 656.973 463.412 652.616C460.785 650.2 457.472 648.748 454.975 646.154C457.715 646.105 460.435 646.106 463.103 645.404C475.328 642.187 483.931 634.853 494.768 631.013C496.864 630.271 499.167 629.706 501.4 630.04C505.187 630.607 509.409 633.568 512.718 635.445Z"/>
	<path fill="#CC0F0D" d="M525.095 630.68C535.301 633.061 543.674 639.64 552.926 644.303C556.522 646.115 560.385 647.205 564.155 648.581C563.596 649.128 563.043 649.684 562.466 650.212L561.529 650.294C560.969 649.98 560.407 649.687 559.76 649.6C556.441 649.155 552.634 649.65 549.23 649.497C541.684 649.157 534.23 648.182 526.66 648.44Q522.93 650.046 519.12 651.452C518.728 651.497 518.335 651.533 517.944 651.58C512.502 652.226 507.984 651.364 502.634 650.261C493.583 649.221 483.848 649.901 474.715 649.938Q469.844 650.08 464.97 650.089C463.222 649.686 461.715 649.453 460.303 648.295L460.234 647.457C464.008 645.848 468.811 645.251 473.424 643.189C482.065 639.327 489.915 633.332 499.145 630.997C499.365 631.042 499.586 631.084 499.806 631.132C503.642 631.959 510.925 637.09 514.408 635.807C518.139 634.433 521.109 631.893 525.095 630.68Z"/>
	<path fill="#740A08" d="M474.715 649.938C479.817 648.806 484.58 647.524 489.844 647.098C500.61 646.225 511.532 648.285 522.348 648.408C523.817 648.328 525.196 648.284 526.66 648.44Q522.93 650.046 519.12 651.452C518.728 651.497 518.335 651.533 517.944 651.58C512.502 652.226 507.984 651.364 502.634 650.261C493.583 649.221 483.848 649.901 474.715 649.938Z"/>
	<defs>
		<linearGradient id="gradient_5" gradientUnits="userSpaceOnUse" x1="507.0528" y1="676.99493" x2="513.84821" y2="642.66211">
			<stop offset="0" stop-color="#981919"/>
			<stop offset="1" stop-color="#C6201F"/>
		</linearGradient>
	</defs>
	<path fill="url(#gradient_5)" d="M526.66 648.44C534.23 648.182 541.684 649.157 549.23 649.497C552.634 649.65 556.441 649.155 559.76 649.6C560.407 649.687 560.969 649.98 561.529 650.294L562.466 650.212C546.69 665.997 537.947 677.746 513.201 677.732C495.927 677.723 483.279 671.951 471.169 659.606C468.794 657.184 466.65 654.573 464.329 652.107C464.424 651.131 464.224 651.49 464.726 650.938C474.719 652.183 484.454 651.83 494.477 652.167C502.887 652.45 511.849 653.875 520.192 652.756L519.12 651.452Q522.93 650.046 526.66 648.44Z"/>
	<defs>
		<linearGradient id="gradient_6" gradientUnits="userSpaceOnUse" x1="537.9187" y1="652.2251" x2="537.4588" y2="648.20404">
			<stop offset="0" stop-color="#000A0E"/>
			<stop offset="1" stop-color="#1F0E15"/>
		</linearGradient>
	</defs>
	<path fill="url(#gradient_6)" d="M526.66 648.44C534.23 648.182 541.684 649.157 549.23 649.497C552.634 649.65 556.441 649.155 559.76 649.6C560.407 649.687 560.969 649.98 561.529 650.294C547.418 652.657 534.171 650.628 520.192 652.756L519.12 651.452Q522.93 650.046 526.66 648.44Z"/>
	<path fill="#707172" d="M485.935 499.548L486.256 499.364C484.53 491.121 482.055 483.83 477.864 476.482C475.351 472.077 466.413 463.681 466.227 459.378C466.909 458.386 466.991 458.175 468.237 457.899C470.748 457.342 473.49 459.101 475.433 460.477C484.092 466.606 491.703 476.752 495.199 486.774C496.707 491.098 497.63 495.722 498.775 500.152C498.982 500.95 498.915 500.685 499.565 501.406C502.781 509.196 498.873 538.569 496.451 546.967C492.621 560.247 481.02 578.702 499.699 586.478C506.805 589.436 514.272 592.282 522.076 591.287C524.447 590.984 527.202 589.945 529.555 590.218C532.221 589.362 535.613 588.12 538.32 589.59C538.926 589.919 538.955 590.002 539.37 590.433C539.497 591.712 539.484 592.019 538.587 593.082C537.779 594.039 536.217 594.861 535.118 595.4C528.694 600.613 523.577 599.272 518.09 607.446C517.389 613.181 517.684 618.988 517.871 624.747C516.423 626.748 514.707 628.452 512.989 630.217C513.455 625.126 514.407 618.161 513.04 613.244C512.591 611.628 511.386 609.27 509.714 608.605C508.622 608.171 507.713 608.044 506.679 608.703C502.276 611.512 500.934 623.609 499.305 628.429L499.108 628.996C497.698 624.99 497.366 620.327 495.074 616.694C492.722 612.966 488.809 610.253 485.498 607.434C479.168 602.045 469.631 593.501 467.342 585.377C460.094 559.655 490.243 532.931 484.351 501.155L485.935 499.548Z"/>
	<path d="M529.555 590.218C532.221 589.362 535.613 588.12 538.32 589.59C538.926 589.919 538.955 590.002 539.37 590.433C539.497 591.712 539.484 592.019 538.587 593.082C537.779 594.039 536.217 594.861 535.118 595.4C531.97 595.64 528.836 595.757 525.68 595.837C522.767 597.947 519.965 599.832 516.368 600.525C509.692 601.81 504.391 598.418 499.146 594.843C497.012 595.195 494.691 595.692 492.529 595.387C490.149 595.052 485.242 594.07 483.803 592.127C484.137 590.937 484.316 590.773 485.425 590.063C492.881 585.291 503.465 597.308 511.307 598.556C519.228 599.817 523.724 594.41 529.555 590.218Z"/>
	<path fill="#535353" d="M599.854 322.678C600.613 333.987 605.929 345.104 608.057 356.226C612.046 357.833 615.803 359.956 619.81 361.482C622.417 360.813 625.024 360.075 627.655 359.514C630.551 365.347 635.063 367.939 639.573 372.296C642.028 374.668 644.006 377.519 646.36 379.992C649.659 383.457 653.493 386.339 656.589 390.012C656.904 392.136 657.256 394.261 657.522 396.391C652.136 396.626 646.748 396.719 641.421 397.613C639.986 398.42 638.571 399.185 637.584 400.543C635.173 403.864 634.045 408.736 632.35 412.507C631.141 415.196 629.45 417.764 627.927 420.29C637.477 422.198 643.414 424.731 648.987 433.047C650.007 434.569 650.899 436.151 651.761 437.766C640.785 430.952 632.511 430.127 619.895 431.933C632.719 436.765 644.881 442.915 654.689 452.739C654.134 455.795 653.568 458.876 652.226 461.704C652.161 461.867 652.098 462.03 652.031 462.193C651.356 463.834 650.604 465.036 649.471 466.395L647.465 467.123L647.301 467.758C648.761 468.369 649.877 468.12 651.382 467.897L651.808 468.483C651.516 469.215 651.223 469.944 650.91 470.668C646.955 488.627 650.09 505.958 655.498 523.167C654.899 524.537 654.406 526.109 653.335 527.182C648.736 529.677 644.201 535.029 640.421 538.724C628.29 550.582 625.07 558.165 623.83 575.009C623.456 580.087 623.207 585.069 621.323 589.864C618.885 596.067 614.934 601.948 611.679 607.759C604.902 619.856 598.361 632.147 590.368 643.503C592.765 636.743 595.886 629.447 596.393 622.23C596.659 618.425 595.355 614.448 595.158 610.621C594.591 599.565 598.668 588.445 602.877 578.421C585.627 552.13 531.738 515.602 530.055 485.72C529.431 474.631 533.967 465.42 535.491 454.759C536.461 447.975 534.978 440.823 535.106 433.985C535.13 432.72 535.064 431.678 535.985 430.751C537.361 431.252 538.753 431.817 540.244 431.622C546.593 430.789 553.451 417.08 557.64 412.135C559.154 409.5 564.565 404.048 565.057 402.664C565.308 401.959 564.907 401.682 564.57 401.089C562.177 399.633 559.175 399.273 556.458 398.633Q557.338 398.209 558.201 397.751C565.019 394.121 568.015 389.129 570.247 382.016C575.262 379.507 580.239 378.023 585.059 374.952C588.299 369.764 596.357 362.296 598.125 358.039C602.36 347.838 590.808 338.358 599.854 322.678Z"/>
	<path fill="#363738" d="M585.059 374.952C588.281 374.562 591.394 373.675 594.596 373.25C607 379.963 617.089 369.8 634.792 383.141L634.129 383.323C624.877 385.766 614.925 384.583 605.826 387.594C598.486 390.023 590.212 394.107 583.709 398.282C579.892 400.733 576.311 403.633 572.358 405.862C567.77 408.449 562.525 410.177 557.64 412.135C559.154 409.5 564.565 404.048 565.057 402.664C565.308 401.959 564.907 401.682 564.57 401.089C562.177 399.633 559.175 399.273 556.458 398.633Q557.338 398.209 558.201 397.751C565.019 394.121 568.015 389.129 570.247 382.016C575.262 379.507 580.239 378.023 585.059 374.952Z"/>
	<path d="M625.371 420.28C628.423 415.714 634.571 399.271 638.151 397.661C639.423 397.09 640.137 397.228 641.421 397.613C639.986 398.42 638.571 399.185 637.584 400.543C635.173 403.864 634.045 408.736 632.35 412.507C631.141 415.196 629.45 417.764 627.927 420.29C637.477 422.198 643.414 424.731 648.987 433.047C650.007 434.569 650.899 436.151 651.761 437.766C640.785 430.952 632.511 430.127 619.895 431.933C613.651 433.09 607.838 435.317 601.906 437.518C589.89 441.579 578.359 446.988 566.363 451.048C561.458 452.707 555.823 452.965 551.123 454.7C549.864 455.138 548.696 455.508 547.381 455.761L546.564 455.187L546.398 454.011L546.977 454.483L546.253 453.595L546.607 453.674C545.939 454.144 545.468 454.409 545.121 455.184C545.052 455.338 545.009 455.503 544.954 455.663L544.211 455.824C544.034 455.019 543.892 454.527 543.507 453.782C543.351 453.848 543.184 453.894 543.038 453.981C542.759 454.149 542.506 454.356 542.241 454.544C542.137 454.433 542.02 454.334 541.931 454.211C540.582 452.326 540.274 447.312 540.712 445.119C540.952 443.919 540.677 444.334 541.638 443.716L542.604 444.645L546.372 445.445L546.669 445.072C546.784 444.925 546.897 444.775 547.014 444.628C548.141 443.216 549.122 442.343 550.775 441.596C558.429 438.137 567.626 436.441 575.693 433.997C591.894 429.088 608.445 422.07 625.371 420.28Z"/>
	<path fill="#363738" d="M542.604 444.645L546.372 445.445C545.63 446.624 545.089 447.857 543.707 448.353C542.612 447.235 542.79 446.171 542.604 444.645Z"/>
	<path fill="#363738" d="M612.66 495.539C613.507 496.277 614.451 497.48 615.567 497.598C615.498 496.003 615.384 495.659 616.214 494.235C617.396 493.707 617.751 493.425 619.015 493.588L621.431 495.865L622.01 495.747C621.851 494.569 621.534 493.588 621.15 492.471C621.868 491.503 622.121 491.456 623.258 491.005C625.009 491.553 625.487 492.466 626.677 493.83L627.228 493.323C626.676 491.818 625.343 490.401 625.671 488.867C626.708 488.317 627.061 488 628.272 488.371C629.786 488.836 631.847 490.997 632.424 492.421C632.688 493.075 632.805 493.8 632.901 494.494C631.04 498.035 627.589 500.579 625.612 504.119C623.974 507.051 624.17 510.704 622.596 513.64C620.113 518.271 614.228 521.054 609.392 522.594C601.03 525.256 584.445 526.081 576.662 521.428C576.505 521.334 559.052 502.609 558.936 502.43C556.868 499.25 555.966 495.043 554.919 491.44C558.24 490.938 562.378 491.144 565.394 489.691C565.528 489.721 565.663 489.747 565.795 489.781C569.449 490.706 572.44 493.488 575.893 494.978C587.74 500.092 600.629 499.309 612.66 495.539Z"/>
	<path d="M601.906 437.518C607.838 435.317 613.651 433.09 619.895 431.933C632.719 436.765 644.881 442.915 654.689 452.739C654.134 455.795 653.568 458.876 652.226 461.704C652.161 461.867 652.098 462.03 652.031 462.193C651.356 463.834 650.604 465.036 649.471 466.395L647.465 467.123L647.301 467.758C648.761 468.369 649.877 468.12 651.382 467.897L651.808 468.483C651.516 469.215 651.223 469.944 650.91 470.668C646.034 472.835 641.849 474.819 637.883 478.479C639.502 478.637 641.42 478.595 642.835 479.393C640.732 480.483 637.635 479.994 635.257 480.356C637.569 480.778 639.806 480.85 642.146 480.918C639.247 481.702 634.371 482.438 632.109 484.323L632.395 484.983C634.082 485.573 635.773 486.099 637.489 486.6L637.727 487.312L637.454 487.755C636.304 489.421 635.205 491.207 633.854 492.716L632.901 494.494C632.805 493.8 632.688 493.075 632.424 492.421C631.847 490.997 629.786 488.836 628.272 488.371C627.061 488 626.708 488.317 625.671 488.867C625.343 490.401 626.676 491.818 627.228 493.323L626.677 493.83C625.487 492.466 625.009 491.553 623.258 491.005C622.121 491.456 621.868 491.503 621.15 492.471C621.534 493.588 621.851 494.569 622.01 495.747L621.431 495.865L619.015 493.588C617.751 493.425 617.396 493.707 616.214 494.235C615.384 495.659 615.498 496.003 615.567 497.598C614.451 497.48 613.507 496.277 612.66 495.539C600.629 499.309 587.74 500.092 575.893 494.978C572.44 493.488 569.449 490.706 565.795 489.781C565.663 489.747 565.528 489.721 565.394 489.691C562.242 488.749 557.137 489.291 554.648 487.691L555.517 486.984C556.887 486.732 557.228 486.478 558.448 487.106L559.647 486.247L559.474 485.995C559.477 483.695 558.89 482.981 557.391 481.462C555.787 480.99 554.181 480.65 552.542 480.32L552.305 479.67L553.006 479.027C552.583 478.544 552.539 478.522 552.132 477.893C547.311 470.448 549.579 462.658 551.123 454.7C555.823 452.965 561.458 452.707 566.363 451.048C578.359 446.988 589.89 441.579 601.906 437.518Z"/>
	<path fill="#202324" d="M618.885 457.841L619.904 458.661C620.211 460.201 619.472 460.801 618.691 462.123C618.007 461.706 617.405 461.295 616.768 460.815C616.797 459.463 617.96 458.786 618.885 457.841Z"/>
	<path fill="#535353" d="M633.854 492.716C633.073 490.95 631.871 489.534 631.47 487.604C633.113 486.759 635.641 487.475 637.454 487.755C636.304 489.421 635.205 491.207 633.854 492.716Z"/>
	<path fill="#202324" d="M608.789 453.955C611.296 454.97 614.295 455.161 616.634 456.542L615.857 456.814C614.933 457.293 613.976 457.818 612.988 458.149C611.641 458.6 610.47 458.594 609.21 457.923C608.193 456.202 608.489 455.869 608.789 453.955Z"/>
	<path fill="#740A08" d="M576.207 477.268C576.125 477.074 576.027 476.887 575.959 476.688C575.535 475.439 575.304 474.262 575.983 473.039C577.462 470.38 582.501 469.319 585.205 468.435L586.053 470.154C583.973 472.845 584.237 474.563 584.496 477.843C581.843 477.287 578.917 477.384 576.207 477.268Z"/>
	<path fill="#740A08" d="M585.205 468.435C592.451 466.298 597.272 466.336 604.648 468.011C605.946 468.193 606.748 468.04 607.498 469.27C608.982 471.702 608.526 475.704 608.373 478.467C605.447 478.444 601.658 477.989 598.839 478.697C598.991 476.3 598.951 474.335 598.387 471.994L596.089 471.898C595.613 471.265 595.145 470.637 594.708 469.975L594.394 469.49C591.972 468.412 590.426 468.882 588.024 469.771L586.053 470.154L585.205 468.435Z"/>
	<path fill="#500500" d="M585.205 468.435C592.451 466.298 597.272 466.336 604.648 468.011L603.818 468.112C599.326 468.643 594.683 467.831 590.083 467.993C591.37 468.278 592.972 467.545 594.001 467.814C595.431 468.188 597.071 471 598.387 471.994L596.089 471.898C595.613 471.265 595.145 470.637 594.708 469.975L594.394 469.49C591.972 468.412 590.426 468.882 588.024 469.771L586.053 470.154L585.205 468.435Z"/>
	<path fill="#FEFEFE" d="M572.658 476.363C574.747 484.349 578.17 488.192 585.185 492.473C576.183 491.16 567.414 488.242 558.448 487.106L559.647 486.247C564.311 483.313 568.164 479.474 572.658 476.363Z"/>
	<path d="M588.024 469.771C590.426 468.882 591.972 468.412 594.394 469.49L594.708 469.975C595.145 470.637 595.613 471.265 596.089 471.898L598.387 471.994C598.951 474.335 598.991 476.3 598.839 478.697C598.359 479.281 597.88 479.82 597.276 480.282C595.388 481.726 593.109 482.419 590.736 482.061C587.863 481.628 586.192 480.071 584.496 477.843C584.237 474.563 583.973 472.845 586.053 470.154L588.024 469.771Z"/>
	<path fill="#2C0000" d="M588.024 469.771C590.426 468.882 591.972 468.412 594.394 469.49L594.708 469.975C595.145 470.637 595.613 471.265 596.089 471.898L595.738 472.243C595.943 473.851 596.09 474.831 595.363 476.359C594.489 477.094 593.898 477.516 592.801 477.846L590.074 477.383C587.095 474.772 590.02 473.453 589.209 470.414L588.024 469.771Z"/>
	<path fill="#FEFEFE" d="M592.801 477.846C592.038 477.106 591.008 476.222 590.77 475.134C590.467 473.746 590.793 473.42 591.591 472.407C593.176 471.763 594.126 471.945 595.738 472.243C595.943 473.851 596.09 474.831 595.363 476.359C594.489 477.094 593.898 477.516 592.801 477.846Z"/>
	<path fill="#FEFEFE" d="M612.291 468.783C616.591 471.307 620.773 473.799 624.525 477.11C620.484 483.682 615.79 487.389 608.796 490.537C605.181 492.159 601.373 492.811 597.497 493.477C599.988 492.273 602.51 490.925 604.591 489.083C610.735 483.644 611.883 476.538 612.291 468.783Z"/>
	<path fill="#363738" d="M552.305 479.67C552.719 479.639 553.153 479.709 553.547 479.578C555.575 478.905 568.013 464.583 571.756 461.825C577.462 457.62 584.486 454.669 591.523 453.732C593.544 453.463 596.991 452.798 598.869 453.524L598.053 455.107C598.809 456.064 598.853 455.881 599.971 456.146C601.1 455.601 601.844 454.996 602.778 454.182C604.12 454.192 604.375 454.275 605.405 455.273C605.936 455.788 606.383 456.539 606.805 457.15C592.469 456.411 581.78 458.047 570.766 467.908C566.109 472.077 561.536 476.785 557.391 481.462C555.787 480.99 554.181 480.65 552.542 480.32L552.305 479.67Z"/>
	<path fill="#CC0F0D" d="M576.207 477.268C578.917 477.384 581.843 477.287 584.496 477.843C586.192 480.071 587.863 481.628 590.736 482.061C593.109 482.419 595.388 481.726 597.276 480.282C597.88 479.82 598.359 479.281 598.839 478.697C601.658 477.989 605.447 478.444 608.373 478.467C607.85 479.739 607.427 481.046 606.876 482.309C605.223 486.1 601.356 489.307 597.493 490.66Q596.728 490.929 595.939 491.118Q595.15 491.308 594.346 491.416Q593.543 491.524 592.732 491.55Q591.921 491.576 591.112 491.519Q590.303 491.463 589.504 491.324Q588.705 491.186 587.924 490.967Q587.143 490.747 586.388 490.45Q585.633 490.153 584.913 489.78C579.633 487.03 577.896 482.582 576.207 477.268Z"/>
	<path fill="#363738" d="M601.906 437.518C607.838 435.317 613.651 433.09 619.895 431.933C632.719 436.765 644.881 442.915 654.689 452.739C654.134 455.795 653.568 458.876 652.226 461.704C649.968 462.629 648.163 465.147 645.989 466.468L639.956 466.507C644.113 463.155 646.845 460.244 649.777 455.807C646.778 458.023 644.009 460.306 641.364 462.94C639.953 464.219 638.56 465.066 636.87 465.937L636.087 465.572C630.965 463.155 626.503 459.663 621.473 457.169Q620.355 456.614 619.21 456.115Q618.065 455.617 616.897 455.176Q615.729 454.734 614.541 454.352Q613.353 453.969 612.147 453.646Q610.941 453.323 609.72 453.06Q608.5 452.797 607.267 452.596Q606.035 452.394 604.795 452.253Q603.554 452.113 602.308 452.034Q601.062 451.956 599.814 451.939Q598.565 451.922 597.318 451.968Q596.07 452.013 594.826 452.12Q593.582 452.228 592.345 452.397Q591.108 452.566 589.881 452.796Q588.654 453.026 587.44 453.317Q586.226 453.608 585.027 453.958Q583.829 454.309 582.65 454.719C572.562 458.223 566.507 464.122 559.656 472.023C557.573 474.425 555.526 477.067 553.006 479.027C552.583 478.544 552.539 478.522 552.132 477.893C547.311 470.448 549.579 462.658 551.123 454.7C555.823 452.965 561.458 452.707 566.363 451.048C578.359 446.988 589.89 441.579 601.906 437.518Z"/>
	<path fill="#535353" d="M601.906 437.518C607.838 435.317 613.651 433.09 619.895 431.933C632.719 436.765 644.881 442.915 654.689 452.739C654.134 455.795 653.568 458.876 652.226 461.704C649.968 462.629 648.163 465.147 645.989 466.468L639.956 466.507C644.113 463.155 646.845 460.244 649.777 455.807C646.778 458.023 644.009 460.306 641.364 462.94C633.628 440.321 606.861 447.219 601.532 442.038C601.047 440.225 601.465 439.319 601.906 437.518Z"/>
	<defs>
		<linearGradient id="gradient_7" gradientUnits="userSpaceOnUse" x1="561.75842" y1="534.88892" x2="295.72922" y2="519.37347">
			<stop offset="0" stop-color="#646464"/>
			<stop offset="1" stop-color="#7E7E7E"/>
		</linearGradient>
	</defs>
	<path fill="url(#gradient_7)" d="M372.569 333.58C390.161 329.177 402.418 316.897 417.331 307.603C415.621 312.83 398.99 325.468 394.554 329.418C399.231 345.422 406.349 399.863 402.586 414.313C421.268 423.254 439.92 433.471 459.931 439.142C463.882 440.262 476.01 442.196 477.901 443.116C478.728 443.519 479.437 443.978 479.835 444.846C480.352 445.974 480.306 447.272 480.25 448.478C480.832 446.948 481.306 445.183 482.484 444.007L483.35 444.184C483.047 449.314 480.419 455.203 478.734 460.112C490.963 471.219 498.529 484.644 499.565 501.406C498.915 500.685 498.982 500.95 498.775 500.152C497.63 495.722 496.707 491.098 495.199 486.774C491.703 476.752 484.092 466.606 475.433 460.477C473.49 459.101 470.748 457.342 468.237 457.899C466.991 458.175 466.909 458.386 466.227 459.378C466.413 463.681 475.351 472.077 477.864 476.482C482.055 483.83 484.53 491.121 486.256 499.364L485.935 499.548L484.351 501.155C483.848 498.157 482.825 495.558 481.464 492.871C479.255 492.792 477.045 492.6 474.86 492.994C474.706 492.996 474.552 493 474.398 492.999C470.646 492.995 466.745 491.671 463.06 492.044C453.14 493.049 445.545 497.478 433.803 498.022C432.39 498.407 428.753 498.775 428.155 500.019C428.084 500.165 428.091 500.338 428.059 500.497C430.945 500.129 433.648 500.824 436.522 501.009C442.544 501.396 449.036 501.571 455.052 501.123C457.254 500.959 461.939 499.52 463.766 500.557C462.695 503.215 458.239 506.091 455.721 507.167C455.145 507.413 454.556 507.627 453.974 507.86C438.408 514.077 419.945 513.197 404.175 508.213C399.38 506.697 393.549 503.977 388.483 504.2C384.744 504.364 382.173 506.681 380.784 510.052C376.753 519.832 380.433 533.462 384.497 542.661C390.325 555.856 399.827 567.316 407.504 579.46C410.96 584.927 413.785 590.695 416.441 596.581C420.769 606.172 422.033 615.947 424.373 626.127C427.099 637.983 430.411 650.392 434.586 661.812Q436.034 665.659 437.922 669.311Q439.809 672.963 442.11 676.37C447.43 684.262 454.386 691.112 460.137 698.718C467.305 708.2 473.341 719.429 481.629 727.918C485.149 731.523 489.256 734.453 493.976 736.264C505.404 740.647 527.622 739.358 539.697 737.591C544.564 736.879 549.264 735.501 554.074 734.695C549.68 739.601 542.22 742.949 535.865 744.238C528.646 745.702 521.134 745.65 513.799 745.644C501.045 745.634 486.147 746.159 475.061 738.781C461.846 729.987 440.017 705.829 428.784 693.929C414.445 678.739 399.075 663.562 386.509 646.853C380.955 639.467 375.379 630.372 372.044 621.794C368.675 613.13 367.354 603.33 365.475 594.24L354.3 537.533C353.825 540.942 354.199 544.468 354.377 547.896C353.338 549.931 352.322 552.056 350.751 553.744C348.882 555.753 346.295 557.298 343.496 557.364C340.296 557.439 337.546 555.646 335.372 553.447C328.697 546.694 326.158 528.33 323.024 518.652C319.438 507.579 314.753 496.789 310.867 485.809Q307.668 476.788 305.366 467.497Q303.065 458.206 301.683 448.734C300.953 443.662 300.161 438.399 300.156 433.277C300.152 429.209 301.158 424.984 304.208 422.099C306.095 420.313 308.558 419.131 311.193 419.323C324.463 420.29 333.377 443.694 338.604 453.301C341.228 458.123 344.218 462.432 347.753 466.625L348.191 459.84C349.479 456.813 349.23 451.016 349.528 447.58L349.712 445.209C350.86 434.169 351.851 423.166 353.303 412.153C354.906 403.337 355.12 393.075 357.946 384.636C359.205 380.878 361.632 377.328 363.23 373.668C369.282 359.808 372.094 348.71 372.569 333.58Z"/>
	<path d="M309.068 436.156C310.233 436.563 311.239 437.015 312.282 437.685C324.697 445.666 333.856 463.808 337.08 477.802C335.149 481.58 333.388 485.021 332.101 489.089C333.599 493.984 336.599 497.842 338.322 502.498C339.555 505.831 338.903 509.685 340.627 512.896C343.013 517.341 346.636 519.383 348.654 524.566C336.466 514.234 342.144 517.757 337.125 504.533C335.618 500.563 333.231 496.89 331.863 492.892C329.848 487.004 331.339 479.895 334.042 474.423C331.78 468.465 329.446 462.762 326.229 457.249C326.067 457.003 325.908 456.756 325.744 456.512C324.448 454.588 322.101 450.644 319.836 450.191C319.368 451.322 318.863 452.409 318.322 453.505C317.989 451.57 318.462 449.472 318.718 447.539C316.301 444.826 313.906 442.449 311.094 440.143C311.111 455.976 315.643 473.493 321.796 488.105C325.256 496.323 329.394 504.141 332.683 512.461C332.481 512.203 332.282 511.943 332.078 511.687C329.619 508.61 327.698 505.311 325.816 501.856C317.364 486.344 304.065 453.119 309.068 436.156Z"/>
	<path d="M364.289 435.412C368.891 427.113 377.294 421.745 385.324 417.032C391.379 413.477 395.852 412.518 402.586 414.313C421.268 423.254 439.92 433.471 459.931 439.142C463.882 440.262 476.01 442.196 477.901 443.116C478.728 443.519 479.437 443.978 479.835 444.846C480.352 445.974 480.306 447.272 480.25 448.478C480.832 446.948 481.306 445.183 482.484 444.007L483.35 444.184C483.047 449.314 480.419 455.203 478.734 460.112C490.963 471.219 498.529 484.644 499.565 501.406C498.915 500.685 498.982 500.95 498.775 500.152C497.63 495.722 496.707 491.098 495.199 486.774C491.703 476.752 484.092 466.606 475.433 460.477C473.49 459.101 470.748 457.342 468.237 457.899C466.991 458.175 466.909 458.386 466.227 459.378C466.413 463.681 475.351 472.077 477.864 476.482C482.055 483.83 484.53 491.121 486.256 499.364L485.935 499.548L484.351 501.155C483.848 498.157 482.825 495.558 481.464 492.871C479.255 492.792 477.045 492.6 474.86 492.994C474.706 492.996 474.552 493 474.398 492.999C470.646 492.995 466.745 491.671 463.06 492.044C453.14 493.049 445.545 497.478 433.803 498.022C432.39 498.407 428.753 498.775 428.155 500.019C428.084 500.165 428.091 500.338 428.059 500.497C429.396 500.851 430.761 501.118 432.005 501.73L428.25 502.6L431.809 503.424C432.254 503.578 432.026 503.443 432.413 503.942C430.841 504.645 425.943 504.694 424.259 503.977C423.113 503.489 423.304 502.933 421.837 502.687L421.843 503.974L420.862 503.782C420.855 503.559 420.823 503.336 420.84 503.114C420.857 502.908 420.922 502.709 420.962 502.507C417.032 499.164 413.253 498.148 408.32 496.909L408.188 497.509C409.118 497.862 409.344 497.777 409.92 498.634L408.339 499.168L408.962 500.176C410.573 500.281 410.96 498.734 412.293 498.726C414.097 498.716 416.242 500.471 417.59 501.569L417.433 501.961C416.294 501.723 415.696 501.613 414.717 500.93C413.82 500.305 414.383 500.504 413.538 500.317C413.022 501.236 412.837 501.41 412.027 502.007L411.362 501.723L411.929 500.271C410.9 500.085 410.693 501.121 409.537 501.441C407.208 499.795 404.746 499.566 402.359 498.154C402.228 498.076 402.098 497.995 401.968 497.915C401.324 498.127 400.748 498.288 400.079 498.42L400.049 497.673C401.178 496.793 402.165 495.913 403.171 494.895L402.757 494.661C401.172 495.006 400.264 495.855 399.066 496.873L398.652 497.231L398.356 497.058C399.144 494.929 399.972 493.007 400.147 490.722C399.428 491.368 398.748 492.479 398.006 493.006C397.789 493.159 397.538 493.255 397.304 493.38L397.313 493.784L396.793 493.419C396.761 492.612 396.813 491.821 396.551 491.052C395.479 492.202 395.87 493.933 395.469 495.481L394.884 495.284C394.357 493.416 395.213 491.62 394.738 489.845C394.384 488.522 394.247 487.436 394.657 486.091C394.862 485.417 395.099 484.773 395.283 484.09C395.146 484.085 395.008 484.061 394.872 484.076C392.571 484.332 391.153 486.804 389.992 488.542L389.485 489.307C389.793 487.697 390.552 486.076 391.137 484.538C391.158 484.352 391.163 484.164 391.198 483.98C391.458 482.635 391.703 481.495 391.806 480.124C390.939 480.549 390.829 481.055 390.335 481.861C389.848 483.4 389.309 484.911 388.752 486.426C388.274 482.567 387.91 478.488 389.995 475.085C390.085 474.938 390.179 474.793 390.271 474.647C388.941 474.289 387.777 474.943 386.479 475.347L386.26 474.999C387.193 473.683 388.163 472.399 388.902 470.96L388.169 470.217C383.498 469.986 378.131 464.909 374.508 462.018C378.324 462.81 381.976 463.739 385.677 464.964C381.98 461.07 378.787 457.464 376.232 452.714C379.371 455.957 382.401 458.48 386.325 460.733Q383.621 456.722 380.958 452.684C382.991 454.003 385.916 455.452 387.676 457.063C387.877 457.247 388.029 457.478 388.206 457.685L388.66 457.424C386.616 455.045 386.693 453.944 386.368 450.827C388.579 452.456 390.651 455.721 393.076 456.701L392.339 455.184L392.597 454.639C393.726 454.811 394.845 454.947 395.982 455.053L396.252 454.408C394.983 451.887 392.331 449.826 390.505 447.631C394.677 449.394 397.727 453.025 400.782 454.07C400.919 452.271 398.6 450.817 398.563 448.703C399.987 448.965 403.031 452.504 404.688 453.378L404.843 452.823C403.986 452.047 403.053 451.276 402.348 450.356C401.679 449.484 401.626 449.538 401.752 448.392C403.523 448.179 405.926 451.684 408.215 451.813C407.583 450.906 406.915 449.997 406.354 449.044C405.723 447.972 405.396 447.494 405.778 446.253C408.211 446.469 410.844 449.651 412.573 451.328L413.531 451.256L413.932 450.312C413.415 448.74 411.729 448.124 410.599 447.02C409.869 446.307 409.265 445.469 409.247 444.448C411.746 445.989 413.284 444.549 415.878 444.957C416.641 445.077 417.36 445.197 418.135 445.266L415.899 443.56L416.367 443.368C421.566 444.476 426.782 444.819 432.003 445.752C438.664 446.942 452.226 450.567 458.314 453.168L458.81 453.385L459.236 453.153C455.585 450.391 441.237 445.329 435.933 442.866C427.969 439.167 420.416 434.699 412.292 431.318C408.08 429.565 403.755 428.024 399.287 427.07C385.567 424.141 375.768 427.972 364.289 435.412Z"/>
	<path fill="#ADACAC" d="M469.263 485.887C469.933 486.854 470.361 487.735 470.788 488.831C470.05 490.308 469.446 490.184 467.926 490.703C467.042 490.216 466.735 490.278 466.342 489.308C467.079 487.934 468.163 486.965 469.263 485.887Z"/>
	<path fill="#202324" d="M390.335 481.861C389.782 479.883 389.947 478.836 390.49 476.872L391.191 476.263C392.554 477.048 393.163 477.901 393.591 479.432C393.925 480.628 394.152 481.577 393.668 482.765C392.718 483.656 392.376 484.079 391.137 484.538C391.158 484.352 391.163 484.164 391.198 483.98C391.458 482.635 391.703 481.495 391.806 480.124C390.939 480.549 390.829 481.055 390.335 481.861Z"/>
	<path fill="#CC0F0D" d="M440.515 466.816L442.272 467.451C443.396 467.852 444.85 468.221 445.714 469.092C447.628 471.02 447.393 473.76 447.554 476.297L440.669 474.453C440.996 471.787 440.935 469.474 440.515 466.816Z"/>
	<path fill="#707172" d="M431.809 503.424C430.069 503.549 428.407 503.545 426.683 503.229C424.35 502.802 417.896 500.265 416.555 498.355C417.629 497.944 431.28 498.102 433.803 498.022C432.39 498.407 428.753 498.775 428.155 500.019C428.084 500.165 428.091 500.338 428.059 500.497C429.396 500.851 430.761 501.118 432.005 501.73L428.25 502.6L431.809 503.424Z"/>
	<defs>
		<linearGradient id="gradient_8" gradientUnits="userSpaceOnUse" x1="462.71313" y1="486.38879" x2="458.49084" y2="478.00845">
			<stop offset="0" stop-color="#A8A6A8"/>
			<stop offset="1" stop-color="#C6C5C5"/>
		</linearGradient>
	</defs>
	<path fill="url(#gradient_8)" d="M457.199 473.933C460.284 476.579 462.996 479.316 465.423 482.586C464.285 485.041 463.1 487.098 461.505 489.284C459.616 486.019 457.25 483.23 455.617 479.774C456.075 477.808 456.646 475.874 457.199 473.933Z"/>
	<defs>
		<linearGradient id="gradient_9" gradientUnits="userSpaceOnUse" x1="468.64117" y1="460.27344" x2="470.85883" y2="491.22656">
			<stop offset="0" stop-color="#505353"/>
			<stop offset="1" stop-color="#6D6E6F"/>
		</linearGradient>
	</defs>
	<path fill="url(#gradient_9)" d="M474.86 492.994C473.957 490.26 473.058 487.652 471.53 485.184C468.977 481.058 461.172 474.28 460.917 469.764C460.641 464.891 458.144 461.669 454.506 458.526Q453.698 457.836 452.856 457.186C467.035 463.181 476.769 476.518 482.417 490.484C483.63 493.485 484.847 496.5 485.935 499.548L484.351 501.155C483.848 498.157 482.825 495.558 481.464 492.871C479.255 492.792 477.045 492.6 474.86 492.994Z"/>
	<path fill="#CC0F0D" d="M419.345 466.641C421.132 464.731 422.364 464.534 424.887 464.442Q426.395 464.391 427.903 464.378C427.12 465.963 426.33 468.358 424.734 469.231C423.506 469.206 422.716 468.974 421.582 468.512L420.915 468.991C422.058 470.05 423.287 470.229 424.752 470.658C425.032 473.863 425.153 476.654 427.761 478.895C429.129 480.07 430.742 480.596 432.541 480.439C436.14 480.124 438.326 478.009 440.618 475.443C442.842 476.07 445.006 477.029 447.158 477.871C444.836 482.451 442.352 486.515 437.286 488.439Q436.595 488.699 435.882 488.89Q435.169 489.081 434.44 489.202Q433.712 489.322 432.975 489.371Q432.239 489.42 431.501 489.397Q430.763 489.373 430.031 489.278Q429.299 489.183 428.58 489.016Q427.86 488.85 427.161 488.614Q426.461 488.378 425.788 488.075Q425.125 487.775 424.496 487.409Q423.867 487.044 423.278 486.616Q422.689 486.189 422.146 485.704Q421.604 485.219 421.113 484.681Q420.623 484.144 420.189 483.56Q419.755 482.975 419.383 482.35Q419.011 481.725 418.704 481.065Q418.397 480.405 418.158 479.718C416.518 475.11 417.317 470.939 419.345 466.641Z"/>
	<path fill="#FEFEFE" d="M400.801 473.335C404.95 469.134 410.489 466.963 415.823 464.707C414.535 468.644 413.732 472.604 414.186 476.765C414.702 481.495 416.881 485.918 420.716 488.817C424.85 491.943 430.316 492.832 435.352 491.95Q435.84 491.868 436.323 491.762Q436.807 491.655 437.284 491.524Q437.761 491.393 438.231 491.238Q438.701 491.082 439.163 490.904Q439.624 490.725 440.076 490.523Q440.528 490.321 440.968 490.096Q441.409 489.871 441.838 489.624Q442.267 489.377 442.683 489.109Q443.099 488.84 443.5 488.551Q443.902 488.262 444.288 487.952Q444.675 487.643 445.045 487.315Q445.415 486.986 445.768 486.639Q446.121 486.292 446.456 485.928Q446.79 485.563 447.106 485.182Q447.422 484.801 447.718 484.405Q448.014 484.008 448.29 483.597C451.281 479.151 451.795 474.946 450.758 469.829C452.963 471.113 455.074 472.523 457.199 473.933C456.646 475.874 456.075 477.808 455.617 479.774C457.25 483.23 459.616 486.019 461.505 489.284C458.545 490.563 455.291 491.462 452.177 492.284C440.246 495.434 423.618 496.952 412.545 490.304C405.965 486.353 402.68 480.505 400.801 473.335Z"/>
</svg>
