<?xml version="1.0" encoding="utf-8" ?>
<svg xmlns="http://www.w3.org/2000/svg" xmlns:xlink="http://www.w3.org/1999/xlink" width="1023" height="1023">
	<path fill="#02BDBC" d="M0 0L1024 0L1024 1024L956.427 1024L952.016 1024L889.736 1024L853.924 1024L851.138 1024L215.773 1024L174.107 1024L171.552 1024L47.228 1024L46.5525 1024L0 1024L0 0Z"/>
	<path fill="#030303" d="M952.016 1024C948.585 990.488 945.45 956.988 939.978 923.718C937.68 909.744 935.274 895.584 931.498 881.92C926.239 862.884 916.608 845.607 900.509 833.702C878.357 817.321 839.769 809.452 813.128 800.865C788.488 792.923 764.342 784.013 740.137 774.856C719.12 766.904 697.109 758.928 677.544 747.77C672.979 745.167 667.338 742.364 663.744 738.514C662.507 737.188 624.899 680.049 624.53 678.712C634.94 687.053 657.113 725.324 664.336 737.981C670.942 741.389 677.505 744.979 684.247 748.107C705.823 758.119 728.395 766.427 750.696 774.679Q782.224 786.43 814.099 797.205C837.155 804.962 881.697 816.013 900.145 828.091C916.93 839.08 927.711 854.487 933.776 873.444C939.644 891.788 942.815 911.304 945.746 930.295Q952.654 976.969 956.427 1024L952.016 1024Z"/>
	<path fill="#353F40" d="M127.61 812.963C163.224 846.865 172.849 973.953 174.085 1022.73Q174.1 1023.36 174.107 1024L171.552 1024L47.228 1024L46.5525 1024C52.1514 980.401 56.1768 938.006 71.2414 896.238C79.9632 872.055 103.952 824.094 127.61 812.963Z"/>
	<path fill="#030303" d="M127.61 812.963C163.224 846.865 172.849 973.953 174.085 1022.73Q174.1 1023.36 174.107 1024L171.552 1024C167.165 971.191 157.576 858.703 123.353 818.435C123.231 818.518 123.107 818.598 122.987 818.683C117.296 822.755 112.319 828.244 107.749 833.517C77.2247 868.735 62.8771 920.061 55.1737 965.021C52.9445 978.032 51.0936 991.213 49.4991 1004.32C48.7273 1010.66 48.386 1017.11 47.3313 1023.41L47.228 1024L46.5525 1024C52.1514 980.401 56.1768 938.006 71.2414 896.238C79.9632 872.055 103.952 824.094 127.61 812.963Z"/>
	<path fill="#030303" d="M444.161 100.855C455.872 96.2301 468.095 92.5952 480.274 89.435C514.801 80.4758 543.246 78.497 576.888 93.18C604.1 105.057 625.214 126.228 639.352 152.07C649.103 150.681 656.933 151.615 664.983 157.669C686.814 174.09 717.921 221.62 729.132 246.933C733.178 256.068 736.236 265.29 737.594 275.207C740.566 296.911 734.365 324.885 741.605 344.007C753.648 375.815 790.087 379.467 790.79 421.832C791.039 436.799 786.421 449.573 778.631 462.149C782.386 476.684 781.089 491.912 773.291 504.954C767.158 515.211 757.821 521.724 746.952 526.234C742.842 541.267 734.912 551.127 721.361 558.859C716.894 561.408 712.24 563.342 707.359 564.937C706.733 567.071 706.26 569.661 705.17 571.591C701.894 581.47 694.308 590.888 684.98 595.635C678.641 598.86 671.491 599.924 664.543 598.288C661.02 604.291 656.954 608.507 649.959 610.29C640.413 612.724 632.563 609.074 624.468 604.583C622.078 628.462 620.408 652.983 623.633 676.867L624.53 678.712C624.899 680.049 662.507 737.188 663.744 738.514C667.338 742.364 672.979 745.167 677.544 747.77C697.109 758.928 719.12 766.904 740.137 774.856C764.342 784.013 788.488 792.923 813.128 800.865C839.769 809.452 878.357 817.321 900.509 833.702C916.608 845.607 926.239 862.884 931.498 881.92C935.274 895.584 937.68 909.744 939.978 923.718C945.45 956.988 948.585 990.488 952.016 1024L889.736 1024L853.924 1024L851.138 1024L215.773 1024L174.107 1024Q174.1 1023.36 174.085 1022.73C172.849 973.953 163.224 846.865 127.61 812.963C130.026 811.943 132.409 811.061 134.91 810.272C144.177 806.914 154.321 805.357 163.987 803.608L195.608 797.865C238.697 789.939 281.349 779.197 322.217 763.266C330.453 760.055 340.082 756.77 347.518 751.974C354.592 747.411 363.69 736.127 370.346 729.89C377.863 722.846 385.374 715.585 393.267 708.976C399.351 703.882 405.904 699.282 412.184 694.425C410.982 664.816 407.636 635.389 404.814 605.908Q404.021 606.628 403.215 607.334C396.623 613.099 388.578 614.949 379.989 614.293C366.836 613.289 353.866 607.598 345.158 597.542C340.716 598.828 336.337 599.967 331.719 600.369C320.114 601.377 307.496 598.016 298.555 590.376C290.453 583.452 286.409 574.564 285.64 564.069C272.16 558.357 260.825 552.169 251.211 540.79C239.988 527.504 236.049 513.663 237.532 496.518Q236.008 494.906 234.588 493.201C225.131 481.649 218.686 466.667 220.216 451.522C222.497 428.949 236.692 421.567 252.477 408.801C246.223 385.699 232.018 359.061 238.827 334.703C246.003 309.037 271.624 292.017 285.982 269.693C295.939 254.212 301.877 237.432 308.132 220.27C324.102 176.454 345.488 150.52 386.471 127.479C401.492 117.757 427.06 106.703 444.161 100.855Z"/>
	<path fill="#787878" d="M358.267 457.908C358.645 460.949 359.167 463.927 359.76 466.932L353.748 467.043C355.579 464.182 356.869 460.996 358.267 457.908Z"/>
	<path fill="#575556" d="M499.791 308.584C499.552 313.916 482.09 330.784 481.88 332.529C481.845 332.821 482.272 333.257 482.421 333.438C482.508 334.705 482.048 334.817 481.288 335.776C477.697 338.078 475.726 341.397 471.528 342.854C476.476 337.05 481.782 331.551 486.691 325.704C491.306 320.206 495.533 314.36 499.791 308.584Z"/>
	<path fill="#171713" d="M359.76 466.932C359.002 470.977 361.638 477.241 362.714 481.332C362.872 481.933 363.07 482.307 363.413 482.815L361.491 481.755L361.655 480.82C359.727 478.543 356.552 476.794 354.081 475.108L351.554 473.285C350.977 471.703 351.377 471.472 352.033 469.976L353.748 467.043L359.76 466.932Z"/>
	<path fill="#353F40" d="M350.146 473.371C351.706 475.254 353.289 476.745 355.164 478.292C353.636 478.818 353.247 478.815 352.247 480.146C352.357 481.122 352.387 481.536 353.251 482.175C353.462 482.331 353.711 482.426 353.941 482.552C351.611 482.99 348.868 484.539 347.473 486.483C346.474 487.875 346.78 488.522 346.774 490.115C346.774 490.3 346.722 490.48 346.696 490.662C345.287 487.745 343.844 485.102 341.959 482.465C344.818 479.523 347.634 476.624 350.146 473.371Z"/>
	<path fill="#787878" d="M360.534 487.648C360.674 486.089 360.558 484.477 361.685 483.354L363.133 483.882C365.219 490.095 367.638 497.014 368.107 503.588L367.525 503.788C362.743 505.46 359.69 505.14 355.025 503.35L353.228 501.609C355.083 499.985 356.804 499.395 358.246 497.205C358.889 496.325 359.557 495.432 360.095 494.481C361.426 492.127 361.32 490.136 360.534 487.648Z"/>
	<path fill="#617072" d="M355.164 478.292C357.239 479.537 359.26 480.804 361.491 481.755L363.413 482.815L363.133 483.882L361.685 483.354C360.558 484.477 360.674 486.089 360.534 487.648C361.32 490.136 361.426 492.127 360.095 494.481C359.557 495.432 358.889 496.325 358.246 497.205C356.804 499.395 355.083 499.985 353.228 501.609C349.913 499.903 348.428 495.211 347.107 491.97C348.856 488.676 350.355 485.733 353.606 483.658C353.771 483.553 353.938 483.453 354.104 483.35L353.941 482.552C353.711 482.426 353.462 482.331 353.251 482.175C352.387 481.536 352.357 481.122 352.247 480.146C353.247 478.815 353.636 478.818 355.164 478.292Z"/>
	<path fill="#333332" d="M355.875 486.643C357.017 486.153 357.579 485.638 358.796 486.225C359.392 486.513 360.035 487.202 360.534 487.648C361.32 490.136 361.426 492.127 360.095 494.481C359.557 495.432 358.889 496.325 358.246 497.205L357.699 497.228C355.191 497.317 354.135 497.262 352.268 495.532C351.512 494.646 351.148 493.092 351.353 491.934C351.796 489.436 353.892 487.92 355.875 486.643Z"/>
	<path fill="#FEFDFD" d="M352.475 495.082C352.495 493.547 352.553 492.531 353.483 491.235C354.954 490.406 355.942 490.58 357.539 490.758C357.043 492.454 356.693 493.666 355.499 494.995C354.145 495.52 353.917 495.397 352.475 495.082Z"/>
	<path fill="#575556" d="M355.875 486.643C357.017 486.153 357.579 485.638 358.796 486.225C359.392 486.513 360.035 487.202 360.534 487.648C361.32 490.136 361.426 492.127 360.095 494.481C359.557 495.432 358.889 496.325 358.246 497.205L357.699 497.228C355.191 497.317 354.135 497.262 352.268 495.532L352.475 495.082C353.917 495.397 354.145 495.52 355.499 494.995C356.693 493.666 357.043 492.454 357.539 490.758C357.657 491.966 357.54 491.349 357.918 492.604C358.447 491.578 358.549 490.727 358.261 489.574C357.885 488.066 357.046 487.511 355.875 486.643Z"/>
	<path fill="#353F40" d="M619.413 229.917L620.236 229.455C622.844 223.393 624.079 216.137 625.708 209.707Q632.706 182.196 637.914 154.29C639.16 158.265 638.694 163.779 638.462 167.956C637.328 188.364 632.7 209.1 623.178 227.287C621.227 231.013 619.066 234.599 616.826 238.157C617.592 235.602 618.216 232.255 619.413 229.917Z"/>
	<path fill="#333332" d="M554.402 236.789C562.639 228.15 575.782 220.355 588.016 220.109C596.005 219.948 601.968 223.083 607.564 228.464L608.179 228.37C610.361 232.316 610.155 237.229 610.267 241.618L609.722 243.607C609.24 242.903 608.847 242.039 608.445 241.278C606.048 236.735 602.848 233.01 598.315 230.465C587.899 224.617 574.521 226.454 564.138 231.451C561.23 232.85 558.404 235.791 555.313 236.58C555.011 236.657 554.706 236.719 554.402 236.789Z"/>
	<path fill="#B5B4B4" d="M772.627 384.625C783.179 396.084 789.019 409.836 788.336 425.591C787.865 436.47 784.228 448.778 778.02 457.789L775.326 450.195C779.653 431.974 781.204 415.851 776.737 397.405C775.761 393.373 772.641 388.621 772.627 384.625Z"/>
	<path fill="#B5B4B4" d="M758.581 425.073C771.136 443.736 780.183 465.323 775.626 488.241C772.928 501.805 765.322 512.362 753.812 519.934C753.58 520.087 753.342 520.231 753.107 520.379C754.678 515.454 758.549 511.197 760.754 506.489C768.991 488.907 769.829 469.247 766.085 450.49C765.128 445.699 763.652 440.995 762.055 436.383C760.951 433.196 758.982 429.238 758.649 425.91C758.622 425.631 758.604 425.352 758.581 425.073Z"/>
	<path fill="#353F40" d="M655.4 578.078L655.986 574.717C656.151 574.542 656.257 574.278 656.481 574.191C656.631 574.133 656.783 574.299 656.935 574.352C661.95 576.104 666.981 577.73 672.29 578.256C680.766 579.097 689.018 577.673 696.987 574.785C699.064 574.033 700.991 572.896 703.068 572.186L703.732 571.965C699.31 582.067 692.516 590.494 682.01 594.642C676.602 596.777 669.529 597.67 664.026 595.404C660.348 593.889 657.807 590.983 656.375 587.32C655.189 584.286 655.374 581.273 655.4 578.078Z"/>
	<path fill="#333332" d="M540.56 261.903C545.934 250.291 556.598 239.759 568.084 234.219C576.41 230.203 586.816 228.315 595.703 231.664C603.229 234.5 606.308 240.215 609.288 247.156L609.089 247.487L608.482 247.569C601.459 248.475 594.276 248.507 587.212 249.08C570.583 250.428 555.572 254.704 540.56 261.903Z"/>
	<defs>
		<linearGradient id="gradient_0" gradientUnits="userSpaceOnUse" x1="515.28467" y1="240.57433" x2="547.15674" y2="317.4093">
			<stop offset="0" stop-color="#706E6E"/>
			<stop offset="1" stop-color="#8C8B8C"/>
		</linearGradient>
	</defs>
	<path fill="url(#gradient_0)" d="M499.41 314.63C503.834 309.062 506.933 302.246 510.274 295.986Q516.83 283.79 523.194 271.493C533.803 250.934 544.78 229.921 566.406 218.996C577.153 213.566 588.335 212.255 599.769 215.986C603.743 219.396 606.284 223.541 608.179 228.37L607.564 228.464C601.968 223.083 596.005 219.948 588.016 220.109C575.782 220.355 562.639 228.15 554.402 236.789C535.128 252.249 526.225 275.627 517.262 297.767C513.228 307.734 509.07 317.604 502.304 326.085C494.627 335.71 483.565 344.446 472.437 349.808C469.997 350.984 464.678 351.735 462.955 353.434L463.116 353.661C461.835 354.278 460.991 354.288 459.602 354.317C461.478 352.587 463.367 350.939 465.367 349.351C467.295 347.098 469.471 344.994 471.528 342.854C475.726 341.397 477.697 338.078 481.288 335.776C487.553 332.474 493.142 318.577 499.41 314.63Z"/>
	<path fill="#617072" d="M481.288 335.776C487.553 332.474 493.142 318.577 499.41 314.63C494.656 323.161 476.096 346.743 466.737 349.131C466.175 349.274 465.905 349.29 465.367 349.351C467.295 347.098 469.471 344.994 471.528 342.854C475.726 341.397 477.697 338.078 481.288 335.776Z"/>
	<path fill="#353F40" d="M466.405 942.91C462.637 941.144 459.035 937.147 455.933 934.345Q448.063 927.207 440.625 919.619Q433.187 912.032 426.207 904.021Q419.228 896.01 412.73 887.604Q406.232 879.197 400.238 870.424C385.297 848.637 343.995 784.732 349.697 758.193C350.423 754.812 352.605 751.558 354.732 748.869C360.521 741.548 367.889 735.22 374.697 728.858C383.383 720.741 391.872 712.163 401.823 705.589C399.649 710.084 397.917 714.848 396.162 719.523C389.97 727.869 384.987 769.09 384.581 780.753C384.401 785.914 384.793 791.023 385.552 796.128C391.504 836.169 416.002 882.443 440.952 913.812C446.125 920.317 451.841 926.447 457.446 932.58C460.341 935.748 464.289 939.232 466.405 942.91Z"/>
	<path fill="#787878" d="M624.035 702.277C628.117 717.637 632.941 732.783 630.196 748.879C627.409 765.225 617.593 781.131 609.91 795.663C599.759 814.861 588.896 833.644 578.647 852.782C566.828 874.852 556.06 897.571 543.496 919.22C535.934 932.252 528.872 944.328 518.268 955.223L517.618 955.667C514.057 952.983 510.427 950.365 507.144 947.341C519.419 929.324 531.557 910.99 541.173 891.384C549.023 875.38 555.135 858.627 561.756 842.097Q560.891 842.483 560.018 842.851C558.117 843.657 556.715 844.298 554.692 843.479L555.426 842.53L555.053 841.671L556.116 841.729C560.951 836.1 566.64 831.071 571.689 825.594C588.891 806.935 599.437 788.125 606.289 763.655C610.884 749.529 615.059 735.184 619.095 720.888C620.494 715.934 621.653 705.951 624.035 702.277Z"/>
	<path fill="#030303" d="M592.547 823.076L592.84 823.71C590.154 829.898 569.172 838.139 562.71 841.767C562.177 841.045 562.367 841.502 562.428 840.309C565.182 836.051 586.361 827.458 592.547 823.076Z"/>
	<path fill="#171713" d="M340.464 483.182C344.066 490.664 346.336 499.429 353.404 504.398C356.491 506.665 359.478 507.436 363.274 506.761C365.072 506.441 366.678 505.476 368.422 504.941C370.294 513.913 371.57 522.999 373.411 531.976C377.144 550.177 382.852 570.62 391.739 587.006C395.061 593.131 399.194 598.739 403.437 604.25C395.615 610.49 388.875 612.345 378.974 611.235C365.882 609.767 356.409 603.624 346.008 596.033C341.521 596.385 337.074 597.21 332.59 597.473C321.168 598.143 309.206 595.228 300.403 587.627C293.758 581.89 289.79 573.666 288.447 565.056C295.894 567.857 303.342 572.998 310.229 576.999C323.161 584.512 342.234 592.651 357.198 592.686Q358.016 592.693 358.834 592.659Q359.652 592.625 360.467 592.551Q361.282 592.476 362.092 592.361Q362.902 592.246 363.706 592.091Q364.51 591.936 365.304 591.741Q366.099 591.546 366.883 591.312Q367.668 591.078 368.439 590.805Q369.211 590.532 369.968 590.221Q370.725 589.91 371.465 589.561Q372.206 589.213 372.928 588.828Q373.65 588.443 374.353 588.023Q375.055 587.603 375.735 587.148Q376.416 586.693 377.073 586.205Q377.73 585.717 378.362 585.197Q378.994 584.677 379.599 584.126Q380.204 583.575 380.781 582.995C367.768 578.502 358.061 578.463 345.599 570.355C331.766 561.356 322.671 547.951 319.364 531.768C315.786 514.263 319.155 501.858 328.824 487.178C332.845 486.107 336.643 484.832 340.464 483.182Z"/>
	<path fill="#333332" d="M294.093 364.632C313.893 379.865 342.165 386.031 366.819 386.35C361.68 415.713 357.799 450.581 331.393 468.965C319.974 476.915 300.552 481.794 292.141 489.097C289.711 491.206 288.144 493.755 286.464 496.452C302.509 487.403 312.917 491.215 328.824 487.178C319.155 501.858 315.786 514.263 319.364 531.768C322.671 547.951 331.766 561.356 345.599 570.355C358.061 578.463 367.768 578.502 380.781 582.995Q380.204 583.575 379.599 584.126Q378.994 584.677 378.362 585.197Q377.73 585.717 377.073 586.205Q376.416 586.693 375.735 587.148Q375.055 587.603 374.353 588.023Q373.65 588.443 372.928 588.828Q372.206 589.213 371.465 589.561Q370.725 589.91 369.968 590.221Q369.211 590.532 368.439 590.805Q367.668 591.078 366.883 591.312Q366.099 591.546 365.304 591.741Q364.51 591.936 363.706 592.091Q362.902 592.246 362.092 592.361Q361.282 592.476 360.467 592.551Q359.652 592.625 358.834 592.659Q358.016 592.693 357.198 592.686C342.234 592.651 323.161 584.512 310.229 576.999C303.342 572.998 295.894 567.857 288.447 565.056C283.839 561.493 278.308 559.106 273.24 556.268Q271.048 555.026 268.947 553.634Q266.846 552.242 264.847 550.708Q262.848 549.173 260.96 547.504Q259.073 545.835 257.305 544.038Q255.538 542.242 253.9 540.327Q252.262 538.412 250.761 536.388Q249.26 534.364 247.903 532.24Q246.546 530.117 245.34 527.904C240.892 519.633 236.124 506.697 238.982 497.247C241.091 493.884 239.766 485.633 239.481 481.552C236.883 444.382 258.953 446.846 278.068 424.595C292.889 407.344 295.817 386.611 294.093 364.632Z"/>
	<path fill="#030303" d="M290.836 437.028C290.672 439.041 286.446 443.882 285.22 445.865C278.417 456.872 275.427 470.983 277.373 483.762C280.402 503.657 295.624 516.37 310.852 527.678C309.802 527.805 308.514 526.913 307.545 526.462Q302.163 523.44 297.202 519.767Q292.242 516.094 287.781 511.828C278.818 503.253 272.062 492.523 271.877 479.817C271.647 464.038 280.046 448.159 290.836 437.028Z"/>
	<path fill="#787878" d="M607.727 623.239Q613.861 615.339 620.122 607.541C619.647 613.282 616.73 618.171 614.26 623.26C613.071 624.495 611.909 625.868 610.626 626.998C597.928 642.337 584.341 656.917 571.701 672.3C564.942 680.526 558.653 689.121 551.958 697.396C540.43 711.646 528.066 725.573 514.986 738.424C496.929 756.166 476.713 770.946 457.545 787.347C462.51 804.06 467.517 821.689 475.043 837.446C477.087 841.727 479.657 845.691 481.94 849.839C468.036 838.096 455.795 809.823 451.649 791.917C444.017 796.969 436.892 802.716 429.477 808.071C425.603 810.868 419.556 813.98 416.585 817.45C414.073 812.675 412.216 807.2 410.257 802.173C403.887 785.821 398.114 769.739 395.95 752.23C399.04 749.265 401.804 746.132 404.31 742.655C408.832 736.382 412.338 729.48 413.838 721.849C418.285 699.223 411.841 633.586 407.959 609.245L408.521 609.881C415.425 617.532 422.841 624.833 430.021 632.232C454.016 656.957 476.453 676.853 512.841 678.431C545.712 679.857 569.333 666.272 591.015 642.595C596.355 636.764 601.315 628.855 607.127 623.752C607.325 623.579 607.527 623.41 607.727 623.239Z"/>
	<path fill="#9A9798" d="M607.727 623.239Q613.861 615.339 620.122 607.541C619.647 613.282 616.73 618.171 614.26 623.26C613.071 624.495 611.909 625.868 610.626 626.998C611.789 623.539 615.474 620.741 615.979 617.073C616.105 616.159 616.13 616.536 615.53 615.676C612.567 617.036 611.494 621.845 608.293 623.099C608.112 623.17 607.916 623.192 607.727 623.239Z"/>
	<path fill="#B5B4B4" d="M620.122 607.541L623.375 603.973C617.157 635.726 616.709 670.647 624.035 702.277C621.653 705.951 620.494 715.934 619.095 720.888C615.059 735.184 610.884 749.529 606.289 763.655C599.437 788.125 588.891 806.935 571.689 825.594C566.64 831.071 560.951 836.1 556.116 841.729L555.053 841.671L555.426 842.53L554.692 843.479C556.715 844.298 558.117 843.657 560.018 842.851Q560.891 842.483 561.756 842.097C555.135 858.627 549.023 875.38 541.173 891.384C531.557 910.99 519.419 929.324 507.144 947.341C478.167 922.544 457.981 894.352 438.996 861.436C430.788 847.205 422.906 832.627 416.585 817.45C419.556 813.98 425.603 810.868 429.477 808.071C436.892 802.716 444.017 796.969 451.649 791.917C455.795 809.823 468.036 838.096 481.94 849.839C479.657 845.691 477.087 841.727 475.043 837.446C467.517 821.689 462.51 804.06 457.545 787.347C476.713 770.946 496.929 756.166 514.986 738.424C528.066 725.573 540.43 711.646 551.958 697.396C558.653 689.121 564.942 680.526 571.701 672.3C584.341 656.917 597.928 642.337 610.626 626.998C611.909 625.868 613.071 624.495 614.26 623.26C616.73 618.171 619.647 613.282 620.122 607.541Z"/>
	<path fill="#FEFDFD" d="M472.77 848.467C476.689 851.199 481.063 852.672 485.289 854.832C490.537 857.514 495.635 860.579 500.844 863.355C498.342 863.298 495.71 863.238 493.238 862.792C484.65 861.243 477.772 855.325 472.77 848.467Z"/>
	<path fill="#D8D6D6" d="M620.122 607.541L623.375 603.973C617.157 635.726 616.709 670.647 624.035 702.277C621.653 705.951 620.494 715.934 619.095 720.888C615.059 735.184 610.884 749.529 606.289 763.655C599.739 752.585 604.576 672.802 606.773 656.988C608.373 645.475 611.564 634.524 614.26 623.26C616.73 618.171 619.647 613.282 620.122 607.541Z"/>
	<path fill="#353F40" d="M443.124 105.264C451.947 101.1 473.671 93.0693 483.099 92.8217C459.224 105.201 445.062 116.028 425.908 134.897C421.202 139.533 416.01 144.129 411.875 149.267L411.716 150.289L415.816 147.06C415.224 149.743 403.647 163.696 401.074 167.573C395.798 175.523 391.132 183.96 386.835 192.472C382.223 201.607 378.248 211.866 375.524 221.708C369.202 244.552 367.578 265.667 352.51 285.389C348.8 290.245 344.505 295.008 339.328 298.335C332.607 302.653 325.833 303.213 318.135 302.067C325.166 309.706 332.614 314.708 343.243 315.157C371.628 316.354 403.772 298.062 424.008 279.2C433.882 269.996 443.461 259.531 451.044 248.354C471.436 218.295 473.496 204.416 510.153 188.7C498.394 197.677 488.139 209.628 480.781 222.43Q475.957 230.931 472.228 239.965C466.57 253.53 451.185 298.5 439.773 306.751Q437.853 309.748 435.692 312.577Q433.53 315.405 431.143 318.045Q428.755 320.685 426.157 323.119Q423.559 325.553 420.769 327.763C418.347 329.682 411.938 333.39 410.4 335.582L411.082 336.328C409.344 341.964 401.057 345.472 397.891 350.663C403.288 350.119 408.722 349.697 413.969 348.251C485.781 328.462 516.002 220.439 576.142 209.08C583.989 207.598 592.665 208.482 599.35 213.097L599.769 215.986C588.335 212.255 577.153 213.566 566.406 218.996C544.78 229.921 533.803 250.934 523.194 271.493Q516.83 283.79 510.274 295.986C506.933 302.246 503.834 309.062 499.41 314.63C493.142 318.577 487.553 332.474 481.288 335.776C482.048 334.817 482.508 334.705 482.421 333.438C482.272 333.257 481.845 332.821 481.88 332.529C482.09 330.784 499.552 313.916 499.791 308.584C502.507 303.552 505.948 299.105 508.311 293.854C508.385 293.691 508.465 293.532 508.541 293.371L508.211 293.737C500.847 302.033 494.569 311.756 487.514 320.411C457.437 357.306 428.841 377.663 379.779 380.971C351.038 382.91 318.58 379.232 293.843 363.68L293.596 364.156L294.093 364.632C295.817 386.611 292.889 407.344 278.068 424.595C258.953 446.846 236.883 444.382 239.481 481.552C239.766 485.633 241.091 493.884 238.982 497.247C233.695 490.084 228.63 482.831 225.639 474.371C218.855 455.179 224.182 436.071 239.256 422.518C250.121 412.749 261.552 407.333 267.524 393.142C274.63 376.257 271.799 358.814 273.972 341.212C276.48 320.896 284.223 302.582 292.924 284.29C279.715 303.095 269.978 325.442 268.344 348.557C267.694 357.752 268.344 367.007 268.017 376.216C267.525 390.083 263.313 399.499 253.213 408.93C252.228 402.529 249.972 396.551 248.018 390.406C242.808 374.031 236.876 355.156 241.597 338.076C246.686 319.667 259.397 307.68 271.371 293.736Q280.037 283.705 287.117 272.497C295.812 258.746 301.552 243.238 307.404 228.136C323.587 186.37 336.995 161.083 376.197 135.944C380.824 132.977 385.784 130.517 390.552 127.783C401.722 123.392 412.721 117.343 423.593 112.17C427.877 110.132 432.239 107.733 436.752 106.26L436.756 106.479L437.605 106.7C439.584 105.791 440.926 105.212 443.124 105.264Z"/>
	<path fill="#030303" d="M283.057 320.397C287.157 330.86 293.35 339.568 302.989 345.576C325.866 359.834 359.624 360.686 385.699 356.428C390.772 355.599 395.719 353.937 400.722 352.761L401.003 353.058L398.877 354.116Q390.97 356.823 382.824 358.692Q374.677 360.56 366.381 361.571C343.971 364.172 317.713 361.769 299.482 347.134C291.465 340.699 284.229 330.879 283.057 320.397Z"/>
	<path fill="#030303" d="M376.831 347.475C379.761 345.693 384.323 345.64 387.65 344.642C391.375 343.525 395.157 341.976 398.653 340.281C429.923 325.124 443.234 295.565 455.665 265.248C457.935 259.71 459.867 253.965 462.202 248.48C463.418 245.622 465.003 243.019 465.996 240.058C466.051 239.896 466.101 239.732 466.154 239.569L466.418 239.991C461.102 255.852 456.586 271.667 449.9 287.091C447.014 293.75 442.91 299.696 439.983 306.267L439.773 306.751Q437.853 309.748 435.692 312.577Q433.53 315.405 431.143 318.045Q428.755 320.685 426.157 323.119Q423.559 325.553 420.769 327.763C418.347 329.682 411.938 333.39 410.4 335.582L411.082 336.328C409.344 341.964 401.057 345.472 397.891 350.663C392.468 351.459 387.229 352.1 381.738 351.778C379.478 351.645 374.96 350.956 373.459 349.244L375.814 348.675C374.78 347.897 374.139 347.933 372.875 347.755C373.991 347.357 375.63 347.516 376.831 347.475Z"/>
	<path fill="#9A9798" d="M376.831 347.475C388.366 347.553 400.588 341.096 410.4 335.582L411.082 336.328C409.344 341.964 401.057 345.472 397.891 350.663C392.468 351.459 387.229 352.1 381.738 351.778C379.478 351.645 374.96 350.956 373.459 349.244L375.814 348.675C374.78 347.897 374.139 347.933 372.875 347.755C373.991 347.357 375.63 347.516 376.831 347.475Z"/>
	<path fill="#787878" d="M279.742 338.936C279.958 339.149 279.992 339.15 280.124 339.518C280.851 341.539 279.244 360.524 278.973 364.331C278.041 377.449 276.697 394.96 271.296 406.903C264.494 421.945 247.574 427.547 238.082 440.5C233.458 446.81 230.877 453.848 228.372 461.174C227.047 459.552 227.298 456.795 227.43 454.818C228.715 435.676 242.567 424.779 255.619 413.187C260.497 408.854 265.176 404.051 268.25 398.229C274.481 386.426 278.965 352.644 279.742 338.936Z"/>
	<path fill="#787878" d="M443.124 105.264C451.947 101.1 473.671 93.0693 483.099 92.8217C459.224 105.201 445.062 116.028 425.908 134.897C421.202 139.533 416.01 144.129 411.875 149.267L411.716 150.289C409.662 153.126 393.051 165.602 388.656 169.585C372.401 184.315 357.541 200.682 341.028 215.05C343.392 208.562 345.934 202.268 349.369 196.26C361.406 175.199 390.86 140.141 410.208 125.037C420.367 117.106 431.522 110.801 443.124 105.264Z"/>
	<path fill="#787878" d="M483.099 92.8217C520.06 81.1697 553.848 84.7682 588.022 102.465Q588.819 102.876 589.604 103.31C604.255 109.586 622.202 129.222 631.868 142.212C633.862 144.892 636.852 148.534 637.849 151.75C638.107 152.584 637.994 153.441 637.914 154.29Q632.706 182.196 625.708 209.707C624.079 216.137 622.844 223.393 620.236 229.455L619.413 229.917C619.651 228.609 619.871 227.295 619.965 225.969Q620.028 225.025 620.045 224.08Q620.062 223.134 620.032 222.189Q620.002 221.244 619.926 220.302Q619.85 219.359 619.728 218.421Q619.606 217.484 619.438 216.553Q619.27 215.622 619.056 214.701Q618.843 213.78 618.584 212.87Q618.325 211.961 618.023 211.065Q617.72 210.169 617.373 209.289Q617.027 208.409 616.637 207.548Q616.248 206.686 615.817 205.844Q615.386 205.002 614.914 204.183Q614.442 203.363 613.931 202.568Q613.419 201.773 612.869 201.004Q612.319 200.234 611.732 199.493Q611.145 198.752 610.522 198.04C607.502 194.642 601.83 189.957 597.131 189.702C607.49 196.014 613.146 203.362 616.013 215.247Q616.394 216.839 616.69 218.448C618.577 223.889 617.593 233.215 615.199 238.39C614.229 240.49 612.32 243.793 610.166 244.836C609.551 244.126 609.695 244.537 609.722 243.607L610.267 241.618C610.155 237.229 610.361 232.316 608.179 228.37C606.284 223.541 603.743 219.396 599.769 215.986L599.35 213.097C592.665 208.482 583.989 207.598 576.142 209.08C516.002 220.439 485.781 328.462 413.969 348.251C408.722 349.697 403.288 350.119 397.891 350.663C401.057 345.472 409.344 341.964 411.082 336.328L410.4 335.582C411.938 333.39 418.347 329.682 420.769 327.763Q423.559 325.553 426.157 323.119Q428.755 320.685 431.143 318.045Q433.53 315.405 435.692 312.577Q437.853 309.748 439.773 306.751C451.185 298.5 466.57 253.53 472.228 239.965Q475.957 230.931 480.781 222.43C488.139 209.628 498.394 197.677 510.153 188.7C473.496 204.416 471.436 218.295 451.044 248.354C443.461 259.531 433.882 269.996 424.008 279.2C403.772 298.062 371.628 316.354 343.243 315.157C332.614 314.708 325.166 309.706 318.135 302.067C325.833 303.213 332.607 302.653 339.328 298.335C344.505 295.008 348.8 290.245 352.51 285.389C367.578 265.667 369.202 244.552 375.524 221.708C378.248 211.866 382.223 201.607 386.835 192.472C391.132 183.96 395.798 175.523 401.074 167.573C403.647 163.696 415.224 149.743 415.816 147.06L411.716 150.289L411.875 149.267C416.01 144.129 421.202 139.533 425.908 134.897C445.062 116.028 459.224 105.201 483.099 92.8217Z"/>
	<path fill="#030303" d="M599.35 213.097C605.75 217.925 610.127 223.467 611.254 231.626C611.722 235.018 611.616 238.429 610.267 241.618C610.155 237.229 610.361 232.316 608.179 228.37C606.284 223.541 603.743 219.396 599.769 215.986L599.35 213.097Z"/>
	<path fill="#B5B4B4" d="M590.252 163.202C593.473 162.855 597.097 162.951 600.245 163.711C609.169 165.866 614.49 172.823 618.927 180.276C609.292 174.394 599.174 171.781 588.056 170.483C575.07 170.231 563.691 172.461 551.152 175.499C563.933 169.921 576.177 164.467 590.252 163.202Z"/>
	<path fill="#B5B4B4" d="M539.025 187.825C551.017 184.37 573.58 183.311 585.522 185.735C589.503 186.543 593.308 188.361 597.131 189.702C607.49 196.014 613.146 203.362 616.013 215.247Q616.394 216.839 616.69 218.448C616.42 218.587 616.087 218.523 615.785 218.541C612.901 214.444 609.39 210.678 605.747 207.251C591.034 193.41 573.269 187.215 553.15 187.093C548.427 187.064 543.743 187.703 539.025 187.825Z"/>
	<path fill="#333332" d="M551.264 120.7C560.501 119.29 572.497 120.259 581.005 124.218C589.032 127.954 594.106 134.068 597.066 142.336C593.428 137.499 589.641 133.505 584.13 130.796C564.774 121.283 530.831 128.135 511.148 134.735C500.824 138.135 491.739 142.838 482.292 148.089C478.528 150.18 475.301 153.206 472.019 155.977L471.452 155.777C473.416 153.376 476.28 151.383 478.694 149.429Q482.389 146.427 486.301 143.713Q490.213 140.999 494.32 138.59Q498.426 136.18 502.703 134.089Q506.981 131.997 511.404 130.236C514.17 129.108 517.043 128.371 519.809 127.284C529.645 123.418 540.783 121.744 551.264 120.7Z"/>
	<path fill="#B5B4B4" d="M483.099 92.8217C520.06 81.1697 553.848 84.7682 588.022 102.465Q588.819 102.876 589.604 103.31C589.339 103.327 589.074 103.352 588.808 103.362C584.771 103.521 572.484 98.7289 567.69 97.4571C561.904 95.9221 555.847 94.6561 549.875 94.142C507.957 90.5329 471.664 108.265 437.961 131.036C431.468 135.423 421.441 141.405 416.064 146.742C415.968 146.836 415.899 146.954 415.816 147.06L411.716 150.289L411.875 149.267C416.01 144.129 421.202 139.533 425.908 134.897C445.062 116.028 459.224 105.201 483.099 92.8217Z"/>
	<path fill="#787878" d="M640.413 153.685C644.665 153.201 648.877 152.927 653.069 154.027C668.31 158.027 689.533 186.173 697.336 199.532C711.783 217.794 730.171 248.175 734.436 271.188C737.275 286.507 736.497 303.258 735.696 318.753C734.425 307.75 732.999 296.757 731.828 285.744C730.901 292.695 731.701 299.804 732.244 306.761C733.706 325.468 735.668 343.065 747.399 358.489C751.585 363.992 756.38 368.752 761.384 373.491C764.849 376.773 770.163 380.668 772.627 384.625C772.641 388.621 775.761 393.373 776.737 397.405C781.204 415.851 779.653 431.974 775.326 450.195C773.104 445.745 771.18 441.147 769.193 436.589C763.15 430.334 756.952 418.926 750.94 411.541C746.903 406.583 736.848 398.352 734.403 393.114C731.913 391.691 729.446 390.278 726.846 389.062C738.787 399.808 749.83 411.521 758.581 425.073C758.604 425.352 758.622 425.631 758.649 425.91C758.982 429.238 760.951 433.196 762.055 436.383C763.652 440.995 765.128 445.699 766.085 450.49C769.829 469.247 768.991 488.907 760.754 506.489C758.549 511.197 754.678 515.454 753.107 520.379C751.984 522.012 748.939 523.183 747.185 524.062L747.725 516.928C747.471 516.262 746.94 515.584 746.561 514.973C745.859 527.839 742.328 540.258 732.459 549.181C719.158 561.205 694.123 570.937 676.116 569.974C671.113 569.707 666.733 568.727 662.397 566.103C663.408 567.616 664.324 568.644 665.931 569.545C674.398 574.291 688.515 571.282 697.225 568.513C700.366 567.514 703.414 565.98 706.577 565.138L707.359 564.937C706.733 567.071 706.26 569.661 705.17 571.591L703.732 571.965L703.068 572.186C700.991 572.896 699.064 574.033 696.987 574.785C689.018 577.673 680.766 579.097 672.29 578.256C666.981 577.73 661.95 576.104 656.935 574.352C656.783 574.299 656.631 574.133 656.481 574.191C656.257 574.278 656.151 574.542 655.986 574.717L655.4 578.078C654.07 580.195 654.049 584.682 654.546 587.101C655.586 592.159 658.574 595.245 662.331 598.437C656.75 604.188 653.056 607.888 644.545 608.054C638.433 608.173 629.392 605.925 625.023 601.439C624.435 600.836 624.008 600.09 623.585 599.369C623.549 599.309 623.511 599.25 623.474 599.191C628.816 591.773 633.059 584.211 636.821 575.884C638.828 568.913 640.834 562.138 642.135 554.983C644.511 541.922 645.626 528.631 648.655 515.685C653.712 494.073 663.224 473.253 665.332 451C666.522 438.44 664.847 427.809 661.838 415.681C656.701 405.569 652.92 371.198 650.556 358.464C648.491 347.342 645.372 337.325 641.251 326.813L640.23 324.884C637.317 321.594 634.95 316.571 632.616 312.753C623.449 297.754 611.962 281.725 607.174 264.687C605.425 258.463 605.877 253.118 609.089 247.487L609.288 247.156C611.979 246.859 614.416 245.73 616.916 244.741C623.702 238.258 628.392 228.393 631.975 219.856C638.934 203.273 647.31 170.64 640.413 153.685Z"/>
	<path fill="#171713" d="M747.134 499.408C747.755 504.792 748.607 511.591 747.725 516.928C747.471 516.262 746.94 515.584 746.561 514.973C746.508 513.634 746.568 512.327 745.99 511.09L745.169 511.407C744.97 509.3 745.338 506.865 745.364 504.716C746.821 502.922 746.932 501.673 747.134 499.408Z"/>
	<path fill="#353F40" d="M734.403 393.114C749.829 400.326 761.834 414.841 767.572 430.72C768.267 432.642 768.912 434.558 769.193 436.589C763.15 430.334 756.952 418.926 750.94 411.541C746.903 406.583 736.848 398.352 734.403 393.114Z"/>
	<path fill="#B5B4B4" d="M670.322 186.473C679.948 189.994 688.599 194.187 697.336 199.532C711.783 217.794 730.171 248.175 734.436 271.188C737.275 286.507 736.497 303.258 735.696 318.753C734.425 307.75 732.999 296.757 731.828 285.744C732.132 284.129 731.436 281.596 731.06 279.99C725.801 257.511 715.3 249.188 696.438 237.655Q696.994 238.206 697.542 238.766C709.135 250.615 718.381 270.189 721.423 286.4C722.459 291.917 722.643 297.307 722.576 302.907C719.872 295.117 717.115 287.265 712.842 280.171C706.186 269.123 696.311 258.641 682.522 258.317C676.244 258.169 669.944 258.781 663.797 257.138C652.809 254.2 646.315 245.175 640.988 235.787C650.038 242.032 661.278 246.815 672.526 245.525C676.049 245.121 679.586 243.767 681.757 240.833C683.575 238.377 684.008 235.228 683.448 232.273C681.584 222.436 672.773 216.391 665.117 211.119C671.857 212.912 679.225 215.701 686.201 215.897C687.954 215.946 689.505 215.895 690.798 214.648C690.878 213.915 690.96 213.201 690.928 212.462C690.453 201.493 677.689 192.981 670.322 186.473Z"/>
	<path fill="#353F40" d="M609.288 247.156C611.979 246.859 614.416 245.73 616.916 244.741C618.548 275.474 658.457 325.125 680.823 345.247C686.023 349.925 691.394 353.964 697.416 357.506C697.986 357.841 698.999 358.191 699.172 358.812C688.622 360.441 674.429 351.441 666.215 345.817C672.115 356.988 678.513 368.056 685.996 378.253C689.512 383.044 693.474 387.444 697.077 392.151C684.264 386.258 674.88 375.654 666.024 364.969C669.548 384.477 675.999 404.879 685.924 422.058C693.659 435.447 704.437 446.903 713.28 459.53C727.948 480.477 737.863 505.687 721.917 528.784C718.134 534.264 713.749 539.191 708.586 543.396C712.546 540.922 716.733 538.9 720.694 536.466C730.532 530.418 736.791 521.326 742.232 511.425C742.992 516.906 738.171 525.578 734.914 529.946C728.759 538.203 719.194 544.051 709.711 547.718C706.829 548.833 703.617 549.574 700.834 550.843C692.021 551.085 687.565 552.689 677.884 551.854C684 549.233 694.441 544.246 698.727 539.321C707.005 534.484 715.253 524.049 718.376 514.993Q718.846 513.625 719.208 512.225Q719.772 510.048 720.069 507.818Q720.366 505.588 720.391 503.339C720.49 486.41 704.508 475.137 693.846 464.111Q690.721 460.926 687.97 457.412Q685.22 453.898 682.878 450.099C668.98 427.802 662.771 399.252 657.731 373.731C655.082 360.314 653.069 346.026 646.955 333.682C645.573 330.89 643.236 325.897 640.23 324.884C637.317 321.594 634.95 316.571 632.616 312.753C623.449 297.754 611.962 281.725 607.174 264.687C605.425 258.463 605.877 253.118 609.089 247.487L609.288 247.156Z"/>
	<path fill="#171713" d="M640.23 324.884C643.236 325.897 645.573 330.89 646.955 333.682C653.069 346.026 655.082 360.314 657.731 373.731C662.771 399.252 668.98 427.802 682.878 450.099Q685.22 453.898 687.97 457.412Q690.721 460.926 693.846 464.111C704.508 475.137 720.49 486.41 720.391 503.339Q720.366 505.588 720.069 507.818Q719.772 510.048 719.208 512.225Q718.846 513.625 718.376 514.993C715.253 524.049 707.005 534.484 698.727 539.321C694.441 544.246 684 549.233 677.884 551.854C687.565 552.689 692.021 551.085 700.834 550.843C703.617 549.574 706.829 548.833 709.711 547.718C719.194 544.051 728.759 538.203 734.914 529.946C738.171 525.578 742.992 516.906 742.232 511.425L744.503 501.867C744.564 498.188 745.462 494.216 745.965 490.551L747.134 499.408C746.932 501.673 746.821 502.922 745.364 504.716C745.338 506.865 744.97 509.3 745.169 511.407L745.99 511.09C746.568 512.327 746.508 513.634 746.561 514.973C745.859 527.839 742.328 540.258 732.459 549.181C719.158 561.205 694.123 570.937 676.116 569.974C671.113 569.707 666.733 568.727 662.397 566.103C663.408 567.616 664.324 568.644 665.931 569.545C674.398 574.291 688.515 571.282 697.225 568.513C700.366 567.514 703.414 565.98 706.577 565.138L707.359 564.937C706.733 567.071 706.26 569.661 705.17 571.591L703.732 571.965L703.068 572.186C700.991 572.896 699.064 574.033 696.987 574.785C689.018 577.673 680.766 579.097 672.29 578.256C666.981 577.73 661.95 576.104 656.935 574.352C656.783 574.299 656.631 574.133 656.481 574.191C656.257 574.278 656.151 574.542 655.986 574.717L655.4 578.078C654.07 580.195 654.049 584.682 654.546 587.101C655.586 592.159 658.574 595.245 662.331 598.437C656.75 604.188 653.056 607.888 644.545 608.054C638.433 608.173 629.392 605.925 625.023 601.439C624.435 600.836 624.008 600.09 623.585 599.369C623.549 599.309 623.511 599.25 623.474 599.191C628.816 591.773 633.059 584.211 636.821 575.884C638.828 568.913 640.834 562.138 642.135 554.983C644.511 541.922 645.626 528.631 648.655 515.685C653.712 494.073 663.224 473.253 665.332 451C666.522 438.44 664.847 427.809 661.838 415.681C656.701 405.569 652.92 371.198 650.556 358.464C648.491 347.342 645.372 337.325 641.251 326.813L640.23 324.884Z"/>
	<path fill="#030303" d="M744.503 501.867C744.564 498.188 745.462 494.216 745.965 490.551L747.134 499.408C746.932 501.673 746.821 502.922 745.364 504.716C745.338 506.865 744.97 509.3 745.169 511.407C743.865 523.135 738.084 534.208 730.148 542.811C723.344 551.785 709.854 556.999 699.048 558.479C688.935 559.865 677.889 558.407 668.389 554.697C672.416 553.72 678.759 556.705 682.951 557.239C695.613 558.85 709.441 556.333 720.009 548.955C723.38 546.602 726.233 543.368 729.541 540.828C731.982 538.286 733.719 535.68 735.396 532.572L734.975 532.869C732.238 534.835 729.856 537.2 727.167 539.225C720.266 544.421 710.01 550.464 701.213 551.21L700.834 550.843C703.617 549.574 706.829 548.833 709.711 547.718C719.194 544.051 728.759 538.203 734.914 529.946C738.171 525.578 742.992 516.906 742.232 511.425L744.503 501.867Z"/>
	<path fill="#353F40" d="M745.169 511.407L745.99 511.09C746.568 512.327 746.508 513.634 746.561 514.973C745.859 527.839 742.328 540.258 732.459 549.181C719.158 561.205 694.123 570.937 676.116 569.974C671.113 569.707 666.733 568.727 662.397 566.103C661.106 562.212 662.457 556.768 663.36 552.83C665.01 553.517 666.706 554.095 668.389 554.697C677.889 558.407 688.935 559.865 699.048 558.479C709.854 556.999 723.344 551.785 730.148 542.811C738.084 534.208 743.865 523.135 745.169 511.407Z"/>
	<path fill="#030303" d="M640.23 324.884C643.236 325.897 645.573 330.89 646.955 333.682C653.069 346.026 655.082 360.314 657.731 373.731C662.771 399.252 668.98 427.802 682.878 450.099Q685.22 453.898 687.97 457.412Q690.721 460.926 693.846 464.111C704.508 475.137 720.49 486.41 720.391 503.339Q720.366 505.588 720.069 507.818Q719.772 510.048 719.208 512.225Q718.846 513.625 718.376 514.993C715.253 524.049 707.005 534.484 698.727 539.321C698.929 537.087 703.872 533.497 705.598 531.792C712.786 524.694 718.144 515.104 718.183 504.821C718.243 488.742 706.979 479.662 696.431 469.419C692.359 465.466 688.67 461.101 684.677 457.057C687.195 464.258 689.223 472.083 687.269 479.658L687.018 478.963L687.014 479.643C688.346 474.377 686.747 468.78 686.311 463.448C684.944 466.186 687.281 473.072 685.738 476.417L685.423 475.128L685.158 475.129Q685.057 476.144 684.906 477.152Q684.755 478.161 684.555 479.161Q684.354 480.161 684.105 481.15Q683.856 482.138 683.559 483.114Q683.261 484.089 682.916 485.049Q682.571 486.009 682.18 486.95Q681.788 487.892 681.351 488.813Q680.913 489.734 680.431 490.633Q679.949 491.531 679.423 492.405Q678.898 493.279 678.33 494.126Q677.762 494.973 677.153 495.791Q676.544 496.609 675.896 497.396Q675.247 498.183 674.561 498.938Q673.875 499.692 673.153 500.412Q672.43 501.132 671.673 501.815Q670.917 502.499 670.127 503.144C665.642 506.784 661.099 508.199 655.477 509.058L654.62 509.47C653.911 508.689 653.944 508.622 654.006 507.598C654.149 505.254 658.995 487.511 660.34 486.572C660.697 486.322 661.549 485.907 661.959 485.699C661.436 485.415 660.902 485.347 660.758 484.712C660.058 481.62 663.186 475.017 663.965 471.704C666.356 461.539 670.306 440.031 666.511 430.273C666.115 429.254 665.94 428.181 665.75 427.108C665.278 429.221 665.934 431.692 666.312 433.811C667.792 442.098 666.137 452.895 664.646 461.077C661.149 480.261 653.528 498.536 649.133 517.537C644.663 536.861 644.369 557.018 637.679 575.871L636.821 575.884C638.828 568.913 640.834 562.138 642.135 554.983C644.511 541.922 645.626 528.631 648.655 515.685C653.712 494.073 663.224 473.253 665.332 451C666.522 438.44 664.847 427.809 661.838 415.681C656.701 405.569 652.92 371.198 650.556 358.464C648.491 347.342 645.372 337.325 641.251 326.813L640.23 324.884Z"/>
	<path fill="#353F40" d="M677.857 446.555C683.571 457.243 685.591 462.84 685.423 475.128L685.158 475.129L684.866 472.807L684.296 472.577C680.708 475.643 679.524 478.193 674.533 478.868C675.982 477.429 677.373 475.935 678.399 474.154C682.877 466.385 680.012 454.651 677.857 446.555Z"/>
	<path fill="#617072" d="M674.533 478.868C679.524 478.193 680.708 475.643 684.296 472.577L684.866 472.807L685.158 475.129Q685.057 476.144 684.906 477.152Q684.755 478.161 684.555 479.161Q684.354 480.161 684.105 481.15Q683.856 482.138 683.559 483.114Q683.261 484.089 682.916 485.049Q682.571 486.009 682.18 486.95Q681.788 487.892 681.351 488.813Q680.913 489.734 680.431 490.633Q679.949 491.531 679.423 492.405Q678.898 493.279 678.33 494.126Q677.762 494.973 677.153 495.791Q676.544 496.609 675.896 497.396Q675.247 498.183 674.561 498.938Q673.875 499.692 673.153 500.412Q672.43 501.132 671.673 501.815Q670.917 502.499 670.127 503.144C665.642 506.784 661.099 508.199 655.477 509.058C655.151 508.877 654.939 508.541 654.682 508.27C655.204 501.547 658.395 493.806 660.448 487.361C665.474 485.062 669.967 481.945 674.533 478.868Z"/>
	<defs>
		<linearGradient id="gradient_1" gradientUnits="userSpaceOnUse" x1="681.37482" y1="396.51138" x2="629.26337" y2="428.71219">
			<stop offset="0" stop-color="#444544"/>
			<stop offset="1" stop-color="#5E5B5C"/>
		</linearGradient>
	</defs>
	<path fill="url(#gradient_1)" d="M641.251 326.813C645.802 331.231 648.04 339.079 649.841 345.011C655.077 362.257 656.571 380.784 660.904 398.315Q664.368 412.39 669.064 426.103C671.536 433.1 674.529 440.03 676.628 447.141C678.168 452.36 679.121 457.832 679.176 463.281C679.225 468.125 678.376 472.11 674.845 475.641C671.089 479.396 665.666 482.448 661.096 485.141C667.017 464.774 673.582 437.379 663.324 417.519C662.948 416.792 662.413 416.253 661.838 415.681C656.701 405.569 652.92 371.198 650.556 358.464C648.491 347.342 645.372 337.325 641.251 326.813Z"/>
	<path fill="#B5B4B4" d="M609.089 247.487C605.877 253.118 605.425 258.463 607.174 264.687C611.962 281.725 623.449 297.754 632.616 312.753C634.95 316.571 637.317 321.594 640.23 324.884L641.251 326.813C645.372 337.325 648.491 347.342 650.556 358.464C652.92 371.198 656.701 405.569 661.838 415.681C664.847 427.809 666.522 438.44 665.332 451C663.224 473.253 653.712 494.073 648.655 515.685C645.626 528.631 644.511 541.922 642.135 554.983C640.834 562.138 638.828 568.913 636.821 575.884C633.059 584.211 628.816 591.773 623.474 599.191C616.02 609.002 607.978 618.175 599.81 627.389C584.509 644.652 568.629 663.544 545.868 670.829C534.201 675.038 519.996 675.573 507.741 674.433C475.869 671.468 452.356 649.12 430.611 627.801C422.503 619.853 414.165 612.034 406.958 603.24C382.645 573.578 376.432 526.449 367.621 489.763C365.149 479.47 360.069 466.067 359.761 455.733C359.613 450.764 363.513 438.349 364.272 432.266C366.171 417.029 366.493 401.712 367.997 386.45C375.394 386.392 382.781 386.003 390.085 384.762C397.442 383.512 404.965 381.31 412.453 381.273C423.122 381.221 432.887 386.222 443.108 388.591C452.477 390.764 462.131 391.84 471.591 393.617C469.126 391.511 466.648 388.633 464.922 385.897C468.428 388.625 471.322 391.993 474.12 395.417C473.241 392.939 471.398 390.695 471.024 388.109C461.202 380.157 445.96 376.134 433.943 372.487C443.256 367.397 451.355 360.93 459.602 354.317C460.991 354.288 461.835 354.278 463.116 353.661C466.446 353.341 469.772 352.717 473.022 351.941C494.037 346.924 509.118 331.19 517.904 312.02C521.384 304.427 523.807 296.319 527.013 288.6Q532.76 274.731 540.56 261.903C555.572 254.704 570.583 250.428 587.212 249.08C594.276 248.507 601.459 248.475 608.482 247.569L609.089 247.487Z"/>
	<path fill="#333332" d="M568.341 576.22L569.249 574.095C570.417 574.021 570.944 574.095 571.917 574.917C572.948 575.789 573.297 576.803 573.533 578.074L573.162 579.135C571.386 579.775 570.113 579.123 568.453 578.403L568.341 576.22Z"/>
	<path fill="#787878" d="M531.382 521.065C533.417 520.063 535.927 518.739 538.224 519.681Q538.446 519.773 538.657 519.888Q538.869 520.002 539.067 520.138Q539.266 520.273 539.449 520.428Q539.633 520.583 539.799 520.756Q539.966 520.929 540.114 521.118Q540.263 521.307 540.391 521.511Q540.519 521.714 540.625 521.929Q540.732 522.145 540.816 522.37C541.374 523.871 541.12 525.605 540.316 526.965C539.464 528.407 538.069 529.13 536.559 529.713L536.418 528.17C536.971 528.015 537.512 527.745 538.041 527.524L538.434 526.55C538.06 525.89 537.731 525.364 537.093 524.923C535.025 523.495 533.552 523.545 531.183 524.016L531.382 521.065Z"/>
	<path fill="#353F40" d="M561.801 402.665C556.151 406.706 552.613 410.983 549.125 416.929L548.963 416.524C549.488 411.036 561.455 397.664 565.556 393.59L569.144 395.45C567.242 396.925 563.912 398.915 563.204 401.276L561.801 402.665Z"/>
	<defs>
		<linearGradient id="gradient_2" gradientUnits="userSpaceOnUse" x1="506.75363" y1="431.95135" x2="494.74637" y2="428.04865">
			<stop offset="0" stop-color="#1F1E19"/>
			<stop offset="1" stop-color="#3C3C41"/>
		</linearGradient>
	</defs>
	<path fill="url(#gradient_2)" d="M497.233 411.509C504.134 425.3 504.442 439.61 503.901 454.681C502.415 448.432 502.233 441.494 501.235 435.099C500.109 427.883 496.984 418.59 497.233 411.509Z"/>
	<path fill="#787878" d="M408.644 424.355C413.984 428.463 419.015 430.37 425.524 431.871L426.265 431.536L426.28 431.217C435.242 432.58 442.026 432.338 450.967 430.827L450.793 432.128C445.431 436.482 434.055 436.533 427.515 435.866C426.093 435.721 424.749 435.639 423.417 435.082C423.213 434.677 422.898 434.322 422.625 433.96C419.244 433.717 416.343 432.556 413.558 430.622C411.628 429.281 409.084 426.716 408.644 424.355Z"/>
	<path fill="#9A9798" d="M518.085 540.309C518.642 545.071 522.773 563.672 520.025 566.777C519.507 567.363 518.795 567.562 518.032 567.66C517.385 567.744 516.204 567.549 515.821 567.026C513.762 564.219 514.341 547.781 513.94 543.387C515.531 542.745 516.803 541.43 518.085 540.309Z"/>
	<path fill="#787878" d="M535.199 399.465C535.287 400.101 535.319 399.855 535.144 400.469C533.469 406.364 531.6 412.583 531.022 418.699C530.518 424.039 530.228 449.427 529.383 451.716L529.028 450.924Q527.96 447.153 527.281 443.293Q526.603 439.432 526.32 435.523C525.49 423.534 526.983 408.92 535.199 399.465Z"/>
	<path fill="#D8D6D6" d="M519.768 424.871C520.145 429.453 518.955 434.641 518.633 439.255C518.404 442.522 518.798 445.923 519.052 449.189Q520.528 467.15 523.031 484.996C523.854 490.88 526.334 500.587 525.957 506.204L525.477 506.137C524.77 504.635 524.127 503.125 523.603 501.549C518.012 484.738 512.082 440.31 519.768 424.871Z"/>
	<defs>
		<linearGradient id="gradient_3" gradientUnits="userSpaceOnUse" x1="605.23743" y1="434.75278" x2="590.51953" y2="420.00745">
			<stop offset="0" stop-color="#6B6A69"/>
			<stop offset="1" stop-color="#888486"/>
		</linearGradient>
	</defs>
	<path fill="url(#gradient_3)" d="M610.433 422.6C612.585 420.846 614.52 419.021 615.819 416.541C615.985 416.656 616.148 416.777 616.318 416.888C617.088 417.39 617.87 417.718 618.713 418.072C619.18 420.657 616.855 423.857 615.422 425.965C611.214 432.153 603.66 436.236 596.397 437.568Q594.965 437.843 593.516 438.002Q592.066 438.16 590.608 438.202Q589.151 438.243 587.695 438.168Q586.239 438.091 584.793 437.898Q583.348 437.705 581.923 437.397Q580.498 437.088 579.102 436.665Q577.707 436.242 576.35 435.709Q574.993 435.175 573.683 434.534C575.966 433.862 581.225 433.297 582.841 431.909C581.965 431.545 581.108 431.285 580.192 431.039C592.189 431.503 600.682 429.804 610.433 422.6Z"/>
	<path fill="#D8D6D6" d="M591.629 270.487C593.518 270.747 594.848 271.248 596.125 272.681C600.893 278.036 608.247 297.608 607.738 304.589C607.553 307.123 606.44 309.565 604.387 311.114C600.981 313.686 596.773 313.128 592.82 312.681C585.807 310.558 579.919 307.686 576.066 301.116C575.899 298.561 575.907 296.058 576.508 293.555C578.562 285.006 584.099 275.214 591.629 270.487Z"/>
	<path fill="#030303" d="M569.656 388.183C567.11 388.79 564.552 389.391 561.966 389.802C558.95 390.282 547.977 392.08 545.827 390.51C546.979 387.159 549.411 384.059 551.688 381.379C565.418 376.271 598.404 359.518 611.626 361.883C622.568 363.839 641.517 378.175 647.708 387.242C640.28 382.407 632.556 376.515 624.256 373.355C609.025 367.554 593.905 377.017 580.306 383.146C576.665 384.229 573.377 386.817 569.656 388.183Z"/>
	<path fill="#030303" d="M569.656 388.183C573.377 386.817 576.665 384.229 580.306 383.146C600.806 385.107 615.23 386.606 631.223 400.851C632.582 402.395 634.516 404.587 634.046 406.866C633.991 407.13 633.831 407.36 633.724 407.608C632.561 410.775 630.431 413.292 627.275 414.635C624.46 415.832 621.274 416.341 618.242 416.384C617.458 416.395 616.576 416.364 615.819 416.541C614.52 419.021 612.585 420.846 610.433 422.6C600.682 429.804 592.189 431.503 580.192 431.039C574.926 430.559 569.855 429.175 564.644 428.359C561.185 427.818 557.758 428.027 554.307 427.289L555.013 427.06C553.534 426.547 552.103 425.935 550.662 425.326C551.089 421.131 553.102 418.5 555.353 415.053L555.694 414.404C556.688 410.819 557.716 408.212 560.157 405.296C560.91 404.397 561.433 403.804 561.801 402.665L563.204 401.276C563.912 398.915 567.242 396.925 569.144 395.45L565.556 393.59C567.21 392.086 568.913 390.664 570.236 388.848L569.656 388.183Z"/>
	<path fill="#787878" d="M587.084 392.118C588.35 392.009 589.461 391.836 590.688 392.275C589.376 393.584 587.322 394.208 585.634 394.961C584.509 394.882 583.595 394.75 582.523 394.397L582.229 393.707C583.72 392.551 585.26 392.422 587.084 392.118Z"/>
	<path fill="#787878" d="M613.031 398.216L617.422 401.109C616.025 402.027 614.429 403.363 612.751 403.535C612.063 403.167 611.792 403.068 611.35 402.403C611.684 400.978 612.417 399.546 613.031 398.216Z"/>
	<path fill="#575556" d="M593.267 391.46C593.869 391.56 594.723 391.634 595.312 391.85C596.521 392.293 596.586 392.661 597.146 393.749L596.74 394.95C595.233 396.086 594.681 395.954 592.842 396.075C591.782 396.095 590.938 396.003 589.907 395.756Q590.638 395.286 591.359 394.799C592.975 393.688 592.932 393.364 593.267 391.46Z"/>
	<path fill="#787878" d="M617.579 401.7C617.755 401.748 617.937 401.777 618.107 401.844C619.33 402.328 620.433 403.131 620.963 404.341C620.748 405.903 620.242 406.001 619.075 406.999C618.486 407.008 618.136 407.038 617.527 406.921C616.337 406.693 615.744 406.168 615.202 405.155C615.643 403.302 616.232 402.993 617.579 401.7Z"/>
	<path fill="#FEFDFD" d="M554.352 421.267C556.308 423.146 558.209 424.431 560.535 425.786C558.905 426.592 556.823 427.016 555.013 427.06C553.534 426.547 552.103 425.935 550.662 425.326L554.352 421.267Z"/>
	<path fill="#9A9798" d="M558.833 408.578C561.358 406.681 564.659 403.801 567.913 403.667C563.958 407.457 556.571 413.17 555.375 418.506C555.323 418.737 555.125 419.303 555.034 419.57L554.66 419.699C554.274 417.873 555.245 416.856 555.353 415.053L555.694 414.404C557.634 412.927 558.065 410.783 558.833 408.578Z"/>
	<path fill="#FEFDFD" d="M587.702 407.437C588.813 407.507 590.07 407.521 591.144 407.808C592.424 408.15 592.754 408.761 593.265 409.887C593.033 411.559 592.254 412.483 591.273 413.782C590.122 413.917 588.522 414.017 587.458 413.384C586.32 412.707 586.245 412.242 585.864 411.062C586.094 409.379 586.649 408.677 587.702 407.437Z"/>
	<path fill="#787878" d="M631.223 400.851C632.582 402.395 634.516 404.587 634.046 406.866C633.991 407.13 633.831 407.36 633.724 407.608L633.153 407.405C631.277 409.563 628.355 412.086 625.391 412.537C623.991 412.75 623.753 412.568 622.705 411.783C623.188 410.95 622.917 411.185 623.687 410.699C625.345 409.652 626.63 408.711 628.021 407.311L628.464 406.856C630.456 404.779 631.029 403.767 631.223 400.851Z"/>
	<path fill="#617072" d="M611.35 402.403C609.957 401.55 608.109 401.447 607.366 399.986C607.79 398.611 607.984 397.794 607.839 396.328L607.382 396.091C606.774 396.757 606.195 397.415 605.644 398.131C605.491 398.33 605.342 398.532 605.191 398.733L603.83 398.917C602.383 398.408 601.323 397.868 600.176 396.823C599.126 395.866 598.622 394.982 598.581 393.572L599.139 393.102C603.44 392.632 609.65 395.703 613.031 398.216C612.417 399.546 611.684 400.978 611.35 402.403Z"/>
	<path fill="#D8D6D6" d="M560.988 424.953C560.634 424.683 560.275 424.419 559.942 424.125C558.859 423.171 557.64 421.745 557.718 420.217C557.893 416.796 562.35 413.668 564.66 411.548C564.334 416.269 564.619 420.525 565.373 425.189C565.471 425.795 565.459 426.307 565.376 426.913L560.988 424.953Z"/>
	<path fill="#787878" d="M563.204 401.276C568.191 398.314 574.477 393.888 580.449 393.927L580.461 394.64C576.938 398.179 571.952 400.67 567.913 403.667C564.659 403.801 561.358 406.681 558.833 408.578C558.065 410.783 557.634 412.927 555.694 414.404C556.688 410.819 557.716 408.212 560.157 405.296C560.91 404.397 561.433 403.804 561.801 402.665L563.204 401.276Z"/>
	<path fill="#FEFDFD" d="M564.66 411.548L570.176 406.275L570.177 405.938L570.458 406.403L571.045 405.769C571.572 412.948 568.535 417.953 575.187 423.917C578.215 426.631 582.595 428.521 586.712 428.109C590.595 427.721 593.917 425.493 596.254 422.431C599.399 418.309 599.957 413.941 599.149 408.972Q598.998 408.068 598.797 407.173C603.831 409.59 608.372 412.401 612.95 415.581L609.868 420.038C602.697 426.854 594.274 430.155 584.323 429.919C577.989 429.769 571.572 428.159 565.376 426.913C565.459 426.307 565.471 425.795 565.373 425.189C564.619 420.525 564.334 416.269 564.66 411.548Z"/>
	<defs>
		<linearGradient id="gradient_4" gradientUnits="userSpaceOnUse" x1="571.97693" y1="382.67929" x2="627.19873" y2="409.30893">
			<stop offset="0" stop-color="#646162"/>
			<stop offset="1" stop-color="#838282"/>
		</linearGradient>
	</defs>
	<path fill="url(#gradient_4)" d="M569.656 388.183C573.377 386.817 576.665 384.229 580.306 383.146C600.806 385.107 615.23 386.606 631.223 400.851C631.029 403.767 630.456 404.779 628.464 406.856C624.501 408.035 620.662 409.551 616.656 410.601L624.347 405.833C618.361 398.764 610.847 393.086 601.84 390.579C590.696 387.478 579.094 389.895 569.144 395.45L565.556 393.59C567.21 392.086 568.913 390.664 570.236 388.848L569.656 388.183Z"/>
	<path fill="#BE0B08" d="M517.316 571.643L517.83 571.353C524.103 567.771 526.053 564.288 533.935 566.346C545.473 569.357 556.409 574.619 568.341 576.22L568.453 578.403L564.946 582.115C556.886 592.453 548.62 602.185 536.697 608.211C529.338 611.219 521.41 612.324 513.491 611.972C491.248 610.984 479.765 598.842 465.579 583.248L464.628 582.788C460.7 579.862 455.55 578.711 451.944 575.433L451.927 574.686L452.808 574.304C455.562 574.617 458.124 575.932 460.662 576.996C474.298 576.593 486.71 569.589 499.47 565.593C506.287 565.463 511.25 569.225 517.316 571.643Z"/>
	<path fill="#FEFDFD" d="M538.06 590.945C539.154 590.816 539.687 590.892 540.708 591.305C540.716 592.238 540.888 592.104 540.412 592.722C538.882 594.703 536.933 594.708 534.623 594.917C533.924 594.91 533.223 594.8 532.528 594.724L532.252 594.088C533.887 592.576 536.044 591.835 538.06 590.945Z"/>
	<path fill="#700101" d="M464.628 582.788C460.7 579.862 455.55 578.711 451.944 575.433L451.927 574.686L452.808 574.304C455.562 574.617 458.124 575.932 460.662 576.996C462.221 579.329 466.453 580.347 469.129 580.857C471.11 581.234 473.138 581.405 475.144 581.588C476.892 582.639 484.913 583.987 487.212 584.139C485.821 585.134 483.795 585.003 482.129 585.119C478.642 585.026 468.09 582.521 466.772 582.685C466.335 582.739 465.977 583.06 465.579 583.248L464.628 582.788Z"/>
	<path fill="#880201" d="M475.144 581.588C484.673 580.872 493.897 581.136 503.383 579.291C507.068 580.731 510.855 582.269 514.076 584.61C516.02 584.416 517.665 583.857 519.502 583.211L520.214 584.607C519.79 585.542 519.771 585.694 518.715 586.013C516.676 586.63 514.421 586.224 512.405 586.951C509.219 586.478 506.085 586.101 502.87 585.907C499.803 586.219 484.259 586.038 482.129 585.119C483.795 585.003 485.821 585.134 487.212 584.139C484.913 583.987 476.892 582.639 475.144 581.588Z"/>
	<path fill="#700101" d="M519.502 583.211L520.214 584.607C519.79 585.542 519.771 585.694 518.715 586.013C516.676 586.63 514.421 586.224 512.405 586.951C509.219 586.478 506.085 586.101 502.87 585.907C502.029 585.296 500.57 585.417 499.528 585.324L499.603 584.977C502.489 583.637 510.032 585.493 514.076 584.61C516.02 584.416 517.665 583.857 519.502 583.211Z"/>
	<path fill="#880201" d="M519.502 583.211C528.086 577.32 541.748 581.351 551.532 580.961C555.535 580.801 559.491 579.355 563.308 579.31L563.677 579.906L562.987 581.059C560.12 582.586 557.42 583.625 554.245 584.322C547.494 585.804 519.123 588.645 512.993 587.134C512.794 587.085 512.601 587.012 512.405 586.951C514.421 586.224 516.676 586.63 518.715 586.013C519.771 585.694 519.79 585.542 520.214 584.607L519.502 583.211Z"/>
	<defs>
		<linearGradient id="gradient_5" gradientUnits="userSpaceOnUse" x1="510.00732" y1="406.23859" x2="409.72244" y2="634.78503">
			<stop offset="0" stop-color="#6F6E6E"/>
			<stop offset="1" stop-color="#858686"/>
		</linearGradient>
	</defs>
	<path fill="url(#gradient_5)" d="M367.997 386.45C375.394 386.392 382.781 386.003 390.085 384.762C397.442 383.512 404.965 381.31 412.453 381.273C423.122 381.221 432.887 386.222 443.108 388.591C452.477 390.764 462.131 391.84 471.591 393.617C469.126 391.511 466.648 388.633 464.922 385.897C468.428 388.625 471.322 391.993 474.12 395.417C473.241 392.939 471.398 390.695 471.024 388.109C479.408 392.009 493.992 402.707 497.233 411.509C496.984 418.59 500.109 427.883 501.235 435.099C502.233 441.494 502.415 448.432 503.901 454.681L503.918 455.364C504.056 463.351 503.522 471.969 501.114 479.614C495.821 496.42 484.185 505.214 500.664 521.677C504.385 525.395 509.02 528.214 514.431 528.128C520.437 528.031 526.275 523.882 531.382 521.065L531.183 524.016C533.552 523.545 535.025 523.495 537.093 524.923C537.731 525.364 538.06 525.89 538.434 526.55L538.041 527.524C537.512 527.745 536.971 528.015 536.418 528.17L536.559 529.713C531.374 530.77 525.29 531.057 521.623 535.358C520.302 536.907 519.388 538.774 518.085 540.309C516.803 541.43 515.531 542.745 513.94 543.387C511.098 542.093 508.495 541.134 505.425 540.471C503.465 542.155 501.495 543.822 499.623 545.604C498.906 545.856 498.2 546.096 497.466 546.297C488.302 548.807 475.155 546.699 467.046 541.776C464.566 540.27 462.07 538.123 461.151 535.271C456.693 521.421 475.541 489.469 478.932 473.59C481.579 461.197 478.915 452.639 479.764 441.251C480.12 436.48 484.193 431.721 482.821 426.85C482.228 424.745 481.104 423.75 479.241 422.746L478.782 424.706C477.127 425.655 475.835 424.472 474.604 425.702L474.425 426.536C473.673 428.168 473.001 428.842 471.289 429.472C464.966 431.795 457.473 430.122 450.793 432.128L450.967 430.827C442.026 432.338 435.242 432.58 426.28 431.217L426.265 431.536L425.524 431.871C419.015 430.37 413.984 428.463 408.644 424.355C409.084 426.716 411.628 429.281 413.558 430.622C416.343 432.556 419.244 433.717 422.625 433.96C422.898 434.322 423.213 434.677 423.417 435.082L421.973 435.372C423.832 438.765 434.24 442.497 437.99 443.615C422.864 450.057 406.765 444.14 391.329 441.526C386.815 457.176 385.959 475.224 394.015 489.906C400.533 501.789 412.252 510.819 420.256 521.83C433.268 539.728 437.101 559.948 440.325 581.303C441.233 587.314 441.876 593.511 443.31 599.414C446.67 591.975 448.823 588.537 456.678 585.582Q459.548 584.482 462.524 583.718C463.39 583.489 463.893 583.277 464.628 582.788L465.579 583.248C479.765 598.842 491.248 610.984 513.491 611.972C521.41 612.324 529.338 611.219 536.697 608.211C541.974 615.167 546.199 622.771 549.942 630.644C535.465 624.247 520.395 618.864 504.724 624.811C497.905 627.398 491.764 632.32 488.855 639.145C486.827 643.903 486.65 649.392 488.749 654.16C491.302 659.958 496.642 663.342 502.382 665.447C512.684 669.224 524.861 669.281 535.582 667.561C539.211 666.979 542.98 665.844 546.64 665.791L546.028 666.194C545.651 667.668 545.043 668.967 545.366 670.481L545.868 670.829C534.201 675.038 519.996 675.573 507.741 674.433C475.869 671.468 452.356 649.12 430.611 627.801C422.503 619.853 414.165 612.034 406.958 603.24C382.645 573.578 376.432 526.449 367.621 489.763C365.149 479.47 360.069 466.067 359.761 455.733C359.613 450.764 363.513 438.349 364.272 432.266C366.171 417.029 366.493 401.712 367.997 386.45Z"/>
	<path fill="#030303" d="M531.183 524.016C533.552 523.545 535.025 523.495 537.093 524.923C537.731 525.364 538.06 525.89 538.434 526.55L538.041 527.524C537.512 527.745 536.971 528.015 536.418 528.17C532.203 528.227 528.057 528.864 523.962 529.837C526.234 527.462 528.306 525.608 531.183 524.016Z"/>
	<path fill="#030303" d="M496.566 531.171C495.204 531.007 493.446 530.919 492.416 529.897C491.456 528.946 491.589 528.394 491.662 527.17C492.472 526.231 493.107 525.457 494.436 525.319C496.972 525.055 500.333 527.276 502.216 528.879C502.77 529.352 503.116 529.908 503.502 530.514L503.312 531.186C502.76 531.138 502.125 531.131 501.586 531.013L496.566 531.171Z"/>
	<path fill="#333332" d="M496.566 531.171C496.971 529.8 496.998 529.224 498.075 528.246C499.319 528.369 499.914 528.744 500.726 529.733C501.126 530.219 501.277 530.503 501.586 531.013L496.566 531.171Z"/>
	<path fill="#030303" d="M408.644 424.355C408.113 423.4 407.749 422.266 407.331 421.251C405.527 419.583 401.603 420.02 399.267 419.017C397.43 418.227 396.821 417.069 396.178 415.299L396.591 414.73C398.254 414.615 399.766 415.484 401.388 415.233C400.325 413.817 399.334 412.379 398.374 410.893L398.568 410.207L400.615 410.765L401.254 410.357C401.15 409.504 401.02 408.632 400.993 407.773C400.958 406.632 400.942 406.201 401.79 405.36C402.849 406.129 402.294 405.832 403.437 406.278Q404.227 405.041 405.176 403.923C410.76 397.408 423.436 393.967 431.738 393.502C443.963 392.817 455.018 396.403 464.137 404.648C467.171 407.392 476.132 416.418 476.327 420.375L479.241 422.746L478.782 424.706C477.127 425.655 475.835 424.472 474.604 425.702L474.425 426.536C473.673 428.168 473.001 428.842 471.289 429.472C464.966 431.795 457.473 430.122 450.793 432.128L450.967 430.827C442.026 432.338 435.242 432.58 426.28 431.217L426.265 431.536L425.524 431.871C419.015 430.37 413.984 428.463 408.644 424.355Z"/>
	<path fill="#787878" d="M467.863 421.382C468.795 422.138 469.726 423.08 470.489 424.005C471.558 425.301 471.841 426.305 471.738 427.95C470.86 428.228 470.341 428.326 469.425 428.198C468.474 426.341 468.446 423.48 467.863 421.382Z"/>
	<path fill="#575556" d="M428.116 399.517L427.389 399.774C424.924 400.636 423.329 401.208 420.815 399.987L420.871 399.175C422.59 397.825 424.798 397.654 426.895 397.247L428.116 399.517Z"/>
	<path fill="#FEFDFD" d="M436.539 411.476C437.429 411.458 438.68 411.316 439.53 411.543C440.786 411.877 441.005 412.312 441.546 413.35C441.437 414.889 440.949 415.679 440.14 416.928C439.468 416.894 438.669 416.902 438.006 416.73C436.74 416.401 436.222 415.852 435.524 414.809C435.421 413.261 435.766 412.747 436.539 411.476Z"/>
	<defs>
		<linearGradient id="gradient_6" gradientUnits="userSpaceOnUse" x1="429.1521" y1="411.03412" x2="477.34796" y2="410.47171">
			<stop offset="0" stop-color="#646063"/>
			<stop offset="1" stop-color="#979796"/>
		</linearGradient>
	</defs>
	<path fill="url(#gradient_6)" d="M426.895 397.247C441.576 395.792 451.637 398.612 463.074 408.016C467.762 411.87 471.844 416.314 476.327 420.375L479.241 422.746L478.782 424.706C477.127 425.655 475.835 424.472 474.604 425.702L474.425 426.536C472.403 420.551 462.49 411.686 457.564 407.66C448.37 400.147 439.704 398.279 428.116 399.517L426.895 397.247Z"/>
	<path fill="#FEFDFD" d="M426.28 431.217C421.089 429.875 413.388 427.64 410.529 422.72C409.762 421.399 409.613 419.988 410.116 418.549C410.917 416.255 413.821 413.313 416.06 412.371C416.625 412.133 417.204 412.024 417.801 411.904L418.537 412.327C420.467 419.595 417.259 423.907 425.785 428.954C429.439 431.118 434.18 431.68 438.268 430.56C441.977 429.544 444.835 427.123 446.576 423.709C448.577 419.783 449.038 414.429 447.499 410.268C447.097 409.184 446.569 408.135 446.055 407.101C452.866 409.666 461.568 412.199 464.77 419.412C465.778 421.683 466.391 424.224 466.788 426.674C465.334 427.699 453.343 430.371 450.967 430.827C442.026 432.338 435.242 432.58 426.28 431.217Z"/>
	<path fill="#617072" d="M623.633 676.867L624.53 678.712C624.899 680.049 662.507 737.188 663.744 738.514C667.338 742.364 672.979 745.167 677.544 747.77C697.109 758.928 719.12 766.904 740.137 774.856C764.342 784.013 788.488 792.923 813.128 800.865C839.769 809.452 878.357 817.321 900.509 833.702C916.608 845.607 926.239 862.884 931.498 881.92C935.274 895.584 937.68 909.744 939.978 923.718C945.45 956.988 948.585 990.488 952.016 1024L889.736 1024L853.924 1024L851.138 1024L215.773 1024L174.107 1024Q174.1 1023.36 174.085 1022.73C172.849 973.953 163.224 846.865 127.61 812.963C130.026 811.943 132.409 811.061 134.91 810.272C139.328 810.357 155.596 805.949 161.886 804.963C229.037 794.441 284.923 782.863 348.024 755.496C342.643 786.344 378.575 843.096 396.302 868.305Q403.313 878.392 410.949 888.015Q418.586 897.637 426.817 906.756Q435.049 915.875 443.842 924.453Q452.635 933.031 461.955 941.034C464.539 943.273 469.913 948.794 473.114 949.801C473.317 949.865 473.538 949.841 473.75 949.861L466.405 942.91C464.289 939.232 460.341 935.748 457.446 932.58C451.841 926.447 446.125 920.317 440.952 913.812C416.002 882.443 391.504 836.169 385.552 796.128C384.793 791.023 384.401 785.914 384.581 780.753C384.987 769.09 389.97 727.869 396.162 719.523C393.86 730.837 391.639 743.836 392.732 755.355C393.542 763.89 396.154 772.354 398.748 780.501C411.096 819.281 431.294 856.762 453.696 890.626C475.621 923.769 496.806 944.86 530.099 966.348C526.345 962.408 521.865 959.063 517.618 955.667L518.268 955.223C527.359 951.411 548.087 917.073 553.673 907.484C555.428 901.485 563.576 888.637 566.84 882.418Q582.845 852.273 599.309 822.377C610.626 801.508 631.81 767.414 634.163 744.173C635.677 729.214 631.496 715.408 627.725 701.139C626.447 696.304 624.546 690.314 624.758 685.324C624.771 685.024 624.795 684.724 624.814 684.424C624.219 681.881 623.658 679.498 623.633 676.867Z"/>
	<path fill="#030303" d="M669.262 762.125C669.349 763.732 669.396 765.339 669.283 766.946C665.895 815.078 621.939 867.931 590.549 902.218C576.368 917.708 561.954 932.655 546.071 946.429C545.813 945.615 559.946 932.33 561.91 930.333C595.183 896.501 641.758 840.415 659.891 797.117Q661.683 792.94 663.171 788.644Q664.659 784.349 665.835 779.958Q667.011 775.567 667.869 771.103Q668.727 766.639 669.262 762.125Z"/>
	<path fill="#030303" d="M851.138 1024C853.798 1011.72 857.613 999.62 860.797 987.464L879.561 915.42C885.692 891.985 892.058 868.3 896.288 844.442C896.741 841.886 898.325 837.782 898.029 835.34C897.998 835.088 897.948 834.839 897.908 834.589L899.056 833.784L897.892 834.649L898.189 833.604L898.43 833.652C898.298 842.271 897.095 850.747 896.042 859.289C893.39 868.747 892.061 878.683 889.89 888.276C886.009 905.425 881.567 922.518 877.31 939.579C872.492 958.887 867.463 978.255 861.977 997.384C859.423 1006.29 856.226 1015.03 853.924 1024L851.138 1024Z"/>
	<defs>
		<linearGradient id="gradient_7" gradientUnits="userSpaceOnUse" x1="618.70923" y1="808.58044" x2="569.84851" y2="776.78253">
			<stop offset="0" stop-color="#314343"/>
			<stop offset="1" stop-color="#494647"/>
		</linearGradient>
	</defs>
	<path fill="url(#gradient_7)" d="M624.814 684.424C627.577 688.545 629.084 694.107 630.985 698.706C632.848 703.212 635.315 707.564 636.792 712.212C641.191 726.051 640.322 743.606 637.508 757.678C629.112 799.664 595.625 847.157 571.603 882.294C567.644 888.085 558.331 903.337 553.673 907.484C555.428 901.485 563.576 888.637 566.84 882.418Q582.845 852.273 599.309 822.377C610.626 801.508 631.81 767.414 634.163 744.173C635.677 729.214 631.496 715.408 627.725 701.139C626.447 696.304 624.546 690.314 624.758 685.324C624.771 685.024 624.795 684.724 624.814 684.424Z"/>
	<path fill="#353F40" d="M896.042 859.289C898.283 867.512 898.134 877.4 898.735 885.901C901.047 918.624 900.79 950.249 896.95 982.858C895.318 996.714 893.312 1010.49 889.736 1024L853.924 1024C856.226 1015.03 859.423 1006.29 861.977 997.384C867.463 978.255 872.492 958.887 877.31 939.579C881.567 922.518 886.009 905.425 889.89 888.276C892.061 878.683 893.39 868.747 896.042 859.289Z"/>
	<path fill="#353F40" d="M134.91 810.272C139.328 810.357 155.596 805.949 161.886 804.963C229.037 794.441 284.923 782.863 348.024 755.496C342.643 786.344 378.575 843.096 396.302 868.305Q403.313 878.392 410.949 888.015Q418.586 897.637 426.817 906.756Q435.049 915.875 443.842 924.453Q452.635 933.031 461.955 941.034C464.539 943.273 469.913 948.794 473.114 949.801C473.317 949.865 473.538 949.841 473.75 949.861C477.363 952.381 480.334 955.835 483.765 958.607C471.861 954.586 460.569 949.044 449.285 943.569Q434.888 936.677 420.903 928.984Q406.918 921.29 393.389 912.82Q379.861 904.349 366.832 895.128Q353.803 885.907 341.316 875.966Q329.234 866.151 317.329 856.121C311.247 850.92 301.34 840.552 294.491 837.426C286.46 833.761 275.513 833.353 266.793 832.438C237.151 829.329 202.585 825.874 175.061 839.575C168.796 842.694 163.424 846.589 158.091 851.093C165.212 875.989 173.83 900.372 182.215 924.861L199.644 977.072L210.669 1008.96C212.365 1013.86 214.571 1018.99 215.773 1024L174.107 1024Q174.1 1023.36 174.085 1022.73C172.849 973.953 163.224 846.865 127.61 812.963C130.026 811.943 132.409 811.061 134.91 810.272Z"/>
</svg>
