<?xml version="1.0" encoding="utf-8" ?>
<svg xmlns="http://www.w3.org/2000/svg" xmlns:xlink="http://www.w3.org/1999/xlink" width="1024" height="1024">
	<path fill="#050504" d="M0 0L1024 0L1024 1024L996.625 1024L993.042 1024L988.26 1024L884.872 1024L847.092 1024L516.493 1024L513.521 1024L507.398 1024L503.14 1024L498.901 1024L175.326 1024L141.437 1024L38.0423 1024L32.6387 1024L28.7212 1024L0 1024L0 0Z"/>
	<path fill="#6A6969" d="M503.14 1024C503.411 1017.15 502.955 991.67 504.86 987.569C505.796 985.554 507.419 984.027 509.565 983.383C511.438 982.821 513.603 982.938 515.331 983.897Q515.598 984.043 515.848 984.217Q516.098 984.392 516.327 984.592Q516.556 984.793 516.762 985.017Q516.968 985.241 517.148 985.487Q517.329 985.732 517.481 985.996Q517.634 986.259 517.756 986.538Q517.879 986.817 517.971 987.107Q518.063 987.397 518.122 987.696C518.792 990.935 516.923 993.763 515.122 996.256L514.704 996.826C516.153 1001.73 514.164 1008.58 513.736 1013.7C513.451 1017.12 513.499 1020.57 513.521 1024L507.398 1024L503.14 1024Z"/>
	<path fill="#1B1716" d="M507.398 1024C508.185 1015.09 509.616 1004.36 514.704 996.826C516.153 1001.73 514.164 1008.58 513.736 1013.7C513.451 1017.12 513.499 1020.57 513.521 1024L507.398 1024Z"/>
	<path fill="#373737" d="M725.592 300.032C729.317 308.698 734.721 329.711 736.417 339.407C733.661 337.931 731.042 335.99 727.788 336.989C721.838 338.815 717.604 346.444 714.997 351.722C704.85 372.267 711.344 382.862 714.485 403.193C712.019 400.96 694.466 367.052 690.455 360.389C693.75 355.717 697.464 351.333 700.741 346.635C709.469 334.122 721.799 314.656 725.592 300.032Z"/>
	<path fill="#373737" d="M297.26 298.189C304.773 319.279 316.586 343.458 333.689 358.176C327.836 368.69 322.534 379.501 316.446 389.884C314.822 392.653 309.45 400.057 309.115 402.839C307.424 405.948 304.549 408.914 302.318 411.692C302.565 394.215 307.097 376.494 311.596 359.692C306.123 351.32 300.958 342.957 296.649 333.917C295.633 331.786 292.542 322.861 291.172 321.997C292.665 313.995 294.953 305.996 297.26 298.189Z"/>
	<path fill="#7A7C7E" d="M199.621 836.426C201.108 839.316 202.843 841.983 204.636 844.691C204.52 844.808 204.406 844.927 204.288 845.042C195.976 853.088 165.073 866.082 153.275 871.143C138.518 877.474 120.763 883.389 108.422 893.922C101.655 899.697 96.3231 907.933 91.6773 915.476C83.5264 928.709 76.9166 943.079 69.9041 956.937C58.7408 978.999 47.3171 1001.07 38.0423 1024L32.6387 1024C35.7425 1014.53 40.7943 1005.11 44.9062 996.022L64.1707 952.764C71.7269 936.146 79.9266 914.701 90.9826 900.166C105.976 880.453 134.838 872.437 156.193 861.557Q178.69 850.345 199.621 836.426Z"/>
	<path fill="#7A7C7E" d="M818.825 844.898C820.911 841.963 822.96 839.186 825.48 836.608Q839.17 845.871 853.596 853.942Q868.021 862.013 883.078 868.834C893.774 873.721 905.327 877.514 915.553 883.32C922.751 887.407 929.434 893.047 934.213 899.84C941.649 910.408 946.853 922.627 952.191 934.341L967.938 968.912C976.242 987.235 985.426 1005.41 993.042 1024L988.26 1024C981.984 1012.59 976.809 1000.3 971.135 988.564Q957.895 961.607 943.887 935.041C937.483 922.919 930.798 908.848 921.461 898.693C915.868 892.61 908.824 888.566 901.308 885.282C894.118 882.141 886.55 879.761 879.261 876.84C859.287 868.836 836.576 858.383 819.359 845.307L818.825 844.898Z"/>
	<path fill="#99A6AC" d="M303.38 111.83C295.304 149.517 303.28 192.678 324.307 224.936Q326.271 227.948 328.388 230.854Q330.505 233.76 332.771 236.552Q335.036 239.344 337.443 242.014Q339.85 244.685 342.393 247.227Q344.936 249.769 347.607 252.176Q350.278 254.582 353.071 256.847Q355.863 259.112 358.769 261.228Q361.676 263.345 364.688 265.308C365.476 281.864 362.53 295.896 356.711 311.309C317.902 280.193 293.287 212.68 294.127 163.885Q294.291 153.607 295.899 143.454C296.828 137.528 300.275 127.307 299.616 121.993C299.591 121.791 299.559 121.591 299.531 121.39C300.825 118.214 301.977 114.957 303.38 111.83Z"/>
	<path fill="#99A6AC" d="M656.733 263.265Q661.873 260.049 666.677 256.349Q671.48 252.649 675.901 248.5Q677.204 247.274 678.479 246.018Q679.753 244.762 680.998 243.477Q682.242 242.192 683.457 240.878Q684.671 239.564 685.855 238.222Q687.038 236.88 688.19 235.511Q689.342 234.142 690.461 232.747Q691.581 231.351 692.667 229.93Q693.754 228.508 694.807 227.062Q695.861 225.616 696.88 224.145Q697.899 222.675 698.884 221.181Q699.868 219.687 700.818 218.171Q701.768 216.654 702.682 215.116Q703.595 213.578 704.473 212.019Q705.351 210.46 706.192 208.881Q707.033 207.302 707.838 205.704Q708.642 204.105 709.408 202.489Q710.175 200.872 710.904 199.238Q711.633 197.604 712.323 195.954Q713.013 194.303 713.665 192.637Q714.317 190.97 714.93 189.29Q715.542 187.609 716.116 185.914Q716.689 184.219 717.223 182.511Q717.756 180.803 718.25 179.084Q718.744 177.364 719.197 175.633Q719.651 173.903 720.064 172.162Q720.477 170.421 720.849 168.671Q721.221 166.921 721.552 165.163Q721.884 163.404 722.174 161.639Q722.464 159.873 722.713 158.102Q722.962 156.33 723.17 154.553Q723.377 152.776 723.543 150.994Q723.709 149.213 723.834 147.428C724.703 136.479 723.779 125.666 724.2 114.739C726.683 123.902 728.296 133.22 729.601 142.613C729.236 153.38 730.061 163.981 729.143 174.768C725.231 220.766 708.381 270.591 674.036 302.859C671.185 305.538 668.132 308.309 664.773 310.339C658.587 295.511 656.367 279.25 656.733 263.265Z"/>
	<path fill="#B21914" d="M299.531 121.39C299.559 121.591 299.591 121.791 299.616 121.993C300.275 127.307 296.828 137.528 295.899 143.454Q294.291 153.607 294.127 163.885C293.287 212.68 317.902 280.193 356.711 311.309C351.836 326.15 342.914 340.538 335.234 354.085C322.109 341.853 303.613 314.584 300.253 296.428C298.311 289.742 295.899 283.229 294.071 276.49Q292.322 269.895 290.967 263.209Q289.611 256.523 288.653 249.768Q287.694 243.013 287.137 236.213Q286.579 229.414 286.425 222.593C285.531 216.82 285.892 210.333 285.904 204.495C285.963 175.481 289.746 148.775 299.531 121.39Z"/>
	<path fill="#FD6C57" d="M286.425 222.593C286.591 216.961 286.267 211.356 286.762 205.736L287.037 205.618C289.068 225.518 289.988 245.367 294.369 264.961C297.843 280.495 303.626 295.493 309.176 310.375C306.128 305.811 303.54 300.804 300.253 296.428C298.311 289.742 295.899 283.229 294.071 276.49Q292.322 269.895 290.967 263.209Q289.611 256.523 288.653 249.768Q287.694 243.013 287.137 236.213Q286.579 229.414 286.425 222.593Z"/>
	<path fill="#B21914" d="M729.601 142.613C732.355 147.855 733.159 155.934 734.276 161.775Q735.005 165.776 735.613 169.796Q736.221 173.817 736.708 177.854Q737.194 181.892 737.559 185.942Q737.924 189.992 738.166 194.051Q738.409 198.11 738.529 202.175Q738.649 206.239 738.647 210.306Q738.645 214.372 738.52 218.437Q738.395 222.501 738.148 226.56Q737.901 230.619 737.531 234.669Q737.162 238.719 736.671 242.755Q736.18 246.792 735.567 250.812Q734.954 254.832 734.221 258.832Q733.488 262.831 732.634 266.807Q731.781 270.783 730.808 274.732Q729.835 278.68 728.743 282.597Q727.652 286.514 726.443 290.397C719.215 313.655 703.295 336.688 688.876 356.202C681.679 344.212 668.495 323.727 664.773 310.339C668.132 308.309 671.185 305.538 674.036 302.859C708.381 270.591 725.231 220.766 729.143 174.768C730.061 163.981 729.236 153.38 729.601 142.613Z"/>
	<path fill="#373737" d="M836.381 697.843C838.851 699.552 839.178 702.431 839.705 705.258C844.658 731.822 836.688 772.191 821.518 794.062C816.701 801.007 810.844 807.141 804.973 813.194C766.673 852.682 705.059 890.215 653.953 910.529C640.08 916.044 626.093 919.355 611.68 923.033C605.969 924.49 600.175 926.655 594.405 927.75C593.321 927.956 592.298 927.978 591.198 927.955C601.613 923.038 613.391 920.536 624.417 917.368Q633.522 914.829 642.328 911.391Q651.133 907.954 659.551 903.653Q665.165 900.79 670.608 897.614Q676.051 894.438 681.305 890.958Q686.559 887.479 691.607 883.707Q696.656 879.935 701.482 875.883C721.777 858.733 738.806 837.745 757.377 818.79Q773.562 802.372 790.005 786.212C802.434 774.039 815.142 762.075 825.398 747.935C837.415 731.368 839.576 717.763 836.381 697.843Z"/>
	<path fill="#88969D" d="M330.911 228.931C355.441 183.776 403.242 151.08 448.07 128.288C463.059 120.668 478.587 113.383 494.748 108.597C500.878 106.782 507.442 104.99 513.896 105.217C532.425 105.871 563.858 121.401 580.25 130.339C622.072 153.14 669.684 184.398 689.458 229.629Q683.013 237.183 676.188 244.395C673.961 240.792 672.283 236.615 670.319 232.829Q665.447 223.479 659.218 214.973C632.364 178.221 595.881 152.214 556.262 130.641C541.906 122.824 526.997 115.185 511.588 109.667L511.17 109.8C497.076 114.437 478.108 125.629 464.965 133.045C413.524 162.069 371.513 190.105 344.333 244.528C339.644 239.54 334.896 234.512 330.911 228.931Z"/>
	<path fill="#373737" d="M422.658 925.179C418.176 925.687 408.626 922.338 403.809 921.118Q395.554 919.029 387.395 916.588Q379.237 914.147 371.19 911.359Q363.144 908.571 355.224 905.442Q347.304 902.312 339.526 898.846Q331.747 895.38 324.124 891.584Q316.501 887.789 309.047 883.67Q301.594 879.552 294.323 875.118Q287.053 870.684 279.979 865.943C238.426 838.401 191.386 797.023 181.232 745.615Q181.021 744.538 180.837 743.455Q180.652 742.373 180.495 741.287Q180.337 740.201 180.205 739.111Q180.074 738.021 179.969 736.928Q179.865 735.835 179.787 734.74Q179.709 733.645 179.658 732.549Q179.607 731.452 179.582 730.355Q179.558 729.257 179.56 728.159Q179.563 727.062 179.592 725.964Q179.621 724.867 179.677 723.771Q179.733 722.674 179.816 721.58Q179.899 720.485 180.009 719.393Q180.118 718.3 180.254 717.211Q180.39 716.122 180.553 715.036Q180.716 713.95 180.905 712.869Q181.094 711.788 181.31 710.711Q181.526 709.635 181.767 708.564Q182.009 707.493 182.277 706.429Q182.545 705.364 182.839 704.307Q183.133 703.249 183.452 702.199Q183.772 701.148 184.117 700.106Q184.462 699.064 184.833 698.031Q185.203 696.997 185.599 695.973Q185.994 694.949 186.415 693.935Q186.835 692.921 187.28 691.918Q187.726 690.914 188.195 689.922Q188.665 688.93 189.158 687.949Q189.652 686.969 190.169 686.001Q190.687 685.032 191.228 684.077Q191.769 683.122 192.333 682.18Q192.897 681.238 193.484 680.311Q194.071 679.383 194.68 678.47C193.778 689.91 192.889 700.159 195.176 711.542Q196.283 716.979 198.121 722.213Q199.96 727.448 202.496 732.382C207.012 741.306 212.969 749.54 218.763 757.665Q234.264 779.428 251.579 799.777C286.305 840.52 325.302 882.949 373.864 906.988C382.625 911.325 391.523 914.783 400.819 917.801C407.257 919.891 417.038 921.726 422.658 925.179Z"/>
	<path fill="#373737" d="M219.788 820.915C255.411 857.217 298.339 884.526 344.624 905.25Q364.803 914.156 385.885 920.639C401.152 925.271 416.953 928.008 432.1 932.955C454.351 940.222 496.1 961.262 506.531 982.147C503.265 984.847 501.837 987.309 501.463 991.567C501.004 996.785 502.188 1002.18 501.146 1007.37C501.042 996.492 492.442 989.525 484.535 983.325C461.631 965.363 435.219 954.041 406.757 948.38C396.751 946.391 386.58 945.293 376.573 943.267Q364.493 940.806 352.628 937.457Q340.764 934.107 329.18 929.888C281.352 912.249 235.631 886.082 204.636 844.691C202.843 841.983 201.108 839.316 199.621 836.426C206.562 831.47 213.289 826.45 219.788 820.915Z"/>
	<path fill="#373737" d="M802.918 820.816Q814.076 828.887 825.48 836.608C822.96 839.186 820.911 841.963 818.825 844.898C786.716 886.449 733.404 918.436 683.866 934.261C667.588 939.461 650.574 943.19 633.688 945.772C625.046 947.094 615.967 947.53 607.477 949.549C579.95 956.097 537.693 976.953 523.154 1001.65C519.45 1007.94 517.922 1015.54 516.562 1022.61C516.158 1016.41 515.937 1009.91 517.321 1003.81C518.439 998.883 520.265 993.912 520.681 988.863C520.9 986.205 518.654 983.701 518.725 981.116C518.833 977.173 524.942 971.48 527.708 968.835C544.506 952.782 575.093 937.206 597.269 930.719C610.832 926.751 624.808 924.383 638.381 920.274C653.249 915.773 667.975 909.705 681.961 902.952C708.665 890.057 733.687 874.036 757.91 857.02C773.788 845.866 789.303 834.719 802.918 820.816Z"/>
	<path fill="#6A6969" d="M204.636 844.691C235.631 886.082 281.352 912.249 329.18 929.888Q340.764 934.107 352.628 937.456Q364.493 940.806 376.573 943.267C386.58 945.293 396.751 946.391 406.757 948.38C435.219 954.041 461.631 965.363 484.535 983.325C492.442 989.525 501.042 996.492 501.146 1007.37C500.408 1012.91 499.707 1018.46 498.901 1024L175.326 1024L141.437 1024L38.0423 1024C47.3171 1001.07 58.7408 978.999 69.9041 956.937C76.9166 943.079 83.5264 928.709 91.6773 915.476C96.3231 907.933 101.655 899.697 108.422 893.922C120.763 883.389 138.518 877.474 153.275 871.143C165.073 866.082 195.976 853.088 204.288 845.042C204.406 844.927 204.52 844.808 204.636 844.691Z"/>
	<path fill="#373737" d="M123.447 905.804C144.698 936.805 168.321 986.866 175.326 1024L141.437 1024C141.879 1016.38 142.508 1008.73 142.209 1001.1C141.251 976.564 133.416 927.947 123.447 905.804Z"/>
	<path fill="#6A6969" d="M516.562 1022.61C517.922 1015.54 519.45 1007.94 523.154 1001.65C537.693 976.953 579.95 956.097 607.477 949.549C615.967 947.53 625.046 947.094 633.688 945.772C650.574 943.19 667.588 939.461 683.866 934.261C733.404 918.436 786.716 886.449 818.825 844.898L819.359 845.307C836.576 858.383 859.287 868.836 879.261 876.84C886.55 879.761 894.118 882.141 901.308 885.282C908.824 888.566 915.868 892.61 921.461 898.693C930.798 908.848 937.483 922.919 943.887 935.041Q957.895 961.607 971.135 988.564C976.809 1000.3 981.984 1012.59 988.26 1024L884.872 1024L847.092 1024L516.493 1024L516.562 1022.61Z"/>
	<path fill="#373737" d="M901.105 906.808C894.337 936.451 880.282 994.626 884.872 1024L847.092 1024C858.948 985.114 879.144 941.213 901.105 906.808Z"/>
	<path fill="#6A6969" d="M511.588 109.667C526.997 115.185 541.906 122.824 556.262 130.641C595.881 152.214 632.364 178.221 659.218 214.973Q665.447 223.479 670.319 232.829C672.283 236.615 673.961 240.792 676.188 244.395C672.054 248.45 667.748 252.027 662.972 255.309C660.041 257.324 656.729 259.127 654.002 261.385C650.495 298.807 671.406 332.783 689.486 363.7C698.832 379.681 708.405 395.702 716.762 412.216C717.325 412.428 717.644 412.346 718.231 412.284L718.762 414.214L718.253 414.625L718.83 414.957C717.891 410.976 715.643 407.168 714.485 403.193C711.344 382.862 704.85 372.267 714.997 351.722C717.604 346.444 721.838 338.815 727.788 336.989C731.042 335.99 733.661 337.931 736.417 339.407L737.616 343.713C742.991 367.716 748.381 391.762 752.378 416.041C757.922 449.72 761.838 483.722 768.523 517.204Q770.025 524.968 771.795 532.675Q773.565 540.383 775.6 548.024Q777.636 555.665 779.936 563.232Q782.235 570.798 784.795 578.28Q787.356 585.762 790.173 593.151Q792.991 600.539 796.064 607.826Q799.136 615.113 802.459 622.289Q805.782 629.465 809.351 636.521C819.382 654.3 831.135 678.194 836.381 697.843C839.576 717.763 837.415 731.368 825.398 747.935C815.142 762.075 802.434 774.039 790.005 786.212Q773.562 802.372 757.377 818.79C738.806 837.745 721.777 858.733 701.482 875.883Q696.656 879.935 691.607 883.707Q686.559 887.479 681.305 890.958Q676.051 894.438 670.608 897.614Q665.165 900.79 659.551 903.653Q651.133 907.954 642.328 911.391Q633.522 914.829 624.417 917.368C613.391 920.536 601.613 923.038 591.198 927.955C570.586 936.809 550.63 945.825 532.781 959.739C527.725 963.68 522.898 967.963 518.744 972.859C517.67 974.125 514.973 978.856 513.85 979.385C512.72 979.916 511.365 979.584 510.385 978.901C508.056 977.279 505.718 973.455 503.726 971.297Q497.762 964.915 490.842 959.586C470.93 944.165 446.692 932.51 422.658 925.179C417.038 921.726 407.257 919.891 400.819 917.801C391.523 914.783 382.625 911.325 373.864 906.988C325.302 882.949 286.305 840.52 251.579 799.777Q234.264 779.428 218.763 757.665C212.969 749.54 207.012 741.306 202.496 732.382Q199.96 727.448 198.122 722.213Q196.283 716.979 195.176 711.542C192.889 700.159 193.778 689.91 194.68 678.47C199.571 665.921 206.694 654.178 212.213 641.869C226.933 609.039 239.542 576.139 248.814 541.331C258.142 506.311 261.33 469.736 267.028 434.004C269.108 420.961 271 407.766 273.611 394.828C278.552 370.337 284.905 346.172 291.172 321.997C292.542 322.861 295.633 331.786 296.649 333.917C300.958 342.957 306.123 351.32 311.596 359.692C307.097 376.494 302.565 394.215 302.318 411.692C304.549 408.914 307.424 405.948 309.115 402.839C318.937 389.902 327.089 375.067 335.098 360.941C344.949 343.564 355.614 325.623 362.13 306.676C365.835 295.902 368.209 284.174 368.298 272.753C368.32 269.878 368.164 266.414 366.794 263.842C365.797 261.969 347.807 248.038 344.333 244.528C371.513 190.105 413.524 162.069 464.965 133.045C478.108 125.629 497.076 114.437 511.17 109.8L511.588 109.667Z"/>
	<path fill="#050504" d="M511.817 154.674L512.707 155.415C513.401 157.892 513.489 160.467 512.835 162.961C512.303 162.635 511.866 162.249 511.391 161.847C510.898 159.383 511.418 157.117 511.817 154.674Z"/>
	<path fill="#050504" d="M511.98 173.757L512.717 174.428C513.304 176.59 513.557 178.494 513.6 180.733L512.867 181.451C512.4 181.413 511.924 181.258 511.469 181.148C510.793 178.727 511.504 176.164 511.98 173.757Z"/>
	<path fill="#050504" d="M512.129 197.363C513.114 199.807 513.423 202.607 513.548 205.221L512.822 205.77C511.646 205.833 512.198 205.952 511.163 205.425C510.574 202.625 511.258 200.036 512.129 197.363Z"/>
	<path fill="#373737" d="M510.81 245.771C511.897 246.2 512.809 246.423 513.537 247.385C514.371 250.196 515.894 254.958 514.464 257.725L513.182 256.759C512.857 256.404 512.446 256.28 512.015 256.08L510.143 256.901L509.454 256.385C508.729 253.36 510.211 248.803 510.81 245.771Z"/>
	<path fill="#373737" d="M289.742 448.438L289.985 448.676C291.189 451.701 290.684 457.175 290.776 460.51C291.893 501.043 270.326 555.289 255.5 592.847L255.402 593.001L255.128 592.918C258.827 579.272 262.801 565.711 266.296 551.998C270.705 534.703 274.584 517.232 278.84 499.891C282.606 484.548 289.18 463.766 289.742 448.438Z"/>
	<path fill="#373737" d="M756.092 650.262C756.454 651.065 756.597 651.842 756.585 652.721C756.417 664.444 753.851 680.908 752.145 692.602C741.218 767.51 709.21 809.424 647.567 851.828C615.644 873.789 582.396 893.479 554.766 920.987C554.674 920.304 554.898 920.024 555.347 919.463C557.723 916.49 560.898 913.796 563.527 911.018C569.816 904.373 575.981 897.623 582.465 891.165C602.6 871.108 625.254 854.24 646.261 835.221C657.936 824.65 668.753 813.42 679.257 801.687C690.125 789.547 700.721 776.914 709.92 763.446C717.297 752.647 723.423 741.298 729.176 729.566C741.816 703.791 750.619 678.48 756.092 650.262Z"/>
	<path fill="#373737" d="M268.715 649.222C270.695 656.529 271.524 664.532 272.98 671.988Q274.947 682.422 277.73 692.669Q280.513 702.916 284.096 712.911Q286.128 718.752 288.475 724.474Q290.823 730.195 293.48 735.78Q296.136 741.365 299.094 746.796Q302.052 752.227 305.302 757.489C329.616 796.352 374.353 837.289 409.414 867.098C430.416 884.955 449.504 899.937 468.672 920.186C464.499 918.264 460.319 913.011 456.677 910.028C451.352 905.666 445.79 901.522 440.219 897.48C396.79 865.971 348.192 839.418 311.668 799.357C303.435 790.327 295.264 780.744 289.245 770.073C270.087 736.107 266.923 687.644 268.715 649.222Z"/>
	<path fill="#7A7C7E" d="M737.616 343.713C742.991 367.716 748.381 391.762 752.378 416.041C757.922 449.72 761.838 483.722 768.523 517.204Q770.025 524.968 771.795 532.675Q773.565 540.383 775.6 548.024Q777.636 555.665 779.936 563.232Q782.235 570.798 784.795 578.28Q787.356 585.762 790.173 593.151Q792.991 600.539 796.064 607.826Q799.136 615.113 802.459 622.289Q805.782 629.465 809.351 636.521C808.888 636.701 808.304 636.76 807.815 636.855C801.047 633.141 780.774 600.551 776.003 592.044C765.923 574.074 761.414 553.589 756.407 533.769C753.154 520.891 749.712 508.009 746.894 495.03C743.21 478.061 740.24 460.905 736.892 443.865C733.107 424.603 728.116 405.595 726.581 385.943C725.831 376.337 725.977 366.202 728.655 356.881C730.264 351.277 732.352 346.656 737.616 343.713Z"/>
	<path fill="#050504" d="M510.303 270.1C521.261 269.427 538.845 277.678 548.386 282.849C599.261 310.419 658.65 389.091 685.534 439.779Q694.283 456.593 701.43 474.148Q708.577 491.703 714.06 509.847Q722.836 539.066 728.526 569.04C731.282 583.833 733.537 598.464 733.805 613.533C734.51 653.214 720.396 691.589 701.88 726.1C687.814 752.32 669.058 779.721 648.008 800.865C629.517 819.439 608.858 835.553 589.748 853.445C558.847 882.375 533.403 917.83 513.261 954.944C512.784 955.594 512.262 956.176 511.728 956.778C509.365 954.51 494.425 928.057 491.174 922.959Q484.525 912.451 477.125 902.458Q469.726 892.464 461.617 883.037C435.931 852.701 405.153 828.542 376.613 801.175Q374.739 799.362 372.898 797.514Q371.058 795.667 369.252 793.785Q367.445 791.904 365.674 789.99Q363.903 788.076 362.167 786.13Q360.432 784.183 358.732 782.205Q357.033 780.227 355.37 778.218Q353.707 776.209 352.082 774.17Q350.456 772.131 348.869 770.062Q347.281 767.993 345.732 765.895Q344.182 763.797 342.672 761.671Q341.162 759.545 339.691 757.392Q338.22 755.239 336.789 753.058Q335.358 750.878 333.967 748.672Q332.576 746.466 331.227 744.235Q329.877 742.003 328.569 739.747Q327.26 737.492 325.993 735.212Q324.727 732.932 323.502 730.63Q322.278 728.327 321.096 726.003Q319.914 723.678 318.775 721.332Q317.637 718.986 316.541 716.619Q315.446 714.253 314.394 711.866Q313.343 709.48 312.335 707.074Q311.328 704.669 310.365 702.245Q309.402 699.822 308.483 697.381Q307.565 694.94 306.692 692.483Q305.819 690.025 304.991 687.552Q304.164 685.079 303.382 682.592Q302.6 680.104 301.864 677.602Q301.128 675.1 300.438 672.585Q299.748 670.07 299.105 667.543Q298.461 665.016 297.865 662.477Q297.268 659.938 296.718 657.389C278.076 567.884 308.888 481.56 357.771 407.026C385.184 365.228 427.547 310.936 471.068 285.354Q475.636 282.693 480.398 280.398Q485.16 278.103 490.087 276.188Q495.014 274.272 500.076 272.748Q505.138 271.224 510.303 270.1Z"/>
	<path fill="#373737" d="M330.036 471C331.148 471.748 331.671 472.072 331.897 473.456C332.124 474.846 332.009 476.47 332.016 477.882C331.026 478.646 330.053 479.491 328.969 480.117C328.797 477.756 328.51 475.313 328.785 472.955C328.932 471.695 329.031 471.786 330.036 471Z"/>
	<path fill="#373737" d="M675.687 511.728C675.697 517.228 675.1 520.67 672.362 525.565L669.553 523.346C671.61 519.49 673.777 515.658 675.687 511.728Z"/>
	<path fill="#1B1716" d="M682.819 494.111C682.825 493.998 682.834 493.886 682.838 493.773C682.99 488.805 685.903 483.396 687.386 478.634C688.366 475.486 689.096 472.227 689.872 469.023C690.836 471.584 692.229 473.963 693.182 476.535C691.496 477.92 690.255 483.263 689.066 485.427L688.601 486.287C687.05 489.097 685.008 491.766 682.819 494.111Z"/>
	<path fill="#272829" d="M330.036 471L330.649 469.956C330.56 469.717 330.461 469.481 330.382 469.239C330.083 468.326 330.076 467.776 330.141 466.841L329.089 466.831C329.76 466.395 330.075 466.31 330.464 465.59C331.875 467.463 332.734 469.989 333.757 472.099C336.398 477.549 338.593 482.529 340.35 488.335C342.896 496.746 344.403 504.834 348.273 512.808C348.536 513.349 348.454 513.107 348.564 513.629C354.611 519.937 357.495 525.283 359.648 533.661C356.402 531.117 354.656 526.428 352.575 522.936L350.09 517.267C348.858 516.374 348.419 515.817 346.874 515.744C346.007 516.522 345.671 517.12 345.213 518.187C337.057 509.646 334.437 489.5 332.016 477.882C332.009 476.47 332.124 474.846 331.897 473.456C331.671 472.072 331.148 471.748 330.036 471Z"/>
	<path fill="#373737" d="M492.123 917.925C505.278 920.004 518.169 919.049 531.373 918.452C526.856 924.231 523.045 930.727 519.238 936.986L511.751 949.878C505.578 939.057 499.083 928.26 492.123 917.925Z"/>
	<path fill="#373737" d="M682.819 494.111C685.008 491.766 687.05 489.097 688.601 486.287L689.066 485.427C690.255 483.263 691.496 477.92 693.182 476.535C694.747 480.343 696.214 484.234 697.929 487.975C695.581 493.463 693.114 498.958 691.23 504.626C687.235 516.642 678.779 552.8 667.036 557.233C663.792 558.458 660.249 558.668 656.826 558.972C661.307 547.284 664.286 534.651 669.553 523.346L672.362 525.565C672.908 525.201 673.39 524.876 673.827 524.379C678.5 519.06 683.206 501.247 682.819 494.111Z"/>
	<path fill="#373737" d="M321.425 487.277C322.428 482.904 324.383 478.797 326.269 474.749C327.376 480.262 327.591 485.75 329.476 491.102C330.192 488.324 329.091 483.16 328.969 480.117C330.053 479.491 331.026 478.646 332.016 477.882C334.437 489.5 337.057 509.646 345.213 518.187C345.671 517.12 346.007 516.522 346.874 515.744C348.419 515.817 348.858 516.374 350.09 517.267L352.575 522.936C354.656 526.428 356.402 531.117 359.648 533.661C360.792 537.18 361.974 540.685 362.003 544.428Q364.048 550.769 366.016 557.135C361.504 557.054 356.143 556.933 352.197 554.527C344.298 549.711 342.047 530.133 338.646 521.573C333.919 509.68 324.784 499.723 321.425 487.277Z"/>
	<path fill="#373737" d="M352.575 522.936C354.656 526.428 356.402 531.117 359.648 533.661C360.792 537.18 361.974 540.685 362.003 544.428C358.96 538.061 354.987 532.353 352.315 525.751L352.575 522.936Z"/>
	<path fill="#1B1716" d="M707.279 513.889C709.786 517.059 710.93 523.932 712.169 527.971C720.024 553.583 730.039 587.505 730.515 614.119C731.447 666.249 705.707 718.384 676.423 760.152C670.131 769.126 663.569 779.067 655.97 786.986C654.003 784.596 651.735 782.377 649.606 780.125C639.288 768.718 621.879 752.313 618.69 736.923C617.12 729.348 617.659 703.182 619.708 696.155C621.574 689.756 630.775 677.119 634.472 670.979Q640.47 660.801 645.574 650.146Q650.678 639.492 654.851 628.44C658.421 618.733 661.202 608.693 665.448 599.245C670.653 587.662 678.92 577.804 683.957 566.019C689.153 553.86 691.297 540.137 697.375 528.468C700.023 523.384 704.045 518.653 707.279 513.889Z"/>
	<path fill="#1B1716" d="M319.928 528.7C320.378 528.884 320.388 528.871 320.877 529.171C326.473 532.602 333.94 554.203 337.71 561.412C343.087 571.694 349.886 581.336 356.44 590.891C360.053 596.16 364.057 601.467 366.915 607.191C373.079 619.532 375.738 635.925 381.523 649.247C386.126 659.846 394.453 668.583 397.952 679.754C400.956 689.342 401.43 700.057 402.813 709.99Q405.458 729.539 409.239 748.9C399.988 760.499 389.698 769.561 377.486 777.916C373.662 780.579 369.577 782.893 365.582 785.289C360.614 778.166 354.354 771.723 349.251 764.59C327.527 734.226 311.278 701.765 301.988 665.502Q298.329 650.627 296.477 635.421C292.324 603.185 296.136 583.879 308.47 553.993C311.956 545.547 315.255 536.561 319.928 528.7Z"/>
	<path fill="#373737" d="M618.386 669.907C618.342 673.731 617.489 677.851 617.045 681.668Q615.718 692.485 614.989 703.358C613.81 721.307 615.041 739.33 613.447 757.248C612.499 767.899 610.748 778.971 608.699 789.465C607.764 794.251 606.378 798.932 605.648 803.758L606.589 803.793L605.753 805.013L605.67 805.02C611.842 786.322 615.592 767.711 617.893 748.166C627.815 763.576 641.236 776.178 654.48 788.668C634.44 810.638 610.961 829.078 589.398 849.477C568.938 868.831 551.142 890.215 534.439 912.826C519.587 914.839 504.103 914.457 489.246 912.831C483.961 904.741 477.538 897.051 471.4 889.592C453.419 867.741 435.605 849.726 414.526 830.827C398.759 817.413 383.617 802.889 368.596 788.638C384.958 780.668 399.533 768.865 409.658 753.641C411.852 761.937 418.391 796.952 423.992 802.348C422.182 796.884 421.093 791.195 419.82 785.582C411.648 749.553 410.388 712.342 408.418 675.577L437.509 709.233C446.522 719.603 455.523 730.092 465.762 739.291C479.477 751.613 495.232 755.435 513.498 754.425C530.7 753.475 549.207 745.336 560.664 732.299C567.057 725.025 572.195 716.743 578.99 709.781C592.072 696.379 605.866 683.897 618.386 669.907Z"/>
	<path fill="#050504" d="M589.289 713.394C589.295 713.709 589.338 714.026 589.305 714.339C588.729 719.753 585.817 726.416 584.069 731.647C573.664 762.775 550.546 815.453 526.59 837.957C526.508 837.586 533.171 830.254 536.09 826.007C547.861 808.881 555.912 788.983 564.261 770.034L589.289 713.394Z"/>
	<path fill="#050504" d="M440.916 720.847C442.808 722.729 464.351 782.501 467.668 790.004C475.188 807.011 484.988 823.982 497.738 837.605C497.492 837.507 497.235 837.435 497.001 837.312C492.796 835.098 488.515 829.319 485.412 825.653C460.32 796.009 450.285 757.698 440.916 720.847Z"/>
	<path fill="#464E52" d="M507.434 311.204C514.068 310.603 521.071 311.223 527.518 312.88C536.113 315.088 544.163 319.338 552.062 323.297C595.019 344.826 623.565 374.28 652.065 412.242C659.554 422.216 667.42 432.291 673.816 442.996C673.584 471.592 669.421 506.914 661.908 534.594C658.446 547.353 653.201 559.576 650.251 572.47C646.991 586.719 644.087 614.656 638.619 626.374C637.094 629.643 634.666 632.655 632.361 635.402Q617.616 652.681 602.166 669.332C587.445 685.459 560.994 715.166 541.499 724.962C533.628 728.917 524.795 730.236 516.125 731.015C498.921 731.42 482.024 728.683 468.411 717.381C459.188 709.724 451.26 699.901 443.06 691.169C430.176 677.449 417.223 664.421 405.423 649.684C401.279 644.508 396.811 639.136 393.594 633.33C387.159 621.715 383.853 607.376 379.855 594.718C374.339 577.256 368.483 559.845 363.767 542.143Q358.137 520.322 354.257 498.124Q350.376 475.925 348.27 453.489C347.961 450.134 347.532 446.396 348.547 443.131C350.781 435.945 370.19 410.305 375.904 403.443C403.593 370.187 428.969 346.472 467.054 325.797C480.011 318.763 492.522 312.553 507.434 311.204Z"/>
	<path fill="#272829" d="M381.417 460.757C384.495 463.336 387.695 465.844 390.637 468.574L388.522 470.664C387.066 468.533 381.372 462.872 381.417 460.757Z"/>
	<path fill="#6A6969" d="M562.466 472.676Q560.287 475.608 558.179 478.591C555.342 482.207 550.422 489.918 545.505 490.246C544.885 490.287 544.265 490.104 543.672 489.959C548.029 484.552 553.248 480.054 557.897 474.922C559.602 474.413 560.951 473.597 562.466 472.676Z"/>
	<path fill="#88969D" d="M598.887 449.725C608.191 445.748 622.272 443.047 631.943 447.213C633.761 447.996 635.459 449.343 636.169 451.25C636.484 452.094 636.591 452.641 636.578 453.521C635.936 453.988 635.674 454.135 634.88 454.358C625.374 450.974 616.029 450.718 606.047 450.545C603.612 450.14 601.194 450.854 598.887 449.725Z"/>
	<path fill="#7A7C7E" d="M390.514 455.367L389.917 454.917C389.346 453.468 389.436 451.628 389.906 450.147C390.53 448.182 392.124 447.44 393.888 446.687C405.678 441.655 421.886 448.937 432.825 453.37C433.605 454.004 434.33 454.589 435.038 455.303C432.927 454.733 431.037 454.087 428.828 454.374L427.952 454.259C413.387 452.272 404.758 448.211 390.514 455.367Z"/>
	<path fill="#373737" d="M447.559 504.976L446.969 505.809C443.608 507.077 439.559 507.046 436.011 507.149C437.863 507.506 439.734 507.597 441.612 507.726C439.681 508.286 437.716 508.339 435.721 508.474C436.424 508.72 436.874 509.031 437.485 509.446C437.119 509.659 436.917 509.807 436.469 509.906C430.79 511.162 418.852 507.5 414.195 504.238C410.551 501.685 404.433 496.451 403.546 491.925L404.082 491.176C405.467 491.294 406.117 491.725 407.208 492.506C407.337 492.6 407.465 492.695 407.594 492.79L408.928 492.489C412.941 495.97 422.751 500.313 428.08 500.264C430.779 500.767 433.831 502.15 436.497 502.275C441.261 504.047 448.057 504.089 453.179 504.091C451.384 504.278 449.249 504.318 447.559 504.976Z"/>
	<path fill="#7A7C7E" d="M407.594 492.79L408.928 492.489C412.941 495.97 422.751 500.313 428.08 500.264C430.779 500.767 433.831 502.15 436.497 502.275C441.261 504.047 448.057 504.089 453.179 504.091C451.384 504.278 449.249 504.318 447.559 504.976C444.286 505.326 440.996 505.605 437.702 505.614C426.067 505.644 415.8 500.838 407.594 492.79Z"/>
	<defs>
		<linearGradient id="gradient_0" gradientUnits="userSpaceOnUse" x1="610.56824" y1="471.47659" x2="605.48981" y2="448.82111">
			<stop offset="0" stop-color="#3D4040"/>
			<stop offset="1" stop-color="#6E7579"/>
		</linearGradient>
	</defs>
	<path fill="url(#gradient_0)" d="M557.897 474.922C560.701 470.691 565.261 469.142 568.471 465.554L568.121 465.188C565.101 465.284 558.045 472.24 555.405 474.451L555.154 474.181C556.952 471.53 559.577 468.955 562.209 467.13C564.965 465.218 568.546 463.779 571.566 462.272C580.585 457.771 589.561 453.563 598.887 449.725C601.194 450.854 603.612 450.14 606.047 450.545C616.029 450.718 625.374 450.974 634.88 454.358C636.803 457.485 633.6 458.227 640.174 459.783C641.495 460.095 642.821 460.418 644.164 460.619L646.279 460.959L646.684 461.549C645.734 462.185 644.867 462.564 643.793 462.952L643.949 463.29L643.395 463.481C640.39 463.69 636.526 466.513 633.679 467.785C632.371 466.524 631.06 465.252 629.677 464.074C620.247 456.044 610.061 454.454 598.075 455.343C595.399 455.944 592.713 456.513 590.061 457.216C585.449 459.264 581.015 461.566 576.464 463.719C572.71 463.754 565.991 469.099 563.341 471.761Q562.895 472.211 562.466 472.676C560.951 473.597 559.602 474.413 557.897 474.922Z"/>
	<path fill="#7A7C7E" d="M590.061 457.216L589.921 456.907L590.406 456.041C591.888 455.39 593.967 454.185 595.582 454.123C596.943 454.07 597.118 454.477 598.075 455.343C595.399 455.944 592.713 456.513 590.061 457.216Z"/>
	<path fill="#7A7C7E" d="M608.044 451.446C615.724 451.924 622.689 452.255 629.863 455.36C629.744 455.422 629.633 455.501 629.506 455.546C627.133 456.381 611.369 453.552 608.427 452.498L608.044 451.446Z"/>
	<path fill="#373737" d="M606.047 450.545C616.029 450.718 625.374 450.974 634.88 454.358C636.803 457.485 633.6 458.227 640.174 459.783C641.495 460.095 642.821 460.418 644.164 460.619C643.731 460.797 643.575 460.878 643.069 460.987C637.835 462.115 634.731 458.137 630.658 455.805L629.863 455.36C622.689 452.255 615.724 451.924 608.044 451.446L606.047 450.545Z"/>
	<path fill="#050504" d="M619.697 425.885C629.154 424.47 636.981 425.64 644.803 431.413C651.27 436.186 654.479 442.504 656.913 449.98C649.21 439.156 646.978 435.084 632.982 432.716C629.373 432.105 625.754 432.085 622.154 432.796C615.454 434.119 608.951 437.161 602.641 439.723C590.559 444.629 578.669 449.646 567.074 455.639C561.764 458.383 555.788 463.125 549.891 464.203C548.017 464.545 546.8 463.433 545.34 462.431C543 460.142 540.199 458.061 538.577 455.19C540.462 456.063 542.202 457.364 543.937 458.505C556.657 448.506 603.065 429.961 619.697 425.885Z"/>
	<path fill="#050504" d="M372.555 454.564C371.802 451.469 371.121 448.534 371.406 445.314C371.892 439.821 374.883 435.214 379.151 431.843C386.635 425.933 395.181 424.809 404.375 425.779C422.244 430.503 465.562 448.671 480.09 458.732C482.216 457.452 484.368 456.242 486.271 454.639C485.365 457.546 481.515 460.304 479.245 462.28C476.766 463.656 474.575 464.204 471.762 463.555C464.738 461.933 457.899 457.179 451.519 453.896C439.029 447.469 410.084 433.843 397.035 432.629C390.997 432.068 384.381 433.644 379.71 437.641C374.436 442.153 373.18 448.004 372.555 454.564Z"/>
	<path fill="#99A6AC" d="M538.577 455.19C538.129 454.358 537.752 453.504 537.538 452.578C536.718 449.04 538.101 445.064 540.11 442.171C550.448 427.291 584.529 414.122 602.304 411.136C608.168 415.879 613.662 421.449 619.697 425.885C603.065 429.961 556.657 448.506 543.937 458.505C542.202 457.364 540.462 456.063 538.577 455.19Z"/>
	<path fill="#99A6AC" d="M420.108 410.132C420.262 410.196 420.417 410.261 420.572 410.323C427.389 413.04 434.873 414.094 441.806 416.589C453.477 420.79 482.562 435.153 487.69 447.272C488.239 448.569 488.739 450.258 488.247 451.651C487.87 452.72 486.963 453.75 486.271 454.639C484.368 456.242 482.216 457.452 480.09 458.732C465.562 448.671 422.244 430.503 404.375 425.779C406.319 420.96 415.858 413.762 420.108 410.132Z"/>
	<path fill="#050504" d="M598.075 455.343C610.061 454.454 620.247 456.044 629.677 464.074C631.06 465.252 632.371 466.524 633.679 467.785C636.526 466.513 640.39 463.69 643.395 463.481C641.141 465.209 638.031 467.196 636.273 469.396C633.803 472.487 632.85 476.642 631.094 480.137C625.368 491.533 615.795 499.538 603.853 503.767C600.157 505.076 591.593 507.227 587.733 506.899C587.244 506.858 587.076 506.723 586.695 506.51L586.626 506.141C596.607 506.109 609.516 501.147 616.748 494.184C619.158 491.863 622.179 487.978 622.053 484.421C622.018 483.418 622.129 483.814 621.297 483.062C619.616 483.42 618.31 485.061 617.333 486.409C617.187 486.611 617.046 486.817 616.903 487.021C610.605 492.127 599.771 501.445 591.015 499.691C590.195 499.527 590.115 499.436 589.48 499.092C587.75 498.778 586.454 499.278 584.774 499.492C582.429 499.792 570.815 499.711 569.102 498.349L573.08 497.987C566.73 496.813 559.185 497.845 552.682 498.077C551.004 499.12 549.654 500.075 548.37 501.605C547.148 503.062 545.902 504.337 544.526 505.65L544.334 505.412C544.477 505.179 544.61 504.939 544.763 504.711C546.831 501.641 548.349 498.235 550.254 495.045C552.337 489.588 556.837 483.985 560.067 479.114L558.179 478.591Q560.287 475.607 562.466 472.676Q562.895 472.211 563.341 471.761C565.991 469.099 572.71 463.754 576.464 463.719C581.015 461.566 585.449 459.264 590.061 457.216C592.713 456.513 595.399 455.944 598.075 455.343Z"/>
	<path fill="#C8E0EA" d="M560.043 492.853L564.302 491.706L563.65 495.528C561.431 495.738 559.217 495.995 556.987 495.997C558.049 495.015 559.037 493.896 560.043 492.853Z"/>
	<path fill="#88969D" d="M562.466 472.676Q562.895 472.211 563.341 471.761C565.991 469.099 572.71 463.754 576.464 463.719C571.908 466.925 568.101 470.21 564.294 474.274C562.933 475.726 561.562 477.887 560.067 479.114L558.179 478.591Q560.287 475.607 562.466 472.676Z"/>
	<path fill="#FEFDFD" d="M564.302 491.706C566.431 488.464 568.421 485.127 570.45 481.821C571.049 483.721 571.531 485.757 572.608 487.448C574.839 491.488 576.99 493.969 580.927 496.526C575.16 495.935 569.459 495.299 563.65 495.528L564.302 491.706Z"/>
	<path fill="#373737" d="M571.036 471.995L570.507 479.548L570.45 481.821C568.421 485.127 566.431 488.464 564.302 491.706L560.043 492.853C559.037 493.896 558.049 495.015 556.987 495.997L553.658 496.348L553.295 495.751L554.235 493.685C556.396 492.225 562.368 482.042 564.376 479.35C566.392 476.648 568.568 474.284 571.036 471.995Z"/>
	<path fill="#99A6AC" d="M560.043 492.853C562.872 488.279 565.74 482.47 569.667 478.8L570.507 479.548L570.45 481.821C568.421 485.127 566.431 488.464 564.302 491.706L560.043 492.853Z"/>
	<path fill="#FEFDFD" d="M614.82 466.713C617.565 467.619 620.997 468.42 622.478 471.171C623.376 472.839 623.363 474.645 622.757 476.407C620.038 484.305 608.71 492.918 601.264 496.202C597.515 497.856 593.604 499.027 589.48 499.092C587.75 498.778 586.454 499.278 584.774 499.492C582.429 499.792 570.815 499.711 569.102 498.349L573.08 497.987C580.416 498.411 587.817 498.178 595.038 496.707C597.951 496.113 603.328 494.826 605 492.316C609.191 490.374 611.745 487.215 613.397 482.932C615.441 477.629 615.432 472.27 614.82 466.713Z"/>
	<path fill="#DE1D0A" d="M576.93 469.922C578.533 468.466 580.425 467.203 582.357 466.22C589.037 462.822 598.291 460.781 605.575 463.342C608.007 464.196 610.809 465.411 612.019 467.813C613.176 474.544 614.071 481.116 609.937 487.12C608.584 489.085 606.755 490.718 605 492.316C603.763 492.43 602.095 493.451 600.893 493.92C596.302 495.714 589.979 497.542 585.112 496.258C579.965 494.9 576.97 490.642 574.367 486.355C573.808 483.829 572.721 481.449 572.551 478.837C572.293 474.861 574.503 472.717 576.93 469.922Z"/>
	<path fill="#57190C" d="M599.534 469.575C600.133 472.529 600.301 474.478 598.632 477.114C597.052 479.609 594.608 481.633 591.642 482.146C589.494 482.518 587.287 482.174 585.574 480.763C585.108 480.38 584.868 480.078 584.486 479.644L585.586 479.134C588.371 479.538 591.88 480.154 594.41 478.573Q594.775 478.341 595.115 478.073Q595.455 477.804 595.765 477.502Q596.075 477.201 596.353 476.869Q596.631 476.536 596.873 476.178Q597.115 475.819 597.319 475.437Q597.523 475.056 597.687 474.655Q597.851 474.254 597.973 473.839Q598.095 473.424 598.174 472.998C598.363 471.98 598.5 471.252 599.042 470.353C599.201 470.09 599.37 469.834 599.534 469.575Z"/>
	<path fill="#7B180C" d="M576.93 469.922C578.533 468.466 580.425 467.203 582.357 466.22C589.037 462.822 598.291 460.781 605.575 463.342C608.007 464.196 610.809 465.411 612.019 467.813L611.582 467.82C607.691 467.854 603.28 466.543 599.661 468.333L599.534 469.575C599.37 469.834 599.201 470.09 599.042 470.353C598.5 471.252 598.363 471.98 598.174 472.998Q598.095 473.424 597.973 473.839Q597.851 474.254 597.687 474.655Q597.523 475.056 597.319 475.437Q597.115 475.819 596.873 476.178Q596.631 476.536 596.353 476.869Q596.075 477.201 595.765 477.502Q595.455 477.804 595.115 478.073Q594.775 478.341 594.41 478.573C591.88 480.154 588.371 479.538 585.586 479.134L584.486 479.644C584.382 479.569 584.257 479.517 584.174 479.419C582.939 477.953 582.265 475.968 582.518 474.063C582.646 473.101 582.872 473.201 583.591 472.694C584.445 474.392 585.423 476.949 587.26 477.784C587.999 478.119 588.553 477.957 589.267 477.592C590.982 476.717 593.863 472.677 594.107 470.755C594.277 469.408 594.053 469.1 593.369 468.021C589.943 466.659 582.888 470.891 577.504 470.02L576.93 469.922Z"/>
	<path fill="#88969D" d="M420.108 410.132C433.839 397.68 497.342 347.804 512.696 348.902C527.853 349.986 590.285 398.715 602.304 411.136C584.529 414.122 550.448 427.291 540.11 442.171C538.101 445.064 536.718 449.04 537.538 452.578C537.752 453.504 538.129 454.358 538.577 455.19C540.199 458.061 543 460.142 545.34 462.431C541.681 473.305 534.956 488.89 535.654 500.39C535.791 502.654 536.506 504.935 537.112 507.112L537.787 507.759C537.854 506.779 537.752 505.965 537.611 505.004C536.713 498.884 540.27 494.599 543.672 489.959C544.265 490.104 544.885 490.287 545.505 490.246C550.422 489.918 555.342 482.207 558.179 478.591L560.067 479.114C556.837 483.985 552.337 489.588 550.254 495.045C548.349 498.235 546.831 501.641 544.763 504.711C544.61 504.939 544.477 505.179 544.334 505.412L544.526 505.65C545.902 504.337 547.148 503.062 548.37 501.605C549.654 500.075 551.004 499.12 552.682 498.077C559.185 497.845 566.73 496.813 573.08 497.987L569.102 498.349C570.815 499.711 582.429 499.792 584.774 499.492C586.454 499.278 587.75 498.778 589.48 499.092C590.115 499.436 590.195 499.527 591.015 499.691C599.771 501.445 610.605 492.127 616.903 487.021C617.046 486.817 617.187 486.611 617.333 486.409C618.31 485.061 619.616 483.42 621.297 483.062C622.129 483.814 622.018 483.418 622.053 484.421C622.179 487.978 619.158 491.863 616.748 494.184C609.516 501.147 596.607 506.109 586.626 506.141C583.021 505.755 579.41 506.197 575.778 505.649C574.853 505.491 573.919 505.378 572.989 505.251L572.824 505.639C573.153 505.901 573.49 506.185 573.844 506.416C581.039 511.091 591.548 513.368 599.923 511.736C619.117 507.996 627.706 491.821 637.744 477.047C642.846 482.202 647.484 488.513 650.764 494.985C656.352 506.012 656.393 516.197 652.886 527.879C642.495 562.484 624.924 566.703 605.468 591.917C599.682 599.416 595.922 607.266 592.943 616.215C599.976 602.755 611.45 591.243 623.14 581.686L613.845 614.968C611.777 622.358 609.913 630.04 606.901 637.107C603.301 645.557 597.33 653.531 592.208 661.14C577.782 682.574 561.807 707.476 538.959 720.723C526.799 727.774 509.045 728.911 495.641 725.312C487.895 723.232 480.538 719.155 474.463 713.94C460.955 702.345 427.395 655.54 420.412 638.966C417.514 632.086 415.632 624.836 413.451 617.71C408.948 602.996 403.931 587.657 396.148 574.339C407.64 585.937 418.793 596.465 428.261 609.872C424.489 600.343 419.111 591.806 412.705 583.83C397.481 564.875 376.299 547.778 375.001 521.366C374.413 509.404 380.495 497.499 388.297 488.771C396.261 498.52 407.529 509.429 420.337 512.011C431.611 514.285 444.445 510.73 453.841 504.396L453.179 504.091C448.057 504.089 441.261 504.047 436.497 502.275C433.831 502.15 430.779 500.767 428.08 500.264C422.751 500.313 412.941 495.97 408.928 492.489C400.164 487.463 393.672 479.27 388.522 470.664L390.637 468.574C387.695 465.844 384.495 463.336 381.417 460.757L382.933 460.342C385.837 459.22 388.151 457.328 390.514 455.367C404.758 448.211 413.387 452.272 427.952 454.259L428.828 454.374C431.037 454.087 432.927 454.733 435.038 455.303C434.33 454.589 433.605 454.004 432.825 453.37C442.509 456.245 459.853 461.154 466.404 469.385L465.855 469.756L464.292 469.422L463.699 470.732C466.447 473.821 471.11 477.413 472.656 481.247C475.926 485.234 480.109 489.159 482.859 493.48C486.34 497.563 486.627 501.528 487.152 506.625L487.441 506.851C492.006 490.45 482.607 478.267 479.361 462.866C479.32 462.671 479.283 462.475 479.245 462.28C481.515 460.304 485.365 457.546 486.271 454.639C486.963 453.75 487.87 452.72 488.247 451.651C488.739 450.258 488.239 448.569 487.69 447.272C482.562 435.153 453.477 420.79 441.806 416.589C434.873 414.094 427.389 413.04 420.572 410.323C420.417 410.261 420.262 410.196 420.108 410.132Z"/>
	<path fill="#1B1716" d="M493.058 633.837C493.974 634.785 494.232 634.895 495.499 635.289C492.498 636.386 488.101 637.551 485.693 639.724C482.883 640.492 477.756 642.658 475.064 641.218C481.182 639.155 487.044 636.207 493.058 633.837Z"/>
	<path fill="#C8E0EA" d="M502.409 632.438C506.034 629.569 510.996 630.256 515.416 630.161C517.663 630.112 521.824 629.544 523.481 631.132L522.027 631.832C517.176 634.064 513.958 635.683 508.547 634.508L502.409 632.438Z"/>
	<path fill="#272829" d="M390.514 455.367C404.758 448.211 413.387 452.272 427.952 454.259L428.828 454.374C443.323 459.328 455.735 463.386 466.112 475.302C467.707 477.134 469.918 479.315 470.914 481.545C471.358 482.539 471.251 482.27 471.373 483.295C460.618 469.473 449.795 461.431 432.763 456.495C423.871 453.917 411.021 450.659 401.788 453.234C399.879 453.767 398.04 454.897 396.31 455.85C393.555 455.557 392.234 455.496 390.014 457.318C387.38 459.481 386.507 460.423 382.933 460.342C385.837 459.22 388.151 457.328 390.514 455.367Z"/>
	<defs>
		<linearGradient id="gradient_1" gradientUnits="userSpaceOnUse" x1="449.03241" y1="459.02142" x2="446.49274" y2="462.7149">
			<stop offset="0" stop-color="#4C4C4C"/>
			<stop offset="1" stop-color="#636465"/>
		</linearGradient>
	</defs>
	<path fill="url(#gradient_1)" d="M432.825 453.37C442.509 456.245 459.853 461.154 466.404 469.385L465.855 469.756L464.292 469.422L463.699 470.732C466.447 473.821 471.11 477.413 472.656 481.247C472.093 483.898 474.71 485.638 475.347 488.096C473.753 486.653 472.487 485.131 471.373 483.295C471.251 482.27 471.358 482.539 470.914 481.545C469.918 479.315 467.707 477.134 466.112 475.302C455.735 463.386 443.323 459.328 428.828 454.374C431.037 454.087 432.927 454.733 435.038 455.303C434.33 454.589 433.605 454.004 432.825 453.37Z"/>
	<path fill="#373737" d="M382.933 460.342C386.507 460.423 387.38 459.481 390.014 457.318C392.234 455.496 393.555 455.557 396.31 455.85L392.418 458.787C401.304 457.58 414.819 455.094 423.598 457.445C412.159 457.391 400.236 459.078 391.719 467.483Q391.173 468.024 390.637 468.574C387.695 465.844 384.495 463.336 381.417 460.757L382.933 460.342Z"/>
	<path fill="#6A6969" d="M616.903 487.021C617.046 486.817 617.187 486.611 617.333 486.409C618.31 485.061 619.616 483.42 621.297 483.062C622.129 483.814 622.018 483.418 622.053 484.421C622.179 487.978 619.158 491.863 616.748 494.184C609.516 501.147 596.607 506.109 586.626 506.141C583.021 505.755 579.41 506.197 575.778 505.649C576.626 505.49 577.437 505.284 578.27 505.064L574.792 504.949C584.431 502.013 594.831 502.18 604.066 497.571C608.028 495.594 615.428 491.391 616.903 487.021Z"/>
	<path fill="#1B1716" d="M472.812 656.318C490.451 667.301 503.995 673.961 525.428 668.932C534.693 666.758 542.567 662.169 550.342 656.832C547.651 659.782 545.024 662.941 541.954 665.5C537.193 666.561 531.221 670.772 525.751 672.299C509.3 676.893 494.899 672.258 480.569 664.127C478.096 661.367 475.554 658.811 472.812 656.318Z"/>
	<path fill="#464E52" d="M480.569 664.127C494.899 672.258 509.3 676.893 525.751 672.299C531.221 670.772 537.193 666.561 541.954 665.5C539.426 669.209 536.319 671.978 532.328 674.04C521.932 679.412 506.177 679.509 495.264 675.754C489.399 673.736 483.336 669.858 480.569 664.127Z"/>
	<path fill="#050504" d="M561.588 642.556C565.573 641.322 567.92 640.36 569.977 636.487Q570.326 635.824 570.658 635.153C571.332 636.071 571.499 636.525 571.272 637.705C570.758 640.362 567.591 642.992 565.297 644.116Q563.488 644.985 561.605 645.678Q559.722 646.371 557.782 646.882Q555.841 647.393 553.861 647.717Q551.881 648.041 549.879 648.176C548.058 648.727 546.185 648.507 544.307 648.425C544.174 648.335 544.056 648.216 543.907 648.154C542.776 647.683 540.789 647.646 539.551 647.474C528.526 645.944 522.268 647.735 511.978 647.715C503.035 647.697 494.56 645.675 485.603 647.787C482.105 648.262 478.653 648.576 475.128 648.768Q473.875 648.655 472.63 648.472C467.639 647.76 458.429 645.031 455.491 640.661C454.565 639.284 454.077 637.316 454.451 635.697L454.894 635.64C455.291 636.587 455.69 637.58 456.233 638.454C457.928 641.183 461.323 642.115 464.212 642.931C467.93 642.459 471.398 642.085 475.064 641.218C477.756 642.658 482.883 640.492 485.693 639.724C485.505 639.941 485.324 640.164 485.129 640.374C484.227 641.347 483.136 641.584 481.927 642.005C481.249 642.241 480.932 642.428 480.438 642.943C483.106 643.501 485.862 643.046 488.633 643.586C497.275 643.216 505.492 645.063 514.015 644.964C516.975 644.93 519.841 644.264 522.763 643.885C532.56 643.999 541.919 643.539 551.661 645.51C555.472 645.347 558.574 645.077 561.588 642.556Z"/>
	<path fill="#272829" d="M475.064 641.218C477.756 642.658 482.883 640.492 485.693 639.724C485.505 639.941 485.324 640.164 485.129 640.374C484.227 641.347 483.136 641.584 481.927 642.005C481.249 642.241 480.932 642.428 480.438 642.943C483.106 643.501 485.862 643.046 488.633 643.586C483.371 644.561 472.635 645.781 467.69 643.767C466.676 643.354 465.77 643.171 464.688 643.002L464.212 642.931C467.93 642.459 471.398 642.085 475.064 641.218Z"/>
	<defs>
		<linearGradient id="gradient_2" gradientUnits="userSpaceOnUse" x1="521.12317" y1="649.34973" x2="518.82513" y2="631.98016">
			<stop offset="0" stop-color="#2C3946"/>
			<stop offset="1" stop-color="#4F5F6D"/>
		</linearGradient>
	</defs>
	<path fill="url(#gradient_2)" d="M522.027 631.832C526.615 632.047 531.153 632.877 535.225 635.124C540.776 637.205 546.101 639.862 551.784 641.582C555.098 642.146 558.218 642.594 561.588 642.556C558.574 645.077 555.472 645.347 551.661 645.51C541.919 643.539 532.56 643.999 522.763 643.885C519.841 644.264 516.975 644.93 514.015 644.964C505.492 645.063 497.275 643.216 488.633 643.586C485.862 643.046 483.106 643.501 480.438 642.943C480.932 642.428 481.249 642.241 481.927 642.005C483.136 641.584 484.227 641.347 485.129 640.374C485.324 640.164 485.505 639.941 485.693 639.724C488.101 637.551 492.498 636.386 495.499 635.289C494.232 634.895 493.974 634.785 493.058 633.837C496.296 632.613 498.949 632.232 502.409 632.438L508.547 634.508C513.958 635.683 517.176 634.064 522.027 631.832Z"/>
	<path fill="#050504" d="M493.058 633.837C496.296 632.613 498.949 632.232 502.409 632.438L508.547 634.508L507.99 636.343C503.524 635.282 500.122 634.487 495.499 635.289C494.232 634.895 493.974 634.785 493.058 633.837Z"/>
	<path fill="#1B1716" d="M522.027 631.832C526.615 632.047 531.153 632.877 535.225 635.124C540.776 637.205 546.101 639.862 551.784 641.582C550.106 642.16 549.199 642.072 547.474 641.695C541.751 640.443 537.127 639.013 531.946 636.179C528.263 634.946 525.272 633.686 521.357 634.698C516.574 636.627 513.164 637.229 507.99 636.343L508.547 634.508C513.958 635.683 517.176 634.064 522.027 631.832Z"/>
	<path fill="#7A7C7E" d="M485.603 647.787C494.56 645.675 503.035 647.697 511.978 647.715C522.268 647.735 528.526 645.944 539.551 647.474C540.789 647.646 542.776 647.683 543.907 648.154C544.056 648.216 544.174 648.335 544.307 648.425L543.831 648.877L546.01 648.997L546.197 649.316C543.25 653.426 537.705 656.394 533.604 659.329C532.926 659.929 532.166 660.451 531.403 660.937C522.196 666.805 501.542 663.318 491.608 661.084C487.537 656.874 482.46 653.285 478.086 649.347C477.205 649.294 476.413 649.285 475.577 648.97C475.423 648.912 475.277 648.835 475.128 648.768C478.653 648.576 482.105 648.262 485.603 647.787Z"/>
	<path fill="#6A6969" d="M485.603 647.787C494.56 645.675 503.035 647.697 511.978 647.715C522.268 647.735 528.526 645.944 539.551 647.474C540.789 647.646 542.776 647.683 543.907 648.154C544.056 648.216 544.174 648.335 544.307 648.425L543.831 648.877L546.01 648.997L546.197 649.316C543.25 653.426 537.705 656.394 533.604 659.329C533.092 657.051 532.572 654.147 531.469 652.083C530.831 650.888 530.094 650.33 528.767 649.991C523.939 648.756 518.603 651.12 513.757 651.451C507.923 651.849 497.766 646.664 492.724 650.785C490.854 652.314 490.502 655.738 490.042 657.97C487 657.511 487.054 653.071 483.451 652.043C482.516 651.776 482.11 651.665 481.258 651.138L483.634 650.812C484.718 650.173 484.958 649.36 485.416 648.253L485.603 647.787Z"/>
	<path fill="#464E52" d="M542.363 576.136C543.732 578.506 545.051 580.963 546.129 583.481C547.294 586.2 548.363 589.913 547.042 592.765C544.496 598.263 521.88 612.535 515.432 614.806C511.046 616.351 508.216 615.762 504.142 613.628C496.568 609.661 479.007 597.346 476.804 589.317C475.589 584.889 477.005 582.238 479.173 578.454C479.639 578.655 479.461 587.319 481.323 590.5C482.305 592.178 484.077 593.892 486 594.34C486.242 593.429 486.564 592.547 486.872 591.656C487.395 591.103 487.854 590.644 488.589 590.379C492.609 588.931 497.685 591.117 501.34 592.788C505.672 593.632 510.325 593.983 514.56 595.072C521.516 594.393 527.836 588.072 535.109 589.83C538.555 590.663 537.835 592.378 539.411 594.822C540.785 594.331 541.92 593.566 542.691 592.303C545.584 587.566 543.754 581.044 542.363 576.136Z"/>
	<path fill="#6A6969" d="M501.34 592.788C505.672 593.632 510.325 593.983 514.56 595.072C510.997 597.026 508.126 595.046 504.614 595.793C503.162 594.886 502.291 594.223 501.34 592.788Z"/>
	<path fill="#050504" d="M528.591 593.527C530.094 593.328 531.17 593.288 532.654 593.627L532.874 594.17C529.564 596.618 525.001 598.197 521.332 600.206C520.035 601.136 518.633 601.828 517.22 602.558C520.446 598.204 523.723 595.743 528.591 593.527Z"/>
	<path fill="#050504" d="M489.062 595.33C489.592 594.441 489.907 593.913 490.986 593.571C494.719 592.391 500.389 595.789 503.389 597.818C504.627 599.277 505.67 600.929 506.756 602.504C501.339 599.884 495.085 596.049 489.062 595.33Z"/>
	<path fill="#C8E0EA" d="M509.193 502.12L514.884 504.244C515.892 521.103 518.291 536.983 522.115 553.456C524.034 561.723 526.869 570.077 528.262 578.425C528.699 581.049 528.565 583.19 526.885 585.367C524.17 588.888 519.249 590.026 515.066 590.478C509.355 590.311 500.92 589.506 496.899 584.965C495.073 582.902 495.044 580.285 495.402 577.687C496.611 568.911 499.949 559.972 501.854 551.233C505.399 534.962 507.599 518.676 509.193 502.12Z"/>
	<path fill="#050504" d="M423.598 457.445C439.607 459.395 454.039 466.277 464.096 479.167C469.695 486.343 478.224 500.409 481.536 508.754C478.399 504.598 475.991 500.008 470.627 498.734C458.373 497.007 447.24 499.328 435.13 499.292L436.669 499.904C435.25 499.819 433.426 499.428 432.16 500.166C433.401 501.715 435.667 500.72 436.497 502.275C433.831 502.15 430.779 500.767 428.08 500.264C422.751 500.313 412.941 495.97 408.928 492.489C400.164 487.463 393.672 479.27 388.522 470.664L390.637 468.574Q391.173 468.024 391.719 467.483C400.236 459.078 412.159 457.391 423.598 457.445Z"/>
	<path fill="#C8E0EA" d="M424.931 496.691C428.288 497.898 431.567 498.894 435.13 499.292L436.669 499.904C435.25 499.819 433.426 499.428 432.16 500.166C433.401 501.715 435.667 500.72 436.497 502.275C433.831 502.15 430.779 500.767 428.08 500.264C426.104 499.618 424.22 498.765 422.314 497.939L424.931 496.691Z"/>
	<path fill="#FEFDFD" d="M399.334 478.993C405.595 483.908 410.747 489.181 417.941 492.893C420.239 494.276 422.484 495.582 424.931 496.691L422.314 497.939C412.562 493.247 404.836 488.535 399.334 478.993Z"/>
	<defs>
		<linearGradient id="gradient_3" gradientUnits="userSpaceOnUse" x1="470.28217" y1="490.84567" x2="459.81326" y2="489.08633">
			<stop offset="0" stop-color="#263A3E"/>
			<stop offset="1" stop-color="#395564"/>
		</linearGradient>
	</defs>
	<path fill="url(#gradient_3)" d="M451.362 473.034C455.657 475.88 470.911 493.014 471.825 497.171C466.186 495.327 459.141 496.082 453.241 495.93C457.513 495.045 462.402 495.584 466.762 495.716C462.568 491.271 458.505 486.723 453.341 483.378C453.022 479.737 452.527 476.52 451.362 473.034Z"/>
	<path fill="#FEFDFD" d="M453.341 483.378C458.505 486.723 462.568 491.271 466.762 495.716C462.402 495.584 457.513 495.045 453.241 495.93C449.362 496.305 444.96 497.203 441.097 496.94L443.183 495.808C444.143 495.483 445.131 495.091 446.023 494.61C450.466 492.216 452.003 487.913 453.341 483.378Z"/>
	<path fill="#FEFDFD" d="M417.739 491.341C416.658 490.988 415.796 490.531 414.829 489.923C410.372 487.12 402.198 481.408 401.175 475.952C400.88 474.38 401.244 472.849 402.24 471.588C403.693 469.748 406.207 468.784 408.477 468.528C409.584 468.402 409.839 468.21 410.744 468.939L411.003 471.739C410.086 478.071 411.971 483.863 415.772 488.944Q416.712 490.178 417.739 491.341Z"/>
	<path fill="#DE1D0A" d="M429.41 467.945C434.704 467.788 441.948 469.13 446.178 472.501C448.157 473.849 449.499 474.665 450.486 476.899C451.479 480.911 451.382 484.379 449.185 487.99Q446.957 491.694 443.929 494.777C443.368 495.353 443.585 495.077 443.183 495.808L441.097 496.94C434.824 497.918 428.377 496.88 423.049 493.281C416.762 489.034 414.643 482.513 413.272 475.459C413.523 473.638 413.68 471.847 414.403 470.142C419.307 467.782 424.079 467.947 429.41 467.945Z"/>
	<path fill="#B21914" d="M429.376 483.016C430.747 482.633 432.024 481.965 433.312 481.367C435.176 482.169 436.238 482.936 437.564 484.474L437.76 485.521C437.268 485.658 437.168 485.696 436.607 485.799C433.409 486.385 431.784 484.761 429.376 483.016Z"/>
	<path fill="#B21914" d="M429.41 467.945C434.704 467.788 441.948 469.13 446.178 472.501C444.585 473.323 440.46 473.974 439.948 475.538L439.034 474.361C435.708 473.657 432.525 473.497 429.135 473.403L430.579 472.635C431.735 472.827 432.792 472.998 433.964 472.819C435.074 472.649 434.645 472.887 435.315 471.952C435.241 471.784 435.187 471.606 435.093 471.449C433.896 469.43 431.574 468.482 429.41 467.945Z"/>
	<path fill="#050504" d="M429.135 473.403C432.525 473.497 435.708 473.657 439.034 474.361L439.948 475.538C437.984 477.931 435.285 479.093 433.312 481.367C432.024 481.965 430.747 482.633 429.376 483.016C429.19 482.935 428.981 482.893 428.818 482.772C427.868 482.067 427.199 480.609 427.02 479.455C426.644 477.033 427.652 475.202 429.135 473.403Z"/>
	<path fill="#0FBFBA" d="M0 0L1024 0L1024 1024L996.625 1024C988.085 1003.11 977.834 982.793 968.418 962.277C959.164 942.114 950.456 918.537 937.863 900.378C932.72 892.962 926.553 886.994 918.889 882.219C906.328 874.394 891.32 869.841 877.989 863.327C852.185 850.719 828.213 835.674 804.785 819.108C817.161 806.171 827.822 793.393 834.535 776.515C843.613 753.691 847.285 727.551 842.451 703.292C837.721 679.559 818.222 647.76 807.154 625.103Q798.741 607.709 791.888 589.643Q785.034 571.577 779.792 552.98C767.93 509.511 762.721 464.328 755.517 419.915Q748.607 376.834 737.483 334.644C734.058 321.566 732.632 308.759 727.209 296.174Q730.474 287.223 733.061 278.052C745.874 231.6 740.496 185.635 731.048 139.159C730.048 134.238 724.931 111.82 723.347 109.035C722.892 110.061 723.06 130.897 723.009 133.655C722.397 167.046 710.769 199.918 691.593 227.081C687.874 219.648 684.038 212.289 679.285 205.451C659.086 176.39 627.513 154.846 597.662 136.829C577.002 124.36 541.786 105.747 517.626 103.507C510.739 102.868 504.119 103.777 497.439 105.455C449.682 117.452 385.359 157.484 352.13 193.8C343.052 203.723 335.644 214.571 328.768 226.093Q327.36 224.103 326.049 222.048C304.934 189.128 296.615 144.52 304.925 106.139C284.094 144.733 280.186 207.937 285.833 250.792C287.827 265.919 291.499 280.474 295.822 295.082C292.772 307.534 289.217 319.863 286.052 332.286C279.304 358.78 272.913 385.872 268.021 412.754Q262.137 445.385 257.472 478.213C255.25 492.992 253.259 507.856 250.193 522.487C247.064 537.417 242.816 552.156 238.243 566.699C230.36 591.771 220.254 616.447 209.445 640.376C197.724 666.325 179.219 691.862 176.874 720.924C173.859 758.288 194.342 791.055 217.425 818.423C200.788 835.004 175.586 848.769 154.771 859.234C136.553 868.394 115.907 874.855 99.7495 887.52C94.355 891.748 90.0435 896.383 86.2296 902.081C77.6953 914.831 71.5706 929.444 65.0856 943.301Q46.5328 983.483 28.7212 1024L0 1024L0 0Z"/>
</svg>
