<?xml version="1.0" encoding="utf-8" ?>
<svg xmlns="http://www.w3.org/2000/svg" xmlns:xlink="http://www.w3.org/1999/xlink" width="1024" height="1024">
	<path fill="#00B1B2" d="M0 0L1024 0L1024 1024L943.042 1024L941.686 1024L937.118 1024L839.235 1024L833.013 1024L828.673 1024L575.858 1024L567.715 1024L561.374 1024L461.074 1024L455.121 1024L445.941 1024L225.137 1024L197.746 1024L191.878 1024L96.2638 1024L84.2363 1024L82.4744 1024L0 1024L0 0Z"/>
	<path fill="#030404" d="M628.995 35.5667C634.079 43.4911 637.739 52.7385 641.216 61.4633Q642.6 64.8745 643.894 68.3208Q645.189 71.7671 646.392 75.246Q647.596 78.725 648.708 82.2343Q649.82 85.7436 650.84 89.2808Q651.86 92.818 652.787 96.3807Q653.714 99.9435 654.547 103.529Q655.38 107.115 656.12 110.721Q656.859 114.328 657.503 117.952Q658.148 121.577 658.697 125.217Q659.246 128.857 659.7 132.51Q660.154 136.163 660.512 139.827Q660.87 143.491 661.132 147.163Q661.394 150.835 661.56 154.512Q661.726 158.19 661.795 161.871Q661.864 165.551 661.837 169.233Q661.81 172.914 661.687 176.593C674.857 188.638 687.382 203.329 695.399 219.303C707.667 243.75 706.759 272.178 716.758 297.261C719.366 303.803 723.147 309.581 726.901 315.497C737.881 332.8 749.622 350.032 750.474 371.222C751.18 388.77 745.705 406.041 740.291 422.513C737.246 431.779 732.854 441.925 733.349 451.809C734.399 472.775 747.498 487.508 756.238 505.052C772.941 538.58 781.606 585.666 757.75 617.647C751.687 625.774 744.04 632.48 737.876 640.465C721.738 661.372 722.273 687.335 731.238 711.159C719.222 698.575 706.754 683.518 705.218 665.478C690.637 696.393 681.3 724.809 693.397 758.929C695.917 766.036 699.864 771.662 704.483 777.538C682.079 762.452 666.571 743.698 654.971 719.481C651.818 731.463 652.558 743.108 655.807 754.958C635.587 733.099 624.179 717.774 611.824 690.65C612.087 702.354 612.404 721.093 618.181 731.201C622.082 738.026 628.237 743.775 633.881 749.17C650.797 765.337 670.401 779.033 690.232 791.363C696.745 795.412 703.605 799.879 710.726 802.75C712.119 801.437 713.967 799.256 716.006 799.314C719.471 799.413 726 803.8 729.283 805.434C736.835 809.194 744.895 812.195 752.931 814.758C773.961 821.466 800.64 826.036 822.512 830.614C825.638 831.268 829.927 831.612 831.916 834.398C832.821 835.666 833.413 837.208 834.03 838.631C852.188 845.1 877.776 850.98 893.231 862.467C899.293 866.972 904.351 872.679 909.055 878.548Q913.877 884.447 917.94 890.892Q922.003 897.338 925.245 904.232C938.798 932.764 937.291 950.472 938.908 980.242Q940.163 1002.2 943.042 1024L941.686 1024L937.118 1024L839.235 1024L833.013 1024L828.673 1024L575.858 1024L567.715 1024L561.374 1024L461.074 1024L455.121 1024L445.941 1024L225.137 1024L197.746 1024L191.878 1024L96.2638 1024L84.2363 1024L82.4744 1024C85.558 1007.6 86.097 990.39 85.9744 973.731C85.8963 963.131 85.1959 952.346 86.5509 941.808C88.7023 925.077 95.4412 908.537 104.051 894.102C112.368 880.158 123.164 867.632 136.619 858.424C147.452 851.011 160.518 847.064 172.893 843.013C177.357 841.552 182.116 840.257 186.383 838.287C189.323 836.929 188.687 831.864 194.167 829.888C204.05 826.323 215.695 826.328 226.019 824.618C242.8 821.84 261.778 816.476 277.415 809.817C286.004 806.159 300.269 795.899 309.538 797.852C310.515 798.058 311.452 798.353 312.399 798.665Q336.104 787.219 358.122 772.792C350.561 765.835 347.53 757.928 347.054 747.777C346.534 736.691 348.707 725.679 346.467 714.659C338.769 732.298 328.379 742.972 310.193 750.146C306.388 751.646 302.551 752.688 298.563 753.569C311.477 740.942 319.804 731.289 319.922 712.317C320.047 692.121 309.178 673.242 299.193 656.275C298.024 677.111 288.907 692.64 273.494 706.556C269.123 710.502 264.382 713.625 259.281 716.527C273.551 697.195 281.058 685.033 277.366 660.15C272.995 630.697 253.519 604.969 253.102 574.926C252.729 548.013 265.304 530.358 278.596 508.467C282.751 501.625 287.133 493.922 288.606 485.963C291.095 472.519 282.137 460.88 277.91 448.884Q277.192 446.82 276.645 444.704Q276.097 442.588 275.723 440.435Q275.35 438.282 275.152 436.105Q274.955 433.928 274.935 431.743C274.765 408.688 289.189 389.86 293.069 367.751C295.793 352.224 294.18 335.78 294.746 320.043C295.372 302.65 296.047 283.247 299.703 266.231C306.368 235.217 326.88 204.594 345.464 179.375Q352.104 170.224 359.919 162.053C361.697 118.789 371.812 75.1954 392.728 36.9978C385.965 67.0733 390.052 107.987 397.329 137.939C405.888 134.696 416.836 130.522 425.797 134.594Q428.228 135.718 430.617 136.928C437.342 122.514 448.017 113.492 463.066 108.048C482.191 101.13 518.858 98.9662 538.882 102.022C551.377 103.928 563.928 108.008 575.335 113.417C593.866 122.205 611.528 133.722 626.089 148.213Q627.031 144.784 627.87 141.328Q628.708 137.871 629.441 134.391Q630.174 130.911 630.801 127.411Q631.428 123.91 631.949 120.392Q632.47 116.874 632.884 113.342Q633.298 109.81 633.605 106.267Q633.912 102.724 634.111 99.1728Q634.311 95.622 634.402 92.0668Q634.494 88.5116 634.478 84.9553Q634.462 81.399 634.338 77.8448Q634.214 74.2906 633.983 70.7417Q633.752 67.1929 633.413 63.6527Q633.074 60.1125 632.628 56.5842Q632.182 53.0559 631.63 49.5428Q631.077 46.0296 630.418 42.5348Q629.759 39.04 628.995 35.5667Z"/>
	<path fill="#151819" d="M475.011 224.017C475.169 222.781 475.449 222.467 476.193 221.501C477.12 220.296 477.955 219.743 479.447 219.526L479.205 221.666L480.015 222.444C479.101 223.676 478.807 224.519 477.314 224.974C476.527 224.675 475.77 224.384 475.011 224.017Z"/>
	<path fill="#808789" d="M348.349 479.335C347.492 472.222 346.343 465.579 349.726 458.934C350.598 464.667 351.228 470.412 351.846 476.177C351.015 477.338 350.237 478.538 349.252 479.574L348.349 479.335Z"/>
	<path fill="#353535" d="M837.834 1006.53C837.954 1012.47 838.076 1018.15 839.235 1024L833.013 1024C833.1 1017.54 835.1 1012.3 837.834 1006.53Z"/>
	<path fill="#525455" d="M343.72 446.278C344.795 447.209 345.791 448.469 346.768 449.516C345.581 454.655 344.837 459.448 345.002 464.746C345.094 467.722 345.495 470.657 345.274 473.635C344.575 472.231 343.91 470.821 343.392 469.34C340.66 461.527 340.093 453.921 343.72 446.278Z"/>
	<path fill="#272B2D" d="M411.082 171.387C412.75 168.291 415.286 169.849 418.034 168.681C417.309 167.416 415.761 168.492 414.69 167.469L416.259 166.053C416.385 164.799 415.866 163.741 415.47 162.561L415.959 162.212L417.111 162.944L416.929 163.393C420.851 165.141 424.459 166.925 428.034 169.318C425.448 168.341 422.106 166.569 419.337 166.789C420.384 168.505 421.921 168.992 423.763 169.499L426.704 170.325L428.08 181.1C426.286 179.429 424.297 177.956 422.58 176.208C418.963 174.442 414.889 174.307 411.097 173.007L411.082 171.387Z"/>
	<path fill="#353535" d="M411.082 171.387C414.268 171.108 419.408 170.494 422.046 172.612C423.014 173.389 423.025 173.631 423.241 174.787L422.58 176.208C418.963 174.442 414.889 174.307 411.097 173.007L411.082 171.387Z"/>
	<path fill="#151819" d="M411.097 173.007C414.889 174.307 418.963 174.442 422.58 176.208C424.297 177.956 426.286 179.429 428.08 181.1C428.285 183.138 428.586 184.999 427.951 186.996L426.713 187.569L428.527 189.368C425.855 189.541 424.578 187.505 421.627 187.838L419.405 185.413C418.237 184.413 416.646 183.045 415.11 182.767C414.327 182.625 414.242 182.956 413.69 183.411C412.155 180.964 411.266 178.213 410.256 175.52L409.704 173.631L411.097 173.007Z"/>
	<path fill="#353535" d="M417.986 181.688C420.881 183.647 423.746 185.725 426.713 187.569L428.527 189.368C425.855 189.541 424.578 187.505 421.627 187.838L419.405 185.413C418.715 184.114 418.294 183.124 417.986 181.688Z"/>
	<path fill="#353535" d="M410.256 175.52C412.935 177.484 415.502 179.482 417.986 181.688C418.294 183.124 418.715 184.114 419.405 185.413C418.237 184.413 416.646 183.045 415.11 182.767C414.327 182.625 414.242 182.956 413.69 183.411C412.155 180.964 411.266 178.213 410.256 175.52Z"/>
	<path fill="#525455" d="M317.573 405.74C319.173 406.673 320.83 407.679 322.142 408.996C328.052 414.925 325.296 423.384 325.242 430.78L325.241 431.234C324.965 434.455 324.617 437.776 323.925 440.937C319.621 427.714 317.361 419.596 317.573 405.74Z"/>
	<path fill="#525455" d="M413.69 183.411C414.242 182.956 414.327 182.625 415.11 182.767C416.646 183.045 418.237 184.413 419.405 185.413L421.627 187.838C424.578 187.505 425.855 189.541 428.527 189.368C430.73 191.592 431.843 195.487 432.687 198.454L432.462 199.204C431.885 198.901 431.637 198.822 431.273 198.262C429.377 197.099 427.547 195.779 425.367 195.24C430.222 201.696 438.504 202.66 436.797 214.442C436.6 215.804 435.965 217.091 435.232 218.242C434.088 217.583 433.051 217.401 431.775 217.174C426.224 210.298 418.047 191.933 413.69 183.411Z"/>
	<path fill="#272B2D" d="M421.627 187.838C424.578 187.505 425.855 189.541 428.527 189.368C430.73 191.592 431.843 195.487 432.687 198.454L432.462 199.204C431.885 198.901 431.637 198.822 431.273 198.262L431.577 197.901C430.317 195.003 424.045 190.886 421.627 187.838Z"/>
	<defs>
		<linearGradient id="gradient_0" gradientUnits="userSpaceOnUse" x1="685.60443" y1="448.64386" x2="660.64569" y2="483.60696">
			<stop offset="0" stop-color="#4E5355"/>
			<stop offset="1" stop-color="#727374"/>
		</linearGradient>
	</defs>
	<path fill="url(#gradient_0)" d="M670.74 447.814C672.924 446.27 676.202 443.429 678.981 443.614C680.621 443.724 681.672 444.787 682.543 446.053C692.578 460.63 679.706 469.275 678.057 480.943C678.014 481.247 677.987 481.553 677.951 481.859L678.065 482.767C676.678 484.679 675.442 486.208 673.585 487.704L671.928 488.825C669.678 490.234 667.52 490.629 664.903 490.66Q669.287 469.437 670.74 447.814Z"/>
	<defs>
		<linearGradient id="gradient_1" gradientUnits="userSpaceOnUse" x1="356.78781" y1="466.69724" x2="316.62122" y2="431.47675">
			<stop offset="0" stop-color="#343F40"/>
			<stop offset="1" stop-color="#4B575C"/>
		</linearGradient>
	</defs>
	<path fill="url(#gradient_1)" d="M327.51 415.653C331.491 422.092 334.313 428.955 337.544 435.765C339.062 438.962 340.887 442.072 342.201 445.352C338.398 455.371 339.344 463.704 343.754 473.374C344.706 475.463 346.083 478.269 347.909 479.655L348.349 479.335L349.252 479.574L349.519 481.043L348.241 481.511C343.141 480.883 335.261 471.268 331.938 467.361C331.77 464.852 327.357 458.459 326.227 455.147C324.666 450.572 324.338 445.718 323.925 440.937C324.617 437.776 324.965 434.455 325.241 431.234C326.326 426.069 327.382 420.951 327.51 415.653Z"/>
	<path fill="#525455" d="M398.086 141.643C405.85 138.705 413.369 136.198 421.789 137.169C423.765 137.397 426.692 138.084 427.799 139.969C428.735 141.563 428.182 142.477 427.79 144.147C427.267 147.126 427.026 152.955 425.526 155.397L423.61 155.006L422.473 155.762C423.622 156.57 425.281 157.459 425.99 158.65C425.26 159.389 425.678 159.039 424.715 159.674L425.803 161.237L425.283 162.013C421.217 161.911 416.687 158.746 412.287 158.197L412.981 158.603C417.096 160.985 421.652 162.349 425.721 164.75C423.506 165.212 419.452 163.452 417.111 162.944L415.959 162.212L415.47 162.561C415.866 163.741 416.385 164.799 416.259 166.053L414.69 167.469C415.761 168.492 417.309 167.416 418.034 168.681C415.286 169.849 412.75 168.291 411.082 171.387L411.097 173.007L409.704 173.631C407.983 168.794 405.628 164.075 403.757 159.272C401.514 153.51 399.79 147.581 398.086 141.643Z"/>
	<path fill="#151819" d="M415.129 147.723C419.169 145.707 423.409 145.031 427.79 144.147C427.267 147.126 427.026 152.955 425.526 155.397L423.61 155.006L422.473 155.762C419.823 155.425 416.446 152.569 414.109 151.234C413.904 151.237 413.699 151.261 413.495 151.244C412.079 151.129 411.994 150.988 411.156 149.93L411.556 149.242C412.643 148.989 413.547 148.806 414.483 148.174C414.701 148.028 414.914 147.874 415.129 147.723Z"/>
	<path fill="#353535" d="M414.109 151.234C413.904 151.237 413.699 151.261 413.495 151.244C412.079 151.129 411.994 150.988 411.156 149.93L411.556 149.242C412.643 148.989 413.547 148.806 414.483 148.174C414.701 148.028 414.914 147.874 415.129 147.723C417.178 149.237 419.479 150.708 421.331 152.447L420.4 152.117C418.846 151.574 416.302 150.394 414.683 150.943C414.48 151.012 414.3 151.137 414.109 151.234Z"/>
	<path fill="#151819" d="M592.953 273.368C597.233 277.952 600.983 283.816 604.598 288.962C615.27 304.151 625.097 320.856 637.369 334.82C644.436 342.861 652.859 349.687 661.5 355.966C664.656 358.259 668.173 360.147 671.101 362.724C671.223 362.832 671.343 362.944 671.464 363.054C665.95 362.426 658.849 359.426 653.981 356.84C624.672 341.272 602.57 304.42 592.953 273.368Z"/>
	<path fill="#151819" d="M665.894 366.785C671.855 368.686 678.403 369.173 684.176 371.279C690.002 373.404 692.199 377.74 694.604 383.022C691.918 391.51 689.216 396.395 682.845 402.814C679.489 406.466 676.133 410.237 672.443 413.551C668.352 402.812 666.138 378.717 665.894 366.785Z"/>
	<path fill="#939698" d="M652.494 112.938C661.803 151.675 658.36 194.671 649.269 233.091C647.283 241.484 645.23 250.598 641.768 258.512C636.758 258.487 631.944 257.995 626.973 257.478C630.176 252.518 632.341 246.175 634.66 240.752Q635.915 237.842 637.092 234.9Q638.269 231.958 639.368 228.985Q640.466 226.012 641.484 223.011Q642.502 220.01 643.44 216.983Q644.378 213.956 645.234 210.905Q646.091 207.854 646.866 204.781Q647.641 201.708 648.333 198.616Q649.026 195.523 649.635 192.414Q650.245 189.304 650.771 186.179Q651.298 183.054 651.74 179.916Q652.183 176.778 652.542 173.629Q652.901 170.481 653.175 167.324Q653.45 164.166 653.64 161.003Q653.83 157.84 653.935 154.673Q654.041 151.505 654.062 148.336Q654.083 145.167 654.019 141.999C653.931 134.36 650.637 119.179 652.494 112.938Z"/>
	<path fill="#525455" d="M713.45 808.948L718.05 811.038C693.856 895.448 655.688 955.692 586.294 1010.44C580.268 1015.2 573.912 1019.48 567.715 1024L561.374 1024Q563.04 1022.96 564.674 1021.87C605.907 994.351 645.673 951.774 670.811 908.977C678.86 895.272 685.374 880.759 692.091 866.377C700.646 848.06 709.446 828.864 713.45 808.948Z"/>
	<path fill="#00B1B2" d="M407.388 692.465C407.452 692.54 407.535 692.603 407.58 692.692C409.261 695.992 405.889 721.895 404.803 726.564C400.082 746.868 375.326 761.97 358.718 772.196C358.559 771.921 358.371 771.66 358.242 771.369C356.865 768.289 358.439 761.066 359.235 757.828C362.31 745.311 369.262 731.609 379.313 723.278C393.993 711.11 399.495 712.302 407.388 692.465Z"/>
	<path fill="#AFB1B4" d="M613.808 251.397C616.513 246.061 619.529 240.911 622.112 235.502C633.804 211.021 642.184 184.94 645.368 157.955C647.69 138.274 646.65 118.708 647.154 98.9705C647.181 97.9082 647.141 97.1811 647.738 96.2658C648.164 97.1261 647.925 96.7777 648.625 97.5682C648.799 97.7643 648.979 97.9552 649.155 98.1487Q650.953 105.514 652.494 112.938C650.637 119.179 653.931 134.36 654.019 141.999Q654.083 145.167 654.062 148.336Q654.041 151.505 653.935 154.673Q653.83 157.84 653.64 161.003Q653.45 164.166 653.175 167.324Q652.901 170.481 652.542 173.629Q652.183 176.778 651.74 179.916Q651.298 183.054 650.771 186.179Q650.245 189.304 649.635 192.414Q649.026 195.523 648.333 198.616Q647.641 201.708 646.866 204.781Q646.091 207.854 645.234 210.905Q644.378 213.956 643.44 216.983Q642.502 220.01 641.484 223.011Q640.466 226.012 639.368 228.985Q638.269 231.958 637.092 234.9Q635.915 237.842 634.66 240.752C632.341 246.175 630.176 252.518 626.973 257.478C622.259 255.923 618.051 253.975 613.808 251.397Z"/>
	<path fill="#656B6C" d="M357.769 514.198C352.454 513.921 347.58 513.046 343.426 509.386C341.382 507.586 339.625 504.223 338.32 501.823C335.407 496.467 333.644 490.518 330.82 485.097C327.407 478.545 321.781 471.874 319.523 464.871C316.78 456.365 317.23 446.571 315.778 437.759C314.335 428.999 311.215 420.49 310.693 411.585C310.424 406.991 310.348 398.909 313.701 395.435C314.949 394.141 316.755 393.488 318.542 393.565C323.555 393.782 328.873 399.395 332.192 402.789C342.307 413.135 339.325 417.363 342.515 430.229C343.167 432.859 344.643 434.027 345.829 436.245C347.179 438.769 346.453 444.815 346.413 447.813C335.801 434.28 333.264 411.939 316.564 403.818Q316.174 407.358 316.131 410.92C316.045 420.333 319.685 428.771 321.687 437.802C323.226 444.744 323.491 452.09 326.106 458.745C327.497 462.286 329.319 464.663 331.938 467.361C335.261 471.268 343.141 480.883 348.241 481.511L349.519 481.043C350.536 480.194 351.246 479.007 352.024 477.938L352.359 477.987C354.044 489.983 356.86 502.151 357.769 514.198Z"/>
	<path fill="#525455" d="M328.88 473.74C337.029 476.156 340.521 488.092 345.678 494.097C337.706 491.115 334.296 480.576 329.306 474.271L328.88 473.74Z"/>
	<path fill="#AFB1B4" d="M834.035 841.925C863.206 852.751 885.686 854.906 906.538 880.817Q911.557 887.072 915.771 893.896Q919.984 900.72 923.329 908.009C937.86 939.984 934.328 967.595 938.041 1001.08C938.877 1008.62 939.598 1016.7 941.686 1024L937.118 1024C935.245 1011.54 932.825 999.17 931.092 986.682C926.625 954.505 924.35 917.103 902.855 890.853C888.293 873.07 872.024 863.479 850.622 856.223C845.57 854.509 839.797 852.396 834.499 851.88C834.415 848.557 834.377 845.233 834.035 841.925Z"/>
	<path fill="#AFB1B4" d="M671.444 429.252C671.453 429.075 671.46 428.897 671.471 428.72C672.04 419.713 680.864 409.021 687.445 403.286C690.02 401.042 693.199 397.986 696.778 398.061C698.293 398.897 698.785 399.607 699.303 401.268C705.656 421.651 691.063 481.312 680.853 499.405C678.6 503.398 674.417 510.235 669.67 511.362C668.159 511.72 666.243 511.442 664.936 510.577C663.591 509.687 662.9 508.514 662.647 506.95C661.83 501.897 664.347 495.775 664.903 490.66C667.52 490.629 669.678 490.234 671.928 488.825L673.585 487.704C675.442 486.208 676.678 484.679 678.065 482.767L677.951 481.859C679.795 478.488 681.278 474.889 682.852 471.383C685.292 466.647 686.675 461.399 687.532 456.174C686.241 450.478 684.397 446.354 680.565 441.913C679.767 441.491 679.103 441.3 678.238 441.066C674.982 441.65 673.172 443.633 670.834 445.796C671.098 440.304 670.733 434.706 671.444 429.252Z"/>
	<path fill="#808789" d="M679.848 434.897C683.749 439.464 688.478 444.332 687.983 450.848C687.84 452.737 687.387 454.232 687.532 456.174C686.241 450.478 684.397 446.354 680.565 441.913C679.526 439.276 679.438 437.711 679.848 434.897Z"/>
	<path fill="#808789" d="M682.852 471.383C683.2 474.24 683.713 476.904 681.776 479.297C681.116 480.112 680.384 480.871 679.659 481.627L679.624 482.537C681.43 481.369 682.919 480.331 683.756 478.298C684.28 477.026 684.693 476.389 685.739 475.496C686.332 476.288 686.19 476.238 686.039 477.19C685.349 481.548 682.447 485.484 680.793 489.533C680.301 490.738 679.722 491.93 678.426 492.454C676.943 493.054 675.138 492.474 673.824 491.756L671.928 488.825L673.585 487.704C675.442 486.208 676.678 484.679 678.065 482.767L677.951 481.859C679.795 478.488 681.278 474.889 682.852 471.383Z"/>
	<path fill="#656B6C" d="M678.065 482.767C679.531 482.922 680.801 482.042 681.781 482.384C680.739 484.831 677.575 489.789 675.222 490.87C675.067 490.942 674.896 490.973 674.732 491.024C673.931 489.903 674.266 489.513 673.915 488.304C673.851 488.085 673.695 487.904 673.585 487.704C675.442 486.208 676.678 484.679 678.065 482.767Z"/>
	<path fill="#5F5B5D" d="M674.485 430.368C678.796 429.486 680.231 420.519 684.641 418.816C685.173 420.557 685.638 422.426 686.534 424.019C686.683 424.285 686.841 424.545 686.995 424.808C683.498 426.604 681.553 428.477 680.377 432.282C680.106 433.162 679.892 433.974 679.848 434.897C679.438 437.711 679.526 439.276 680.565 441.913C679.767 441.491 679.103 441.3 678.238 441.066C674.982 441.65 673.172 443.633 670.834 445.796C671.098 440.304 670.733 434.706 671.444 429.252C671.524 431.611 671.577 433.973 671.741 436.328C672.586 434.37 673.324 432.15 674.485 430.368Z"/>
	<path fill="#525455" d="M674.485 430.368C677.013 425.446 687.98 409.14 693.534 407.806C694.373 407.604 695.083 407.738 695.719 408.353C699.594 412.097 695.004 437.702 694.411 443.559C694.005 447.56 693.972 451.577 693.932 455.595L693.63 454.702L693.643 455.913C692.149 452.316 692.596 446.18 691.997 442.187C691.091 436.149 689.277 430.455 686.995 424.808C686.841 424.545 686.683 424.285 686.534 424.019C685.638 422.426 685.173 420.557 684.641 418.816C680.231 420.519 678.796 429.486 674.485 430.368Z"/>
	<path fill="#656B6C" d="M84.2363 1024C87.1939 1008.8 88.4288 992.933 88.5387 977.463C88.6232 965.565 87.8058 953.419 89.4364 941.607C91.9963 923.064 100.297 904.582 110.794 889.179C127.302 864.956 145.019 855.547 172.164 846.892C177.225 845.278 182.684 842.7 187.858 841.728C188.609 842.93 188.426 844.137 188.492 845.532C151.467 858.478 128.525 872.935 111.015 909.383C97.0725 938.404 97.9332 964.611 97.4754 995.7C97.3364 1005.14 96.631 1014.57 96.2638 1024L84.2363 1024Z"/>
	<defs>
		<linearGradient id="gradient_2" gradientUnits="userSpaceOnUse" x1="584.31384" y1="263.87595" x2="523.31396" y2="316.02988">
			<stop offset="0" stop-color="#51595B"/>
			<stop offset="1" stop-color="#727477"/>
		</linearGradient>
	</defs>
	<path fill="url(#gradient_2)" d="M437.239 218.514C438.329 217.508 439.521 216.519 440.539 215.445C442.106 216.981 444.444 219.719 446.686 220C446.855 220.021 447.027 219.994 447.197 219.992C447.312 218.808 447.279 219.38 447.305 218.275C447.92 218.856 448.507 219.468 449.118 220.049C449.833 220.728 450.28 220.856 451.21 221.074C452.133 220.662 452.015 220.535 452.462 219.685L451.735 220.005L453.38 219.983L454.637 222.206L455.466 222.397C455.903 221.759 456.175 221.194 456.441 220.468C456.884 221.186 456.994 221.751 457.187 222.562C458.697 223.298 459.852 223.661 461.506 223.954C462.827 223.202 462.792 221.424 463.869 221.103C463.951 222.221 463.8 223.992 464.419 224.902C466.078 224.662 466.98 223.329 468.283 222.304L468.59 224.159C470.229 225.268 471.833 225.231 473.801 225.155C474.195 224.798 474.679 224.428 475.011 224.017C475.77 224.384 476.527 224.675 477.314 224.974C478.807 224.519 479.101 223.676 480.015 222.444L481.064 221.635C481.575 222.736 481.534 223.529 481.574 224.715L482.231 225.682C486.257 226.359 497.105 228.936 500.638 228.601C500.711 228.594 501.548 228.007 501.593 227.97C501.859 227.751 502.272 227.308 502.521 227.048C503.292 227.457 503.99 227.861 504.724 228.333C506.821 229.678 511.788 229.093 514.348 229.476C518.75 230.134 522.863 232.439 527.339 233.06C534.71 234.083 542.639 233.741 549.837 235.199C556.991 236.648 570.296 249.077 576.005 253.974C577.837 255.547 580.112 257.366 581.519 259.333C585.762 265.268 591.145 280.913 594.259 288.269C604.595 312.681 617.009 334.096 637.74 351.321C645.063 357.406 652.673 362.607 661.774 365.641L661.905 371.023C659.262 369.004 654.897 367.87 651.802 366.486C648.7 365.099 645.75 363.503 642.827 361.776C624.498 350.946 605.337 339.206 594.461 320.276C590.141 312.757 586.968 304.533 583.091 296.775C570.27 271.115 552.226 252.513 526.352 239.986C520.007 236.914 513.238 233.785 506.214 232.717C493.657 230.807 481.771 233.178 468.286 230.366C455.89 227.78 448.436 222.269 437.239 218.514Z"/>
	<path fill="#808789" d="M636.321 57.2485C641.697 70.3284 646.219 84.309 649.155 98.1487C648.979 97.9552 648.799 97.7643 648.625 97.5682C647.925 96.7777 648.164 97.1261 647.738 96.2658C647.141 97.1811 647.181 97.9082 647.154 98.9705C646.65 118.708 647.69 138.274 645.368 157.955C642.184 184.94 633.804 211.021 622.112 235.502C619.529 240.911 616.513 246.061 613.808 251.397C602.152 243.13 595.799 234.226 592.953 220.173L595.149 217.359C630.425 171.691 643.622 114.204 636.321 57.2485Z"/>
	<path fill="#151819" d="M192.092 833.669C203.543 829.414 215.979 829.531 227.92 827.626C239.033 825.853 250.098 822.731 260.838 819.419Q269.793 816.63 278.385 812.87C283.967 810.375 297.572 802.257 302.658 801.756L302.786 802.589L302.674 801.736L302.041 801.503L302.613 802.808C302.197 803.216 301.783 803.589 301.449 804.076C296.997 810.566 302.823 835.463 304.827 843.125C298.844 842.832 292.474 842.234 286.65 844.014C271.109 848.763 253.809 861.425 239.982 869.986C227.838 877.506 210.766 887.016 200.018 896.008C195.23 878.27 192.123 852.244 192.092 833.669Z"/>
	<path fill="#151819" d="M345.661 516.075C349.673 517.806 353.343 518.345 357.639 518.831C358.121 527.409 360.684 536.227 362.226 544.682C364.284 555.967 366.193 567.439 370.369 578.176C376.863 594.871 392.033 610.802 403.752 624.302C405.28 639.82 406.633 655.606 406.68 671.207C406.728 687.263 397.358 701.087 386.456 712.128C382.484 716.317 377.356 720.062 372.951 723.84C381.297 696.658 379.469 671.222 364.206 646.629C356.193 633.719 348.866 624.007 345.724 608.597C340.05 580.764 345.707 560.673 346.144 533.59C346.236 527.898 346.587 521.688 345.661 516.075Z"/>
	<defs>
		<linearGradient id="gradient_3" gradientUnits="userSpaceOnUse" x1="354.69089" y1="170.42911" x2="413.95715" y2="154.90266">
			<stop offset="0" stop-color="#687175"/>
			<stop offset="1" stop-color="#999DA1"/>
		</linearGradient>
	</defs>
	<path fill="url(#gradient_3)" d="M378.734 258.926C377.984 257.6 377.303 256.255 376.735 254.84C373.889 247.747 372.213 240.005 370.394 232.597C356.544 176.18 364.192 109.041 386.547 55.6972C386.503 64.0454 385.637 72.3353 385.825 80.7104C386.801 124.025 397.194 158.776 416.507 197.316C422.083 208.443 429.845 219.036 434.956 230.029C435.047 230.226 435.135 230.426 435.225 230.624C433.263 238.764 428.451 244.111 422.275 249.415C418.377 252.372 414.339 255.246 409.967 257.468Q409.36 257.733 408.748 257.987C399.102 261.987 388.489 262.986 378.734 258.926Z"/>
	<path fill="#AFB1B4" d="M409.967 257.468C409.551 257.077 409.483 257.042 409.094 256.506C405.44 251.466 402.7 244.064 400.218 238.326C384.946 203.02 379.245 166.832 378.301 128.599C378.143 122.197 377.176 114.593 378.372 108.351C378.656 109.271 378.577 108.934 378.76 109.806L378.877 110.383L380.231 110.749C380.364 110.653 380.522 110.583 380.631 110.46C381.765 109.174 381.503 106.513 381.761 104.88C385.615 154.662 395.047 206.66 422.275 249.415C418.377 252.372 414.339 255.246 409.967 257.468Z"/>
	<defs>
		<linearGradient id="gradient_4" gradientUnits="userSpaceOnUse" x1="612.01361" y1="615.59882" x2="700.9892" y2="613.49622">
			<stop offset="0" stop-color="#040606"/>
			<stop offset="1" stop-color="#353A3B"/>
		</linearGradient>
	</defs>
	<path fill="url(#gradient_4)" d="M695.234 467.944C697.315 476.275 700.34 485.952 698.559 494.551C697.738 498.512 695.94 502.583 695.574 506.585C695.259 510.039 696.208 513.591 696.053 517.083C696.086 517.419 696.114 517.755 696.15 518.09C696.504 521.381 697.641 524.83 698.446 528.05C701.035 538.407 703.558 548.872 702.168 559.62C699.631 579.235 686.703 592.545 676.396 608.384C671.962 615.197 667.85 622.454 665.539 630.293C659.175 651.886 660.509 690.017 666.731 711.605C669.551 721.39 673.307 727.816 677.16 736.843C680.456 741.46 685.841 752.507 687.853 757.983C683.997 755.978 680.354 751.453 677.556 748.201C667.107 736.057 660.106 722.993 654.149 708.216C651.655 702.029 649.487 695.734 646.65 689.689C647.021 698.614 650.069 707.422 652.921 715.821C649.581 724.921 649.873 734.274 649.698 743.84C641.341 734.253 634.262 724.139 628.003 713.074C616.85 693.356 612.271 686.672 612.807 663.867C612.914 659.318 612.786 654.587 613.2 650.065C613.368 648.233 613.903 646.463 614.078 644.628C614.662 638.471 614.294 629.607 617.108 624.065C618.782 620.767 621.312 618.005 623.658 615.177C629.179 608.518 634.484 602.189 637.73 594.071C648.215 567.846 654.633 539.66 662.175 512.491C662.231 513.014 662.372 513.509 662.649 513.965C663.21 514.888 664.462 515.413 665.477 515.649C668.644 516.386 672.455 514.575 674.978 512.812C678.231 510.539 680.535 507.399 682.881 504.25C692.636 491.154 692.662 483.703 695.234 467.944Z"/>
	<path fill="#030404" d="M677.16 736.843C674.068 735.347 668.471 724.904 666.722 721.357C655.19 697.968 653.851 657.291 660.131 632.165Q661.368 627.111 663.301 622.279Q665.233 617.448 667.822 612.934C677.057 596.497 692.113 582.532 696.826 563.905C698.509 557.254 698.811 550.466 698.294 543.645C697.841 537.673 693.704 519.529 695.231 515.03L696.053 517.083C696.086 517.419 696.114 517.755 696.15 518.09C696.504 521.381 697.641 524.83 698.446 528.05C701.035 538.407 703.558 548.872 702.168 559.62C699.631 579.235 686.703 592.545 676.396 608.384C671.962 615.197 667.85 622.454 665.539 630.293C659.175 651.886 660.509 690.017 666.731 711.605C669.551 721.39 673.307 727.816 677.16 736.843Z"/>
	<path fill="#939698" d="M834.499 851.88C839.797 852.396 845.57 854.509 850.622 856.223C872.024 863.479 888.293 873.07 902.855 890.853C924.35 917.103 926.625 954.505 931.092 986.682C932.825 999.17 935.245 1011.54 937.118 1024L839.235 1024C838.076 1018.15 837.954 1012.47 837.834 1006.53L843.716 992.948C837.961 999.029 834.013 1005.75 830.373 1013.25C825.693 1003.68 822.658 992.599 821.628 982.001C819.849 963.688 822.569 945.136 825.383 927.07C829.244 902.281 834.328 877.027 834.499 851.88Z"/>
	<path fill="#525455" d="M96.2638 1024C96.631 1014.57 97.3364 1005.14 97.4754 995.7C97.9332 964.611 97.0725 938.404 111.015 909.383C128.525 872.935 151.467 858.478 188.492 845.532C190.946 873.666 197.503 900.802 201.734 928.654C203.342 939.235 205.586 950.618 205.041 961.328C204.091 979.996 198.544 998.431 193.455 1016.29C190.114 1009.61 186.119 1003.2 182.339 996.764C185.044 1006.02 189.12 1014.79 191.878 1024L96.2638 1024Z"/>
	<path fill="#353535" d="M200.018 896.008C210.766 887.016 227.838 877.506 239.982 869.986C253.809 861.425 271.109 848.763 286.65 844.014C292.474 842.234 298.844 842.832 304.827 843.125C331.177 915.444 384.042 978.919 445.941 1024L225.137 1024L197.746 1024C197.436 1022.75 197.129 1021.53 197.285 1020.23C197.98 1014.45 200.316 1008.16 201.796 1002.5C205.574 988.049 209.479 971.733 209.067 956.762C208.92 951.106 207.89 945.25 207.19 939.631C205.384 925.127 203.258 910.268 200.018 896.008Z"/>
	<path fill="#151819" d="M209.067 956.762C209.744 962.757 213.619 965.825 217.16 970.366C229.703 986.453 230.636 1004.95 225.137 1024L197.746 1024C197.436 1022.75 197.129 1021.53 197.285 1020.23C197.98 1014.45 200.316 1008.16 201.796 1002.5C205.574 988.049 209.479 971.733 209.067 956.762Z"/>
	<defs>
		<linearGradient id="gradient_5" gradientUnits="userSpaceOnUse" x1="250.71822" y1="462.32877" x2="409.24771" y2="452.30563">
			<stop offset="0" stop-color="#1A3438"/>
			<stop offset="1" stop-color="#444D4F"/>
		</linearGradient>
	</defs>
	<path fill="url(#gradient_5)" d="M359.356 167.492C360.415 169.733 359.962 185.307 360.249 189.099C361.196 201.58 362.916 213.772 365.196 226.077C354.073 235.949 330.847 274.672 324.348 288.822C338.582 269.348 350.646 248.14 365.703 229.345C368.138 240.039 370.612 251.777 375.428 261.672C382.706 266.574 391.681 266.48 400.034 265.309C391.208 279.693 385.55 296.691 376.195 310.415C372.002 316.568 366.163 321.751 361.155 327.258C338.399 352.283 332.605 361.063 328.329 395.443C325.897 393.245 323.193 390.832 319.967 389.952Q319.505 389.826 319.032 389.75Q318.559 389.674 318.081 389.65Q317.603 389.625 317.125 389.652Q316.647 389.679 316.174 389.756Q315.702 389.834 315.24 389.962Q314.779 390.091 314.334 390.267Q313.889 390.444 313.466 390.668Q313.042 390.891 312.645 391.159C309.396 393.307 308.122 397.074 307.537 400.748C305.629 412.731 309.499 423.202 311.859 434.746C313.748 443.985 313.587 453.523 315.876 462.735C318.01 471.324 323.446 478.642 327.512 486.387C332.412 495.719 336.153 504.886 342.452 513.517Q342.777 528.163 341.782 542.778C339.902 569.617 335.537 597.182 346.6 622.818C350.963 632.929 358.38 640.828 363.332 650.506C371.223 665.929 372.281 679.379 369.971 696.114C369.393 700.301 368.896 704.707 367.601 708.733C367.28 682.718 367.213 669.288 349.204 648.48C350.449 653.864 352.227 659.115 353.517 664.49C354.671 669.295 355.365 674.25 356.165 679.125L355.493 679.499L356.231 679.683L355.734 680.022L356.261 680.11L356.073 680.591C354.428 677.37 353.998 673.693 353.058 670.222Q351.203 663.564 348.217 657.331C344.471 649.493 339.397 642.213 335.227 634.584C327.098 619.715 321.913 603.371 321.162 586.34C320.919 580.834 321.601 575.32 321.366 569.775C317.899 583.945 315.721 597.98 316.531 612.624C318.759 630.274 327.875 643.27 335.876 658.621C344.165 674.523 348.318 695.659 342.644 713.113C336.895 730.798 321.803 741.226 305.955 749.281C310.818 745.444 314.654 740.044 317.48 734.565C325.395 719.217 323.84 699.86 317.416 684.27C313.832 675.57 308.869 667.401 304.511 659.069C299.83 650.118 295.514 641.102 291.897 631.667C288.923 623.908 286.159 615.904 284.639 607.723C283.766 603.025 283.46 596.095 282.075 591.813L281.781 592.046C281.52 606.007 285.148 620.697 289.719 633.78C292.243 641.006 297.462 649.004 297.285 656.748C296.871 674.928 284.334 692.499 271.941 704.763Q272.358 704.145 272.765 703.52Q273.523 702.361 274.235 701.174C299.126 659.263 257.596 615.793 257.39 573.517C257.244 543.364 273.558 527.471 285.843 502.357C288.751 496.413 291.404 489.952 291.912 483.283C292.906 470.24 285.53 460.631 281.181 449.032Q280.414 446.944 279.82 444.8Q279.227 442.656 278.812 440.471Q278.397 438.285 278.163 436.073Q277.929 433.861 277.878 431.637C277.188 408.43 291.579 389.481 295.592 367.213C298.538 350.864 297.499 333.384 298.281 316.766C299.064 300.105 299.234 282.515 302.82 266.191C309.458 235.977 338.008 190.193 359.356 167.492Z"/>
	<path fill="#030404" d="M362.392 274.003C361.586 280.841 332.954 317.032 327.046 323.19C326.935 318.939 357.179 279.589 362.392 274.003Z"/>
	<path fill="#030404" d="M310.236 484.941L310.613 485.355C311.406 488.512 311.079 492.116 310.986 495.354C310.333 517.913 301.399 541.966 290.599 561.58L290.255 561.323C293.277 553.334 296.879 545.582 299.673 537.488C305.5 520.611 308.667 502.678 310.236 484.941Z"/>
	<path fill="#151819" d="M286.711 547.867C286.914 549.217 278.392 578.535 277.568 583.078C276.782 587.412 277.616 593.81 275.921 597.608L275.169 597.34L274.931 596.683C269.135 580.349 279.807 562.258 286.711 547.867Z"/>
	<path fill="#353535" d="M720.47 805.959C718.35 805.151 716.238 804.324 714.086 803.602L714.724 803.85L715.622 803.136L715.26 803.159C715.408 803.169 715.556 803.176 715.704 803.189C721.577 803.708 728.1 808.71 733.578 811.048C736.973 812.497 740.554 813.619 744.052 814.792C763.356 821.266 783.347 824.98 803.217 829.272C808.138 830.335 826.174 832.99 828.859 836.198C833.25 841.445 829.867 869.025 828.977 876.58C824.904 911.16 814.577 949.018 818.036 983.733C818.791 991.319 820.897 998.691 823.378 1005.87C825.369 1011.64 828.236 1017.9 828.673 1024L575.858 1024C620.075 990.755 660.232 950.675 686.898 901.738C693.96 888.778 699.872 874.996 705.384 861.31C711.305 846.61 718.001 830.463 720.205 814.72C720.613 811.808 720.551 808.892 720.47 805.959Z"/>
	<defs>
		<linearGradient id="gradient_6" gradientUnits="userSpaceOnUse" x1="479.72931" y1="513.63293" x2="748.43561" y2="282.40607">
			<stop offset="0" stop-color="#4A4A4A"/>
			<stop offset="1" stop-color="#525E62"/>
		</linearGradient>
	</defs>
	<path fill="url(#gradient_6)" d="M445.183 123.298C450.383 119.243 455.549 114.832 461.646 112.184C479.539 104.415 516.522 102.593 536.197 105.038C567.411 108.917 602.848 129.544 624.983 151.682C620.052 169.706 610.33 186.635 600.038 202.075C577.575 177.845 559.897 165.257 526.65 160.729C526.8 160.8 526.948 160.873 527.099 160.943C532.146 163.28 537.692 164.397 542.764 166.673C561.965 175.29 584.821 190.18 596.811 207.472L589.272 214.454C586.897 222.001 589.432 228.762 592.938 235.51C598.75 246.698 610.223 256.153 621.904 260.668C627.017 262.27 632.221 263.179 637.602 262.878C640.13 262.631 643.931 262.726 645.659 260.568C649.393 255.905 651.505 242.419 653.069 236.159C656.035 240.927 659.879 245.113 663.273 249.577Q670.216 258.876 676.072 268.895C687.111 287.655 694.153 308.152 703.028 327.938C708.908 341.047 715.811 353.42 720.668 366.984C721.285 368.707 722.435 370.545 722.64 372.346C722.66 372.517 722.683 372.687 722.705 372.858L722.993 372.703L723.054 371.294L722.637 371.835L723 371.265C719.323 357.629 713.075 345.321 707.969 332.247C693.405 294.956 684.116 262.79 653.438 234.81C657.624 217.589 660.722 198.739 661.169 180.986C673.729 193.235 685.284 206.833 693.151 222.634C704.756 245.944 703.862 273.063 713.476 297.017C724.111 323.515 746.237 341.136 746.652 372.745C746.822 385.677 743.812 398.944 740.034 411.28C735.996 424.467 728.747 439.111 730.184 453.162C732.316 474.017 741.26 485.214 750.923 502.441C763.587 525.017 770.489 553.303 768.271 579.068C764.27 625.557 724.538 630.436 721.668 672.902C721.163 680.374 722.363 687.85 723.238 695.252C715.554 686.732 708.959 673.964 709.735 662.207C710.457 651.272 718.166 640.94 723.943 632.004C715.166 640.49 710.026 649.884 704.327 660.527C693.868 680.062 685.062 699.698 684.613 722.342C684.469 729.612 685.196 737.085 686.389 744.261C687.119 748.657 689.669 755.09 689.197 759.373C688.42 758.85 688.305 758.736 687.853 757.983C685.841 752.507 680.456 741.46 677.16 736.843C673.307 727.816 669.551 721.39 666.731 711.605C660.509 690.017 659.175 651.886 665.539 630.293C667.85 622.454 671.962 615.197 676.396 608.384C686.703 592.545 699.631 579.235 702.168 559.62C703.558 548.872 701.035 538.407 698.446 528.05C697.641 524.83 696.504 521.381 696.15 518.09C696.114 517.755 696.086 517.419 696.053 517.083C696.208 513.591 695.259 510.039 695.574 506.585C695.94 502.583 697.738 498.512 698.559 494.551C700.34 485.952 697.315 476.275 695.234 467.944C700.455 446.265 708.781 417.851 699.946 396.478C700.661 394.379 701.027 392.478 701.027 390.251C701.026 373.052 684.937 366.255 672.707 358.219C635.94 334.057 624.176 305.635 598.283 272.836C593.735 267.075 589.156 260.992 583.957 255.802C576.25 248.108 567.263 241.484 558.683 234.793C536.38 217.401 505.967 193.371 476.387 193.461C463.688 193.499 453.779 197.91 444.914 206.793C447.117 203.347 449.663 200.179 452.283 197.047L451.399 196.755C449.427 197.735 447.805 199.696 446.245 201.236L445.857 200.779C447.396 199.449 448.749 198.119 450.052 196.555L449.429 196.188L450.187 196.044C448.962 196.185 448.302 197.043 447.448 197.852L447.012 198.27L446.665 198.208C448.278 195.356 460.759 182.908 463.599 180.966C464.945 180.045 466.73 179.037 466.731 177.156C466.732 175.752 466.106 175.162 465.232 174.226C462.662 173.336 454.536 176.23 451.249 176.65C449.171 176.915 446.091 177.277 444.337 175.927C444.219 172.777 448.762 170.972 449.914 168.312C450.305 167.41 448.936 166.88 449.324 165.358C455.264 160.348 463.941 160.988 471.154 160.441L470.824 159.965C465.669 159.13 460.098 160.752 454.959 161.194C454.039 161.273 453.203 161.246 452.336 161.608C450.437 162.402 448.747 162.867 446.701 163.185C445.03 163.444 443.272 163.873 441.857 162.849L442.886 162.168C446.351 160.253 449.972 158.559 453.51 156.778C449.383 156.373 434.963 164.31 430.6 166.536C430.523 155.566 431.062 140.775 437.177 131.299C439.598 128.343 442.259 125.749 445.183 123.298Z"/>
	<path fill="#353535" d="M474.891 145.888C476.218 145.081 479.253 144.483 480.797 144.743C480.977 144.773 481.149 144.842 481.325 144.892L481.51 145.566C480.903 146.299 481.025 146.487 480.032 146.587C478.691 146.723 477.627 146.765 476.4 147.359L476.419 147.867C477.604 147.928 478.805 147.927 479.984 148.031L480.241 148.424C477.23 150.118 474.041 149.7 470.918 151.231C467.486 152.914 463.612 153.835 460.02 155.151C455.576 156.779 451.277 158.85 447.041 160.951C452.785 161.507 458.38 158.185 465.773 159.039C459.533 159.814 448.299 162.543 442.886 162.168C446.351 160.253 449.972 158.559 453.51 156.778C460.556 155.008 465.966 149.825 472.541 147.376C473.379 147.065 474.193 146.714 475.018 146.368L474.891 145.888Z"/>
	<path fill="#272B2D" d="M445.183 123.298C444.513 124.859 444.048 125.489 444.276 127.199C445.578 127.865 446.617 127.658 447.984 127.234C452.982 125.685 457.739 122.955 462.597 120.985C458.657 123.987 454.768 127.227 450.645 129.965C454.396 129.015 457.967 127.628 461.621 126.378C457.848 130.018 454.288 134.322 450.095 137.452C450.19 137.173 450.32 136.904 450.379 136.616C450.436 136.339 450.408 136.05 450.44 135.768C450.646 133.915 451.343 132.822 452.797 131.665C454.707 131.348 455.622 130.982 456.863 129.458C455.168 129.22 454.597 129.726 453.08 130.483C452.415 130.815 451.734 131.228 451.001 131.388C449.857 131.637 448.541 131.884 447.591 131.187C449.115 128.769 454.033 126.239 456.464 124.553C450.379 127.01 443.763 129.146 438.311 132.824C438.061 132.993 437.814 133.167 437.565 133.339L437.153 132.999L437.177 131.299C439.598 128.343 442.259 125.749 445.183 123.298Z"/>
	<path fill="#272B2D" d="M465.773 159.039C469.333 159.016 472.801 159.338 476.339 159.7L476.529 160.001C468.043 162.194 458.447 163.543 451.924 170.165C452.282 170.921 452.473 171.139 453.06 171.692C452.736 172.898 451.831 173.622 450.978 174.478C450.008 174.709 449.553 174.626 448.87 175.386C449.886 175.987 450.061 176.16 451.263 175.759C451.502 175.68 451.717 175.539 451.951 175.446C453.718 174.747 455.603 174.934 457.417 174.492C464.454 172.777 469.87 172.947 477.123 173.238C471.39 177.011 466.066 180.303 461.253 185.255C462.844 184.354 465.007 182.704 466.819 182.815C462.546 186.574 457.324 188.073 453.705 192.743C457.534 192.918 457.457 190.362 459.168 190.308C457.219 192.522 454.738 195.441 452.283 197.047L451.399 196.755C449.427 197.735 447.805 199.696 446.245 201.236L445.857 200.779C447.396 199.449 448.749 198.119 450.052 196.555L449.429 196.188L450.187 196.044C448.962 196.185 448.302 197.043 447.448 197.852L447.012 198.27L446.665 198.208C448.278 195.356 460.759 182.908 463.599 180.966C464.945 180.045 466.73 179.037 466.731 177.156C466.732 175.752 466.106 175.162 465.232 174.226C462.662 173.336 454.536 176.23 451.249 176.65C449.171 176.915 446.091 177.277 444.337 175.927C444.219 172.777 448.762 170.972 449.914 168.312C450.305 167.41 448.936 166.88 449.324 165.358C455.264 160.348 463.941 160.988 471.154 160.441L470.824 159.965C465.669 159.13 460.098 160.752 454.959 161.194C454.039 161.273 453.203 161.246 452.336 161.608C450.437 162.402 448.747 162.867 446.701 163.185C445.03 163.444 443.272 163.873 441.857 162.849L442.886 162.168C448.299 162.543 459.533 159.814 465.773 159.039Z"/>
	<path fill="#151819" d="M456.464 124.553C454.033 126.239 449.115 128.769 447.591 131.187C448.541 131.884 449.857 131.637 451.001 131.388C451.734 131.228 452.415 130.815 453.08 130.483C454.597 129.726 455.168 129.22 456.863 129.458C455.622 130.982 454.707 131.348 452.797 131.665C451.343 132.822 450.646 133.915 450.44 135.768C450.408 136.05 450.436 136.339 450.379 136.616C450.32 136.904 450.19 137.173 450.095 137.452L449.802 137.743C449.281 138.567 448.795 139.355 448.355 140.226C449.702 141.355 452.281 139.738 453.93 140.774C452.582 142.635 447.187 145.482 444.923 146.338Q442.295 148.363 439.606 150.307C442.936 149.685 446.041 148.059 449.122 146.689C456.212 143.537 462.553 140.694 470.311 139.648C466.723 140.791 463.201 141.866 459.846 143.601L459.608 144.133C464.028 144.466 468.354 142.541 472.782 142.508Q467.661 144.857 462.705 147.538Q468.805 146.765 474.891 145.888L475.018 146.368C474.193 146.714 473.379 147.065 472.541 147.376C465.966 149.825 460.556 155.008 453.51 156.778C449.383 156.373 434.963 164.31 430.6 166.536C430.523 155.566 431.062 140.775 437.177 131.299L437.153 132.999L437.565 133.339C437.814 133.167 438.061 132.993 438.311 132.824C443.763 129.146 450.379 127.01 456.464 124.553Z"/>
	<path fill="#353535" d="M444.923 146.338C445.914 144.396 447.443 144.631 448.607 143.037C446.553 143.306 445.002 144.747 442.999 144.881L442.952 144.158C444.619 141.699 447.108 139.054 449.802 137.743C449.281 138.567 448.795 139.355 448.355 140.226C449.702 141.355 452.281 139.738 453.93 140.774C452.582 142.635 447.187 145.482 444.923 146.338Z"/>
	<path fill="#656B6C" d="M621.904 260.668C627.017 262.27 632.221 263.179 637.602 262.878C641.75 267.938 646.496 281.001 649.387 287.32Q659.464 309.923 670.521 332.063C659.205 320.855 648.285 309.014 639.374 295.794C635.645 290.261 620.739 266.539 621.904 260.668Z"/>
	<path fill="#656B6C" d="M716.895 478.26C716.983 478.379 717.079 478.492 717.16 478.616C718.792 481.118 719.833 484.841 721.015 487.631C724.904 496.806 729.039 505.966 732.238 515.408C742.905 546.899 742.02 575.954 720.717 603.073C712.37 613.699 702.536 623.232 695.154 634.605C684.687 650.733 678.997 668.235 675.17 686.922C674.928 689.083 674.141 691.101 673.887 693.242C673.615 695.54 674.009 697.75 673.377 700.012C672.562 697.501 673.486 694.613 673.168 691.975C672.903 689.781 672.18 687.72 672.103 685.481C671.947 680.943 672.617 676.102 673.28 671.618C679.472 629.791 711.234 598.123 719.381 556.639C724.994 528.05 715.943 505.459 716.895 478.26Z"/>
	<path fill="#939698" d="M407.329 627.286C409.362 629.629 411.52 631.822 413.703 634.023C431.509 651.654 465.458 687.713 488.027 696.086Q496.093 697.241 504.234 697.614Q512.374 697.986 520.512 697.574C527.665 697.25 535.625 696.644 542.256 693.693C562.585 684.646 595.59 645.719 611.843 627.907C610.404 635.639 609.731 643.523 609.028 651.348C608.984 672.443 604.58 712.686 613.889 731.078C617.517 738.244 623.705 744.4 629.332 750.054C652.028 772.857 684.679 794.815 713.45 808.948C709.446 828.864 700.646 848.06 692.091 866.377C685.374 880.759 678.86 895.272 670.811 908.977C645.673 951.774 605.907 994.351 564.674 1021.87Q563.04 1022.96 561.374 1024L461.074 1024L455.121 1024C446.408 1017.4 437.246 1011.6 428.734 1004.66C383.687 967.92 336.751 910.731 314.803 856.287C310.192 844.85 305.849 832.969 304.651 820.616C304.257 816.557 303.525 809.286 306.043 805.831C308.204 802.866 320.398 798.23 324.386 796.106C341.835 786.81 359.823 776.719 376.142 765.545C384.789 759.624 393.444 752.375 400.111 744.255C403.889 739.653 406.556 734.604 408.105 728.849C414.38 705.545 409.693 652.428 407.329 627.286Z"/>
	<path fill="#525455" d="M376.87 844.894C387.242 845.994 397.761 849.591 408.092 851.449C418.05 853.24 428.349 853.576 438.23 855.47C432.523 855.576 426.792 856.077 421.088 855.976C406.053 855.709 390.278 851.64 376.87 844.894Z"/>
	<path fill="#353535" d="M540.751 858.368L540.942 859.176C539.512 863.753 536.14 868.033 532.759 871.355C527.729 876.297 521.117 880.096 513.876 879.91C505.235 879.688 498.066 874.045 492.328 868.123Q490.746 865.801 489.19 863.462C491.528 865.932 493.814 868.342 496.668 870.233C503.834 874.98 513.617 876.492 522.009 874.611C531.175 872.557 536.059 865.836 540.751 858.368Z"/>
	<path fill="#030404" d="M561.841 782.136C567.111 772.51 569.944 761.498 573.289 751.111L585.093 714.697L584.583 714.217L585.291 714.23L585.525 713.531L586.103 713.615C579.304 744.384 566.147 791.202 548.065 816.971C552.214 805.221 557.701 793.933 561.841 782.136Z"/>
	<path fill="#030404" d="M356.995 838.76C363.182 838.644 369.149 841.391 375.262 841.906C385.461 843.779 395.671 845.727 405.934 847.218C427.039 850.285 449.362 851.27 467.517 863.879L466.504 863.387L466.514 864.765L466.638 863.57C457.622 859.825 448.159 855.517 438.23 855.47C428.349 853.576 418.05 853.24 408.092 851.449C397.761 849.591 387.242 845.994 376.87 844.894Q366.974 841.693 356.995 838.76Z"/>
	<path fill="#AFB1B4" d="M414.325 860.216Q416.811 860.045 419.302 859.989Q421.793 859.933 424.284 859.991Q426.776 860.05 429.261 860.223Q431.747 860.396 434.222 860.683Q436.697 860.971 439.157 861.372Q441.616 861.773 444.054 862.287Q446.492 862.801 448.904 863.427Q451.316 864.053 453.697 864.789C467.218 869.077 473.979 875.734 480.432 888.228C478.018 886.888 475.652 885.456 473.271 884.059C451.85 870.974 427.196 867.21 403.365 860.777Q408.848 860.563 414.325 860.216Z"/>
	<path fill="#030404" d="M594.812 853.488C586.897 853.879 579.074 855.053 571.549 857.59C568.824 858.509 556.668 864.26 555.818 864.301L556.967 863.833L556.486 863.549Q559.302 861.607 562.275 859.912Q565.247 858.218 568.354 856.785Q571.461 855.352 574.678 854.19Q577.896 853.028 581.202 852.146C595.12 848.508 610.168 848.442 624.442 846.943Q655.267 843.932 685.564 837.507C677.866 840.475 670.082 842.99 661.977 844.582L664.228 845.136C652.456 850.31 639.343 850.97 627.316 855.092Q620.474 855.982 613.599 856.56L613.221 855.992C614.048 855.911 614.867 855.844 615.697 855.807L616.456 855.776C609.231 855.27 602.04 854.084 594.812 853.488Z"/>
	<path fill="#525455" d="M594.812 853.488C603.78 851.421 613.918 851.677 623.11 850.643C636.118 849.18 649.074 846.78 661.977 844.582L664.228 845.136C652.456 850.31 639.343 850.97 627.316 855.092Q620.474 855.982 613.599 856.56L613.221 855.992C614.048 855.911 614.867 855.844 615.697 855.807L616.456 855.776C609.231 855.27 602.04 854.084 594.812 853.488Z"/>
	<path fill="#AFB1B4" d="M627.316 855.092C633.07 856.675 664.077 849.891 671.819 848.669C658.955 857.214 628.618 865.553 612.612 867.455C601.96 868.721 591.708 868.732 581.234 871.623C573.924 873.64 567.097 876.725 560.568 880.558C556.316 883.053 552.262 885.895 547.65 887.687C547.503 887.744 547.357 887.807 547.21 887.868C551.893 876.395 559.194 869.888 570.448 865.184C580.753 860.878 591.478 859.309 602.425 857.606C605.801 857.081 610.626 858.362 613.599 856.56Q620.474 855.982 627.316 855.092Z"/>
	<path fill="#525455" d="M407.329 627.286C409.362 629.629 411.52 631.822 413.703 634.023C431.509 651.654 465.458 687.713 488.027 696.086Q496.093 697.241 504.234 697.614Q512.374 697.986 520.512 697.574C527.665 697.25 535.625 696.644 542.256 693.693C562.585 684.646 595.59 645.719 611.843 627.907C610.404 635.639 609.731 643.523 609.028 651.348C601.633 664.046 595.528 680.948 591.374 695.151C589.736 700.752 588.605 708.583 586.103 713.615L585.525 713.531L585.291 714.23L584.583 714.217L585.093 714.697L573.289 751.111C569.944 761.498 567.111 772.51 561.841 782.136C561.911 775.129 566.898 758.346 568.484 750.4C572.453 730.515 575.398 710.388 579.637 690.562C571.321 699.924 563.204 709.822 554.105 718.433C542.383 729.526 520.871 743.933 504.994 747.12C497.441 748.635 483.885 747.881 477.81 752.44C473.679 755.54 472.361 759.618 472.399 764.65C472.402 764.978 472.414 765.305 472.427 765.633C472.993 780.206 485.739 830.68 492.451 842.943L492.285 843.519C492.255 843.2 492.264 842.876 492.195 842.563C492.137 842.301 491.695 841.215 491.582 840.931L490.447 841.318C477.988 821.562 462.531 805.08 445.976 788.784C424.027 809.513 400.337 825.381 375.262 841.906C369.149 841.391 363.182 838.644 356.995 838.76C349.686 836.995 342.742 833.857 335.491 831.903C327.982 835.673 321.071 840.248 314.089 844.89Q318.026 853.812 322.06 862.691C332.667 864.21 344.619 868.832 355.042 871.947C365.289 875.01 375.829 877.554 385.943 880.99C367.094 879.892 347.766 876.234 329.171 872.9Q331.952 878.599 334.92 884.204Q337.888 889.808 341.038 895.312Q344.189 900.816 347.519 906.213Q350.849 911.609 354.356 916.894Q357.862 922.178 361.541 927.344Q365.219 932.51 369.066 937.551Q372.913 942.593 376.923 947.505Q380.934 952.418 385.105 957.195Q389.275 961.973 393.601 966.61Q397.927 971.247 402.403 975.74Q406.879 980.232 411.501 984.575Q416.122 988.917 420.885 993.105Q425.647 997.293 430.544 1001.32Q435.442 1005.35 440.47 1009.21Q445.498 1013.08 450.65 1016.78Q455.803 1020.47 461.074 1024L455.121 1024C446.408 1017.4 437.246 1011.6 428.734 1004.66C383.687 967.92 336.751 910.731 314.803 856.287C310.192 844.85 305.849 832.969 304.651 820.616C304.257 816.557 303.525 809.286 306.043 805.831C308.204 802.866 320.398 798.23 324.386 796.106C341.835 786.81 359.823 776.719 376.142 765.545C384.789 759.624 393.444 752.375 400.111 744.255C403.889 739.653 406.556 734.604 408.105 728.849C414.38 705.545 409.693 652.428 407.329 627.286Z"/>
	<path fill="#353535" d="M413.703 634.023C431.509 651.654 465.458 687.713 488.027 696.086C487.251 696.197 486.532 696.283 485.746 696.298C471.569 696.573 461.197 687.563 451.503 678.273C442.781 669.914 434.721 660.738 426.584 651.812C422.668 647.517 417.203 642.621 414.355 637.557C413.75 636.48 413.732 635.229 413.703 634.023Z"/>
	<path fill="#353535" d="M427.387 696.754C429.701 701.068 431.21 706.249 432.987 710.847L444.787 741.137C449.467 752.839 457.087 767.703 460.536 779.099C460.28 778.9 459.945 778.652 459.7 778.423C456.158 775.1 453.178 770.136 450.497 766.093C436.289 744.658 429.265 722.227 427.387 696.754Z"/>
	<path fill="#939698" d="M431.775 217.174C433.051 217.401 434.088 217.583 435.232 218.242L437.239 218.514C448.436 222.269 455.89 227.78 468.286 230.366C481.771 233.178 493.657 230.807 506.214 232.717C513.238 233.785 520.007 236.914 526.352 239.986C552.226 252.513 570.27 271.115 583.091 296.775C586.968 304.533 590.141 312.757 594.461 320.276C605.337 339.206 624.498 350.946 642.827 361.776C645.75 363.503 648.7 365.099 651.802 366.486C654.897 367.87 659.262 369.004 661.905 371.023C663.106 393.704 667.49 416.003 667.573 438.805C667.724 479.833 656.513 520.799 644.899 559.835C641.37 571.695 638.229 584.644 632.344 595.568C625.826 607.667 613.808 619.797 604.563 630.086C587.843 648.695 567.922 670.703 547.941 685.616C545.522 687.71 542.48 689.515 539.496 690.633C527.914 694.969 495.634 695.155 484.329 689.884C461.542 679.26 382.465 599.886 374.345 576.502C370.216 564.61 368.006 552.14 365.668 539.803Q360.261 511.79 356.398 483.522C354.526 470.489 351.914 457.043 351.387 443.879C351.154 438.073 351.913 432.135 352.295 426.34Q353.009 415.275 353.03 404.187C353.008 391.045 351.012 377.85 354.794 365.058C360.557 345.563 371.735 328.821 381.103 311.003C389.122 295.753 396.292 279.947 403.733 264.402C409.045 262.893 413.984 260.481 418.945 258.103C426.83 252.934 436.17 243.977 438.332 234.421C439.849 227.715 435.178 222.461 431.775 217.174Z"/>
	<path fill="#DEDDDE" d="M536.467 504.257C536.009 502.547 535.47 500.744 536.158 499.045L537.004 498.969C538.682 500.219 539.169 502.068 539.895 503.948L536.467 504.257Z"/>
	<path fill="#656B6C" d="M516.501 566.198L516.582 571.463C516.056 571.414 516.33 571.405 515.7 571.537C514.27 571.837 513.341 571.956 511.899 571.709C510.759 570.671 510.542 569.744 510.15 568.319C511.949 568.525 513.466 568.912 515.18 569.492C515.848 568.45 516.125 567.369 516.501 566.198Z"/>
	<path fill="#656B6C" d="M492.434 477.323C494.042 477.913 495.753 478.717 497.439 479.005C497.04 481.48 496.389 483.979 495.86 486.433C494.56 483.46 493.525 480.378 492.434 477.323Z"/>
	<path fill="#656B6C" d="M534.382 524.416C535.87 524.132 537.324 523.725 538.708 524.591C539.989 525.393 540.974 526.609 541.133 528.156C541.296 529.748 540.823 531.33 539.698 532.489C539.513 532.679 539.319 532.861 539.129 533.047L539.01 529.816C538.942 529.501 538.881 529.186 538.806 528.873C538.228 526.463 536.346 525.624 534.382 524.416Z"/>
	<path fill="#AFB1B4" d="M539.895 503.948C541.559 506.755 543.383 509.387 545.291 512.033C544.073 512.782 542.842 513.516 541.645 514.296C539.443 511.045 537.612 508.034 536.467 504.257L539.895 503.948Z"/>
	<path fill="#DEDDDE" d="M545.291 512.033C546.73 514.705 547.852 517.088 548.103 520.166C548.412 522.683 548.228 525.07 548.038 527.583L547.552 528.009C546.121 525.708 545.76 523.379 545.015 520.826L541.645 514.296C542.842 513.516 544.073 512.782 545.291 512.033Z"/>
	<path fill="#353535" d="M522.736 532.65L523.051 533.05C523.34 532.877 523.635 532.713 523.919 532.53C531.205 527.841 533.314 533.618 538.07 532.09L539.01 529.816L539.129 533.047C534.588 536.269 528.156 535.535 522.956 537.407C522.346 535.736 522.442 534.356 522.736 532.65Z"/>
	<path fill="#030404" d="M534.382 524.416C536.346 525.624 538.228 526.463 538.806 528.873C538.881 529.186 538.942 529.501 539.01 529.816L538.07 532.09C533.314 533.618 531.205 527.841 523.919 532.53C523.635 532.713 523.34 532.877 523.051 533.05L522.736 532.65C523.433 529.609 524.914 528.296 527.032 526.211C527.278 526.129 527.526 526.051 527.771 525.966C530.036 525.183 531.991 524.682 534.382 524.416Z"/>
	<path fill="#5F5B5D" d="M516.501 566.198C516.133 559.611 515.753 552.976 514.912 546.43C518.678 552.093 522.296 558.993 520.932 566.073C520.63 567.643 520.065 569.351 518.723 570.339C518.086 570.808 517.299 571.135 516.582 571.463L516.501 566.198Z"/>
	<path fill="#5F5B5D" d="M508.831 542.188L512.153 541.632C514.456 550.825 514.956 560.057 515.18 569.492C513.466 568.912 511.949 568.525 510.15 568.319C511.22 562.645 510.241 547.964 508.831 542.188Z"/>
	<path fill="#5F5B5D" d="M455.435 594.537C467.316 596.357 477.062 624.785 510.185 626.797C522.451 627.542 532.193 623.973 542.028 616.801C543.285 615.885 544.489 614.843 545.824 614.048C544.459 617.519 541.063 621.1 538.188 623.412C528.834 630.933 515.617 631.714 504.152 630.359C482.276 627.775 481.703 623.453 467.954 607.839C463.966 603.311 459.139 599.247 455.435 594.537Z"/>
	<path fill="#EF0609" d="M497.528 340.095C505.565 345.833 511.455 354.134 519.64 359.634C524.511 362.907 530.31 363.519 535.317 366.28C537.223 367.331 539.007 368.803 540.738 370.121C542.652 371.224 544.988 372.212 545.52 374.581C545.719 375.465 545.622 376.33 545.53 377.217C543.985 380.015 541.933 383.462 538.592 384.305Q538.26 384.391 537.92 384.44Q537.58 384.489 537.236 384.5Q536.893 384.512 536.551 384.485Q536.208 384.459 535.871 384.395Q535.533 384.331 535.205 384.23Q534.877 384.13 534.561 383.994Q534.246 383.858 533.948 383.688Q533.649 383.518 533.371 383.316C532.482 382.68 531.655 381.94 530.833 381.221C519.991 375.157 504.507 350.591 497.528 340.095Z"/>
	<path fill="#E63D3C" d="M540.738 370.121C542.652 371.224 544.988 372.212 545.52 374.581C545.719 375.465 545.622 376.33 545.53 377.217C544.434 377.152 543.392 376.783 542.545 377.531C540.998 378.899 539.808 381.144 537.801 381.776C536.272 381.606 535.975 381.374 534.702 380.474C536.338 379.995 538.657 379.408 539.821 378.092C541.388 376.323 540.794 372.369 540.738 370.121Z"/>
	<path fill="#EF0609" d="M456.419 259.735C456.927 260.788 456.848 260.384 456.961 261.445C457.744 268.787 464.473 293.482 468.508 299.402C471.697 304.081 476.589 307.94 479.135 312.968C480.9 316.454 485.051 324.122 483.77 328.073C483.061 328.343 482.413 328.619 481.729 328.954C482.333 332.302 484.997 335.346 486.009 338.742C484.011 338.091 482.143 336.404 480.416 335.185C474.248 330.834 468.839 327.021 464.796 320.493C453.893 302.892 451.667 279.589 456.419 259.735Z"/>
	<path fill="#AFB1B4" d="M514.164 432.262C515.007 432.869 514.896 432.684 515.475 433.478C517.16 435.79 517.662 439.644 518.219 442.386C520.974 455.935 521.817 469.741 524.593 483.274C525.897 489.627 531.063 504.492 529.986 510.354C529.536 512.803 527.656 514.201 525.728 515.508C522.803 516.661 520.209 516.756 517.255 515.599C515.184 514.788 513.461 513.232 512.677 511.12C510.08 504.121 510.796 454.392 511.778 443.861C512.152 439.847 512.638 436.019 514.164 432.262Z"/>
	<path fill="#030404" d="M541.543 399.199C538.69 400.049 535.774 401.342 532.836 400.299C532.355 399.599 531.979 399.396 532.081 398.49C532.49 394.85 536.778 390.976 539.568 388.975C541.431 387.638 543.67 386.381 545.847 385.612C556.328 381.911 567.096 378.897 577.588 375.105C586.137 372.016 594.545 367.875 603.284 365.446C606.912 364.438 610.914 363.57 614.672 364.257C624.777 366.105 637.412 378.282 643.19 386.32Q635.758 382.933 628.266 379.681C607.49 370.85 598.306 377.415 578.885 385.214C571.985 386.784 565.037 389.939 558.448 392.497C552.846 394.672 546.974 396.636 541.543 399.199Z"/>
	<defs>
		<linearGradient id="gradient_7" gradientUnits="userSpaceOnUse" x1="506.79654" y1="562.48871" x2="492.5105" y2="507.69528">
			<stop offset="0" stop-color="#585758"/>
			<stop offset="1" stop-color="#6E7071"/>
		</linearGradient>
	</defs>
	<path fill="url(#gradient_7)" d="M480.74 507.772L481.477 508.089C482.884 507.657 483.423 506.572 484.24 505.445Q484.862 504.605 485.471 503.755C488.362 505.516 493.822 513.537 494.587 516.718C494.722 517.281 494.703 517.517 494.711 518.049C499.328 523.49 507.683 527.303 514.81 527.817C519.23 528.136 522.791 526.797 527.032 526.211C524.914 528.296 523.433 529.609 522.736 532.65C522.442 534.356 522.346 535.736 522.956 537.407C519.43 539.194 515.574 539.953 512.153 541.632L508.831 542.188C507.706 542.397 506.603 542.536 505.602 543.128C504.969 543.503 501.759 564.984 501.108 567.37C499.803 561.706 499.626 555.307 497.568 549.895C494.288 541.272 480.237 541.386 474.287 533.551C471.851 530.343 471.458 526.327 472.087 522.447C473.261 515.198 475.533 509.685 481.653 505.237C481.793 506.216 481.189 506.909 480.74 507.772Z"/>
	<path fill="#030404" d="M493.415 523.967C499.424 527.262 502.16 528.107 505.871 534.352L500.107 533.157C496.254 532.827 492.458 532.465 488.588 532.646L488.06 533.581C487.289 532.448 486.536 531.051 486.429 529.653C486.323 528.269 486.533 527.225 487.499 526.175C489.077 524.461 491.233 524.267 493.415 523.967Z"/>
	<path fill="#353535" d="M488.588 532.646C488.797 531.076 488.804 530.768 489.781 529.546C491.309 528.779 492.51 528.825 494.112 529.347C496.126 530.004 498.879 531.402 500.107 533.157C496.254 532.827 492.458 532.465 488.588 532.646Z"/>
	<path fill="#808789" d="M480.74 507.772L481.477 508.089C482.884 507.657 483.423 506.572 484.24 505.445Q484.862 504.605 485.471 503.755C488.362 505.516 493.822 513.537 494.587 516.718C494.722 517.281 494.703 517.517 494.711 518.049C493.126 518.778 491.411 519.376 490.091 520.524C490.244 520.602 490.397 520.678 490.549 520.757C491.814 521.419 492.541 521.823 493.307 523.09L493.415 523.967C491.233 524.267 489.077 524.461 487.499 526.175C486.533 527.225 486.323 528.269 486.429 529.653C486.536 531.051 487.289 532.448 488.06 533.581C488.382 534.94 489.056 535.711 489.918 536.762L490.281 537.199L489.433 537.551C485.727 536.697 482.319 534.407 479.861 531.529C477.088 528.282 476.496 523.424 476.842 519.327C477.099 516.283 478.374 509.762 480.74 507.772Z"/>
	<path fill="#030404" d="M421.464 402.056C425.671 400.981 434.044 401.857 437.877 403.891C444.036 404.264 455.653 407.505 460.303 411.832C460.853 412.344 460.895 412.488 461.227 413.052L460.585 413.836C449.906 410.75 439.816 405.697 428.37 407.239L427.875 407.689C432.264 408.397 436.559 407.964 440.923 409.183C450.559 411.875 458.056 419.412 465.125 426.061C467.36 428.164 470.02 430.305 471.857 432.74C472.855 434.063 473.746 435.588 473.408 437.301C473.262 438.043 472.807 438.6 472.161 439.005C469.943 440.394 465.44 439.414 463.075 438.707L462.691 438.485C461.327 438.736 459.107 438.819 457.929 439.435C456.919 439.791 455.918 440.05 454.857 440.199C438.545 442.496 418.443 443.995 404.418 433.747C402.766 431.752 401.055 428.689 398.613 427.655C397.754 427.291 396.852 427.882 396.01 428.185C393.119 427.563 390.813 426.321 388.219 424.973L395.416 422.533C392.696 421.093 390.146 419.571 387.605 417.835C389.375 418.371 391.178 418.968 392.988 419.345C394.304 419.618 395.718 419.902 396.848 419.139C395.783 416.971 392.572 415.625 390.497 414.511C393.796 415.365 396.776 416.436 399.892 417.816L392.553 409.816C395.043 410.853 396.769 412.654 399.042 413.999C400.081 414.614 400.868 415.064 402.071 414.762C400.833 412.342 398.16 411.69 397.229 409.161L398.137 408.75C398.268 408.591 398.38 408.416 398.529 408.275C402.033 404.973 416.558 402.269 421.464 402.056Z"/>
	<path fill="#5F5B5D" d="M421.464 402.056C425.671 400.981 434.044 401.857 437.877 403.891C434.035 403.921 425.568 405.85 422.401 404.556C421.821 404.319 420.987 403.459 420.461 403.051C420.826 402.784 421.15 402.382 421.464 402.056Z"/>
	<path fill="#DEDDDE" d="M401.582 426.106C404.881 422.983 410.756 417.872 415.148 416.735L415.14 417.404C412.754 419.923 409.573 421.758 406.696 423.674C406.529 426.248 406.328 428.435 405.402 430.883C403.911 429.453 402.782 427.777 401.582 426.106Z"/>
	<path fill="#E63D3C" d="M464.058 427.685C466.997 429.492 470.864 432.001 472.758 434.892C472.78 435.697 473.012 436.074 472.397 436.694C471 438.101 469.16 438.251 467.294 438.259C465.991 438.265 464.646 438.211 463.349 438.315C463.706 437.2 464.145 436.093 464.549 434.994C465.689 431.891 465.437 430.725 464.058 427.685Z"/>
	<path fill="#6F2827" d="M427.094 431.174C426.313 431.015 425.518 430.864 424.753 430.644C422.898 430.111 420.648 428.099 419.919 426.277C419.402 424.985 419.504 424.734 420.007 423.538C421.142 423.138 421.861 423.568 422.993 423.879L423.391 423.253C422.978 420.846 422.066 417.418 420.456 415.553L419.98 415.917L420.358 417.654L419.764 417.837L419.056 417.173L419.158 415.784C420.762 414.381 424.185 414.572 426.274 414.707C425.868 415.176 425.321 415.728 425.063 416.295C424.016 418.594 424.769 423.847 425.331 426.276C425.538 426.509 425.74 426.746 425.951 426.973C426.86 427.953 427.281 428.033 427.26 429.432C427.253 429.856 427.144 430.729 427.094 431.174Z"/>
	<path fill="#FAF8F9" d="M425.331 426.276L426.008 426.369C431.91 427.13 436.527 424.531 442.049 424.709C442.1 426.071 441.514 427.322 440.548 428.316C437.862 431.077 433.927 431.614 430.258 431.43Q428.673 431.341 427.094 431.174C427.144 430.729 427.253 429.856 427.26 429.432C427.281 428.033 426.86 427.953 425.951 426.973C425.74 426.746 425.538 426.509 425.331 426.276Z"/>
	<path fill="#656B6C" d="M421.464 402.056C421.15 402.382 420.826 402.784 420.461 403.051C419.263 404.075 419.735 405.63 418.944 406.129C415.598 408.239 409.385 404.668 406.855 407.917L406.736 409.638C404.682 409.781 401.569 407.385 399.664 406.33C401.032 407.618 403.89 409.723 404.045 411.731C401.99 411.943 399.691 409.888 398.137 408.75C398.268 408.591 398.38 408.416 398.529 408.275C402.033 404.973 416.558 402.269 421.464 402.056Z"/>
	<path fill="#FAF8F9" d="M415.14 417.404C414.973 423.01 415.546 427.918 419.601 432.118C422.68 435.308 426.657 436.854 431.08 436.734C437.407 436.561 441.525 433.09 445.679 428.786C446.462 427.974 446.406 427.272 447.367 428.276C447.589 428.507 447.762 428.78 447.959 429.033C448.759 427.732 449.203 426.702 449.628 425.235L449.015 424.93L447.325 426.986C447.511 424.153 449.183 422.036 449.184 418.982C451.939 418.873 456.055 424.337 459.467 425.082C460.713 424.858 461.284 425.188 462.285 425.969C462.924 426.468 463.497 427.101 464.058 427.685C465.437 430.725 465.689 431.891 464.549 434.994C464.145 436.093 463.706 437.2 463.349 438.315L463.075 438.707L462.691 438.485C461.327 438.736 459.107 438.819 457.929 439.435C439.424 440.047 420.904 443.333 405.402 430.883C406.328 428.435 406.529 426.248 406.696 423.674C409.573 421.758 412.754 419.923 415.14 417.404Z"/>
	<path fill="#AFB1B4" d="M459.467 425.082C460.713 424.858 461.284 425.188 462.285 425.969C462.924 426.468 463.497 427.101 464.058 427.685C465.437 430.725 465.689 431.891 464.549 434.994C464.145 436.093 463.706 437.2 463.349 438.315L463.075 438.707L462.691 438.485C462.866 435.885 460.292 427.81 459.467 425.082Z"/>
	<path fill="#030404" d="M524.486 572.237C539.609 576.867 551.739 588.89 566.841 593.321C565.39 593.799 563.695 594.26 562.49 595.232C558.089 598.784 551.078 608.977 545.824 614.048C544.489 614.843 543.285 615.885 542.028 616.801C532.193 623.973 522.451 627.542 510.185 626.797C477.062 624.785 467.316 596.357 455.435 594.537L454.721 594.044C456.829 591.867 462.377 590.614 465.24 589.195C473.897 584.906 491.254 573.185 500.418 573.253C504.886 573.286 509.19 576.39 513.729 577.148C517.651 576.14 520.877 573.962 524.486 572.237Z"/>
	<path fill="#A81917" d="M501.386 574.328C511.995 578.252 513.875 578.914 524.595 574.523C525.734 574.78 526.821 575.126 527.92 575.524C532.971 577.356 559.171 590.548 560.975 594.342L557.547 593.614C548.98 595.2 540.849 592.655 532.389 592.826C526.246 592.951 520.745 596.37 514.608 596.607C508.198 596.855 502.607 593.914 496.393 593.598C485.709 593.055 475.059 595.372 464.301 594.902C463.281 595.134 462.137 595.287 461.171 595.674C460.418 594.994 460.727 595.419 460.32 594.347C463.249 589.943 495.629 576.083 501.386 574.328Z"/>
	<path fill="#030404" d="M464.301 594.902C464.592 594.805 497.764 589.719 498.624 589.748C501.158 589.834 503.559 590.941 505.901 591.822C514.565 595.08 518.068 592.236 526.224 590.318C528.186 589.857 530.11 589.788 532.111 589.982C537.599 590.516 543.006 592.213 548.513 592.837C550.932 593.112 555.663 592.455 557.547 593.614C548.98 595.2 540.849 592.655 532.389 592.826C526.246 592.951 520.745 596.37 514.608 596.607C508.198 596.855 502.607 593.914 496.393 593.598C485.709 593.055 475.059 595.372 464.301 594.902Z"/>
	<path fill="#EF0609" d="M464.301 594.902C475.059 595.372 485.709 593.055 496.393 593.598C502.607 593.914 508.198 596.855 514.608 596.607C520.745 596.37 526.246 592.951 532.389 592.826C540.849 592.655 548.98 595.2 557.547 593.614L560.975 594.342C550.098 608.024 537.241 622.871 518.725 624.903C505.125 626.396 490.707 622.024 480.138 613.427C473.57 608.083 466.899 601.881 461.171 595.674C462.137 595.287 463.281 595.134 464.301 594.902Z"/>
	<path fill="#6F2827" d="M578.885 385.214C579.151 385.198 579.417 385.185 579.682 385.167C585.208 384.785 590.284 382.837 595.98 383.39C600.987 383.877 605.932 385.609 610.661 387.242C622.266 391.249 632.674 395.093 645.179 394.708C642.871 415.466 639.116 434.23 622.028 447.926C610.77 456.95 599.654 463.216 597.879 478.831C597.037 486.243 599.414 512.703 594.997 516.864C593.819 516.861 593.176 516.934 592.316 515.939C588.76 511.824 592.713 485.103 587.726 475.224C585.195 470.209 580.913 466.476 576.269 463.468C566.616 457.215 548.147 452.465 541.87 443.192C539.606 439.848 538.667 435.591 538.244 431.619C537.31 422.855 538.49 413.852 540.438 405.309C540.809 403.683 542.005 400.775 541.543 399.199C546.974 396.636 552.846 394.672 558.448 392.497C565.037 389.939 571.985 386.784 578.885 385.214Z"/>
	<path fill="#A81917" d="M595.51 406.076C599.295 405.884 603.164 408.479 606.896 409.185C606.228 414.355 605.132 417.282 600.833 420.555C599.102 421.872 597.038 422.86 595.402 424.25L593.354 423.416L596.975 419.441C598.243 414.047 598.172 411.089 595.51 406.076Z"/>
	<path fill="#030404" d="M565.856 409.123L565.353 409.449C563.882 410.385 562.803 410.923 561.1 411.285L560.379 410.814C560.839 408.674 564.688 405.694 566.542 404.593C567.315 404.135 568.16 403.921 568.994 403.616C584.718 397.868 590.714 397.831 606.276 404.563C611.706 406.912 617.046 409.511 622.795 410.995C617.25 410.969 612.264 410.604 606.896 409.185C603.164 408.479 599.295 405.884 595.51 406.076C598.172 411.089 598.243 414.047 596.975 419.441L593.354 423.416L595.402 424.25L595.365 424.845C593.805 426.305 592.292 426.816 590.21 427.241C583.073 428.695 574.614 426.388 568.713 422.215C567.183 421.133 565.057 419.73 564.701 417.891C563.902 415.957 563.782 414.61 564.437 412.63L566.12 410.347L565.856 409.123Z"/>
	<path fill="#FAF8F9" d="M581.271 404.149C582.816 404.198 583.449 404.302 584.806 405.163C585.598 406.403 585.767 406.591 585.776 408.042C584.146 408.424 583.045 408.721 581.503 408.032C580.819 406.74 581.109 405.537 581.271 404.149Z"/>
	<path fill="#151819" d="M577.01 404.176L579.432 404.049L580.011 404.636C579.189 408.139 576.043 410.475 575.159 414.102C575 410.218 575.358 407.71 577.01 404.176Z"/>
	<path fill="#A81917" d="M570.467 406.381C570.152 408.021 569.908 409.721 569.411 411.314C570.051 415.672 570.375 420.647 574.303 423.449C575.76 424.489 580.528 425.022 580.997 425.769L580.955 425.868L580.858 425.512C579.208 426.12 576.253 425.353 574.6 424.611C570.73 422.874 569.226 417.904 564.701 417.891C563.902 415.957 563.782 414.61 564.437 412.63L566.12 410.347L565.856 409.123C567.376 408.174 568.882 407.219 570.467 406.381Z"/>
	<path fill="#A81917" d="M577.01 404.176C575.358 407.71 575 410.218 575.159 414.102C575.725 416.974 577.609 419.185 578.155 421.899C578.363 422.936 578.41 422.493 577.784 423.421C577.079 423.358 576.438 423.27 575.779 422.99C573.557 422.045 572.155 420.266 571.328 418.032C570.374 415.455 569.738 410.342 571.138 407.829C572.388 405.586 574.76 405.027 577.01 404.176Z"/>
	<path fill="#6F2827" d="M584.71 403.778C587.565 404.126 593.339 404.107 595.51 406.076C598.172 411.089 598.243 414.047 596.975 419.441L593.354 423.416C589.805 425.302 586.359 425.667 582.435 426.079C585.217 425.134 587.746 424.164 589.619 421.779C591.525 419.352 592.314 416.407 591.799 413.357C591.029 408.8 588.198 406.358 584.71 403.778Z"/>
	<path fill="#525455" d="M403.733 264.402C409.045 262.893 413.984 260.481 418.945 258.103C418.878 258.224 418.813 258.346 418.744 258.466C414.942 265.114 409.431 270.406 405.927 277.38C394.961 299.207 390.059 326.125 390.464 350.436C390.54 354.978 390.468 359.841 391.548 364.283C391.801 365.323 392.154 366.154 393.216 366.588C393.418 366.67 393.643 366.674 393.856 366.718C403.964 365.83 428.115 375.189 438.773 378.452C445.903 380.635 453.406 382.266 460.338 384.984C463.903 386.382 467.749 388.108 470.734 390.539C474.207 393.369 476.98 397.42 477.367 402.003C477.48 403.346 477.494 404.601 477.702 405.945C481.352 409.479 484.383 414.205 487.256 418.386C494.053 428.279 500.485 436.979 500.754 449.407C500.969 459.377 498.376 469.118 497.439 479.005C495.753 478.717 494.042 477.913 492.434 477.323C487.966 462.395 489.941 452.702 490.775 437.643C486.849 430.86 473.061 418.228 465.965 414.723L465.694 415.216C466.205 415.656 466.717 416.088 467.204 416.553L466.558 416.672C465.301 416.038 463.862 415.465 462.883 414.43C462.749 414.288 462.645 414.119 462.526 413.964C461.855 413.875 461.258 413.843 460.585 413.836L461.227 413.052C460.895 412.488 460.853 412.344 460.303 411.832C455.653 407.505 444.036 404.264 437.877 403.891C434.044 401.857 425.671 400.981 421.464 402.056C416.558 402.269 402.033 404.973 398.529 408.275C398.38 408.416 398.268 408.591 398.137 408.75L397.229 409.161C398.16 411.69 400.833 412.342 402.071 414.762C400.868 415.064 400.081 414.614 399.042 413.999C396.769 412.654 395.043 410.853 392.553 409.816L399.892 417.816C396.776 416.436 393.796 415.365 390.497 414.511C392.572 415.625 395.783 416.971 396.848 419.139C395.718 419.902 394.304 419.618 392.988 419.345C391.178 418.968 389.375 418.371 387.605 417.835C390.146 419.571 392.696 421.093 395.416 422.533L388.219 424.973C390.813 426.321 393.119 427.563 396.01 428.185C396.852 427.882 397.754 427.291 398.613 427.655C401.055 428.689 402.766 431.752 404.418 433.747L403.968 434.292C408.686 438.692 416.63 443.037 422.907 444.21C423.083 444.199 423.259 444.187 423.435 444.178C427.785 443.954 432.081 444.953 436.326 445.785L436.802 446.256C429.158 450.589 424.116 451.689 415.443 449.294C405.931 446.668 398.202 438.992 393.009 430.878C388.486 430.908 379.29 429.798 375.847 433.111C372.636 436.201 371.232 459.862 371.645 465.01C372.058 470.151 373.375 475.249 374.826 480.182C382.053 504.75 396.239 516.716 406.26 538.969C411.131 549.787 415.061 561.635 416.609 573.415C417.271 578.456 416.975 583.991 418.203 588.901C419.651 594.695 427.651 613.996 430.756 619.238C435.508 627.262 442.826 634.768 448.714 642.083C458.547 654.298 467.629 668.671 479.728 678.734C482.906 681.377 485.862 683.195 489.846 684.428C501.187 687.935 528.479 688.25 540.968 686.929C542.027 686.817 542.99 686.446 543.989 686.105C545.404 685.621 546.443 685.203 547.941 685.616C545.522 687.71 542.48 689.515 539.496 690.633C527.914 694.969 495.634 695.155 484.329 689.884C461.542 679.26 382.465 599.886 374.345 576.502C370.216 564.61 368.006 552.14 365.668 539.803Q360.261 511.79 356.398 483.522C354.526 470.489 351.914 457.043 351.387 443.879C351.154 438.073 351.913 432.135 352.295 426.34Q353.009 415.275 353.03 404.187C353.008 391.045 351.012 377.85 354.794 365.058C360.557 345.563 371.735 328.821 381.103 311.003C389.122 295.753 396.292 279.947 403.733 264.402Z"/>
	<path fill="#151819" d="M396.01 428.185C396.852 427.882 397.754 427.291 398.613 427.655C401.055 428.689 402.766 431.752 404.418 433.747L403.968 434.292C408.686 438.692 416.63 443.037 422.907 444.21C420.991 445.137 417.998 444.422 415.988 443.954C407.824 442.053 400.328 435.102 396.01 428.185Z"/>
	<path fill="#939698" d="M373.439 383.245C397.556 372.795 402.335 376.396 425.652 385.607Q439.487 391.221 453.196 397.137C448.471 398.334 443.042 398.058 438.194 398.001C421.566 397.807 406 396.992 391.19 405.809C385.736 397.703 380.892 389.704 373.439 383.245Z"/>
	<path fill="#030404" d="M393.856 366.718C403.964 365.83 428.115 375.189 438.773 378.452C445.903 380.635 453.406 382.266 460.338 384.984C463.903 386.382 467.749 388.108 470.734 390.539C474.207 393.369 476.98 397.42 477.367 402.003C477.48 403.346 477.494 404.601 477.702 405.945C477.036 405.546 476.719 405.248 476.21 404.63C475.45 403.707 456.128 398.039 453.196 397.137Q439.487 391.221 425.652 385.607C402.335 376.396 397.556 372.795 373.439 383.245L372.081 383.659L372.112 382.873C377.333 376.418 386.518 370.465 393.856 366.718Z"/>
</svg>
