<?xml version="1.0" encoding="utf-8" ?>
<svg xmlns="http://www.w3.org/2000/svg" xmlns:xlink="http://www.w3.org/1999/xlink" width="1024" height="1024">
	<path fill="#020202" d="M0 0L1024 0L1024 1024L992.472 1024L989.452 1024L880.736 1024L877.648 1024L858.761 1024L857.427 1024L856.217 1024L853.634 1024L519.776 1024L512.961 1024L508.246 1024L501.664 1024L171.867 1024L168.65 1024L154.483 1024L152.273 1024L33.8227 1024L30.8206 1024L0 1024L0 0Z"/>
	<path fill="#363A3A" d="M687.983 418.008C686.685 421.959 685.621 427.214 683.25 430.617C680.9 433.989 677.414 436.69 675.612 440.432L674.782 439.295C677.016 431.068 682.504 424.33 687.983 418.008Z"/>
	<path fill="#1F2323" d="M764.616 288.731C765.463 292.581 765.616 301.214 764.597 305.082C764.306 306.186 764.293 306.208 763.277 306.818C762.008 306.34 761.375 305.621 760.53 304.61C757.253 300.689 754.628 296.057 751.59 291.931C745.841 284.117 738.918 276.482 734.135 268.066C739.048 267.633 755.3 284.319 759.238 287.565L759.776 287.253C759.946 287.396 760.12 287.534 760.287 287.682C761.903 289.112 762.844 291.662 764.24 293.362C764.608 291.857 764.564 290.273 764.616 288.731Z"/>
	<path fill="#01BBBD" d="M761.91 721.973L762.245 722.439C761.65 727.374 759.209 732.669 757.216 737.185C753.188 746.313 748.697 753.702 739.071 757.417C734.947 755.9 730.975 753.881 726.995 752.024L718.636 748.211C737.299 744.189 750.65 737.861 761.91 721.973Z"/>
	<path fill="#1F2323" d="M333.117 342.482C333.346 345.511 334.242 349.489 333.248 352.348C332.247 353.431 331.559 353.516 330.176 353.827C332.955 355.453 333.543 356.012 334.371 359.202C336.953 369.147 340.607 382.968 338.984 393.125L336.755 397.051L336.138 398.092C332.603 389.025 322.296 369.105 321.892 360.405C321.983 360.247 322.079 360.092 322.164 359.93C322.692 358.928 322.339 359.652 322.619 358.646C323.46 355.629 330.911 345.855 333.117 342.482Z"/>
	<path fill="#5A656C" d="M336.755 397.051C336.69 396.928 336.617 396.808 336.56 396.682C335.14 393.563 331.535 383.407 332.645 380.342C333.723 381.015 333.172 380.838 334.26 380.977L335.168 379.037C335.352 379.719 335.302 379.427 335.378 380.146L335.629 382.478C335.966 385.676 336.918 389.46 338.496 392.293C338.653 392.574 338.821 392.848 338.984 393.125L336.755 397.051Z"/>
	<path fill="#363A3A" d="M226.541 774.363C232.602 770.187 242.506 761.611 249.122 759.566C251.616 758.796 254.141 758.812 256.692 759.286C259.901 759.883 263.162 761.274 266.189 762.478C263.694 763.912 261.177 765.455 258.47 766.446C258.241 765.628 258.159 765.045 258.215 764.196L257.707 764.082C256.906 764.741 256.795 765.054 256.579 766.108C255.679 770.505 258.435 778.102 259.903 782.227C248.57 779.963 237.252 779.291 226.541 774.363Z"/>
	<path fill="#4F5254" d="M694.138 730.705C698.718 734.21 704.673 737.852 708.416 742.222Q707.159 743.605 706.041 745.103Q704.923 746.601 703.955 748.2Q702.987 749.799 702.177 751.484Q701.367 753.168 700.723 754.923C697.05 764.726 697.557 773.555 701.814 783.05C694.017 775.397 688.348 767.29 687.166 756.148C686.213 747.157 688.46 737.804 694.138 730.705Z"/>
	<path fill="#1F2323" d="M349.185 299.313C349.258 299.378 349.338 299.435 349.403 299.508C350.875 301.177 350.257 308.548 350.214 310.905C349.911 327.37 348.599 343.07 346.386 359.383C345.151 368.492 342.924 378.168 342.49 387.305C342.437 388.423 342.5 388.831 341.997 389.833C341.44 388.12 341.705 386.14 341.738 384.345C339.862 374.104 336.965 363.959 335.356 353.707C334.758 349.893 334.975 346.192 334.58 342.407L334.467 341.404C342.389 327.996 346.45 314.503 349.185 299.313Z"/>
	<path fill="#1F2323" d="M412.044 186.863C403.386 166.002 401.917 141.628 408.801 119.971C409.063 123.83 409.278 127.721 409.776 131.557C411.73 146.604 418.147 163.963 426.824 176.401C427.881 177.916 429.047 180.099 430.476 181.19C428.988 176.961 425.323 173.655 423.788 169.32C423.983 169.509 424.182 169.695 424.374 169.888C426.3 171.824 430.402 180.169 431.655 180.901C431.833 181.005 433.112 181.072 433.185 181.072C436.213 181.088 439.287 180.313 442.351 180.332C449.033 180.372 456.528 181.611 463.114 182.869C468.716 183.939 497.929 192.057 498.052 192.023C498.331 191.337 498.51 190.754 498.682 190.034C498.892 189.157 499.239 188.726 499.786 188.036L498.077 193.272C465.479 183.628 446.467 176.072 412.044 186.863Z"/>
	<path fill="#6F7A7E" d="M301.698 206.297C309.063 195.725 319.762 187.652 327.218 177.143C332.345 169.918 336.083 161.371 340.204 153.527C350.926 133.117 366.028 111.96 386.991 101.171C391.703 98.7457 410.039 93.22 414.676 94.7267L414.449 95.6082C405.589 97.9055 395.199 102.21 387.793 107.584C377.266 115.222 369.605 126.446 361.562 136.512C356.928 142.312 352.065 147.936 347.731 153.971C344.008 159.156 340.758 164.71 336.861 169.764C330.325 178.241 318.42 189.554 310.618 197.639C308.756 199.568 303.976 205.908 301.698 206.297Z"/>
	<path fill="#1F2323" d="M608.106 194.373C613.903 195.234 619.75 195.675 625.516 196.744C642.785 199.946 656.273 208.358 668.567 220.638Q673.583 225.579 678.168 230.923C681.763 235.191 687.703 244.036 691.829 246.928C692.462 247.371 693.041 247.274 693.776 247.257C697.628 250.858 705.066 262.664 708.353 267.554C691.553 251.473 675.333 233.117 654.424 222.158L653.597 222.428L652.203 222.656C651.73 223.971 652.375 224.208 652.729 225.464L651.648 226.325C642.494 213.632 622.595 200.434 608.106 194.373Z"/>
	<defs>
		<linearGradient id="gradient_0" gradientUnits="userSpaceOnUse" x1="670.42377" y1="258.81891" x2="623.79413" y2="292.74655">
			<stop offset="0" stop-color="#7E7F81"/>
			<stop offset="1" stop-color="#8C9699"/>
		</linearGradient>
	</defs>
	<path fill="url(#gradient_0)" d="M605.618 195.06C610.492 197.078 615.147 200.412 619.638 203.175C635.844 213.147 646.663 221.367 655.289 238.823C657.369 245 659.293 251.076 660.353 257.529C663.782 276.529 662.581 296.271 664.845 315.454Q666.794 331.526 670.53 347.278C672.177 354.202 674.344 361.172 675.575 368.169C675.405 368.065 675.228 367.972 675.065 367.858C670.837 364.882 661.503 320.366 660.328 312.979C658.486 301.396 657.769 289.656 655.882 278.069C653.456 263.17 649.801 248.628 642.765 235.204C641.856 233.47 641.371 231.192 639.744 230.021C638.577 230.599 638.632 231.073 638.084 232.21L637.564 231.436L638.525 229.084C636.709 217.959 608.467 201.165 605.618 195.06Z"/>
	<path fill="#363A3A" d="M694.277 395.113Q697.891 400.038 701.404 405.035C701.963 420.19 700.741 435.366 696.464 449.977C691.485 466.986 682.295 476.897 666.913 485.327C667.096 470.958 670.297 452.922 674.782 439.295L675.612 440.432C675.829 440.47 676.044 440.534 676.265 440.545C678.213 440.647 683.835 436.431 685.234 435.195C687.281 433.385 688.754 431.271 689.564 428.652C691.193 423.386 690.469 417.496 691.265 412.056C692.106 406.307 693.893 400.97 694.277 395.113Z"/>
	<path fill="#4F5254" d="M736.496 414.299C741.675 415.243 747.359 418.282 752.266 420.297C770.55 427.806 791.095 435.59 802.839 452.49C805.857 456.833 807.924 461.635 809.824 466.545C810.888 469.293 811.675 472.803 813.439 475.168C814.883 490.945 803.07 511.938 796.637 526.305C794.267 531.599 792.217 536.998 790.209 542.438C789.803 534.299 789.506 526.279 790.171 518.136C791.307 504.225 794.245 490.162 792.449 476.188C789.964 456.86 777.697 441.59 761.884 430.993C753.65 425.475 744.774 420.819 736.97 414.678L736.496 414.299Z"/>
	<path fill="#5A656C" d="M336.138 398.092C338.085 402.668 340.012 407.282 341.424 412.056C343.444 418.883 344.358 426.048 346.02 432.973C348.112 441.693 357.896 473.89 355.461 480.543C355.05 481.668 354.224 482.682 353.051 483.058C351.416 483.58 349.475 482.955 347.994 482.258C339.405 478.218 334.056 467.038 331.089 458.531C328.844 452.093 327.43 445.395 325.541 438.846C323.565 431.993 321.036 425.138 319.65 418.14C317.741 408.491 318.613 399.153 318.071 389.449C317.695 382.719 316.393 375.846 316.478 369.122C316.507 366.828 316.685 363.554 317.834 361.512C318.47 360.383 319.401 359.484 320.646 359.212L321.892 360.405C322.296 369.105 332.603 389.025 336.138 398.092Z"/>
	<path fill="#020202" d="M336.567 411.851C340.069 414.909 345.148 432.62 346.515 437.895C345.619 437.594 345.098 437.366 344.442 436.65C341.476 433.409 337.35 421.504 336.475 417.076C336.133 415.34 336.348 413.588 336.567 411.851Z"/>
	<path fill="#020202" d="M327.112 410.851C328.893 418.677 329.521 426.739 334.112 433.596C336.138 436.623 338.979 439.021 340.814 442.19C341.814 443.916 341.225 445.057 340.711 446.869C339.991 447.272 339.094 447.683 338.255 447.732C337.607 447.769 336.798 447.588 336.404 447.043C335.054 445.177 335.269 441.946 334.088 439.772C332.625 437.08 330.627 434.693 329.143 432.004C325.856 426.045 326.868 417.392 327.112 410.851Z"/>
	<defs>
		<linearGradient id="gradient_1" gradientUnits="userSpaceOnUse" x1="743.18567" y1="315.65121" x2="747.69922" y2="472.35208">
			<stop offset="0" stop-color="#5D6E73"/>
			<stop offset="1" stop-color="#768085"/>
		</linearGradient>
	</defs>
	<path fill="url(#gradient_1)" d="M678.589 309.518C678.708 309.697 678.832 309.872 678.945 310.055C680.367 312.367 681.051 324.806 681.974 328.699C683.497 335.131 686.135 341.848 689.162 347.72C700.804 370.308 730.216 393.105 752.26 405.509C763.214 411.672 774.756 416.62 786.031 422.137C791.585 424.854 796.602 429.34 802.366 431.432C808.738 445.061 813.889 459.925 813.439 475.168C811.675 472.803 810.888 469.293 809.824 466.545C807.924 461.635 805.857 456.833 802.839 452.49C791.095 435.59 770.55 427.806 752.266 420.297C747.359 418.282 741.675 415.243 736.496 414.299C725.899 408.206 715.187 399.436 706.927 390.563C692.419 374.979 681.563 354.214 679.016 332.934C678.083 325.134 678.304 317.344 678.589 309.518Z"/>
	<path fill="#4F5254" d="M783.374 493.167C779.164 511.539 781.006 531.843 787.497 549.508C790.896 557.537 793.948 565.672 798.479 573.166C802.71 580.164 807.984 586.535 812.023 593.643C824.683 615.924 826.442 644.524 823.366 669.59C823.289 671.989 822.773 674.237 822.277 676.574C820.825 686.132 816.462 695.643 812.357 704.333C815.415 687.388 813.54 669.672 804.469 654.765C803.05 652.434 798.777 645.274 796.126 644.625C795.587 676.312 798.552 721.715 773.72 745.555C767.881 751.16 752.512 760.567 744.667 760.391L743.721 759.853C744.421 758.056 747.288 756.825 748.997 755.93C757.016 751.357 760.809 741.106 764.503 733.122L764.424 733.48Q765.432 731.504 766.362 729.489C770.468 720.494 771.274 712.098 774.008 702.945C776.473 694.692 779.817 686.702 782.218 678.424C786.597 663.331 787.145 645.803 781.79 630.873C777.511 618.94 769.071 608.994 764.722 597.046C758.405 579.692 760.985 549.02 768.773 532.306C773.172 519.188 777.804 505.835 783.374 493.167Z"/>
	<path fill="#363A3A" d="M792.166 617.382C803.765 630.695 812.02 643.338 817.193 660.308C818.66 665.12 819.528 672.468 822.277 676.574C820.825 686.132 816.462 695.643 812.357 704.333C815.415 687.388 813.54 669.672 804.469 654.765C803.05 652.434 798.777 645.274 796.126 644.625C797.788 638.897 793.253 624.059 792.166 617.382Z"/>
	<path fill="#6F7A7E" d="M783.374 493.167C779.164 511.539 781.006 531.843 787.497 549.508C790.896 557.537 793.948 565.672 798.479 573.166C802.71 580.164 807.984 586.535 812.023 593.643C824.683 615.924 826.442 644.524 823.366 669.59C821.588 666.864 821.638 657.208 820.813 653.403C818.894 644.565 815.854 636.139 812.214 627.882C808.209 618.794 801.486 609.971 794.68 602.782C790.754 598.635 786.564 594.596 782.995 590.133C768.573 572.099 768.638 554.24 768.773 532.306C773.172 519.188 777.804 505.835 783.374 493.167Z"/>
	<defs>
		<linearGradient id="gradient_2" gradientUnits="userSpaceOnUse" x1="274.81287" y1="253.70161" x2="357.5419" y2="299.81488">
			<stop offset="0" stop-color="#424444"/>
			<stop offset="1" stop-color="#71797D"/>
		</linearGradient>
	</defs>
	<path fill="url(#gradient_2)" d="M301.698 206.297C303.976 205.908 308.756 199.568 310.618 197.639C318.42 189.554 330.325 178.241 336.861 169.764C340.758 164.71 344.008 159.156 347.731 153.971C352.065 147.936 356.928 142.312 361.562 136.512C369.605 126.446 377.266 115.222 387.793 107.584C395.199 102.21 405.589 97.9055 414.449 95.6082C413.748 97.1636 413.122 98.8571 412.303 100.347C403.435 127.635 399.566 151.78 407.257 180.026L408.893 184.015C406.069 183.778 402.838 182.399 400.01 181.739C399.826 181.846 399.655 181.979 399.458 182.061C397.249 182.977 393.064 182.096 390.585 182.163C372.234 182.658 360.623 188.068 351.924 204.707C341.718 224.228 345.488 246.12 344.867 267.184C344.287 286.833 341.695 305.311 333.986 323.542C324.38 346.257 313.881 358.728 297.476 376.659C293.642 380.85 287.717 385.302 284.851 390.087C279.034 396.569 272.747 403.067 268.815 410.93C265.423 417.624 262.493 424.125 261.165 431.564C260.341 436.175 259.973 440.873 259.776 445.549C259.623 449.196 260.658 463.41 259.503 465.782L259.098 465.834C259.001 471.418 259.835 476.983 259.783 482.567C254.99 470.662 248.228 459.824 244.542 447.398C242.676 441.108 241.643 434.593 242.209 428.028C244.523 401.202 269.179 372.092 281.821 349.007C281.738 348.878 281.64 348.758 281.573 348.621C280.046 345.511 281.926 326.164 282.867 322.438C283.209 313.193 284.522 303.79 285.392 294.571C286.43 283.56 287.046 272.269 288.982 261.382C289.379 254.804 290.201 248.225 290.886 241.671C292.12 229.868 292.471 215.121 301.698 206.297Z"/>
	<path fill="#4F5254" d="M284.252 319.406C288.607 312.164 292.843 304.873 296.491 297.243C298.695 292.635 300.505 287.851 302.698 283.243C304.855 278.712 310.913 256.83 313.501 255.416C315.902 259.046 312.708 274.028 311.771 278.654C309.553 289.607 297.131 331.157 288.95 337.119C300.606 314.664 314.782 281.304 313.294 255.746C308.25 271.893 302.365 288.076 294.588 303.125C291.171 309.74 287.161 316 283.513 322.483L282.867 322.438C283.209 313.193 284.522 303.79 285.392 294.571C286.43 283.56 287.046 272.269 288.982 261.382C289.989 264.732 288.531 267.778 288.533 271.11C288.537 275.905 292.8 277.925 290.118 283.033C290.002 283.255 289.878 283.473 289.758 283.693L290.221 283.511L290.307 283.583L292.327 283.06L292.869 281.746L293.444 281.861C293.724 283.279 294.173 284.627 293.629 286.026C292.589 286.47 291.737 286.625 290.614 286.746C289.764 290.007 290.697 293.42 289.827 296.668L288.979 294.887L288.583 295.133C288.589 295.446 288.601 295.758 288.602 296.071C288.608 298.186 287.777 300.142 287.612 302.238L286.409 300.418L285.793 300.622C285.637 301.525 285.445 301.702 285.863 302.548C286.545 303.926 287.309 305.09 286.816 306.657C286.379 308.046 285.669 309.411 285.071 310.739C283.909 313.317 284.006 316.637 284.252 319.406Z"/>
	<path fill="#4F5254" d="M403.661 153.061C396.671 148.974 388.047 146.401 380.39 143.781L380.998 144.316L381.037 143.348L381.199 143.662C385.643 144.958 390.189 146.31 394.51 147.976C397.103 148.976 399.092 150.672 401.885 151.105L402.059 150.113L401.787 151.018C402.387 149.863 401.806 147.367 401.91 145.963C402.06 143.932 402.752 142.04 402.697 139.966C402.643 137.903 402.939 135.974 403.248 133.939C404.245 127.377 408.01 103.498 412.303 100.347C403.435 127.635 399.566 151.78 407.257 180.026C399.82 176.364 393.379 170.987 385.215 168.611C381.548 167.544 377.488 167.356 373.724 166.545C369.984 165.739 366.034 166.287 362.308 166.978C365.3 163.063 385.503 155.705 390.488 154.131C394.569 152.843 399.39 153.17 403.661 153.061Z"/>
	<path fill="#1F2323" d="M313.294 255.746C314.782 281.304 300.606 314.664 288.95 337.119C286.672 341.01 284.543 345.434 281.821 349.007C281.738 348.878 281.64 348.758 281.573 348.621C280.046 345.511 281.926 326.164 282.867 322.438L283.513 322.483C287.161 316 291.171 309.74 294.588 303.125C302.365 288.076 308.25 271.893 313.294 255.746Z"/>
	<path fill="#020202" d="M259.098 465.834C258.673 453.696 256.837 441.918 259.051 429.783C264.771 398.432 293.447 378.996 312.081 355.301Q315.61 350.777 318.765 345.984Q321.92 341.192 324.681 336.162Q327.443 331.133 329.792 325.898Q332.141 320.663 334.064 315.257C341.265 295.223 341.433 274.729 341.193 253.713C341.068 242.757 340.796 231.776 343.137 220.998C345.979 207.907 352.812 193.121 364.539 185.762C375.43 178.928 387.853 179.052 400.01 181.739C399.826 181.846 399.655 181.979 399.458 182.061C397.249 182.977 393.064 182.096 390.585 182.163C372.234 182.658 360.623 188.068 351.924 204.707C341.718 224.228 345.488 246.12 344.867 267.184C344.287 286.833 341.695 305.311 333.986 323.542C324.38 346.257 313.881 358.728 297.476 376.659C293.642 380.85 287.717 385.302 284.851 390.087C279.034 396.569 272.747 403.067 268.815 410.93C265.423 417.624 262.493 424.125 261.165 431.564C260.341 436.175 259.973 440.873 259.776 445.549C259.623 449.196 260.658 463.41 259.503 465.782L259.098 465.834Z"/>
	<defs>
		<linearGradient id="gradient_3" gradientUnits="userSpaceOnUse" x1="535.0127" y1="429.01663" x2="832.0036" y2="525.43573">
			<stop offset="0" stop-color="#171818"/>
			<stop offset="1" stop-color="#293233"/>
		</linearGradient>
	</defs>
	<path fill="url(#gradient_3)" d="M655.289 238.823L655.94 238.224C649.138 222.53 636.575 212.264 622.193 203.668C618.593 201.517 613.701 199.549 610.74 196.626C611.895 196.347 613.577 197.542 614.691 198.064C625.09 202.938 647.809 219.429 652.825 229.202C653.573 230.66 654.357 231.939 655.324 233.26L655.536 233.054C654.456 230.644 653.089 228.524 651.648 226.325L652.729 225.464C664.112 242.179 672.555 260.22 675.006 280.501C676.152 289.977 675.551 299.588 675.343 309.102C674.885 330.062 677.326 351.02 687.809 369.533C696.201 384.355 708.379 397.471 721.771 407.876Q731.508 415.398 741.807 422.129C758.777 433.061 776.844 443.044 785.035 462.658Q786 464.964 786.763 467.345Q787.525 469.725 788.078 472.163Q788.632 474.601 788.972 477.078Q789.312 479.554 789.437 482.051C790.169 495.212 786.102 508.001 786.257 521.033C786.306 525.118 788.669 545.968 788.25 547.711C788.094 548.359 787.797 548.919 787.497 549.508C781.006 531.843 779.164 511.539 783.374 493.167C777.804 505.835 773.172 519.188 768.773 532.306C760.985 549.02 758.405 579.692 764.722 597.046C769.071 608.994 777.511 618.94 781.79 630.873C787.145 645.803 786.597 663.331 782.218 678.424C779.817 686.702 776.473 694.692 774.008 702.945C771.274 712.098 770.468 720.494 766.362 729.489Q765.432 731.504 764.424 733.48L764.503 733.122C760.809 741.106 757.016 751.357 748.997 755.93C754.641 749.959 758.77 744.026 761.868 736.367C767.619 722.148 771.284 699.072 765.021 684.499C765.723 690.243 765.61 696.522 765.162 702.288C764.188 714.83 757.276 724.694 747.832 732.647Q746.838 733.483 745.803 734.268Q744.768 735.053 743.695 735.786Q742.622 736.518 741.514 737.197Q740.406 737.875 739.265 738.496Q738.124 739.118 736.954 739.682Q735.784 740.246 734.587 740.751Q733.39 741.256 732.169 741.7Q730.948 742.144 729.707 742.527Q728.465 742.91 727.206 743.23Q725.947 743.55 724.674 743.807Q723.401 744.064 722.116 744.257Q720.831 744.45 719.538 744.579Q718.246 744.707 716.948 744.771Q715.651 744.835 714.351 744.833Q713.052 744.832 711.755 744.766Q710.458 744.7 709.165 744.569C712.017 740.439 716.282 739.407 720.565 737.395C721.939 736.749 723.134 735.811 724.599 735.379C725.539 735.102 724.97 735.419 725.854 734.691C721.644 734.33 711.944 739.81 708.416 742.222C704.673 737.852 698.718 734.21 694.138 730.705C701.335 723.003 710.601 716.961 718.594 710.074C731.423 699.021 740.962 685.951 742.16 668.608C743.901 643.407 730.235 632.063 714.238 615.974C710.176 611.889 706.628 607.433 702.836 603.113C715.483 625.351 738.239 634.4 738.884 663.488C739.652 698.145 711.069 708.346 690.76 729.461C697.956 717.164 709.424 707.106 711.871 692.27C712.535 688.242 711.882 684.126 710.341 680.373C704.235 665.497 685.229 647.837 675.102 634.278C668.618 625.598 662.607 616.263 659.595 605.758C650.18 572.911 668.799 538.919 678.313 508.287C681.361 498.472 683.193 488.426 684.654 478.269C701.875 459.008 704.345 432.927 703.845 408.049Q704.416 408.879 704.961 409.727C718.924 431.416 726.732 457.452 723.435 483.364C722.943 487.239 721.777 491.005 720.964 494.824L721.302 495.394C720.615 495.015 720.875 495.29 720.538 494.557L722.024 494.387C722.178 493.99 722.324 493.589 722.448 493.182C725.791 482.225 726.917 469.995 726.087 458.597C723.622 424.763 706.497 409.603 690.887 382.277C691.43 384.799 692.122 387.424 692.345 389.994C693.423 402.378 687.203 413.873 679.445 422.943C686.043 392.036 677.424 366.155 671.105 336.52C669.557 329.263 668.551 321.81 667.471 314.469C665.276 299.557 665.822 284.385 664.394 269.411C664.097 266.29 663.209 256.109 661.001 254.295C660.406 255.456 660.401 256.256 660.353 257.529C659.293 251.076 657.369 245 655.289 238.823Z"/>
	<path fill="#020202" d="M760.364 444.003C761.211 449.972 759.714 456.606 758.627 462.484C755.796 477.798 751.008 492.016 745.25 506.452C737.094 526.898 724.475 548.561 725.026 571.169C725.441 588.163 729.502 595.245 741.428 606.681C734.136 603.351 728.792 599.033 723.692 592.813C709.203 575.142 705.366 552.061 707.645 529.881C707.669 529.713 707.691 529.544 707.718 529.375L707.855 528.535C708.822 522.256 710.852 514.634 714.434 509.362C714.686 512.737 710.396 522.458 709.683 526.656C705.722 550.005 713.706 573.766 727.295 592.567C716.208 567.005 724.987 546.031 735.393 522.033C740.28 510.763 745.185 499.441 749.231 487.839C754.24 473.472 756.436 458.617 760.364 444.003Z"/>
	<path fill="#1F2323" d="M400.01 181.739C402.838 182.399 406.069 183.778 408.893 184.015C409.578 185.545 410.157 186.082 409.67 187.727C402.036 191.06 394.048 194.228 386.934 198.607C368.838 209.747 358.724 230.119 351.181 249.291C344.226 266.968 349.393 271.392 348.96 287.884C348.761 295.441 347.791 303.201 345.891 310.525C342.091 325.173 332.397 346.027 321.119 356.329C319.444 357.86 317.459 358.811 315.605 360.079C311.865 370.018 315.009 381.783 315.867 392.05C316.416 398.623 315.204 405.274 315.767 411.882C316.688 422.703 326.603 457.925 331.132 468.034C333.434 473.172 337.851 477.663 339.72 482.876C341.197 486.997 341.775 491.707 342.602 495.997C344.083 503.685 345.536 511.362 347.654 518.908C354.805 544.392 369.198 567.935 370.355 594.922C372.196 637.871 341.401 662.258 362.51 708.44C349.76 716.39 336.541 723.576 323.555 731.133C323.405 731.029 323.253 730.928 323.105 730.822C308.589 720.49 296.543 698.01 293.71 680.591C292.919 675.73 292.393 670.805 291.792 665.918L291.475 665.756C290.872 668.705 291.189 672.13 291.404 675.118Q291.641 678.057 292.065 680.975Q292.488 683.893 293.096 686.779Q293.703 689.664 294.493 692.505Q295.283 695.346 296.251 698.131Q297.22 700.916 298.363 703.634Q299.506 706.352 300.82 708.992Q302.133 711.632 303.612 714.184Q305.091 716.735 306.728 719.187C310.304 724.589 314.681 729.116 319.329 733.591Q310.086 738.426 300.969 743.493C289.502 737.32 274.252 729.648 265.354 720.23C254.023 710.981 244.495 699.104 238.963 685.499C231.291 666.629 230.429 644.033 236.894 624.644C238.316 620.378 240.78 616.575 242.484 612.436L242.843 611.552C234.244 618.687 218.789 635.05 212.5 644.143C205.071 654.885 202.669 666.882 202.474 679.766C202.427 682.87 202.247 686.152 202.843 689.207C203.209 691.081 204.166 693.95 203.748 695.772C203.69 695.594 203.638 695.414 203.574 695.237C201.486 689.479 200.165 682.846 199.611 676.745Q199.471 675.15 199.415 673.55Q199.358 671.951 199.385 670.35Q199.411 668.749 199.52 667.152Q199.63 665.555 199.822 663.966Q200.014 662.377 200.288 660.8Q200.562 659.222 200.917 657.661Q201.273 656.101 201.709 654.56Q202.145 653.02 202.66 651.504Q203.176 649.989 203.769 648.502Q204.362 647.015 205.032 645.561Q205.701 644.107 206.445 642.689Q207.189 641.272 208.006 639.895Q208.822 638.518 209.709 637.185Q210.596 635.853 211.551 634.568Q212.505 633.283 213.525 632.049Q214.545 630.815 215.628 629.636C221.259 623.462 227.748 618.044 233.07 611.596L233.613 610.931C240.924 599.675 246.731 587.572 252.468 575.46C269.055 540.442 273.166 519.955 259.783 482.567C259.835 476.983 259.001 471.418 259.098 465.834L259.503 465.782C260.658 463.41 259.623 449.196 259.776 445.549C259.973 440.873 260.341 436.175 261.165 431.564C262.493 424.125 265.423 417.624 268.815 410.93C272.747 403.067 279.034 396.569 284.851 390.087C287.717 385.302 293.642 380.85 297.476 376.659C313.881 358.728 324.38 346.257 333.986 323.542C341.695 305.311 344.287 286.833 344.867 267.184C345.488 246.12 341.718 224.228 351.924 204.707C360.623 188.068 372.234 182.658 390.585 182.163C393.064 182.096 397.249 182.977 399.458 182.061C399.655 181.979 399.826 181.846 400.01 181.739Z"/>
	<path fill="#020202" d="M293.864 437.877C298.975 444.466 305.186 457.926 309.28 465.746C323.199 492.327 344.635 529.361 348.384 559.211C350.604 576.885 346.757 590.253 338.205 605.637C335.529 610.452 332.74 615.4 329.38 619.769C334.591 605.209 343.801 592.567 346.051 576.906C349.41 553.536 338.767 528.951 329.381 508.084C326.627 501.961 323.736 494.538 319.741 489.181C319.547 491.378 321.068 494.522 321.765 496.641C328.295 515.923 333.234 539.115 329.091 559.454C323.87 585.084 294.69 602.526 274.245 616.042C289.175 599.766 312.147 589.787 322.266 569.164C333.296 546.686 323.944 503.987 314.304 481.677C307.884 466.821 299.129 453.299 293.864 437.877Z"/>
	<path fill="#363A3A" d="M242.843 611.552C247.468 603.787 262.208 592.016 269.386 586.041C269.276 586.351 269.172 586.663 269.058 586.972C266.929 592.707 260.483 600.207 257.519 606.725C243.13 638.361 242.932 671.364 256.536 703.115Q260.044 711.319 264.891 718.81C265.398 719.607 265.25 719.266 265.354 720.23C254.023 710.981 244.495 699.104 238.963 685.499C231.291 666.629 230.429 644.033 236.894 624.644C238.316 620.378 240.78 616.575 242.484 612.436L242.843 611.552Z"/>
	<path fill="#5A656C" d="M284.851 390.087C284.82 393.623 283.939 397.161 283.429 400.655C282.628 406.138 281.959 411.977 281.954 417.531C281.949 422.434 284.42 429.041 284.199 432.909C288.413 449.457 296.277 462.947 303.2 478.315C315.01 504.529 312.96 526.614 298.431 551.21C293.033 560.349 286.486 568.498 279.128 576.115C275.994 579.36 272.183 582.549 269.386 586.041C262.208 592.016 247.468 603.787 242.843 611.552C234.244 618.687 218.789 635.05 212.5 644.143C205.071 654.885 202.669 666.882 202.474 679.766C202.427 682.87 202.247 686.152 202.843 689.207C203.209 691.081 204.166 693.95 203.748 695.772C203.69 695.594 203.638 695.414 203.574 695.237C201.486 689.479 200.165 682.846 199.611 676.745Q199.471 675.15 199.415 673.55Q199.358 671.951 199.385 670.35Q199.411 668.749 199.52 667.152Q199.63 665.555 199.822 663.966Q200.014 662.377 200.288 660.8Q200.562 659.222 200.917 657.661Q201.273 656.101 201.709 654.56Q202.145 653.02 202.66 651.504Q203.176 649.989 203.769 648.502Q204.362 647.015 205.032 645.561Q205.701 644.107 206.445 642.689Q207.189 641.272 208.006 639.895Q208.822 638.518 209.709 637.185Q210.596 635.853 211.551 634.568Q212.505 633.283 213.525 632.049Q214.545 630.815 215.628 629.636C221.259 623.462 227.748 618.044 233.07 611.596L233.613 610.931C233.811 610.891 234.014 610.867 234.208 610.81C245.933 607.35 280.749 565.27 288.292 553.157C300.033 534.301 300.05 512.887 293.533 492.172C291.383 485.34 288.312 478.83 286.171 472.01C284.406 466.389 283.442 460.673 282.144 454.953L281.694 455.168C277.27 451.653 269.959 418.191 268.815 410.93C272.747 403.067 279.034 396.569 284.851 390.087Z"/>
	<defs>
		<linearGradient id="gradient_4" gradientUnits="userSpaceOnUse" x1="267.3356" y1="445.05823" x2="293.76596" y2="398.30328">
			<stop offset="0" stop-color="#1F2120"/>
			<stop offset="1" stop-color="#4A4D4D"/>
		</linearGradient>
	</defs>
	<path fill="url(#gradient_4)" d="M284.851 390.087C284.82 393.623 283.939 397.161 283.429 400.655C282.628 406.138 281.959 411.977 281.954 417.531C281.949 422.434 284.42 429.041 284.199 432.909C284.156 434.26 284.084 435.584 283.956 436.929C281.388 433.615 282.646 427.165 280.037 423.93C278.002 434.101 281.286 444.832 282.144 454.953L281.694 455.168C277.27 451.653 269.959 418.191 268.815 410.93C272.747 403.067 279.034 396.569 284.851 390.087Z"/>
	<path fill="#4F5254" d="M268.815 410.93C269.959 418.191 277.27 451.653 281.694 455.168L282.144 454.953C283.442 460.673 284.406 466.389 286.171 472.01C288.312 478.83 291.383 485.34 293.533 492.172C300.05 512.887 300.033 534.301 288.292 553.157C280.749 565.27 245.933 607.35 234.208 610.81C234.014 610.867 233.811 610.891 233.613 610.931C240.924 599.675 246.731 587.572 252.468 575.46C269.055 540.442 273.166 519.955 259.783 482.567C259.835 476.983 259.001 471.418 259.098 465.834L259.503 465.782C260.658 463.41 259.623 449.196 259.776 445.549C259.973 440.873 260.341 436.175 261.165 431.564C262.493 424.125 265.423 417.624 268.815 410.93Z"/>
	<path fill="#020202" d="M272.542 453.888C274.634 458.13 276.046 463.176 277.746 467.627C285.143 487.003 288.772 499.316 287.304 520.409C286.818 519.652 285.494 504.829 285.023 502.442C281.783 486.045 274.874 470.413 272.542 453.888Z"/>
	<defs>
		<linearGradient id="gradient_5" gradientUnits="userSpaceOnUse" x1="495.12927" y1="311.13586" x2="724.66815" y2="196.66176">
			<stop offset="0" stop-color="#2D3031"/>
			<stop offset="1" stop-color="#414A4D"/>
		</linearGradient>
	</defs>
	<path fill="url(#gradient_5)" d="M423.788 169.32C417.357 158.507 408.09 126.563 410.637 113.838C414.6 94.0413 429.459 75.8636 446.027 64.9435C471.512 48.1462 502.238 45.4145 531.762 50.1138C540.432 51.4938 548.906 53.7441 557.5 55.5058C546.063 55.0846 534.797 55.5711 523.508 57.6093C511.083 59.8526 500.32 64.1532 489.892 71.2527C488.394 72.2725 486.016 73.5042 485.004 74.9698C485.852 74.5962 485.673 74.7201 486.287 74.3293C486.45 74.2258 486.609 74.1163 486.77 74.0113C508.089 60.1699 539.988 54.2884 564.856 59.6034Q571.083 60.9349 576.978 63.3422C590.914 69.0372 604.357 76.5424 617.735 83.4479C632.386 91.0109 648.125 97.9991 661.268 108.012C669.103 113.981 675.21 120.837 680.593 129.068C711.479 168.264 732.872 212.585 755.317 256.819C761.877 265.809 763.768 277.886 764.616 288.731C764.564 290.273 764.608 291.857 764.24 293.362C762.844 291.662 761.903 289.112 760.287 287.682C760.12 287.534 759.946 287.396 759.776 287.253C752.536 276.146 739.384 268.341 728.067 261.903C736.407 273.339 743.988 285.276 752.46 296.627C759.324 305.823 768.635 315.978 774.261 325.488Q775.306 327.29 776.195 329.175Q777.084 331.059 777.81 333.012Q778.536 334.965 779.093 336.973Q779.651 338.98 780.036 341.028C782.752 355.636 781.052 371.447 781.617 386.293C767.474 367.839 748.146 354.209 731.653 338.017C728.049 334.479 716.966 321.212 714.165 319.539C729.879 343.308 754.672 359.114 772.859 380.566C780.462 389.534 785.952 399.524 791.531 409.793C795.349 416.821 799.548 423.92 802.366 431.432C796.602 429.34 791.585 424.854 786.031 422.137C774.756 416.62 763.214 411.672 752.26 405.509C730.216 393.105 700.804 370.308 689.162 347.72C686.135 341.848 683.497 335.131 681.974 328.699C681.051 324.806 680.367 312.367 678.945 310.055C678.832 309.872 678.708 309.697 678.589 309.518C677.985 302.171 679.009 294.362 678.693 286.901C677.914 268.5 672.468 252.13 662.835 236.456C659.986 231.822 656.612 227.51 653.844 222.851L653.597 222.428L654.424 222.158C675.333 233.117 691.553 251.473 708.353 267.554C705.066 262.664 697.628 250.858 693.776 247.257Q688.285 239.343 682.317 231.781C657.833 200.795 639.027 192.997 600.442 191.828C591.459 191.556 581.94 192.175 573.058 191.076C572.873 191.053 572.688 191.026 572.503 191.001C581.915 189.78 590.976 187.679 600.253 185.77C603.445 185.559 606.677 185.575 609.876 185.498C607.485 184.624 605.001 183.904 602.577 183.119C600.4 184.131 598.071 183.749 595.959 184.921C589.639 186.068 583.253 187.149 577.045 188.813C571.499 190.299 566.088 192.36 560.458 193.515C548.392 195.988 513.625 199.376 502.923 194.891L498.077 193.272L499.786 188.036C499.239 188.726 498.892 189.157 498.682 190.034C498.51 190.754 498.331 191.337 498.052 192.023C497.929 192.057 468.716 183.939 463.114 182.869C456.528 181.611 449.033 180.372 442.351 180.332C439.287 180.313 436.213 181.088 433.185 181.072C433.112 181.072 431.833 181.005 431.655 180.901C430.402 180.169 426.3 171.824 424.374 169.888C424.182 169.695 423.983 169.509 423.788 169.32Z"/>
	<path fill="#4F5254" d="M422.399 136.107L422.885 136.954L422.616 138.442L423.11 138.283L423.545 134.661L423.819 134.611L424.06 135.542C423.95 140.572 423.672 145.546 424.542 150.529C423.573 148.439 422.329 146.264 421.765 144.035C421.973 141.412 421.594 138.639 422.399 136.107Z"/>
	<path fill="#1F2323" d="M605.381 177.037L613.185 176.842L614.011 177.241C610.427 178.998 602.073 180.961 598.065 180.878L597.447 180.384L599.321 180.455L597.739 179.635L597.878 179.258C599.776 179.028 601.888 178.892 603.698 178.29C604.688 177.961 604.902 178.005 605.381 177.037Z"/>
	<path fill="#020202" d="M574.95 107.901L574.764 107.242C580.598 106.104 586.837 105.851 592.767 105.53C614.893 104.333 638.388 106.025 657.409 118.633Q660.949 121.023 664.237 123.749C656.367 119.822 648.568 116.062 640.151 113.41C630.222 110.282 597.396 105.041 587.64 107.816C587.511 107.853 587.388 107.909 587.262 107.955L574.95 107.901Z"/>
	<path fill="#6F7A7E" d="M680.593 129.068C711.479 168.264 732.872 212.585 755.317 256.819C754.72 256.498 754.666 256.498 754.052 255.996C747.622 250.739 738.303 236.874 733.229 229.829C712.845 201.531 694.617 177.071 684.299 143.212C682.929 138.718 680.711 133.799 680.593 129.068Z"/>
	<path fill="#6F7A7E" d="M421.765 144.035Q421.011 141.956 420.421 139.825Q419.832 137.694 419.41 135.524Q418.988 133.353 418.737 131.156Q418.485 128.96 418.406 126.75C417.952 111.602 424.322 97.1044 434.619 86.2102C452.521 67.27 480.55 57.8568 506.094 57.2128C500.11 60.3226 493.972 63.3398 488.395 67.1459C474.287 76.7757 461.186 91.8623 455.008 107.792C464.501 101.839 474.366 97.5015 485.36 95.1837C512.928 89.3715 528.924 100.562 554.98 105.449C561.474 106.668 568.329 108.101 574.95 107.901L587.262 107.955C586.901 108.219 586.584 108.559 586.178 108.747C586.151 108.76 567.027 111.212 564.771 111.698C554.642 113.881 544.261 116.709 534.637 120.574C541.342 123.037 547.902 125.876 554.619 128.293C564.589 131.881 574.758 134.911 584.7 138.575C613.565 149.212 677.484 174.78 695.004 198.298C682.806 187.304 655.454 181.776 639.308 178.528C632.99 177.257 625.922 175.347 619.447 175.806C617.817 175.921 614.625 176.119 613.185 176.842L605.381 177.037C604.902 178.005 604.688 177.961 603.698 178.29C601.888 178.892 599.776 179.028 597.878 179.258L597.739 179.635L599.321 180.455L597.447 180.384L598.065 180.878L597.62 181.905L602.577 183.119C600.4 184.131 598.071 183.749 595.959 184.921C589.639 186.068 583.253 187.149 577.045 188.813C571.499 190.299 566.088 192.36 560.458 193.515C548.392 195.988 513.625 199.376 502.923 194.891L498.077 193.272L499.786 188.036C502.571 184.84 503.822 178.248 506.447 174.376C512.33 165.696 520.992 158.319 526.257 149.303C526.313 149.208 526.303 149.08 526.367 148.99C527.355 147.606 526.749 148.891 527.285 147.568C523.779 148.683 520.12 149.353 516.638 150.51C508.271 153.291 501.529 160.276 495.919 166.762C493.625 169.414 491.719 172.914 489.138 175.175L488.732 174.844L488.107 174.912L487.91 174.242C488.408 171.061 490.541 167.873 492.258 165.193L492.016 166.475C493.221 165.253 493.36 164.949 493.819 163.289C493.541 159.683 497.475 154.3 498.689 150.705C497.095 151.946 496.01 153.939 494.885 155.601C496.798 150.743 498.999 146.344 501.674 141.854C499.895 142.837 497.896 143.737 496.438 145.17C495.142 148.67 490.675 152.229 488.265 155.197C481.812 163.145 478.892 171.411 476.356 181.169C474.615 175.695 473.448 170.568 472.856 164.851C472.595 162.323 472.842 159.541 472.311 157.087C470.8 154.142 473.673 149.791 473.879 146.694C473.964 145.411 473.565 144.787 472.815 143.815C470.866 144.758 470.595 147.563 468.732 148.593C468.585 148.675 468.417 148.712 468.259 148.772C462.62 154.938 462.671 170.72 460.238 173.632C460.089 173.458 459.915 173.304 459.792 173.112C455.574 166.523 452.161 140.014 455.594 132.336C456.021 131.381 456.271 131.204 456.113 130.098C454.231 130.691 451.655 134.798 450.546 136.5C442.431 148.949 440.968 165.532 444.05 179.818C437.988 171.897 432.975 164.51 429.612 155.061C428.498 151.933 428.2 148.396 426.928 145.376C425.719 142.505 426.182 139.897 425.346 137.092C425.044 136.081 425.017 136.071 424.06 135.542L423.819 134.611L423.545 134.661L423.11 138.283L422.616 138.442L422.885 136.954L422.399 136.107C421.594 138.639 421.973 141.412 421.765 144.035Z"/>
	<path fill="#4F5254" d="M587.281 160.52Q592.727 160.394 598.174 160.468C587.643 164.21 577.411 167.914 567.816 173.798C566.37 173.068 565.363 173.711 563.817 173.25L564.94 172.648L565.14 171.954C564.649 171.554 564.154 171.482 563.554 171.31C568.523 168.753 573.637 168.075 577.645 163.759C579.764 162.763 581.71 161.904 584.015 161.393C584.074 161.406 584.132 161.426 584.192 161.433C585.832 161.62 585.911 161.433 587.281 160.52Z"/>
	<path fill="#363A3A" d="M493.819 163.289C494.051 162.819 494.059 162.75 494.441 162.276C495.682 160.736 497.71 159.287 499.235 158.004C512.283 147.026 528.617 144.408 545.084 142.991C536.76 148.885 528.307 155.646 522.778 164.348C532.772 163.701 542.715 162.36 552.697 161.55C564.039 160.631 575.896 160.332 587.281 160.52C585.911 161.433 585.832 161.62 584.192 161.433C584.132 161.426 584.074 161.406 584.015 161.393C577.647 160.441 572.843 164.272 566.766 164.83C563.311 164.158 559.265 164.901 555.749 165.166C543.216 166.112 529.598 166.551 518.833 173.838C514.205 176.97 503.448 186.463 502.647 192.159C502.523 193.04 502.757 194.031 502.923 194.891L498.077 193.272L499.786 188.036C502.571 184.84 503.822 178.248 506.447 174.376C512.33 165.696 520.992 158.319 526.257 149.303C526.313 149.208 526.303 149.08 526.367 148.99C527.355 147.606 526.749 148.891 527.285 147.568C523.779 148.683 520.12 149.353 516.638 150.51C508.271 153.291 501.529 160.276 495.919 166.762C493.625 169.414 491.719 172.914 489.138 175.175L488.732 174.844L488.107 174.912L487.91 174.242C488.408 171.061 490.541 167.873 492.258 165.193L492.016 166.475C493.221 165.253 493.36 164.949 493.819 163.289Z"/>
	<path fill="#363A3A" d="M422.399 136.107C423.684 122.977 427.956 111.376 435.377 100.479C428.83 124.642 428.339 147.375 440.132 170.057C438.009 155.672 439.699 141.944 448.643 130.039C452.593 124.783 457.392 120.586 462.843 116.957C459.53 129.781 457.897 142.762 458.64 156.006C462.256 143.019 470.75 135.082 482.289 128.6C491.161 123.616 500.866 120.159 510.694 117.599C497.411 126.413 479.132 142.062 475.608 158.262Q475.258 159.929 475.012 161.615C481.22 156.184 488.639 148.226 496.438 145.17C495.142 148.67 490.675 152.229 488.265 155.197C481.812 163.145 478.892 171.411 476.356 181.169C474.615 175.695 473.448 170.568 472.856 164.851C472.595 162.323 472.842 159.541 472.311 157.087C470.8 154.142 473.673 149.791 473.879 146.694C473.964 145.411 473.565 144.787 472.815 143.815C470.866 144.758 470.595 147.563 468.732 148.593C468.585 148.675 468.417 148.712 468.259 148.772C462.62 154.938 462.671 170.72 460.238 173.632C460.089 173.458 459.915 173.304 459.792 173.112C455.574 166.523 452.161 140.014 455.594 132.336C456.021 131.381 456.271 131.204 456.113 130.098C454.231 130.691 451.655 134.798 450.546 136.5C442.431 148.949 440.968 165.532 444.05 179.818C437.988 171.897 432.975 164.51 429.612 155.061C428.498 151.933 428.2 148.396 426.928 145.376C425.719 142.505 426.182 139.897 425.346 137.092C425.044 136.081 425.017 136.071 424.06 135.542L423.819 134.611L423.545 134.661L423.11 138.283L422.616 138.442L422.885 136.954L422.399 136.107Z"/>
	<path fill="#020202" d="M468.259 148.772C472.246 142.451 477.052 136.523 482.742 131.626C482.295 133.764 479.42 136.553 478.177 138.567C474.78 144.069 473.005 150.703 472.311 157.087C470.8 154.142 473.673 149.791 473.879 146.694C473.964 145.411 473.565 144.787 472.815 143.815C470.866 144.758 470.595 147.563 468.732 148.593C468.585 148.675 468.417 148.712 468.259 148.772Z"/>
	<path fill="#1F2323" d="M566.766 164.83C572.843 164.272 577.647 160.441 584.015 161.393C581.71 161.904 579.764 162.763 577.645 163.759C573.637 168.075 568.523 168.753 563.554 171.31C564.154 171.482 564.649 171.554 565.14 171.954L564.94 172.648L563.817 173.25C565.363 173.711 566.37 173.068 567.816 173.798C580.323 176.438 592.661 177.048 605.381 177.037C604.902 178.005 604.688 177.961 603.698 178.29C601.888 178.892 599.776 179.028 597.878 179.258L597.739 179.635L599.321 180.455L597.447 180.384L598.065 180.878L597.62 181.905L602.577 183.119C600.4 184.131 598.071 183.749 595.959 184.921C589.639 186.068 583.253 187.149 577.045 188.813C571.499 190.299 566.088 192.36 560.458 193.515C548.392 195.988 513.625 199.376 502.923 194.891C502.757 194.031 502.523 193.04 502.647 192.159C503.448 186.463 514.205 176.97 518.833 173.838C529.598 166.551 543.216 166.112 555.749 165.166C559.265 164.901 563.311 164.158 566.766 164.83Z"/>
	<path fill="#020202" d="M566.766 164.83C572.843 164.272 577.647 160.441 584.015 161.393C581.71 161.904 579.764 162.763 577.645 163.759C573.637 168.075 568.523 168.753 563.554 171.31L561.973 171.314L562.249 170.851C557.874 171.966 552.374 176.017 548.061 175.682L544.584 176.681C538.986 177.077 530.733 183.299 526.447 186.626C524.796 187.908 522.752 190.301 520.758 190.814C522.195 188.689 524.64 187.004 526.638 185.382C535.25 178.387 545.009 173.896 555.203 169.755C559.036 168.198 563.177 166.892 566.766 164.83Z"/>
	<path fill="#1F2323" d="M548.061 175.682C557.376 171.248 567.673 166.415 577.645 163.759C573.637 168.075 568.523 168.753 563.554 171.31L561.973 171.314L562.249 170.851C557.874 171.966 552.374 176.017 548.061 175.682Z"/>
	<path fill="#363A3A" d="M548.061 175.682C552.374 176.017 557.874 171.966 562.249 170.851L561.973 171.314L563.554 171.31C564.154 171.482 564.649 171.554 565.14 171.954L564.94 172.648L563.817 173.25C565.363 173.711 566.37 173.068 567.816 173.798C580.323 176.438 592.661 177.048 605.381 177.037C604.902 178.005 604.688 177.961 603.698 178.29C601.888 178.892 599.776 179.028 597.878 179.258L597.739 179.635L599.321 180.455L597.447 180.384L598.065 180.878L597.62 181.905C588.499 177.168 546.467 177.771 544.584 176.681L548.061 175.682Z"/>
	<path fill="#5A656C" d="M226.541 774.363C237.252 779.291 248.57 779.963 259.903 782.227C263.683 795.311 270.089 808.021 276.64 819.911C318.392 895.697 405.79 971.575 481.321 1013.25C487.993 1016.93 495.175 1020.07 501.664 1024L171.867 1024L168.65 1024L154.483 1024L152.273 1024L33.8227 1024C37.5047 1002.24 41.8906 980.619 45.3245 958.81C48.7446 937.088 50.5659 914.657 57.0626 893.569C69.8687 852.001 96.8678 828.123 136.246 812.635C152.842 806.108 170.067 801.323 186.646 794.778Q198.515 790.212 209.689 784.139C215.381 781.005 220.803 777.42 226.541 774.363Z"/>
	<path fill="#4F5254" d="M219.871 887.17C220.395 887.418 221.042 887.677 221.496 888.058C222.477 888.882 223.083 889.95 223.102 891.248C223.125 892.784 222.002 893.748 221 894.73C220.218 894.654 219.378 894.564 218.705 894.096C218.102 893.677 217.657 893.103 217.562 892.379C217.275 890.191 218.583 888.75 219.871 887.17Z"/>
	<path fill="#4F5254" d="M63.828 974.976C65.7861 974.815 67.4885 974.96 69.2703 975.85C70.7308 976.579 71.011 977.271 71.4549 978.72C71.0141 980.467 70.5073 980.839 69.2941 982.122C68.3163 982.245 67.4774 982.516 66.5352 982.143C64.8539 981.478 63.4821 980.266 63.0061 978.466C62.5754 976.837 63.0909 976.31 63.828 974.976Z"/>
	<path fill="#4F5254" d="M231.538 897.301C232.675 897.615 234.026 897.922 234.943 898.705C235.912 899.531 236.606 900.5 236.576 901.831C236.526 904.01 234.953 905.325 233.484 906.681C232.177 906.603 231.051 906.438 230.014 905.555C228.923 904.625 228.585 903.738 228.573 902.33C228.552 900.077 229.989 898.706 231.538 897.301Z"/>
	<path fill="#4F5254" d="M232.067 857.248C233.716 857.422 234.978 857.584 236.178 858.846C237.201 859.922 237.623 861.268 237.606 862.722C237.575 865.372 236.205 867.508 234.361 869.287C232.861 869.127 231.195 868.904 229.998 867.882C228.972 867.007 228.459 865.907 228.438 864.563C228.395 861.724 230.258 859.239 232.067 857.248Z"/>
	<path fill="#4F5254" d="M274.786 939.954C276.119 939.775 277.086 939.757 278.373 940.221C281.051 941.186 282.551 944.207 283.777 946.543C283.785 949.492 284.149 955.173 282.786 957.775C282.117 959.052 281.949 959.083 280.649 959.407C279.128 958.953 278.329 957.987 277.262 956.886C276.361 954.045 276.93 948.276 274.751 946.425C273.1 947.042 272.087 949.558 270.751 950.844L269.934 950.361C269.454 949.219 269.179 948.741 269.397 947.474C269.935 944.339 272.316 941.739 274.786 939.954Z"/>
	<path fill="#4F5254" d="M280.313 1007.22C279.2 1007.6 278.267 1007.95 277.077 1007.7C275.693 1007.41 274.401 1006.55 273.701 1005.33C272.423 1003.11 272.735 999.971 273.545 997.651C274.597 994.635 278.543 988.55 281.684 987.532C282.865 987.149 283.264 987.45 284.163 988.081C284.745 989.817 285.177 998.915 284.98 1000.77C284.706 1003.37 283.174 1005.29 281.205 1006.84C281.082 1006.55 280.922 1006.27 280.836 1005.97C280.785 1005.79 280.827 1005.59 280.801 1005.41C280.65 1004.31 279.825 1003.29 278.927 1002.67C278.788 1002.58 278.635 1002.51 278.489 1002.42C278.01 1003.47 278.269 1003.88 278.659 1004.95C279.019 1005.93 279.593 1006.48 280.313 1007.22Z"/>
	<path fill="#020202" d="M128.685 958.068C144.901 976.535 163.262 1000.77 171.867 1024L168.65 1024C161.75 1005.98 151.079 990.086 139.765 974.587C136.189 969.687 130.979 964.52 128.187 959.265L128.685 958.068Z"/>
	<path fill="#4F5254" d="M155.206 898.317C155.972 898.314 156.742 898.296 157.504 898.395C165.514 899.433 171.952 910.393 178.845 914.549C183.799 917.536 194.177 915.689 197.853 920.297L197.509 921.054C192.523 922.573 181.984 920.164 176.644 919.123L175.963 919.187L175.435 919.96C175.574 923.342 177.532 926.366 179.184 929.22C182.252 928.987 185.342 928.473 188.396 928.07C184.867 929.307 180.923 931.108 177.233 931.655C175.675 931.887 174.172 931.792 172.917 930.734C170.271 928.504 170.784 923.653 170.694 920.551C163.41 912.186 157.079 910.868 155.206 898.317Z"/>
	<path fill="#1F2323" d="M105.932 934.882C113.439 939.709 122.995 951.05 128.685 958.068L128.187 959.265C130.979 964.52 136.189 969.687 139.765 974.587C151.079 990.086 161.75 1005.98 168.65 1024L154.483 1024L152.273 1024C147.179 1004.46 138.515 986.882 129.699 968.831C127.001 965.765 125.171 960.676 122.876 957.143C117.774 949.291 111.996 942.002 105.932 934.882Z"/>
	<path fill="#020202" d="M129.699 968.831L130.363 968.253C132.644 970.441 133.958 974.719 135.369 977.562C143.431 993.796 149.385 1006.43 154.483 1024L152.273 1024C147.179 1004.46 138.515 986.882 129.699 968.831Z"/>
	<path fill="#5A656C" d="M519.776 1024C601.708 978.644 683.375 905.334 728.974 823.098C736.994 808.635 745.614 792.45 750.102 776.459C751.282 772.256 751.339 762.909 754.469 760.148C757.291 759.249 760.014 759.863 762.749 760.833C770.244 763.491 777.627 767.163 784.927 770.343Q804.92 779.196 825.181 787.417C843.708 794.938 862.477 801.857 880.961 809.474C889.61 813.038 898.394 816.498 906.711 820.791C935.878 835.847 954.585 863.756 964.243 894.519C970.964 915.926 973.868 935.953 977.526 958.002Q982.696 991.144 989.452 1024L880.736 1024L877.648 1024L858.761 1024L857.427 1024L856.217 1024L853.634 1024L519.776 1024Z"/>
	<path fill="#4F5254" d="M760.186 980.224C761.211 980.576 761.83 981.035 762.665 981.72C762.992 982.489 763.37 982.992 763.261 983.852C762.977 986.085 761.585 987.077 759.892 988.309C758.608 987.943 757.99 987.582 757.004 986.683C756.681 985.805 756.373 985.426 756.583 984.47C757.067 982.271 758.416 981.378 760.186 980.224Z"/>
	<path fill="#4F5254" d="M764.975 989.218C765.93 989.3 766.707 989.348 767.547 989.877C768.845 990.694 769.684 991.975 769.858 993.499C770.094 995.555 769.387 996.518 768.122 998.012C767.183 997.953 766.509 997.691 765.734 997.141C764.376 996.176 763.785 994.872 763.584 993.236C763.377 991.552 764.01 990.524 764.975 989.218Z"/>
	<path fill="#4F5254" d="M826.421 911.802C828.018 913.316 829.596 915.181 829.559 917.508C829.524 919.734 828.28 921.017 826.841 922.52C825.174 920.954 823.641 919.498 823.64 917.018C823.639 914.767 824.916 913.297 826.421 911.802Z"/>
	<path fill="#4F5254" d="M774.985 924.812C776.463 925.413 777.814 926.138 778.786 927.454C779.729 928.73 779.997 930.144 779.712 931.687C779.319 933.815 777.57 935.213 775.956 936.441C774.436 936.049 773.291 935.744 772.224 934.51C771.315 933.458 770.95 932.133 771.086 930.765C771.352 928.087 772.938 926.365 774.985 924.812Z"/>
	<path fill="#4F5254" d="M948.153 901.426C948.303 901.428 948.453 901.426 948.603 901.43C950.414 901.475 951.685 901.823 952.876 903.333C953.791 904.493 954.048 905.795 953.94 907.233C953.747 909.817 952.585 910.828 950.755 912.46C950.577 912.482 950.399 912.511 950.219 912.525C948.692 912.641 947.361 912.395 946.239 911.26C945.076 910.084 944.746 908.466 944.896 906.877C945.147 904.218 946.119 903.053 948.153 901.426Z"/>
	<path fill="#4F5254" d="M833.258 896.808C834.054 897.194 834.903 897.595 835.507 898.27C836.459 899.332 836.766 901.07 836.823 902.455C837.008 906.953 834.969 911.314 832.054 914.613C830.874 914.214 829.915 914.143 829.314 912.923C827.734 909.719 827.932 904.166 828.987 900.908C829.758 898.526 831.134 897.849 833.258 896.808Z"/>
	<path fill="#4F5254" d="M777.546 967.348C777.823 967.378 778.102 967.398 778.379 967.439C780.239 967.714 781.645 968.482 782.751 970.034C783.913 971.664 784.106 973.549 783.702 975.475C783.101 978.349 781.39 979.602 779.002 981.068C778.442 981.062 778.321 981.071 777.707 981.012C775.894 980.836 774.506 980.178 773.47 978.638C772.39 977.032 772.294 975.126 772.731 973.297C773.436 970.345 775.054 968.891 777.546 967.348Z"/>
	<path fill="#4F5254" d="M947.093 916.917C948.45 917.447 949.289 917.856 950.214 919.068C951.23 920.4 951.414 922.285 951.068 923.877C950.218 927.794 947.367 930.573 944.156 932.682C942.518 932.253 941.569 931.72 940.739 930.18C939.631 928.126 940.203 925.209 941.019 923.176C942.34 919.887 943.887 918.321 947.093 916.917Z"/>
	<path fill="#4F5254" d="M814.583 894.542C816.81 894.239 818.9 894.151 820.705 895.757C821.734 896.673 822.225 897.902 822.333 899.251C822.613 902.761 820.709 906.121 818.592 908.763C818.035 908.854 817.576 908.95 816.996 908.933C815.415 908.887 813.987 908.228 812.909 907.076C811.32 905.378 810.856 902.997 811.05 900.741C811.292 897.941 812.446 896.265 814.583 894.542Z"/>
	<path fill="#020202" d="M857.427 1024C867.252 1011.78 879.113 1001.03 890.442 990.225C898.325 982.708 906.093 974.799 914.593 967.983C910.243 973.691 906.698 979.988 902.339 985.629C895.35 998.536 887.487 1010.96 880.736 1024L877.648 1024C885.541 1011.87 891.382 997.775 900.08 986.182L899.55 984.988C899.174 985.083 898.762 985.09 898.42 985.274C896.721 986.19 860.541 1021.21 858.957 1023.65C858.885 1023.76 858.827 1023.88 858.761 1024L857.427 1024Z"/>
	<path fill="#020202" d="M896.578 887.681C892.312 904.111 886.484 920.312 881.386 936.505C875.87 954.028 870.982 971.723 865.843 989.357C862.531 1000.73 858.564 1012.4 856.217 1024L853.634 1024C860.201 995.864 868.472 967.845 877.259 940.322C882.891 922.685 888.549 904.399 896.578 887.681Z"/>
	<path fill="#1F2323" d="M858.761 1024C858.827 1023.88 858.885 1023.76 858.957 1023.65C860.541 1021.21 896.721 986.19 898.42 985.274C898.762 985.09 899.174 985.083 899.55 984.988L900.08 986.182C891.382 997.775 885.541 1011.87 877.648 1024L858.761 1024Z"/>
	<path fill="#4F5254" d="M689.755 933.81C694.17 937.225 699.216 942.443 700.224 948.097C700.936 952.096 699.64 955.917 697.302 959.151C688.739 970.997 670.97 975.921 657.362 978.372Q652.779 979.115 648.248 980.124C666.542 969.647 680.805 952.86 689.755 933.81Z"/>
	<path fill="#A1A1A2" d="M625.482 587.282C621.766 610.375 623.786 649.238 631.806 671.142C639.627 692.505 656.134 708.134 674.037 721.387C678.892 724.98 684.076 729 689.568 731.519C685.585 740.154 683.445 749.509 684.859 759.014C686.725 771.555 692.932 779.459 702.86 786.834C706.026 787.633 709.181 788.489 712.405 789.019C706.466 784.879 703.196 780.321 701.905 773.058C700.276 763.893 702.74 754.479 707.286 746.514C721.622 752.049 734.899 759.985 749.233 765.613C745.46 785.028 736.631 803.156 727.192 820.405C686.697 894.409 621.645 954.557 552.293 1001.29C538.714 1010.44 526.948 1016.12 512.961 1024L508.246 1024C500.672 1019.01 489.64 1014.57 481.381 1010.15C470.54 1004.35 460.194 997.342 449.922 990.59C390.368 951.441 331.762 899.09 292.054 839.573C282.548 825.324 273.772 810.514 267.599 794.491C263.997 786.531 261.501 778.335 259.625 769.813C268.872 764.007 278.804 759.491 288.469 754.456C300.184 748.353 311.677 741.715 323.223 735.293C343.116 724.229 367.429 712.495 383.024 695.808Q385.151 693.564 387.026 691.105Q388.901 688.646 390.502 686.001Q392.103 683.356 393.413 680.555Q394.722 677.754 395.725 674.829C402.702 653.996 400.713 612.261 400.007 589.174C415.998 604.391 452.125 641.854 470.73 650.428C479.236 654.347 488.994 655.548 498.244 656.111C513.294 657.028 530.657 656.753 544.924 651.695C566.542 644.031 606.61 604.007 625.482 587.282Z"/>
	<path fill="#4F5254" d="M712.912 799.701C715.334 799.348 717.925 799.45 720.377 799.379C712.854 802.223 704.803 804.064 697.02 806.092Q676.313 811.501 655.243 815.255Q634.173 819.01 612.872 821.085Q602.295 822.116 591.68 822.628C585.832 822.936 579.535 822.823 573.83 824.209C569.521 825.255 565.725 828.842 562.322 831.52C561.044 832.592 559.65 833.569 558.324 834.583C559.682 830.617 561.159 827.034 563.747 823.695C566.755 819.815 570.522 817.476 575.269 816.329C583.795 814.269 593.359 814.379 602.122 813.678Q621.67 812.071 641.171 809.971C665.219 807.423 688.918 802.531 712.912 799.701Z"/>
	<path fill="#4F5254" d="M577.295 698.876C577.761 702.724 574.932 710.832 573.891 714.824C568.434 735.75 561.934 756.102 555.169 776.627C549.666 793.324 544.32 810.527 536.411 826.265C531.679 835.683 524.529 847.982 513.729 851.247C509.366 852.566 504.927 852.057 500.929 849.896C480.172 838.673 468.722 789.412 462.671 767.556C461.063 762.916 460.103 758.105 459.049 753.317C467.255 770.09 473.099 788.209 480.119 805.501C484.328 815.87 490.743 831.346 501.917 835.748C506.614 837.599 511.728 837.243 516.319 835.248C522.193 832.696 526.222 827.754 529.462 822.423C535.969 811.718 539.766 799.142 544.286 787.496Q552.848 765.959 560.855 744.21C566.313 729.115 571.325 713.772 577.295 698.876Z"/>
	<path fill="#4F5254" d="M625.482 587.282C621.766 610.375 623.786 649.238 631.806 671.142C639.627 692.505 656.134 708.134 674.037 721.387C678.892 724.98 684.076 729 689.568 731.519C685.585 740.154 683.445 749.509 684.859 759.014C686.725 771.555 692.932 779.459 702.86 786.834C695.562 787.549 688.45 787.708 682.377 782.819C677.138 778.602 675.003 771.696 674.452 765.219C673.705 756.436 675.377 748.188 677.946 739.836C664.26 732.702 651.315 724.563 639.601 714.464C636.167 711.504 625.044 699.098 621.597 698.703C621.374 698.677 621.147 698.69 620.922 698.684C616.854 700.253 614.91 703.812 613.22 707.64C607.586 720.393 603.346 740.029 599.699 754.063C598.867 757.265 598.616 762.214 597.161 765.021L596.887 764.76L596.695 765.203C596.581 762.148 597.415 758.993 597.782 755.951Q599.228 743.132 600.955 730.348Q605.496 695.281 611.943 660.514C615.448 641.165 619.551 621.861 622.282 602.383C616.124 609.232 610.605 616.637 604.57 623.597C586.023 644.987 566.352 666.768 545.384 685.81C538.412 692.141 531.132 697.995 523.064 702.894C515.243 707.642 506.664 711.737 499.44 717.368C493.188 722.24 489.679 729.735 483.787 734.76C480.583 734.505 478.466 732.316 476.464 729.971C472.476 725.3 468.971 719.593 465.976 714.232C459.965 703.476 446.765 672.818 434.182 670.709C433.292 671.23 433.108 671.348 432.806 672.406C429.916 682.54 459.07 783.412 463.071 802.346C465.332 813.042 465.097 823.922 466.919 834.677L467.008 835.178C462.115 830.973 457.481 826.421 450.99 824.904C441.295 822.638 430.158 822.844 420.2 822.084Q397.124 820.553 374.294 816.865Q337.866 810.741 301.834 802.605Q290.559 799.978 279.358 797.054C275.756 796.117 272.071 794.783 268.415 794.177L267.599 794.491C263.997 786.531 261.501 778.335 259.625 769.813C268.872 764.007 278.804 759.491 288.469 754.456C300.184 748.353 311.677 741.715 323.223 735.293C343.116 724.229 367.429 712.495 383.024 695.808Q385.151 693.564 387.026 691.105Q388.901 688.646 390.502 686.001Q392.103 683.356 393.413 680.555Q394.722 677.754 395.725 674.829C402.702 653.996 400.713 612.261 400.007 589.174C415.998 604.391 452.125 641.854 470.73 650.428C479.236 654.347 488.994 655.548 498.244 656.111C513.294 657.028 530.657 656.753 544.924 651.695C566.542 644.031 606.61 604.007 625.482 587.282Z"/>
	<path fill="#A1A1A2" d="M412.749 734.684C414.428 735.378 415.681 736.479 416.842 737.851C425.305 747.856 436.089 783.213 434.621 796.374C434.313 799.137 433.522 802.189 431.212 803.956C420.671 812.014 395.463 807.129 383.119 805.176C374.294 803.513 365.824 802.181 357.983 797.555C363.322 793.059 369.391 789.452 374.736 784.871C384.957 776.109 394.875 765.066 401.934 753.595C405.744 747.405 408.825 740.817 412.749 734.684Z"/>
	<path fill="#A1A1A2" d="M445.507 627.289C439.187 622.838 433.443 616.99 427.81 611.695Q412.173 597.259 397.486 581.858C392.574 576.741 387.827 571.515 383.884 565.595C373.139 549.459 365.775 527.504 362.131 508.515C359.18 493.137 357.603 477.45 354.768 462.019C351.426 443.832 345.9 425.313 345.954 406.737C346.031 380.379 352.379 354.28 352.976 328.154Q353.362 312.499 352.346 296.873C351.54 285.62 350.092 274.153 350.387 262.865C350.767 248.354 368.27 217.487 378.778 207.569C392.89 194.25 420.613 183.576 440.153 184.035C457.743 184.028 474.273 188.203 490.943 193.323C498.666 195.696 506.794 199.073 514.895 199.516C533.074 200.51 551.263 195.945 569.272 194.297C576.578 193.629 583.953 194.035 591.274 194.259C595.996 194.403 600.956 194.283 605.618 195.06C608.467 201.165 636.709 217.959 638.525 229.084L637.564 231.436L638.084 232.21C638.632 231.073 638.577 230.599 639.744 230.021C641.371 231.192 641.856 233.47 642.765 235.204C649.801 248.628 653.456 263.17 655.882 278.069C657.769 289.656 658.486 301.396 660.328 312.979C661.503 320.366 670.837 364.882 675.065 367.858C675.228 367.972 675.405 368.065 675.575 368.169C678.335 380.408 679.307 392.159 678.218 404.691C676.562 423.755 669.165 441.467 666.035 460.295C662.121 483.838 662.754 508.003 657.3 531.325C655.19 540.347 651.807 549.156 646.825 556.994C641.644 565.144 635.097 572.641 628.449 579.633C616.935 591.744 603.929 602.868 591.315 613.836C579.315 624.27 566.768 635.911 553.081 644.049C548.069 647.029 542.977 649.009 537.283 650.266C517.228 654.696 483.676 655.284 466.147 643.928C458.864 639.209 451.732 633.35 445.507 627.289Z"/>
	<path fill="#5A656C" d="M562.227 555.432C564.492 554.864 567.503 554.415 569.574 555.783C570.676 556.511 570.877 557.471 571.116 558.668C570.55 559.816 570.403 560.288 569.079 560.716C568.434 560.924 567.19 560.845 566.595 560.63C566.502 559.958 566.433 559.117 566.197 558.466C565.599 556.815 563.692 556.157 562.227 555.432Z"/>
	<path fill="#D0110F" d="M610.282 445.882C613.004 444.998 615.432 443.434 617.905 442.017L617.939 442.744C618.225 448.191 619.873 453.531 621.61 458.671C623.043 462.91 624.908 467.268 625.866 471.634C628.464 483.476 622.554 494.189 617.646 504.55C612.903 514.16 606.339 522.549 601.424 532.034C604.067 521.661 610.775 513.621 614.562 503.847C616.689 498.498 618.783 491.691 618.429 485.881C618.155 481.388 616.048 477.331 614.323 473.261C610.804 464.96 607.507 454.84 610.282 445.882Z"/>
	<path fill="#5A656C" d="M470.205 352.601L471.294 351.702C473.048 353.506 473.286 358.126 474.134 360.574C474.024 362.888 474.043 365.117 473.236 367.316C471.942 367.691 471.746 366.748 470.642 367.206L471.22 367.569C478.653 372.317 484.663 381.111 486.619 389.728C486.766 390.376 486.862 391.032 486.946 391.691C487.149 395.364 486.889 398.414 485.143 401.729C481.409 408.818 473.753 412.37 466.485 414.657C469.788 411.559 474.945 406.788 475.236 402.035C475.446 398.612 473.802 394.88 471.582 392.355L469.904 390.436C469.902 390.284 469.911 390.131 469.897 389.98C469.118 381.737 460.908 371.951 454.55 367.158C453.823 365.707 452.738 365.034 451.461 364.107L450.881 363.692C452.907 363.385 454.853 363.08 456.82 362.487L457.251 362.353C458.476 362.844 459.753 363.416 461.024 363.768C462.11 364.068 462.698 364.029 463.637 363.401L463.781 362.325C464.721 363.197 466.651 365.451 467.826 365.512C467.899 364.262 468.015 363.144 468.286 361.914C468.975 362.083 469.365 365.468 469.977 366.476L470.732 366.453C471.421 365.877 471.742 365.516 472.071 364.651C473.314 361.381 471.454 355.71 470.205 352.601Z"/>
	<path fill="#BAB9B8" d="M497.875 606.215C508.738 604.583 528.878 605.974 538.074 612.193C540.973 614.153 543.783 617.015 544.372 620.609Q544.434 620.968 544.458 621.332Q544.482 621.695 544.468 622.059Q544.455 622.423 544.403 622.784Q544.352 623.145 544.264 623.498Q544.176 623.852 544.051 624.194Q543.927 624.537 543.768 624.864Q543.609 625.192 543.416 625.502Q543.224 625.811 543.001 626.099C538.534 631.789 529.169 632.986 522.5 633.808C509.271 634.984 491.243 636.782 479.802 628.938C477.297 627.221 475.018 624.909 474.552 621.784C474.214 619.517 474.902 617.36 476.248 615.535C481.115 608.934 490.302 607.172 497.875 606.215Z"/>
	<path fill="#020202" d="M569.501 341.32C584.66 337.593 610.312 328.326 624.864 328.607Q626.067 328.635 627.265 328.741Q628.464 328.846 629.653 329.027Q630.843 329.208 632.018 329.466Q633.193 329.723 634.35 330.054Q635.506 330.386 636.639 330.79Q637.772 331.195 638.877 331.671Q639.982 332.147 641.055 332.693Q642.127 333.239 643.162 333.852C650.255 338.118 656.701 345.688 660.845 352.79C650.987 346.976 640.188 339.258 628.17 342.164C615.247 345.288 603.104 351.998 590.087 355.219L585.622 355.791Q568.95 358.714 552.409 362.304C550.267 362.891 548.139 363.503 545.957 363.927C545.934 358.205 547.759 353.926 551.054 349.38C551.856 349.093 551.59 349.249 552.229 348.81C557.733 345.029 563.075 343.051 569.501 341.32Z"/>
	<path fill="#4F5254" d="M496.896 538.92C496.368 537.997 495.776 537.043 495.377 536.057C494.888 534.849 494.698 533.989 495.189 532.789C496.876 532.514 497.981 533.274 499.546 533.91C499.602 534.102 499.644 534.299 499.715 534.486C500.314 536.067 501.938 537.152 503.453 537.748C506.952 539.127 511.321 538.718 514.69 537.146C516.964 536.085 518.363 534.856 519.225 532.496C522.232 535.508 526.381 537.346 529.998 539.54L529.911 540.102C534.977 541.865 540.403 543.693 545.035 546.42C550.046 549.37 555.296 554.385 560.773 556.19L562.227 555.432C563.692 556.157 565.599 556.815 566.197 558.466C566.433 559.117 566.502 559.958 566.595 560.63C563.021 560.395 560.454 561.275 557.187 562.616C554.592 562.97 552.212 562.732 549.631 562.468C542.866 560.766 535.755 558.666 528.711 559.174C522.051 559.655 515.662 561.318 508.924 561.212C500.931 561.087 492.94 559.604 484.948 559.225C474.488 558.728 463.726 559.628 453.297 560.483C452.115 560.457 450.976 560.318 449.811 560.115C447.862 559.776 447.145 559.135 446.05 557.536C445.876 556.171 445.786 556.14 446.522 554.999L447.572 554.856L448.613 555.947C465.317 554.54 480.712 542.446 496.896 538.92Z"/>
	<path fill="#BAB9B8" d="M496.896 538.92C496.368 537.997 495.776 537.043 495.377 536.057C494.888 534.849 494.698 533.989 495.189 532.789C496.876 532.514 497.981 533.274 499.546 533.91C499.602 534.102 499.644 534.299 499.715 534.486C500.314 536.067 501.938 537.152 503.453 537.748C506.952 539.127 511.321 538.718 514.69 537.146C516.964 536.085 518.363 534.856 519.225 532.496C522.232 535.508 526.381 537.346 529.998 539.54L529.911 540.102C521.107 539.521 514.788 544.962 506.813 542.882C503.458 542.007 500.083 540.297 496.896 538.92Z"/>
	<path fill="#020202" d="M453.297 560.483C452.115 560.457 450.976 560.318 449.811 560.115C447.862 559.776 447.145 559.135 446.05 557.536C445.876 556.171 445.786 556.14 446.522 554.999L447.572 554.856L448.613 555.947C448.832 556.123 449.044 556.307 449.268 556.476C451.577 558.217 455.992 557.802 458.778 557.665C468.144 557.204 477.333 556.346 486.717 557.06C495.893 557.759 505.325 560.685 514.523 559.706C520.122 559.111 525.419 556.948 531.093 556.925C539.254 556.892 554.375 564.761 560.347 556.796C560.495 556.598 560.631 556.392 560.773 556.19L562.227 555.432C563.692 556.157 565.599 556.815 566.197 558.466C566.433 559.117 566.502 559.958 566.595 560.63C563.021 560.395 560.454 561.275 557.187 562.616C554.592 562.97 552.212 562.732 549.631 562.468C542.866 560.766 535.755 558.666 528.711 559.174C522.051 559.655 515.662 561.318 508.924 561.212C500.931 561.087 492.94 559.604 484.948 559.225C474.488 558.728 463.726 559.628 453.297 560.483Z"/>
	<path fill="#D0110F" d="M637.564 231.436L638.084 232.21C635.319 239.552 632.178 246.937 629.993 254.471C625.44 270.165 618.253 310.702 606.501 320.426C600.47 325.417 587.961 332.252 580.757 335.841C577.177 337.625 572.784 339.124 569.501 341.32C563.075 343.051 557.733 345.029 552.229 348.81C551.59 349.249 551.856 349.093 551.054 349.38C552.603 343.382 555.555 337.629 557.508 331.741C559.335 326.235 560.313 320.054 562.788 314.82C566.118 307.779 580.475 301.032 587.93 298.444C591.195 297.31 594.678 296.892 597.925 295.714C607.334 292.301 605.82 282.825 611.25 276.471C614.244 272.969 619.201 272.053 621.611 267.757C625.021 261.679 624.667 254.288 627.443 247.973C629.998 242.158 634.731 237.302 637.564 231.436Z"/>
	<path fill="#020202" d="M423.14 358.841C434.85 358.982 444.348 361.467 454.55 367.158C460.908 371.951 469.118 381.737 469.897 389.98C469.911 390.131 469.902 390.284 469.904 390.436C465.262 384.955 461.149 379.417 456.08 374.282C453.571 374.572 452.334 373.016 450.11 373.694C453.583 377.322 462.988 387.099 463.263 392.172L461.57 391.298C461.349 392.867 462.246 394.252 461.136 395.376C460.334 395.4 459.508 395.469 458.708 395.425L457.853 395.541C451.371 396.447 445.009 398.302 438.517 399.233C431.885 400.184 425.114 400.025 418.429 400.183L418.003 400.839C415.994 400.929 414.069 400.6 412.089 400.307L412.367 400.933L412.231 400.314L411.985 400.66L413.812 401.837C412.763 402.669 411.395 402.504 410.077 402.623C410.322 401.659 410.36 401.491 410.108 400.479C408.441 399.526 405.952 399.995 403.995 399.446C403.85 399.405 403.705 399.361 403.561 399.318C402.927 398.687 402.441 398.112 402.001 397.336C400.721 395.085 398.111 395.727 395.666 390.918C390.656 389.502 386.293 388.578 381.703 386.028L383.841 386.664C381.726 385.515 378.041 384.01 377.016 381.827C378.161 381.535 380.492 382.771 381.689 383.235C381.812 383.282 382.481 383.558 382.667 383.596C384.293 383.935 385.963 383.271 387.279 382.35C385.385 382.14 384.536 382.271 382.963 381.11L383.066 380.432C385.181 379.279 387.96 379.406 390.282 378.709C389.237 377.638 386.448 378.467 384.811 378.144L385.345 377.34C386.47 377.209 386.891 377.222 387.841 376.555C387.831 376.292 387.767 374.828 387.804 374.595C387.959 373.594 392.924 375.567 394.518 374.927C392.909 373.742 390.35 373.579 388.389 373.18C392.751 369.438 398.241 364.864 403.694 362.857C405.386 362.235 407.557 362.527 409.09 361.709C409.661 361.404 409.492 361.461 409.632 360.781L406.935 360.046C412.257 360.276 417.812 359.247 423.14 358.841Z"/>
	<path fill="#363A3A" d="M398.337 368.338C398.79 368.628 399.243 368.919 399.681 369.231C400.819 370.039 401.44 370.279 401.65 371.668L400.325 372.583C398.821 372.006 396.511 371.482 395.663 370.051C396.357 368.855 397.1 368.838 398.337 368.338Z"/>
	<path fill="#4F5254" d="M401.313 365.128C401.497 365.169 401.688 365.189 401.867 365.25C403.594 365.843 404.991 367.408 405.866 368.956L405.317 369.769C404.267 369.664 402.69 369.428 401.764 368.882C400.594 368.193 400.531 367.89 400.254 366.667L401.313 365.128Z"/>
	<path fill="#39550B" d="M438.025 378.655C436.714 375.166 435.255 374.612 432.475 372.462L435.43 373.574C436.779 372.972 438.007 372.422 439.535 372.726C441.936 373.203 443.442 375.991 444.544 377.918C442.276 377.961 440.224 377.997 438.025 378.655Z"/>
	<path fill="#F9F9F9" d="M424.835 383.972C426.294 382.421 427.331 381.714 429.559 381.688C430.975 381.672 432.197 382.002 433.255 382.98C433.944 383.615 433.805 383.874 433.923 384.738C432.905 386.488 431.352 387.001 429.473 387.478C429.012 387.595 428.548 387.706 428.08 387.789C426.794 386.641 425.851 385.359 424.835 383.972Z"/>
	<path fill="#5A656C" d="M450.11 373.694C446.26 370.965 441.694 367.535 437.012 366.459C434.146 365.801 430.615 365.954 427.956 364.646L428.261 363.984C430.181 363.796 431.478 365.377 433.356 364.896C432.898 363.899 432.378 363.655 431.37 363.312C428.605 362.373 425.881 364.258 423.48 365.461C422.97 364.463 422.754 363.544 422.497 362.461L422.967 361.978C435.272 363.119 447.357 364.608 456.08 374.282C453.571 374.572 452.334 373.016 450.11 373.694Z"/>
	<path fill="#6A9F05" d="M420.066 374.894C422.494 375.258 424.641 375.407 426.901 376.434L427.23 377.306C425.841 379.833 424.797 381.079 424.835 383.972C425.851 385.359 426.794 386.641 428.08 387.789C428.878 388.435 428.935 388.44 429.964 388.497C431.759 387.605 433.277 386.657 434.714 385.244C436.826 383.168 438.012 381.688 438.025 378.655C440.224 377.997 442.276 377.961 444.544 377.918C445.37 381.671 445.49 385.091 443.413 388.504C441.147 392.228 436.943 394.568 432.763 395.448C428.982 396.243 425.026 395.838 421.736 393.711C419.194 392.067 417.28 389.57 416.692 386.572C415.862 382.336 417.693 378.288 420.066 374.894Z"/>
	<path fill="#F9F9F9" d="M415.22 374.05C413.76 377.802 412.87 381.175 413.609 385.256Q413.74 385.965 413.941 386.658Q414.142 387.351 414.411 388.02Q414.679 388.69 415.013 389.329Q415.347 389.969 415.742 390.572Q416.138 391.176 416.591 391.737Q417.044 392.298 417.551 392.811Q418.058 393.324 418.613 393.785Q419.168 394.246 419.766 394.649C423.816 397.407 428.889 397.927 433.606 396.951C438.711 395.894 443.567 393.001 446.335 388.499C449.066 384.055 448.976 379.882 447.744 375.037C451.252 378.646 460.744 386.946 460.672 392.258C460.651 393.849 459.734 394.369 458.708 395.425L457.853 395.541C451.371 396.447 445.009 398.302 438.517 399.233C431.885 400.184 425.114 400.025 418.429 400.183C415.228 399.559 412.002 398.648 408.971 397.441C405.448 396.037 401.38 393.725 399.945 389.996C399.143 387.911 399.373 385.693 400.404 383.731C403.11 378.579 409.929 375.708 415.22 374.05Z"/>
	<path fill="#5A656C" d="M487.304 390.813L487.132 389.251L487.881 389.065Q488.628 389.538 489.324 390.083Q490.02 390.628 490.659 391.24Q491.297 391.852 491.872 392.524Q492.447 393.196 492.952 393.921Q493.457 394.647 493.887 395.42Q494.318 396.192 494.669 397.003Q495.021 397.815 495.29 398.657Q495.559 399.499 495.743 400.364C497.95 411.017 488.827 461.841 483.081 470.039C478.675 476.326 471.344 481.498 472.671 490.205C473.045 492.662 474.161 496.013 476.302 497.497C478.125 498.761 480.348 498.553 482.457 498.497C481.718 497.986 481.093 497.421 480.439 496.804C479.929 495.542 479.697 494.553 479.787 493.178C479.981 490.231 481.762 487.47 483.876 485.524C486.199 483.093 488.489 481.688 491.621 480.481C506.482 489.666 511.028 484.581 525.863 481.248L526.497 481.111C530.938 484.348 537.768 489.843 543.491 489.61C546.211 488.012 545.885 482.72 546.767 479.806C546.815 479.646 546.866 479.488 546.916 479.329C547.939 484.6 547.834 489.03 544.69 493.698C537.522 504.337 522.03 501.709 519.311 510.988C517.269 517.955 520.791 525.704 519.225 532.496C518.363 534.856 516.964 536.085 514.69 537.146C511.321 538.718 506.952 539.127 503.453 537.748C501.938 537.152 500.314 536.067 499.715 534.486C499.644 534.299 499.602 534.102 499.546 533.91C497.993 529.877 498.463 525.158 496.2 521.32C489.721 510.333 472.146 510.924 467.818 496.533C463.984 483.784 471.634 477.157 477.038 467.099C483.458 455.15 489.916 418.241 489.646 403.977C489.558 399.296 488.667 395.286 487.304 390.813Z"/>
	<path fill="#6F7A7E" d="M482.457 498.497C481.718 497.986 481.093 497.421 480.439 496.804C479.929 495.542 479.697 494.553 479.787 493.178C479.981 490.231 481.762 487.47 483.876 485.524L483.505 486.434C482.851 488.015 481.494 489.471 482.054 491.211C481.803 492.75 481.694 492.869 482.413 494.227C485.626 496.401 491.849 494.012 495.698 494.323C494.627 496.272 493.763 497.286 491.555 497.99C488.763 498.882 485.379 498.576 482.457 498.497Z"/>
	<path fill="#020202" d="M528.5 489.106C530.817 488.991 534.244 489.18 536.065 490.885C537.105 491.86 537.083 492.266 537.154 493.588C535.988 496.244 533.894 497.823 531.286 499.05C530.151 499.583 529.402 499.92 528.188 499.481C528.568 497.667 530.323 496.504 531.69 495.317C532.164 494.238 532.131 494.086 531.944 492.911L530.997 492.355C526.312 491.949 521.277 494.856 516.868 496.342C520.372 492.258 523.294 490.449 528.5 489.106Z"/>
	<path fill="#020202" d="M482.054 491.211C484.663 489.191 486.982 487.661 490.418 488.215C494.886 488.936 498.386 492.904 501.363 496.034C499.523 495.472 497.575 494.693 495.698 494.323C491.849 494.012 485.626 496.401 482.413 494.227C481.694 492.869 481.803 492.75 482.054 491.211Z"/>
	<path fill="#A1A1A2" d="M499.546 533.91C499.922 532.711 499.749 531.612 499.813 530.373C500.154 523.79 503.544 512.012 508.906 507.691C509.92 506.873 510.481 506.862 511.732 506.975C517.91 511.069 516.601 525.774 518.999 532.011C519.063 532.177 519.15 532.334 519.225 532.496C518.363 534.856 516.964 536.085 514.69 537.146C511.321 538.718 506.952 539.127 503.453 537.748C501.938 537.152 500.314 536.067 499.715 534.486C499.644 534.299 499.602 534.102 499.546 533.91Z"/>
	<path fill="#5A656C" d="M453.297 560.483C463.726 559.628 474.488 558.728 484.948 559.225C492.94 559.604 500.931 561.087 508.924 561.212C515.662 561.318 522.051 559.655 528.711 559.174C535.755 558.666 542.866 560.766 549.631 562.468C552.212 562.732 554.592 562.97 557.187 562.616C555.352 568.428 551.986 572.351 547.221 575.97L546.354 576.952C539.751 586.493 534.635 588.467 523.624 590.989C531.412 593.838 539.047 596.455 544.485 603.035C536.841 602.593 529.16 601.91 521.5 602.163C513.949 602.412 506.399 603.532 498.852 603.54C488.695 603.552 478.355 602.544 468.205 601.964C473.632 596.225 480.47 593.667 487.501 590.47C468.011 583.429 467.897 569.366 453.297 560.483Z"/>
	<path fill="#363A3A" d="M496.552 585.137C508.779 587.823 524.175 585.149 535.716 580.719C539.163 579.395 542.821 576.912 546.374 576.14C546.655 576.079 546.938 576.027 547.221 575.97L546.354 576.952C546.078 577.028 545.8 577.096 545.525 577.179C541.444 578.402 537.777 582.33 533.684 584.077C518.887 590.395 497.162 591.458 482.485 584.216C479.164 582.577 475.198 579.955 472.705 577.236C478.232 580.911 487.779 586.76 494.762 585.569C495.369 585.466 495.961 585.305 496.552 585.137Z"/>
	<path fill="#6F7A7E" d="M473.309 563.11C484.49 562.672 495.605 564.081 506.778 564.052C515.248 564.031 523.515 562.507 531.924 562.396C536.879 562.331 545.355 564.511 549.631 562.468C552.212 562.732 554.592 562.97 557.187 562.616C555.352 568.428 551.986 572.351 547.221 575.97C546.938 576.027 546.655 576.079 546.374 576.14C542.821 576.912 539.163 579.395 535.716 580.719C524.175 585.149 508.779 587.823 496.552 585.137C494.457 584.515 492.371 583.871 490.387 582.942C482.039 579.031 476.31 571.675 473.309 563.11Z"/>
	<path fill="#A1A1A2" d="M490.71 347.617C490.793 347.806 490.871 347.997 490.96 348.183C492.868 352.174 496.21 354.543 500.394 355.893C504.07 357.079 507.986 357.143 511.452 355.288C514.488 353.663 517.435 350.114 518.497 346.83C518.363 354.521 518.784 361.257 524.454 367.119C527.583 370.354 531.489 372.875 535.203 375.379C531.037 382.218 528.749 390.343 530.74 398.322C531.532 401.495 533.063 404.235 535.17 406.718L535.188 407.541C531.655 409.949 529.693 411.742 528.882 416.215C528.209 419.93 528.786 424.009 529.142 427.75C531.095 448.291 537.538 448.583 544.209 464.991C545.988 469.366 546.113 474.682 546.916 479.329C546.866 479.488 546.815 479.646 546.767 479.806C545.885 482.72 546.211 488.012 543.491 489.61C537.768 489.843 530.938 484.348 526.497 481.111L525.863 481.248C511.028 484.581 506.482 489.666 491.621 480.481C488.489 481.688 486.199 483.093 483.876 485.524C481.762 487.47 479.981 490.231 479.787 493.178C479.697 494.553 479.929 495.542 480.439 496.804C481.093 497.421 481.718 497.986 482.457 498.497C480.348 498.553 478.125 498.761 476.302 497.497C474.161 496.013 473.045 492.662 472.671 490.205C471.344 481.498 478.675 476.326 483.081 470.039C488.827 461.841 497.95 411.017 495.743 400.364Q495.559 399.499 495.29 398.657Q495.021 397.815 494.669 397.003Q494.317 396.192 493.887 395.42Q493.457 394.647 492.952 393.921Q492.447 393.196 491.872 392.524Q491.297 391.852 490.659 391.24Q490.02 390.628 489.324 390.083Q488.628 389.538 487.881 389.065L487.132 389.251L487.304 390.813L486.946 391.691C486.862 391.032 486.766 390.376 486.619 389.728C484.663 381.111 478.653 372.317 471.22 367.569L470.642 367.206C471.746 366.748 471.942 367.691 473.236 367.316C474.043 365.117 474.024 362.888 474.134 360.574C480.917 359.431 486.647 352.701 490.71 347.617Z"/>
	<path fill="#BAB9B8" d="M514.193 376.404C515.603 376.787 516.593 377.046 517.635 378.163C518.561 379.156 519.035 380.651 519.252 381.959C520.218 387.78 518.402 394.972 518.074 400.906C517.502 411.241 517.719 421.808 517.655 432.166C517.624 437.252 517.065 442.4 517.267 447.476C517.598 455.808 523.25 462.725 522.334 471.491C522.048 474.233 521.091 476.848 518.846 478.574C514.634 481.813 506.239 482.265 501.113 481.585C500.32 481.406 499.525 481.126 498.768 480.831C496.176 479.819 493.855 477.704 492.764 475.123C488.938 466.08 498.287 459.421 500.453 451.649C501.747 447.006 501.447 440.949 501.599 436.125Q502.158 418.57 501.366 401.023C501.163 397.148 500.357 393.329 500.261 389.451C500.221 387.88 500.146 385.49 500.94 384.071C502.92 380.53 510.476 378.048 514.193 376.404Z"/>
	<path fill="#4F5254" d="M585.622 355.791L590.087 355.219C594.409 356.982 603.107 356.72 608.141 357.377C621.505 359.119 641.077 363.824 652.963 370.101C652.274 376.785 651.689 383.469 650.126 390.02C645.522 409.315 634.044 429.084 618.487 441.576C618.297 441.728 618.11 441.885 617.905 442.017C615.432 443.434 613.004 444.998 610.282 445.882C605.11 447.021 599.977 447.636 594.674 447.32C576.662 446.245 560.157 434.902 548.162 422.067C543.578 417.161 539.601 411.756 535.17 406.718C533.063 404.235 531.532 401.495 530.74 398.322C528.749 390.343 531.037 382.218 535.203 375.379C538.733 372.071 543.392 367.993 545.957 363.927C548.139 363.503 550.267 362.891 552.409 362.304Q568.95 358.714 585.622 355.791Z"/>
	<path fill="#363A3A" d="M558.753 395.421L559.179 394.894C563.557 398.454 569.974 399.882 575.524 399.204C576.722 399.057 577.75 398.794 578.749 398.089C584.713 399.541 590.069 400.478 596.223 400.577L596.988 401.21C598.926 401.005 600.465 400.517 602.314 401.227C602.945 402.185 603.597 403.106 604.039 404.17L603.468 404.175C603.347 404.042 603.229 403.907 603.106 403.777C602.943 403.605 602.774 403.44 602.611 403.27C602.197 402.839 602.136 402.689 601.552 402.405C600.158 401.725 598.891 401.544 597.463 401.989C597.336 402.257 597.152 402.505 597.084 402.793C596.821 403.898 597.262 405.053 597.753 406.011C598.969 406.42 599.52 405.906 600.669 405.445L600.809 405.968C599.631 407.377 596.799 407.65 594.967 407.788C592.896 407.945 590.098 408.072 588.431 406.642C588.318 405.956 588.246 405.302 588.2 404.605L588.154 403.831L587.359 403.723C586.68 404.952 587.361 405.435 586.677 406.738L585.954 406.384C585.581 405.132 585.531 404.615 585.94 403.369C586.63 402.893 587.092 402.498 587.599 401.829L587.229 400.98C586.44 400.814 585.721 400.606 584.971 400.314C583.917 399.902 583.766 400.068 582.693 400.264L582.604 400.941L584.881 401.835C585.063 402.29 585.446 403.076 585.478 403.592C585.575 405.126 585.322 405.329 584.313 406.331C582.917 406.645 581.862 406.671 580.452 406.38C575.855 405.433 561.348 399.19 558.753 395.421Z"/>
	<path fill="#020202" d="M592.73 362.463C580.964 363.045 569.287 366.777 561.17 375.631C559.273 377.7 557.496 379.662 556.426 382.293L555.562 382.728C555.587 379.53 560.804 373.286 563.125 370.99C572.255 361.958 585.934 359.674 598.293 359.895C607.385 360.058 617.253 362.394 623.88 368.951L624.857 369.728C624.743 369.814 624.638 369.913 624.515 369.985C623.347 370.671 621.781 370.831 620.481 370.543C617.599 369.906 614.695 367.645 611.865 366.609C608.049 365.212 603.084 365.204 599.012 364.489C600.394 364.12 601.761 363.792 603.166 363.522L602.879 363.565L602.703 362.899C599.372 362.901 596.053 362.666 592.73 362.463Z"/>
	<path fill="#363A3A" d="M592.73 362.463C601.759 360.922 610.219 363.246 618.477 366.764C620.139 367.472 622.096 368.9 623.88 368.951L624.857 369.728C624.743 369.814 624.638 369.913 624.515 369.985C623.347 370.671 621.781 370.831 620.481 370.543C617.599 369.906 614.695 367.645 611.865 366.609C608.049 365.212 603.084 365.204 599.012 364.489C600.394 364.12 601.761 363.792 603.166 363.522L602.879 363.565L602.703 362.899C599.372 362.901 596.053 362.666 592.73 362.463Z"/>
	<path fill="#020202" d="M558.753 395.421C558.481 394.748 558.336 394.582 558.313 393.884C558.175 389.802 567.902 378.105 571.05 374.983C578.962 367.135 588.074 364.411 599.012 364.489C603.084 365.204 608.049 365.212 611.865 366.609C614.695 367.645 617.599 369.906 620.481 370.543C621.781 370.831 623.347 370.671 624.515 369.985C624.638 369.913 624.743 369.814 624.857 369.728C625.531 370.312 626.301 370.858 626.951 371.453C627.101 371.59 627.52 372.156 627.658 372.34Q625.737 372.249 623.814 372.238L623.65 372.802C625.312 374.364 629.054 374.191 629.985 375.814C628.74 376.627 627.397 376.647 625.96 376.804C627.144 377.615 628.586 377.594 629.975 377.74L630.761 377.21L631.541 377.828L631.461 378.509C630.52 378.814 629.614 379.099 628.641 379.279L628.803 380.292L628.891 379.461C631.766 380.24 636.183 380.628 638.398 382.554L638.343 383.527C634.771 385.99 629.699 384.337 626.28 386.39C626.416 386.465 626.552 386.538 626.687 386.615C628.032 387.383 628.595 387.884 629.363 389.224L629.241 389.916C627.622 389.832 626.333 388.94 624.946 388.177L624.583 388.572L626.525 390.513C625.96 391.07 624.523 390.816 623.714 390.818L623.928 390.758C624.016 390.857 624.095 390.964 624.191 391.055C625.385 392.185 627.533 392.414 628.312 393.816C626.197 393.544 624.548 392.179 622.433 392.111C622.128 393.124 622.395 393.316 622.741 394.28L621.96 394.501L620.328 393.498L619.893 393.978C620.002 394.093 620.111 394.207 620.218 394.323C622.092 396.356 623.65 398.632 625.253 400.878C623.111 399.004 620.755 396.469 618.211 395.232L617.773 395.615C618.138 396.514 619.525 399.086 619.245 399.872C618.06 399.41 618.18 399.301 617.509 398.308C617.134 399.336 617.248 398.841 617.123 399.782C615.671 399.681 614.743 398.662 613.671 397.775C612.285 397.675 612.321 397.805 611.203 398.668C611.716 400.6 613.365 401.925 613.76 403.856C612.472 403.211 611.646 402.47 610.641 401.475C609.294 402.004 607.23 403.158 605.804 402.524C605.273 402.287 604.827 401.883 604.297 401.642C604.162 401.581 604.005 401.589 603.859 401.563L604.086 401.959C605.104 403.694 606.325 405.169 607.624 406.698L607.103 406.983C605.914 406.107 605.024 405.271 604.039 404.17C603.597 403.106 602.945 402.185 602.314 401.227C600.465 400.517 598.926 401.005 596.988 401.21L596.223 400.577C590.069 400.478 584.713 399.541 578.749 398.089C577.75 398.794 576.722 399.057 575.524 399.204C569.974 399.882 563.557 398.454 559.179 394.894L558.753 395.421Z"/>
	<path fill="#363A3A" d="M603.859 401.563L603.808 401.235C604.334 400.723 604.204 400.781 604.754 400.458C606.03 399.708 607.602 399.037 609.096 399.495C609.817 399.716 610.255 400.847 610.641 401.475C609.294 402.004 607.23 403.158 605.804 402.524C605.273 402.287 604.827 401.883 604.297 401.642C604.162 401.581 604.005 401.589 603.859 401.563Z"/>
	<path fill="#660C0B" d="M585.219 371.567C589.674 370.088 595.46 369.352 599.845 371.288C601.47 372.718 602.798 373.946 603.867 375.845C602.851 376.058 602.465 376.09 601.644 376.767L600.468 375.992L597.132 374.169C595.775 372.878 594.724 372.951 592.952 372.921L592.401 372.495C589.7 372.884 587.774 372.517 585.219 371.567Z"/>
	<path fill="#BAB9B8" d="M559.179 394.894C560.24 392.951 561.103 391.12 562.832 389.675L564.026 389.449L565.003 390.223C563.856 390.973 562.774 391.742 561.691 392.582L561.499 393.567L562.267 394.274L563.734 393.053C565.268 393.967 566.224 395.044 568.009 395.533C571.565 396.274 575.343 396.833 578.749 398.089C577.75 398.794 576.722 399.057 575.524 399.204C569.974 399.882 563.557 398.454 559.179 394.894Z"/>
	<path fill="#A11A14" d="M585.219 371.567C587.774 372.517 589.7 372.884 592.401 372.495L592.952 372.921C594.724 372.951 595.775 372.878 597.132 374.169C595.6 374.973 594.051 375.735 592.629 376.727C590.538 377.699 588.559 378.293 587.705 380.613C587.62 380.842 587.566 381.081 587.496 381.315C587.492 382.779 587.432 384.258 587.606 385.714L586.723 385.374C586.609 385.442 586.503 385.526 586.382 385.58C584.474 386.432 582.143 385.408 580.068 386.4L579.177 382.004C579.023 380.208 579.206 378.155 579.847 376.464C580.82 373.893 582.882 372.734 585.219 371.567Z"/>
	<path fill="#D0110F" d="M587.1 379.798L587.496 381.315C587.492 382.779 587.432 384.258 587.606 385.714L586.723 385.374C586.609 385.442 586.503 385.526 586.382 385.58C584.474 386.432 582.143 385.408 580.068 386.4L579.177 382.004C581.584 380.55 584.375 380.26 587.1 379.798Z"/>
	<path fill="#A11A14" d="M597.132 374.169L600.468 375.992L601.644 376.767C602.465 376.09 602.851 376.058 603.867 375.845C605.621 380.061 606.462 383.931 604.541 388.317Q604.277 388.909 603.956 389.473Q603.636 390.037 603.261 390.566Q602.886 391.095 602.461 391.584Q602.035 392.074 601.564 392.519Q601.092 392.964 600.579 393.361Q600.066 393.758 599.516 394.102Q598.967 394.445 598.386 394.734Q597.805 395.022 597.198 395.251C593.964 396.473 590.145 396.476 586.987 395.024C583.111 393.243 581.422 390.26 580.068 386.4C582.143 385.408 584.474 386.432 586.382 385.58C586.503 385.526 586.609 385.442 586.723 385.374L587.606 385.714C587.432 384.258 587.492 382.779 587.496 381.315C587.566 381.081 587.62 380.842 587.705 380.613C588.559 378.293 590.538 377.699 592.629 376.727C594.051 375.735 595.6 374.973 597.132 374.169Z"/>
	<path fill="#020202" d="M597.132 374.169L600.468 375.992L601.644 376.767C600.491 380.421 598.713 385.837 595.172 387.812C593.748 388.605 592.116 388.58 590.614 388.035C589.282 387.553 588.538 386.743 587.606 385.714C587.432 384.258 587.492 382.779 587.496 381.315C587.566 381.081 587.62 380.842 587.705 380.613C588.559 378.293 590.538 377.699 592.629 376.727C594.051 375.735 595.6 374.973 597.132 374.169Z"/>
	<path fill="#F9F9F9" d="M597.132 374.169L600.468 375.992C599.789 377.681 599.375 378.982 597.894 380.106C596.654 380.216 596.01 380.155 595.027 379.3C594.159 378.544 593.391 377.591 592.629 376.727C594.051 375.735 595.6 374.973 597.132 374.169Z"/>
	<path fill="#F9F9F9" d="M606.399 371.591C613.22 374.237 618.197 377.373 622.332 383.636C617.156 391.699 609.54 397.731 600 399.724C598.728 399.99 597.481 400.251 596.223 400.577C590.069 400.478 584.713 399.541 578.749 398.089C575.343 396.833 571.565 396.274 568.009 395.533C566.556 393.667 565.326 391.81 565.586 389.334C566.086 384.58 570.702 380.411 574.324 377.662C575.296 376.925 576.333 376.271 577.369 375.629C576.195 381.453 575.929 387.436 579.422 392.598C581.701 395.966 585.282 397.922 589.245 398.585C593.958 399.375 599.111 398.523 603.004 395.65C606.499 393.07 608.548 389.158 609.106 384.891C609.709 380.286 608.592 375.634 606.399 371.591Z"/>
	<path fill="#5A656C" d="M445.507 627.289C439.187 622.838 433.443 616.99 427.81 611.695Q412.173 597.259 397.486 581.858C392.574 576.741 387.827 571.515 383.884 565.595C373.139 549.459 365.775 527.504 362.131 508.515C359.18 493.137 357.603 477.45 354.768 462.019C351.426 443.832 345.9 425.313 345.954 406.737C346.031 380.379 352.379 354.28 352.976 328.154Q353.362 312.499 352.346 296.873C351.54 285.62 350.092 274.153 350.387 262.865C350.767 248.354 368.27 217.487 378.778 207.569C392.89 194.25 420.613 183.576 440.153 184.035C420.943 187.853 400.183 192.515 388.576 210.021C375.459 229.807 379.955 276.33 384.713 298.902C385.898 304.524 388.686 319.149 392.901 322.664C393.547 323.201 394.899 323.332 395.713 323.484C408.789 325.473 421.456 332.48 433.977 336.72C443.367 339.899 453.801 341.844 462.766 346.064C465.387 347.297 468.341 350.361 470.205 352.601C471.454 355.71 473.314 361.381 472.071 364.651C471.742 365.516 471.421 365.877 470.732 366.453L469.977 366.476C469.365 365.468 468.975 362.083 468.286 361.914C468.015 363.144 467.899 364.262 467.826 365.512C466.651 365.451 464.721 363.197 463.781 362.325L463.637 363.401C462.698 364.029 462.11 364.068 461.024 363.768C459.753 363.416 458.476 362.844 457.251 362.353L456.82 362.487C454.853 363.08 452.907 363.385 450.881 363.692L451.461 364.107C452.738 365.034 453.823 365.707 454.55 367.158C444.348 361.467 434.85 358.982 423.14 358.841C417.812 359.247 412.257 360.276 406.935 360.046L409.632 360.781C409.492 361.461 409.661 361.404 409.09 361.709C407.557 362.527 405.386 362.235 403.694 362.857C398.241 364.864 392.751 369.438 388.389 373.18C390.35 373.579 392.909 373.742 394.518 374.927C392.924 375.567 387.959 373.594 387.804 374.595C387.767 374.828 387.831 376.292 387.841 376.555C386.891 377.222 386.47 377.209 385.345 377.34L384.811 378.144C386.448 378.467 389.237 377.638 390.282 378.709C387.96 379.406 385.181 379.279 383.066 380.432L382.963 381.11C384.536 382.271 385.385 382.14 387.279 382.35C385.963 383.271 384.293 383.935 382.667 383.596C382.481 383.558 381.812 383.282 381.689 383.235C380.492 382.771 378.161 381.535 377.016 381.827C378.041 384.01 381.726 385.515 383.841 386.664L381.703 386.028C386.293 388.578 390.656 389.502 395.666 390.918C398.111 395.727 400.721 395.085 402.001 397.336C402.441 398.112 402.927 398.687 403.561 399.318C403.705 399.361 403.85 399.405 403.995 399.446C405.952 399.995 408.441 399.526 410.108 400.479C410.36 401.491 410.322 401.659 410.077 402.623L409.355 403.821C409.646 404.45 409.924 405.091 410.24 405.708C418.633 408.368 426.762 408.196 435.473 408.045L434.775 408.348C420.509 414.471 402.877 411.497 388.953 405.897C383.754 403.805 378.005 400.057 372.372 399.824C370.363 400.741 369.329 402.382 368.613 404.419C363.947 417.69 369.979 440.345 376.14 452.492C384.723 469.415 398.344 483.756 405.763 501.167C411.895 515.56 412.248 531.598 414.201 546.92Q415.109 554.023 416.624 561.021Q418.139 568.019 420.251 574.861C423.953 586.567 429.02 597.858 434.684 608.736C437.246 613.656 444.43 622.451 445.507 627.289Z"/>
	<path fill="#A1A1A2" d="M403.561 399.318C403.705 399.361 403.85 399.405 403.995 399.446C405.952 399.995 408.441 399.526 410.108 400.479C410.36 401.491 410.322 401.659 410.077 402.623L409.355 403.821C409.646 404.45 409.924 405.091 410.24 405.708C407.485 403.811 404.448 402.833 403.561 399.318Z"/>
	<path fill="#020202" d="M365.767 338.934C366.869 336.284 369.185 333.678 371.295 331.763C377.958 325.712 386.855 323.036 395.713 323.484C408.789 325.473 421.456 332.48 433.977 336.72C443.367 339.899 453.801 341.844 462.766 346.064C465.387 347.297 468.341 350.361 470.205 352.601C471.454 355.71 473.314 361.381 472.071 364.651C471.742 365.516 471.421 365.877 470.732 366.453L469.977 366.476C469.365 365.468 468.975 362.083 468.286 361.914C468.015 363.144 467.899 364.262 467.826 365.512C466.651 365.451 464.721 363.197 463.781 362.325L463.637 363.401C462.698 364.029 462.11 364.068 461.024 363.768C459.753 363.416 458.476 362.844 457.251 362.353L456.82 362.487C454.853 363.08 452.907 363.385 450.881 363.692L451.461 364.107C452.738 365.034 453.823 365.707 454.55 367.158C444.348 361.467 434.85 358.982 423.14 358.841C417.812 359.247 412.257 360.276 406.935 360.046C397.809 359.243 387.899 360.287 379.472 355.847C377.593 354.857 375.8 353.428 375.386 351.217C374.865 348.439 377.082 345.843 378.384 343.556C373.17 344.995 368.637 347.161 364.455 350.633C363.777 351.43 363.306 351.923 362.364 352.39C362.292 352.251 362.199 352.122 362.148 351.974C361.173 349.126 364.39 341.558 365.767 338.934Z"/>
	<defs>
		<linearGradient id="gradient_6" gradientUnits="userSpaceOnUse" x1="454.43832" y1="365.00046" x2="427.90106" y2="353.733">
			<stop offset="0" stop-color="#55575B"/>
			<stop offset="1" stop-color="#8C8B90"/>
		</linearGradient>
	</defs>
	<path fill="url(#gradient_6)" d="M424.932 351.618Q441.133 356.861 457.251 362.353L456.82 362.487C454.853 363.08 452.907 363.385 450.881 363.692L451.461 364.107C452.738 365.034 453.823 365.707 454.55 367.158C444.348 361.467 434.85 358.982 423.14 358.841L423.678 358.434C424.693 358.396 425.741 358.384 426.746 358.24C428.09 358.048 428.898 357.907 429.725 356.817C428.585 354.989 426.517 354.118 425.344 352.297C425.2 352.075 425.07 351.844 424.932 351.618Z"/>
	<path fill="#A1A1A2" d="M378.384 343.556C395.555 337.546 409.287 344.725 424.932 351.618C425.07 351.844 425.2 352.075 425.344 352.297C426.517 354.118 428.585 354.989 429.725 356.817C428.898 357.907 428.09 358.048 426.746 358.24C425.741 358.384 424.693 358.396 423.678 358.434L423.14 358.841C417.812 359.247 412.257 360.276 406.935 360.046C397.809 359.243 387.899 360.287 379.472 355.847C377.593 354.857 375.8 353.428 375.386 351.217C374.865 348.439 377.082 345.843 378.384 343.556Z"/>
	<path fill="#A1A1A2" d="M440.153 184.035C457.743 184.028 474.273 188.203 490.943 193.323C498.666 195.696 506.794 199.073 514.895 199.516C533.074 200.51 551.263 195.945 569.272 194.297C576.578 193.629 583.953 194.035 591.274 194.259C595.996 194.403 600.956 194.283 605.618 195.06C608.467 201.165 636.709 217.959 638.525 229.084L637.564 231.436C634.731 237.302 629.998 242.158 627.443 247.973C624.667 254.288 625.021 261.679 621.611 267.757C619.201 272.053 614.244 272.969 611.25 276.471C605.82 282.825 607.334 292.301 597.925 295.714C594.678 296.892 591.195 297.31 587.93 298.444C580.475 301.032 566.118 307.779 562.788 314.82C560.313 320.054 559.335 326.235 557.508 331.741C555.555 337.629 552.603 343.382 551.054 349.38C547.759 353.926 545.934 358.205 545.957 363.927C543.392 367.993 538.733 372.071 535.203 375.379C531.489 372.875 527.583 370.354 524.454 367.119C518.784 361.257 518.363 354.521 518.497 346.83C517.435 350.114 514.488 353.663 511.452 355.288C507.986 357.143 504.07 357.079 500.394 355.893C496.21 354.543 492.868 352.174 490.96 348.183C490.871 347.997 490.793 347.806 490.71 347.617C486.647 352.701 480.917 359.431 474.134 360.574C473.286 358.126 473.048 353.506 471.294 351.702L470.205 352.601C468.341 350.361 465.387 347.297 462.766 346.064C453.801 341.844 443.367 339.899 433.977 336.72C421.456 332.48 408.789 325.473 395.713 323.484C394.899 323.332 393.547 323.201 392.901 322.664C388.686 319.149 385.898 304.524 384.713 298.902C379.955 276.33 375.459 229.807 388.576 210.021C400.183 192.515 420.943 187.853 440.153 184.035Z"/>
	<path fill="#5A656C" d="M518.497 346.83C522.373 351.268 527.346 356.629 533.645 357.032C540.859 357.494 544.128 348.441 551.054 349.38C547.759 353.926 545.934 358.205 545.957 363.927C543.392 367.993 538.733 372.071 535.203 375.379C531.489 372.875 527.583 370.354 524.454 367.119C518.784 361.257 518.363 354.521 518.497 346.83Z"/>
	<path fill="#01BBBD" d="M0 0L1024 0L1024 1024L992.472 1024Q987.253 996.221 982.498 968.358C977.29 936.475 973.389 904.176 959.887 874.424C951.587 856.137 938.976 838.798 922.802 826.701C905.767 813.96 881.638 806.029 861.731 798.35Q841.463 790.469 821.301 782.32C801.519 774.281 782.202 764.894 762.247 757.338C767.883 754.188 772.987 750.813 777.52 746.169C799.172 723.99 799.96 681.396 799.531 652.057C802.85 658.298 805.95 664.539 807.947 671.348C813.904 691.657 810.428 707.872 800.515 726.008C814.794 712.043 823.983 689.458 827.014 670.01C830.416 648.182 827.586 617.722 818.363 597.794C811.686 583.366 793.318 565.004 792.64 549.147C792.192 538.671 803.942 519.702 808.373 509.566C811.749 501.844 814.784 493.643 816.098 485.286C820.597 456.676 807.399 431.685 794.039 407.475C790.747 401.509 786.02 394.957 784.212 388.358C782.78 383.133 783.457 376.812 783.486 371.415C783.654 339.943 785.962 334.809 766.938 308.581C768.213 297.377 768.088 285.119 765.885 274.069C763.601 262.617 756.617 252.868 751.546 242.523C732.787 204.249 692.951 124.592 658.195 101.888C644.881 93.1907 630.122 86.0318 616.011 78.7062C600.201 70.498 583.951 61.8509 567.218 55.68C540.28 45.7457 507.407 41.8277 479.32 47.8771C452.351 53.6856 431.47 68.3825 416.622 91.5085Q414.429 91.472 412.238 91.5935C404.399 91.9822 396.49 93.4355 389.233 96.4913C368.01 105.427 350.975 126.954 340.041 146.604C335.322 155.087 331.906 164.479 326.567 172.589C321.279 180.623 313.573 187.695 307.099 194.835L304.081 198.195C299.097 203.81 294.289 209.67 291.736 216.828C287.703 228.135 287.419 244.861 286.107 257.003C283.69 279.367 280.971 301.771 279.388 324.216C278.874 331.5 279.802 344.003 277.604 350.45C276.056 354.988 271.761 359.209 269.168 363.306C257.503 381.732 240.821 406.097 239.062 428.209Q238.969 429.378 238.945 430.551C238.508 451.945 252.32 471.187 259.477 490.647Q260.675 493.904 261.621 497.242Q262.568 500.58 263.257 503.981Q263.947 507.382 264.375 510.826Q264.803 514.269 264.968 517.735C265.97 540.323 255.405 562.096 245.879 581.982C241.665 590.779 237.537 599.8 231.809 607.739C226.289 615.389 218.935 621.292 212.672 628.271C201.5 640.719 195.044 656.622 196.14 673.462C197.354 692.115 207.58 714.77 221.698 727.155C210.614 711.909 204.841 695.596 205.553 676.533C206.372 654.619 218.495 639.273 234.004 624.889C229.02 642.292 227.667 659.513 232.763 677.076C242.432 710.402 268.637 729.573 297.588 745.355C288.938 750.866 279.569 755.638 270.293 760.006C265.239 758.708 260.295 756.636 255.122 755.854C247.142 754.646 238.464 762.527 232.328 766.813C216.056 778.177 197.86 787.008 179.319 793.975C150.494 804.806 121.856 812.205 96.5765 830.718C51.5252 863.711 49.1835 911.966 41.5203 962.139C38.3595 982.835 34.0284 1003.32 30.8206 1024L0 1024L0 0Z"/>
</svg>
