<?xml version="1.0" encoding="utf-8" ?>
<svg xmlns="http://www.w3.org/2000/svg" xmlns:xlink="http://www.w3.org/1999/xlink" width="1024" height="1024">
	<path fill="#03AAB2" d="M0 0L1024 0L1024 1024L950.059 1024L947.551 1024L944.668 1024L804.574 1024L802.986 1024L548.546 1024L539.31 1024L536.626 1024L521.849 1024L519.146 1024L506.328 1024L503.234 1024L487.954 1024L485.409 1024L475.655 1024L219.862 1024L218.209 1024L78.4055 1024L74.9829 1024L71.9423 1024L0 1024L0 0Z"/>
	<path fill="#010101" d="M345.957 28.3829C365.356 43.3572 379.972 64.3464 383.073 88.9945C384.422 99.7163 383.666 110.752 380.142 120.996C371.407 146.391 348.393 165.892 359.136 195.045Q359.712 196.604 360.393 198.121Q361.074 199.637 361.857 201.103Q362.641 202.57 363.522 203.979Q364.403 205.388 365.379 206.734Q366.355 208.08 367.42 209.356Q368.485 210.632 369.635 211.833Q370.785 213.033 372.014 214.152Q373.243 215.271 374.546 216.304C378.454 219.35 382.849 221.558 387.21 223.869C388.611 220.744 390.748 217.79 394.107 216.602C396.373 215.8 398.221 215.936 400.344 217.104C400.56 217.223 400.766 217.359 400.977 217.486C418.707 194.39 450.748 177.823 479.517 174.096Q481.633 173.812 483.765 173.683C489.631 168.388 504.047 150.475 512.275 151.019C520.952 151.593 533.224 167.955 539.686 173.582Q541.998 173.886 544.297 174.269Q546.597 174.653 548.881 175.117Q551.166 175.581 553.433 176.124Q555.701 176.668 557.947 177.289Q560.194 177.911 562.418 178.611Q564.642 179.311 566.84 180.088Q569.038 180.865 571.208 181.718Q573.377 182.572 575.516 183.5Q577.655 184.428 579.76 185.43Q581.864 186.433 583.933 187.508Q586.002 188.583 588.032 189.729Q590.062 190.876 592.051 192.092Q594.039 193.309 595.984 194.594Q597.93 195.879 599.829 197.231Q601.728 198.584 603.579 200.001Q605.43 201.419 607.23 202.9C612.893 207.64 617.732 213.465 623.546 217.986C625.363 219.399 625.899 216.522 628.223 217.945C632.633 220.646 636.788 224.733 640.766 228.068C653.58 214.412 665.541 198.106 665.03 178.49C664.082 142.052 630.451 126.797 640.463 82.1682C644.007 66.3718 652.396 52.9073 663.396 41.2254C666.181 38.2686 668.983 35.2896 672.498 33.2013C664.858 50.9158 660.154 66.2659 667.656 84.9416C676.368 106.631 695.722 117.561 710.746 134.085C746.408 173.305 744.598 235.348 725.051 281.672C720.719 291.937 714.986 301.291 708.986 310.637C714.894 323.269 724.42 343.024 719.463 356.917C718.761 358.886 717.495 360.464 716.223 362.092C720.313 379.946 723.694 397.502 725.15 415.777C732.979 412.017 740.046 407.304 746.65 401.666Q751.221 397.754 755.434 393.46C758.425 390.392 764.85 381.35 768.473 380.159C770.033 380.756 770.663 381.318 771.363 382.858C777.472 396.291 771.571 421.827 766.2 434.884C758.481 453.648 745.728 471.05 730.941 484.923C725.827 489.72 720.208 493.97 715.108 498.751C712.617 509.757 711.147 522.313 704.466 531.714C700.18 537.745 694.609 542.801 691.807 549.792C689.885 554.585 689.626 560.056 689.469 565.165C688.948 582.113 691.914 600.172 701.092 614.725Q702.225 616.558 703.536 618.268Q704.847 619.978 706.323 621.548Q707.799 623.117 709.425 624.531Q711.051 625.945 712.811 627.188C714.306 628.265 716.44 629.244 717.736 630.469C718.566 631.253 718.885 632.094 718.61 633.224C717.81 636.498 712.8 639.105 710.016 640.285C700.907 644.146 691.073 643.036 682.155 639.21C670.222 634.09 660.519 625.207 651.673 615.927C647.615 631.345 642.923 645.777 633.397 658.852C630.101 663.375 624.658 667.836 622.558 672.98C618.224 683.594 619.653 724.187 620.159 737.047C639.009 743.38 657.964 753.847 673.145 766.778C678.074 770.977 682.212 776.675 687.509 780.33C691.501 783.083 696.069 785.141 700.303 787.513C710.048 792.97 722.947 800.905 728.165 811.282Q729.531 813.996 730.49 816.88C741.155 820.882 752.975 822.925 764.13 825.106Q791.532 830.285 819.048 834.823C852.45 840.362 879.419 844.381 904.191 870.327Q907.616 873.902 910.727 877.753Q913.838 881.604 916.612 885.705Q919.386 889.806 921.803 894.126Q924.22 898.447 926.264 902.956C938.334 929.274 943.19 959.032 946.89 987.522C948.451 999.54 950.036 1011.86 950.059 1024L947.551 1024L944.668 1024L804.574 1024L802.986 1024L548.546 1024L539.31 1024L536.626 1024L521.849 1024L519.146 1024L506.328 1024L503.234 1024L487.954 1024L485.409 1024L475.655 1024L219.862 1024L218.209 1024L78.4055 1024L74.9829 1024L71.9423 1024C73.171 991.85 82.1171 936.542 95.2371 907.073C101.687 892.584 110.573 879.279 122.211 868.451C155.299 837.664 194.133 838.291 235.33 830.392Q249.724 827.71 263.984 824.385C272.041 822.454 280.092 820.089 288.273 818.763C293.733 804.463 303.983 797.38 317.681 791.275C322.106 789.302 326.655 787.736 331.28 786.309C335.755 780.661 340.263 775.118 345.612 770.261C361.77 755.586 384.702 744.357 405.624 738.569C406.939 722.784 406.224 679.402 401.135 665.493C398.713 658.874 392.24 653.286 388.693 647.101C378.021 628.49 375.202 608.591 372.354 587.744C368.537 608.007 362.944 624.379 345.092 636.573C338.069 641.37 329.494 644.67 320.879 643.133C317.299 642.494 313.05 640.899 310.944 637.737C310.132 636.518 309.104 634.15 309.623 632.676C310.697 629.625 318.536 625.024 321.277 622.243C335.661 607.647 338.792 580.211 333.344 561.281C326.744 538.349 306.605 528.802 310.513 501.8C310.539 501.614 310.557 501.427 310.58 501.241C281.276 479.097 257.318 446.571 252.234 409.387C251.304 402.589 249.366 389.318 253.747 383.515C254.593 382.394 255.493 381.747 256.929 381.641C258.058 381.557 258.953 382.194 259.743 382.949C262.889 385.951 264.92 390.106 267.911 393.305C277.092 403.123 289.129 410.21 301.142 415.978C305.751 398.788 306.461 380.773 308.916 363.214C307.788 361.994 306.351 360.629 305.626 359.125C303.162 354.015 302.754 344.314 303.008 338.778C303.185 334.93 304.597 331.095 307.534 328.501C309.377 326.874 311.397 326.136 313.761 325.633L317.449 314.336C313.461 309.31 310.542 302.701 307.705 296.956C292.964 267.105 280.219 225.804 283.988 192.349C286.307 171.761 296.116 153.071 309.196 137.272C330.908 111.047 366.811 88.2453 355.043 49.0262C352.858 41.742 349.929 34.8674 345.957 28.3829Z"/>
	<path fill="#5C5C5C" d="M669.931 419.155C671.042 417.228 672.045 414.951 673.833 413.58L674.591 413.902L675.145 415.627C673.957 418.11 672.868 420.537 671.959 423.139L669.931 419.155Z"/>
	<path fill="#353637" d="M686.066 349.116C690.31 346.354 696.191 346.496 701.016 347.529C704.062 348.181 706.625 349.224 709.022 351.223C701.173 350.452 694.081 348.742 686.066 349.116Z"/>
	<path fill="#D41912" d="M319.244 291.591C323.09 285.591 328.442 279.852 333.055 274.371C334.304 272.887 334.889 272.235 336.846 272.067C331.805 280.325 327.404 288.658 323.191 297.367C321.61 295.585 320.467 293.621 319.244 291.591Z"/>
	<path fill="#878482" d="M632.859 603.715C635.557 603.501 638.23 603.347 640.876 602.74C643.937 606.872 646.906 611.127 650.468 614.849C648.878 619.834 647.202 624.807 645.857 629.864C644.016 626.377 643.335 621.58 641.816 617.806C639.618 612.341 636.235 608.985 633.144 604.193C633.044 604.037 632.954 603.874 632.859 603.715Z"/>
	<path fill="#2C2727" d="M313.362 328.492C322.379 343.383 336.698 341.518 338.796 344.231C339.296 344.878 339.26 346.72 339.294 347.52L341.639 345.045L341.428 350.599C340.124 350.381 340.331 350.331 339.507 349.429L338.379 349.418C336.39 351.816 334.892 355.185 332.569 357.181L332.857 355.253C331.752 353.454 323.135 349.499 320.511 346.979C314.828 341.52 313.578 336.042 313.362 328.492Z"/>
	<path fill="#878482" d="M626.574 219.362C627.383 219.625 629.225 221.971 629.897 222.684C623.354 231.646 618.838 240.149 615.784 250.837L610.124 248.802C608.613 248.287 606.896 248.022 605.335 247.65C607.983 240.791 615.974 223.323 623.274 220.527C624.358 220.112 625.475 219.74 626.574 219.362Z"/>
	<path fill="#5C5C5C" d="M424.27 198.638C442.112 187.733 460.362 179.696 481.033 175.884C473.004 183.262 464.011 188.579 454.725 194.177C450.711 196.597 446.422 198.913 442.771 201.859C437.615 199.167 429.956 200.453 424.27 198.638Z"/>
	<path fill="#474747" d="M675.201 260.859C692.605 278.772 707.374 308.103 714.388 332.048C712.206 333.009 705.45 330.511 702.376 330.417C699.984 316.129 693.741 295.611 687.136 282.797C684.975 278.605 675.185 263.63 675.201 260.859Z"/>
	<path fill="#474747" d="M702.376 330.417C705.45 330.511 712.206 333.009 714.388 332.048C717.027 339.916 718.355 348.053 717.459 356.374L717.018 356.533L716.798 357.669L716.125 357.519L717.402 356.724L717.08 357.432L716.29 357.545C714.878 356.018 714.384 354.062 713.559 352.189C711.125 346.664 704.956 345.292 699.473 345.047Q696.533 344.923 693.6 345.159Q690.667 345.395 687.785 345.988C686.911 341.796 685.564 337.812 684.546 333.676C685.723 333.473 686.479 333.799 687.561 334.199C688.25 334.454 688.418 334.206 689.081 333.945C689.637 333.191 689.509 333.298 690.185 332.647C693.214 329.733 698.54 330.387 702.376 330.417Z"/>
	<path fill="#474747" d="M325.766 366.157C324.841 366.088 323.984 365.962 323.07 365.786C317.868 364.784 311.859 363.218 308.861 358.441C306.224 354.239 304.986 340.099 306.29 335.257C307 332.621 309.27 330.009 311.642 328.712C312.746 328.108 312.238 328.17 313.362 328.492C313.578 336.042 314.828 341.52 320.511 346.979C323.135 349.499 331.752 353.454 332.857 355.253L332.569 357.181C332.411 357.402 332.25 357.62 332.096 357.844C330.394 360.317 330.068 365.096 326.843 365.987C326.523 366.075 326.101 366.116 325.766 366.157Z"/>
	<path fill="#2C2727" d="M587.729 247.277C591.727 248.56 595.462 250.502 599.228 252.337C587.192 264.637 579.027 286.583 576.179 303.379C576.007 304.833 575.944 305.774 574.953 306.94L573.978 307.014C571.406 304.347 570.422 298.173 569.889 294.553C567.179 276.152 577.383 261.206 587.729 247.277Z"/>
	<path fill="#474747" d="M403.146 218.725C409.513 211.584 415.999 203.66 424.27 198.638C429.956 200.453 437.615 199.167 442.771 201.859C431.956 211.63 419.625 224.987 418.2 240.261C414.341 232.325 408.813 225.426 403.146 218.725Z"/>
	<path fill="#5C5C5C" d="M369.652 239.035C375.674 234.262 381.952 229.332 389.151 226.463C397.572 231.924 403.466 242.075 407.892 250.874C400.789 254.374 393.799 258.573 387.65 263.584C383.161 253.246 377.717 246.768 369.652 239.035Z"/>
	<path fill="#474747" d="M74.9829 1024C75.4721 996.239 82.9866 956.064 90.6357 929.211C91.9434 924.62 93.1242 918.432 96.1203 914.666C99.2491 913.34 102.814 914.76 105.959 915.525C94.6058 937.84 81.1212 997.675 78.4055 1024L74.9829 1024Z"/>
	<path fill="#474747" d="M585.26 191.52C598.925 198.448 610.015 208.916 620.987 219.395C611.087 225.972 603.668 239.089 601.015 250.5C599.938 249.819 598.483 249.1 597.552 248.26C598.535 245.434 589.693 232.571 588.05 228.921C589.345 221.904 591.855 216.843 596.578 211.487C593.979 203.869 588.944 198.433 585.26 191.52Z"/>
	<path fill="#353637" d="M915.278 916.21C919.434 915.196 923.345 914.401 927.627 914.118C939.027 945.095 946.521 991.244 947.551 1024L944.668 1024C936.853 987.917 932.345 949.414 915.278 916.21Z"/>
	<path fill="#797878" d="M675.145 415.627C676.539 417.25 677.962 418.655 679.707 419.909C687.698 425.649 697.697 426.512 707.165 424.931C731.499 420.869 754.275 402.921 768.225 383.141C769.107 385.569 769.698 388.117 770.369 390.611C768.912 393.643 766.46 396.58 764.436 399.292Q763.406 400.699 762.323 402.065Q761.24 403.432 760.107 404.757Q758.973 406.082 757.79 407.363Q756.607 408.644 755.377 409.88Q754.147 411.115 752.871 412.303Q751.594 413.491 750.274 414.63Q748.954 415.77 747.592 416.858Q746.23 417.946 744.827 418.983Q743.425 420.019 741.984 421.001Q740.544 421.984 739.067 422.911Q737.591 423.838 736.08 424.709Q734.57 425.58 733.027 426.393Q731.485 427.207 729.913 427.961Q728.341 428.715 726.742 429.41Q725.142 430.104 723.518 430.738Q721.893 431.371 720.246 431.943C708.43 436.073 690.751 438.804 678.969 433.194C676.123 431.839 673.339 429.381 672.299 426.324C671.96 425.328 671.934 424.185 671.959 423.139C672.868 420.537 673.957 418.11 675.145 415.627Z"/>
	<path fill="#797878" d="M254.373 397.901C254.328 394.893 253.876 387.504 256.242 385.354C256.354 385.252 256.493 385.186 256.619 385.103C259.431 385.814 265.29 394.568 267.753 397.075C283.921 413.533 309.238 426.839 332.88 423.606C339.425 422.712 345.52 420.354 351.494 417.626C353.084 421.523 354.086 425.385 355.138 429.445C353.862 430.378 352.492 431.183 351.109 431.946C326.927 445.289 295.714 435.19 276.269 418.001C269.756 412.244 262.474 400.284 254.373 397.901Z"/>
	<path fill="#797878" d="M390.026 223.511C391.848 221.582 394.122 218.952 396.952 218.691C398.884 218.512 400.567 220.365 401.791 221.621C409.069 229.093 414.525 238.595 420.281 247.238C423.446 251.99 427.058 256.423 430.284 261.134C439.759 274.974 443.323 288.595 442.983 305.229L442.952 306.522C438.193 307.029 433.307 307.337 428.608 308.245C429.729 302.754 430.839 297.724 429.292 292.177C429.679 291.604 429.95 291.111 430.059 290.417Q430.152 289.822 430.186 289.222Q430.22 288.621 430.196 288.02Q430.172 287.419 430.089 286.823Q430.006 286.227 429.866 285.642Q429.726 285.057 429.529 284.488Q429.333 283.919 429.082 283.372Q428.831 282.826 428.528 282.306Q428.225 281.786 427.873 281.298C426.023 278.146 424.195 276.639 421.058 274.789C411.971 269.468 403.468 274.207 391.153 264.253C397.626 260.055 404.073 256.01 410.903 252.405C407.718 241.585 398.683 230.545 390.026 223.511Z"/>
	<path fill="#353637" d="M403.715 741.048L404.589 741.244C405.631 745.386 401.32 760.267 399.972 764.765C393.455 767.382 386.691 769.354 380.257 772.201C356.509 782.708 337.114 796.853 327.518 821.763L327.334 822.216C327.236 821.986 327.091 821.771 327.038 821.527C326.705 819.997 326.945 817.801 326.928 816.209C326.822 806.542 327.942 796.329 332.774 787.758C345.218 765.685 379.819 747.652 403.715 741.048Z"/>
	<path fill="#353637" d="M701.437 905.186C698.418 912.839 692.069 919.313 686.577 925.303C669.813 943.588 650.448 957.247 628.225 968.118C614.217 974.97 599.899 981.199 586.74 989.643C572.218 998.963 559.645 1010.85 548.546 1024L539.31 1024C564.758 974.134 613.369 968.63 655.889 942.331C667.653 935.055 678.989 927.062 689.143 917.639C693.105 913.963 696.422 909.067 700.639 905.79C700.903 905.585 701.171 905.387 701.437 905.186Z"/>
	<path fill="#353637" d="M620.445 738.755C644.116 747.153 670.868 762.287 686.129 782.532C695.306 794.705 697.984 810.124 695.871 824.947L695.397 825.36C691.843 817.707 690.01 812.081 684.922 804.964C672.164 787.113 645.989 769.321 624.247 765.65C622.978 756.676 621.522 747.761 620.445 738.755Z"/>
	<path fill="#353637" d="M301.766 873.988C301.862 874.092 301.959 874.195 302.053 874.301C306.345 879.142 309.165 885.713 312.927 891.047C322.981 905.303 335.605 917.971 349.386 928.63C361.022 937.63 373.984 945.125 387.108 951.72C417.569 967.027 448.744 977.885 472.017 1004.18C477.055 1009.88 482.434 1016.98 485.409 1024L475.655 1024C470.986 1017.43 464.834 1011.4 458.926 1005.93C445.454 993.447 430.42 983.737 413.987 975.637C401.194 969.331 388.114 963.813 375.858 956.45C349.425 940.572 330.414 922.16 313.426 896.409C308.964 889.645 303.743 881.896 301.766 873.988Z"/>
	<path fill="#5C5C5C" d="M710.397 502.437C710.281 510.688 705.785 524.532 700.828 531.172C697.87 535.136 694.235 538.762 691.588 542.932C680.221 560.838 687.975 600.516 699.214 617.323C701.582 620.862 704.439 624.251 707.596 627.113C708.813 628.215 713.069 630.808 713.359 632.147C712.151 633.465 710.548 634.033 708.95 634.757C704.745 634.511 701.282 633.784 697.404 632.118C689.032 627.74 683.151 621.826 678.325 613.705C666.826 594.356 665.351 570.346 670.992 548.87C677.29 524.893 689.751 514.446 710.397 502.437Z"/>
	<path fill="#2C2727" d="M579.476 310.877Q581.591 311.046 583.698 311.29Q585.805 311.534 587.903 311.853Q590 312.172 592.085 312.565Q594.169 312.959 596.238 313.426Q598.308 313.893 600.359 314.434Q602.411 314.974 604.441 315.588Q606.472 316.201 608.48 316.886Q610.488 317.571 612.47 318.327Q614.452 319.083 616.406 319.909Q618.36 320.735 620.284 321.63Q622.207 322.525 624.097 323.488Q625.988 324.45 627.842 325.48Q629.697 326.509 631.514 327.604Q633.332 328.699 635.109 329.858Q636.885 331.016 638.62 332.238Q640.355 333.459 642.045 334.741C660.198 348.708 670.121 366.919 673.336 389.557C674.073 394.75 674.987 400.929 674.084 406.142C672.945 412.718 668.201 418.596 665.567 424.676C657.698 442.845 659.551 463.695 661.997 482.834C662.484 484.941 663.296 497.082 664.216 497.752C664.349 496.655 664.474 495.573 664.537 494.469C667.663 510.219 662.983 533.197 657.636 548.06C656.405 552.824 649.589 571.466 646.679 574.256C645.938 574.603 645.636 574.883 645.174 575.559C642.735 579.135 638.013 588.777 638.35 593.275C638.523 595.589 639.382 597.948 639.725 600.268C638.721 601.192 638.058 601.479 636.684 601.637C632.171 602.158 628.959 601.225 625.544 598.409C625.392 598.048 625.061 597.717 625.089 597.327C625.121 596.88 635.166 584.677 636.326 582.862Q637.975 580.262 639.513 577.596Q641.052 574.93 642.479 572.203Q643.906 569.475 645.218 566.69Q646.53 563.905 647.724 561.068Q648.919 558.231 649.995 555.347Q651.071 552.463 652.026 549.536Q652.981 546.61 653.813 543.646Q654.645 540.683 655.353 537.687Q656.062 534.691 656.645 531.669Q657.228 528.646 657.684 525.602Q658.141 522.558 658.47 519.497Q658.8 516.436 659.002 513.365Q659.204 510.293 659.278 507.216Q659.352 504.138 659.297 501.06Q659.243 497.983 659.061 494.91Q658.879 491.837 658.569 488.774C657.246 475.479 654.555 462.293 654.931 448.873C655.277 436.54 660.19 425.65 661.844 413.621C664.549 393.955 659.807 372.507 647.589 356.712C631.465 335.868 606.346 324.531 580.603 321.299C580.523 317.819 579.931 314.325 579.476 310.877Z"/>
	<path fill="#353637" d="M661.997 482.834C662.484 484.941 663.296 497.082 664.216 497.752C664.349 496.655 664.474 495.573 664.537 494.469C667.663 510.219 662.983 533.197 657.636 548.06L657.37 547.489C658.252 544.417 658.087 541.1 658.589 537.945C660.499 525.941 663.151 517.565 662.862 505C662.697 497.834 661.006 489.88 661.997 482.834Z"/>
	<path fill="#474747" d="M315.595 327.806C326.12 293.057 342.036 263.144 369.652 239.035C377.717 246.768 383.161 253.246 387.65 263.584C383.095 268.462 377.665 272.58 373.102 277.693C357.59 295.072 345.003 318.541 339.522 341.335L338.854 341.232C329.831 339.742 320.98 335.329 315.595 327.806Z"/>
	<path fill="#797878" d="M631.959 222.995C647.06 235.372 662.606 245.648 675.201 260.859C675.185 263.63 684.975 278.605 687.136 282.797C693.741 295.611 699.984 316.129 702.376 330.417C698.54 330.387 693.214 329.733 690.185 332.647C689.509 333.298 689.637 333.191 689.081 333.945C688.418 334.206 688.25 334.454 687.561 334.199C686.479 333.799 685.723 333.473 684.546 333.676C671.983 300.174 651.181 273.2 621.039 253.692C619.787 252.921 618.723 252.615 618.144 251.223C619.645 241.002 627.033 231.819 631.959 222.995Z"/>
	<path fill="#878482" d="M621.039 253.692C620.117 252.379 619.435 251.464 619.226 249.818C619.581 249.136 619.497 248.87 620.314 248.654C624.608 247.519 630.046 250.877 633.52 253.184C656.167 268.221 672.745 293.421 683.332 317.942C685.335 322.582 687.831 327.666 688.88 332.594C688.98 333.066 689.018 333.456 689.081 333.945C688.418 334.206 688.25 334.454 687.561 334.199C686.479 333.799 685.723 333.473 684.546 333.676C671.983 300.174 651.181 273.2 621.039 253.692Z"/>
	<path fill="#797878" d="M95.8234 912.405C100.129 903.539 104.605 894.897 110.23 886.775C140.898 842.499 185.959 842.711 233.075 834.014Q247.382 831.474 261.503 828.049C270.396 825.877 279.299 823.313 288.3 821.654C288.099 824.144 288.153 826.631 288.174 829.127C286.526 831.513 278.372 833.888 275.475 835.055Q262.754 840.225 249.686 844.44Q236.618 848.655 223.274 851.892C209.489 855.187 195.686 858.262 181.992 861.935C174.61 863.914 166.918 865.776 159.923 868.9C143.028 876.443 117.786 898.287 107.444 913.774C103.437 912.547 100.036 911.943 95.8234 912.405Z"/>
	<path fill="#797878" d="M730.104 819.958C757.671 829.091 787.654 832.905 816.232 837.804C835.969 841.188 858.442 843.735 876.38 853.056C896.65 863.589 912.241 882.07 922.419 902.274C924.139 905.689 925.857 909.25 927.1 912.867C921.346 912.921 916.86 914.06 911.404 915.863C908.979 913.373 906.875 908.715 904.949 905.71C899.23 896.787 892.644 888.587 884.516 881.728C860.412 861.388 827.152 857.742 797.341 851.488C785.003 848.9 772.738 845.726 760.563 842.454C750.659 839.792 740.269 837.326 731.201 832.416C731.191 830.849 731.431 829.022 730.636 827.625L730.104 819.958Z"/>
	<path fill="#474747" d="M312.01 502.193C328.581 512.598 339.801 518.832 358.439 525.193C363.379 542.781 371.381 566.299 370.507 584.575C370.036 594.434 366.457 605.254 361.67 613.839C355.485 624.932 344.797 636.697 332.038 640.035C326.524 641.478 319.778 640.732 314.895 637.771C313.591 636.98 312.416 635.969 311.832 634.534C312.031 632.996 312.44 632.38 313.694 631.386C314.252 630.944 314.978 630.627 315.607 630.312C320.452 627.183 324.175 623.237 327.339 618.422C337.067 603.612 340.454 584.206 336.832 566.936L335.765 561.976C331.863 547.633 322.167 537.62 316.071 524.577C312.531 517.845 311.874 509.673 312.01 502.193Z"/>
	<path fill="#010101" d="M348.126 535.876C348.465 536.077 348.788 536.307 349.107 536.54C356.669 542.059 360.807 554.789 362.186 563.596C364.913 581.013 360.955 598.053 350.567 612.242L349.756 612.689C350.184 609.928 352.658 607.009 353.849 604.416C356.945 597.671 359.11 590.623 360.033 583.252C362.175 566.15 358.717 549.603 348.126 535.876Z"/>
	<path fill="#797878" d="M316.071 524.577C318.249 523.617 321.551 524.772 323.781 525.335C329.878 532.354 337.146 551.203 336.228 560.69C336.162 561.37 336.102 561.318 335.765 561.976C331.863 547.633 322.167 537.62 316.071 524.577Z"/>
	<path fill="#5C5C5C" d="M336.832 566.936C340.301 565.091 343.755 563.114 347.378 561.591C351.745 579.375 350.849 597.054 341.081 612.966C337.093 619.463 328.947 628.554 321.234 630.372C319.421 630.8 317.36 631.06 315.607 630.312C320.452 627.183 324.175 623.237 327.339 618.422C337.067 603.612 340.454 584.206 336.832 566.936Z"/>
	<path fill="#2C2727" d="M436.258 310.196C437.683 310.09 439.405 309.817 440.816 309.959C441.655 310.043 441.95 310.247 442.686 310.611C445.992 312.246 448.724 313.233 452.33 314.166C478.072 320.827 485.124 333.852 494.574 357.068C496.74 362.389 499.352 368.343 504.038 371.936C507.516 374.602 511.737 375.16 515.98 374.445C519.688 373.821 522.947 372.079 525.339 369.153C531.699 361.376 534.57 342.678 542.504 331.618C549.136 322.371 558.301 316.782 568.811 312.906C570.707 312.206 573.331 310.922 575.318 310.845C576.143 310.813 576.786 310.802 577.364 311.426C579.185 313.389 578.603 318.328 578.619 320.879C551.628 324.832 545.714 340.768 535.371 363.301C532.355 369.872 528.732 376.619 522.602 380.792C518.324 383.704 512.849 385.248 507.707 384.188C492.072 380.966 486.347 353.566 478.123 341.623C471.559 332.092 463.086 325.614 451.551 323.637C432.681 320.404 412.557 328.337 397.363 339.064C379.026 352.009 368.306 369.491 364.604 391.529C361.16 409.036 365.447 426.604 364.939 444.237C364.721 451.799 363.394 459.33 362.504 466.835C361.31 476.904 360.693 487.192 361.022 497.331C361.929 525.264 369.576 546.918 383.594 570.876C390.425 582.552 395.577 590.632 405.531 599.939C396.107 600.133 387.878 597.426 380.593 591.369C370.941 583.346 373.161 571.814 370.75 560.762C368.433 550.137 365.035 539.816 362.375 529.284Q359.813 518.994 358.423 508.482Q357.033 497.97 356.834 487.368C356.719 479.951 356.707 472.406 357.283 465.007C358.051 455.142 359.757 445.139 358.958 435.231C358.093 424.515 352.522 416.987 351.693 407.676C349.674 385 359.236 358.658 373.716 341.393C389.328 322.779 412.311 312.252 436.258 310.196Z"/>
	<path fill="#474747" d="M425.482 249.639C444.499 244.251 462.834 238.42 482.47 235.452C499.522 250.651 501.17 272.196 502.421 293.722Q503.387 311.992 503.619 330.286C503.897 343.762 502.823 358.64 507.339 371.498C497.733 365.653 492.955 344.016 486.221 333.646C477.21 319.772 461.556 313.27 445.936 309.993Q446.341 307.637 446.483 305.25C447.63 283.89 439.399 265.423 425.482 249.639Z"/>
	<path fill="#474747" d="M254.373 397.901C262.474 400.284 269.756 412.244 276.269 418.001C295.714 435.19 326.927 445.289 351.109 431.946C352.492 431.183 353.862 430.378 355.138 429.445C358.241 442.378 354.307 459.526 353.88 472.977C353.341 489.936 354.755 505.804 357.867 522.468C335.053 513.998 314.694 503.123 296.907 486.266C272.659 463.286 255.239 431.774 254.373 397.901Z"/>
	<path fill="#474747" d="M391.153 264.253C403.468 274.207 411.971 269.468 421.058 274.789C424.195 276.639 426.023 278.146 427.873 281.298Q428.225 281.786 428.528 282.306Q428.831 282.826 429.082 283.372Q429.333 283.919 429.529 284.488Q429.726 285.057 429.866 285.642Q430.006 286.227 430.089 286.823Q430.172 287.419 430.196 288.02Q430.22 288.621 430.186 289.222Q430.152 289.822 430.059 290.417C429.95 291.111 429.679 291.604 429.292 292.177C430.839 297.724 429.729 302.754 428.608 308.245C401.897 314.378 379.371 325.823 364.355 349.637C352.428 368.552 345.976 393.376 349.76 415.605C332.473 422.183 321.801 422.696 304.195 416.753C307.514 399.409 309.558 382.33 311.62 364.841C314.638 366.214 317.503 367.104 320.729 367.859C322.505 367.735 325.938 367.896 327.172 366.748L325.766 366.157C326.101 366.116 326.523 366.075 326.843 365.987C330.068 365.096 330.394 360.317 332.096 357.844C332.25 357.62 332.411 357.402 332.569 357.181C334.892 355.185 336.39 351.816 338.379 349.418L339.507 349.429C340.331 350.331 340.124 350.381 341.428 350.599L341.639 345.045C349.051 314.395 365.694 283.367 391.153 264.253Z"/>
	<path fill="#353637" d="M332.569 357.181C334.892 355.185 336.39 351.816 338.379 349.418L339.507 349.429C340.331 350.331 340.124 350.381 341.428 350.599C341.291 356.661 339.797 361.408 335.339 365.799C332.889 368.212 330.381 369.347 326.975 369.649C324.842 368.729 323.046 368.125 320.729 367.859C322.505 367.735 325.938 367.896 327.172 366.748L325.766 366.157C326.101 366.116 326.523 366.075 326.843 365.987C330.068 365.096 330.394 360.317 332.096 357.844C332.25 357.62 332.411 357.402 332.569 357.181Z"/>
	<path fill="#010101" d="M427.078 289.482C427.032 289.68 427.009 289.884 426.942 290.075C426.586 291.094 425.808 291.932 424.773 292.28C423.177 292.816 421.395 292.359 419.959 291.603C417.13 290.111 414.585 287.252 413.758 284.124C413.245 282.189 413.488 280.348 414.548 278.649C416.222 275.969 418.188 275.538 421.058 274.789C424.195 276.639 426.023 278.146 427.873 281.298Q428.225 281.786 428.528 282.306Q428.831 282.826 429.082 283.372Q429.333 283.919 429.529 284.488Q429.726 285.057 429.866 285.642Q430.006 286.227 430.089 286.823Q430.172 287.419 430.196 288.02Q430.22 288.621 430.186 289.222Q430.152 289.822 430.059 290.417C429.95 291.111 429.679 291.604 429.292 292.177C428.495 291.321 427.798 290.402 427.078 289.482Z"/>
	<path fill="#878482" d="M424.075 290.097C422.3 289.493 420.89 288.859 419.555 287.491C417.818 285.709 416.083 283.093 416.339 280.481C416.497 278.859 417.209 277.907 418.463 276.969L419.038 277.803L418.819 278.665L419.616 278.209C419.896 283.149 421.521 285.995 424.075 290.097Z"/>
	<path fill="#ADAAA9" d="M419.616 278.209C421.634 278.626 423.116 279.197 424.45 280.844C426.037 282.802 425.997 285.993 426.137 288.389C425.444 289.077 424.929 289.61 424.075 290.097C421.521 285.995 419.896 283.149 419.616 278.209Z"/>
	<path fill="#797878" d="M418.463 276.969C420.191 276.5 421.153 276.386 422.753 277.306C424.59 278.362 426.258 279.928 427.873 281.298Q428.225 281.786 428.528 282.306Q428.831 282.826 429.082 283.372Q429.333 283.919 429.529 284.488Q429.726 285.057 429.866 285.642Q430.006 286.227 430.089 286.823Q430.172 287.419 430.196 288.02Q430.22 288.621 430.186 289.222Q430.152 289.822 430.059 290.417C429.95 291.111 429.679 291.604 429.292 292.177C428.495 291.321 427.798 290.402 427.078 289.482L426.137 288.389C425.997 285.993 426.037 282.802 424.45 280.844C423.116 279.197 421.634 278.626 419.616 278.209L418.819 278.665L419.038 277.803L418.463 276.969Z"/>
	<path fill="#797878" d="M482.47 235.452C492.172 234.202 501.891 233.114 511.686 233.086C535.872 233.017 563.75 237.802 586.206 246.916C574.591 259.651 566.113 274.576 566.901 292.381C567.156 298.138 568.598 303.524 570.814 308.824C552.219 317.078 540.78 324.202 533.081 343.901C529.869 352.118 526.989 367.33 518.374 371.307C514.72 372.994 511.097 372.541 507.339 371.498C502.823 358.64 503.897 343.762 503.619 330.286Q503.387 311.992 502.421 293.722C501.17 272.196 499.522 250.651 482.47 235.452Z"/>
	<path fill="#878482" d="M525.34 247C528.871 249.038 530.124 252.619 531.134 256.393C533.148 263.915 533.74 272.307 533.819 280.069C533.904 288.513 530.85 324.864 527.478 331.063C527.226 323.545 528.433 315.612 528.961 308.079C530.602 284.695 530.591 270.32 525.34 247Z"/>
	<path fill="#9B9EA0" d="M521.857 364.191C521.936 351.483 522.953 339.009 521.954 326.28C520.407 306.588 516.274 286.502 516.883 266.759C517.04 261.702 517.462 251.12 521.721 247.712C522.991 246.696 523.788 246.872 525.34 247C530.591 270.32 530.602 284.695 528.961 308.079C528.433 315.612 527.226 323.545 527.478 331.063C526.209 342.181 525.403 353.518 521.857 364.191Z"/>
	<path fill="#5C5C5C" d="M604.452 250.589C609.183 251.151 613.278 252.741 617.439 254.994C643.121 268.9 664.961 295.777 676.745 322.224C680.603 330.885 683.33 340.055 686.066 349.116C694.081 348.742 701.173 350.452 709.022 351.223C716.126 357.933 720.751 404.198 723.136 416.812C714.06 420.019 704.253 422.949 694.541 421.27C687.714 420.089 681.012 416.459 678.175 409.842C676.508 405.953 677.373 400.07 677.14 395.819C676.272 379.929 670.948 363.047 661.696 350.02C642.465 322.944 610.321 312.119 578.996 306.833C581.081 287.305 590.627 264.689 604.452 250.589Z"/>
	<path fill="#010101" d="M606.722 274.977C607.84 274.994 608.787 275.035 609.847 275.425C611.624 276.078 613.164 277.21 613.863 279.025C614.701 281.203 613.954 283.996 612.912 285.984C610.767 290.074 607.414 292.092 603.147 293.486C602.34 293.504 601.526 293.532 600.722 293.45C599.124 293.286 597.336 292.374 596.497 290.967C595.407 289.14 595.938 286.773 596.689 284.928C598.559 280.333 602.274 276.975 606.722 274.977Z"/>
	<path fill="#9B9EA0" d="M602.363 279.584C604.17 278.383 606.361 276.837 608.66 277.554C609.929 277.95 610.748 278.942 611.166 280.171C611.755 281.9 611.422 283.917 610.497 285.463C609.774 286.67 608.666 287.569 607.606 288.469L603.727 281.118L603.231 281.886L602.363 279.584Z"/>
	<path fill="#ADAAA9" d="M602.363 279.584L603.231 281.886L603.727 281.118L607.606 288.469C604.571 289.979 602.7 291.022 599.215 290.532C598.487 289.035 597.918 287.676 598.051 285.974C598.278 283.07 600.268 281.337 602.363 279.584Z"/>
	<path fill="#797878" d="M603.231 281.886L603.727 281.118L607.606 288.469C604.571 289.979 602.7 291.022 599.215 290.532C600.156 289.689 601.304 289.216 602.145 288.216C603.663 286.411 603.303 284.073 603.231 281.886Z"/>
	<path fill="#474747" d="M770.369 390.611C774.026 414.123 763.443 438.733 749.813 457.323C740.365 470.208 729.887 481.546 717.585 491.76C708.338 499.438 697.624 505.571 688.797 513.616C669.402 531.294 662.792 561.334 666.57 586.587C669.11 603.561 676.777 620.866 690.954 631.226C695.078 634.239 702.441 638.396 707.713 637.376C707.99 637.322 708.265 637.256 708.541 637.196C699.767 640.634 690.511 639.278 681.983 635.612C670.574 630.706 645.321 608.907 640.802 596.882C638.275 590.157 643.938 580.403 646.679 574.256C649.589 571.466 656.405 552.824 657.636 548.06C662.983 533.197 667.663 510.219 664.537 494.469C664.403 489.092 663.37 483.505 662.781 478.144C660.557 457.881 659.87 437.631 669.931 419.155L671.959 423.139C671.934 424.185 671.96 425.328 672.299 426.324C673.339 429.381 676.123 431.839 678.969 433.194C690.751 438.804 708.43 436.073 720.246 431.943Q721.893 431.371 723.518 430.738Q725.142 430.104 726.741 429.41Q728.341 428.715 729.913 427.961Q731.485 427.207 733.027 426.393Q734.57 425.58 736.08 424.709Q737.591 423.838 739.067 422.911Q740.544 421.984 741.984 421.001Q743.425 420.019 744.827 418.983Q746.23 417.946 747.592 416.858Q748.954 415.77 750.274 414.63Q751.594 413.491 752.871 412.303Q754.147 411.115 755.377 409.88Q756.607 408.644 757.79 407.363Q758.973 406.082 760.107 404.757Q761.24 403.432 762.323 402.065Q763.406 400.699 764.436 399.292C766.46 396.58 768.912 393.643 770.369 390.611Z"/>
	<defs>
		<linearGradient id="gradient_0" gradientUnits="userSpaceOnUse" x1="419.51724" y1="208.48763" x2="594.758" y2="198.272">
			<stop offset="0" stop-color="#3F3F3F"/>
			<stop offset="1" stop-color="#7B7D7D"/>
		</linearGradient>
	</defs>
	<path fill="url(#gradient_0)" d="M420.609 242.485C421.502 234.709 425.621 226.642 429.885 220.192C433.469 214.771 437.764 209.651 442.768 205.485C453.484 196.562 466.648 190.919 477.694 182.285Q483.797 177.472 489.43 172.117C494.8 166.968 502.633 156.006 510.181 154.756C513.305 154.238 516.421 155.7 518.918 157.448C525.612 162.137 531.03 169.338 536.877 175.06C547.095 185.06 557.929 194.523 567.612 205.052C571.568 209.353 576.355 216.798 580.701 220.021C579.574 217.152 577.16 214.574 575.276 212.15C565.116 199.073 553.581 187.95 541.72 176.463C557.096 179.938 571.501 183.387 585.26 191.52C588.944 198.433 593.979 203.869 596.578 211.487C591.855 216.843 589.345 221.904 588.05 228.921C589.693 232.571 598.535 245.434 597.552 248.26C583.014 241.559 567.621 237.401 551.922 234.452C502.678 225.201 470.212 232.758 423.408 247.42L420.609 242.485Z"/>
	<path fill="#474747" d="M513.969 188.927C514.064 189.074 514.161 189.218 514.252 189.367C517.747 195.046 526.001 213.36 524.506 219.75C523.266 220.127 523.395 220.363 522.161 219.738C517.838 213.18 515.644 197.115 513.969 188.927Z"/>
	<path fill="#2C2727" d="M804.574 1024Q806.897 1018.17 809.587 1012.5C816.107 998.919 824.601 987.174 834.158 975.606C856.497 948.565 881.868 927.939 915.278 916.21C932.345 949.414 936.853 987.917 944.668 1024L804.574 1024Z"/>
	<path fill="#2C2727" d="M105.959 915.525C149.529 927.171 184.672 964.021 206.616 1002Q212.827 1012.78 218.209 1024L78.4055 1024C81.1212 997.675 94.6058 937.84 105.959 915.525Z"/>
	<path fill="#5C5C5C" d="M689.271 784.411C700.976 789.617 722.808 802.809 727.397 815.551C733.565 832.683 724.003 862.073 716.202 877.504C699.849 909.856 672.094 931.978 640.395 948.23C630.275 953.419 619.655 957.618 609.288 962.283C587.863 971.924 566.576 984.319 551.082 1002.28C545.505 1008.74 540.101 1016.16 536.626 1024L521.849 1024C533.305 1000.98 548.281 956.301 565.614 939.768C569.448 936.111 574.498 933.614 579.482 931.936C590.754 928.142 601.96 925.332 613.021 920.799C643.68 908.235 673.041 884.687 687.952 854.788C696.947 836.75 701.741 816.727 695.064 797.094C693.551 792.646 691.509 788.531 689.271 784.411Z"/>
	<path fill="#5C5C5C" d="M487.954 1024C466.091 980.111 427.247 969.632 387.47 949.219C349.127 929.542 314.459 900.017 297.802 859.344C292.723 846.941 287.601 830.287 292.143 816.998C296.283 804.889 308.95 797.575 319.876 792.503C323.345 790.893 326.854 789.528 330.476 788.307C322.614 805.738 323.452 824.549 330.14 842.238C343.219 876.831 374.395 902.072 407.462 916.802Q418.033 921.568 429.032 925.237C436.136 927.654 443.629 929.707 450.275 933.238C456.64 936.62 461.441 941.654 465.634 947.451C473.117 957.797 478.157 969.807 483.459 981.357Q493.096 1002.79 503.234 1024L487.954 1024Z"/>
	<path fill="#EE1616" d="M642.879 229.449C656.325 215.754 668.253 199.527 668.051 179.471C667.657 140.357 629.354 125.29 644.548 76.662C648.42 64.2707 655.243 52.1965 664.275 42.8246Q665.803 41.2205 667.547 39.854C661.229 57.8595 658.718 72.1108 667.328 90.0735C675.512 107.15 690.937 117.886 703.691 131.189C711.691 139.534 719.137 148.524 724.372 158.9C740.684 191.233 738.893 236.577 727.184 270.302C722.33 284.283 715.273 296.409 707.4 308.844C705.177 302.722 702.334 296.911 699.263 291.173C682.74 267.111 675.707 254.633 651.675 235.806C648.747 233.695 645.738 231.648 642.879 229.449Z"/>
	<path fill="#98090F" d="M682.149 179.588C691.626 180.682 701.269 181.934 710.572 184.041C712.724 184.528 713.666 184.778 715.262 186.357C716.327 186.104 717.385 185.844 718.466 185.666C718.2 184.52 718.312 184.482 718.833 183.406L719.509 183.244C720.608 185.625 721.708 196.337 721.601 199.169C722.736 203.984 722.29 209.895 722.38 214.857C704.959 213.274 695.399 209.793 679.6 202.795C680.597 199.681 680.674 193.94 682.362 191.43L684.718 191.273C683.902 190.828 683.13 190.337 682.35 189.832C681.834 186.546 682.548 183.005 682.149 179.588Z"/>
	<path fill="#930E11" d="M715.262 186.357C716.327 186.104 717.385 185.844 718.466 185.666C718.2 184.52 718.312 184.482 718.833 183.406L719.509 183.244C720.608 185.625 721.708 196.337 721.601 199.169C721 198.985 720.419 198.718 719.836 198.481C719.439 197.779 719.343 197.418 719.431 196.609C719.684 194.277 719.497 192.82 718.838 190.563L718.29 190.377C717.564 192.269 718.401 194.71 717.854 196.804L717.315 196.891L717.169 196.091L716.673 195.811C716.162 193.595 715.729 190.064 716.137 187.848L717.454 187.451L717.276 186.833L715.998 186.958L715.262 186.357Z"/>
	<path fill="#98090F" d="M679.368 203.639C695.423 210.704 703.716 215.665 722.155 216.083C722.028 220.293 721.27 224.772 721.471 228.936C720.645 234.802 719.783 240.63 718.641 246.445C707.455 241.685 696.225 236.778 685.637 230.773C680.201 227.691 675.184 222.08 669.438 219.919C673.801 215.021 676.759 209.629 679.368 203.639Z"/>
	<path fill="#98090F" d="M699.368 139.45C701.866 142.577 703.958 145.939 705.974 149.393L707.082 151.727C709.421 154.484 711.819 158.574 712.684 162.08L712.491 162.991L711.052 163.451L711.483 164.097C712.124 164.046 713.146 163.713 713.632 164.203C715.486 166.07 716.406 172.515 716.484 175.13C715.759 176.609 715.076 177.174 713.489 177.689C703.323 180.991 692.268 180.346 682.129 177.589C680.843 171.577 679.883 165.003 677.288 159.418C676.901 158.585 676.519 157.751 676.116 156.924C675.109 155.275 674.474 153.478 673.778 151.684C672.375 149.634 671.407 147.472 670.378 145.223Q673.121 145.38 675.864 145.234C683.025 144.892 694.355 145.014 699.368 139.45Z"/>
	<path fill="#D41912" d="M705.974 149.393L707.082 151.727C698.872 152.395 690.919 154.133 682.594 154.549C684.553 152.217 688.766 153.166 691.684 152.603C691.847 152.572 692.01 152.536 692.173 152.503C696.93 152.287 701.223 149.333 705.974 149.393Z"/>
	<path fill="#98090F" d="M699.368 139.45C701.866 142.577 703.958 145.939 705.974 149.393C701.223 149.333 696.93 152.287 692.173 152.503C692.01 152.536 691.847 152.572 691.684 152.603C688.766 153.166 684.553 152.217 682.594 154.549C680.468 155.676 677.188 154.849 676.116 156.924C675.109 155.275 674.474 153.478 673.778 151.684C672.375 149.634 671.407 147.472 670.378 145.223Q673.121 145.38 675.864 145.234C683.025 144.892 694.355 145.014 699.368 139.45Z"/>
	<path fill="#930E11" d="M673.778 151.684Q682.964 152.356 692.173 152.503C692.01 152.536 691.847 152.572 691.684 152.603C688.766 153.166 684.553 152.217 682.594 154.549C680.468 155.676 677.188 154.849 676.116 156.924C675.109 155.275 674.474 153.478 673.778 151.684Z"/>
	<path fill="#930E11" d="M655.589 63.3183C655.455 64.6202 655.326 65.9301 655.277 67.2384C654.792 79.9597 664.37 99.1686 671.847 109.235C673.477 111.43 675.451 113.161 677.207 115.214C677.952 116.084 678.711 116.827 678.608 118.004L676.464 119.194C677.295 119.307 677.599 119.312 678.395 118.953C679.373 118.512 678.639 118.608 679.925 118.736C681.879 120.487 685.629 123.09 686.645 125.505C687.062 126.495 686.919 127.373 686.236 128.198C685.373 129.241 684.165 129.573 682.909 129.857L679.495 130.654L679.231 131.255C682.39 131.287 686.344 129.298 689.098 127.825C690.9 129.442 693.091 130.796 693.314 133.341L691.931 134.533C692.095 134.545 692.259 134.566 692.423 134.568C693.171 134.578 693.64 134.375 694.316 134.099C697.007 134.836 697.924 137.203 699.368 139.45C694.355 145.014 683.025 144.892 675.864 145.234Q673.121 145.38 670.378 145.223C668.915 143.332 667.375 140.752 666.813 138.427C666.475 138.08 666.177 137.691 665.874 137.314C664.285 135.333 664.254 134.801 664.528 132.412C663.797 131.343 663.29 131.345 662.13 130.847C650.574 107.691 647.681 88.2901 655.589 63.3183Z"/>
	<path fill="#98090F" d="M651.675 235.806C651.805 235.695 651.932 235.582 652.064 235.475C652.285 235.297 652.514 235.129 652.734 234.951C654.663 233.391 656.196 232.894 658.563 232.33L659.422 232.129C658.665 231.171 658.825 231.671 658.74 230.709C660.116 229.199 661.57 227.884 663.13 226.566C664.213 226.544 663.85 226.462 664.789 226.747C664.992 226.809 665.192 226.882 665.393 226.949L664.623 225.554C665.579 223.476 667.857 221.596 669.438 219.919C679.98 232.275 703.703 240.687 718.422 247.703C716.722 253.493 715.238 259.506 713.186 265.172C707.707 261.289 700.598 255.39 695.034 252.202C696.309 255.38 709.474 263.364 712.721 266.249C710.689 270.684 708.551 275.097 706.65 279.589C706.526 279.493 706.402 279.398 706.279 279.301C703.905 277.411 700.193 272.347 697.629 271.387C700.011 274.823 703.332 277.565 705.98 280.822C704.118 284.418 702.102 288.247 699.263 291.173C682.74 267.111 675.707 254.633 651.675 235.806Z"/>
	<path fill="#EE1616" d="M352.399 36.7038C362.877 46.2925 371.857 58.7663 376.669 72.1963C383.473 91.1837 382.906 110.032 374.178 128.245C369.679 137.634 364.079 146.479 359.662 155.924C353.402 169.312 352.04 182.352 357.157 196.374C362.179 210.135 372.265 219.361 385.34 225.381Q380.337 228.013 375.63 231.143Q370.922 234.273 366.559 237.868C360.161 243.97 353.841 250.113 348.158 256.901C345.342 260.264 339.643 269.886 336.846 272.067C334.889 272.235 334.304 272.887 333.055 274.371C328.442 279.852 323.09 285.591 319.244 291.591C320.467 293.621 321.61 295.585 323.191 297.367C320.994 301.929 319.57 306.884 318.057 311.705C312.802 302.165 307.793 292.421 303.579 282.373Q299.123 271.693 295.72 260.632Q292.318 249.571 290.001 238.233C280.546 193.66 287.787 162.866 319.618 129.2C333.125 114.914 348.748 101.237 356.248 82.5779C362.923 65.9701 359.176 52.4557 352.399 36.7038Z"/>
	<path fill="#98090F" d="M322.148 138.409C330.284 141.067 339.133 142.448 347.035 145.689C347.232 145.891 347.4 146.127 347.626 146.295C348.117 146.661 348.74 146.82 349.239 147.175C350.3 147.929 350.248 148.404 350.41 149.598C349.066 151.721 348 153.947 346.91 156.205C341.465 155.214 336.223 153.434 330.741 152.592C333.849 153.431 344.156 155.828 345.884 157.734C345.898 158.183 345.939 158.529 345.789 158.981C345.402 160.15 344.16 161.572 343.086 162.17C341.73 162.926 340.765 162.811 339.323 162.533C338.693 162.412 339.025 162.371 338.428 162.618C340.216 163.029 341.277 163.04 342.681 164.278C343.285 166.184 342.149 168.677 341.588 170.548C338.25 169.563 325.391 165.682 322.97 166.201C326.313 168.17 336.119 169.752 340.709 171.483L341.22 171.68Q340.667 176.21 340.211 180.75C331.817 179.631 308.606 178.144 302.277 175.373C301.772 172.15 304.849 166.65 306.128 163.721C311.168 164.76 316.817 166.204 321.961 166.091C318.557 163.892 310.587 163.669 306.559 163.109C310.341 154.441 315.989 145.606 322.148 138.409Z"/>
	<path fill="#98090F" d="M299.629 185.009C300.054 182.7 300.44 177.394 302.346 176.069C314.021 180.468 328.02 178.584 339.698 182.043C340.044 183.095 339.988 183.159 339.639 184.222C334.808 184.364 329.616 184.178 324.845 184.745L324.696 185.181C329.572 185.886 335.055 185.352 340.001 185.314C339.983 190.872 340.638 196.057 342.005 201.438C342.433 202.791 342.952 203.603 342.561 205.004C336.046 208.741 328.276 210.485 321.261 213.115C313.329 216.089 305.653 219.866 298.11 223.706C297.838 218.645 297.443 213.558 297.509 208.488C302.003 207.039 307.257 207.023 311.948 206.471C319.138 205.624 326.403 204.632 333.503 203.219C331.264 201.424 302.373 209.195 297.592 206.588C297.238 200.026 298.551 192.744 299.171 186.165C303.609 186.549 308.925 186.788 313.284 185.903L299.629 185.009Z"/>
	<path fill="#930E11" d="M322.148 138.409C340.214 113.631 363.423 97.4168 364.115 63.1393C372.428 79.6567 374.013 96.0725 368.149 113.73C365.191 122.637 357.338 138.694 351.758 146.268C350.23 146.829 348.547 146.093 347.035 145.689C339.133 142.448 330.284 141.067 322.148 138.409Z"/>
	<path fill="#98090F" d="M303.327 247.937C302.116 240.613 298.771 233.13 298.673 225.712C301.795 220.837 336.014 209.138 343.561 206.287C347.819 215.629 352.387 223.164 359.066 230.972C346.419 237.412 333.713 243.228 323.719 253.683C320.584 256.963 312.162 269.221 312.26 273.052C313.521 272.486 314.678 269.484 315.404 268.148C318.333 262.755 321.372 258.019 325.629 253.562C335.22 243.519 347.228 236.762 360.174 231.993C361.954 234.23 364.101 236.402 366.559 237.868C360.161 243.97 353.841 250.113 348.158 256.901C345.342 260.264 339.643 269.886 336.846 272.067C334.889 272.235 334.304 272.887 333.055 274.371C328.442 279.852 323.09 285.591 319.244 291.591C312.558 278.348 307.376 263.773 303.706 249.41C306.995 245.268 311.334 240.702 315.479 237.418C317.895 235.505 320.58 233.896 322.81 231.767L321.878 231.528C322.02 231.479 322.934 231.207 323.017 231.106C315.704 235.701 309.527 241.983 303.327 247.937Z"/>
	<path fill="#5C5C5C" d="M730.636 827.625C731.431 829.022 731.191 830.849 731.201 832.416C740.269 837.326 750.659 839.792 760.563 842.454C772.738 845.726 785.003 848.9 797.341 851.488C827.152 857.742 860.412 861.388 884.516 881.728C892.644 888.587 899.23 896.787 904.949 905.71C906.875 908.715 908.979 913.373 911.404 915.863C868.729 931.156 827.385 971.239 808.08 1012.03C806.223 1015.96 804.588 1019.97 802.986 1024L548.546 1024C559.645 1010.85 572.218 998.963 586.74 989.643C599.899 981.199 614.217 974.97 628.225 968.118C650.448 957.247 669.813 943.588 686.577 925.303C692.069 919.313 698.418 912.839 701.437 905.186C704.331 901.953 706.884 897.696 709.269 894.052C722.333 874.099 730.471 851.61 730.636 827.625Z"/>
	<path fill="#5C5C5C" d="M288.174 829.127C288.881 834.436 289.382 839.689 290.657 844.919C293.077 854.849 297.729 864.623 301.766 873.988C303.743 881.896 308.964 889.645 313.426 896.409C330.414 922.16 349.425 940.572 375.858 956.45C388.114 963.813 401.194 969.331 413.987 975.637C430.42 983.737 445.454 993.447 458.926 1005.93C464.834 1011.4 470.986 1017.43 475.655 1024L219.862 1024Q217.472 1018.77 214.891 1013.64C195.604 976.073 165.789 939.992 127.2 921.296C120.789 918.19 114.208 915.94 107.444 913.774C117.786 898.287 143.028 876.443 159.923 868.9C166.918 865.776 174.61 863.914 181.992 861.935C195.686 858.262 209.489 855.187 223.274 851.892Q236.618 848.655 249.686 844.44Q262.754 840.225 275.475 835.055C278.372 833.888 286.526 831.513 288.174 829.127Z"/>
	<path fill="#2C2727" d="M511.297 862.437C505.631 854.299 499.222 846.125 496.515 836.42C493.719 826.395 498.266 813.563 492.748 804.526C488.681 797.866 474.025 786.158 475.288 778.067C475.505 776.68 476.107 775.644 477.179 774.743C477.972 774.077 479.233 774.043 480.224 774.088C489.13 774.491 497.729 777.382 507.434 777.564C514.138 777.69 520.683 777 527.053 774.813C545.649 768.429 559.171 752.45 573.418 739.687C580.042 733.753 587.052 728.519 593.098 721.923C597.334 717.301 600.961 712.117 604.791 707.157C609.185 701.467 613.709 696.012 617.831 690.106C616.564 727.043 615.335 777.975 641.957 806.717Q644.592 809.544 647.51 812.078Q650.428 814.611 653.598 816.822C663.147 823.547 687.447 835.852 687.13 848.63C686.837 860.426 666.758 882.023 657.844 890.056C640.616 905.582 619.192 916.852 597.341 924.398C588.736 927.37 579.156 929.413 571.125 933.75C565.79 936.631 561.433 941.382 557.829 946.17C540.586 969.079 531.043 998.11 519.146 1024L506.328 1024C493.461 999.589 479.337 957.621 460.704 938.624C451.072 928.803 436.235 926.068 423.783 921.418C385.18 907.003 346.754 881.618 332.434 841.09L332.814 840.542C343.72 825.098 356.435 822.97 371.989 815.776C378.785 812.633 383.747 806.348 388.202 800.567C401.434 783.394 409.372 764.346 412.027 742.779C412.906 735.64 413.099 728.449 413.831 721.304C429.317 733.53 446.124 761.212 457.062 778.207C463.188 787.726 469.602 797.29 474.98 807.253C478.806 814.341 481.619 821.965 484.928 829.3C490.886 842.511 499.842 853.595 511.297 862.437Z"/>
	<path fill="#ADAAA9" d="M526.6 382.883C542.456 366.91 542.658 338.715 564.514 328.443Q566.187 327.646 567.935 327.033Q569.684 326.419 571.488 325.997Q573.292 325.575 575.131 325.348Q576.97 325.121 578.823 325.093C584.89 325.052 590.874 326.749 596.636 328.481C612.631 333.288 626.192 339.734 638.106 351.699C652.377 366.03 658.737 384.011 658.669 404.075C658.621 418.326 652.397 431.22 651.627 445.409C651.139 454.422 652.597 464.195 653.671 473.144C655.947 492.115 657.497 510.449 653.754 529.386C652.593 535.264 651.103 542.378 648.599 547.863C644.862 559.102 639.47 571.242 633.278 581.352C631.43 584.369 622.89 594.846 623.392 598.019C623.424 598.22 623.507 598.411 623.597 598.593C624.243 599.9 625.552 600.837 626.635 601.78C628.676 602.452 630.757 603.271 632.859 603.715C632.954 603.874 633.044 604.037 633.144 604.193C636.235 608.985 639.618 612.341 641.816 617.806C643.335 621.58 644.016 626.377 645.857 629.864C642.827 639.074 638.805 647.334 633.359 655.369C617.922 678.145 571.669 725.199 547.455 737.526Q544.16 739.231 540.693 740.552Q537.227 741.874 533.633 742.795L532.667 742.975C526.532 744.072 519.723 744.351 513.513 744.381C495.397 744.469 484.793 740.567 469.924 730.242C443.753 712.07 397.33 664.127 385.259 635.485C378.451 619.333 376.121 601.26 373.028 584.107C374.331 586.369 375.593 588.595 377.274 590.601C382.299 596.598 389.847 601.036 397.72 601.607C401.047 601.848 408.284 602.239 410.839 600.019L410.704 599.273C410.225 599.172 409.75 599.051 409.268 598.966C408.462 598.826 408.567 598.972 407.736 598.604C396.556 593.658 382.117 564.756 377.02 553.046C365.789 527.24 363.098 499.586 365.569 471.767C366.48 461.515 368.285 451.189 368.359 440.892C368.531 416.792 362.976 400.193 372.653 375.834C380.59 355.855 397.148 340.323 416.775 331.969C427.186 327.538 438.908 324.801 450.227 326.706C487.373 332.958 478.537 376.618 504.718 386.393C512.808 389.414 519.352 386.328 526.6 382.883Z"/>
	<path fill="#878482" d="M531.807 588.765C533.013 587.185 534.552 585.085 536.456 584.503C537.91 585.432 538.05 586.448 538.72 588.009C536.394 588.187 534.115 588.419 531.807 588.765Z"/>
	<path fill="#010101" d="M545.285 569.498C545.912 569.591 545.971 569.575 546.653 569.814C549.226 570.718 551.274 573.423 552.457 575.752C554.031 578.852 554.315 582.239 553.218 585.541C550.814 592.779 543.587 597.118 537.155 600.341L536.446 600.399C538.592 596.959 545.283 594.489 548.219 590.96C550.898 587.739 552.263 583.41 551.767 579.24C551.404 576.191 550.371 573.77 547.888 571.932C547.092 571.344 546.353 570.852 545.728 570.074C545.576 569.885 545.433 569.69 545.285 569.498Z"/>
	<path fill="#010101" d="M532.301 489.881C532.703 495.071 530.737 507.005 530.387 513.163C529.88 522.084 530.555 531.288 529.658 540.137C526.228 528.934 529.136 501.177 532.301 489.881Z"/>
	<path fill="#5C5C5C" d="M618.243 493.556C618.184 495.901 615.388 499.637 613.745 501.221C609.789 505.037 604.133 507.082 598.66 506.81C596.143 506.685 591.69 505.877 589.778 504.102C589.659 503.991 589.566 503.855 589.46 503.731C590.421 503.813 591.214 503.845 592.165 503.676C592.777 502.895 593.228 502.184 593.623 501.279L594.015 500.361C594.731 500.696 593.714 502.664 594.167 503.771C598.36 504.89 604.8 504.205 608.526 502.128C609.38 501.652 610.183 501.236 611.088 500.858C612.025 500.466 612.187 500.392 612.936 499.625L612.186 499.795L612.198 499.797L612.116 499.118L611.838 499.674L611.883 498.982C611.274 498.681 610.738 498.385 610.187 497.982L607.568 496.081L609.029 495.823C610.612 496.712 612.144 498.154 613.992 498.308C615.862 497.617 617.125 495.152 618.243 493.556Z"/>
	<path fill="#35100E" d="M503.435 630.038C506.211 631.191 508.95 632.6 511.754 633.65C517.332 635.74 520.462 632.877 525.241 630.987C531.553 628.491 541.449 634.656 547.125 637.359L546.588 637.91C543.06 636.793 539.58 634.883 536.124 633.497C528.042 630.256 522.892 632.775 515.517 635.986C511.537 634.24 507.553 632.302 503.382 631.062C501.024 631.877 498.787 632.912 496.518 633.942Q492.085 635.652 487.693 637.467C480.24 640.5 473.392 641.624 465.529 643.041L466.415 643.192C473.812 644.418 481.473 644.789 488.955 645.267C487.244 646.014 484.931 645.423 483.471 646.307C484.641 646.707 487.037 647.129 487.727 648.052L483.474 647.829C479.783 646.307 469.622 645.126 465.53 645.235C464.816 645.048 465.175 645.233 464.547 644.526L466.36 642.905L466.048 642.206L464.349 641.771C479.489 641.409 489.541 633.584 503.435 630.038Z"/>
	<path fill="#878482" d="M626.635 601.78C624.958 602.005 622.231 601.544 620.962 600.305C620.064 599.429 619.709 598.685 619.779 597.428C619.932 594.686 631.798 576.55 634.113 572.478C638.189 565.309 641.543 557.561 645.879 550.569C646.655 549.317 647.365 548.649 648.599 547.863C644.862 559.102 639.47 571.242 633.278 581.352C631.43 584.369 622.89 594.846 623.392 598.019C623.424 598.22 623.507 598.411 623.597 598.593C624.243 599.9 625.552 600.837 626.635 601.78Z"/>
	<path fill="#878482" d="M488.702 600.241C489.735 599.581 490.25 599.704 491.41 599.913C496.879 600.902 502.951 603.136 508.569 602.683C510.437 603.313 512.281 603.876 514.25 604.091C517.932 604.493 520.024 603.19 522.85 601.004C523.139 607.366 522.743 611.57 520.015 617.373C520.779 620.36 521.415 623.39 522.102 626.396C520.97 627.195 519.839 627.946 518.563 628.501C517.368 629.021 516.563 629.08 515.366 628.619C516.624 628.204 517.803 627.741 519.014 627.206C519.616 625.327 517.942 623.888 517.751 621.944C517.621 620.615 518.418 619.658 519.195 618.701C519.292 618.582 519.391 618.466 519.49 618.348C517.936 619.084 516.676 620.387 514.994 620.835C506.064 623.212 503.989 612.904 499.237 608.327C495.854 605.067 491.36 602.941 487.287 600.662L488.702 600.241Z"/>
	<path fill="#878482" d="M619.582 492.083L620.243 492.739L621.246 492.721C621.651 492.159 622.06 491.621 622.495 491.079C622.971 492.052 622.446 492.728 622.103 493.727C618.979 502.81 616.141 512.407 606.71 516.861C598.049 520.952 585.017 520.004 576.227 516.724C569.28 514.132 563.852 508.883 560.76 502.196C560.057 500.676 559.496 499.108 558.97 497.52C561.194 497.523 563.447 497.507 565.635 497.952C569.127 498.662 585.52 504.259 587.449 502.124C587.752 501.789 588.117 500.638 588.266 500.275L588.919 500.128L588.445 502.476L589.46 503.731C589.566 503.855 589.659 503.991 589.778 504.102C591.69 505.877 596.143 506.685 598.66 506.81C604.133 507.082 609.789 505.037 613.745 501.221C615.388 499.637 618.184 495.901 618.243 493.556C618.478 492.679 618.877 492.614 619.582 492.083Z"/>
	<path fill="#930E11" d="M503.382 631.062C507.553 632.302 511.537 634.24 515.517 635.986C522.892 632.775 528.042 630.256 536.124 633.497C539.58 634.883 543.06 636.793 546.588 637.91L553.155 640.501C552.244 642.072 551.337 642.301 549.676 642.871C546.061 643.29 542.423 642.751 538.858 642.185C537.666 642.969 537.911 643.614 536.921 644.396C538.057 646.141 538.207 646.699 540.199 647.319L535.407 647.952C530.294 648.434 525.074 648.72 519.997 649.467L520.067 650.105L519.809 649.954L522.866 650.123L522.609 650.338C519.092 651.282 490.493 649.307 487.727 648.052C487.037 647.129 484.641 646.707 483.471 646.307C484.931 645.423 487.244 646.014 488.955 645.267C481.473 644.789 473.812 644.418 466.415 643.192L465.529 643.041C473.392 641.624 480.24 640.5 487.693 637.467Q492.085 635.652 496.518 633.942C498.787 632.912 501.024 631.877 503.382 631.062Z"/>
	<path fill="#930E11" d="M535.407 647.952C534.89 647.273 534.308 646.559 533.919 645.798C533.361 644.707 533.085 643.837 533.431 642.649C535.025 642.782 535.639 643.476 536.921 644.396C538.057 646.141 538.207 646.699 540.199 647.319L535.407 647.952Z"/>
	<path fill="#D41912" d="M503.382 631.062C507.553 632.302 511.537 634.24 515.517 635.986C522.892 632.775 528.042 630.256 536.124 633.497C539.58 634.883 543.06 636.793 546.588 637.91L553.155 640.501C552.244 642.072 551.337 642.301 549.676 642.871C546.061 643.29 542.423 642.751 538.858 642.185C535.107 641.078 531.669 638.98 527.98 640.898C525.269 642.307 522.827 643.493 519.773 642.779C518.481 643.538 517.644 644.404 516.651 645.493L515.782 645.455L515.533 644.444L510.339 643.003L509.526 640.925C508.422 639.488 507.532 638.856 505.768 638.383C504.159 638.711 504.105 638.778 502.994 639.996C501.729 639.819 500.466 639.7 499.194 639.589C496.461 639.492 493.705 639.541 490.97 639.523C493.178 637.84 494.921 636.241 496.518 633.942C498.787 632.912 501.024 631.877 503.382 631.062Z"/>
	<path fill="#010101" d="M602.006 422.694C608.701 419.901 615.279 418.718 622.22 421.72C631.257 425.627 639.181 435.007 642.61 444.087Q642.965 445.027 643.287 445.978C638.366 439.218 634.164 434.846 626.555 431.246C618.17 428.343 611.751 427.725 603.56 431.645C594.017 436.214 585.658 443.156 576.342 448.219C567.533 452.812 556.557 459.587 546.795 461.265C547.161 457.004 546.576 452.509 548.428 448.505C549.029 447.205 549.824 445.933 551.049 445.146C554.099 443.188 563.251 440.716 567.266 438.954Q577.135 434.632 586.774 429.816C591.742 427.354 596.768 424.522 602.006 422.694Z"/>
	<path fill="#930E11" d="M451.837 640.852C450.619 639.811 449.181 638.506 448.888 636.832C448.771 636.162 448.819 636.085 448.898 635.495C449.729 634.672 449.867 634.588 451.004 634.32C452.093 635.042 452.348 636.289 452.774 637.461C455.739 639.943 460.65 640.912 464.349 641.771L466.048 642.206L466.36 642.905L464.547 644.526C465.175 645.233 464.816 645.048 465.53 645.235C469.622 645.126 479.783 646.307 483.474 647.829L487.727 648.052C490.493 649.307 519.092 651.282 522.609 650.338L522.866 650.123L519.809 649.954L520.067 650.105L519.997 649.467C525.074 648.72 530.294 648.434 535.407 647.952L540.199 647.319C538.207 646.699 538.057 646.141 536.921 644.396C537.911 643.614 537.666 642.969 538.858 642.185C542.423 642.751 546.061 643.29 549.676 642.871C551.337 642.301 552.244 642.072 553.155 640.501L546.588 637.91L547.125 637.359C552.976 639.721 560.936 642.917 567.202 640.277C570.23 639.001 574.031 635.702 577.292 635.525C577.654 636.87 577.478 637.641 577.209 638.972C574.19 641.601 569.629 641.858 566.555 644.337C550.075 657.621 545.966 669.665 522.956 674.646C522.13 674.545 522.454 674.543 521.696 674.594C500.183 676.017 487.658 667.802 472.374 653.777C468.41 650.14 464.301 645.884 459.479 643.428C457.197 642.266 454.297 641.667 451.837 640.852Z"/>
	<path fill="#EE1616" d="M516.771 655.255C519.774 655.578 522.643 655.728 525.662 655.531C528.93 655.318 541.762 652.787 543.847 653.526C540.228 658.743 534.626 662.64 528.271 663.725C525.479 664.202 522.068 664.29 519.732 662.425C518.077 661.105 516.917 658.782 516.757 656.683C516.711 656.08 516.74 655.82 516.771 655.255Z"/>
	<path fill="#EE1616" d="M485.605 651.552C487.865 650.606 489.564 651.156 491.85 651.912C498.539 654.126 506.538 652.051 513.359 652.231C514.624 653.567 515.548 654.182 515.952 656.001L515.649 656.861C515.309 659.246 515.26 660.806 513.198 662.347C510.585 664.299 506.208 663.599 503.268 662.965C502.665 662.835 502.101 662.654 501.517 662.458C494.966 660.198 490.521 656.29 485.605 651.552Z"/>
	<path fill="#D41912" d="M522.866 650.123C531.566 649.731 540.162 648.559 548.77 647.288L550.374 648.267C548.614 650.531 545.731 651.125 543.847 653.526C541.762 652.787 528.93 655.318 525.662 655.531C522.643 655.728 519.774 655.578 516.771 655.255C517.125 653.913 517.341 653.444 516.996 652.071C515.728 651.491 514.643 651.92 513.359 652.231C506.538 652.051 498.539 654.126 491.85 651.912C489.564 651.156 487.865 650.606 485.605 651.552C484.929 651.006 484.383 650.511 483.821 649.839C483.11 648.992 483.372 648.867 483.474 647.829L487.727 648.052C490.493 649.307 519.092 651.282 522.609 650.338L522.866 650.123Z"/>
	<path fill="#010101" d="M451.837 640.852C450.619 639.811 449.181 638.506 448.888 636.832C448.771 636.162 448.819 636.085 448.898 635.495C449.729 634.672 449.867 634.588 451.004 634.32C452.093 635.042 452.348 636.289 452.774 637.461C455.739 639.943 460.65 640.912 464.349 641.771L466.048 642.206L466.36 642.905L464.547 644.526C465.175 645.233 464.816 645.048 465.53 645.235C481.32 660.175 492.079 673.096 515.772 672.438C538.841 671.797 550.687 658.459 566.041 643.418C560.314 644.926 554.583 646.158 548.77 647.288C540.162 648.559 531.566 649.731 522.866 650.123L519.809 649.954L520.067 650.105L519.997 649.467C525.074 648.72 530.294 648.434 535.407 647.952L540.199 647.319C538.207 646.699 538.057 646.141 536.921 644.396C537.911 643.614 537.666 642.969 538.858 642.185C542.423 642.751 546.061 643.29 549.676 642.871C551.337 642.301 552.244 642.072 553.155 640.501L546.588 637.91L547.125 637.359C552.976 639.721 560.936 642.917 567.202 640.277C570.23 639.001 574.031 635.702 577.292 635.525C577.654 636.87 577.478 637.641 577.209 638.972C574.19 641.601 569.629 641.858 566.555 644.337C550.075 657.621 545.966 669.665 522.956 674.646C522.13 674.545 522.454 674.543 521.696 674.594C500.183 676.017 487.658 667.802 472.374 653.777C468.41 650.14 464.301 645.884 459.479 643.428C457.197 642.266 454.297 641.667 451.837 640.852Z"/>
	<path fill="#930E11" d="M553.155 640.501C555.122 641.136 558.881 641.82 560.261 643.307C559.168 643.854 558.352 643.95 557.14 644.037C554.571 644.121 552.203 643.27 549.676 642.871C551.337 642.301 552.244 642.072 553.155 640.501Z"/>
	<path fill="#98090F" d="M538.858 642.185C542.423 642.751 546.061 643.29 549.676 642.871C552.203 643.27 554.571 644.121 557.14 644.037Q548.732 646 540.199 647.319C538.207 646.699 538.057 646.141 536.921 644.396C537.911 643.614 537.666 642.969 538.858 642.185Z"/>
	<path fill="#010101" d="M546.795 461.265C556.557 459.587 567.533 452.812 576.342 448.219L576.531 449.172C579.404 449.803 582.559 448.637 585.115 450.056C585.19 450.097 585.267 450.133 585.343 450.172C594.008 448.613 601.889 448.064 610.084 451.856C612.713 453.072 615.628 454.949 618.35 455.801C619.258 456.085 621.002 454.899 621.777 454.465L621.926 454.795L619.359 457.424L619.417 458.124C620.586 458.612 621.558 459.057 622.812 458.534C623.819 458.114 624.875 457.215 625.767 456.574L626.01 456.752L624.635 459.438C624.789 459.553 624.933 459.683 625.097 459.783C626.025 460.348 626.977 460.387 628.029 460.498C627.226 462.01 623.804 464.047 622.149 464.501C621.976 464.548 621.796 464.562 621.619 464.593C622.018 465.909 622.24 466.375 623.479 467.053C624.16 467.425 624.936 467.69 625.661 467.965C629.955 465.701 633.69 462.862 637.469 459.838C634.93 464.013 632.086 468.036 629.673 472.276C627.04 476.903 624.874 482.618 621.434 486.68C621.18 488.423 620.878 490.801 619.582 492.083C618.877 492.614 618.478 492.679 618.243 493.556C617.125 495.152 615.862 497.617 613.992 498.308C612.144 498.154 610.612 496.712 609.029 495.823L607.568 496.081C605 496.765 602.474 497.622 599.886 498.227C589.22 500.721 580.267 497.393 570.155 494.762C567.326 494.026 563.739 493.966 561.297 492.409C561.909 491.479 562.385 490.525 562.882 489.531C562.415 487.922 561.258 487.508 559.926 486.544L560.1 485.879L559.849 481.947C557.339 483.657 555.196 485.497 551.99 485.267C550.243 486.939 547.89 488.348 545.399 488.5C543.703 488.604 542.356 488.14 541.186 486.923C539.087 484.74 538.174 481.529 538.333 478.554C538.618 473.22 542.797 464.765 546.795 461.265Z"/>
	<path fill="#35100E" d="M580.159 465.66C581.908 466.635 583.344 467.27 584.214 469.095C583.611 470.208 583.53 470.223 582.379 470.771L583.038 469.95L582.952 470.507L582.32 470.757L582.298 470.084C581.846 471.146 582.19 470.693 581.238 471.423L580.521 471.151L580.525 471.095C579.659 470.72 578.692 470.373 577.74 470.539C577.597 470.564 577.459 470.617 577.319 470.656L577.278 470.322C578.249 469.143 579.194 468.031 579.785 466.605C579.915 466.292 580.035 465.975 580.159 465.66Z"/>
	<path fill="#F8F8F6" d="M598.798 473.93L603.235 474.473C603.103 476.141 603.253 478.537 602.129 479.845C600.538 480.21 599.977 479.782 598.477 479.213C598.013 478.472 597.745 477.79 597.431 476.978C597.62 475.461 597.875 475.176 598.798 473.93Z"/>
	<path fill="#F8F8F6" d="M594.25 482.836C593.533 483.196 592.538 483.812 591.755 483.927C590.437 484.121 590.034 483.801 589.001 483.122C588.712 482.339 588.427 481.948 588.581 481.092C588.8 479.876 589.427 478.873 590.558 478.298C592.382 477.371 594.216 477.91 595.958 478.683L594.516 482.437L594.25 482.836Z"/>
	<path fill="#7F400C" d="M598.798 473.93C597.927 472.03 594.991 471.756 594.135 469.508C594.341 469.024 594.347 468.937 594.728 468.466C595.54 467.462 596.702 466.843 597.95 466.637C599.979 467.917 601.276 469.722 602.76 471.567L603.235 474.473L598.798 473.93Z"/>
	<path fill="#9B9EA0" d="M621.434 486.68C621.18 488.423 620.878 490.801 619.582 492.083C618.877 492.614 618.478 492.679 618.243 493.556C617.125 495.152 615.862 497.617 613.992 498.308C612.144 498.154 610.612 496.712 609.029 495.823C613.637 493.372 617.463 490.013 621.434 486.68Z"/>
	<path fill="#A87D1A" d="M583.758 484.949C581.977 482.85 580.262 479.377 580.463 476.585C581.045 475.56 581.341 474.999 582.591 474.651C583.714 474.338 585.687 474.616 586.688 475.235C587.867 475.963 588.032 476.283 588.435 477.519C587.935 478.976 587.72 479.146 586.53 480.149L585.244 480.693C584.706 482.048 584.408 483.695 583.758 484.949Z"/>
	<path fill="#9B9EA0" d="M611.015 459.218C618.852 456.877 619.387 464.399 624.635 459.438C624.789 459.553 624.933 459.683 625.097 459.783C626.025 460.348 626.977 460.387 628.029 460.498C627.226 462.01 623.804 464.047 622.149 464.501C621.976 464.548 621.796 464.562 621.619 464.593C621.219 464.228 620.539 464.428 620.011 464.445C617.504 462.469 613.777 461.905 610.992 460.191L611.015 459.218Z"/>
	<path fill="#916E16" d="M595.958 478.683L598.01 479.975L599.243 481.928C598.796 483.316 597.127 483.802 595.943 484.646L595.632 485.775L596.376 486.021C597.245 485.406 598.771 483.949 599.789 483.938L600.002 485.526C597.213 486.794 594.324 488.282 591.213 488.428C588.071 488.577 585.966 486.978 583.758 484.949C584.408 483.695 584.706 482.048 585.244 480.693L586.53 480.149C586.965 481.964 587.233 483.557 588.946 484.62C590.157 485.372 590.597 485.38 591.974 485.388C593.046 484.722 593.919 484.123 594.25 482.836L594.516 482.437L595.958 478.683Z"/>
	<path fill="#9B9EA0" d="M572.328 458.415C583.613 452.559 596.739 451.034 608.964 454.959C610.06 455.311 611.943 455.862 612.628 456.856C612.802 457.11 612.899 457.409 613.035 457.686C612.406 458.322 611.774 458.747 611.015 459.218C608.658 460.308 604.771 458.257 602.146 457.688C601.994 456.993 601.876 456.357 601.834 455.643C601.822 455.446 601.818 455.248 601.81 455.051L600.178 457.432L599.422 457.312L598.983 456.661L599.352 455.518C598.407 456.152 597.51 456.648 596.471 457.113C595.029 456.164 596.286 455.446 595.326 454.131C594.19 454.88 593.805 455.831 593.139 456.984C591.108 457.634 591.541 455.922 590.351 455.937C588.577 455.958 586.56 458.261 584.241 458.311C583.566 457.728 583.091 457.42 582.244 457.135Q581.82 458.193 581.441 459.268L580.293 459.458C579.748 458.976 579.254 458.499 578.761 457.961L578.273 457.417L577.953 457.834L578.377 460.004L577.755 460.694C575.996 460.196 576.359 458.788 574.771 458.056L574.525 458.607L575.925 460.734L575.739 461.358L574.485 461.306C573.317 460.411 572.962 459.699 572.328 458.415Z"/>
	<path fill="#ADAAA9" d="M575.708 467.454C574.894 474.51 575.279 479.619 579.335 485.736C580.822 487.161 582.27 488.603 583.915 489.848C582.517 489.618 581.209 489.418 579.789 489.432C576.033 489.471 568.71 485.858 565.707 488.704C565.44 488.957 565.154 489.407 564.942 489.719C563.409 488.313 561.972 486.824 560.1 485.879L559.849 481.947L561.794 479.895C566.1 475.26 570.805 471.422 575.708 467.454Z"/>
	<path fill="#F8F8F6" d="M561.794 479.895C564.323 481.04 565.67 484.005 567.674 485.901Q573.507 485.958 579.335 485.736C580.822 487.161 582.27 488.603 583.915 489.848C582.517 489.618 581.209 489.418 579.789 489.432C576.033 489.471 568.71 485.858 565.707 488.704C565.44 488.957 565.154 489.407 564.942 489.719C563.409 488.313 561.972 486.824 560.1 485.879L559.849 481.947L561.794 479.895Z"/>
	<defs>
		<linearGradient id="gradient_1" gradientUnits="userSpaceOnUse" x1="617.04486" y1="476.12064" x2="567.71698" y2="494.46231">
			<stop offset="0" stop-color="#D5D3D3"/>
			<stop offset="1" stop-color="#FCFBFC"/>
		</linearGradient>
	</defs>
	<path fill="url(#gradient_1)" d="M605.096 469.91L605.623 468.398C607.383 467.878 609.208 468.868 610.716 469.722C613.702 471.416 616.476 473.687 618.869 476.135C613.858 484.373 607.993 492.725 598.107 495.311C587.15 498.176 574.898 494.138 564.942 489.719C565.154 489.407 565.44 488.957 565.707 488.704C568.71 485.858 576.033 489.471 579.789 489.432C581.209 489.418 582.517 489.618 583.915 489.848C584.295 489.977 584.677 490.1 585.054 490.236C587.542 491.13 589.749 491.848 592.44 491.561C596.098 491.171 598.395 488.816 600.678 486.158C602.441 484.576 603.597 482.762 604.494 480.567C605.879 477.18 606.51 473.364 605.096 469.91Z"/>
	<path fill="#878482" d="M546.795 461.265C556.557 459.587 567.533 452.812 576.342 448.219L576.531 449.172C579.404 449.803 582.559 448.637 585.115 450.056C585.19 450.097 585.267 450.133 585.343 450.172C572.085 453.181 563.143 461.024 555.978 472.296Q554.02 475.32 552.503 478.588L552.841 478.887C555.535 474.78 558.098 470.79 561.284 467.034L561.926 467.018L562.467 468.22C563.863 466.636 563.03 465.262 565.178 463.597C565.594 465.294 566.257 466.499 565.268 468.102C562.629 472.381 552.32 481.115 551.99 485.267C550.243 486.939 547.89 488.348 545.399 488.5C543.703 488.604 542.356 488.14 541.186 486.923C539.087 484.74 538.174 481.529 538.333 478.554C538.618 473.22 542.797 464.765 546.795 461.265Z"/>
	<path fill="#878482" d="M373.028 584.107C374.331 586.369 375.593 588.595 377.274 590.601C382.299 596.598 389.847 601.036 397.72 601.607C401.047 601.848 408.284 602.239 410.839 600.019L410.704 599.273C410.225 599.172 409.75 599.051 409.268 598.966C408.462 598.826 408.567 598.972 407.736 598.604C396.556 593.658 382.117 564.756 377.02 553.046C365.789 527.24 363.098 499.586 365.569 471.767C366.48 461.515 368.285 451.189 368.359 440.892C368.531 416.792 362.976 400.193 372.653 375.834C380.59 355.855 397.148 340.323 416.775 331.969C427.186 327.538 438.908 324.801 450.227 326.706C487.373 332.958 478.537 376.618 504.718 386.393C512.808 389.414 519.352 386.328 526.6 382.883C524.561 386.074 519.9 388.539 516.285 389.286C507.801 391.042 499.488 386.911 491.126 385.998C472.585 383.973 445.317 405.631 432.218 417.011C430.351 418.634 428.17 420.084 426.409 421.779C440.017 426.19 453.032 433.005 465.927 439.162C471.269 441.713 477.563 443.961 482.273 447.552C481.247 449.732 480.25 451.929 479.106 454.05C484.964 456.146 487.983 460.062 490.592 465.552C499.361 484.001 500.661 503.62 501.333 523.642C501.629 532.431 502.264 541.466 499.173 549.87C495.992 558.515 486.563 570.002 490.539 579.474C493.368 586.212 504.294 593.803 511.024 596.187C514.374 597.374 518.09 598.111 521.474 596.585C522.744 596.013 523.89 595.078 524.966 594.204C526.666 592.219 529.695 590.386 531.807 588.765C534.115 588.419 536.394 588.187 538.72 588.009L539.433 588.501C537.805 591.089 530.711 593.267 527.923 595.361C525.845 596.922 524.371 598.929 522.85 601.004C520.024 603.19 517.932 604.493 514.25 604.091C512.281 603.876 510.437 603.313 508.569 602.683C502.951 603.136 496.879 600.902 491.41 599.913C490.25 599.704 489.735 599.581 488.702 600.241L487.287 600.662C485.876 600.219 484.567 599.698 483.271 598.974C478.049 596.058 475.539 591.935 473.96 586.35C473.515 585.079 473.027 584.002 472.385 582.817C469.3 577.121 469.432 570.929 471.27 564.859C475.198 551.883 480.331 544.404 472.929 530.646C470.571 526.265 466.224 523.546 461.512 522.289C454.447 520.404 446.473 520.2 439.214 518.948C428.749 517.143 418.404 513.923 407.804 513.079C404.601 512.824 400.269 512.437 397.403 514.075C395.941 514.911 394.951 516.33 394.533 517.948C392.183 527.022 404.615 548.74 409.518 556.387C418.723 570.742 429.73 583.673 437.954 598.734L437.976 599.555C438.337 616.749 433.733 625.452 442.731 641.648C445.206 646.104 448.176 650.716 451.727 654.392C451.615 649.946 451.223 645.263 451.837 640.852C454.297 641.667 457.197 642.266 459.479 643.428C464.301 645.884 468.41 650.14 472.374 653.777C487.658 667.802 500.183 676.017 521.696 674.594C522.454 674.543 522.13 674.545 522.956 674.646C523.225 674.706 523.493 674.774 523.764 674.826C525.273 675.118 526.855 674.665 528.333 674.362L528.798 674.673L525.858 676.79C525.32 680.745 526.38 683.972 528.599 687.249C530.828 688.836 533.091 690.391 535.287 692.022C533.337 691.345 531.376 690.551 529.362 690.1C529.21 690.14 529.059 690.183 528.906 690.22C524.608 691.278 519.909 691.096 515.504 691.512C505.037 692.502 493.232 696.669 487.553 706.182C485.086 710.316 485.027 714.895 486.344 719.451C488.424 726.647 494.226 732.236 500.749 735.598C508.162 739.419 516.7 740.517 524.878 741.484C527.757 741.824 530.882 741.901 533.633 742.795L532.667 742.975C526.532 744.072 519.723 744.351 513.513 744.381C495.397 744.469 484.793 740.567 469.924 730.242C443.753 712.07 397.33 664.127 385.259 635.485C378.451 619.333 376.121 601.26 373.028 584.107Z"/>
	<path fill="#ADAAA9" d="M396.061 445.298C398.222 444.308 400.558 443.746 402.853 444.565C401.463 445.797 400.94 446.544 399.085 446.885C398.023 446.399 397.039 445.944 396.061 445.298Z"/>
	<path fill="#ADAAA9" d="M479.311 572.635C479.438 572.535 479.568 572.44 479.692 572.337C481.568 570.784 482.494 568.814 485.25 568.972C485.984 569.936 486.035 570.634 485.815 571.814C485.688 572.499 485.313 573.906 484.706 574.297C483.8 574.882 482.654 574.976 481.611 575.157C479.416 576.796 478.595 579.281 477.567 581.738C476.85 581.515 477.084 581.736 476.785 581.171Q477.055 578.946 477.691 576.797Q478.327 574.648 479.311 572.635Z"/>
	<path fill="#010101" d="M498.433 690.403Q499.9 689.609 501.395 688.869C510.292 684.496 519.277 684.069 528.599 687.249C530.828 688.836 533.091 690.391 535.287 692.022C533.337 691.345 531.376 690.551 529.362 690.1C520.422 685.612 507.553 687.799 498.433 690.403Z"/>
	<path fill="#010101" d="M473.96 586.35C473.95 585.481 473.952 584.61 474.022 583.743C474.393 579.115 475.78 575.693 479.311 572.635Q478.327 574.648 477.691 576.797Q477.055 578.946 476.785 581.171C476.089 584.107 476.419 587.204 477.937 589.84C480.673 594.592 485.566 596.317 488.702 600.241L487.287 600.662C485.876 600.219 484.567 599.698 483.271 598.974C478.049 596.058 475.539 591.935 473.96 586.35Z"/>
	<path fill="#ADAAA9" d="M471.117 491.286C472.379 490.847 474.303 491.081 475.668 491.088C475.97 492.569 475.897 492.993 475.062 494.268C471.46 499.763 464.422 506.545 458.321 509.128L458.578 508.804L457.674 509.206C458.307 508.802 458.946 508.433 459.591 508.052C462.512 506.324 468.246 501.979 469.875 499.139C469.81 497.821 469.814 497.57 468.682 496.692C466.6 495.08 461.533 494.594 459.073 495.221C457.939 495.509 457.739 495.778 457.051 496.65L456.693 501.817L456.388 501.862L455.945 501.267C454.343 499.159 453.492 498.04 450.756 497.733C450.355 497.689 449.951 497.671 449.549 497.635C449.468 497.627 449.387 497.613 449.307 497.603C456.68 494.64 463.243 492.551 471.117 491.286Z"/>
	<path fill="#010101" d="M494.399 595.841C491.834 594.33 487.901 592.417 487.183 589.27C486.984 588.396 487.303 588.304 487.763 587.625C488.83 587.258 489.599 587.129 490.735 587.241C497.919 587.948 502.138 594.042 506.232 599.252C508.399 600.842 510.85 602.039 513.53 602.431C516.129 602.81 519.095 602.462 521.235 600.83C523.408 599.172 524.575 596.857 524.966 594.204C526.666 592.219 529.695 590.386 531.807 588.765C534.115 588.419 536.394 588.187 538.72 588.009L539.433 588.501C537.805 591.089 530.711 593.267 527.923 595.361C525.845 596.922 524.371 598.929 522.85 601.004C520.024 603.19 517.932 604.493 514.25 604.091C512.281 603.876 510.437 603.313 508.569 602.683L505.919 600.621C500.083 596.136 495.58 592.57 488.771 589.487C490.398 591.818 492.428 593.804 494.399 595.841Z"/>
	<path fill="#010101" d="M391.774 435.091C394.098 432.094 396.765 429.346 399.827 427.097C407.988 421.102 416.663 420.278 426.409 421.779C440.017 426.19 453.032 433.005 465.927 439.162C471.269 441.713 477.563 443.961 482.273 447.552C481.247 449.732 480.25 451.929 479.106 454.05C468.979 454.19 445.183 442.398 435.471 437.827C429.391 441.322 417.103 433.977 402.853 444.565C400.558 443.746 398.222 444.308 396.061 445.298C394.317 444.233 393.02 442.749 391.616 441.286C388.503 443.614 385.65 446.429 382.749 449.02C385.328 444.136 388.501 439.53 391.774 435.091Z"/>
	<path fill="#ADAAA9" d="M391.616 441.286C396.863 437.097 402.37 432.521 408.872 430.443C416.253 428.083 422.178 430.475 428.629 433.926L435.471 437.827C429.391 441.322 417.103 433.977 402.853 444.565C400.558 443.746 398.222 444.308 396.061 445.298C394.317 444.233 393.02 442.749 391.616 441.286Z"/>
	<path fill="#010101" d="M398.819 462.057C402.008 460.03 405.587 458.582 408.664 456.456L407.86 454.551C409.465 454.227 408.781 454.922 409.961 455.171C410.826 455.354 415.677 453.204 416.961 452.871C428.681 449.834 443.213 452.355 453.309 458.959C458.201 462.159 471.452 474.933 472.242 480.416C472.255 480.503 472.245 480.593 472.246 480.682C473.592 483.406 473.598 485.504 473.579 488.474C474.194 489.584 474.701 490.264 475.668 491.088C474.303 491.081 472.379 490.847 471.117 491.286C463.243 492.551 456.68 494.64 449.307 497.603C448.552 497.794 447.786 497.968 447.035 498.176C442.549 499.422 438.044 499.812 433.427 500.311L432.754 501.584C431.48 501.62 430.909 501.815 429.764 501.158L429.948 499.691L429.269 499.479C428.908 500.521 428.879 500.703 428.026 501.379C426.824 501.037 426.606 499.712 425.119 499.113C423.529 499.406 422.578 500.093 421.263 501.018L420.732 501.397C420.543 499.601 420.383 497.811 419.083 496.502C417.694 496.779 416.931 498.19 415.853 498.227C416.423 497.189 417.028 496.329 416.948 495.098L415.917 494.538C414.085 494.799 414.692 496.896 413.045 497.763L412.639 497.048L413.93 493.993C412.823 490.485 410.002 492.305 407.944 490.197L408.3 489.561L409.837 490.218L410.398 489.974C409.929 488.754 408.896 487.871 408.01 486.939C407.353 487.427 406.703 487.807 405.979 488.187L405.563 487.578C406.264 486.495 406.763 485.867 406.828 484.54C406.186 483.453 405.872 483.095 404.706 482.595C403.476 482.688 402.479 482.843 401.32 482.306L401.243 481.293L401.877 480.936L404.702 482.024L405.051 481.469L404.367 479.541C402.36 477.44 398.703 477.364 395.987 476.929C388.895 475.792 385.113 471.743 381.118 466.175C382.739 467.319 384.328 468.519 386.005 469.582C389.286 471.663 393.697 473.209 397.599 472.343L397.388 471.491C394.549 469.907 393.263 468.265 392.074 465.258L392.371 465.064C393.473 466.548 394.909 468.995 396.453 469.991C397.59 470.724 398.583 470.758 399.872 470.612L400.338 469.883C399.57 467.877 396.916 466.364 395.225 465.106C397.103 465.294 398.688 466.44 400.345 467.301C401.902 468.11 403.302 468.521 405.021 467.972L405.479 467.064L404.712 465.055C402.712 464.111 400.759 463.12 398.819 462.057Z"/>
	<path fill="#878482" d="M459.547 491.68C460.75 490.312 462.382 488.51 464.246 488.106C466.247 487.671 467.471 488.231 469.15 489.174C467.608 490.928 462.83 492.026 460.577 491.935C460.085 491.915 459.953 491.835 459.547 491.68Z"/>
	<path fill="#F8F8F6" d="M442.549 478.439C443.651 476.914 444.646 475.988 446.616 475.799C447.707 475.694 449.44 476.051 450.212 476.86C450.723 477.395 450.918 477.731 451.184 478.399C449.766 479.023 448.06 479.939 446.501 480.088C444.913 480.24 443.757 479.306 442.549 478.439Z"/>
	<path fill="#7F400C" d="M434.504 479.052L434.782 479.644C433.234 482.949 433.941 485.644 434.548 489.084C432.766 487.953 431.1 486.56 429.935 484.774C429.219 483.677 429.018 483.165 429.314 481.9C431.531 481.491 432.993 480.704 434.504 479.052Z"/>
	<path fill="#878482" d="M404.712 465.055L402.979 463.183C403.089 462.207 403.074 461.664 404.001 461.055C404.843 460.502 407.04 459.692 408.021 459.602C408.823 460.887 409.994 462.398 409.706 464.002C409.494 465.175 409.104 465.273 408.151 465.776C406.748 465.756 406.008 465.69 404.712 465.055Z"/>
	<path fill="#F8F8F6" d="M429.314 481.9C428.637 481.448 427.9 480.981 427.32 480.407C426.393 479.487 426.184 478.396 426.155 477.138C426.542 476.347 426.62 475.847 427.4 475.359C428.496 474.673 429.586 474.549 430.83 474.937C433.044 475.627 433.686 477.075 434.504 479.052C432.993 480.704 431.531 481.491 429.314 481.9Z"/>
	<path fill="#ADAAA9" d="M427.558 466.585C425.395 469.405 423.731 472.005 422.708 475.464C420.042 474.443 416.178 475.043 413.353 475.147C417.988 471.663 422.157 468.717 427.558 466.585Z"/>
	<path fill="#878482" d="M434.698 453.869C438.124 454.41 441.292 454.94 444.511 456.296L443.623 457.116C443.795 458.563 444.143 459.699 444.681 461.052L444.482 461.823L441.643 460.728C439.089 459.955 436.503 459.404 433.896 458.843C435.017 456.992 434.904 455.954 434.698 453.869Z"/>
	<path fill="#9B9EA0" d="M441.643 460.728C441.174 458.529 441.396 457.666 442.522 455.806C443.007 456.247 443.39 456.49 443.623 457.116C443.795 458.563 444.143 459.699 444.681 461.052L444.482 461.823L441.643 460.728Z"/>
	<path fill="#8D4F0B" d="M442.549 478.439C443.757 479.306 444.913 480.24 446.501 480.088C448.06 479.939 449.766 479.023 451.184 478.399C449.282 482.54 444.715 487.742 440.343 489.274C438.35 489.971 436.505 489.729 434.548 489.084C433.941 485.644 433.234 482.949 434.782 479.644C435.609 480.192 436.453 480.78 437.344 481.219C438.467 481.772 439.407 481.7 440.574 481.323C441.602 480.382 442.026 479.729 442.549 478.439Z"/>
	<path fill="#878482" d="M408.396 458.833C417.701 453.856 424.244 452.951 434.698 453.869C434.904 455.954 435.017 456.992 433.896 458.843C431.808 458.661 431.903 457.875 430.395 456.759C430.061 457.86 430.043 457.878 429.107 458.548C427.429 458.596 425.579 458.793 424.007 458.132C423.148 457.771 422.968 457.645 422.078 457.735L422.256 459.432L421.595 459.81C420.89 459.384 420.226 458.958 419.568 458.46C419.379 458.317 419.193 458.17 419.006 458.024C417.526 458.606 416.927 460.342 415.713 461.372C414.716 461.23 413.918 461.063 413.02 460.61C412.758 460.477 412.498 460.339 412.237 460.204C412.068 460.926 412.746 462.408 412.972 463.161L412.326 463.367C410.671 462.294 409.553 460.404 408.396 458.833Z"/>
	<defs>
		<linearGradient id="gradient_2" gradientUnits="userSpaceOnUse" x1="452.45401" y1="454.74097" x2="467.57437" y2="492.85101">
			<stop offset="0" stop-color="#848282"/>
			<stop offset="1" stop-color="#A3A0A0"/>
		</linearGradient>
	</defs>
	<path fill="url(#gradient_2)" d="M444.511 456.296C454.489 460.237 460.763 467.021 467.474 475.133C468.806 476.743 470.563 479.56 472.246 480.682C473.592 483.406 473.598 485.504 473.579 488.474C474.194 489.584 474.701 490.264 475.668 491.088C474.303 491.081 472.379 490.847 471.117 491.286C470.79 490.397 470.209 489.87 469.593 489.152C465.827 482.339 462.019 476.791 456.462 471.337C452.737 467.566 449.005 464.594 444.482 461.823L444.681 461.052C444.143 459.699 443.795 458.563 443.623 457.116L444.511 456.296Z"/>
	<path fill="#F8F8F6" d="M453.014 473.706C456.472 476.399 461.825 480.203 462.424 484.869C462.575 486.049 462.336 487.282 461.591 488.225C460.81 489.212 459.859 490.117 458.97 491.003C452.972 495.49 443.391 497.501 436.009 497.318C427.28 497.101 417.935 493.171 411.978 486.702C410.425 485.015 409.086 482.914 409.276 480.527C409.488 477.877 411.443 476.652 413.353 475.147C416.178 475.043 420.042 474.443 422.708 475.464C422.642 476.717 422.568 477.989 422.701 479.241C423.15 483.439 425.195 487.439 428.647 489.929Q429.25 490.36 429.892 490.729Q430.535 491.098 431.21 491.402Q431.886 491.706 432.589 491.942Q433.291 492.177 434.014 492.342Q434.736 492.507 435.471 492.599Q436.207 492.692 436.947 492.711Q437.688 492.73 438.427 492.676Q439.166 492.622 439.896 492.495C444.471 491.711 448.68 488.735 451.179 484.856C453.397 481.414 453.945 477.637 453.014 473.706Z"/>
</svg>
