<?xml version="1.0" encoding="utf-8" ?>
<svg xmlns="http://www.w3.org/2000/svg" xmlns:xlink="http://www.w3.org/1999/xlink" width="1024" height="1024">
	<path fill="#FEFEFE" d="M0 0L1024 0L1024 1024L0 1024L0 0Z"/>
	<path fill="#999897" d="M512.11 123.661C537.795 133.34 561.915 148.437 573.628 174.28C576.291 180.156 578.109 186.309 579.639 192.563C567.433 191.565 556.064 192.489 546.341 200.803C539.768 206.424 533.816 216.822 533.239 225.522C533.167 226.615 533.192 227.441 533.788 228.394L535.599 228.781C528.812 229.962 514.632 231.334 507.971 230.186L510.986 229.915C511.229 229.724 511.531 229.591 511.716 229.344C512.42 228.396 511.928 157.996 511.902 151.034C511.872 142.698 510.842 131.727 512.11 123.661Z"/>
	<path fill="#C4C3C3" d="M443.052 191.967C444.16 184.247 447.173 176.94 450.877 170.121C461.471 150.618 478.425 138.226 498.32 129.287C502.821 127.264 507.373 125.067 512.11 123.661C510.842 131.727 511.872 142.698 511.902 151.034C511.928 157.996 512.42 228.396 511.716 229.344C511.531 229.591 511.229 229.724 510.986 229.915L507.971 230.186C502.047 229.338 495.903 229.179 489.932 228.502C489.915 227.744 489.885 227.007 489.818 226.252C488.901 215.916 485.03 206.784 476.864 200.14C467.033 192.142 455.267 190.731 443.052 191.967Z"/>
	<path fill="#999897" d="M694.123 516.343Q715.687 510.952 736.996 504.629L743.408 676.269C744.746 707.666 745.622 739.186 747.527 770.551Q689.049 836.181 629.538 900.875L629.479 730.518L629.638 678.105C629.624 670.432 630.221 662.018 629.326 654.426C638.206 648.138 645.367 640.482 652.989 632.825C653.521 632.795 653.944 632.611 654.444 632.437C672.895 612.275 686.579 583.952 691.45 557.065C693.875 543.68 694.263 529.908 694.123 516.343Z"/>
	<path fill="#999897" d="M287.977 507.664C288.705 507.571 289.251 507.496 289.984 507.602C291.76 507.857 328.425 517.455 329.696 518.073L330.662 518.49C330.991 519.948 331.06 521.266 331.075 522.757C332.003 566.553 343.959 600.784 372.956 633.76C380.722 640.514 387.329 648.118 395.497 654.527C394.405 683.817 395.467 713.294 395.414 742.614L395.215 901.356Q354.958 858.68 315.371 815.384C302.014 800.893 287.691 786.918 274.955 771.897L287.977 507.664Z"/>
	<path fill="#FEFEFE" d="M329.696 518.073L330.662 518.49C330.991 519.948 331.06 521.266 331.075 522.757C332.003 566.553 343.959 600.784 372.956 633.76C371.063 633.082 369.711 631.328 368.422 629.835C342.542 599.843 326.961 557.86 329.696 518.073Z"/>
	<path fill="#C4C3C3" d="M535.599 228.781L542.164 228.097C544.1 235.799 544.896 243.726 546.669 251.463C558.846 253.908 571.476 257.465 582.917 262.309C592.52 265.572 601.431 270.083 610.367 274.823Q612.418 275.898 614.448 277.014Q616.478 278.129 618.485 279.284Q620.493 280.439 622.477 281.633Q624.462 282.827 626.423 284.059Q628.384 285.292 630.32 286.562Q632.256 287.833 634.167 289.141Q636.079 290.449 637.964 291.795Q639.849 293.14 641.708 294.522Q643.566 295.904 645.397 297.322Q647.228 298.74 649.031 300.194Q650.834 301.647 652.609 303.136Q654.383 304.625 656.128 306.148Q657.873 307.671 659.587 309.227Q661.302 310.784 662.986 312.374Q664.67 313.964 666.322 315.587Q667.975 317.21 669.595 318.865Q671.216 320.519 672.803 322.205Q674.391 323.892 675.946 325.608Q677.5 327.325 679.021 329.072Q680.541 330.819 682.027 332.595Q683.514 334.372 684.965 336.177Q686.416 337.982 687.831 339.815Q689.247 341.648 690.626 343.508Q692.006 345.369 693.349 347.256Q694.691 349.143 695.997 351.056Q697.302 352.969 698.57 354.907Q699.838 356.845 701.068 358.808Q702.298 360.77 703.489 362.756Q704.68 364.743 705.832 366.752Q706.984 368.761 708.097 370.792Q709.209 372.823 710.282 374.876Q711.355 376.929 712.387 379.002C725.259 405.053 733.967 434.252 736.193 463.283C737.24 476.934 736.954 490.932 736.996 504.629Q715.687 510.952 694.123 516.343C694.263 529.908 693.875 543.68 691.45 557.065C686.579 583.952 672.895 612.275 654.444 632.437C653.944 632.611 653.521 632.795 652.989 632.825C645.367 640.482 638.206 648.138 629.326 654.426C629.165 653.297 628.854 652.06 629.248 650.958C629.706 649.677 639.51 641.735 641.451 639.838C659.697 621.998 668.85 605.187 679.371 582.436C639.436 596.619 598.742 609.112 558.433 622.224L558.28 695.066C558.188 709.517 556.956 724.865 558.446 739.222C548.579 750.524 538.055 761.331 527.95 772.43C523.019 777.847 517.809 785.469 511.969 789.673C506.271 784.55 501.186 777.934 495.975 772.246L465.646 739.407C465.103 700.291 465.479 661.123 465.534 622.002C425.592 607.841 385.057 595.443 344.886 581.968C353.644 603.846 366.193 622 382.725 638.764C386.391 642.481 390.783 645.493 394.3 649.34C395.877 651.065 395.636 652.336 395.497 654.527C387.329 648.118 380.722 640.514 372.956 633.76C343.959 600.784 332.003 566.553 331.075 522.757C331.06 521.266 330.991 519.948 330.662 518.49L329.696 518.073C328.425 517.455 291.76 507.857 289.984 507.602C289.251 507.496 288.705 507.571 287.977 507.664L286.997 507.217C285.489 503.129 286.422 495.927 286.424 491.399C286.427 483.803 286.176 476.078 286.722 468.505C288.333 446.159 294.564 420.965 302.952 400.192C321.92 353.219 354.267 311.637 397.21 284.242C410.829 275.554 425.63 268.443 440.479 262.137C452.411 257.883 464.789 253.989 477.274 251.736C479.304 244.004 480.701 235.992 482.35 228.163L489.932 228.502C495.903 229.179 502.047 229.338 507.971 230.186C514.632 231.334 528.812 229.962 535.599 228.781Z"/>
	<path fill="#999897" d="M511.463 511.426L512.284 511.592C511.671 534.463 511.991 557.394 512.005 580.274L512.428 711.501C512.454 720.19 511.187 780.707 512.653 784.469L512.012 784.764L510.816 783.598C511.273 774.53 511.051 765.371 511.078 756.292L511.206 710.777C511.378 644.373 509.994 577.806 511.463 511.426Z"/>
	<path fill="#999897" d="M511.463 511.426C511.291 511.43 511.119 511.437 510.947 511.438C503.084 511.494 494.484 509.208 486.783 507.749L452.826 501.453C431.921 497.656 411.136 493.04 390.241 489.313Q343.535 481.341 297.074 472.048C295.706 471.763 294.161 471.249 293.1 470.317C310.672 472.563 328.363 474.047 346.002 475.864L441.938 485.464L486.232 489.842C494.908 490.702 503.875 492.035 512.596 491.861C530.517 491.503 549.095 488.255 566.982 486.489C579.505 485.252 728.237 471.365 729.257 471.805C713.946 474.102 698.623 477.95 683.371 480.803L574.253 501.134Q552.966 505.295 531.598 509.011C525.305 510.047 518.659 511.397 512.284 511.592L511.463 511.426Z"/>
	<path fill="#575656" d="M535.599 228.781L542.164 228.097C544.1 235.799 544.896 243.726 546.669 251.463C558.846 253.908 571.476 257.465 582.917 262.309C540.203 315.187 528.77 371.036 528.996 437.586C517.993 438.029 506.988 437.965 495.979 437.966C496.028 383.477 490.305 340.294 462.156 292.451Q456.017 282.148 448.683 272.657C446.216 269.472 442.664 266.111 440.735 262.665C440.639 262.495 440.564 262.313 440.479 262.137C452.411 257.883 464.789 253.989 477.274 251.736C479.304 244.004 480.701 235.992 482.35 228.163L489.932 228.502C495.903 229.179 502.047 229.338 507.971 230.186C514.632 231.334 528.812 229.962 535.599 228.781Z"/>
	<path fill="#575656" d="M554.531 558.335C600.525 545.107 645.996 529.981 692.077 517.002C694.199 560.802 680.669 599.289 652.989 632.825C645.367 640.482 638.206 648.138 629.326 654.426C629.165 653.297 628.854 652.06 629.248 650.958C629.706 649.677 639.51 641.735 641.451 639.838C659.697 621.998 668.85 605.187 679.371 582.436C639.436 596.619 598.742 609.112 558.433 622.224L558.28 695.066C558.188 709.517 556.956 724.865 558.446 739.222C548.579 750.524 538.055 761.331 527.95 772.43C523.019 777.847 517.809 785.469 511.969 789.673C506.271 784.55 501.186 777.934 495.975 772.246L465.646 739.407C465.103 700.291 465.479 661.123 465.534 622.002C425.592 607.841 385.057 595.443 344.886 581.968C353.644 603.846 366.193 622 382.725 638.764C386.391 642.481 390.783 645.493 394.3 649.34C395.877 651.065 395.636 652.336 395.497 654.527C387.329 648.118 380.722 640.514 372.956 633.76C343.959 600.784 332.003 566.553 331.075 522.757C331.245 521.146 330.978 520.214 332.245 519.139C333.159 518.992 333.842 518.951 334.757 519.165C338.822 520.119 342.847 521.7 346.874 522.864L377.417 531.7L469.578 558.235L469.463 738.08C483.14 753.197 496.463 769.143 510.816 783.598L512.012 784.764L512.653 784.469C516.832 780.744 520.516 775.65 524.273 771.443C534.205 760.321 543.985 748.983 554.466 738.374L554.531 558.335Z"/>
</svg>
