<?xml version="1.0" encoding="utf-8" ?>
<svg xmlns="http://www.w3.org/2000/svg" xmlns:xlink="http://www.w3.org/1999/xlink" width="1024" height="1024">
	<path fill="#777776" d="M0 0L1024 0L1024 813.329L1024 1024L941.111 1024L84.0392 1024L0 1024L0 813.2L0 0Z"/>
	<path fill="#040404" d="M322.39 347.126C312.064 338.857 301.887 330.562 292.307 321.422C268.624 298.828 228.584 253.631 224.135 220.767C217.547 172.105 245.696 109.123 274.569 70.8024C282.066 60.8521 290.422 51.5432 298.771 42.3087C302.906 37.7358 307.378 33.3383 311.09 28.4105L311.567 27.77C295.603 67.2768 271.151 127.962 283.744 170.563C293.371 203.132 322.706 216.631 350.19 231.623C339.318 257.501 332.583 289.667 327.309 317.396C326.253 322.948 323.719 344.046 322.39 347.126Z"/>
	<path fill="#040404" d="M710.194 26.7835C722.451 39.1296 734.765 51.5649 745.628 65.1774C782.483 111.361 800.314 163.782 800.134 222.651C800.12 227.172 799.999 231.686 798.691 236.047C791.64 259.547 759.789 296.774 742.338 314.079C729.914 326.399 716.474 338.442 702.505 348.976C701.275 344.865 701.19 340.034 700.619 335.763Q699.229 325.899 697.403 316.106C692.14 287.591 685.759 259.142 676.155 231.731C698.927 219.241 731.008 196.18 738.529 170.491Q739.503 167.104 740.237 163.657Q740.971 160.21 741.463 156.721Q741.955 153.231 742.202 149.716Q742.449 146.2 742.45 142.676C742.396 114.695 731.892 75.0794 721.231 49.2379C718.042 41.5082 714.208 34.1116 710.194 26.7835Z"/>
	<path fill="#242424" d="M404.416 160.714C418.663 153.904 434.49 149.008 449.793 145.191C503.747 131.736 551.53 135.575 603.894 154.036C608.969 155.825 614.34 157.641 619.112 160.125C621.26 165.529 622.719 173.11 625.857 177.872C628.723 182.222 634.631 185.339 638.565 188.829C650.335 199.274 668.968 217.808 676.155 231.731C685.759 259.142 692.14 287.591 697.403 316.106Q699.229 325.899 700.619 335.763C701.19 340.034 701.275 344.865 702.505 348.976C701.954 353.691 702.451 358.662 702.302 363.424C701.945 374.786 701.243 386.906 699.142 398.079C711.673 386.152 722.912 373.893 733.351 360.088C732.928 370.406 732.374 380.799 730.925 391.029C727.115 417.927 717.62 452.809 703.268 476.118C698.764 483.433 692.502 489.222 687.233 495.92C680.458 504.531 677.34 517.847 674.164 528.183C673.909 529.012 673.765 529.478 673.981 530.353L674.388 530.643C671.247 539.933 669.121 551.354 667.485 561.078C662.61 585.42 659.019 609.558 656.888 634.3C653.166 639.489 648.212 644.182 643.906 648.902L620.117 675.083C597.895 699.715 576.41 724.952 553.873 749.323C525.668 749.686 497.31 749.944 469.114 749.326L393.507 664.967C389.485 660.472 371.642 642.491 369.777 638.16C367.264 632.325 365.095 617.207 363.699 610.411C360.429 594.487 356.723 578.638 353.643 562.68C351.064 552.19 349.092 541.495 347.127 530.873C346.111 522.561 344.014 514.113 342.249 505.922C336.561 500.713 321.323 489.331 317.851 483.952C314.035 478.037 308.648 452.609 306.566 444.37C299.66 417.052 292.205 389.648 286.903 361.963C293.546 367.848 299.459 374.743 305.629 381.126C311.211 386.903 317.193 392.328 322.528 398.332Q322.379 382.009 322.487 365.686C322.526 359.684 323.144 353.062 322.39 347.126C323.719 344.046 326.253 322.948 327.309 317.396C332.583 289.667 339.318 257.501 350.19 231.623C360.095 213.482 380.065 191.888 396.603 179.632L397.079 179.211C400.723 175.837 402.067 165.743 404.416 160.714Z"/>
	<path fill="#040404" d="M397.079 179.211C397.116 179.467 397.156 179.722 397.19 179.978C397.433 181.863 397.171 183.814 397.241 185.719C397.394 189.915 397.919 194.16 398.428 198.327C401.169 220.73 405.277 243.167 409.023 265.428Q411.774 281.567 414.777 297.661C415.814 303.273 416.621 309.071 418.03 314.591C449.757 333.254 479.579 355.214 511.697 373.216Q540.372 356.749 568.114 338.756C580.866 330.59 593.52 321.85 606.771 314.534Q613.823 276.741 619.416 238.705C622.338 219.578 625.408 200.256 626.427 180.919C628.035 191.009 625.588 202.76 624.716 212.946Q621.63 248.487 617.529 283.926C616.209 295.557 614.233 307.347 613.408 318.998C604.627 327.008 591.28 335.133 581.314 342.042Q561.384 355.856 541.183 369.271C532.75 374.873 523.579 381.673 514.206 385.614C515.024 413.877 514.48 442.266 514.463 470.544C514.441 506.72 514.824 543.241 511.472 579.291C509.852 567.108 509.831 554.576 509.701 542.296L509.492 497.022L509.454 424.524C509.477 411.804 509.251 399.02 509.635 386.308C498.799 379.128 487.603 372.501 476.851 365.186C455.089 350.381 433.888 334.753 412.12 319.96Q407.632 281.04 402.289 242.228Q400.02 225.157 398.139 208.039C397.1 198.75 395.323 188.942 396.603 179.632L397.079 179.211Z"/>
	<path fill="#040404" d="M667.872 521.551L668.196 521.875C665.99 531.638 662.862 541.283 660.563 551.066C654.259 577.889 650.397 600.847 647.867 628.303C641.512 636.433 633.639 643.778 626.713 651.466C618.104 661.022 609.837 670.869 601.305 680.493C590.879 692.255 580.194 703.794 570.561 716.227L570.418 716.161C569.918 714.892 574.321 689.371 574.958 685.076C580.445 648.073 585.137 595.471 611.401 567.01C627.274 549.81 649.126 535.447 667.872 521.551Z"/>
	<path fill="#040404" d="M355.412 517.237C355.691 517.397 355.982 517.538 356.25 517.716C358.823 519.422 361.308 521.904 363.692 523.89L381.193 538.395C389.284 544.988 402.659 553.352 409.109 560.734C413.353 565.592 416.709 571.418 419.869 577.027C434.254 602.565 438.084 627.443 443.145 655.789C446.8 676.252 450.013 696.797 454.139 717.171C450.742 714.681 438.216 699.047 434.185 694.568C417.208 675.705 399.259 657.426 382.852 638.082C381.512 636.502 380.446 635.072 379.884 633.033C376.564 620.967 374.521 608.472 371.784 596.254C365.907 570.009 359.98 543.746 355.412 517.237Z"/>
	<path fill="#040404" d="M679.219 378.319C679.384 378.482 679.592 378.61 679.715 378.807C680.349 379.826 680.129 391.276 680.266 393.231C681.344 408.55 683.151 423.835 684.696 439.114C666.727 453.315 647.684 481.336 635.243 500.67Q632.682 500.924 630.128 501.237C620.087 502.482 610.066 504.136 600.055 505.611C592.178 506.772 583.932 507.574 576.27 509.725C559.774 514.357 545.188 526.952 534.898 540.259L531.864 544.619C533.828 535.318 536.478 526.133 538.777 516.908C542.443 502.195 545.925 487.418 550.33 472.903C557.258 468.672 564.665 465.02 571.695 460.907C595.43 447.019 618.619 432.945 640.878 416.735C650.807 409.505 661.358 401.792 669.531 392.56C673.403 388.185 676.273 383.329 679.219 378.319Z"/>
	<path fill="#F5F5F5" d="M642.12 438.941L642.609 439.106C642.717 439.547 642.771 439.652 642.73 440.17C642.22 446.599 633.414 460.341 628.312 464.332C615.064 474.697 588.919 472.066 573.019 469.942C571.809 469.859 570.973 469.701 569.855 469.224L570.518 468.662L570.067 469.276C572.811 466.492 577.965 464.438 581.414 462.52C589.409 458.075 596.992 453.502 605.741 450.594C618.009 446.516 630.442 444.852 642.12 438.941Z"/>
	<path fill="#040404" d="M346.166 380.223C348.124 381.174 350.067 384.676 351.445 386.481C355.319 391.555 359.35 396.269 364.084 400.574C370.223 406.158 377.513 410.717 384.358 415.399Q404.43 429.055 424.905 442.101C440.29 452.001 455.264 462.713 470.985 472.046C480.252 495.107 490.05 524.576 496.33 548.659Q494.244 544.284 491.957 540.01C470.967 507.443 449.717 505.656 413.735 504.152C404.46 503.765 396.079 503.75 387.914 498.704C381.402 494.679 376.038 487.127 371.033 481.409C359.517 468.252 348.553 454.248 336.511 441.614C337.944 435.443 338.725 428.981 339.785 422.719Q343.53 401.554 346.166 380.223Z"/>
	<path fill="#F5F5F5" d="M379.199 440.317C385 440.546 390.862 442.099 396.451 443.601C412.797 447.993 427.701 455.119 442.954 462.288C445.853 463.651 453.187 466.09 454.683 468.694L453.373 469.236C440.771 471.59 425.118 473.481 412.511 471.121C396.711 468.163 387.565 452.593 379.199 440.317Z"/>
	<path fill="#242424" d="M674.388 530.643C684.345 534.641 694.732 537.583 704.764 541.42C740.947 555.26 796.665 580.721 812.696 618.22C815.695 625.236 817.344 632.437 814.401 639.816C809.056 653.219 791.423 672.014 790.712 685.583C790.43 690.976 792.361 696.988 794.429 701.903C799.038 712.86 806.377 722.559 813.209 732.201C816.209 735.899 820.204 741.693 824.446 743.951C833.669 747.457 907.858 774.201 909.665 775.898C915.502 769.877 921.388 763.9 926.899 757.575C934.88 764.239 945.71 776.453 953.408 781.613C958.534 785.049 965.63 786.615 971.32 789.09C988.941 796.755 1007 804.4 1024 813.329L1024 1024L941.111 1024L84.0392 1024L0 1024L0 813.2Q25.1064 801.713 50.5155 790.913C56.8865 788.177 65.6147 785.793 71.1442 782.011C77.8924 777.396 89.0761 765.014 95.4399 758.775C101.044 764.569 106.713 770.315 112.033 776.374C124.465 771.353 137.202 767.041 149.768 762.37Q175.022 752.863 200.113 742.933C204.647 741.302 209.067 739.276 213.501 737.39C211.517 735.775 209.747 733.709 207.945 731.882C216.529 721.143 226.227 711.093 230.776 697.77C232.22 693.54 232.738 689.249 232.045 684.801C230.011 671.756 215.014 644.434 208.611 631.616C209.861 624.125 212.642 616.151 216.057 609.367C228.928 583.797 285.092 555.457 310.917 544.293C322.772 539.168 334.848 534.862 347.127 530.873C349.092 541.495 351.064 552.19 353.643 562.68C356.723 578.638 360.429 594.487 363.699 610.411C365.095 617.207 367.264 632.325 369.777 638.16C371.642 642.491 389.485 660.472 393.507 664.967L469.114 749.326C497.31 749.944 525.668 749.686 553.873 749.323C576.41 724.952 597.895 699.715 620.117 675.083L643.906 648.902C648.212 644.182 653.166 639.489 656.888 634.3C659.019 609.558 662.61 585.42 667.485 561.078C669.121 551.354 671.247 539.933 674.388 530.643Z"/>
	<path fill="#040404" d="M0 813.2Q25.1064 801.713 50.5155 790.913C56.8865 788.177 65.6147 785.793 71.1442 782.011C77.8924 777.396 89.0761 765.014 95.4399 758.775C101.044 764.569 106.713 770.315 112.033 776.374C107.853 783.077 99.2409 822.175 96.7168 832.029Q85.5469 875.105 74.9547 918.326C70.5912 935.978 65.8055 953.752 62.5559 971.643L76.641 1006.43C79.0098 1012.23 81.1507 1018.48 84.0392 1024L0 1024L0 813.2Z"/>
	<path fill="#040404" d="M909.665 775.898C915.502 769.877 921.388 763.9 926.899 757.575C934.88 764.239 945.71 776.453 953.408 781.613C958.534 785.049 965.63 786.615 971.32 789.09C988.941 796.755 1007 804.4 1024 813.329L1024 1024L941.111 1024C946.198 1006.86 955.579 988.964 961.115 971.55C953.27 936.996 943.463 902.818 934.895 868.432L921.485 814.903C918.656 803.66 916.084 791.987 912.461 780.983C912.045 779.719 911.505 778.667 910.705 777.607C910.122 776.835 910.168 777.009 909.812 776.262C909.755 776.144 909.714 776.019 909.665 775.898Z"/>
	<path fill="#040404" d="M674.388 530.643C684.345 534.641 694.732 537.583 704.764 541.42C740.947 555.26 796.665 580.721 812.696 618.22C815.695 625.236 817.344 632.437 814.401 639.816C809.056 653.219 791.423 672.014 790.712 685.583C790.43 690.976 792.361 696.988 794.429 701.903C799.038 712.86 806.377 722.559 813.209 732.201C816.209 735.899 820.204 741.693 824.446 743.951C814.34 789.069 730.655 848.904 692.171 872.944Q667.839 887.966 642.102 900.429Q623.412 909.783 604.139 917.867C593.783 922.181 578.661 926.625 569.813 932.77C565.197 935.976 560.84 939.856 556.602 943.541C538.393 959.378 524.601 976.845 512.289 997.524C498.55 972.285 476.455 947.062 451.973 931.688C443.176 926.165 432.407 922.746 422.796 918.869Q403.181 911.079 383.968 902.343C373.962 897.766 364.261 892.573 354.535 887.436C288.938 852.788 236.57 808.318 200.113 742.933C204.647 741.302 209.067 739.276 213.501 737.39C211.517 735.775 209.747 733.709 207.945 731.882C216.529 721.143 226.227 711.093 230.776 697.77C232.22 693.54 232.738 689.249 232.045 684.801C230.011 671.756 215.014 644.434 208.611 631.616C209.861 624.125 212.642 616.151 216.057 609.367C228.928 583.797 285.092 555.457 310.917 544.293C322.772 539.168 334.848 534.862 347.127 530.873C349.092 541.495 351.064 552.19 353.643 562.68C356.723 578.638 360.429 594.487 363.699 610.411C365.095 617.207 367.264 632.325 369.777 638.16C371.642 642.491 389.485 660.472 393.507 664.967L469.114 749.326C497.31 749.944 525.668 749.686 553.873 749.323C576.41 724.952 597.895 699.715 620.117 675.083L643.906 648.902C648.212 644.182 653.166 639.489 656.888 634.3C659.019 609.558 662.61 585.42 667.485 561.078C669.121 551.354 671.247 539.933 674.388 530.643Z"/>
	<path fill="#242424" d="M674.388 530.643C684.345 534.641 694.732 537.583 704.764 541.42C740.947 555.26 796.665 580.721 812.696 618.22C815.695 625.236 817.344 632.437 814.401 639.816C809.056 653.219 791.423 672.014 790.712 685.583C790.43 690.976 792.361 696.988 794.429 701.903C799.038 712.86 806.377 722.559 813.209 732.201C809.264 734.47 798.678 748.452 793.631 753.065C780.775 764.812 766.652 775.302 752.305 785.145C723.69 804.777 693.295 822.315 663.061 839.309C608.956 869.721 548.995 898.67 515.701 953.635C520.359 936.735 528.019 921.357 536.507 906.126C567.927 849.751 617.429 807.559 666.227 766.69C690.628 746.253 715.427 725.751 736.661 701.939C750.611 686.295 775.242 657.706 779.648 636.996C780.587 632.579 780.117 627.956 779.864 623.485C776.518 618.201 771.51 613.779 766.821 609.72C738.458 585.176 702.143 573.489 667.485 561.078C669.121 551.354 671.247 539.933 674.388 530.643Z"/>
	<path fill="#242424" d="M347.127 530.873C349.092 541.495 351.064 552.19 353.643 562.68C323.07 574.736 293.353 587.217 265.371 604.653C256.754 610.022 248.126 615.649 240.444 622.315C244.635 638.553 252.876 653.586 262.089 667.501C302.947 729.218 364.779 767.848 417.413 817.78C455.202 853.63 494.335 903.207 509.771 953.744C502.628 943.212 495.348 933.144 486.637 923.829C451.288 886.03 404.748 862.929 359.727 838.894C335.403 825.909 308.913 811.072 286.246 795.517C268.54 783.367 251.026 771.076 234.692 757.104C230.003 753.092 217.404 739.17 213.501 737.39C211.517 735.775 209.747 733.709 207.945 731.882C216.529 721.143 226.227 711.093 230.776 697.77C232.22 693.54 232.738 689.249 232.045 684.801C230.011 671.756 215.014 644.434 208.611 631.616C209.861 624.125 212.642 616.151 216.057 609.367C228.928 583.797 285.092 555.457 310.917 544.293C322.772 539.168 334.848 534.862 347.127 530.873Z"/>
</svg>
