<?xml version="1.0" encoding="utf-8" ?>
<svg xmlns="http://www.w3.org/2000/svg" xmlns:xlink="http://www.w3.org/1999/xlink" width="1024" height="1024">
	<path fill="#525252" d="M0 0L1024 0L1024 861.019L1024 1024L589.979 1024L555.639 1024L480.9 1024L467.033 1024L433.681 1024L0 1024L0 861.711L0 0Z"/>
	<path fill="#050505" d="M284.637 102.157C297.298 105.141 311.029 107.11 323.94 104.712C343.148 101.144 362.198 90.3432 379.37 81.3997C430.267 54.893 483.626 22.9952 542.661 22.5507C569.075 22.3518 599.956 30.6755 619.111 49.7396C626.321 56.9161 633.213 65.564 633.203 76.185C645.76 71.9767 661.468 65.2443 674.86 67.5095C679.57 68.3062 682.948 71.0382 686.192 74.3651C690.832 79.1238 694.574 84.8388 698.404 90.2474C704.678 99.1074 710.965 108.182 718.26 116.245Q724.641 123.231 731.665 129.571C737.848 135.052 745.727 140.267 750.238 147.223C752.997 151.477 753.562 159.443 754.311 164.476C758.618 193.401 759.781 223.349 753.725 252.117C754.562 252.414 755.413 252.713 756.213 253.103C758.935 254.429 760.4 257.867 761.264 260.577C768.654 283.759 757.055 336.124 752.759 360.645C751.985 365.066 751.161 377.531 749.524 380.682C737.771 387.776 721.197 419.903 715.598 432.974C711.377 439.719 708.87 448.489 706.94 456.159C705.512 461.834 703.514 479.044 700.502 482.617C700.404 473.341 703.499 457.612 702.432 449.963C701.804 445.461 699.493 440.802 698.254 436.387C694.592 423.344 692.884 410.876 693.696 397.36C695.096 393.195 695.219 384.166 695.675 379.429C686.36 370.834 677.136 363.04 669.267 352.985C665.393 348.035 661.901 342.669 660.363 336.504C656.683 321.755 661.669 278.312 663.693 262.154C611.155 254.408 557.368 265.58 506.865 279.448C500.195 277.607 493.341 276.423 486.553 275.098C481.014 272.182 473.908 270.767 467.896 269.054C451.553 264.397 435.246 260.37 418.631 256.823C408.398 254.638 397.405 252.023 386.91 251.982C380.045 251.955 373.459 254.042 366.97 256.052C359.627 258.327 346.549 261.15 342.834 268.694C342.34 269.697 342.028 270.797 341.716 271.868C345.391 290.078 355.202 320.609 352.785 338.071C352.234 342.054 350.645 345.663 348.453 349C343.526 356.501 332.948 363.972 329.806 370.997C327.051 377.157 327.171 385.871 326.229 392.585C323.542 411.73 320.124 431.58 319.902 450.919C319.793 460.457 320.895 470.102 321.697 479.603C322.271 486.397 322.551 493.447 323.738 500.146C309.245 489.505 299.956 476.896 297.265 458.724C295.502 446.814 297.136 434.177 300.888 422.796C297.081 412.231 292.473 402.154 287.415 392.131C286.125 389.575 284.922 386.489 283.218 384.202C278.613 374.699 262.926 349.675 261.257 341.803C260.095 336.318 262.7 326.56 262.956 320.288C264.126 291.666 259.429 260.717 245.312 235.513C256.647 210.276 270.477 182.347 292.771 165.013C285.457 152.221 283.075 139.572 280.981 125.174C285.252 127.181 289.464 129.014 293.929 130.571C289.196 121.17 286.449 112.497 284.637 102.157Z"/>
	<path fill="#050505" d="M355.937 630.808C377.328 657.366 396.866 682.969 421.019 707.334C429.935 716.327 439.131 725.607 450.273 731.837C462.348 738.589 476.489 741.704 490.124 743.181C507.421 745.054 536.693 744.862 553.177 740.334C560.352 738.363 568.388 734.559 573.92 729.488C574.551 728.91 574.552 728.879 575.016 728.319L576.964 726.751C580.269 725.119 583.242 722.519 586.171 720.29C599.692 709.071 611.812 696.787 624.39 684.583C635.975 673.342 648.264 662.588 657.951 649.583L658.524 650.505C659.592 648.885 660.689 647.28 661.664 645.602C661.596 654.153 661.485 662.672 662.046 671.212C662.099 677.248 662.605 683.797 661.45 689.741C659.707 698.707 648.654 710.073 642.396 716.443C632.871 726.139 622.617 735.204 612.695 744.494L552.306 800.803C540.739 811.636 527.017 822.971 516.902 834.949C514.556 835.028 512.129 834.969 509.824 835.431L508.028 835.259Q502.218 835.061 496.405 835.056C489.129 841.182 482.844 849.045 475.903 855.679C459.874 871.002 443.435 885.864 427.325 901.1C424.316 903.945 406.435 918.655 405.74 920.739C404.673 922.026 403.087 923.345 401.64 924.188C412.921 957.265 422.257 990.983 433.681 1024L0 1024L0 861.711C4.4006 854.839 9.659 849.566 16.9124 845.686C24.8588 841.436 33.7003 838.998 42.2366 836.244L72.2945 826.475L215.235 779.618Q237.25 772.427 259.073 764.672C264.317 762.823 270.559 761.357 275.458 758.828C281.656 755.628 325.617 708.877 333.241 699.944C339.245 692.908 343.499 684.689 350.764 678.741L351.327 678.286C352.904 676.808 354.667 675.808 356.655 675.003C354.653 666.293 355.836 641.159 355.937 630.808Z"/>
	<path fill="#525252" d="M495.534 824.326L508.028 835.259Q502.218 835.061 496.405 835.056C489.129 841.182 482.844 849.045 475.903 855.679C459.874 871.002 443.435 885.864 427.325 901.1C424.316 903.945 406.435 918.655 405.74 920.739C404.673 922.026 403.087 923.345 401.64 924.188L400.896 923.414C401.235 921.73 401.89 920.494 402.933 919.14C411.042 908.62 421.698 899.056 431.075 889.616C444.188 876.416 457.041 862.979 470.289 849.908C478.59 841.717 488.534 833.622 495.534 824.326Z"/>
	<path fill="#A1A0A0" d="M661.664 645.602C661.596 654.153 661.485 662.672 662.046 671.212C662.099 677.248 662.605 683.797 661.45 689.741C659.707 698.707 648.654 710.073 642.396 716.443C632.871 726.139 622.617 735.204 612.695 744.494L552.306 800.803C540.739 811.636 527.017 822.971 516.902 834.949C514.556 835.028 512.129 834.969 509.824 835.431L508.028 835.259L495.534 824.326Q486.223 816.462 477.584 807.865C483.479 802.567 490.569 798.103 497.062 793.531L538.14 765.062C556.612 752.044 574.845 737.283 591.55 722.023C599.011 715.207 606.108 707.986 613.391 700.981C629.583 685.408 646.577 669.713 658.524 650.505C659.592 648.885 660.689 647.28 661.664 645.602Z"/>
	<path fill="#050505" d="M662.046 671.212C662.583 674.61 663.885 676.859 666.49 679.145C666.56 679.206 666.644 679.25 666.722 679.302C672.979 680.14 681.066 687.945 684.774 692.812C689.212 698.637 692.805 705.075 697.239 710.903C708.518 725.729 724.02 740.764 739.615 750.999C756.496 762.079 777.086 768.161 796.081 774.553L850.645 792.433Q903.217 809.387 955.506 827.194L981.703 835.88C990.677 838.812 999.921 841.428 1008.2 846.059C1015.14 849.938 1019.51 854.522 1024 861.019L1024 1024L589.979 1024L555.639 1024L480.9 1024L467.033 1024L433.681 1024C422.257 990.983 412.921 957.265 401.64 924.188C403.087 923.345 404.673 922.026 405.74 920.739C406.435 918.655 424.316 903.945 427.325 901.1C443.435 885.864 459.874 871.002 475.903 855.679C482.844 849.045 489.129 841.182 496.405 835.056Q502.218 835.061 508.028 835.259L509.824 835.431C512.129 834.969 514.556 835.028 516.902 834.949C527.017 822.971 540.739 811.636 552.306 800.803L612.695 744.494C622.617 735.204 632.871 726.139 642.396 716.443C648.654 710.073 659.707 698.707 661.45 689.741C662.605 683.797 662.099 677.248 662.046 671.212Z"/>
	<path fill="#6D6D6D" d="M558.514 893.796C566.065 897.628 573.263 902.673 580.489 907.106C593.657 915.184 606.974 923.216 620.408 930.84Q604.336 977.14 589.979 1024L555.639 1024C550.137 994.281 545.55 963.864 536.078 935.1L537.446 933.584Q548.275 913.846 558.514 893.796Z"/>
	<path fill="#6D6D6D" d="M405.74 920.739C422.571 908.037 441.406 897.614 458.952 885.868Q467.372 901.641 475.355 917.639C478.655 924.201 482.291 930.829 484.891 937.704C482.969 946.352 480.611 954.894 478.627 963.528C474.049 983.447 469.961 1003.77 467.033 1024L433.681 1024C422.257 990.983 412.921 957.265 401.64 924.188C403.087 923.345 404.673 922.026 405.74 920.739Z"/>
	<path fill="#6D6D6D" d="M662.046 671.212C662.583 674.61 663.885 676.859 666.49 679.145C666.56 679.206 666.644 679.25 666.722 679.302C681.599 703.148 683.791 720.991 677.482 748.267C671.185 775.492 661.835 802.353 653.309 828.958L629.47 902.25C626.449 911.538 623.73 920.941 620.626 930.199L526.182 835.457Q518.003 835.493 509.824 835.431C512.129 834.969 514.556 835.028 516.902 834.949C527.017 822.971 540.739 811.636 552.306 800.803L612.695 744.494C622.617 735.204 632.871 726.139 642.396 716.443C648.654 710.073 659.707 698.707 661.45 689.741C662.605 683.797 662.099 677.248 662.046 671.212Z"/>
	<path fill="#262525" d="M341.716 271.868C342.028 270.797 342.34 269.697 342.834 268.694C346.549 261.15 359.627 258.327 366.97 256.052C373.459 254.042 380.045 251.955 386.91 251.982C397.405 252.023 408.398 254.638 418.631 256.823C435.246 260.37 451.553 264.397 467.896 269.054C473.908 270.767 481.014 272.182 486.553 275.098C493.341 276.423 500.195 277.607 506.865 279.448C557.368 265.58 611.155 254.408 663.693 262.154C661.669 278.312 656.683 321.755 660.363 336.504C661.901 342.669 665.393 348.035 669.267 352.985C677.136 363.04 686.36 370.834 695.675 379.429C695.219 384.166 695.096 393.195 693.696 397.36C692.884 410.876 694.592 423.344 698.254 436.387C699.493 440.802 701.804 445.461 702.432 449.963C703.499 457.612 700.404 473.341 700.502 482.617C703.514 479.044 705.512 461.834 706.94 456.159C708.87 448.489 711.377 439.719 715.598 432.974C721.197 419.903 737.771 387.776 749.524 380.682C751.888 381.306 753.562 382.039 754.839 384.23C760.319 393.631 753.146 433.263 749.732 444.418C746.673 454.412 740.849 463.656 737.351 473.591C731.367 490.59 727.507 527.87 711.331 536.519C705.582 539.592 699.353 540.147 692.956 540.069C691.195 544.17 691.041 550.256 690.483 554.749Q688.155 573.691 686.218 592.677C685.552 599.18 685.299 605.927 684.222 612.358C683.836 614.662 683.224 616.887 682.188 618.988C676.61 630.301 665.407 639.436 657.951 649.583C648.264 662.588 635.975 673.342 624.39 684.583C611.812 696.787 599.692 709.071 586.171 720.29C583.242 722.519 580.269 725.119 576.964 726.751L575.016 728.319C574.552 728.879 574.551 728.91 573.92 729.488C568.388 734.559 560.352 738.363 553.177 740.334C536.693 744.862 507.421 745.054 490.124 743.181C476.489 741.704 462.348 738.589 450.273 731.837C439.131 725.607 429.935 716.327 421.019 707.334C396.866 682.969 377.328 657.366 355.937 630.808C349.376 623.175 343.577 613.259 340.107 603.842C333.556 586.066 330.388 556.9 328.889 537.767C320.34 534.872 310.397 531.692 304.829 524.049C293.169 508.042 293.052 485.649 286.69 467.376C281.443 452.306 273.501 438.608 269.702 422.918C267.811 415.112 266.767 406.902 267.986 398.907C268.679 394.367 269.913 388.101 273.924 385.343C277.109 383.153 279.636 383.67 283.218 384.202C284.922 386.489 286.125 389.575 287.415 392.131C292.473 402.154 297.081 412.231 300.888 422.796C297.136 434.177 295.502 446.814 297.265 458.724C299.956 476.896 309.245 489.505 323.738 500.146C322.551 493.447 322.271 486.397 321.697 479.603C320.895 470.102 319.793 460.457 319.902 450.919C320.124 431.58 323.542 411.73 326.229 392.585C327.171 385.871 327.051 377.157 329.806 370.997C332.948 363.972 343.526 356.501 348.453 349C350.645 345.663 352.234 342.054 352.785 338.071C355.202 320.609 345.391 290.078 341.716 271.868Z"/>
	<path fill="#050505" d="M472.971 548.549C474.585 548.473 476.234 548.407 477.819 548.789C482.341 549.878 485.012 553.006 487.213 556.896C483.814 557.546 480.451 558.044 477.011 558.422Q469.681 559.498 462.274 559.578C465.098 554.786 467.61 550.766 472.971 548.549Z"/>
	<path fill="#050505" d="M380.297 429.026C385.445 425.061 390.59 420.869 396.382 417.871C407.873 411.924 424.369 409.836 437.046 412.298C440.851 413.036 444.259 414.387 447.926 415.5C448.11 415.556 448.297 415.606 448.482 415.658C456.098 419.407 464.275 426.998 469.126 433.943C464.858 434.068 460.58 434.26 456.31 434.247C445.754 436.236 435.184 438.055 424.404 438.078C419.559 438.088 414.807 437.546 409.988 437.353C408.642 436.972 407.705 437.014 406.333 437.108C404.526 437.15 402.772 437.093 400.992 436.745C395.736 435.718 392.749 431.741 389.857 427.622L380.297 429.026Z"/>
	<path fill="#DEDDDD" d="M426.387 417.234C427.215 417.345 428.502 417.422 429.24 417.81C430.518 418.482 430.689 418.918 431.146 420.178C430.941 421.856 430.301 422.61 429.275 423.863C428.591 423.887 427.449 423.974 426.804 423.687C425.451 423.084 425.345 422.563 424.855 421.283C424.966 419.496 425.371 418.694 426.387 417.234Z"/>
	<path fill="#A1A0A0" d="M404.927 418.431C404.985 424.262 406.075 426.381 409.601 430.983C409.038 432.756 408.497 435.243 409.615 436.923C409.721 437.081 409.864 437.209 409.988 437.353C408.642 436.972 407.705 437.014 406.333 437.108C404.526 437.15 402.772 437.093 400.992 436.745C395.736 435.718 392.749 431.741 389.857 427.622C394.761 423.945 399.275 420.885 404.927 418.431Z"/>
	<path fill="#DEDDDD" d="M438.676 417.12C444.229 418.898 456.236 425.225 458.782 430.454C459.188 431.287 459.046 431.503 458.954 432.379C458.091 433.282 457.449 433.735 456.31 434.247C445.754 436.236 435.184 438.055 424.404 438.078C419.559 438.088 414.807 437.546 409.988 437.353C409.864 437.209 409.721 437.081 409.615 436.923C408.497 435.243 409.038 432.756 409.601 430.983C414.075 434.333 418.658 436.562 424.441 435.796Q425.246 435.693 426.036 435.507Q426.826 435.321 427.592 435.054Q428.359 434.787 429.094 434.443Q429.829 434.099 430.524 433.68Q431.219 433.261 431.867 432.773Q432.516 432.285 433.11 431.732Q433.704 431.179 434.238 430.568Q434.772 429.957 435.24 429.294C437.958 425.48 438.475 421.641 438.676 417.12Z"/>
	<path fill="#050505" d="M386.174 371.892C401.627 376.097 416.881 379.861 432.619 382.879C444.974 385.248 466.145 388.348 477.494 392.549C479.331 393.229 480.575 394.004 481.555 395.763C482.713 397.839 483.462 400.418 484.184 402.682C483.644 404.372 483.203 406.451 481.778 407.604C479.359 409.562 475.247 409.948 472.272 409.973C460.243 410.077 440.084 405.033 427.3 403.266C399.323 399.399 372.651 393.848 348.184 412.382C349.487 403.405 351.265 395.559 357.509 388.66C362.901 382.703 378.231 372.289 386.174 371.892Z"/>
	<path fill="#828181" d="M448.482 415.658C457.259 416.129 477.09 426.295 483.1 432.889C484.794 434.747 486.073 437.022 485.798 439.605C484.624 450.622 465.638 486.473 459.827 498.368C455.353 507.526 451.17 516.822 446.659 525.962C443.823 531.708 437.646 541.588 436.47 547.631C435.845 550.846 437.186 554.406 439.117 556.935C446.359 566.42 464.056 570.877 475.28 572.052C482.904 572.849 490.319 572.112 497.867 570.985C497.239 579.257 497.851 588.263 495.882 596.33C494.681 601.249 489.941 606.548 490.13 611.501C491.108 612.425 491.546 612.4 492.886 612.674C478.874 616.371 464.503 620.625 449.95 621.215C445.989 619.849 442.258 617.994 438.038 619.361L437.552 620.233C438.108 621.742 439.491 622.598 440.892 623.268C450.433 627.829 474.611 625.846 486.708 628.454C481.289 631.764 475.067 632.633 468.855 633.145C472.918 641.809 479.573 646.448 488.385 649.619C506.018 655.963 532.078 654.802 548.974 646.607C549.488 646.358 549.993 646.092 550.498 645.827C546.353 654.432 539.85 659.498 531.484 663.713C535.639 667.944 540.355 672.147 544.031 676.767C524.692 671.083 497.926 671.214 479.906 681.191C473.53 684.721 468.861 689.764 466.889 696.918C465.323 702.597 465.22 708.803 468.169 714.062C472.145 721.156 480.461 724.941 488.017 726.912C505.915 731.579 525.835 729.533 544.112 728.57C550.146 728.251 556.195 728.268 562.225 727.934C567.008 727.67 572.227 726.502 576.964 726.751L575.016 728.319C552.241 735.495 510.702 740.357 487.744 734.4C461.782 727.664 446.313 700.641 430.157 681.178C424.864 674.802 418.127 669.077 413.946 661.889C410.286 655.597 408.689 648.08 407.63 640.957C405.002 623.285 407.258 608.002 412.842 591.206C414.872 585.099 417.178 578.983 418.76 572.746L418.92 572.095C413.924 582.293 408.463 591.901 400.922 600.465C396.93 580.197 392.437 540.671 382.79 524.525C374.187 510.126 341.837 480.501 341.047 466.208C340.829 462.248 342.481 458.597 345.129 455.72C352.662 447.534 364.483 444.265 375.219 443.867C380.423 446.957 385.399 449.845 391.127 451.85C391.434 451.646 391.765 451.263 391.97 450.977C393.034 449.492 394.002 448.283 395.293 446.959Q398.263 446.592 401.221 446.138C400.937 444.265 398.493 442.346 397.799 440.426C397.407 439.341 397.495 439.204 397.991 438.247C400.316 437.088 403.454 437.796 406.011 437.754L406.333 437.108C407.705 437.014 408.642 436.972 409.988 437.353C414.807 437.546 419.559 438.088 424.404 438.078C435.184 438.055 445.754 436.236 456.31 434.247C460.58 434.26 464.858 434.068 469.126 433.943C464.275 426.998 456.098 419.407 448.482 415.658Z"/>
	<path fill="#525252" d="M395.293 446.959Q398.263 446.592 401.221 446.138C401.213 446.39 401.186 446.642 401.196 446.894C401.261 448.536 402.051 450.047 403.346 451.064C408.683 455.259 416.907 452.975 421.432 454.901C417.357 456.93 396.138 453.325 391.127 451.85C391.434 451.646 391.765 451.263 391.97 450.977C393.034 449.492 394.002 448.283 395.293 446.959Z"/>
	<path fill="#828181" d="M506.865 279.448C557.368 265.58 611.155 254.408 663.693 262.154C661.669 278.312 656.683 321.755 660.363 336.504C661.901 342.669 665.393 348.035 669.267 352.985C677.136 363.04 686.36 370.834 695.675 379.429C695.219 384.166 695.096 393.195 693.696 397.36C690.923 396.803 672.432 402.171 667.83 403.187L667.075 403.93L666.666 405.489C662.677 406.695 647.248 403.197 642.134 402.605C637 402.01 631.774 401.594 626.606 401.491C609.576 401.152 592.693 404.895 575.978 407.691C563.321 408.739 550.254 411.434 537.569 410.941C535.961 409.949 534.316 409.017 532.899 407.757C532.048 412.439 531.118 417.213 531.016 421.982L529.632 422.043C520.738 418.947 508.769 419.2 499.806 421.962C500.749 430.184 501.821 438.422 501.968 446.706C502.082 453.184 501.359 459.732 500.92 466.192C500.345 474.645 499.954 483.184 498.961 491.599C497.18 506.706 492.878 522.306 494.634 537.558C495.27 543.083 502.609 550.505 506.94 553.699C509.071 555.27 514.632 557.72 515.602 559.738C513.339 560.683 511.599 560.751 509.186 560.279C504.101 559.286 499.448 555.854 495.912 552.17C479.061 534.616 490.181 514.13 492.088 493.112C492.905 484.117 491.922 475.054 492.165 466.045C492.479 454.348 495.924 429.121 493.298 418.679C491.862 412.972 487.435 407.513 484.184 402.682C483.462 400.418 482.713 397.839 481.555 395.763C480.575 394.004 479.331 393.229 477.494 392.549C466.145 388.348 444.974 385.248 432.619 382.879C416.881 379.861 401.627 376.097 386.174 371.892Q385.808 364.218 386.32 356.553C387.9 332.238 397.329 296.018 416.057 279.766C418.762 277.419 421.898 275.499 425.337 274.45C440.435 269.843 470.145 274.056 486.553 275.098C493.341 276.423 500.195 277.607 506.865 279.448Z"/>
	<path fill="#050505" d="M532.899 407.757C533.856 403.736 535.329 397.893 538.091 394.727C539.312 393.329 540.997 392.91 542.711 392.41C557.331 388.146 573.035 385.895 587.951 382.775C600.233 380.206 620.321 374.539 632.432 374.451C643.558 374.37 659.739 385.106 667.311 392.714Q667.012 398.318 667.075 403.93L666.666 405.489C662.677 406.695 647.248 403.197 642.134 402.605C637 402.01 631.774 401.594 626.606 401.491C609.576 401.152 592.693 404.895 575.978 407.691C563.321 408.739 550.254 411.434 537.569 410.941C535.961 409.949 534.316 409.017 532.899 407.757Z"/>
	<path fill="#B8B7B6" d="M749.524 380.682C751.888 381.306 753.562 382.039 754.839 384.23C760.319 393.631 753.146 433.263 749.732 444.418C746.673 454.412 740.849 463.656 737.351 473.591C731.367 490.59 727.507 527.87 711.331 536.519C705.582 539.592 699.353 540.147 692.956 540.069C691.195 544.17 691.041 550.256 690.483 554.749Q688.155 573.691 686.218 592.677C685.552 599.18 685.299 605.927 684.222 612.358C683.836 614.662 683.224 616.887 682.188 618.988C676.61 630.301 665.407 639.436 657.951 649.583C648.264 662.588 635.975 673.342 624.39 684.583C611.812 696.787 599.692 709.071 586.171 720.29C583.242 722.519 580.269 725.119 576.964 726.751C572.227 726.502 567.008 727.67 562.225 727.934C556.195 728.268 550.146 728.251 544.112 728.57C525.835 729.533 505.915 731.579 488.017 726.912C480.461 724.941 472.145 721.156 468.169 714.062C465.22 708.803 465.323 702.597 466.889 696.918C468.861 689.764 473.53 684.721 479.906 681.191C497.926 671.214 524.692 671.083 544.031 676.767C540.355 672.147 535.639 667.944 531.484 663.713C539.85 659.498 546.353 654.432 550.498 645.827C549.993 646.092 549.488 646.358 548.974 646.607C532.078 654.802 506.018 655.963 488.385 649.619C479.573 646.448 472.918 641.809 468.855 633.145C475.067 632.633 481.289 631.764 486.708 628.454C474.611 625.846 450.433 627.829 440.892 623.268C439.491 622.598 438.108 621.742 437.552 620.233L438.038 619.361C442.258 617.994 445.989 619.849 449.95 621.215C464.503 620.625 478.874 616.371 492.886 612.674C491.546 612.4 491.108 612.425 490.13 611.501C489.941 606.548 494.681 601.249 495.882 596.33C497.851 588.263 497.239 579.257 497.867 570.985Q501.572 570.114 505.232 569.068C509.61 567.247 513.705 565.343 517.81 562.952C520.254 561.071 522.721 559.221 525.023 557.164L523.446 555.789C520.866 557.152 518.266 558.543 515.602 559.738C514.632 557.72 509.071 555.27 506.94 553.699C502.609 550.505 495.27 543.083 494.634 537.558C492.878 522.306 497.18 506.706 498.961 491.599C499.954 483.184 500.345 474.645 500.92 466.192C501.359 459.732 502.082 453.184 501.968 446.706C501.821 438.422 500.749 430.184 499.806 421.962C508.769 419.2 520.738 418.947 529.632 422.043L531.016 421.982C531.118 417.213 532.048 412.439 532.899 407.757C534.316 409.017 535.961 409.949 537.569 410.941C550.254 411.434 563.321 408.739 575.978 407.691C592.693 404.895 609.576 401.152 626.606 401.491C631.774 401.594 637 402.01 642.134 402.605C647.248 403.197 662.677 406.695 666.666 405.489L667.075 403.93L667.83 403.187C672.432 402.171 690.923 396.803 693.696 397.36C692.884 410.876 694.592 423.344 698.254 436.387C699.493 440.802 701.804 445.461 702.432 449.963C703.499 457.612 700.404 473.341 700.502 482.617C703.514 479.044 705.512 461.834 706.94 456.159C708.87 448.489 711.377 439.719 715.598 432.974C721.197 419.903 737.771 387.776 749.524 380.682Z"/>
	<path fill="#A1A0A0" d="M532.937 557.44C538.725 557.473 544.455 558.005 550.01 556.061C547.707 558.674 545.619 559.663 542.111 559.884C539.424 560.053 535.054 559.206 532.937 557.44Z"/>
	<path fill="#050505" d="M629.451 430.095C629.438 431.541 629.336 432.525 628.275 433.626C625.321 436.693 618.867 438.104 614.751 438.483L614.328 438.193L614.463 437.74C619.601 435.444 624.733 433.19 629.451 430.095Z"/>
	<path fill="#A1A0A0" d="M546.036 551.556L549.274 553.757C551.442 553.265 552.796 550.957 553.917 549.189C556.587 544.978 556.216 540.155 555.09 535.484C553.398 528.46 549.151 522.076 547.742 515.143C551.519 518.691 558.137 535.761 558.407 541.199C558.649 546.085 557.376 549.947 554.06 553.568C553.257 554.445 552.434 555.113 551.41 555.708C550.33 555.179 549.234 555.271 548.048 555.22C546.736 554.204 546.601 553.093 546.036 551.556Z"/>
	<path fill="#828181" d="M505.232 569.068C509.61 567.247 513.705 565.343 517.81 562.952C517.272 578.296 518.476 593.769 516.618 609.032C514.221 596.471 515.402 583.354 513.257 570.745C510.592 570.101 507.927 569.569 505.232 569.068Z"/>
	<path fill="#050505" d="M523.446 555.789C526.88 553.357 531.689 548.98 535.839 548.248C540.086 547.498 542.77 549.243 546.036 551.556C546.601 553.093 546.736 554.204 548.048 555.22C549.234 555.271 550.33 555.179 551.41 555.708L550.01 556.061C544.455 558.005 538.725 557.473 532.937 557.44C530.289 557.158 527.681 556.788 525.023 557.164L523.446 555.789Z"/>
	<path fill="#262525" d="M749.477 392.285C750.174 392.569 750.666 392.805 751.124 393.444C753.338 396.534 751.543 406.815 750.963 410.446C750.518 413.229 746.344 433.175 744.606 434.435C744.92 424.424 746.329 408.573 741.006 399.924C743.554 396.861 746.083 394.394 749.477 392.285Z"/>
	<path fill="#525252" d="M586.923 408.37C603.279 406.668 625.014 408.251 638.28 418.914C640.487 420.689 644.995 424.216 645.095 427.184C645.111 427.662 645.104 427.738 644.76 428.033C643.845 428.815 642.231 429.049 641.08 429.363L640.645 429.151Q639.232 427.503 637.705 425.961C625.281 413.573 609.045 411.427 592.253 411.371L589.811 410.655L589.937 410.558C588.82 409.905 587.912 409.194 586.923 408.37Z"/>
	<path fill="#828181" d="M557.021 446.218C559.676 445.974 562.02 445.91 564.647 446.434C573.542 448.21 583.436 452.57 592.778 454.829C596.635 455.762 610.695 457.78 612.584 458.685L611.406 459.469Q607.853 460.103 604.254 460.379Q600.655 460.656 597.047 460.572Q593.438 460.489 589.856 460.046Q586.274 459.603 582.754 458.805C577.018 457.535 559.231 451.665 556.259 447L557.021 446.218Z"/>
	<path fill="#050505" d="M486.708 628.454C474.611 625.846 450.433 627.829 440.892 623.268C439.491 622.598 438.108 621.742 437.552 620.233L438.038 619.361C442.258 617.994 445.989 619.849 449.95 621.215C461.837 623.9 474.093 624.426 486.181 625.797C494.259 626.713 502.728 628.465 510.837 628.671C517.386 628.836 523.925 627.483 530.441 626.976C543.975 625.924 558.597 626.744 571.739 623C572.111 622.894 572.486 622.799 572.859 622.697C573.023 622.675 573.186 622.657 573.349 622.633C578.134 621.913 582.6 617.276 587.379 620.947C588.63 621.908 589.496 623.07 590.36 624.372L590.249 625.277C587.472 626.268 583.042 624.581 580.263 623.764C564.151 628.24 547.175 627.462 530.607 628.607C523.941 629.067 517.22 630.358 510.542 630.335C502.551 630.307 494.661 629.011 486.708 628.454Z"/>
	<path fill="#525252" d="M537.569 410.941C550.254 411.434 563.321 408.739 575.978 407.691C578.672 409.067 583.862 408.444 586.923 408.37C587.912 409.194 588.82 409.905 589.937 410.558L589.811 410.655L592.253 411.371C585.802 412.151 580.594 413.153 574.726 416.125C572.656 417.174 570.594 418.661 568.488 419.552C565.682 421.359 556.27 427.942 555.413 430.92L555.633 431.182C554.983 431.538 554.204 431.671 553.47 431.684C546.589 431.812 534.578 426.745 529.632 422.043L531.016 421.982C531.118 417.213 532.048 412.439 532.899 407.757C534.316 409.017 535.961 409.949 537.569 410.941Z"/>
	<path fill="#828181" d="M531.016 421.982C532.662 422.527 562.537 419.404 568.488 419.552C565.682 421.359 556.27 427.942 555.413 430.92L555.633 431.182C554.983 431.538 554.204 431.671 553.47 431.684C546.589 431.812 534.578 426.745 529.632 422.043L531.016 421.982Z"/>
	<path fill="#262525" d="M510.79 618.627C515.346 616.262 520.316 613.134 525.451 612.348C533.865 611.06 547.387 616.846 555.819 619.026C561.448 620.481 567.152 621.598 572.859 622.697C572.486 622.799 572.111 622.894 571.739 623C558.597 626.744 543.975 625.924 530.441 626.976C523.925 627.483 517.386 628.836 510.837 628.671C502.728 628.465 494.259 626.713 486.181 625.797C474.093 624.426 461.837 623.9 449.95 621.215C464.503 620.625 478.874 616.371 492.886 612.674C499.28 612.007 505.294 615.833 510.79 618.627Z"/>
	<path fill="#262525" d="M700.502 482.617C703.514 479.044 705.512 461.834 706.94 456.159C708.87 448.489 711.377 439.719 715.598 432.974C715.801 433.05 716.004 433.129 716.209 433.2C717.77 433.744 719.6 433.664 721.235 433.926C725.318 434.58 728.419 438.425 730.264 441.863C733.422 447.747 734.228 455.516 732.174 461.866C729.197 471.071 717.247 477.236 710.939 484.306C706.319 489.483 703.059 495.385 700.028 501.582C700.083 495.379 699.726 488.769 700.502 482.617Z"/>
	<path fill="#050505" d="M592.253 411.371C609.045 411.427 625.281 413.573 637.705 425.961Q639.232 427.503 640.645 429.151C637.505 429.046 634.344 429.051 631.254 428.433C630.527 428.962 629.876 429.286 629.451 430.095C624.733 433.19 619.601 435.444 614.463 437.74C611.115 435.495 606.019 437.876 602.482 435.619C599.336 435.917 596.532 435.445 593.489 434.744C592.671 435.133 592.062 435.275 591.142 435.145C582.761 433.965 575.55 428.712 570.457 422.239C565.609 426.325 561.5 428.798 555.633 431.182L555.413 430.92C556.27 427.942 565.682 421.359 568.488 419.552C570.594 418.661 572.656 417.174 574.726 416.125C580.594 413.153 585.802 412.151 592.253 411.371Z"/>
	<path fill="#DEDDDD" d="M600.536 416.432C601.847 416.406 603.452 416.329 604.707 416.766C605.95 417.199 606.347 417.765 606.939 418.878C606.839 420.544 606.387 421.295 605.474 422.612C604.29 422.802 603.173 422.914 602.003 422.542C600.969 422.213 600.014 421.235 599.727 420.196C599.321 418.731 599.888 417.669 600.536 416.432Z"/>
	<path fill="#DEDDDD" d="M585.021 416.77C584.198 421.026 584.134 424.716 586.581 428.537C588.272 431.177 590.783 433.216 593.489 434.744C592.671 435.133 592.062 435.275 591.142 435.145C582.761 433.965 575.55 428.712 570.457 422.239C575.214 419.736 579.816 418.097 585.021 416.77Z"/>
	<path fill="#DEDDDD" d="M602.482 435.619C605.67 434.423 608.884 432.891 611.286 430.412C614.833 426.752 615.384 422.661 615.311 417.829C619.98 419.353 625.127 421.591 628.986 424.682C630.432 425.841 631.079 426.58 631.254 428.433C630.527 428.962 629.876 429.286 629.451 430.095C624.733 433.19 619.601 435.444 614.463 437.74C611.115 435.495 606.019 437.876 602.482 435.619Z"/>
	<path fill="#A1A0A0" d="M634.984 559.651C650.572 549.991 667.799 532.58 678.358 517.434C681.472 512.966 687.163 502.536 690.627 499.457C691.624 498.571 692.52 498.412 693.831 498.49C694.647 498.932 695.078 499.237 695.594 500.039C700.215 507.209 694.577 531.334 692.956 540.069C691.195 544.17 691.041 550.256 690.483 554.749Q688.155 573.691 686.218 592.677C685.552 599.18 685.299 605.927 684.222 612.358C683.836 614.662 683.224 616.887 682.188 618.988C676.61 630.301 665.407 639.436 657.951 649.583C648.264 662.588 635.975 673.342 624.39 684.583C611.812 696.787 599.692 709.071 586.171 720.29C586.1 719.117 586.205 718.266 586.794 717.224C589.155 713.05 592.786 709.048 595.61 705.111Q603.521 694.086 609.702 682.005C627.338 647.165 632.821 598.149 634.984 559.651Z"/>
</svg>
