<?xml version="1.0" encoding="utf-8" ?>
<svg xmlns="http://www.w3.org/2000/svg" xmlns:xlink="http://www.w3.org/1999/xlink" width="1024" height="1024">
	<path fill="#2D2D2D" d="M0 0L1024 0L1024 828.196L1024 995.615L1024 1024L983.556 1024L722.809 1024L608.3 1024L519.612 1024L504.138 1024L447.991 1024L403.543 1024L42.1387 1024L0 1024L0 993.967L0 827.765L0 0Z"/>
	<path fill="#171717" d="M0 993.967C13.7066 1004.42 28.2019 1013.86 42.1387 1024L0 1024L0 993.967Z"/>
	<path fill="#171717" d="M692.274 186.951C699.296 196.18 706.268 205.507 712.285 215.438Q709.934 218.322 707.463 221.103Q704.991 223.884 702.403 226.557Q699.816 229.23 697.117 231.79Q694.417 234.351 691.612 236.794Q688.806 239.238 685.899 241.559Q682.992 243.881 679.988 246.077Q676.985 248.273 673.891 250.339Q670.796 252.405 667.617 254.337C699.079 282.03 719.832 314.075 733.556 353.576C738.663 345.002 744.117 336.459 748.541 327.511C751.421 321.685 755.61 309.638 758.952 304.94C760.788 310.113 762.417 315.289 763.912 320.571C761.39 323.661 759.371 327.316 757.174 330.653C751.003 340.025 741.475 355.321 733.98 363.121C728.41 350.626 722.648 338.217 715.67 326.431C689.889 282.883 651.764 247.715 610.128 219.612C614.612 220.912 619.059 223.87 623.117 226.141C636.43 233.593 649.155 241.44 661.668 250.16C674.934 228.322 685.05 211.806 692.274 186.951Z"/>
	<path fill="#171717" d="M318.615 872.042L318.97 872.481C323.92 878.726 328.005 885.858 332.455 892.479C338.559 901.562 345.064 910.449 351.648 919.192C372.42 946.775 395.207 973.712 419.786 998.006C428.887 1007 438.511 1015.42 447.991 1024L403.543 1024C397.114 1015.74 390.439 1007.57 384.39 999.036C355.543 958.317 336.591 918.444 318.615 872.042Z"/>
	<path fill="#171717" d="M332.684 188.481C335.994 194.135 337.752 201.302 340.143 207.446C345.62 221.515 354.51 236.257 364.505 247.449Q381.223 237.091 398.37 227.458C403.174 224.742 408.045 221.532 413.176 219.503C395.801 231.958 379.684 245.605 363.963 260.079C329.087 292.191 300.662 324.287 290.602 372.002C285.801 358.664 270.264 343.157 261.923 331.103C261.861 338.856 259.75 346.478 258.392 354.081C250.782 396.674 236.701 431.729 213.887 468.574C211.572 472.313 205.95 482.611 203.089 485.299C202.434 485.915 202.34 485.792 201.5 485.89C226.086 447.171 244.519 412.737 254.424 367.555C258.965 346.843 260.717 324.432 269.065 304.853Q280.203 333.073 289.14 362.066C297.227 315.113 320.764 286.454 354.368 254.886C347.353 249.616 313.564 221.148 312.608 215.529C319.42 206.614 325.864 197.405 332.684 188.481Z"/>
	<path fill="#171717" d="M156.756 552.072C157.61 553.924 157.033 563.656 157.442 566.924Q157.856 570.045 158.52 573.123Q159.184 576.2 160.093 579.214Q161.002 582.229 162.15 585.16Q163.299 588.091 164.679 590.921C168.504 598.959 173.675 606.546 178.523 613.989Q188.65 629.578 199.146 644.921L246.301 714.462C258.412 732.315 268.532 752.064 282.355 768.663C296.855 786.074 317.261 802.814 334.535 817.8C378.375 855.834 424.729 892.499 459.278 939.611C461.372 942.466 472.463 957.752 473.198 959.746L472.662 959.962C469.467 956.262 466.809 952.245 463.789 948.42C459.607 943.125 455.033 938.002 450.504 933.002C433.589 914.326 412.066 895.947 392.017 880.776C368.877 863.267 343.995 847.844 319.349 832.556C303.128 822.494 286.882 812.565 270.821 802.239C247.07 786.969 211.83 764.658 198.229 738.937C198.27 736.611 198.221 734.286 198.659 731.994C200.687 728.188 207.056 684.885 208.536 676.346C198.279 661.708 188.555 646.883 179.035 631.757C170.436 618.096 161.101 603.959 155.727 588.653C151.426 576.404 151.109 563.93 156.756 552.072Z"/>
	<path fill="#171717" d="M782.776 779.898C777.518 783.248 772.551 787.355 767.537 791.077C757.01 798.89 746.495 806.761 735.483 813.884C718.575 824.82 700.939 834.573 683.833 845.195C654.064 863.681 624.927 884.233 598.87 907.712Q582.692 922.178 568.007 938.157C563.716 942.879 559.969 948.123 555.584 952.725L555.004 952.488C556.328 948.857 560.501 944.392 562.814 941.175C599.627 889.981 652.694 855.718 696.126 811.028Q720.147 786.542 742.101 760.187C757.639 741.213 771.388 721.024 785.848 701.248Q812.005 665.858 836.714 629.443C847.726 613.114 860.408 595.557 867.251 576.994C870.115 569.224 869.886 561.96 869.77 553.842C874.552 563.569 874.654 574.086 871.216 584.29C865.979 599.832 856.291 614.451 847.634 628.271C837.231 644.879 826.33 661.632 814.418 677.212Q821.35 705.173 826.762 733.468C842.008 743.327 860.879 751.95 877.316 759.734C884.71 763.235 892.546 766.468 899.569 770.647C898.125 770.699 896.88 770.376 895.936 771.712C894.71 773.446 894.553 777.526 894.036 779.626C892.567 785.591 890.644 791.491 888.726 797.324C883.091 814.457 875.299 830.903 866.806 846.785C837.925 900.792 797.051 948.614 754.728 992.477C744.351 1003.23 733.122 1013.23 722.809 1024L608.3 1024C625.42 1008.63 640.382 990.562 654.988 972.839C701.978 915.82 750.032 846.175 782.776 779.898Z"/>
	<path fill="#2D2D2D" d="M899.569 770.647C911.567 775.175 923.271 781.948 934.965 787.346L1024 828.196L1024 995.615L1024 1024L983.556 1024L722.809 1024C733.122 1013.23 744.351 1003.23 754.728 992.477C797.051 948.614 837.925 900.792 866.806 846.785C875.299 830.903 883.091 814.457 888.726 797.324C890.644 791.491 892.567 785.591 894.036 779.626C894.553 777.526 894.71 773.446 895.936 771.712C896.88 770.376 898.125 770.699 899.569 770.647Z"/>
	<path fill="#171717" d="M983.556 1024C996.062 1013.59 1010.55 1004.8 1024 995.615L1024 1024L983.556 1024Z"/>
	<path fill="#000100" d="M653.878 378.643C666.24 389.336 677.927 399.863 688.183 412.67C714.956 446.104 735.967 484.74 756.027 522.453C762.693 534.985 770.305 547.676 775.177 561.002Q776.711 565.164 777.642 569.501Q778.572 573.838 778.879 578.263C784.125 651.264 723.498 743.954 677.891 796.131C641.925 837.278 599.491 873.336 568.636 918.764C555.223 938.512 544.307 960.373 534.983 982.314C530.587 992.657 521.429 1013.72 519.612 1024L504.138 1024C499.127 1012.66 495.662 1000.66 491.017 989.162C479.296 960.14 464.569 931.961 446.164 906.598C425.14 877.624 399.204 851.967 374.693 825.975Q357.598 807.549 341.391 788.338C299.407 739.402 264.482 689.174 250.176 625.231C245.037 602.263 241.438 579.633 250.199 557.064C256.67 540.394 265.757 524.46 274.486 508.884C293.276 475.356 315.361 438.576 340.024 409.078C349.3 397.983 359.735 388.192 370.368 378.419C380.578 384.026 391.066 389.123 401.215 394.838Q427.305 409.697 452.263 426.387Q463.597 433.797 474.419 441.937C480.697 446.681 487.803 453.583 494.991 456.75C502.484 460.051 516.421 460.156 524.204 457.897C532.368 455.527 554.6 437.51 563.211 431.527Q577.453 421.797 592.056 412.618C604.9 404.545 618.48 396.816 631.948 389.832C639.085 386.13 647.165 383.019 653.878 378.643Z"/>
	<path fill="#171717" d="M361.959 540.737C368.729 547.055 374.407 554.356 380.666 561.156C387.659 568.753 403.24 583.285 407.689 591.809C411.646 599.391 413.778 608.341 416.555 616.426C417.993 620.616 420.848 625.626 420.938 630.046C420.955 630.925 420.847 631.715 420.671 632.57C417.611 626.146 415.077 619.418 411.58 613.214C403.768 599.356 392.092 589.058 381.178 577.735C376.725 573.116 372.842 567.626 368.072 563.4L367.235 563.542C365.083 556.062 363.739 548.313 361.959 540.737Z"/>
	<path fill="#171717" d="M663.037 538.563C661.002 548.304 659.197 558.445 656.223 567.933C652.422 569.048 648.577 573.107 645.667 575.698C632.194 587.688 620.542 599.655 611.8 615.661C607.503 623.527 603.98 631.783 600.451 640.012C600.33 632.12 603.718 624.522 606.305 617.194C609.595 607.876 612.457 597.217 617.484 588.69C622.172 580.739 631.737 572.618 638.205 565.777Q650.739 552.278 663.037 538.563Z"/>
	<path fill="#2D2D2D" d="M560.891 483.22C564.559 479.623 569.653 476.901 573.992 474.141C580.261 470.153 586.513 466.005 593.022 462.421C610.355 452.878 628.625 445.605 646.86 438.022C657.287 433.686 667.773 428.846 678.515 425.4C677.992 430.799 677.866 436.252 677.234 441.632C675.946 457.246 675.048 472.906 673.909 488.534C673.041 500.451 671.76 512.538 671.609 524.479C658.709 540.252 643.649 554.639 629.533 569.339C623.961 575.141 617.011 581.202 612.586 587.895C608.745 593.702 589.396 662.602 586.393 674.997C592 663.811 594.658 651.123 600.451 640.012C603.98 631.783 607.503 623.527 611.8 615.661C620.542 599.655 632.194 587.688 645.667 575.698C648.577 573.107 652.422 569.048 656.223 567.933C654.253 575.439 651.851 583.129 650.764 590.811C650.155 595.115 650.322 599.582 650.162 603.924L649.184 625.559C644.891 630.894 639.952 635.853 635.404 640.987C624.884 652.863 614.257 665.039 604.655 677.665C597.593 686.952 590.705 696.591 584.258 706.313C579.829 712.993 575.744 721.371 570.194 727.051C567.749 729.554 564.167 731.652 560.694 732.219C552.195 733.608 534.032 732.253 524.486 732.144C507.253 731.946 490.008 732.507 472.78 732.268C467.814 732.199 464.075 731.658 460.135 728.398C453.46 722.876 448.049 714.514 442.909 707.592Q433.171 694.253 423.115 681.153Q399.876 651.594 373.776 624.528C373.883 614.062 374.243 602.825 373.022 592.43C371.88 582.703 369.398 573.084 367.235 563.542L368.072 563.4C372.842 567.626 376.725 573.116 381.178 577.735C392.092 589.058 403.768 599.356 411.58 613.214C415.077 619.418 417.611 626.146 420.671 632.57Q425.88 645.865 430.855 659.249C432.22 662.935 433.348 667.629 435.229 671.005L435.414 670.386C434.235 666.638 433.457 662.695 432.353 658.901L418.448 610.444C416.507 603.854 414.954 595.399 411.643 589.389C407.642 582.131 398.198 574.387 392.222 568.281C378.906 554.677 365.198 541.192 352.429 527.082C347.866 500.479 347.234 473.355 344.775 446.538C343.875 439.634 344.42 432.608 343.469 425.651C362.513 433.888 382.258 440.369 401.388 448.421Q414.799 454.065 427.625 460.937Q440.45 467.81 452.577 475.851C455.322 477.654 460.973 480.161 462.708 482.713C482.26 494.014 500.722 506.009 506.925 529.083C508.869 536.315 509.524 544.504 510.031 551.98C510.392 557.301 510.206 582.966 511.605 585.771C512.897 578.568 512.398 570.052 512.569 562.689C513.348 529.262 517.313 512.528 545.58 492.793Q553.039 487.692 560.891 483.22Z"/>
	<path fill="#171717" d="M560.891 483.22C564.559 479.623 569.653 476.901 573.992 474.141C580.261 470.153 586.513 466.005 593.022 462.421C610.355 452.878 628.625 445.605 646.86 438.022C657.287 433.686 667.773 428.846 678.515 425.4C677.992 430.799 677.866 436.252 677.234 441.632C677.093 440.621 677.151 439.709 676.514 438.893C668.473 444.505 660.43 450.174 651.684 454.655C641.858 473.532 628.925 492.513 614.496 508.161C598.988 505.979 583.575 502.364 568.485 498.209C563.413 496.813 558.126 495.613 553.227 493.707C555.503 491.256 560.506 486.685 560.891 483.22Z"/>
	<path fill="#591A21" d="M577.41 486.45C586.267 488.105 595.102 489.574 603.995 491.014C605.833 492.134 607.722 493.098 609.647 494.056C603.618 493.956 581.729 489.727 577.41 486.45Z"/>
	<path fill="#000100" d="M611.368 464.38L610.559 464.262L610.098 463.581C611.646 460.635 644.436 448.486 650.207 446.041C646.186 450.659 642.864 454.655 636.873 456.696C634.248 457.422 631.082 457.988 628.647 459.154C622.888 460.876 617.08 462.511 611.368 464.38Z"/>
	<defs>
		<linearGradient id="gradient_0" gradientUnits="userSpaceOnUse" x1="619.05066" y1="473.18698" x2="624.73456" y2="477.97437">
			<stop offset="0" stop-color="#57181B"/>
			<stop offset="1" stop-color="#432329"/>
		</linearGradient>
	</defs>
	<path fill="url(#gradient_0)" d="M636.873 456.696C636.061 460.141 615.98 490.693 612.774 493.862C611.722 493.967 610.706 494.075 609.647 494.056C607.722 493.098 605.833 492.134 603.995 491.014C605.648 491.025 608.547 491.268 609.955 490.223C612.998 487.965 629.049 464.771 629.435 461.509C629.588 460.216 629.445 460.045 628.647 459.154C631.082 457.988 634.248 457.422 636.873 456.696Z"/>
	<path fill="#D11624" d="M628.647 459.154C629.445 460.045 629.588 460.216 629.435 461.509C629.049 464.771 612.998 487.965 609.955 490.223C608.547 491.268 605.648 491.025 603.995 491.014C595.102 489.574 586.267 488.105 577.41 486.45L573.046 485.709C579.509 481.509 585.756 476.355 592.863 473.276C598.551 469.798 604.181 467.123 610.463 464.882L611.368 464.38C617.08 462.511 622.888 460.876 628.647 459.154Z"/>
	<path fill="#DBD137" d="M592.863 473.276C598.551 469.798 604.181 467.123 610.463 464.882C610.49 468.845 610.234 471.852 607.378 474.919C605.772 476.642 603.558 477.863 601.174 477.956C598.957 478.042 596.476 477.186 594.864 475.636C594.126 474.928 593.489 474.082 592.863 473.276Z"/>
	<path fill="#171717" d="M343.469 425.651C362.513 433.888 382.258 440.369 401.388 448.421Q414.799 454.065 427.625 460.937Q440.45 467.81 452.577 475.851C455.322 477.654 460.973 480.161 462.708 482.713C464.667 486.838 468.632 490.746 471.496 494.329C451.959 500.694 428.463 505.202 408.111 508.356Q398.51 497.931 390.246 486.417C385.812 480.22 373.495 459.394 368.856 455.809C365.138 452.938 359.604 451.27 355.316 449.24C351.921 447.633 348.896 445.767 345.67 443.882L345.002 444.415L344.775 446.538C343.875 439.634 344.42 432.608 343.469 425.651Z"/>
	<path fill="#000100" d="M361.462 442.319C374.966 446.127 396.522 453.104 407.503 461.295L407.758 462.294L407.122 462.837C402.636 461.402 398.076 460.294 393.507 459.161C391.569 457.945 388.752 457.741 386.529 457.358C378.413 451.904 369.434 448.123 361.462 442.319Z"/>
	<path fill="#591A21" d="M386.529 457.358C388.752 457.741 391.569 457.945 393.507 459.161C396.352 468.103 408.188 484.835 416.137 490.038C422.096 490.288 446.574 487.88 451.073 485.354C452.05 485.894 452.864 486.21 453.436 487.21C451.341 488.543 417.651 493.532 412.652 494.097C407.938 487.886 388.2 463.314 386.529 457.358Z"/>
	<path fill="#D11624" d="M393.507 459.161C398.076 460.294 402.636 461.402 407.122 462.837C408.91 463.518 410.859 464.102 412.527 465.033C417.509 466.925 422.304 468.943 427.057 471.366C435.416 475.133 443.293 480.534 451.073 485.354C446.574 487.88 422.096 490.288 416.137 490.038C408.188 484.835 396.352 468.103 393.507 459.161Z"/>
	<path fill="#DBD137" d="M412.527 465.033C417.509 466.925 422.304 468.943 427.057 471.366C427.115 472.422 427.237 473.624 427.004 474.662C426.726 475.901 425.784 477.011 424.705 477.649C423.296 478.483 421.629 478.601 420.059 478.256C417.439 477.68 415.184 475.957 413.789 473.689C412.264 471.21 411.931 467.831 412.527 465.033Z"/>
	<path fill="#6F6F6E" d="M0 0L1024 0L1024 828.196L934.965 787.346C923.271 781.948 911.567 775.175 899.569 770.647C892.546 766.468 884.71 763.235 877.316 759.734C860.879 751.95 842.008 743.327 826.762 733.468Q821.35 705.173 814.418 677.212C826.33 661.632 837.231 644.879 847.634 628.271C856.291 614.451 865.979 599.832 871.216 584.29C874.654 574.086 874.552 563.569 869.77 553.842C866.327 545.003 854.706 531.975 848.652 523.931Q838.33 510.269 828.645 496.148C802.38 457.816 780.229 418.405 771.757 372.242C768.591 354.991 767.942 337.743 763.912 320.571C762.417 315.289 760.788 310.113 758.952 304.94C755.61 309.638 751.421 321.685 748.541 327.511C744.117 336.459 738.663 345.002 733.556 353.576C719.832 314.075 699.079 282.03 667.617 254.337Q670.796 252.405 673.891 250.339Q676.985 248.273 679.988 246.077Q682.992 243.881 685.899 241.559Q688.806 239.238 691.612 236.794Q694.417 234.351 697.117 231.79Q699.816 229.23 702.403 226.557Q704.991 223.884 707.463 221.103Q709.934 218.322 712.285 215.438C706.268 205.507 699.296 196.18 692.274 186.951C653.992 137.851 569.679 77.4683 512.297 53.5386C452.995 80.5864 396.911 118.113 352.397 165.97C345.69 173.181 338.331 180.415 332.684 188.481C325.864 197.405 319.42 206.614 312.608 215.529C313.564 221.148 347.353 249.616 354.368 254.886C320.764 286.454 297.227 315.113 289.14 362.066Q280.203 333.073 269.065 304.853C260.717 324.432 258.965 346.843 254.424 367.555C244.519 412.737 226.086 447.171 201.5 485.89C194.518 495.425 188.325 505.663 181.551 515.376L166.399 537.114C163.097 541.868 159.168 546.808 156.756 552.072C151.109 563.93 151.426 576.404 155.727 588.653C161.101 603.959 170.436 618.096 179.035 631.757C188.555 646.883 198.279 661.708 208.536 676.346C207.056 684.885 200.687 728.188 198.659 731.994C189.791 735.958 181.395 741.007 172.739 745.402C154.634 754.596 136.34 763.519 118.102 772.446Q89.1939 786.534 60.1455 800.33C40.1516 809.587 19.9214 818.355 0 827.765L0 0Z"/>
	<path fill="#2D2D2D" d="M269.065 304.853C265.705 295.781 262.146 286.865 259.322 277.597C242.672 222.96 243.774 173.63 256.766 118.38C259.787 105.535 263.844 86.4862 268.674 74.4996C269.396 83.4475 271.057 92.4762 272.43 101.356C276.529 127.87 281.805 160.188 292.935 184.777C297.996 195.958 304.837 206.069 312.608 215.529C313.564 221.148 347.353 249.616 354.368 254.886C320.764 286.454 297.227 315.113 289.14 362.066Q280.203 333.073 269.065 304.853Z"/>
	<path fill="#2D2D2D" d="M754.091 72.5511C761.557 90.8516 766.459 110.941 770.327 130.3C783.04 193.923 780.862 243.911 758.952 304.94C755.61 309.638 751.421 321.685 748.541 327.511C744.117 336.459 738.663 345.002 733.556 353.576C719.832 314.075 699.079 282.03 667.617 254.337Q670.796 252.405 673.891 250.339Q676.985 248.273 679.988 246.077Q682.992 243.881 685.899 241.559Q688.806 239.238 691.612 236.794Q694.417 234.351 697.117 231.79Q699.816 229.23 702.403 226.557Q704.991 223.884 707.463 221.103Q709.934 218.322 712.285 215.438C735.865 182.767 747.9 144.131 752.091 104.302C753.206 93.699 753.391 83.1634 754.091 72.5511Z"/>
</svg>
