<?xml version="1.0" encoding="utf-8" ?>
<svg xmlns="http://www.w3.org/2000/svg" xmlns:xlink="http://www.w3.org/1999/xlink" width="1024" height="1024">
	<path fill="#484848" d="M0 0L1024 0L1024 869.037L1024 1024L625.738 1024L594.954 1024L0 1024L0 868.972L0 0Z"/>
	<path fill="#070706" d="M733.306 744.053C743.03 751.947 753.83 759.643 762.402 768.759C767.085 773.738 770.597 779.821 775.322 784.705C822.249 800.299 870.07 813.288 917.236 828.141C929.783 832.092 942.468 835.829 954.872 840.202C978.412 848.501 1000.95 859.515 1024 869.037L1024 1024L625.738 1024C631.282 1017.43 637.052 1011.14 642.253 1004.28C666.7 972.024 688.682 932.163 704.869 895.01C720.129 859.986 741.062 805.335 738.465 766.478C737.942 758.662 736.165 751.329 733.306 744.053Z"/>
	<path fill="#070706" d="M281.034 385.886C278.075 365.959 273.385 346.276 270.408 326.31C267.348 305.791 265.247 285.186 263.028 264.566C260.243 238.691 252.219 178.925 259.958 155.808C264.459 142.362 281.818 120.684 290.954 109.483C298.068 100.761 311.706 84.1231 321.281 78.8317C326.873 75.7419 333.197 73.7482 339.009 71.0574C363.849 59.5577 383.028 46.9033 399.61 24.4879C396.387 34.6871 395.86 45.4232 394.233 55.956C402.998 47.0917 413.2 41.3745 424.854 37.088C479.544 16.9717 565.859 35.6323 619.131 53.9833C651.918 65.2774 683.894 79.8205 715.324 94.437C710.525 100.593 705.365 106.534 700.419 112.578C703.704 112.498 707.008 112.356 710.262 112.908C722.181 114.932 729.31 125.498 735.868 134.647C746.595 149.613 755.264 165.162 761.644 182.451C763.088 186.365 764.799 190.498 765.439 194.63C766.662 202.525 754.626 239.386 753.122 251.361C751.886 261.208 752.053 271.459 751.746 281.378Q751.042 305.934 750.073 330.482C749.501 344.294 748.996 358.263 746.748 371.923C752.08 366.703 763.432 351.773 770.809 351.869C772.376 351.889 773.618 352.471 774.649 353.633C782.073 362 776.895 406.789 775.724 418.126C773.39 440.722 770.958 463.282 759.452 483.334C754.877 491.307 748.624 498.639 744.533 506.787C739.681 516.452 737.932 527.609 729.16 534.904C726.212 537.355 722.544 538.901 718.658 538.568C716.606 538.392 714.461 537.554 712.596 536.711C708.392 559.914 703.054 583.016 697.862 606.014C696.15 613.598 691.541 629.95 691.211 636.949C692.146 643.869 690.391 660.872 690.283 668.968C694.748 672.365 699.05 675.771 702.629 680.126C711.549 690.984 721.167 714.951 726.632 728.369C728.506 732.972 730.405 740.102 733.306 744.053C736.165 751.329 737.942 758.662 738.465 766.478C741.062 805.335 720.129 859.986 704.869 895.01C688.682 932.163 666.7 972.024 642.253 1004.28C637.052 1011.14 631.282 1017.43 625.738 1024L594.954 1024L0 1024L0 868.972C7.78829 864.833 16.4288 861.628 24.5437 858.117C36.8745 852.781 49.1652 847.126 61.8441 842.664C85.0873 834.484 109.263 828.484 132.862 821.372Q183.793 805.732 233.775 787.281C238.563 785.48 243.671 783.569 247.881 780.607C264.034 769.243 282.888 742.201 291.569 724.412C298.004 711.227 302.842 697.417 308.983 684.138C313.513 674.344 320.256 674.545 329.468 671.179C328.284 656.439 327.778 641.595 325.757 626.931C324.993 621.391 323.126 616.117 321.832 610.696C320.203 603.871 318.997 596.904 317.627 590.02Q314.723 575.879 312.224 561.66C310.964 554.066 310.111 546.35 308.493 538.828C300.067 537.208 291.332 536.951 282.781 536.472C275.538 513.744 265.506 494.573 251.265 475.44C247.357 470.188 243.081 465.234 239.135 460.013C240.029 445.298 240.04 429.892 239.28 415.149C238.835 406.508 237.197 397.148 237.867 388.561C238.514 380.282 244.354 359.464 247.284 351.314C260.429 356.459 273.485 374.441 281.034 385.886Z"/>
	<path fill="#484848" d="M385.324 440.738C385.52 443.556 386.003 446.104 386.68 448.842C381.988 449.367 375.369 449.571 371.075 451.521C370.485 448.431 370.294 445.23 369.989 442.098C375.065 441.269 380.197 441.044 385.324 440.738Z"/>
	<path fill="#303030" d="M423.428 450.527C422.106 448.421 419.252 447.578 417.005 446.569C416.319 446.261 416.537 446.349 415.788 445.781L416.192 445.416L415.818 446.068L415.974 445.519C421.521 444.457 441.07 452.184 446.497 455.191C443.998 454.964 442.362 456.665 440.287 457.995C440.045 461.294 439.966 464.603 437.155 466.865C435.332 468.331 431.182 469.362 428.88 469.169C431.857 467.91 437.354 466.232 438.955 463.15C439.581 461.947 439.548 461.204 439.025 459.962C437.663 456.725 427.302 451.633 423.994 450.05L423.428 450.527Z"/>
	<path fill="#F51111" d="M388.473 441.636L395.523 442.057C395.563 445.366 396.059 447.915 398.394 450.407C399.793 451.899 401.504 452.991 403.6 453.028C406.403 453.076 408.61 451.947 410.616 450.084C411.651 448.624 411.896 447.62 413.785 447.326C415.129 447.117 416.918 447.287 418.006 448.147C419.09 449.005 419.196 449.438 419.379 450.705L418.568 452.742C417.73 453.907 416.838 455.15 415.831 456.181C413.04 459.04 409.005 460.832 404.997 460.85Q404.123 460.848 403.254 460.758Q402.385 460.668 401.529 460.491Q400.674 460.314 399.841 460.051Q399.007 459.788 398.205 459.442Q397.402 459.096 396.639 458.67Q395.876 458.245 395.16 457.745Q394.443 457.245 393.781 456.674Q393.119 456.104 392.518 455.47C388.583 451.249 388.403 447.045 388.473 441.636Z"/>
	<path fill="#9F9F9E" d="M371.075 451.521C375.369 449.571 381.988 449.367 386.68 448.842C388.962 454.602 391.428 458.944 397.366 461.653Q397.816 461.857 398.277 462.039Q398.737 462.22 399.206 462.379Q399.674 462.537 400.15 462.672Q400.626 462.806 401.108 462.917Q401.591 463.028 402.078 463.114Q402.565 463.201 403.055 463.263Q403.546 463.325 404.04 463.362Q404.533 463.399 405.027 463.412Q405.522 463.425 406.016 463.413Q406.511 463.401 407.004 463.364Q407.498 463.327 407.988 463.266Q408.479 463.205 408.967 463.119Q409.454 463.033 409.936 462.923Q410.418 462.813 410.895 462.679Q411.371 462.545 411.84 462.387Q412.309 462.23 412.769 462.049C418.08 459.912 421.316 455.692 423.428 450.527L423.994 450.05C427.302 451.633 437.663 456.725 439.025 459.962C439.548 461.204 439.581 461.947 438.955 463.15C437.354 466.232 431.857 467.91 428.88 469.169C415.425 471.804 403.399 476.452 389.552 470.733C380.734 467.092 374.679 460.22 371.075 451.521Z"/>
	<path fill="#656565" d="M456.642 772.779C461.581 761.104 469.811 749.47 479.746 741.521C494.736 729.525 513.977 730.773 532.052 732.845C537.349 735.113 543.668 735.973 549.243 737.555C555.918 739.448 562.432 742.005 568.948 744.38C560.267 744.236 546.944 742.751 538.82 744.311C536.31 744.793 534.02 745.852 532.142 747.599C527.359 752.049 520.838 764.5 520.927 771.082C520.976 774.703 522.887 777.146 525.465 779.484C535.064 788.192 548.406 792.63 558.732 800.52C548.949 802.068 496.636 805.348 488.368 803.05C476.808 799.837 462.414 782.97 456.642 772.779Z"/>
	<path fill="#484848" d="M331.41 464.684C333.744 466.871 335.808 469.757 337.94 472.182C350.6 486.574 373.207 508.574 393.296 509.717C411.67 510.762 442.236 493.82 455.619 481.868C455.93 482.987 456.241 484.117 456.444 485.262C458.689 497.947 443.945 515.766 436.966 525.938C445.098 522.45 453.595 520.068 461.939 517.156C458.205 521.768 454.689 526.506 451.194 531.3C444.678 540.899 415.834 589.841 409.178 592.732C408.074 593.212 406.597 593.36 405.469 592.847C400.787 590.72 391.141 571.069 387.326 565.833Q383.2 560.105 378.432 554.898Q373.665 549.691 368.321 545.078C355.778 534.059 341.773 525.411 333.646 510.229C325.466 494.949 326.509 480.777 331.41 464.684Z"/>
	<path fill="#BDBCBC" d="M608.519 272.587L662.343 250.315Q672.241 258.017 682.311 265.495C687.395 269.247 692.952 272.864 697.476 277.291L693.828 280.88C689.268 299.564 687.444 319.082 684.078 338.025C688.501 342.453 701.079 353.663 703.434 358.217C706.562 364.268 707.744 374.899 709.292 381.82C713.221 399.387 720.44 422.51 720.356 440.289C720.326 446.493 719.724 452.824 718.269 458.861C716.462 462.298 715.193 476.407 713.972 481.372C708.375 504.141 698.314 525.173 685.141 544.485C682.003 549.087 678.94 553.737 675.14 557.829C667.339 541.643 653.708 528.723 637.977 520.278Q637.92 513.15 638.21 506.028C641.81 502.451 646.33 499.417 650.235 496.136C656.91 490.53 668.494 481.172 673.541 474.413C678.265 468.088 681.706 459.684 685.144 452.591C687.9 446.905 692.118 439.787 693.253 433.545C696.47 427.79 703.419 418.734 704.844 412.688L704.103 411.872C700.431 409.936 697.549 406.578 694.034 404.324C684.111 396.833 673.293 387.812 661.895 382.681C657.252 384.343 652.583 385.826 647.865 387.257C643.799 386.687 638.976 387.282 634.84 387.361Q624.302 387.61 613.765 387.324C605.545 381.099 597.707 374.128 589.858 367.439C594.691 354.324 602.315 341.685 606.031 328.194C608.058 320.832 607.276 311.301 607.501 303.627C607.803 293.278 608.299 282.938 608.519 272.587Z"/>
	<path fill="#303030" d="M690.283 668.968C694.748 672.365 699.05 675.771 702.629 680.126C711.549 690.984 721.167 714.951 726.632 728.369C728.506 732.972 730.405 740.102 733.306 744.053C736.165 751.329 737.942 758.662 738.465 766.478C741.062 805.335 720.129 859.986 704.869 895.01C688.682 932.163 666.7 972.024 642.253 1004.28C637.052 1011.14 631.282 1017.43 625.738 1024L594.954 1024C593.687 1020.68 591.651 1017.36 590.049 1014.18L579.573 993.268L538.993 913.261C530.397 913.831 521.637 913.568 513.018 913.624C539.149 891.712 563.101 867.505 587.34 843.566C615.828 815.431 644.442 787.404 669.64 756.21C677.961 745.909 686.81 735 692.727 723.095C692.383 715.387 691.482 707.677 691.03 699.967Q690.241 684.477 690.283 668.968Z"/>
	<path fill="#656565" d="M369.586 254.405C380.321 258.676 390.746 263.689 401.292 268.397L450.549 290.054L485.631 305.211C492.705 308.256 500.007 311.1 506.793 314.742Q557.447 293.16 608.519 272.587C608.299 282.938 607.803 293.278 607.501 303.627C607.276 311.301 608.058 320.832 606.031 328.194C602.315 341.685 594.691 354.324 589.858 367.439C597.707 374.128 605.545 381.099 613.765 387.324Q624.302 387.61 634.84 387.361C638.976 387.282 643.799 386.687 647.865 387.257C652.583 385.826 657.252 384.343 661.895 382.681C673.293 387.812 684.111 396.833 694.034 404.324C697.549 406.578 700.431 409.936 704.103 411.872C697.519 418.03 675.504 443.074 667.365 443.409C659.594 461.359 651.298 468.474 636.073 480.284C623.922 485.72 612.592 490.465 599.159 491.671C600.848 493.588 602.924 495.21 604.849 496.887C580.062 492.397 566.182 482.727 548.805 464.877C545.852 465.742 539.127 469.115 536.722 469.122C533.526 469.13 530.934 465.472 528.928 463.354C517.779 460.509 503.909 461.658 493.213 465.856C499.484 448.735 494.989 419.48 488.375 402.589C489.252 410.065 492.073 429.875 488.321 436.306C487.574 437.587 486.831 438.202 485.426 438.627C480.891 440 474.999 438.623 470.536 437.381C458.585 434.058 446.996 428.5 435.676 423.491Q401.962 408.588 369.238 391.62Q366.892 380.828 365.557 369.865Q364.222 358.902 363.91 347.863C373.331 352.724 383.179 357.113 392.941 361.255C399.429 364.009 406.828 366.403 412.783 370.194C419.205 374.284 423.9 380.387 429.918 384.807C429.816 383.762 415.409 367.038 413.658 364.788Q388.707 332.602 365.218 299.334C366.391 284.337 368.312 269.395 369.586 254.405Z"/>
	<path fill="#070706" d="M647.865 387.257C652.583 385.826 657.252 384.343 661.895 382.681C673.293 387.812 684.111 396.833 694.034 404.324C697.549 406.578 700.431 409.936 704.103 411.872C697.519 418.03 675.504 443.074 667.365 443.409C659.594 461.359 651.298 468.474 636.073 480.284C623.922 485.72 612.592 490.465 599.159 491.671C600.848 493.588 602.924 495.21 604.849 496.887C580.062 492.397 566.182 482.727 548.805 464.877C545.852 465.742 539.127 469.115 536.722 469.122C533.526 469.13 530.934 465.472 528.928 463.354C527.079 460.773 525.149 458.181 523.577 455.419C514.146 438.85 518.612 415.984 523.504 398.547C522.566 413.076 519.856 424.688 523.108 439.45C530.57 440.357 538.509 440.445 545.817 438.474C557.386 435.353 568.643 428.691 579.311 423.332Q613.84 405.773 647.865 387.257Z"/>
	<defs>
		<linearGradient id="gradient_0" gradientUnits="userSpaceOnUse" x1="596.69312" y1="450.3338" x2="581.46771" y2="453.8606">
			<stop offset="0" stop-color="#5F5E5E"/>
			<stop offset="1" stop-color="#7F7F7F"/>
		</linearGradient>
	</defs>
	<path fill="url(#gradient_0)" d="M580.112 453.343C584.83 450.882 590.429 447.27 595.869 447.342C597.252 448.186 597.241 448.836 597.806 450.319C592.998 453.158 587.878 455.356 583.083 458.133C581.852 456.716 581.015 454.982 580.112 453.343Z"/>
	<path fill="#F51111" d="M621.701 439.638C625.412 439.391 629.149 439.514 632.865 439.557C633.092 443.834 633.333 447.449 631.291 451.401Q631.108 451.759 630.906 452.108Q630.704 452.456 630.484 452.793Q630.264 453.131 630.027 453.456Q629.79 453.781 629.536 454.094Q629.282 454.406 629.012 454.705Q628.743 455.004 628.458 455.288Q628.172 455.572 627.873 455.841Q627.573 456.11 627.26 456.363Q626.947 456.616 626.621 456.853Q626.295 457.089 625.957 457.308Q625.619 457.527 625.27 457.727Q624.922 457.928 624.563 458.111Q624.204 458.293 623.836 458.457Q623.468 458.62 623.092 458.764Q622.716 458.908 622.333 459.032Q621.95 459.156 621.561 459.26C615.954 460.786 610.763 459.383 605.915 456.451C604.144 454.868 601.623 452.564 600.755 450.325C600.326 449.216 600.207 448.095 600.823 447.038C602.26 444.571 605.835 444.219 608.396 443.576C609.328 445.69 610.207 448.072 612.052 449.568C613.731 450.93 615.793 450.615 617.778 450.306C619.299 450.07 621.041 449.551 621.85 448.115C623.074 445.944 622.27 443.187 621.399 441.079C621.318 440.885 621.233 440.692 621.15 440.499L621.701 439.638Z"/>
	<path fill="#BDBCBC" d="M634.551 439.846C642.615 441.531 647.515 443.722 653.053 450.021C648.289 459.676 640.382 466.661 630.164 470.169C619.045 473.987 606.055 473.103 595.516 467.879Q593.735 466.991 592.053 465.927Q590.371 464.864 588.805 463.636Q587.239 462.409 585.805 461.029Q584.371 459.65 583.083 458.133C587.878 455.356 592.998 453.158 597.806 450.319C601.504 455.629 605.208 459.905 611.907 461.244C617.05 462.273 622.74 461.256 627.083 458.278Q627.786 457.805 628.44 457.266Q629.094 456.726 629.693 456.126Q630.291 455.526 630.829 454.87Q631.366 454.215 631.837 453.51Q632.308 452.805 632.708 452.058Q633.109 451.311 633.434 450.528Q633.76 449.746 634.009 448.935Q634.257 448.125 634.425 447.294C634.892 444.932 634.632 442.249 634.551 439.846Z"/>
	<path fill="#484848" d="M694.034 404.324C697.549 406.578 700.431 409.936 704.103 411.872C697.519 418.03 675.504 443.074 667.365 443.409C667.004 442.726 666.684 442.288 666.095 441.755C657.026 433.557 641.228 428.825 629.209 428.943C649.672 416.742 669.798 406.451 694.034 404.324Z"/>
	<path fill="#9F9F9E" d="M746.748 371.923C752.08 366.703 763.432 351.773 770.809 351.869C772.376 351.889 773.618 352.471 774.649 353.633C782.073 362 776.895 406.789 775.724 418.126C773.39 440.722 770.958 463.282 759.452 483.334C754.877 491.307 748.624 498.639 744.533 506.787C739.681 516.452 737.932 527.609 729.16 534.904C726.212 537.355 722.544 538.901 718.658 538.568C716.606 538.392 714.461 537.554 712.596 536.711C708.392 559.914 703.054 583.016 697.862 606.014C696.15 613.598 691.541 629.95 691.211 636.949Q655.803 696.053 615.882 752.209C606.178 765.667 596.405 780.632 584.043 791.829C580.301 795.218 576.362 797.394 571.493 798.678C567.374 799.765 562.96 800.061 558.732 800.52C548.406 792.63 535.064 788.192 525.465 779.484C522.887 777.146 520.976 774.703 520.927 771.082C520.838 764.5 527.359 752.049 532.142 747.599C534.02 745.852 536.31 744.793 538.82 744.311C546.944 742.751 560.267 744.236 568.948 744.38C562.432 742.005 555.918 739.448 549.243 737.555C543.668 735.973 537.349 735.113 532.052 732.845C546.671 720.196 563.212 709.265 578.953 698.036C568.435 702.428 547.818 710.804 537.102 711.58C530.598 712.052 523.438 710.963 516.903 710.658C487.182 709.268 478.241 705.519 455.979 685.632C466.489 685.221 477.019 684.415 487.543 684.691C495.157 684.891 502.947 686.28 510.542 685.891C517.845 685.517 524.997 682.898 532.309 682.186C559.186 679.567 584.826 682.457 611.017 688.592C601 683.683 590.341 679.839 579.618 676.798C566.165 672.984 543.899 668.462 530.159 670.201C523.865 670.997 517.554 673.403 512.038 676.474C502.01 670.465 497.559 667.351 485.431 666.99C490.404 654.902 495.095 642.592 500.564 630.725C504.294 639.578 507.91 649.695 510.087 659.075C514.81 649.381 518.121 637.488 521.617 627.19C523.01 623.087 524.217 618.659 526.189 614.791C527.278 612.655 528.751 610.326 530.856 609.055C537.989 604.748 548.324 604.745 554.118 600.802C555.409 599.923 556.258 598.997 556.547 597.416C556.272 596.259 555.641 595.553 554.672 594.897C541.257 585.801 525.267 608.243 511.776 610.492C505.916 611.468 500.597 609.637 495.935 606.091C491.492 602.712 485.664 597.392 484.562 591.706C482.561 581.379 491.944 545.099 493.38 531.495C495.423 512.135 494.294 489.253 491.631 469.957L493.213 465.856C503.909 461.658 517.779 460.509 528.928 463.354C530.934 465.472 533.526 469.13 536.722 469.122C539.127 469.115 545.852 465.742 548.805 464.877C566.182 482.727 580.062 492.397 604.849 496.887C602.924 495.21 600.848 493.588 599.159 491.671C612.592 490.465 623.922 485.72 636.073 480.284C651.298 468.474 659.594 461.359 667.365 443.409C675.504 443.074 697.519 418.03 704.103 411.872L704.844 412.688C703.419 418.734 696.47 427.79 693.253 433.545C692.118 439.787 687.9 446.905 685.144 452.591C681.706 459.684 678.265 468.088 673.541 474.413C668.494 481.172 656.91 490.53 650.235 496.136C646.33 499.417 641.81 502.451 638.21 506.028Q637.92 513.15 637.977 520.278C653.708 528.723 667.339 541.643 675.14 557.829C678.94 553.737 682.003 549.087 685.141 544.485C698.314 525.173 708.375 504.141 713.972 481.372C715.193 476.407 716.462 462.298 718.269 458.861C724.278 449.571 733.914 414.794 736.644 402.498C738.472 394.262 739.634 384.814 742.872 377.026C743.681 375.082 745.343 373.46 746.748 371.923Z"/>
	<path fill="#070706" d="M555.924 558.859C558.518 562.985 560.312 567.725 562.817 571.957C569.427 583.127 577.435 593.044 586.183 602.59C585.644 602.385 585.53 602.364 584.966 602.017C581.52 599.899 577.98 596.441 575.026 593.67C563.889 583.226 558.872 573.789 555.924 558.859Z"/>
	<path fill="#F2F2F2" d="M514.179 515.362C515.357 522.021 515.447 529.019 516.384 535.756C518.702 552.409 523.26 569.337 529.949 584.767C527.651 586.936 525.129 588.853 522.658 590.817C519.594 592.783 516.302 594.384 513.069 596.051C510.037 575.594 510.819 553.759 512.296 533.195C512.716 527.353 512.895 521.086 514.179 515.362Z"/>
	<path fill="#656565" d="M704.103 411.872L704.844 412.688C703.419 418.734 696.47 427.79 693.253 433.545C680.005 450.696 670.222 467.965 649.048 476.521C645.367 478.008 640.829 479.78 636.888 480.209C636.617 480.238 636.345 480.259 636.073 480.284C651.298 468.474 659.594 461.359 667.365 443.409C675.504 443.074 697.519 418.03 704.103 411.872Z"/>
	<path fill="#070706" d="M715.881 493.829C716.375 500.55 713.741 509.343 712.247 515.944C705.799 544.421 692.647 561.925 674.568 583.942C670.13 589.345 663.603 595.535 660.796 601.841C658.72 606.506 657.913 612.011 656.735 616.966Q654.512 626.355 651.789 635.611C646.299 654.081 639.317 672.043 632.662 690.113C632.36 685.59 639.11 658.399 640.391 652.222Q644.071 634.833 647.383 617.37C648.717 610.073 649.327 601.032 651.932 594.176C653.826 589.191 675.922 564.134 680.893 557.718C686.517 550.459 691.735 542.717 696.787 535.048Q700.625 529.206 703.864 523.012Q707.103 516.818 709.712 510.333C711.859 504.869 713.573 499.226 715.881 493.829Z"/>
	<path fill="#070706" d="M771.666 366.362L772.423 366.942C776.411 378.038 770.943 422.502 768.448 435.279Q768.223 417.238 766.926 399.243C766.527 393.538 766.381 387.677 765.256 382.063C752.032 394.805 741.008 416.556 732.563 432.853C736.369 432.792 740.26 432.894 744.024 433.486C748.809 434.239 753.929 435.823 756.813 440C759.914 444.49 759.009 449.8 758.238 454.828C754.245 466.684 742.258 483.633 732.844 492.086C731.397 493.386 730.006 494.637 727.959 494.52C726.379 493.247 726.018 491.722 726.048 489.727C726.212 478.71 739.198 462.12 737.912 454.737C736.79 448.289 732.078 442.215 730.216 435.709C736.993 415.118 755.477 380.493 771.666 366.362Z"/>
</svg>
