<?xml version="1.0" encoding="utf-8" ?>
<svg xmlns="http://www.w3.org/2000/svg" xmlns:xlink="http://www.w3.org/1999/xlink" width="1024" height="1024">
	<path fill="#858484" d="M0 0L1024 0L1024 865.876L1024 1024L595.91 1024L427.75 1024L0 1024L0 865.491L0 0Z"/>
	<path d="M776.439 17.0301C824.034 68.0193 855.343 142.445 852.94 212.754C851.185 264.114 829.921 305.676 792.733 340.383C779.53 352.706 764.42 363.196 752.257 376.577C741.815 388.065 733.779 402.537 725.803 415.803C721.621 422.76 715.556 431.232 713.951 439.184C711.146 435.68 710.335 429.263 708.255 425.053C704.204 416.856 699.377 409.046 695.445 400.777C685.226 379.283 679.471 356.249 675.612 332.879C674.237 320.466 674.094 309.163 675.056 296.706C677.137 292.037 678.185 285.751 680.418 280.543C683.535 273.276 687.893 266.155 693.296 260.355C696.36 257.066 699.777 253.963 702.548 250.426C702.641 250.308 702.73 250.188 702.821 250.07C705.377 254.334 707.462 258.754 709.537 263.264C748.844 245.118 781.417 215.92 796.772 174.6C813.092 130.685 802.003 71.9552 782.771 30.3394Q779.664 23.6566 776.439 17.0301Z"/>
	<path fill="#252525" d="M703.321 721.177C698.973 709.593 680.763 664.086 680.847 654.288C680.892 648.931 682.889 642.982 684.064 637.764Q686.948 624.947 689.609 612.081C691.746 615.032 700.717 617.741 704.497 619.396Q725.433 628.541 745.409 639.627Q779.291 658.472 811.432 680.151C830.65 693.089 849.43 706.71 868.952 719.188Q863.775 721.195 858.682 723.41Q853.59 725.625 848.592 728.044Q843.594 730.462 838.697 733.081Q833.8 735.699 829.013 738.514Q824.226 741.328 819.557 744.333Q814.887 747.338 810.343 750.529Q805.799 753.721 801.387 757.093Q796.976 760.465 792.704 764.013C811.213 775.568 830.14 786.332 848.421 798.3C856.573 803.637 866.04 812.287 874.145 816.362C883.805 821.218 897.885 825.13 908.356 828.863Q965.7 848.864 1024 865.876L1024 1024L595.91 1024L427.75 1024L0 1024L0 865.491Q43.0995 853.114 85.8253 839.502C105.32 833.466 127.065 828.516 144.799 818.288C160.65 809.146 174.995 796.783 189.471 785.652Q208.239 771.381 228.051 758.6C209.027 743.06 181.003 728.243 158.1 719.065C207.431 679.617 275.234 638.04 333.653 614.636C335.146 624.975 336.583 635.568 338.902 645.753C340.379 652.241 342.611 658.552 343.91 665.081C340.047 672.407 335.269 679.361 331.129 686.555C325.838 695.748 321.517 705.169 317.445 714.955C320.788 723.276 323.16 732.028 326.512 740.395Q329.878 748.782 333.787 756.931Q337.695 765.08 342.13 772.954Q346.565 780.829 351.506 788.396Q356.447 795.963 361.874 803.19C395.858 849.201 431.243 873.527 483.538 895.888C486.541 906.23 490.601 916.379 494.328 926.485L512.647 976.404C519.069 958.68 526.237 941.198 533.196 923.679C537.095 913.863 540.536 903.199 545.348 893.82Q559.753 887.938 573.426 880.512C593.265 869.833 612.153 857.557 628.78 842.274C660.385 813.222 691.006 762.199 703.321 721.177Z"/>
	<path d="M595.91 1024L596.761 1022.13Q600.532 1014.04 604.486 1006.05Q608.441 998.05 612.576 990.145Q616.711 982.239 621.024 974.43Q625.338 966.621 629.828 958.912Q634.318 951.203 638.983 943.597Q643.647 935.992 648.483 928.495Q653.319 920.998 658.324 913.613Q663.329 906.228 668.501 898.959Q673.673 891.689 679.009 884.539Q684.345 877.389 689.842 870.363Q695.339 863.336 700.995 856.436Q706.65 849.536 712.461 842.766Q718.272 835.997 724.235 829.361Q730.198 822.726 736.311 816.227Q742.424 809.729 748.682 803.371Q754.941 797.014 761.343 790.8C766.888 785.42 786.833 766.19 792.704 764.013C811.213 775.568 830.14 786.332 848.421 798.3C856.573 803.637 866.04 812.287 874.145 816.362C883.805 821.218 897.885 825.13 908.356 828.863Q965.7 848.864 1024 865.876L1024 1024L595.91 1024Z"/>
	<path d="M228.051 758.6C265.387 788.216 297.061 824.097 326.408 861.462C352.179 894.273 375.792 928.008 396.704 964.13Q408.416 984.089 418.56 1004.89C421.691 1011.16 424.379 1017.87 427.75 1024L0 1024L0 865.491Q43.0995 853.114 85.8253 839.502C105.32 833.466 127.065 828.516 144.799 818.288C160.65 809.146 174.995 796.783 189.471 785.652Q208.239 771.381 228.051 758.6Z"/>
	<defs>
		<linearGradient id="gradient_0" gradientUnits="userSpaceOnUse" x1="555.01672" y1="145.34993" x2="376.96704" y2="801.64386">
			<stop offset="0" stop-color="#333"/>
			<stop offset="1" stop-color="#616060"/>
		</linearGradient>
	</defs>
	<path fill="url(#gradient_0)" d="M306.66 451.61C305.755 445.925 305.602 440.263 304.066 434.664C298.575 414.645 280.062 379.342 264.319 365.852C259.402 361.639 253.558 358.21 248.247 354.482Q235.889 345.847 224.915 335.51C189.271 301.572 170.785 257.169 169.629 208.181C168.421 156.968 185.902 107.247 211.908 63.779C221.644 47.5053 232.896 31.3938 245.992 17.6328C223.618 63.7477 212.721 130.404 229.121 179.92C241.212 216.425 270.232 242.403 303.795 259.26C307.644 261.193 314.259 264.853 318.591 263.417C319.817 261.601 320.112 259.059 320.591 256.938C326.305 237.489 339.041 218.951 352.768 204.257C391.038 163.29 447.817 143.323 503.002 141.577C544.922 140.25 587.755 149.821 624.204 170.801C632.492 175.572 641.094 180.996 648.084 187.544C665.497 201.253 680.255 218.143 693.413 235.889C696.623 240.218 700.551 245.185 702.821 250.07C702.73 250.188 702.641 250.308 702.548 250.426C699.777 253.963 696.36 257.066 693.296 260.355C687.893 266.155 683.535 273.276 680.418 280.543C678.185 285.751 677.137 292.037 675.056 296.706C674.094 309.163 674.237 320.466 675.612 332.879C679.471 356.249 685.226 379.283 695.445 400.777C699.377 409.046 704.204 416.856 708.255 425.053C710.335 429.263 711.146 435.68 713.951 439.184C714.143 441.831 714.228 444.475 714.31 447.127C724.899 439.461 735.11 431.212 745.3 423.029C757.373 413.333 769.538 403.708 779.925 392.148C770.203 414.994 763.431 439.15 755.213 462.577Q752.372 470.758 749.133 478.79C747.029 483.956 744.49 489.085 743.249 494.544C740.415 507.011 742.055 534.175 738.296 543.791C736.742 547.766 729.477 557.012 726.815 561.124C721.761 568.935 717.461 577.465 711.834 584.859C711.701 585.034 711.575 585.215 711.439 585.389C709.819 587.472 706.47 588.078 703.999 588.299C700.949 588.572 697.923 588.444 694.874 588.259C693.253 596.19 691.778 604.28 689.609 612.081Q686.948 624.947 684.064 637.764C682.889 642.982 680.892 648.931 680.847 654.288C680.763 664.086 698.973 709.593 703.321 721.177C691.006 762.199 660.385 813.222 628.78 842.274C612.153 857.557 593.265 869.833 573.426 880.512Q559.753 887.938 545.348 893.82C540.536 903.199 537.095 913.863 533.196 923.679C526.237 941.198 519.069 958.68 512.647 976.404L494.328 926.485C490.601 916.379 486.541 906.23 483.538 895.888C431.243 873.527 395.858 849.201 361.874 803.19Q356.447 795.963 351.506 788.396Q346.565 780.829 342.13 772.954Q337.695 765.08 333.787 756.931Q329.878 748.782 326.512 740.395C323.16 732.028 320.788 723.276 317.445 714.955C321.517 705.169 325.838 695.748 331.129 686.555C335.269 679.361 340.047 672.407 343.91 665.081C342.611 658.552 340.379 652.241 338.902 645.753C336.583 635.568 335.146 624.975 333.653 614.636C331.696 605.807 330.941 596.436 329.791 587.456C323.47 585.73 316.074 582.789 310.817 578.815C303.163 573.027 292.738 556.505 286.729 548.223C284.896 547.05 283.23 543.818 282.01 541.997C281.974 526.835 281.779 510.498 277.926 495.744C276.319 489.593 273.619 483.593 271.5 477.594C268.366 468.723 265.687 459.615 263.195 450.547C257.809 430.95 253.972 411.03 248.881 391.371C258.585 403.036 271.965 415.657 282.703 426.853C290.513 434.997 297.941 444.494 306.66 451.61Z"/>
	<path d="M477.816 609.87C479.873 612.772 481.231 619.204 482.769 622.844C480.657 620.041 478.714 617.112 476.737 614.214L473.869 618.257C471.839 621.05 469.289 623.496 466.901 625.985C466.977 625.844 467.05 625.702 467.127 625.563L467.517 624.867C470.455 619.561 474.475 614.929 477.816 609.87Z"/>
	<path fill="#252525" d="M502.486 476.088C502.176 472.161 502.165 468.497 502.82 464.597C506.972 476.243 507.857 482.724 504.684 494.663C504.226 496.385 504.447 497.337 506.27 498.057C506.85 498.286 507.605 498.34 508.208 498.423C509.058 497.867 509.421 497.478 509.774 496.495C509.846 496.294 509.848 496.075 509.898 495.868C510.214 494.56 511.144 493.309 511.955 492.245L512.162 492.715C512.839 494.218 513.522 495.275 514.591 496.525L515.281 496.699C517.562 492.64 511.693 475.327 516.412 467.607C517.357 468.145 517.352 468.602 517.643 469.608C518.522 472.645 520.035 480.599 519.617 483.48C517.637 478.804 517.207 473.387 516.482 468.4C513.747 492.698 518.797 499.69 530.883 520.362C525.202 518.118 517.959 516.314 515.491 510.052C514.034 506.356 514.171 495.207 511.688 493.063C510.362 495.013 509.698 497.64 508.856 499.857C504.823 510.484 501.983 516.713 490.966 521.608C500.167 500.511 509.935 492.562 503.24 468.228C503.133 470.887 503.062 473.477 502.486 476.088Z"/>
	<path fill="#252525" d="M648.084 187.544C665.497 201.253 680.255 218.143 693.413 235.889C696.623 240.218 700.551 245.185 702.821 250.07C702.73 250.188 702.641 250.308 702.548 250.426C699.777 253.963 696.36 257.066 693.296 260.355C687.893 266.155 683.535 273.276 680.418 280.543C678.185 285.751 677.137 292.037 675.056 296.706C671.418 275.083 670.006 253.516 664.009 232.27Q660.812 220.686 656.586 209.437C654.97 205.197 647.738 190.834 648.084 187.544Z"/>
	<path d="M363.302 247.281C366.335 252.302 370.206 267.148 372.401 273.438C375.65 282.744 379.573 291.723 383.563 300.729C405.725 350.741 436.266 388.502 477.078 424.62C486.616 433.061 497.051 442.778 508.208 449.018C525.635 440.825 553.201 412.822 567.884 398.762Q596.492 371.766 623.786 343.442Q632.439 334.422 640.835 325.162C643.581 322.127 646.474 317.876 649.741 315.504C648.584 317.883 646.685 319.815 644.972 321.81C637.224 331.824 628.417 341.451 620.052 350.977Q594.485 380.299 567.34 408.167C548.788 427.277 529.962 448.401 507.603 463.11Q506.087 462.328 504.646 461.416C489.398 451.872 475.648 437.769 462.804 425.244C406.819 370.65 381.14 323.548 363.302 247.281Z"/>
	<path d="M327.725 463.15C336.943 456.923 354.504 449.766 365.791 450.207C386.043 450.998 427.073 478.275 444.397 489.62C453.123 495.335 460.58 502.238 471.264 503.749C478.21 504.731 485.318 503.977 491.022 499.528C498.263 493.879 501.351 484.895 502.486 476.088C503.062 473.477 503.133 470.887 503.24 468.228C509.935 492.562 500.167 500.511 490.966 521.608C490.804 522.182 490.367 523.16 490.358 523.708C490.313 526.47 496.103 535.381 497.515 538.475C498.454 540.531 499.117 542.719 499.79 544.874C494.621 539.103 487.003 533.07 479.302 531.451C470.099 537.267 461.355 545.202 452.763 551.931C430.837 569.104 409.084 587.126 386.064 602.796C390.961 597.292 397.042 592.474 402.427 587.412C415.306 575.304 428.24 563.16 441.682 551.678C427.355 558.175 410.25 566.948 394.03 564.225C387.059 563.055 380.993 558.246 375.707 553.839C366.841 546.45 358.357 537.338 353.201 526.91C350.167 520.773 348.671 513.836 346.838 507.27C342.363 491.244 337.263 476.973 327.725 463.15Z"/>
	<path fill="#252525" d="M398.38 491.859C403.274 493.131 408.714 493.938 413.361 495.914C410.851 497.882 408.795 500.323 406.234 502.189C405.11 502.792 404.085 503.125 402.873 503.472C402.14 503.682 402.445 503.583 401.653 503.924C399.085 500.003 398.487 496.415 398.38 491.859Z"/>
	<path fill="#DBDAD7" d="M441.107 510.583C432.335 510.568 424.923 513.338 416.421 514.893C408.776 516.291 403.454 514.755 397.199 510.306C392.892 507.241 385.088 500.691 384.147 495.346C384.5 494.241 384.551 493.77 385.518 493.049C388.799 490.603 394.638 491.196 398.38 491.859C398.487 496.415 399.085 500.003 401.653 503.924C402.445 503.583 402.14 503.682 402.873 503.472C404.085 503.125 405.11 502.792 406.234 502.189C408.795 500.323 410.851 497.882 413.361 495.914C417.134 497.234 420.951 498.487 424.66 499.977C430.675 502.242 436.255 506.446 441.107 510.583Z"/>
	<defs>
		<linearGradient id="gradient_1" gradientUnits="userSpaceOnUse" x1="418.00345" y1="505.90561" x2="414.8508" y2="498.97806">
			<stop offset="0" stop-color="#232616"/>
			<stop offset="1" stop-color="#393D20"/>
		</linearGradient>
	</defs>
	<path fill="url(#gradient_1)" d="M413.361 495.914C417.134 497.234 420.951 498.487 424.66 499.977C422.551 503.977 419.905 506.951 415.504 508.422C414.127 508.883 412.621 509.138 411.179 509.271C406.701 508.689 404.527 507.406 401.653 503.924C402.445 503.583 402.14 503.682 402.873 503.472C404.085 503.125 405.11 502.792 406.234 502.189C408.795 500.323 410.851 497.882 413.361 495.914Z"/>
	<path fill="#373B1E" d="M406.234 502.189C406.541 502.285 406.846 502.392 407.157 502.478C408.605 502.878 409.7 502.395 411.086 502.018C412.037 501.759 411.642 501.799 412.66 502.053C411.995 503.135 411.716 503.316 411.666 504.624C411.606 506.185 411.388 507.724 411.179 509.271C406.701 508.689 404.527 507.406 401.653 503.924C402.445 503.583 402.14 503.682 402.873 503.472C404.085 503.125 405.11 502.792 406.234 502.189Z"/>
	<path fill="#252525" d="M675.612 332.879C679.471 356.249 685.226 379.283 695.445 400.777C699.377 409.046 704.204 416.856 708.255 425.053C710.335 429.263 711.146 435.68 713.951 439.184C714.143 441.831 714.228 444.475 714.31 447.127C724.899 439.461 735.11 431.212 745.3 423.029C757.373 413.333 769.538 403.708 779.925 392.148C770.203 414.994 763.431 439.15 755.213 462.577Q752.372 470.758 749.133 478.79C747.029 483.956 744.49 489.085 743.249 494.544C740.415 507.011 742.055 534.175 738.296 543.791C736.742 547.766 729.477 557.012 726.815 561.124C721.761 568.935 717.461 577.465 711.834 584.859C711.701 585.034 711.575 585.215 711.439 585.389C709.819 587.472 706.47 588.078 703.999 588.299C700.949 588.572 697.923 588.444 694.874 588.259C695.627 581.322 697.039 574.534 698.624 567.747C691.544 577.584 684.494 586.339 675.266 594.333C666.975 601.515 657.385 607.864 650.393 616.37C642.804 625.603 637.693 637.021 632.514 647.718C639.69 640.079 647.216 631.929 655.395 625.378C643.496 651.402 633.193 677.334 626.39 705.229C622.396 686.801 619.239 668.825 613.185 650.884C611.848 646.923 610.603 642.482 608.71 638.788C609.463 645.525 611.915 651.64 613.359 658.212C617.375 676.488 620.863 695.624 621.039 714.385C621.087 719.543 620.862 724.22 618.618 728.978C614.457 737.8 606.258 747.057 600.759 755.382C589.106 773.025 573.698 803.279 568.022 823.794C553.058 827.409 537.709 831.232 522.255 831.863L521.643 831.242L521.722 830.064C523.498 826.738 523.613 821.036 524.421 817.253C527.856 801.165 534.046 792.067 544.602 779.909C539.12 771.879 531.051 764.989 522.355 760.698C519.475 759.746 516.664 758.986 513.641 758.65C499.977 757.132 486.577 761.656 475.964 770.207C480.646 762.276 485.463 756.411 493.44 751.656C483.347 746.745 476.414 740.202 469.314 731.631C477.851 733.038 486.779 732.525 495.415 732.465C496.281 732.319 497.143 732.143 497.982 731.879C503.868 730.024 511.921 725.71 514.645 719.949C515.351 718.455 515.642 716.84 514.997 715.261C513.764 712.245 509.164 710.103 506.29 709.005C479.942 708.549 452.132 708.562 429.084 723.35C429.38 722.872 429.675 722.392 429.987 721.924C443.545 701.615 472.329 699.611 494.641 699.099C501.12 698.95 508.383 699.677 514.703 698.383C514.889 698.345 515.073 698.3 515.258 698.258C518.652 697.547 521.75 695.832 524.767 694.193C521.434 691.088 517.458 688.475 513.878 685.639C506.04 679.432 499.666 672.35 494.153 664.014C489.453 659.111 469.437 636.549 464.695 635.696C464.128 635.594 463.469 635.562 462.888 635.491L462.037 635.391L462.5 635.256L463.012 634.542C486.721 630.179 492.274 651.764 509.223 657.578L509.898 657.803C520.344 654.818 527.612 644.066 536.948 638.564C537.826 630.267 539.178 624.526 544.327 617.744C541.209 617.145 538.28 616.337 535.259 615.364C533.113 617.626 532.591 628.879 532.357 632.287C530.401 630.278 528.711 628.106 527.349 625.653C518.164 609.125 521.909 585.507 522.46 567.265C522.681 559.944 521.825 552.056 523.821 544.948C525.461 537.335 529.832 530.622 533.785 524.038C532.936 522.724 531.887 521.557 530.883 520.362C518.797 499.69 513.747 492.698 516.482 468.4C517.207 473.387 517.637 478.804 519.617 483.48C521.803 490.267 525.816 497.148 532.006 500.952C539.289 505.428 551.637 504.821 559.536 501.982C568.401 498.796 578.307 491.291 586.67 486.406C615.694 469.454 638.096 456.128 671.072 448.082C673.288 449.044 675.261 450.205 677.303 451.479C675.733 439.537 669.88 428.333 668.16 416.487C667.118 409.306 669.842 392.813 670.579 384.726C672.048 368.615 672.99 348.469 675.612 332.879Z"/>
	<path d="M545.921 615.681C551.022 621.205 552.517 627.877 556.208 634.193C557.606 634.733 559.275 635.131 560.247 636.284C557.404 637.343 554.822 638.446 552.353 640.27C538.821 650.272 523.4 677.848 503.573 668.979C500.319 667.523 497.37 665.503 494.153 664.014C489.453 659.111 469.437 636.549 464.695 635.696C464.128 635.594 463.469 635.562 462.888 635.491L462.037 635.391L462.5 635.256L463.012 634.542C486.721 630.179 492.274 651.764 509.223 657.578L509.898 657.803C520.344 654.818 527.612 644.066 536.948 638.564C543.176 635.942 547.834 634.778 554.575 634.451C551.257 628.404 548.974 621.861 545.921 615.681Z"/>
	<path d="M755.411 429.932C755.57 431.488 739.19 466.896 737.064 470.884C733.508 477.555 727.13 483.727 725.441 491.206C722.584 503.851 733.391 516.471 729.318 526.666C725.969 535.05 715.192 539.584 709.561 546.506C706.996 549.66 705.513 553.021 703.963 556.737L703.711 557.527L703.003 557.811C702.948 557.679 702.877 557.553 702.838 557.415C702.403 555.905 702.916 553.875 703.156 552.352C704.76 542.204 709.186 534.548 714.648 526.029C714.292 512.785 711.648 499.543 712.041 486.264C723.953 465.908 740.154 447.834 755.411 429.932Z"/>
	<path d="M515.258 698.258C515.431 698.291 515.603 698.325 515.776 698.355C521.183 699.296 526.915 699.076 532.394 699.453C557.481 701.179 585.77 702.805 601.64 725.058C603.927 728.265 605.75 731.683 607.354 735.274C602.832 730.577 598.249 725.174 592.674 721.707C577.168 712.062 541.317 709.251 522.938 708.91C517.467 708.808 511.739 708.54 506.29 709.005C479.942 708.549 452.132 708.562 429.084 723.35C429.38 722.872 429.675 722.392 429.987 721.924C443.545 701.615 472.329 699.611 494.641 699.099C501.12 698.95 508.383 699.677 514.703 698.383C514.889 698.345 515.073 698.3 515.258 698.258Z"/>
	<path d="M577.163 721.768C565.994 731.939 553.169 741.187 540.475 749.397C534.739 753.107 527.246 756.039 522.355 760.698C519.475 759.746 516.664 758.986 513.641 758.65C499.977 757.132 486.577 761.656 475.964 770.207C480.646 762.276 485.463 756.411 493.44 751.656C483.347 746.745 476.414 740.202 469.314 731.631C477.851 733.038 486.779 732.525 495.415 732.465C523.354 735.828 551.261 733.055 577.163 721.768Z"/>
	<path d="M671.072 448.082C673.288 449.044 675.261 450.205 677.303 451.479C682.377 456.559 688.958 459.589 693.34 465.462C687.136 470.807 681.199 476.443 677.453 483.845C674.732 489.223 673.736 495.194 672.495 501.037C668.144 521.521 662.517 532.462 642.557 541.246C631.193 546.246 619.154 548.175 606.791 547.232C594.608 546.302 583.282 542.535 571.853 538.497C577.607 544.626 583.972 550.093 590.187 555.74C602.959 567.343 615.933 578.528 629.203 589.554C629.027 589.471 628.85 589.389 628.675 589.304C619.281 584.735 610.449 577.989 601.802 572.11Q583.544 559.834 565.512 547.226C559.047 542.622 551.959 535.913 544.723 532.721C543.306 532.096 541.936 532.231 540.493 532.689C534.795 534.498 528.206 540.642 524.403 545.126L523.821 544.948C525.461 537.335 529.832 530.622 533.785 524.038C532.936 522.724 531.887 521.557 530.883 520.362C518.797 499.69 513.747 492.698 516.482 468.4C517.207 473.387 517.637 478.804 519.617 483.48C521.803 490.267 525.816 497.148 532.006 500.952C539.289 505.428 551.637 504.821 559.536 501.982C568.401 498.796 578.307 491.291 586.67 486.406C615.694 469.454 638.096 456.128 671.072 448.082Z"/>
	<path fill="#FFF05C" d="M614.946 491.905C615.466 492.078 615.249 491.951 615.718 492.387C616.278 492.908 616.355 493.67 616.333 494.417C616.216 498.488 613.353 504.014 610.423 506.814L609.177 506.471C608.237 503.721 610.307 497.571 611.308 494.784C612.009 492.834 613.225 492.653 614.946 491.905Z"/>
	<path fill="#DBDAD7" d="M623.185 491.31C627.255 492.041 635.11 493.573 637.338 497.369C637.997 498.49 638.241 499.533 637.833 500.804C636.869 503.815 633.266 505.862 630.723 507.415C621.28 513.181 612.762 519.479 601.228 515.785C597.163 514.484 593.323 512.649 589.147 511.681C588.95 511.636 588.752 511.595 588.555 511.552C585.469 511.315 582.442 511.216 579.347 511.248C584.806 506.398 591.312 502.827 597.665 499.3C598.221 501.337 598.835 503.392 599.923 505.216C601.466 507.802 603.595 510.098 606.662 510.714C609.702 511.325 612.739 510.195 615.166 508.393C620.846 504.174 622.326 497.896 623.185 491.31Z"/>
	<path d="M306.66 451.61C305.755 445.925 305.602 440.263 304.066 434.664C298.575 414.645 280.062 379.342 264.319 365.852C259.402 361.639 253.558 358.21 248.247 354.482Q235.889 345.847 224.915 335.51C189.271 301.572 170.785 257.169 169.629 208.181C168.421 156.968 185.902 107.247 211.908 63.779C221.644 47.5053 232.896 31.3938 245.992 17.6328C223.618 63.7477 212.721 130.404 229.121 179.92C241.212 216.425 270.232 242.403 303.795 259.26C307.644 261.193 314.259 264.853 318.591 263.417C319.817 261.601 320.112 259.059 320.591 256.938C343.877 280.021 349.099 295.452 349.276 328.055C349.441 358.483 342.426 389.251 325.957 415.126C320.026 424.444 312.972 432.95 306.017 441.508C309.364 454.022 313.384 483.031 312.549 495.458C312.013 503.44 309.97 511.217 309.278 519.173C312.175 524.812 314.844 530.307 316.746 536.381C319.93 546.546 321.437 558.09 327.232 567.165C332.075 574.747 338.843 581.407 345.285 587.636C365.725 607.4 382.28 620.998 390.136 649.558C383.907 640.803 377.06 632.669 369.742 624.8C377.881 654.449 386.857 684.231 392.943 714.381C394.803 708.29 408.889 660.152 410.94 658.119C409.941 663.4 408.112 668.598 406.697 673.787L398.187 705.304C396.934 709.906 394.872 714.839 394.429 719.573C394.248 721.505 395.408 723.57 396.464 725.103C400.962 731.625 407.412 738.082 412.365 744.899C429.857 768.971 441.568 794.201 450.375 822.56C467.486 827.198 484.655 829.764 502.26 831.652C504.14 821.26 506.827 810.964 508.532 800.569C509.761 793.08 510.263 785.418 510.854 777.857C513.941 795.358 518.635 812.573 521.722 830.064L521.643 831.242L522.255 831.863C537.709 831.232 553.058 827.409 568.022 823.794C573.698 803.279 589.106 773.025 600.759 755.382C606.258 747.057 614.457 737.8 618.618 728.978C620.862 724.22 621.087 719.543 621.039 714.385C620.863 695.624 617.375 676.488 613.359 658.212C611.915 651.64 609.463 645.525 608.71 638.788C610.603 642.482 611.848 646.923 613.185 650.884C619.239 668.825 622.396 686.801 626.39 705.229C633.193 677.334 643.496 651.402 655.395 625.378C647.216 631.929 639.69 640.079 632.514 647.718C637.693 637.021 642.804 625.603 650.393 616.37C657.385 607.864 666.975 601.515 675.266 594.333C684.494 586.339 691.544 577.584 698.624 567.747C697.039 574.534 695.627 581.322 694.874 588.259C693.253 596.19 691.778 604.28 689.609 612.081Q686.948 624.947 684.064 637.764C682.889 642.982 680.892 648.931 680.847 654.288C680.763 664.086 698.973 709.593 703.321 721.177C691.006 762.199 660.385 813.222 628.78 842.274C612.153 857.557 593.265 869.833 573.426 880.512Q559.753 887.938 545.348 893.82C540.536 903.199 537.095 913.863 533.196 923.679C526.237 941.198 519.069 958.68 512.647 976.404L494.328 926.485C490.601 916.379 486.541 906.23 483.538 895.888C431.243 873.527 395.858 849.201 361.874 803.19Q356.447 795.963 351.506 788.396Q346.565 780.829 342.13 772.954Q337.695 765.08 333.787 756.931Q329.878 748.782 326.512 740.395C323.16 732.028 320.788 723.276 317.445 714.955C321.517 705.169 325.838 695.748 331.129 686.555C335.269 679.361 340.047 672.407 343.91 665.081C342.611 658.552 340.379 652.241 338.902 645.753C336.583 635.568 335.146 624.975 333.653 614.636C331.696 605.807 330.941 596.436 329.791 587.456C323.47 585.73 316.074 582.789 310.817 578.815C303.163 573.027 292.738 556.505 286.729 548.223C284.896 547.05 283.23 543.818 282.01 541.997C281.974 526.835 281.779 510.498 277.926 495.744C276.319 489.593 273.619 483.593 271.5 477.594C268.366 468.723 265.687 459.615 263.195 450.547C257.809 430.95 253.972 411.03 248.881 391.371C258.585 403.036 271.965 415.657 282.703 426.853C290.513 434.997 297.941 444.494 306.66 451.61Z"/>
	<path fill="#4D4C4D" d="M248.881 391.371C258.585 403.036 271.965 415.657 282.703 426.853C290.513 434.997 297.941 444.494 306.66 451.61C308.844 464.94 311.301 478.2 311.838 491.724C305.668 480.739 298.765 469.563 291.479 459.287C286.637 452.457 281.19 446.052 276.165 439.355C270.392 431.663 265.063 423.585 259.782 415.55L259.968 416.098C262.335 422.873 265.873 429.407 268.722 436.013C273.811 447.816 278.602 459.768 284.078 471.4C287.287 478.216 292.922 485.413 294.192 492.836C295.707 501.686 293.257 517.757 293.908 528.23C297.83 532.671 301.716 537.179 305.776 541.493C311.659 547.743 319.508 553.422 323.127 561.323C326.616 568.938 327.859 578.398 329.433 586.616C323.557 584.183 316.422 582.011 311.272 578.232C304.799 573.483 291.292 550.004 286.729 548.223C284.896 547.05 283.23 543.818 282.01 541.997C281.974 526.835 281.779 510.498 277.926 495.744C276.319 489.593 273.619 483.593 271.5 477.594C268.366 468.723 265.687 459.615 263.195 450.547C257.809 430.95 253.972 411.03 248.881 391.371Z"/>
</svg>
