<?xml version="1.0" encoding="utf-8" ?>
<svg xmlns="http://www.w3.org/2000/svg" xmlns:xlink="http://www.w3.org/1999/xlink" width="1024" height="1024">
	<path fill="#5D5D5C" d="M0 0L1024 0L1024 977.153L1024 1024L548.858 1024L529.381 1024L494.697 1024L474.417 1024L0 1024L0 976.718L0 0Z"/>
	<path fill="#212121" d="M764.905 452.529L764.674 453.224C760.717 465.27 758.632 478.42 755.92 490.817C747.551 529.074 738.66 567.583 717.292 601.067C712.596 608.425 704.345 619.681 696.688 624.107C696 624.506 695.858 624.526 695.201 624.748L694.728 624.177C699.885 602.21 701.571 580.884 702.583 558.452C704.155 555.915 705.646 530.529 706.486 524.881C707.819 515.923 709.291 506.568 712.778 498.175C716.422 496.234 725.459 483.976 729.497 480.161C740.515 469.747 752.839 461.597 764.905 452.529Z"/>
	<path fill="#060606" d="M548.858 1024C553.352 1015.37 557.038 1006.01 560.958 997.091Q579.114 955.673 593.684 912.861C595.58 907.192 597.562 897.399 601.817 893.302C607.482 887.849 621.936 879.706 629.232 874.409C655.913 855.04 695.021 823.464 712.585 795.85C716.925 789.026 720.443 781.008 722.569 773.209C722.846 772.19 723.108 771.46 723.711 770.567L724.219 771.368L720.108 814.754C719.37 822.157 718.097 829.731 717.847 837.155C717.506 847.308 724.781 850.143 718.968 861.009C764.474 893.324 806.501 915.472 859.311 934.13C869.303 937.66 879.928 942.267 890.307 944.399C895.451 945.456 901.023 944.623 906.247 944.536C911.548 944.447 917.001 944.712 922.269 945.312C958.29 949.42 991.672 961.135 1024 977.153L1024 1024L548.858 1024Z"/>
	<path fill="#060606" d="M300.91 776.801C317.019 814.503 371.045 857.859 404.054 882.248C410.395 886.933 417.171 890.974 423.475 895.672C425.756 900.735 427.33 906.248 429.129 911.503C433.05 922.958 436.831 934.635 441.409 945.846C447.728 961.32 453.747 977.009 460.489 992.294C464.862 1002.21 471.376 1013.8 474.417 1024L0 1024L0 976.718C32.1707 960.792 66.0131 948.787 101.974 945.28Q110.364 944.507 118.788 944.623C123.236 944.699 127.909 945.163 132.324 944.6C140.743 943.526 150.681 938.636 158.805 935.752C194.098 923.22 278.453 891.323 299.62 863.873C300.265 856.681 300.613 849.439 301.061 842.231C300.598 835.919 301.445 829.152 301.45 822.767C301.459 811.425 300.897 800.09 300.931 788.746C301.245 784.755 301.057 780.794 300.91 776.801Z"/>
	<path fill="#060606" d="M686.766 9.50029C699.204 29.1856 716.857 41.408 739.089 47.8918C747.174 50.2499 755.512 51.6418 763.53 54.2601C797.46 65.3393 826.63 95.9803 842.544 127.381C852.809 147.636 860.529 172.943 856.981 195.769C850.513 237.375 806.359 278.655 779.857 309.746C765.314 326.807 746.07 351.995 736.644 372.335C733.08 380.025 737.516 417.819 735.411 430.349C731.757 452.089 719.748 476.865 712.778 498.175C709.291 506.568 707.819 515.923 706.486 524.881C705.646 530.529 704.155 555.915 702.583 558.452C702.507 547.727 701.128 536.679 700.376 525.953C699.726 516.688 699.845 506.809 698.117 497.697C696.446 488.889 693.315 478.771 689.491 470.678C685.935 463.154 679.695 455.257 675.138 448.211C677.957 434.279 681.457 420.105 685.236 406.402C677.647 397.53 672.381 384.57 667.669 373.916Q670.21 363.052 673.121 352.281Q667.162 346.29 660.885 340.632Q654.607 334.975 648.031 329.669Q641.454 324.362 634.598 319.422Q627.742 314.483 620.627 309.924Q616.24 324.648 612.178 339.466C578.404 355.745 545.421 374.092 512.354 391.764C503.483 388.048 494.839 383.041 486.287 378.62Q463.711 367.033 441.311 355.111C433.142 350.731 417.442 343.298 410.693 338.403C407.395 328.888 405.484 318.935 402.309 309.389C388.227 316.808 357.582 339.994 346.124 351.568Q350.773 362.786 355.221 374.085C350.346 385.569 343.335 396.067 338.422 407.468Q344.878 425.361 351.045 443.356L350.827 443.752C345.663 452.97 339.362 462.059 333.616 470.945C330.782 475.329 327.058 480.058 325.325 485.012C322.522 493.017 324.843 521.701 324.987 531.898C319.366 522.037 312.262 511.379 309.057 500.499C308.947 500.127 308.814 499.761 308.689 499.393C304.228 482.43 298.61 465.492 293.123 448.836C290.37 440.476 287.036 431.97 285.003 423.421C283.81 418.406 284.581 412.883 284.727 407.756C284.923 400.847 285.688 393.329 285.027 386.47C284.073 376.581 278.744 366.012 274.367 357.145C250.277 308.342 201.463 277.588 177.663 226.994C173.741 218.658 170.241 209.919 168.471 200.85C166.541 190.967 166.762 180.673 167.887 170.708C173.058 124.912 204.056 81.7412 244.85 60.4841C256.877 54.2174 269.108 51.9213 282.105 48.774C303.469 43.6006 320.186 32.5003 332.448 14.2503C330.136 24.3396 327.249 33.7695 321.398 42.4275C316.14 50.209 308.941 56.0431 301.233 61.2683C275.618 78.6315 255.144 86.0017 244.093 118.275C239.361 132.094 237.74 148.968 244.493 162.41C259.435 192.156 327.021 231.341 358.302 241.637C374.464 226.427 394.806 214.458 415.854 207.425C429.509 202.862 443.771 200.685 457.839 197.813Q477.145 193.825 496.025 188.153C504.506 185.598 513.361 182.838 520.91 178.119C525.899 175.001 529.711 171.147 533.482 166.672C528.116 177.781 521.481 185.926 512.122 194.007C538.934 190.194 568.332 180.748 587.59 161.06C579.973 176.438 571.644 188.583 556.193 196.817C564.042 197.032 571.92 198.062 579.763 198.564C602.991 200.053 624.254 198.45 646.66 191.794C637.64 199.793 627.228 205.824 616.915 211.96C634.701 219.26 651.188 231.289 666.3 243.009C701.464 219.557 747.744 207.337 773.395 171.397C781.412 160.165 785.017 148.164 782.634 134.431C781.156 125.908 778.014 117.534 774.409 109.702C760.871 80.2954 741.31 76.8692 717.608 59.8056C699.649 46.8766 690.258 31.2048 686.766 9.50029Z"/>
	<path fill="#212121" d="M346.124 351.568C357.582 339.994 388.227 316.808 402.309 309.389C405.484 318.935 407.395 328.888 410.693 338.403C417.442 343.298 433.142 350.731 441.311 355.111Q463.711 367.033 486.287 378.62C494.839 383.041 503.483 388.048 512.354 391.764C545.421 374.092 578.404 355.745 612.178 339.466Q616.24 324.648 620.627 309.924Q627.742 314.483 634.598 319.422Q641.454 324.362 648.031 329.669Q654.607 334.975 660.884 340.632Q667.162 346.29 673.121 352.281Q670.21 363.052 667.669 373.916C672.381 384.57 677.647 397.53 685.236 406.402C681.457 420.105 677.957 434.279 675.138 448.211C679.695 455.257 685.935 463.154 689.491 470.678C693.315 478.771 696.446 488.889 698.117 497.697C699.845 506.809 699.726 516.688 700.376 525.953C701.128 536.679 702.507 547.727 702.583 558.452C701.571 580.884 699.885 602.21 694.728 624.177C692.394 631.832 690.875 639.851 689.018 647.641Q685.418 662.43 680.94 676.978C678.938 683.411 676.487 689.736 673.967 695.982C672.504 699.609 669.874 704.203 669.265 708.002L668.869 714.098C688.586 722.633 715.153 741.885 723.456 762.287C724.535 764.938 725.395 768.599 724.219 771.368L723.711 770.567C723.108 771.46 722.846 772.19 722.569 773.209C720.443 781.008 716.925 789.026 712.585 795.85C695.021 823.464 655.913 855.04 629.232 874.409C621.936 879.706 607.482 887.849 601.817 893.302C597.562 897.399 595.58 907.192 593.684 912.861Q579.114 955.673 560.958 997.091C557.038 1006.01 553.352 1015.37 548.858 1024L529.381 1024L494.697 1024L474.417 1024C471.376 1013.8 464.862 1002.21 460.489 992.294C453.747 977.009 447.728 961.32 441.409 945.846C436.831 934.635 433.05 922.958 429.129 911.503C427.33 906.248 425.756 900.735 423.475 895.672C417.171 890.974 410.395 886.933 404.054 882.248C371.045 857.859 317.019 814.503 300.91 776.801C301.057 780.794 301.245 784.755 300.931 788.746C300.113 783.032 299.59 771.169 300.606 765.666C304.056 746.995 338.756 721.266 354.574 710.574C350.596 703.149 346.595 695.349 344.082 687.293C341.787 679.938 340.824 672.057 339.564 664.466L333.827 628.809C328.85 627.375 324.35 625.263 320.189 622.167C292.193 601.339 271.623 526.778 264.485 493.643C261.365 479.158 259.365 464.413 257.165 449.766C276.346 461.128 294.164 482.232 308.083 499.475L308.689 499.393C308.814 499.761 308.947 500.127 309.057 500.499C312.262 511.379 319.366 522.037 324.987 531.898C324.843 521.701 322.522 493.017 325.325 485.012C327.058 480.058 330.782 475.329 333.616 470.945C339.362 462.059 345.663 452.97 350.827 443.752L351.045 443.356Q344.878 425.361 338.422 407.468C343.335 396.067 350.346 385.569 355.221 374.085Q350.773 362.786 346.124 351.568Z"/>
	<path fill="#060606" d="M516.199 765.428C526.666 765.844 537.557 765.6 547.711 768.384C544.238 768.431 539.008 767.67 535.845 769.029C534.993 768.658 534.205 768.345 533.272 768.261C524.87 767.51 515.743 768.471 507.265 768.542C497.736 768.623 488.297 767.962 478.752 768.295C498.105 764.351 517.967 768.28 537.512 767.337C529.72 767.304 521.915 765.723 514.17 766.032L513.473 766.066L513.095 765.782L513.091 765.796L516.199 765.428Z"/>
	<path fill="#060606" d="M479.078 656.255C479.537 656.299 479.734 656.303 480.159 656.393C488.598 658.186 496.862 667.345 501.333 674.225C495.034 671.278 486.631 670.096 481.975 664.516C480.029 662.184 478.784 659.299 479.078 656.255Z"/>
	<path fill="#060606" d="M324.083 584.925C326.796 587.807 328.723 593.004 330.721 596.509C333.455 601.304 336.591 605.998 340.112 610.252Q349.347 621.279 359.931 631.02C364.869 635.519 370.385 639.589 374.712 644.702C377.814 648.366 379.975 653.611 381.814 658C386.573 669.359 390.063 681.399 394.147 693.022C397.461 702.455 401.961 712.291 403.914 722.064C401.17 719.026 398.432 710.69 396.743 706.635L383.323 674.486C380.785 668.484 378.407 661.878 375.095 656.273C371.934 650.925 366.452 646.655 361.941 642.454C350.895 632.164 336.967 620.405 330.557 606.553C327.417 599.768 325.677 592.195 324.083 584.925Z"/>
	<path fill="#060606" d="M379.776 472.34C381.993 474.401 384 481.491 387.38 484.746C402.214 499.036 430.303 517.085 449.158 525.965C458.562 530.394 468.386 533.948 477.914 538.11C483.063 534.943 488.369 532.642 493.97 530.428C485.23 519.367 477.585 500.831 472.944 487.494L473.114 487.161C473.446 487.755 473.767 488.358 474.106 488.949C476.773 493.602 478.609 498.584 480.833 503.451C485.228 513.07 490.016 522.37 496.05 531.079C493.97 534.914 491.508 538.525 489.118 542.171C486.549 545.841 484.167 549.65 482.256 553.704C483.37 560.318 485.157 566.755 485.804 573.453C479.145 564.966 469.284 558.115 459.866 552.9C451.823 554.606 443.813 557.299 435.9 559.553C427.884 561.837 419.748 563.784 411.816 566.339C401.695 561.198 389.291 555.907 380.372 548.971C377.259 546.549 374.524 543.682 372.061 540.609C367.303 534.674 348.887 506.78 348.213 501.418C348.558 501.549 349.224 501.819 349.575 501.867C349.66 501.879 350.529 501.844 350.678 501.757C352.42 500.743 354.98 497.273 356.519 495.734C364.317 487.938 372.212 480.382 379.776 472.34Z"/>
	<path fill="#316A01" d="M369.566 518.218C379.143 520.99 389.218 522.544 398.914 525.116C408.312 527.85 417.044 530.877 426.068 534.689C433.002 537.29 440.059 541.607 446.727 544.962Q446.221 545.282 445.704 545.584C435.961 551.268 419.568 556.993 408.282 553.944C391.778 549.486 377.579 532.57 369.566 518.218Z"/>
	<path fill="#FCF92D" d="M398.914 525.116C408.312 527.85 417.044 530.877 426.068 534.689C423.345 537.547 420.805 540.428 417.118 542.059C414.381 543.268 411.332 543.381 408.547 542.249C404.399 540.564 401.45 536.845 399.791 532.782C398.809 530.376 397.907 527.631 398.914 525.116Z"/>
	<path fill="#F8EEE9" d="M405.99 529.349C407.372 529.269 408.817 529.138 410.19 529.364C411.79 529.627 413.661 530.477 414.465 531.954C415.789 534.386 414.902 536.942 414.145 539.39C413.871 539.4 413.596 539.453 413.324 539.419C411.689 539.214 408.85 536.304 407.817 535.002C406.247 533.023 405.708 531.9 405.99 529.349Z"/>
	<path fill="#060606" d="M669.265 708.002L668.869 714.098C688.586 722.633 715.153 741.885 723.456 762.287C724.535 764.938 725.395 768.599 724.219 771.368L723.711 770.567C723.108 771.46 722.846 772.19 722.569 773.209C720.443 781.008 716.925 789.026 712.585 795.85C695.021 823.464 655.913 855.04 629.232 874.409C621.936 879.706 607.482 887.849 601.817 893.302C597.562 897.399 595.58 907.192 593.684 912.861Q579.114 955.673 560.958 997.091C557.038 1006.01 553.352 1015.37 548.858 1024L529.381 1024L494.697 1024C489.549 1008.72 483.625 993.674 478.323 978.443C466.605 944.779 456.028 910.995 448.186 876.214Q408.091 849.507 370.433 819.463C359.101 810.274 347.503 800.933 337.808 789.984C342.223 783.76 347.518 780.359 354.455 777.452C354.612 755.191 354.282 733.013 354.955 710.749C377.233 753.192 418.049 808.555 452.35 842.249C456.252 846.082 460.466 850.3 465.448 852.701C477.827 858.668 503.829 856.549 517.87 856.437C527.105 856.911 544.62 857.383 553.214 854.422C557.223 853.041 561.026 849.987 564.13 847.163C573.38 838.745 581.308 828.45 589.468 818.986C608.735 796.639 627.626 774.035 644.345 749.685Q651.294 739.711 657.532 729.278Q663.769 718.844 669.265 708.002Z"/>
	<path fill="#212121" d="M668.869 714.098C688.586 722.633 715.153 741.885 723.456 762.287C724.535 764.938 725.395 768.599 724.219 771.368L723.711 770.567C723.108 771.46 722.846 772.19 722.569 773.209C720.443 781.008 716.925 789.026 712.585 795.85C695.021 823.464 655.913 855.04 629.232 874.409C621.936 879.706 607.482 887.849 601.817 893.302C597.562 897.399 595.58 907.192 593.684 912.861Q579.114 955.673 560.958 997.091C557.038 1006.01 553.352 1015.37 548.858 1024L529.381 1024C533.727 1009.96 538.951 996.202 543.703 982.292C555.569 947.565 566.773 912.449 572.732 876.188C606.751 857.304 662.44 820.964 683.939 788.55C679.704 782.932 674.611 779.886 668.011 777.744C667.87 764.765 668.302 751.732 668.405 738.746C668.469 730.749 667.819 721.979 668.869 714.098Z"/>
	<path fill="#878686" d="M620.627 309.924Q627.742 314.483 634.598 319.422Q641.454 324.362 648.031 329.669Q654.607 334.975 660.884 340.632Q667.162 346.29 673.121 352.281Q670.21 363.052 667.669 373.916C672.381 384.57 677.647 397.53 685.236 406.402C681.457 420.105 677.957 434.279 675.138 448.211C679.695 455.257 685.935 463.154 689.491 470.678C693.315 478.771 696.446 488.889 698.117 497.697C699.845 506.809 699.726 516.688 700.376 525.953C701.128 536.679 702.507 547.727 702.583 558.452C701.571 580.884 699.885 602.21 694.728 624.177C692.394 631.832 690.875 639.851 689.018 647.641Q685.418 662.43 680.94 676.978C678.938 683.411 676.487 689.736 673.967 695.982C672.504 699.609 669.874 704.203 669.265 708.002Q663.769 718.844 657.532 729.278Q651.294 739.711 644.345 749.685C627.626 774.035 608.735 796.639 589.468 818.986C581.308 828.45 573.38 838.745 564.13 847.163C561.026 849.987 557.223 853.041 553.214 854.422C544.62 857.383 527.105 856.911 517.87 856.437C511.052 842.842 504.239 825.476 499.549 811.011C505.466 792.48 520.122 779.406 535.845 769.029C539.008 767.67 544.238 768.431 547.711 768.384C537.557 765.6 526.666 765.844 516.199 765.428C510.611 764.374 500.493 766.121 495.953 762.699C494.791 761.823 494.209 760.919 493.97 759.479C493.237 755.051 498.67 747.688 501.359 744.379C508.047 744.87 515.024 744.411 521.749 744.507C531.288 744.644 540.879 745.254 550.416 744.987C559.277 744.739 568.416 743.483 577.253 744.466C582.699 745.073 587.497 746.552 592.46 748.828C580.744 735.083 568.955 734.466 551.959 731.983Q538.226 730.018 524.569 727.576C521.414 728.795 518.232 730.029 514.945 730.85C508.017 732.582 502.707 731.219 496.736 727.677C496.46 727.182 495.901 726.352 495.743 725.773C494.926 722.762 510.068 711.374 512.958 707.674C519.124 699.78 521.992 689.71 528.292 682.054C534.187 674.888 544.032 670.265 548.083 661.645C548.77 660.181 549.323 658.694 548.762 657.109C544.922 654.95 534.069 662.127 531.187 664.854C527.087 668.734 521.762 678.923 515.916 679.527C512.939 679.835 509.982 678.989 507.757 676.959C505.115 674.548 503.924 671.243 503.439 667.782C501.786 655.988 503.314 642.968 503.644 631.085C504.366 605.135 505.768 578.89 504.476 552.965Q507.257 549.987 509.974 546.95C514.736 541.56 517.47 535.822 518.227 528.64C519.122 520.159 517.982 511.085 517.189 502.61C515.738 487.121 513.553 471.634 512.779 456.092C511.716 434.713 513.759 413.081 512.354 391.764C545.421 374.092 578.404 355.745 612.178 339.466Q616.24 324.648 620.627 309.924Z"/>
	<path fill="#212121" d="M528.58 530.498C528.487 530.386 528.389 530.276 528.3 530.16C525.35 526.293 523.723 521.594 524.434 516.717C524.89 513.589 526.201 510.685 527.898 508.04C531.396 502.591 551.368 479.768 556.158 476.151C555.324 479.713 535.034 503.541 531.348 511.238C528.688 516.791 527.789 522.655 529.878 528.537L530.11 529.174L528.58 530.498Z"/>
	<path fill="#060606" d="M611.139 563.022C613.711 562.281 618.722 560.433 621.191 561.179L621.713 562.716C622.69 570.019 624.427 575.749 627.414 582.427C624.046 594.443 618.493 605.54 614.329 617.262C612.555 622.256 609.372 634.742 607.489 638.395L607.507 637.647L607.774 637.917L607.494 638.402C609.275 620.403 618.5 603.626 622.288 586.137C619.769 578.66 614.828 572.117 611.845 564.763L611.139 563.022Z"/>
	<path fill="#060606" d="M695.258 596.893C695.375 598.784 694.623 600.876 694.085 602.688C690.031 616.324 679.355 628.399 669.252 638.122C663.986 643.19 657.564 647.756 653.176 653.634C648.15 660.366 644.945 669.303 641.531 676.949Q632.378 697.425 623.7 718.108C623.461 713.131 630.045 698.197 631.866 692.909C636.626 679.091 640.179 663.037 647.758 650.549C652.168 643.284 659.697 637.696 665.767 631.85C673.016 624.87 682.924 615.321 688.829 607.407C691.261 604.146 693.139 600.371 695.258 596.893Z"/>
	<path fill="#060606" d="M645.806 469.792C645.972 473.035 646.035 476.391 647.23 479.452C651.636 490.741 677.818 506.637 678.564 510.207L677.511 510.194C668.985 505.144 660.6 503.072 650.787 505.632C631.237 510.732 606.062 524.719 587.384 533.92C576.546 539.258 559.264 546.798 549.964 553.984C546.548 556.801 544.055 560.046 541.441 563.585C541.634 547.776 537.873 542.954 528.58 530.498L530.11 529.174C532.091 531.281 534.105 532.685 536.946 533.405C540.498 534.305 544.857 533.947 548.328 532.763C559.646 528.902 575.501 519.304 586.475 513.237C604.841 503.085 623.603 493.026 641.432 481.972C643.122 478.039 644.388 473.835 645.806 469.792Z"/>
	<defs>
		<linearGradient id="gradient_0" gradientUnits="userSpaceOnUse" x1="576.16864" y1="575.6853" x2="653.89832" y2="491.00684">
			<stop offset="0" stop-color="#1E1E1D"/>
			<stop offset="1" stop-color="#444545"/>
		</linearGradient>
	</defs>
	<path fill="url(#gradient_0)" d="M549.964 553.984C559.264 546.798 576.546 539.258 587.384 533.92C606.062 524.719 631.237 510.732 650.787 505.632C660.6 503.072 668.985 505.144 677.511 510.194C668.867 509.794 663.612 511.099 656.162 515.508C658.118 516.008 661.801 516.541 662.966 518.355C664.586 520.877 662.913 525.321 661.927 527.826C656.828 540.785 647.668 550.413 634.871 555.882C631.162 557.468 626.708 559.478 622.732 560.107C621.858 561.087 621.907 561.394 621.713 562.716L621.191 561.179C618.722 560.433 613.711 562.281 611.139 563.022C590.045 568.748 569.436 561.607 549.964 553.984Z"/>
	<path fill="#FF0506" d="M624.307 525.972Q627.942 525.176 631.588 524.429C628.921 534.7 625.833 543.643 616.135 549.337C613.607 550.821 608.562 553.759 605.588 553.364C601.833 552.866 597.218 546.713 595.413 543.542C594.253 541.503 593.656 539.563 593.453 537.236L594.005 535.918C594.808 537.459 595.651 539.003 596.611 540.452C598.509 543.316 601.675 545.587 605.106 546.115C608.51 546.639 611.985 545.4 614.698 543.376C620.288 539.204 623.175 532.665 624.307 525.972Z"/>
	<path fill="#FCF92D" d="M594.005 535.918C604.106 532.346 613.899 528.613 624.307 525.972C623.175 532.665 620.288 539.204 614.698 543.376C611.985 545.4 608.51 546.639 605.106 546.115C601.675 545.587 598.509 543.316 596.611 540.452C595.651 539.003 594.808 537.459 594.005 535.918Z"/>
</svg>
