<?xml version="1.0" encoding="utf-8" ?>
<svg xmlns="http://www.w3.org/2000/svg" xmlns:xlink="http://www.w3.org/1999/xlink" width="1024" height="1024">
	<path fill="#6D6D6C" d="M0 0L1024 0L1024 813.007L1024 1024L538.44 1024L0 1024L0 813.361L0 0Z"/>
	<path fill="#070707" d="M758.006 396.206C760.332 405.465 757.043 437.637 755 447.34C753.434 454.784 750.942 462.122 748.751 469.407C747.622 466.733 747.212 463.325 746.299 460.501C743.151 450.768 739.303 439.904 734.306 431.001C739.308 418.559 747.895 404.964 758.006 396.206Z"/>
	<path fill="#070707" d="M535.66 55.6582C543.397 59.8898 553.382 66.536 561.634 69.0795C567.656 70.9358 596.087 70.3813 604.766 70.5149C618.811 78.6562 631.958 88.3872 645.761 96.9438L670.581 112.098C675.565 115.119 681.169 118.009 685.599 121.811C688.298 124.127 717.071 162.162 719.119 165.961C724.529 175.999 728.061 187.74 732.193 198.415C735.04 205.769 738.65 213.188 740.722 220.774C741.374 223.162 741.701 225.522 741.881 227.988C742.539 236.976 742.622 246.058 742.991 255.065Q743.999 279.174 745.26 303.272C745.785 313.463 748.684 335.75 747.238 344.404C746.384 349.521 744.665 354.572 743.199 359.544C738.63 375.043 732.286 391.428 730.301 407.465C733.731 402.681 737.069 397.822 741.431 393.821C744.062 391.409 747.615 388.655 751.395 388.995C753.359 389.172 755.184 390.236 756.416 391.761C757.535 393.145 758.159 394.396 758.006 396.206C747.895 404.964 739.308 418.559 734.306 431.001C734.24 431.159 734.172 431.316 734.107 431.475C731.938 436.845 729.775 450.947 727.552 454.377C726.075 454.399 725.113 454.172 723.729 453.735C719.905 472.67 716.539 491.393 708.236 509.013Q708.789 505.723 709.109 502.402Q709.43 499.081 709.516 495.746Q709.603 492.411 709.455 489.078Q709.307 485.745 708.925 482.431C710.191 468.877 709.312 455.414 709.599 441.84C698.583 455.293 679.872 477.658 661.736 479.766C658.85 480.101 655.937 479.666 653.171 478.839C648.839 479.351 642.924 480.628 638.68 479.471C631.43 486.989 623.158 491.903 612.476 492.12C600.958 492.354 588.811 487.771 580.389 479.925C570.034 484.675 559.898 489.878 548.887 493.012L547.266 490.125C546.664 486.394 547.291 483.022 546.927 479.349C545.981 469.805 542.481 462.586 546.178 452.903C544.545 452.121 543.112 451.196 541.757 449.985C532.572 441.769 533.83 429.025 533.156 417.915C531.469 428.952 530.495 439.348 530.433 450.528C529.035 450.545 527.627 450.548 526.233 450.421C523.431 450.167 520.953 448.946 519.22 446.684C516.467 443.093 516.652 438.049 517.13 433.78C520.07 407.565 538.03 382.147 558.227 366.081C543.359 362.241 526.657 353.912 518.518 340.318C510.643 327.166 511.707 311.55 512.364 296.832C513.196 278.21 515.487 261.149 520.071 243.056C476.735 241.532 418.068 227.523 381.918 202.625C363.943 220.09 344.915 237.961 330.278 258.384C329.789 268.642 330.497 279.264 331.067 289.518Q332.252 311.836 334.505 334.071C335.341 341.89 336.663 349.751 337.239 357.581C333.567 364.566 328.874 371.04 324.575 377.645C323.037 410.606 322.915 429.664 313.762 461.863C311.771 468.868 307.197 474.988 305.406 481.875C307.838 490.466 312.756 491.948 316.202 498.865C321.216 508.93 325.335 542.283 325.706 554.047C324.085 555.765 322.474 557.495 320.544 558.873C316.653 561.652 311.889 563.385 307.079 562.431C302.164 561.455 298.167 558.047 295.434 553.968C288.129 543.061 292.683 529.418 290.143 517.321C282.401 480.458 260.003 434.386 268.128 396.36C268.367 395.403 268.618 394.519 269.024 393.616C270.128 391.161 271.58 389.186 274.246 388.348C277.622 387.288 281.299 389.115 284.195 390.717C287.621 392.124 290.699 393.839 293.87 395.746C288.757 378.77 284.132 361.181 277.325 344.797C281.056 326.104 282.09 307.098 283.12 288.099L285.282 246.998C285.704 237.586 285.198 227.611 286.322 218.302C287.209 210.951 294.142 200.563 297.248 193.621C300.993 185.254 305.041 172.886 309.348 165.636C313.451 158.73 320.056 152.555 325.574 146.757C335.315 136.52 345.645 125.57 356.674 116.704C363.619 111.12 371.433 106.337 378.824 101.349L410.963 79.5349C412.773 78.3272 414.657 77.0204 416.689 76.2153C427.04 72.1146 446.902 74.5913 457.713 70.1339C463.908 67.5796 469.532 61.7821 475.03 57.9271C504.155 66.2588 506.853 63.8678 535.66 55.6582Z"/>
	<path fill="#3D3D3D" d="M282.15 456.35C284.618 466.715 283.093 477.105 288.233 487.016C292.934 496.079 314.334 514.523 314.143 523.23C314.111 524.699 313.156 525.558 312.193 526.515C311.603 526.431 311.03 526.351 310.454 526.193C307.993 525.518 305.906 523.624 304.397 521.627C300.168 516.03 298.082 508.649 294.624 502.536C291.647 497.274 287.789 492.54 284.869 487.234C278.995 476.559 278.781 467.986 282.15 456.35Z"/>
	<path fill="#3D3D3D" d="M268.128 396.36C268.367 395.403 268.618 394.519 269.024 393.616C270.128 391.161 271.58 389.186 274.246 388.348C277.622 387.288 281.299 389.115 284.195 390.717C284.258 390.906 284.309 391.1 284.385 391.284C285.941 395.051 289.481 398.867 291.654 402.405C295.767 409.103 305.775 430.056 303.205 437.85C302.837 438.963 302.578 439.13 301.66 439.771C300.197 439.742 299.323 439.275 298.294 438.268C295.17 435.213 293.287 431.017 291.383 427.159C285.516 415.272 280.178 403.116 268.128 396.36Z"/>
	<path fill="#A1A09F" d="M730.301 407.465C733.731 402.681 737.069 397.822 741.431 393.821C744.062 391.409 747.615 388.655 751.395 388.995C753.359 389.172 755.184 390.236 756.416 391.761C757.535 393.145 758.159 394.396 758.006 396.206C747.895 404.964 739.308 418.559 734.306 431.001C734.24 431.159 734.172 431.316 734.107 431.475C731.938 436.845 729.775 450.947 727.552 454.377C726.075 454.399 725.113 454.172 723.729 453.735C726.731 438.416 726.334 422.636 730.301 407.465Z"/>
	<path fill="#A1A09F" d="M650.664 197.593C661.184 210.608 672.114 223.455 682.041 236.925C696.567 256.346 698.515 281.429 695.176 304.675C692.714 321.822 687.045 338.44 684.664 355.511C692.469 359.28 704.631 364.213 707.618 373.222C708.576 376.115 709.09 379.198 709.321 382.23C710.214 393.941 709.598 406.055 709.691 417.811C709.739 423.861 710.743 436.382 709.599 441.84C698.583 455.293 679.872 477.658 661.736 479.766C658.85 480.101 655.937 479.666 653.171 478.839C648.839 479.351 642.924 480.628 638.68 479.471C631.43 486.989 623.158 491.903 612.476 492.12C600.958 492.354 588.811 487.771 580.389 479.925C570.034 484.675 559.898 489.878 548.887 493.012L547.266 490.125C546.664 486.394 547.291 483.022 546.927 479.349C545.981 469.805 542.481 462.586 546.178 452.903C544.545 452.121 543.112 451.196 541.757 449.985C532.572 441.769 533.83 429.025 533.156 417.915C531.469 428.952 530.495 439.348 530.433 450.528C529.035 450.545 527.627 450.548 526.233 450.421C523.431 450.167 520.953 448.946 519.22 446.684C516.467 443.093 516.652 438.049 517.13 433.78C520.07 407.565 538.03 382.147 558.227 366.081C543.359 362.241 526.657 353.912 518.518 340.318C510.643 327.166 511.707 311.55 512.364 296.832C513.196 278.21 515.487 261.149 520.071 243.056C567.094 239.87 611.023 222.38 650.664 197.593Z"/>
	<path fill="#3D3D3D" d="M682.041 236.925C696.567 256.346 698.515 281.429 695.176 304.675C692.714 321.822 687.045 338.44 684.664 355.511C692.469 359.28 704.631 364.213 707.618 373.222C708.576 376.115 709.09 379.198 709.321 382.23C710.214 393.941 709.598 406.055 709.691 417.811C709.739 423.861 710.743 436.382 709.599 441.84C698.583 455.293 679.872 477.658 661.736 479.766C658.85 480.101 655.937 479.666 653.171 478.839C648.839 479.351 642.924 480.628 638.68 479.471C631.43 486.989 623.158 491.903 612.476 492.12C600.958 492.354 588.811 487.771 580.389 479.925C570.034 484.675 559.898 489.878 548.887 493.012L547.266 490.125C546.664 486.394 547.291 483.022 546.927 479.349C545.981 469.805 542.481 462.586 546.178 452.903C584.284 442.498 624.129 421.35 663.944 420.922Q662.035 386.441 660.955 351.924C660.515 340.343 658.893 327.014 660.416 315.675C661.649 306.5 665.206 296.838 667.687 287.896C672.407 270.879 676.98 253.848 682.041 236.925Z"/>
	<path fill="#070707" d="M546.178 452.903C584.284 442.498 624.129 421.35 663.944 420.922L672.659 441.561C644.934 440.623 624.383 447.613 599.824 459.208C612.141 456.358 634.758 453.891 645.8 461.128C649.712 463.692 653.858 470.071 654.668 474.765C654.884 476.016 654.973 477.213 654.082 478.236C653.858 478.492 653.467 478.678 653.171 478.839C648.839 479.351 642.924 480.628 638.68 479.471C631.43 486.989 623.158 491.903 612.476 492.12C600.958 492.354 588.811 487.771 580.389 479.925C570.034 484.675 559.898 489.878 548.887 493.012L547.266 490.125C546.664 486.394 547.291 483.022 546.927 479.349C545.981 469.805 542.481 462.586 546.178 452.903Z"/>
	<path fill="#FD0B08" d="M616.094 461.803C618.788 461.865 621.411 462.175 624.082 462.504C623.789 465.128 623.486 467.566 622.289 469.967C620.438 473.677 617.387 476.885 613.314 478.057C609.318 479.207 606.081 478.08 602.553 476.184C599.788 474.023 596.794 470.961 596.521 467.224C596.458 466.361 596.454 465.937 597.078 465.334C598.714 463.753 601.986 462.673 604.233 462.803C605.516 462.877 606.594 465.677 607.486 466.601C608.356 467.501 609.526 467.859 610.762 467.636C613.454 467.151 614.938 463.936 616.094 461.803Z"/>
	<path fill="#FBFBFB" d="M628.632 463.121C634.223 464.825 638.124 467.829 642.725 471.257C641.659 474.238 640.418 476.826 638.68 479.471C631.43 486.989 623.158 491.903 612.476 492.12C600.958 492.354 588.811 487.771 580.389 479.925C580.237 479.76 580.08 479.598 579.934 479.428C578.848 478.168 578.427 477.537 578.561 475.917C580.988 471.948 586.916 470.013 590.973 468.054C591.595 469.732 592.293 471.465 593.179 473.025C595.814 477.658 600.146 481.415 605.393 482.671Q605.833 482.773 606.279 482.852Q606.724 482.931 607.172 482.988Q607.621 483.045 608.072 483.078Q608.523 483.112 608.975 483.123Q609.427 483.134 609.879 483.122Q610.33 483.11 610.781 483.076Q611.232 483.041 611.68 482.983Q612.129 482.926 612.574 482.846Q613.019 482.765 613.459 482.663Q613.899 482.56 614.334 482.435Q614.769 482.311 615.196 482.164Q615.624 482.017 616.044 481.849Q616.463 481.681 616.874 481.492Q617.285 481.303 617.685 481.093Q618.086 480.883 618.475 480.654Q618.865 480.424 619.242 480.175C625.603 476.042 627.251 470.09 628.632 463.121Z"/>
	<path fill="#070707" d="M330.278 258.384C344.915 237.961 363.943 220.09 381.918 202.625C418.068 227.523 476.735 241.532 520.071 243.056C515.487 261.149 513.196 278.21 512.364 296.832C511.707 311.55 510.643 327.166 518.518 340.318C526.657 353.912 543.359 362.241 558.227 366.081C538.03 382.147 520.07 407.565 517.13 433.78C516.652 438.049 516.467 443.093 519.22 446.684C520.953 448.946 523.431 450.167 526.233 450.421C527.627 450.548 529.035 450.545 530.433 450.528C530.495 439.348 531.469 428.952 533.156 417.915C533.83 429.025 532.572 441.769 541.757 449.985C543.112 451.196 544.545 452.121 546.178 452.903C542.481 462.586 545.981 469.805 546.927 479.349C547.291 483.022 546.664 486.394 547.266 490.125L548.887 493.012C559.898 489.878 570.034 484.675 580.389 479.925C588.811 487.771 600.958 492.354 612.476 492.12C623.158 491.903 631.43 486.989 638.68 479.471C642.924 480.628 648.839 479.351 653.171 478.839C655.937 479.666 658.85 480.101 661.736 479.766C679.872 477.658 698.583 455.293 709.599 441.84C709.312 455.414 710.191 468.877 708.925 482.431Q709.307 485.745 709.455 489.078Q709.603 492.411 709.516 495.746Q709.43 499.081 709.109 502.402Q708.789 505.723 708.236 509.013C716.539 491.393 719.905 472.67 723.729 453.735C725.113 454.172 726.075 454.399 727.552 454.377C729.775 450.947 731.938 436.845 734.107 431.475C734.172 431.316 734.24 431.159 734.306 431.001C739.303 439.904 743.151 450.768 746.299 460.501C747.212 463.325 747.622 466.733 748.751 469.407L748.694 469.864C747.782 477.833 748.752 485.624 746.741 493.546C744.712 501.54 740.02 509.199 738.676 517.246C737.837 522.268 740.747 526.307 741.752 531.023C743.813 540.701 737.41 552.19 730.09 558.157C726.594 561.008 722.156 563.136 717.538 562.654C712.503 562.128 707.309 558.695 702.886 556.308C701.015 566.401 699.05 576.564 697.768 586.75L700.172 589.347C710.066 598.765 718.041 609.848 726.268 620.695C739.946 638.726 754.58 657.888 765.054 677.986C767.708 683.077 769.559 688.575 771.48 693.973C798.657 703.299 825.376 714.736 851.72 726.174Q919.777 755.405 984.795 790.884C997.268 797.782 1012.54 804.857 1024 813.007L1024 1024L538.44 1024L0 1024L0 813.361Q30.5332 795.711 61.7315 779.265Q92.9297 762.818 124.745 747.601Q156.561 732.384 188.946 718.419Q221.331 704.454 254.236 691.762C256.137 686.708 258.182 682.035 260.996 677.413C269.275 663.812 279.937 651.263 289.361 638.397C302.372 620.632 314.842 602.097 328.685 584.996L325.706 554.047C325.335 542.283 321.216 508.93 316.202 498.865C312.756 491.948 307.838 490.466 305.406 481.875C307.197 474.988 311.771 468.868 313.762 461.863C322.915 429.664 323.037 410.606 324.575 377.645C328.874 371.04 333.567 364.566 337.239 357.581C336.663 349.751 335.341 341.89 334.505 334.071Q332.252 311.836 331.067 289.518C330.497 279.264 329.789 268.642 330.278 258.384Z"/>
	<defs>
		<linearGradient id="gradient_0" gradientUnits="userSpaceOnUse" x1="447.94086" y1="476.23871" x2="441.55914" y2="470.76129">
			<stop offset="0" stop-color="#585956"/>
			<stop offset="1" stop-color="#727074"/>
		</linearGradient>
	</defs>
	<path fill="url(#gradient_0)" d="M441.046 465.564C443.975 467.173 446.107 469.779 447.016 473.025C447.947 476.357 447.309 479.863 445.488 482.769C444.098 484.986 441.11 486.558 438.872 487.786C437.861 487.747 436.832 487.414 435.847 487.184C439.382 485.408 442.382 483.688 445.244 480.939C444.716 475.454 443.192 470.615 441.046 465.564Z"/>
	<path fill="#3D3D3D" d="M379.517 465.392C383.248 460.924 387.243 459.928 392.773 459.285C389.727 464.042 386.359 468.169 387.602 474.103C387.642 474.296 387.692 474.486 387.738 474.677C388.034 476.815 388.266 478.977 388.782 481.075C383.847 476.6 381.466 471.646 379.517 465.392Z"/>
	<path fill="#6D6D6C" d="M387.738 474.677C388.752 475.498 389.72 476.359 390.851 477.014C392.607 479.956 394.459 482.353 397.143 484.536C407.865 490.798 418.489 491.732 430.479 488.742C432.284 488.291 434.023 487.519 435.847 487.184C436.832 487.414 437.861 487.747 438.872 487.786C436.709 488.807 434.484 489.771 432.24 490.596C420.277 494.996 409.879 493.143 398.578 487.998C395.089 485.982 391.746 483.817 388.782 481.075C388.266 478.977 388.034 476.815 387.738 474.677Z"/>
	<path fill="#1D1D1C" d="M495.667 612.88C501.535 618.809 507.882 622.346 516.486 622.438C521.965 622.496 526.642 620.911 531.581 618.767C530.396 620.919 527.827 623.172 525.788 624.589C521.51 627.562 515.476 628.625 510.393 627.713C505.576 626.849 500.193 624.061 497.497 619.849C496.179 617.79 495.174 615.276 495.667 612.88Z"/>
	<path fill="#FD0B08" d="M401.688 458.814C404.592 458.758 408.616 458.367 411.373 459.261C412.698 459.69 413.11 460.031 413.787 461.223C413.62 462.575 413.38 463.782 413.81 465.111C414.786 466.063 415.423 466.237 416.742 466.525C417.812 466.241 418.398 466.097 419.226 465.308C421.016 463.602 418.859 462.152 418.999 460.208C422.269 460.09 428.28 460.628 430.872 462.627C431.166 464.492 430.221 466.756 429.717 468.556C428.801 470.917 427.385 473.1 425.498 474.799C422.714 477.305 419.16 478.351 415.451 478.139C411.492 477.913 407.727 476.241 405.132 473.206C401.549 469.015 401.17 464.041 401.688 458.814Z"/>
	<path fill="#3D3D3D" d="M480.354 570.422C485.945 578.187 486.36 602.636 487.108 612.789C483.799 610.164 480.398 607.783 476.878 605.448C472.449 603.029 467.835 601.119 463.062 599.5C467.125 589.292 473.408 578.966 480.354 570.422Z"/>
	<path fill="#FBFBFB" d="M392.773 459.285C394.501 458.972 396.31 458.962 398.064 458.87C398.102 459.024 398.152 459.174 398.178 459.33C398.321 460.212 398.179 460.952 398.09 461.832C397.622 466.463 398.263 471.18 401.224 474.912Q401.54 475.306 401.875 475.683Q402.21 476.06 402.565 476.419Q402.919 476.778 403.291 477.119Q403.663 477.46 404.052 477.781Q404.441 478.103 404.845 478.404Q405.25 478.705 405.67 478.985Q406.089 479.266 406.523 479.524Q406.956 479.782 407.402 480.018Q407.848 480.254 408.305 480.467Q408.763 480.68 409.23 480.869Q409.698 481.059 410.175 481.224Q410.652 481.389 411.136 481.53Q411.621 481.67 412.112 481.786Q412.603 481.902 413.099 481.993Q413.595 482.083 414.096 482.148Q414.596 482.213 415.099 482.253Q416.008 482.333 416.921 482.323Q417.834 482.313 418.741 482.213Q419.648 482.114 420.542 481.925Q421.435 481.736 422.305 481.461Q423.175 481.185 424.014 480.825Q424.853 480.465 425.652 480.024Q426.451 479.584 427.204 479.066Q427.956 478.549 428.653 477.96C432.921 474.354 434.834 469.571 435.175 464.114Q435.216 463.445 435.247 462.776C437.18 463.665 439.215 464.482 441.046 465.564C443.192 470.615 444.716 475.454 445.244 480.939C442.382 483.688 439.382 485.408 435.847 487.184C434.023 487.519 432.284 488.291 430.479 488.742C418.489 491.732 407.865 490.798 397.143 484.536C394.459 482.353 392.607 479.956 390.851 477.014C389.72 476.359 388.752 475.498 387.738 474.677C387.692 474.486 387.642 474.296 387.602 474.103C386.359 468.169 389.727 464.042 392.773 459.285Z"/>
	<path fill="#A1A09F" d="M392.773 459.285C394.501 458.972 396.31 458.962 398.064 458.87C394.054 461.903 390.748 465.536 390.091 470.741C389.819 472.9 390.192 474.958 390.851 477.014C389.72 476.359 388.752 475.498 387.738 474.677C387.692 474.486 387.642 474.296 387.602 474.103C386.359 468.169 389.727 464.042 392.773 459.285Z"/>
	<path fill="#3D3D3D" d="M442.494 695.07C456.862 694.753 471.423 693.974 485.782 694.559C496.614 695 507.383 696.67 518.218 697.098C511.052 698.083 499.935 699.496 495.099 705.528C494.291 706.536 493.722 707.8 493.945 709.12C494.408 711.857 497.658 713.857 499.864 715.06C514.579 723.083 534.741 721.728 550.248 717.001Q551.617 716.585 552.964 716.104C565.181 723.931 578.876 731.422 590 740.673Q581.981 753.257 572.999 765.173C560.257 755.536 545.677 752.229 530.118 750.053C539.311 742.238 545.658 733.323 550.918 722.471C543.5 726.218 535.66 727.067 527.435 727.038C488.005 726.898 471.292 724.125 442.494 695.07Z"/>
	<path fill="#3D3D3D" d="M443.238 777.313C449.257 771.115 455.921 765.628 463.428 761.324C480.525 751.52 510.489 744.761 529.748 749.983C522.533 755.262 515.455 759.847 513.795 769.355C512.708 775.584 514.88 781.991 518.556 786.999C524.369 794.917 534.112 800.065 543.734 801.455C551.296 802.548 557.776 800.693 565.164 799.799C560.684 803.25 554.277 805.08 548.759 805.999C539.15 807.599 528.927 807.01 519.195 807.033C509.847 807.054 500.347 807.385 491.017 806.887C466.653 805.587 458.421 794.183 443.238 777.313Z"/>
	<path fill="#3D3D3D" d="M434.618 672.61Q429.258 679.89 424.808 687.76C422.582 691.699 420.571 696.077 417.933 699.744C416.945 701.117 415.876 702.15 414.404 702.987C412.546 704.044 410.369 704.739 408.268 703.974C406.937 703.49 406.026 702.421 405.38 701.206C399.696 690.519 401.058 676.029 404.3 664.833C410.77 642.49 433.988 610.05 450.916 594.045Q455.286 589.888 460.14 586.309Q464.995 582.73 470.258 579.785C465.501 586.632 459.109 595.667 457.854 604.094C457.289 607.893 458.07 611.469 460.237 614.645C465.308 622.075 474.95 627.217 481.529 633.433C486.018 637.674 490.443 642.28 494.172 647.213C496.264 649.979 498.027 652.99 500.144 655.721L500.764 655.481C500.338 661.213 498.149 664.851 493.823 668.604C491.126 670.943 487.25 672.993 485.287 675.933L485.434 676.866C486.627 677.374 487.596 677.469 488.87 677.594C487.215 678.486 485.137 678.821 483.333 679.378C475.733 681.721 468.71 683.925 460.67 683.413C451.748 682.846 440.699 679.485 434.618 672.61Z"/>
	<path fill="#3D3D3D" d="M345.373 511.268Q352.685 510.949 360.004 511.047C369.239 518.364 386.045 534.518 395.939 538.387C400.768 540.275 406.277 540.933 411.424 541.103C430.113 541.721 437.992 535.359 453.601 526.873C458.774 524.061 464.284 521.754 469.653 519.343C468.679 544.04 456.462 567.068 442.241 586.733C435.232 597.355 414.22 621.204 403.405 626.21C401.46 627.11 398.865 628.003 396.788 627.022C391.684 624.613 390.83 591.546 388.87 584.524C387.691 580.3 385.825 576.247 382.736 573.067C376.561 566.709 351.502 555.588 342.152 550.364C341.41 537.439 339.238 524.396 338.027 511.473L345.373 511.268Z"/>
	<path fill="#3D3D3D" d="M330.278 258.384C344.915 237.961 363.943 220.09 381.918 202.625C418.068 227.523 476.735 241.532 520.071 243.056C515.487 261.149 513.196 278.21 512.364 296.832C511.707 311.55 510.643 327.166 518.518 340.318C526.657 353.912 543.359 362.241 558.227 366.081C538.03 382.147 520.07 407.565 517.13 433.78C516.652 438.049 516.467 443.093 519.22 446.684C520.953 448.946 523.431 450.167 526.233 450.421C527.627 450.548 529.035 450.545 530.433 450.528C530.495 439.348 531.469 428.952 533.156 417.915C533.83 429.025 532.572 441.769 541.757 449.985C543.112 451.196 544.545 452.121 546.178 452.903C542.481 462.586 545.981 469.805 546.927 479.349C547.291 483.022 546.664 486.394 547.266 490.125C539.861 482.618 531.06 475.741 520.006 475.605C515.343 475.547 507.789 477.195 504.469 480.775C499.505 486.127 498.859 498.156 496.755 504.986C494.61 503.086 494.85 500.765 494.688 498.042C494.038 487.149 496.524 469.575 487.751 461.678C482.798 457.22 476.102 454.417 470.098 451.651C459.71 446.864 449.144 442.485 438.179 439.192C419.8 433.673 400.481 430.451 383.708 420.717C379.616 399.178 383.235 375.439 379.239 354.205C377.345 344.144 373.326 334.324 369.815 324.728C366.298 315.114 358.733 299.053 357.095 289.7C354.4 274.314 374.918 238.266 382.754 224.033C371.169 233.075 341.513 252.371 339.737 267.452C338.688 276.368 339.665 286.249 340.183 295.188C341.806 323.226 346.137 351.507 350.63 379.222C352.853 392.93 355.936 406.976 357.133 420.804C349.666 435.02 339.281 446.623 329.902 459.484C330.139 476.924 331.067 494.353 331.374 511.793C331.568 522.829 330.433 534.661 331.963 545.577C332.84 551.828 335.531 557.832 337.888 563.648C347.061 586.275 353.037 595.745 368.349 614.735C368.666 625.308 369.554 635.871 370.155 646.431C370.769 657.206 369.932 674.012 373.863 683.728C377.224 692.036 383.633 699.275 388.111 707.006C392.403 714.414 394.315 723.278 396.528 731.481C388.568 722.302 381.808 711.499 374.629 701.671Q362.785 685.697 351.418 669.38C347.649 664.022 343.594 658.697 340.162 653.121C338.713 650.767 337.361 648.302 336.655 645.615C334.996 639.294 334.427 632.412 333.636 625.935L330.156 597.099C329.682 593.131 329.493 588.894 328.685 584.996L325.706 554.047C325.335 542.283 321.216 508.93 316.202 498.865C312.756 491.948 307.838 490.466 305.406 481.875C307.197 474.988 311.771 468.868 313.762 461.863C322.915 429.664 323.037 410.606 324.575 377.645C328.874 371.04 333.567 364.566 337.239 357.581C336.663 349.751 335.341 341.89 334.505 334.071Q332.252 311.836 331.067 289.518C330.497 279.264 329.789 268.642 330.278 258.384Z"/>
	<path fill="#A1A09F" d="M430.458 370.827C447.275 376.245 495.403 400.336 503.952 415.256C504.314 423.75 502.406 430.699 499.614 438.622C498.862 440.628 497.933 442.504 496.964 444.41C469.75 428.6 447.32 396.724 430.458 370.827Z"/>
	<path fill="#A1A09F" d="M734.306 431.001C739.303 439.904 743.151 450.768 746.299 460.501C747.212 463.325 747.622 466.733 748.751 469.407L748.694 469.864C747.782 477.833 748.752 485.624 746.741 493.546C744.712 501.54 740.02 509.199 738.676 517.246C737.837 522.268 740.747 526.307 741.752 531.023C743.813 540.701 737.41 552.19 730.09 558.157C726.594 561.008 722.156 563.136 717.538 562.654C712.503 562.128 707.309 558.695 702.886 556.308C701.015 566.401 699.05 576.564 697.768 586.75C697.724 586.897 697.678 587.043 697.635 587.191C696.143 592.349 695.524 597.976 694.667 603.281L689.988 632.649C688.833 639.886 687.89 647.316 685.816 654.356Q685.185 656.48 684.391 658.55Q683.598 660.619 682.648 662.621Q681.697 664.623 680.595 666.546Q679.493 668.469 678.246 670.301C672.472 678.893 665.408 686.847 658.86 694.866Q642.607 714.998 625.778 734.65C619.404 742.087 613.315 750.863 606.105 757.418C594.486 772.056 581.98 790.931 565.164 799.799C557.776 800.693 551.296 802.548 543.734 801.455C534.112 800.065 524.369 794.917 518.556 786.999C514.88 781.991 512.708 775.584 513.795 769.355C515.455 759.847 522.533 755.262 529.748 749.983L530.118 750.053C545.677 752.229 560.257 755.536 572.999 765.173Q581.981 753.257 590 740.673C578.876 731.422 565.181 723.931 552.964 716.104Q551.617 716.585 550.248 717.001C534.741 721.728 514.579 723.083 499.864 715.06C497.658 713.857 494.408 711.857 493.945 709.12C493.722 707.8 494.291 706.536 495.099 705.528C499.935 699.496 511.052 698.083 518.218 697.098C525.512 696.449 532.653 693.704 539.981 692.938C547.777 692.122 555.525 693.293 563.319 692.82C568.148 692.527 572.892 690.934 577.658 690.143C588.088 688.413 595.004 694.875 602.87 700.553C599.593 693.133 596.408 685.656 592.419 678.584C591.691 679.698 590.946 680.784 589.944 681.676C576.756 693.405 553.127 680.635 537.395 679.554C529.625 679.021 522.162 680.172 516.112 685.445C507.011 680.031 499.531 677.439 488.87 677.594C487.596 677.469 486.627 677.374 485.434 676.866L485.287 675.933C487.25 672.993 491.126 670.943 493.823 668.604C498.149 664.851 500.338 661.213 500.764 655.481C501.894 649.815 503.567 645.297 507.354 640.804C509.069 647.214 512.439 669.486 516.956 673.546C517.559 674.087 517.828 673.819 518.547 673.696C525.803 667.681 522.733 647.523 525.21 638.898C529.847 622.752 544.655 624.709 556.133 618.042C558.443 616.7 560.761 615.007 561.369 612.244C561.706 610.715 561.509 608.971 560.57 607.684C559.583 606.331 557.909 605.261 556.242 605.041C549.055 604.094 537.313 614.577 531.581 618.767C526.642 620.911 521.965 622.496 516.486 622.438C507.882 622.346 501.535 618.809 495.667 612.88C494.226 610.318 492.873 607.759 492.814 604.75C492.678 597.939 496.302 591.576 496.532 584.765C497.084 568.422 496.55 551.864 496.27 535.512C496.095 525.315 495.616 515.144 496.755 504.986C498.859 498.156 499.505 486.127 504.469 480.775C507.789 477.195 515.343 475.547 520.006 475.605C531.06 475.741 539.861 482.618 547.266 490.125L548.887 493.012C559.898 489.878 570.034 484.675 580.389 479.925C588.811 487.771 600.958 492.354 612.476 492.12C623.158 491.903 631.43 486.989 638.68 479.471C642.924 480.628 648.839 479.351 653.171 478.839C655.937 479.666 658.85 480.101 661.736 479.766C679.872 477.658 698.583 455.293 709.599 441.84C709.312 455.414 710.191 468.877 708.925 482.431Q709.307 485.745 709.455 489.078Q709.603 492.411 709.516 495.746Q709.43 499.081 709.109 502.402Q708.789 505.723 708.236 509.013C716.539 491.393 719.905 472.67 723.729 453.735C725.113 454.172 726.075 454.399 727.552 454.377C729.775 450.947 731.938 436.845 734.107 431.475C734.172 431.316 734.24 431.159 734.306 431.001Z"/>
	<path fill="#3D3D3D" d="M561.088 572.656C561.865 573.051 562.504 573.488 563.193 574.023C568.592 578.218 573.253 583.659 577.934 588.643C603.177 615.522 615.835 643.571 620.943 680.117C618.522 676.872 614.41 662.484 612.386 657.347Q608.094 646.495 602.556 636.222C595.229 622.868 585.395 611.933 576.612 599.637C570.519 591.106 565.68 582.049 561.088 572.656Z"/>
	<path fill="#FBFBFB" d="M517.875 490.718C521.954 495.755 520.077 572.919 521.402 585.228C522.375 594.278 528.008 597.897 530.095 605.456C530.711 607.688 530.211 610.116 529.043 612.09C526.952 615.626 523.296 617.075 519.522 618.113C517.842 618.117 516.007 618.203 514.368 617.798C510.343 616.803 508.457 613.597 506.381 610.348C506.233 599.928 512.262 596.211 513.262 587.128C514.443 576.404 514.185 565.03 514.444 554.232C514.95 533.214 515.445 511.612 517.875 490.718Z"/>
	<path fill="#3D3D3D" d="M638.68 479.471C642.924 480.628 648.839 479.351 653.171 478.839C646.085 491.934 637.318 505.755 622.248 510.331C610.568 513.879 595.627 512.081 584.95 506.238Q583.073 505.205 581.255 504.071C594.83 516.908 612.355 523.749 631.119 523.221C636.584 523.068 641.533 522.073 646.619 520.058C634.7 528.898 624.376 533.207 609.423 533.873C605.216 534.06 600.758 534.294 596.57 533.758C582.594 531.967 562.088 512.107 553.909 501.034C552.053 498.521 550.268 495.82 548.887 493.012C559.898 489.878 570.034 484.675 580.389 479.925C588.811 487.771 600.958 492.354 612.476 492.12C623.158 491.903 631.43 486.989 638.68 479.471Z"/>
	<path fill="#3D3D3D" d="M734.306 431.001C739.303 439.904 743.151 450.768 746.299 460.501C747.212 463.325 747.622 466.733 748.751 469.407L748.694 469.864C747.782 477.833 748.752 485.624 746.741 493.546C744.712 501.54 740.02 509.199 738.676 517.246C737.837 522.268 740.747 526.307 741.752 531.023C743.813 540.701 737.41 552.19 730.09 558.157C726.594 561.008 722.156 563.136 717.538 562.654C712.503 562.128 707.309 558.695 702.886 556.308C701.015 566.401 699.05 576.564 697.768 586.75C697.724 586.897 697.678 587.043 697.635 587.191C696.143 592.349 695.524 597.976 694.667 603.281L689.988 632.649C688.833 639.886 687.89 647.316 685.816 654.356Q685.185 656.48 684.391 658.55Q683.598 660.619 682.648 662.621Q681.697 664.623 680.595 666.546Q679.493 668.469 678.246 670.301C672.472 678.893 665.408 686.847 658.86 694.866Q642.607 714.998 625.778 734.65C619.404 742.087 613.315 750.863 606.105 757.418C606.968 753.283 615.055 741.649 617.521 737.303C622.425 728.666 626.534 719.685 628.913 710.01C632.097 697.054 633.904 683.77 635.975 670.603L644.373 617.321C645.941 607.459 647.168 592.029 650.894 582.982C653.847 575.812 659.395 570.096 664.833 564.741C672.368 557.32 680.647 550.518 687.898 542.835C703.302 526.513 705.432 503.557 708.925 482.431Q709.307 485.745 709.455 489.078Q709.603 492.411 709.516 495.746Q709.43 499.081 709.109 502.402Q708.789 505.723 708.236 509.013C716.539 491.393 719.905 472.67 723.729 453.735C725.113 454.172 726.075 454.399 727.552 454.377C729.775 450.947 731.938 436.845 734.107 431.475C734.172 431.316 734.24 431.159 734.306 431.001Z"/>
	<path fill="#070707" d="M726.238 454.675C728.589 456.274 730.925 461.407 732.185 464.033C735.915 471.803 739.779 485.704 736.599 494.077C734.641 499.233 727.246 501.572 722.579 503.681C719.364 509.86 716.79 516.406 714.199 522.864C713.118 525.573 711.987 528.186 710.663 530.786C713.355 514.521 719.184 499.26 722.699 483.275C724.751 473.941 725.277 464.175 726.238 454.675Z"/>
	<path fill="#1D1D1C" d="M771.48 693.973C798.657 703.299 825.376 714.736 851.72 726.174Q919.777 755.405 984.795 790.884C997.268 797.782 1012.54 804.857 1024 813.007L1024 1024L538.44 1024C540.838 1018.25 542.513 1011.78 544.416 1005.82L555.181 971.65C557.001 965.743 558.468 958.206 561.395 952.816C562.442 950.888 564.217 949.181 565.781 947.651C570.743 942.801 576.122 938.298 581.25 933.617L609.642 907.576C618.498 899.496 628.226 889.123 637.875 882.321C641.059 880.077 644.493 878.883 648.21 877.883C657.15 882.898 665.441 889.92 673.863 895.806L730.74 936.113C741.065 943.577 751.26 951.855 761.958 958.741L762.455 959.137C762.645 958.898 762.883 958.69 763.025 958.419C764.42 955.746 766.39 939.462 767.068 935.322Q777.209 875.917 783.168 815.948C784.827 797.863 786.74 779.429 785.778 761.256C784.566 738.341 778.966 715.596 771.48 693.973Z"/>
</svg>
