<?xml version="1.0" encoding="utf-8" ?>
<svg xmlns="http://www.w3.org/2000/svg" xmlns:xlink="http://www.w3.org/1999/xlink" width="1024" height="1024">
	<path fill="#FEFEFE" d="M0 0L1024 0L1024 1024L0 1024L0 0Z"/>
	<path fill="#E5E4E3" d="M511.132 161.416C514.019 162.77 573.972 233.999 583.824 244.078C574.041 247.195 564.579 252.078 555.174 256.195Q533.622 265.652 511.782 274.425C505.139 273.001 498.282 269.534 491.94 267.007C473.919 259.827 456.188 251.971 438.249 244.589L511.132 161.416Z"/>
	<path fill="#D1D0CF" d="M890.297 528.409C890.337 528.849 890.387 529.288 890.405 529.729C890.656 535.803 890.063 542.141 889.95 548.243Q889.67 568.914 889.061 589.577Q888.572 603.932 887.87 618.278C887.515 627.346 887.391 636.411 886.061 645.405C880.375 683.857 858.871 719.977 832.449 747.809C769.934 813.663 679.753 848.177 591.223 860.394C567.378 863.685 542.966 865.161 518.92 865.746C503.152 866.13 487.328 865.348 471.601 864.228C376.012 857.423 274.477 826.025 203.993 758.523C170.308 726.263 144.428 684.499 138.083 637.69C137.267 631.675 137.287 625.411 137.039 619.338Q136.29 602.863 135.945 586.375C135.295 567.686 135.035 548.947 134.257 530.274C134.737 530.499 136.563 547.758 136.88 550.421C141.157 586.367 147.624 621.553 165.886 653.33C199.96 712.624 256.547 750.615 319.787 773.78C336.17 779.78 353.006 784.436 369.84 788.968C490.708 821.506 649.183 813.142 759.12 749.717C816.097 716.845 867.789 662.677 881.077 596.414Q885.379 574.151 887.771 551.602C888.528 544.711 888.362 535.253 890.171 528.826C890.21 528.687 890.255 528.548 890.297 528.409Z"/>
	<path fill="#D1D0CF" d="M543.439 293.136C557.152 276.408 572.646 261.218 585.531 243.798L585.674 259.798C599.62 260.991 615.982 264.858 629.697 268.039C686.609 281.242 740.313 301.759 788.33 335.551C835.349 368.641 876.647 416.287 886.546 474.495C894.112 518.981 879.859 563.837 854.139 600.133C804.606 670.036 720.467 709.378 639.279 728.633C628.344 731.227 617.398 733.827 606.311 735.696C499.869 753.64 383.804 741.63 286.317 693.877C268.147 684.977 250.729 675.198 234.238 663.434C187.069 629.783 148.597 582.476 138.964 524.001C131.323 477.614 145.158 434.578 172.167 396.997C230.868 315.319 341.669 275.646 437.05 260.102L436.959 245.335C443.589 254.715 451.982 262.922 459.56 271.537C465.745 278.567 471.548 286.334 478.199 292.901C487.691 294.4 504.235 293.378 514.503 293.398C522.321 293.413 536.237 294.383 543.439 293.136Z"/>
	<path fill="#898888" d="M478.199 292.901C487.691 294.4 504.235 293.378 514.503 293.398C522.321 293.413 536.237 294.383 543.439 293.136C543.584 303.577 543.52 314.196 544.322 324.603C558.559 316.436 572.06 306.368 586.854 299.244L579.983 309.362C575.866 314.859 547.287 348.616 542.541 349.079C542.357 349.096 542.172 349.091 541.988 349.097C521.221 348.672 500.431 349.272 479.66 349.018L479.285 348.809C465.938 341.408 450.36 323.02 441.708 310.318C439.788 307.051 437.722 303.807 436.371 300.254Q447.845 307.11 459.39 313.844C463.723 316.38 468.438 318.804 472.551 321.672C474.507 322.668 476.456 323.749 478.475 324.611C478.478 314.166 479.139 303.289 478.199 292.901Z"/>
	<path fill="#787878" d="M436.371 300.254Q447.845 307.11 459.39 313.844C463.723 316.38 468.438 318.804 472.551 321.672L471.754 322.134C466.606 319.673 461.786 316.615 456.771 313.904C453.094 311.916 449.225 310.338 445.55 308.319C451.843 316.863 479.074 340.324 479.285 348.809C465.938 341.408 450.36 323.02 441.708 310.318C439.788 307.051 437.722 303.807 436.371 300.254Z"/>
	<path fill="#E5E4E3" d="M478.199 292.901C487.691 294.4 504.235 293.378 514.503 293.398C522.321 293.413 536.237 294.383 543.439 293.136C543.584 303.577 543.52 314.196 544.322 324.603C522.453 325.247 500.367 324.528 478.475 324.611C478.478 314.166 479.139 303.289 478.199 292.901Z"/>
	<path fill="#B2B1B1" d="M207.665 544.466C204.123 538.27 202.574 529.844 201.419 522.865C195.411 486.572 205.106 451.759 226.482 422.211C274.579 355.729 363.612 322.894 441.708 310.318C450.36 323.02 465.938 341.408 479.285 348.809L479.66 349.018C478.871 363.176 479.794 377.619 479.55 391.832C477.872 391.976 476.033 391.994 474.416 392.454C393.625 397.803 294.281 427.921 239.233 490.715C228.914 502.486 220.191 515.208 213.697 529.502C211.47 534.405 209.859 539.581 207.665 544.466Z"/>
	<path fill="#B2B1B1" d="M541.988 349.097C542.172 349.091 542.357 349.096 542.541 349.079C547.287 348.616 575.866 314.859 579.983 309.362C596.137 311.515 612.267 315.21 628.029 319.327C690.128 335.546 755.639 364.954 795.586 417.213C817.716 446.165 829.617 481.728 824.556 518.268C823.773 523.922 821.881 537.176 818.275 541.592C809.424 523.066 799.983 506.751 786.016 491.474C727.998 428.01 627.606 395.266 543.53 391.557C542.994 381.717 543.522 371.609 543.561 361.742C543.576 358.02 544.111 353.26 543.161 349.678L541.988 349.097Z"/>
	<path fill="#FEFEFE" d="M479.66 349.018C500.431 349.272 521.221 348.672 541.988 349.097L543.161 349.678C544.111 353.26 543.576 358.02 543.561 361.742C543.522 371.609 542.994 381.717 543.53 391.557C627.606 395.266 727.998 428.01 786.016 491.474C799.983 506.751 809.424 523.066 818.275 541.592C817.698 546.425 814.101 552.249 811.801 556.513C797.907 582.277 779.239 602.797 756.279 620.826C676.985 683.088 551.531 701.117 453.89 689.262C376.416 679.855 281.798 650.527 231.674 586.522Q225.231 578.151 219.779 569.102Q214.328 560.053 209.939 550.444C209.208 548.82 207.622 546.225 207.665 544.466C209.859 539.581 211.47 534.405 213.697 529.502C220.191 515.208 228.914 502.486 239.233 490.715C294.281 427.921 393.625 397.803 474.416 392.454C476.033 391.994 477.872 391.976 479.55 391.832C479.794 377.619 478.871 363.176 479.66 349.018Z"/>
	<path fill="#D1D0CF" d="M479.66 349.018C500.431 349.272 521.221 348.672 541.988 349.097L543.161 349.678C544.111 353.26 543.576 358.02 543.561 361.742C543.522 371.609 542.994 381.717 543.53 391.557L543.589 406.911C522.122 406.476 500.663 406.937 479.205 406.666C479.168 402.797 480.432 396.104 478.504 392.864C477.234 392.113 475.832 392.379 474.416 392.454C476.033 391.994 477.872 391.976 479.55 391.832C479.794 377.619 478.871 363.176 479.66 349.018Z"/>
</svg>
