<?xml version="1.0" encoding="utf-8" ?>
<svg xmlns="http://www.w3.org/2000/svg" xmlns:xlink="http://www.w3.org/1999/xlink" width="1024" height="1024">
	<path fill="#FEFEFE" d="M0 0L1024 0L1024 1024L0 1024L0 0Z"/>
	<path fill="#A1A1A1" d="M139.426 430.459C140.99 430.463 143.336 430.175 144.671 430.981C145.234 438.176 145.367 456.719 144.541 463.557C131.858 463.64 110.702 461.189 100.397 453.4C98.3143 451.826 96.4172 449.668 96.1776 446.959C96.0044 445.002 96.813 443.218 98.0904 441.776C105.555 433.344 128.66 431.173 139.426 430.459Z"/>
	<path fill="#D8D7D5" d="M704.355 542.496C714.813 542.553 726.073 541.753 736.459 542.645C747.342 543.112 758.215 543.456 768.987 545.216Q772.02 545.723 775.029 546.356Q778.038 546.989 781.019 547.747Q783.999 548.506 786.944 549.389Q789.89 550.271 792.796 551.276Q795.703 552.282 798.564 553.407Q801.426 554.533 804.238 555.778Q807.05 557.023 809.807 558.384Q812.564 559.745 815.262 561.221Q817.96 562.696 820.594 564.284Q823.228 565.871 825.793 567.567Q828.358 569.263 830.85 571.065Q833.342 572.867 835.756 574.771Q838.171 576.676 840.503 578.68Q842.836 580.684 845.082 582.784Q847.329 584.883 849.485 587.075Q851.642 589.268 853.705 591.548C866.658 605.629 876.727 622.55 883.97 640.219C886.081 645.37 893.015 669.921 895.893 671.872L787.716 705.648Q770.841 710.781 753.904 715.706C748.267 717.378 742.3 719.675 736.54 720.74C725.871 720.728 715.173 720.873 704.51 720.478L704.355 542.496Z"/>
	<path fill="#5D502F" d="M704.355 542.496C714.813 542.553 726.073 541.753 736.459 542.645C736.437 601.97 735.625 661.431 736.54 720.74C725.871 720.728 715.173 720.873 704.51 720.478L704.355 542.496Z"/>
	<path fill="#A1A1A1" d="M895.893 671.872C900.655 670.336 905.422 668.827 910.108 667.07C916.313 684.382 921.995 702.055 928.901 719.094L871.348 736.857C845.466 744.973 819.709 753.326 793.722 761.119C776.57 766.262 759.097 773.378 741.496 776.591C718.671 780.758 693.787 781.574 670.617 782.514Q622.271 784.678 573.877 784.732L573.963 750.798Q543.39 750.677 512.818 750.916Q448.668 750.619 384.518 751.008L384.492 783.388C294.506 783.19 204.457 784.298 114.481 783.27L114.332 720L128.238 719.99L237.238 720.06C255.458 720.06 273.753 719.771 291.966 720.169C329.695 720.855 367.503 720.102 405.241 720.085L587.974 720.343C626.755 720.292 665.753 719.113 704.51 720.478C715.173 720.873 725.871 720.728 736.54 720.74C742.3 719.675 748.267 717.378 753.904 715.706Q770.841 710.781 787.716 705.648L895.893 671.872Z"/>
	<path fill="#D8D7D5" d="M328.017 328.45L328.288 327.954C332.966 319.193 335.964 309.725 340.943 301.004C353.492 279.029 372.872 258.38 394.821 245.648C397.741 243.954 400.976 241.676 404.19 240.646C405.77 240.139 406.85 240.082 408.396 240.81C411.449 244.063 410.322 248.956 410.533 253.044C410.669 255.656 411.086 258.283 411.447 260.872Q413.002 272.818 415.613 284.579Q418.225 296.339 421.872 307.821C429.004 329.681 438.887 350.69 450.14 370.703C489.465 440.641 549.859 499.334 626.047 526.988C651.152 536.1 677.031 541.656 703.783 542.48L704.355 542.496L704.51 720.478C665.753 719.113 626.755 720.292 587.974 720.343L405.241 720.085C367.503 720.102 329.695 720.855 291.966 720.169C273.753 719.771 255.458 720.06 237.238 720.06L128.238 719.99C127.156 676.565 128.103 638.291 133.788 595.052C135.473 582.24 137.764 569.447 140.149 556.747C141.804 547.936 144.799 537.847 144.502 528.914Q144.174 496.235 144.541 463.557C145.367 456.719 145.234 438.176 144.671 430.981C143.336 430.175 140.99 430.463 139.426 430.459C141.219 430.178 142.987 429.935 144.796 429.788C144.194 408.183 144.355 386.588 144.219 364.979C144.167 356.657 142.968 340.093 144.606 332.502C146.419 330.922 149.406 330.683 151.722 330.538C157.705 330.163 163.895 330.476 169.896 330.503L202.111 330.605L291.798 330.493C301.219 330.501 314.197 331.504 323.235 330.31C325.069 330.068 326.451 329.4 328.017 328.45Z"/>
	<path fill="#A1A1A1" d="M591.91 533.7C598.846 535.968 607.34 541.232 614.013 544.623C610.737 552.196 606.742 559.58 603.058 566.969C596.012 564.578 587.025 558.794 580.366 555.034Q586.256 544.431 591.91 533.7Z"/>
	<path fill="#A1A1A1" d="M475.916 439.889C481.793 446.176 487.232 452.919 492.988 459.329C487.326 464.889 481.841 470.659 476.02 476.053L457.822 456.973L475.916 439.889Z"/>
	<path fill="#A1A1A1" d="M552.428 511.22C557.221 513.169 569.583 521.673 573.708 525.191C568.859 531.704 565.303 539.148 560.697 545.843C553.321 540.846 545.802 536.065 538.439 531.047L552.428 511.22Z"/>
	<path fill="#A1A1A1" d="M511.613 478.336C514.923 479.633 527.551 491.97 531.376 495.175C526.251 501.645 520.994 508.055 516.233 514.8C509.417 508.542 502.106 502.9 495.568 496.327C500.759 490.206 506.305 484.362 511.613 478.336Z"/>
	<path fill="#A1A1A1" d="M443.553 399.971C446.74 402.149 456.516 417.236 459.477 421.507C453.059 426.154 447.251 431.653 441.153 436.709C435.217 429.718 429.842 422.067 424.266 414.774C430.407 409.538 437.105 404.829 443.553 399.971Z"/>
	<path fill="#A1A1A1" d="M414.6 353.963C417.405 355.744 426.845 373.145 428.805 377.097C422.484 381.734 416.206 386.456 409.686 390.81C404.458 383.157 399.761 374.997 394.762 367.181C401.499 362.98 408.021 358.407 414.6 353.963Z"/>
</svg>
