<?xml version="1.0" encoding="utf-8" ?>
<svg xmlns="http://www.w3.org/2000/svg" xmlns:xlink="http://www.w3.org/1999/xlink" width="1024" height="1024">
	<path fill="#FEFEFE" d="M0 0L1024 0L1024 1024L0 1024L0 0Z"/>
	<path fill="#AFAEAE" d="M513.475 968.046C515.225 965.343 516.346 961.931 517.682 958.981Q520.9 951.854 524.611 944.971C531.848 931.814 540.852 919.808 549.528 907.601C554.213 901.009 558.716 893.774 564.172 887.82C567.347 884.356 571.275 880.855 575.536 878.795C577.169 878.006 578.129 877.829 579.894 878.479C572.237 892.247 563.337 905.369 554.846 918.634Q533.91 951.32 513.686 984.452C511.845 980.35 513.151 972.606 513.475 968.046Z"/>
	<path fill="#AFAEAE" d="M498.5 74.0302C493.281 68.4969 489.138 63.0966 489.404 55.0396Q489.418 54.5041 489.46 53.97Q489.501 53.436 489.57 52.9048Q489.64 52.3736 489.736 51.8466Q489.832 51.3197 489.955 50.7983Q490.079 50.277 490.229 49.7627Q490.378 49.2485 490.555 48.7426Q490.731 48.2367 490.933 47.7405Q491.134 47.2443 491.362 46.7592Q491.589 46.2741 491.841 45.8012Q492.092 45.3284 492.368 44.8692Q492.644 44.4099 492.943 43.9655Q493.242 43.521 493.563 43.0925Q493.885 42.6641 494.228 42.2527Q494.571 41.8413 494.935 41.4481Q495.299 41.0548 495.682 40.6809Q496.066 40.3069 496.468 39.9531C501.297 35.6901 507.818 33.7332 514.204 34.1649C520.118 34.5646 525.821 37.0293 529.668 41.6246C533.378 46.0573 535.29 52.2897 534.748 58.0404C534.142 64.4831 530.84 68.9254 526.398 73.2871C526.428 75.8779 526.553 78.5034 526.448 81.0906C525.944 78.8321 525.996 76.4861 525.929 74.1806C514.759 78.5861 509.426 77.9774 498.5 74.0302Z"/>
	<path fill="#949394" d="M534.06 234.309C534.215 236.061 534.306 237.828 534.735 239.539C542.495 240.358 550.853 239.717 558.671 239.685L602.513 239.518C609.509 239.459 617.797 238.528 624.654 239.878C627.939 240.524 631.066 242.14 633.124 244.837C635.461 247.901 636.078 252.008 635.424 255.742C634.86 258.96 633.16 262.267 630.329 264.043C624.741 267.548 589.264 265.94 580.421 265.974L534.98 265.873Q523.772 265.784 512.564 265.955L512.5 239.81C519.235 239.849 526.847 240.621 533.457 239.542C534.142 238.09 533.989 235.924 534.06 234.309Z"/>
	<path fill="#754A27" d="M498.5 74.0302C509.426 77.9774 514.759 78.5861 525.929 74.1806C525.996 76.4861 525.944 78.8321 526.448 81.0906C527.721 118.075 530.273 155.03 532.12 191.988C532.822 206.047 533.9 220.237 534.06 234.309C533.989 235.924 534.142 238.09 533.457 239.542C526.847 240.621 519.235 239.849 512.5 239.81Q501.374 239.844 490.248 239.739C490.442 236.724 490.467 233.751 490.433 230.732C490.576 221.97 491.278 213.153 491.689 204.395Q493.027 174.734 494.702 145.091C495.992 121.45 496.468 97.6057 498.5 74.0302Z"/>
	<path fill="#C1C0C0" d="M534.98 265.873L580.421 265.974L580.068 699.275L580.144 825.168L580.203 860.358C580.212 866.235 580.732 872.683 579.894 878.479C578.129 877.829 577.169 878.006 575.536 878.795C571.275 880.855 567.347 884.356 564.172 887.82C558.716 893.774 554.213 901.009 549.528 907.601C540.852 919.808 531.848 931.814 524.611 944.971Q520.9 951.854 517.682 958.981C516.346 961.931 515.225 965.343 513.475 968.046C512.786 961.248 513.408 953.877 513.348 947.008Q513.048 923.065 513.022 899.12C513.47 898.77 513.661 898.653 514.031 898.265C516.894 895.255 534.653 859.551 535.209 855.564C536.16 848.763 535.549 841.258 535.52 834.383L535.473 797.141L535.428 664.445L535.116 370.277C534.945 335.494 535.927 300.643 534.98 265.873Z"/>
	<path fill="#AFAEAE" d="M489.895 239.564C489.917 236.572 489.974 233.697 490.433 230.732C490.467 233.751 490.442 236.724 490.248 239.739Q501.374 239.844 512.5 239.81L512.564 265.955Q523.772 265.784 534.98 265.873C535.927 300.643 534.945 335.494 535.116 370.277L535.428 664.445L535.473 797.141L535.52 834.383C535.549 841.258 536.16 848.763 535.209 855.564C534.653 859.551 516.894 895.255 514.031 898.265C513.661 898.653 513.47 898.77 513.022 899.12C511.488 897.019 510.351 894.411 509.117 892.116C502.762 880.298 498.477 866.844 490.67 855.9C490.201 847.031 490.487 837.997 490.484 829.111L490.459 780.965L490.072 637.579L489.833 393.404C489.787 350.93 489.15 308.424 489.663 265.954C473.705 265.974 457.536 265.213 441.617 265.846C432.597 265.927 403.439 267.834 397.492 263.299C394.709 261.177 392.803 257.268 392.532 253.811C392.248 250.183 393.836 246.269 396.312 243.649C398.068 241.792 400.106 240.595 402.62 240.103C411.024 238.46 424.186 239.547 433.162 239.58L489.895 239.564Z"/>
	<path fill="#FEFEFE" d="M489.663 265.954L512.547 265.962C514.006 335.76 512.994 405.712 512.981 475.531L513.022 899.12C511.488 897.019 510.351 894.411 509.117 892.116C502.762 880.298 498.477 866.844 490.67 855.9C490.201 847.031 490.487 837.997 490.484 829.111L490.459 780.965L490.072 637.579L489.833 393.404C489.787 350.93 489.15 308.424 489.663 265.954Z"/>
	<path fill="#DFDEDE" d="M441.617 265.846C457.536 265.213 473.705 265.974 489.663 265.954C489.15 308.424 489.787 350.93 489.833 393.404L490.072 637.579L490.459 780.965L490.484 829.111C490.487 837.997 490.201 847.031 490.67 855.9C498.477 866.844 502.762 880.298 509.117 892.116C510.351 894.411 511.488 897.019 513.022 899.12Q513.048 923.065 513.348 947.008C513.408 953.877 512.786 961.248 513.475 968.046C513.151 972.606 511.845 980.35 513.686 984.452C513.424 985.247 513.655 984.816 512.766 985.595C508.471 983.426 457.43 893.21 442.62 878.827C442.183 866.43 442.519 853.902 442.519 841.489L442.523 771.57L442.337 443.549L442.507 323.229C442.511 305.64 442.823 288.006 442.528 270.423C442.5 268.706 442.714 267.206 441.617 265.846Z"/>
</svg>
