<?xml version="1.0" encoding="utf-8" ?>
<svg xmlns="http://www.w3.org/2000/svg" xmlns:xlink="http://www.w3.org/1999/xlink" width="1024" height="1024">
	<path fill="#FEFEFE" d="M0 0L1024 0L1024 1024L0 1024L0 0Z"/>
	<path fill="#989797" d="M498.529 196.168C492.032 191.057 487.332 185.727 486.395 177.115C485.618 169.977 487.279 163.305 491.912 157.689C496.2 152.491 503.064 149.387 509.71 148.943Q510.348 148.895 510.988 148.878Q511.628 148.862 512.268 148.878Q512.908 148.894 513.546 148.942Q514.184 148.99 514.82 149.07Q515.455 149.15 516.085 149.261Q516.715 149.373 517.339 149.516Q517.963 149.659 518.579 149.834Q519.195 150.008 519.801 150.213Q520.408 150.418 521.003 150.653Q521.598 150.888 522.181 151.153Q522.764 151.417 523.333 151.711Q523.902 152.004 524.455 152.326Q525.008 152.648 525.545 152.997Q526.081 153.346 526.6 153.722Q527.118 154.097 527.617 154.498Q528.116 154.899 528.594 155.325Q529.07 155.757 529.523 156.212Q529.976 156.668 530.405 157.146Q530.835 157.624 531.239 158.123Q531.644 158.622 532.023 159.141Q532.401 159.66 532.753 160.198Q533.105 160.736 533.429 161.29Q533.753 161.845 534.049 162.416Q534.344 162.986 534.61 163.571Q534.877 164.156 535.113 164.753Q535.349 165.351 535.554 165.96Q535.76 166.569 535.934 167.187Q536.108 167.805 536.251 168.432Q536.393 169.058 536.504 169.691Q536.615 170.324 536.693 170.962Q536.771 171.6 536.817 172.241Q536.863 172.882 536.876 173.524C537.011 180.582 533.932 187.68 528.98 192.688C527.751 193.931 526.338 195.027 524.975 196.12C523.683 196.702 522.383 197.285 521.072 197.821C513.131 201.07 506.066 199.231 498.529 196.168Z"/>
	<path fill="#989797" d="M362.016 844.092L447.922 843.985C455.474 843.978 475.879 845.159 482.106 843.647L482.681 841.604L483.104 843.21C485.718 843.934 519.599 843.95 521.359 843.004L521.703 841.6L522.036 842.965C522.605 843.305 523.042 843.474 523.714 843.49C535.166 843.764 546.871 843.096 558.364 843.09L662.449 843.073L704.95 842.981C712.528 842.967 720.393 842.552 727.947 843.133C740.326 853.233 753.618 863.469 764.761 874.928L440.209 874.998C379.638 875.012 318.921 876.005 258.365 874.881C263.915 869.129 289.996 848.544 296.983 844.404C304.499 843.935 312.215 844.233 319.749 844.211L362.016 844.092Z"/>
	<path fill="#C9C9C8" d="M498.529 196.168C506.066 199.231 513.131 201.07 521.072 197.821C522.383 197.285 523.683 196.702 524.975 196.12L524.932 198.439C525.459 213.728 524.99 229.099 525.062 244.4Q527.7 244.552 530.333 244.769Q532.967 244.986 535.594 245.269Q538.221 245.552 540.84 245.899Q543.459 246.247 546.069 246.66Q548.679 247.073 551.278 247.551Q553.876 248.028 556.463 248.57Q559.049 249.112 561.62 249.719Q564.192 250.325 566.748 250.995Q569.304 251.665 571.843 252.398Q574.381 253.131 576.901 253.927Q579.42 254.724 581.919 255.582Q584.418 256.441 586.895 257.361Q589.371 258.281 591.825 259.263Q594.278 260.245 596.706 261.287Q599.134 262.33 601.535 263.432Q603.936 264.534 606.31 265.696Q608.683 266.858 611.026 268.078Q613.37 269.299 615.682 270.577Q617.995 271.855 620.275 273.191Q622.555 274.526 624.801 275.918Q627.047 277.309 629.258 278.756Q631.469 280.203 633.643 281.705Q635.817 283.206 637.953 284.761Q640.09 286.317 642.186 287.924Q644.283 289.532 646.339 291.191Q648.396 292.851 650.41 294.561Q652.424 296.271 654.396 298.03Q656.367 299.79 658.294 301.598Q660.221 303.406 662.102 305.261Q663.983 307.116 665.818 309.018Q667.652 310.919 669.439 312.866Q671.226 314.813 672.964 316.803Q675.255 319.375 677.463 322.018Q679.671 324.661 681.795 327.372Q683.918 330.084 685.956 332.861Q687.993 335.638 689.941 338.478Q691.89 341.318 693.747 344.218Q695.605 347.118 697.371 350.075Q699.136 353.032 700.807 356.044Q702.479 359.055 704.054 362.118Q705.629 365.181 707.107 368.292Q708.585 371.402 709.964 374.558Q711.343 377.714 712.622 380.912Q713.901 384.11 715.078 387.347Q716.255 390.584 717.329 393.856Q718.404 397.128 719.374 400.432Q720.345 403.737 721.211 407.07Q722.077 410.404 722.837 413.763C729.33 442.785 727.911 472.373 727.887 501.899L728.055 583.513L727.966 748.21C727.969 779.822 728.578 811.534 727.947 843.133C720.393 842.552 712.528 842.967 704.95 842.981L662.449 843.073L558.364 843.09C546.871 843.096 535.166 843.764 523.714 843.49C523.042 843.474 522.605 843.305 522.036 842.965L521.703 841.6L521.359 843.004C519.599 843.95 485.718 843.934 483.104 843.21L482.681 841.604L482.106 843.647C475.879 845.159 455.474 843.978 447.922 843.985L362.016 844.092L319.749 844.211C312.215 844.233 304.499 843.935 296.983 844.404C297.616 811.902 297.061 779.264 297.062 746.746L297.037 554.228L296.979 486.144C296.945 461.848 296.284 438.032 301.291 414.102Q301.968 410.801 302.749 407.522Q303.53 404.244 304.415 400.992Q305.3 397.74 306.288 394.518Q307.276 391.296 308.365 388.107Q309.455 384.918 310.646 381.765Q311.836 378.612 313.126 375.499Q314.416 372.386 315.804 369.315Q317.193 366.244 318.678 363.219Q320.163 360.193 321.744 357.217Q323.324 354.241 324.998 351.316Q326.673 348.391 328.439 345.521Q330.205 342.651 332.062 339.838Q333.919 337.026 335.864 334.274Q337.809 331.521 339.84 328.833Q341.872 326.144 343.988 323.521Q346.104 320.897 348.302 318.343C385.829 274.229 441.122 248.617 498.428 244.031L498.529 196.168Z"/>
	<path fill="#989797" d="M498.529 196.168C506.066 199.231 513.131 201.07 521.072 197.821C522.383 197.285 523.683 196.702 524.975 196.12L524.932 198.439C524.258 204.208 524.551 210.228 524.551 216.036L524.592 244.171Q511.511 243.926 498.428 244.031L498.529 196.168Z"/>
	<path fill="#545454" d="M462.923 746.069C470.621 746.634 478.392 746.803 486.104 747.195C493.689 748.41 502.173 748.3 509.873 748.611C518.498 749.186 527.46 750.411 536.07 750.553C543.735 750.38 551.509 751.378 559.165 751.839L556.901 771.364C553.221 771.131 532.695 769.016 530.661 769.968C527.489 768.666 495.015 767.543 489.483 767.551C480.126 767.045 470.748 766.065 461.392 765.417C461.562 758.988 462.369 752.48 462.923 746.069Z"/>
	<path fill="#191615" d="M489.483 767.551C495.015 767.543 527.489 768.666 530.661 769.968C528.065 793.879 524.61 817.722 521.703 841.6L521.359 843.004C519.599 843.95 485.718 843.934 483.104 843.21L482.681 841.604C483.795 833.16 484.245 824.522 485.002 816.029L489.483 767.551Z"/>
	<path fill="#989797" d="M486.104 747.195C486.914 746.822 487.147 746.682 487.43 745.782C488.269 743.111 489.009 729.257 489.381 725.426L500.301 617.547Q501.93 600.912 503.733 584.295C504.446 577.422 504.259 569 506.675 562.562C508.441 557.859 512.042 553.055 514.632 548.71C520.617 538.666 526.763 528.698 532.289 518.399C532.96 517.151 533.258 516.194 534.617 515.747L535.365 516.947C534.926 517.718 534.573 518.321 534.361 519.192C533.244 523.765 533.143 529.034 532.664 533.736L529.719 563.546L522.146 636.208C521.108 646.537 520.538 656.957 519.402 667.259L512.685 724.569C511.762 732.508 510.35 740.651 509.873 748.611C502.173 748.3 493.689 748.41 486.104 747.195Z"/>
	<path fill="#7B7B7B" d="M535.365 516.947C538.965 526.424 552.885 559.616 553.636 567.123C554.258 573.333 552.877 580.303 552.149 586.497L548.83 614.575L538.148 713.276C536.858 725.066 534.563 736.805 533.546 748.607C533.468 749.513 533.378 749.071 534.003 749.931L536.07 750.553C527.46 750.411 518.498 749.186 509.873 748.611C510.35 740.651 511.762 732.508 512.685 724.569L519.402 667.259C520.538 656.957 521.108 646.537 522.146 636.208L529.719 563.546L532.664 533.736C533.143 529.034 533.244 523.765 534.361 519.192C534.573 518.321 534.926 517.718 535.365 516.947Z"/>
	<path fill="#545454" d="M433.73 417.699C443.112 417.352 452.641 417.74 462.038 417.792L513.822 417.888L563.481 417.734C571.189 417.698 579.099 417.197 586.782 417.565C589.835 417.712 592.982 418.285 595.721 419.69C599.324 421.538 601.911 424.65 603.143 428.501Q603.413 429.33 603.598 430.183Q603.784 431.035 603.883 431.901Q603.982 432.768 603.993 433.64Q604.004 434.512 603.928 435.381Q603.852 436.25 603.689 437.107Q603.525 437.964 603.277 438.8Q603.029 439.636 602.698 440.443Q602.366 441.249 601.956 442.019C599.46 446.64 595.727 449.121 590.829 450.671C582.366 451.646 573.149 450.991 564.613 450.995L513.295 450.993L461.165 450.958C453.156 450.954 444.591 451.628 436.64 450.964C433.027 450.663 429.599 449.783 426.579 447.707Q425.893 447.243 425.257 446.714Q424.62 446.185 424.039 445.595Q423.457 445.006 422.936 444.363Q422.415 443.72 421.96 443.028Q421.505 442.337 421.12 441.604Q420.735 440.871 420.423 440.104Q420.112 439.337 419.878 438.543Q419.643 437.749 419.488 436.936C418.685 432.593 419.57 427.959 422.174 424.361C425.038 420.405 429.048 418.549 433.73 417.699Z"/>
</svg>
